<?xml version="1.0" encoding="UTF-8" standalone="no"?><svg xmlns="http://www.w3.org/2000/svg" xmlns:xlink="http://www.w3.org/1999/xlink" clip-rule="evenodd" stroke-miterlimit="4.00" viewBox="0 0 161 77"><desc>SVG generated by Keynote</desc><defs></defs><g transform="matrix(1.00, 0.00, -0.00, -1.00, 0.0, 77.0)"><path d="M 157.1 72.4 L 95.8 48.3 L 9.1 48.3 C 6.4 48.3 4.1 46.0 4.1 43.3 L 4.1 9.2 C 4.1 6.4 6.4 4.2 9.1 4.2 L 112.6 4.2 C 115.3 4.2 117.6 6.4 117.6 9.2 L 117.6 33.0 L 157.1 72.4 Z M 157.1 72.4 " fill="#212121"></path><path d="M 146.9 69.9 C 147.2 69.9 147.8 70.4 148.1 70.3 M 146.9 69.9 C 147.2 71.2 148.4 71.8 150.0 72.6 C 151.7 73.3 150.3 71.6 150.6 71.3 C 153.1 71.8 152.8 72.5 152.1 73.5 C 153.2 73.1 155.3 75.5 155.3 73.9 C 151.6 72.4 158.1 74.6 155.3 72.5 C 155.0 72.2 156.1 72.2 156.4 72.3 C 155.6 71.3 157.6 71.4 156.1 70.3 C 156.2 69.3 156.4 69.8 155.6 68.7 C 155.2 68.5 155.2 68.8 155.2 69.1 C 154.6 70.0 154.1 68.0 153.0 68.3 C 152.7 66.6 151.3 67.9 151.8 68.7 C 151.1 68.2 150.6 66.5 149.5 67.1 C 149.3 66.3 147.0 65.9 147.9 67.2 C 148.7 68.1 147.5 68.1 147.2 68.4 C 147.5 68.8 148.9 68.9 149.0 69.2 C 148.5 69.3 146.7 69.1 148.5 69.8 C 147.8 70.0 148.5 70.6 146.9 69.9 C 146.9 69.9 146.9 69.9 146.9 69.9 Z M 152.9 73.2 C 152.8 73.5 152.3 72.9 152.9 73.2 C 152.9 73.2 152.9 73.2 152.9 73.2 Z M 150.4 66.7 C 150.3 67.1 149.8 66.5 150.4 66.7 C 150.4 66.7 150.4 66.7 150.4 66.7 Z M 154.9 68.9 C 154.8 69.3 154.3 68.7 154.9 68.9 C 154.9 68.9 154.9 68.9 154.9 68.9 Z M 151.4 72.3 C 150.5 71.6 152.4 72.1 152.4 72.5 C 152.2 72.4 151.5 72.7 151.4 72.3 C 151.4 72.3 151.4 72.3 151.4 72.3 Z M 152.0 70.2 C 151.9 70.3 151.5 70.2 151.6 69.8 C 151.9 69.8 152.1 70.1 152.0 70.2 C 152.0 70.2 152.0 70.2 152.0 70.2 Z M 156.4 73.6 C 156.2 73.7 155.8 73.6 156.0 73.2 C 156.3 73.2 156.5 73.5 156.4 73.6 C 156.4 73.6 156.4 73.6 156.4 73.6 Z M 150.6 70.9 C 150.4 70.8 150.4 70.4 150.7 70.5 C 150.8 70.7 151.5 71.0 150.6 70.9 C 150.6 70.9 150.6 70.9 150.6 70.9 Z M 148.6 71.5 C 147.9 71.0 149.7 71.1 149.6 71.3 C 149.8 71.6 149.0 72.0 148.6 71.5 C 148.6 71.5 148.6 71.5 148.6 71.5 Z M 150.3 70.2 C 149.7 69.8 150.7 70.1 150.3 70.2 C 150.3 70.2 150.3 70.2 150.3 70.2 Z M 156.7 70.7 C 156.1 70.2 157.1 70.5 156.7 70.7 C 156.7 70.7 156.7 70.7 156.7 70.7 Z M 153.5 68.1 C 152.9 67.7 153.9 68.0 153.5 68.1 C 153.5 68.1 153.5 68.1 153.5 68.1 Z M 153.5 72.3 C 154.7 72.8 153.3 73.3 153.5 72.3 C 153.5 72.3 153.5 72.3 153.5 72.3 Z M 146.7 70.8 C 147.9 71.3 146.5 71.8 146.7 70.8 C 146.7 70.8 146.7 70.8 146.7 70.8 Z M 157.4 69.7 C 158.4 70.4 156.1 66.3 156.2 68.5 C 155.7 69.8 153.5 67.5 155.0 67.3 C 154.4 66.5 154.4 66.5 153.7 66.5 C 154.2 65.8 153.1 64.0 152.2 63.8 C 151.3 64.0 153.1 64.9 151.6 64.5 C 149.5 62.8 151.1 65.2 149.6 65.2 C 149.5 65.1 149.9 64.7 149.5 64.7 C 148.7 65.3 149.3 66.8 148.3 66.8 C 148.7 67.0 149.3 69.1 149.3 68.0 C 149.8 67.2 150.1 70.2 151.0 69.1 C 151.0 70.0 152.2 69.9 152.0 70.9 C 152.3 71.4 152.8 70.8 152.9 70.6 C 153.4 70.1 152.2 72.1 153.6 71.8 C 153.4 72.1 155.1 73.6 154.3 72.1 C 154.6 72.5 156.1 74.5 156.1 72.6 C 155.3 70.9 158.4 72.9 157.0 71.4 C 156.0 70.2 155.6 70.2 156.9 70.5 C 157.1 70.8 158.4 72.0 157.8 70.5 C 157.4 70.4 157.0 69.8 157.4 69.7 C 157.4 69.7 157.4 69.7 157.4 69.7 Z M 156.2 71.3 C 155.6 70.7 156.6 70.9 156.2 71.3 C 156.2 71.3 156.2 71.3 156.2 71.3 Z M 151.7 71.0 C 151.0 70.4 152.0 70.6 151.7 71.0 C 151.7 71.0 151.7 71.0 151.7 71.0 Z M 155.7 67.5 C 155.0 67.4 156.0 66.4 155.7 67.5 C 155.7 67.5 155.7 67.5 155.7 67.5 Z M 153.6 71.3 C 153.6 71.3 153.8 71.3 154.0 71.4 C 154.0 71.4 153.7 71.4 153.6 71.3 C 153.6 71.3 153.6 71.3 153.6 71.3 Z M 154.6 66.4 C 153.1 65.9 155.2 65.5 154.6 66.4 C 154.6 66.4 154.6 66.4 154.6 66.4 Z M 151.7 65.4 C 150.5 66.2 150.9 64.2 151.7 65.4 C 151.7 65.4 151.7 65.4 151.7 65.4 Z M 150.8 68.7 C 151.2 68.7 150.8 69.0 150.8 68.7 C 150.8 68.7 150.8 68.7 150.8 68.7 Z M 154.9 73.1 C 155.3 73.1 155.0 73.4 154.9 73.1 C 154.9 73.1 154.9 73.1 154.9 73.1 Z M 149.7 67.4 C 150.1 67.2 149.8 68.0 149.7 67.4 C 149.7 67.4 149.7 67.4 149.7 67.4 Z M 155.1 67.7 C 156.7 67.8 155.0 69.8 155.1 67.7 C 155.1 67.7 155.1 67.7 155.1 67.7 Z M 156.7 69.2 C 157.5 69.6 156.1 69.5 156.0 69.1 C 156.1 69.1 156.6 69.1 156.7 69.2 C 156.7 69.2 156.7 69.2 156.7 69.2 Z M 154.1 66.8 C 155.1 67.1 154.4 67.6 154.1 66.8 C 154.1 66.8 154.1 66.8 154.1 66.8 Z M 156.0 67.9 C 156.2 68.3 155.7 67.8 156.0 67.9 C 156.0 67.9 156.0 67.9 156.0 67.9 Z M 153.7 64.9 C 153.9 65.3 153.4 64.8 153.7 64.9 C 153.7 64.9 153.7 64.9 153.7 64.9 Z M 157.8 69.5 C 158.0 69.9 157.5 69.3 157.8 69.5 C 157.8 69.5 157.8 69.5 157.8 69.5 Z M 153.4 65.6 C 153.0 65.9 153.0 67.4 152.2 65.3 C 152.2 64.8 153.3 65.0 153.4 65.6 C 153.4 65.6 153.4 65.6 153.4 65.6 Z M 143.3 68.5 C 148.0 72.0 147.6 68.9 148.0 68.6 C 149.0 68.2 148.5 67.4 147.6 66.6 C 147.0 64.5 145.3 67.6 145.1 65.7 C 144.4 62.9 142.9 66.9 143.0 64.4 C 143.5 63.9 141.2 63.6 141.4 63.8 C 140.7 62.3 138.6 63.6 138.5 63.8 C 137.9 63.3 138.5 61.2 135.9 61.9 C 134.1 61.8 134.0 59.5 134.0 61.1 C 133.3 59.0 133.0 61.2 132.0 60.2 C 131.4 59.0 131.6 61.5 130.6 59.3 C 129.5 60.3 131.5 58.7 127.2 58.0 C 129.1 58.9 125.0 58.3 126.0 57.7 C 127.6 57.3 124.0 57.3 122.3 56.0 C 121.7 56.3 119.1 56.7 119.8 55.5 C 118.3 53.2 117.7 55.7 117.2 54.1 C 116.7 53.3 116.1 54.3 115.7 54.1 C 115.3 52.9 114.5 53.3 112.2 52.1 C 107.1 49.5 110.8 54.2 108.8 53.8 C 108.4 54.1 110.5 58.4 109.9 55.6 C 110.1 56.4 114.9 55.6 112.2 57.3 C 114.1 56.9 111.6 58.3 115.1 58.3 C 111.1 54.7 120.3 59.5 115.8 58.7 C 116.4 59.6 118.2 60.1 117.0 59.2 C 117.0 57.4 119.9 61.1 118.6 58.4 C 121.2 60.1 121.0 58.0 121.4 59.5 C 121.4 62.0 121.4 58.9 122.6 60.1 C 125.8 61.4 122.6 62.9 125.0 62.0 C 127.8 64.3 126.0 61.3 127.2 61.5 C 127.9 60.1 130.0 63.9 127.6 63.1 C 129.1 62.8 127.6 63.9 129.3 63.5 C 128.6 61.8 130.7 65.7 130.6 64.5 C 132.0 64.6 131.6 63.5 132.0 63.7 C 133.9 64.4 132.9 65.5 133.6 64.7 C 134.2 64.3 134.5 66.4 134.9 66.1 C 133.0 65.2 137.0 65.3 137.0 66.1 C 135.7 65.7 137.0 68.1 138.1 67.3 C 138.1 64.0 139.6 68.8 140.8 68.1 C 140.5 66.1 145.1 69.5 143.0 69.5 C 143.1 69.5 143.3 68.4 143.3 68.5 M 135.6 66.0 C 134.0 65.3 137.4 66.4 135.6 66.0 M 135.5 66.5 C 135.0 65.7 136.9 67.5 135.4 66.7 C 135.3 66.6 135.6 66.6 135.5 66.5 M 128.8 64.0 C 129.2 63.6 129.6 64.6 128.8 64.0 M 127.9 62.4 C 126.9 61.6 129.3 62.9 127.9 62.4 M 113.0 57.0 C 115.1 55.0 114.2 59.0 113.0 57.0 M 122.6 61.3 C 124.5 61.7 121.7 62.1 122.6 61.3 M 123.3 60.9 C 124.3 60.8 123.4 61.5 123.3 60.9 M 115.8 58.1 C 115.7 58.0 115.7 58.0 115.8 58.1 C 115.8 58.1 115.8 58.1 115.8 58.1 Z M 111.5 56.3 C 111.4 56.3 111.4 56.3 111.5 56.3 C 111.5 56.3 111.5 56.3 111.5 56.3 Z M 120.1 59.5 C 121.3 60.6 117.9 58.8 120.1 59.5 C 120.1 59.5 120.1 59.5 120.1 59.5 Z M 114.5 53.3 C 114.6 53.3 114.6 53.3 114.5 53.3 C 114.5 53.3 114.5 53.3 114.5 53.3 Z M 137.2 65.4 C 137.3 65.4 137.3 65.4 137.2 65.4 C 137.2 65.4 137.2 65.4 137.2 65.4 Z M 141.9 68.3 C 141.9 68.0 142.7 68.9 141.9 68.3 C 141.9 68.3 141.9 68.3 141.9 68.3 Z M 146.9 67.1 C 147.0 67.1 147.0 67.1 146.9 67.1 C 146.9 67.1 146.9 67.1 146.9 67.1 Z M 139.3 64.8 C 139.4 64.8 139.4 64.8 139.3 64.8 C 139.3 64.8 139.3 64.8 139.3 64.8 Z M 138.0 66.3 C 138.4 68.0 136.2 65.2 138.0 66.3 C 138.0 66.3 138.0 66.3 138.0 66.3 Z M 122.7 56.7 C 122.5 57.3 121.6 56.0 122.7 56.7 C 122.7 56.7 122.7 56.7 122.7 56.7 Z M 127.8 61.8 C 127.5 62.0 127.1 61.4 127.8 61.8 C 127.8 61.8 127.8 61.8 127.8 61.8 Z M 130.0 64.7 C 129.7 64.9 129.3 64.3 130.0 64.7 C 130.0 64.7 130.0 64.7 130.0 64.7 Z M 141.7 68.6 C 141.5 68.7 141.5 68.7 141.7 68.6 C 141.7 68.6 141.7 68.6 141.7 68.6 Z M 140.2 66.9 C 141.0 68.7 138.5 65.5 140.2 66.9 C 140.2 66.9 140.2 66.9 140.2 66.9 Z M 142.5 67.4 C 142.0 66.7 144.0 68.2 142.5 67.4 M 141.9 65.0 C 140.2 64.9 144.1 63.3 141.9 65.0 C 141.9 65.0 141.9 65.0 141.9 65.0 Z M 134.3 61.5 C 134.3 61.4 134.3 61.4 134.3 61.5 C 134.3 61.5 134.3 61.5 134.3 61.5 Z M 134.0 65.5 C 132.7 64.9 134.9 65.5 134.0 65.5 C 134.0 65.5 134.0 65.5 134.0 65.5 Z M 145.4 70.3 C 144.1 69.7 146.4 70.3 145.4 70.3 C 145.4 70.3 145.4 70.3 145.4 70.3 Z M 129.5 60.9 C 127.2 60.3 131.0 60.8 129.5 60.9 C 129.5 60.9 129.5 60.9 129.5 60.9 Z M 121.0 59.3 C 121.0 59.2 121.0 59.2 121.0 59.3 C 121.0 59.3 121.0 59.3 121.0 59.3 Z M 119.4 59.2 C 119.4 59.2 119.4 59.2 119.4 59.2 C 119.4 59.2 119.4 59.2 119.4 59.2 Z M 113.5 55.5 C 113.4 55.4 113.4 55.4 113.5 55.5 C 113.5 55.5 113.5 55.5 113.5 55.5 Z M 117.9 59.3 C 117.8 59.3 117.8 59.3 117.9 59.3 C 117.9 59.3 117.9 59.3 117.9 59.3 Z M 113.7 57.3 C 113.6 57.2 113.6 57.2 113.7 57.3 C 113.7 57.3 113.7 57.3 113.7 57.3 Z M 114.0 58.6 C 113.9 58.6 113.9 58.6 114.0 58.6 C 114.0 58.6 114.0 58.6 114.0 58.6 Z M 125.1 56.8 C 125.0 56.7 125.0 56.7 125.1 56.8 C 125.1 56.8 125.1 56.8 125.1 56.8 Z M 139.2 68.1 C 139.1 68.0 139.1 68.0 139.2 68.1 C 139.2 68.1 139.2 68.1 139.2 68.1 Z M 114.1 56.9 C 114.1 56.9 114.1 56.9 114.1 56.9 C 114.1 56.9 114.1 56.9 114.1 56.9 Z M 124.9 60.0 C 125.2 58.9 125.4 61.8 124.6 60.0 C 124.7 59.9 124.9 60.2 124.9 60.0 M 124.0 57.6 C 124.1 57.6 124.1 57.6 124.0 57.6 C 124.0 57.6 124.0 57.6 124.0 57.6 Z M 129.0 58.9 C 129.1 58.8 129.1 58.8 129.0 58.9 C 129.0 58.9 129.0 58.9 129.0 58.9 Z M 118.6 59.8 C 118.6 60.5 117.5 58.9 118.8 59.9 M 114.0 53.5 C 114.0 54.2 112.9 52.6 114.1 53.5 M 147.1 70.5 C 147.4 70.1 147.9 71.1 147.1 70.5 M 130.2 58.7 C 130.6 58.3 131.1 59.3 130.2 58.7 M 127.6 59.2 C 127.6 59.9 126.5 58.3 127.8 59.3 M 117.2 54.8 C 117.2 54.8 117.2 54.8 117.2 54.8 C 117.2 54.8 117.2 54.8 117.2 54.8 Z M 132.0 64.6 C 131.9 64.5 131.9 64.5 132.0 64.6 C 132.0 64.6 132.0 64.6 132.0 64.6 Z M 126.6 61.0 C 127.1 62.1 125.7 60.0 126.6 61.0 M 134.1 63.8 C 135.0 65.3 132.4 62.7 134.1 63.8 M 111.5 52.3 C 112.5 54.0 110.7 51.2 111.5 52.3 M 117.2 57.9 C 118.1 59.7 116.4 56.9 117.2 57.9 M 131.0 63.6 C 130.9 64.3 129.8 62.7 131.0 63.6 M 144.0 69.4 C 145.2 70.0 142.2 69.3 144.0 69.4 M 120.4 56.0 C 120.4 56.0 120.4 56.0 120.4 56.0 C 120.4 56.0 120.4 56.0 120.4 56.0 Z M 141.6 63.1 C 141.6 63.1 141.6 63.1 141.6 63.1 C 141.6 63.1 141.6 63.1 141.6 63.1 Z M 108.9 55.8 C 108.8 55.7 108.8 55.7 108.9 55.8 C 108.9 55.8 108.9 55.8 108.9 55.8 Z M 118.1 57.7 C 118.1 57.6 118.1 57.6 118.1 57.7 C 118.1 57.7 118.1 57.7 118.1 57.7 Z M 111.3 56.9 C 111.3 56.8 111.3 56.8 111.3 56.9 C 111.3 56.9 111.3 56.9 111.3 56.9 Z M 122.4 58.3 C 122.4 58.2 122.4 58.2 122.4 58.3 C 122.4 58.3 122.4 58.3 122.4 58.3 Z M 122.3 61.8 C 122.3 61.8 122.3 61.8 122.3 61.8 C 122.3 61.8 122.3 61.8 122.3 61.8 Z M 127.1 62.2 C 127.1 62.1 127.1 62.1 127.1 62.2 C 127.1 62.2 127.1 62.2 127.1 62.2 Z M 120.4 60.8 C 117.7 59.9 122.0 60.2 120.4 60.8 C 120.4 60.8 120.4 60.8 120.4 60.8 Z M 125.8 59.4 C 125.8 59.3 125.8 59.3 125.8 59.4 C 125.8 59.4 125.8 59.4 125.8 59.4 Z M 125.5 61.7 C 123.6 62.0 125.1 59.9 125.5 61.7 M 132.6 65.4 C 132.0 65.6 132.6 64.5 132.6 65.4 M 136.8 62.4 C 136.9 62.3 136.9 62.3 136.8 62.4 C 136.8 62.4 136.8 62.4 136.8 62.4 Z M 136.0 62.4 C 135.9 62.3 135.9 62.3 136.0 62.4 C 136.0 62.4 136.0 62.4 136.0 62.4 Z M 134.3 66.2 C 134.3 66.2 134.3 66.2 134.3 66.2 C 134.3 66.2 134.3 66.2 134.3 66.2 Z M 136.2 61.2 C 136.1 61.1 136.1 61.1 136.2 61.2 C 136.2 61.2 136.2 61.2 136.2 61.2 Z M 123.3 62.1 C 123.3 62.1 123.3 62.1 123.3 62.1 C 123.3 62.1 123.3 62.1 123.3 62.1 Z M 109.9 56.9 C 109.9 56.9 109.9 56.9 109.9 56.9 C 109.9 56.9 109.9 56.9 109.9 56.9 Z M 144.8 66.0 C 144.7 65.9 144.7 65.9 144.8 66.0 C 144.8 66.0 144.8 66.0 144.8 66.0 Z M 122.3 60.3 C 122.3 60.2 122.3 60.2 122.3 60.3 C 122.3 60.3 122.3 60.3 122.3 60.3 Z M 138.7 63.3 C 138.7 63.2 138.7 63.2 138.7 63.3 C 138.7 63.3 138.7 63.3 138.7 63.3 Z M 123.1 60.9 C 123.1 60.9 123.1 60.9 123.1 60.9 C 123.1 60.9 123.1 60.9 123.1 60.9 Z M 120.9 55.9 C 120.9 55.9 120.9 55.9 120.9 55.9 C 120.9 55.9 120.9 55.9 120.9 55.9 Z M 118.2 54.1 C 118.2 54.0 118.2 54.0 118.2 54.1 C 118.2 54.1 118.2 54.1 118.2 54.1 Z M 120.5 58.2 C 120.5 58.2 120.5 58.2 120.5 58.2 C 120.5 58.2 120.5 58.2 120.5 58.2 Z M 139.2 65.0 C 144.1 68.2 134.8 63.9 139.2 65.0 M 119.7 57.6 C 123.3 59.3 116.4 57.7 119.7 57.6 C 119.2 57.8 119.6 57.7 119.7 57.6 M 107.5 55.8 C 109.3 55.2 109.5 54.1 109.1 52.6 C 108.5 51.7 108.0 54.1 108.4 52.0 C 110.3 52.3 108.4 48.7 107.8 51.3 C 105.4 50.8 107.8 49.5 106.2 50.0 C 103.7 49.3 105.1 49.0 103.2 48.4 C 101.8 49.4 102.2 47.3 101.5 48.4 C 102.7 47.3 99.3 48.1 99.4 47.4 C 100.7 47.2 97.1 46.0 96.2 46.0 C 96.0 46.0 95.9 46.1 96.1 46.3 C 96.3 46.5 96.7 46.7 97.3 47.0 C 96.7 47.0 96.3 46.9 96.1 46.7 C 95.5 46.5 95.7 45.9 95.2 45.8 C 94.2 46.7 92.1 45.1 90.7 46.0 C 90.9 46.2 91.5 46.2 91.7 46.5 C 91.9 47.1 90.3 46.4 90.5 46.4 C 89.6 46.7 86.3 47.7 89.9 46.1 C 90.2 45.4 87.1 46.4 87.3 45.8 C 84.4 45.7 86.4 47.2 85.2 46.1 C 83.1 46.1 81.6 46.1 81.6 46.3 C 80.3 46.1 80.2 45.3 78.9 46.1 C 76.6 44.5 76.6 49.1 76.1 46.0 C 75.3 46.8 74.8 44.7 74.7 46.7 C 75.7 45.8 70.5 45.2 72.6 46.6 C 71.9 47.0 68.9 44.6 69.1 46.5 C 67.8 47.9 67.8 49.4 70.2 50.7 C 70.0 49.6 72.7 51.9 71.1 50.0 C 68.9 49.3 75.2 49.3 73.8 50.0 C 73.2 52.2 77.0 48.6 78.1 50.2 C 77.2 49.3 82.4 48.8 80.6 50.5 C 81.5 50.7 81.9 49.9 82.7 50.8 C 79.7 50.7 84.2 49.1 83.8 50.1 C 83.2 50.7 87.7 51.3 87.4 50.3 C 86.2 48.0 88.5 50.8 89.4 49.9 C 92.0 49.4 88.7 51.8 90.8 50.1 C 91.3 50.4 94.6 50.4 92.4 50.9 C 91.7 50.7 94.9 48.4 94.9 50.3 C 93.0 50.9 94.0 51.1 95.3 51.0 C 96.5 51.4 98.1 51.8 97.6 51.2 C 92.7 48.1 103.3 52.1 99.0 51.6 C 101.1 53.6 98.3 51.8 101.2 52.4 C 100.9 51.7 103.3 51.9 102.5 53.0 C 102.5 55.0 103.8 50.8 105.0 54.0 C 105.0 55.2 108.6 54.5 107.1 55.3 C 107.0 55.4 107.4 55.8 107.5 55.8 M 106.5 55.2 C 107.0 54.9 107.0 56.0 106.5 55.2 M 107.0 54.9 C 107.0 55.0 107.0 55.0 107.0 54.9 C 107.0 54.9 107.0 54.9 107.0 54.9 Z M 101.6 52.5 C 101.6 52.6 101.6 52.6 101.6 52.5 C 101.6 52.5 101.6 52.5 101.6 52.5 Z M 98.2 46.1 C 98.3 46.2 98.3 46.2 98.2 46.1 C 98.2 46.1 98.2 46.1 98.2 46.1 Z M 98.0 51.0 C 98.1 51.0 98.1 51.0 98.0 51.0 C 98.0 51.0 98.0 51.0 98.0 51.0 Z M 103.6 53.0 C 103.7 53.0 103.7 53.0 103.6 53.0 C 103.6 53.0 103.6 53.0 103.6 53.0 Z M 98.2 51.8 C 98.1 51.0 99.4 52.8 98.1 51.9 C 98.1 51.8 98.3 51.9 98.2 51.8 M 93.3 51.0 C 93.3 50.9 93.3 50.9 93.3 51.0 M 83.0 45.4 C 82.9 45.3 82.9 45.3 83.0 45.4 M 81.1 51.0 C 81.0 50.9 81.0 50.9 81.1 51.0 M 88.4 50.2 C 86.8 50.3 88.0 49.9 88.4 50.2 M 77.1 50.6 C 79.0 51.1 74.9 51.0 77.1 50.6 M 75.1 51.0 C 75.0 51.0 75.0 51.0 75.1 51.0 M 84.0 50.8 C 84.1 50.7 84.1 50.7 84.0 50.8 C 84.0 50.8 84.0 50.8 84.0 50.8 Z M 89.0 50.5 C 90.9 50.9 86.8 51.2 89.0 50.5 M 100.8 52.9 C 99.7 52.9 101.0 52.0 100.8 52.9 M 103.1 53.4 C 103.1 53.4 103.1 53.4 103.1 53.4 C 103.1 53.4 103.1 53.4 103.1 53.4 Z M 80.2 50.7 C 80.3 50.6 80.3 50.6 80.2 50.7 C 80.2 50.7 80.2 50.7 80.2 50.7 Z M 78.0 50.8 C 78.0 50.8 78.0 50.8 78.0 50.8 C 78.0 50.8 78.0 50.8 78.0 50.8 Z M 74.9 45.6 C 75.0 45.5 75.0 45.5 74.9 45.6 C 74.9 45.6 74.9 45.6 74.9 45.6 Z M 101.9 50.6 C 103.3 51.5 100.1 51.7 100.7 50.6 C 100.6 50.0 101.7 50.7 101.9 50.6 M 90.7 48.9 C 90.6 47.2 91.8 51.4 90.7 48.9 M 75.0 49.9 C 73.8 47.8 76.7 51.3 75.0 49.9 M 71.9 50.2 C 71.0 49.8 77.7 50.0 72.9 50.5 C 72.4 50.9 72.2 50.5 71.9 50.2 M 93.4 50.1 C 93.1 49.1 95.7 50.5 93.4 50.1 M 84.5 47.2 C 83.6 47.8 81.6 48.3 82.6 47.3 C 82.9 45.9 85.5 46.6 84.5 47.2 M 106.3 54.0 C 104.8 55.1 106.6 52.7 106.3 54.0 M 100.8 51.7 C 100.8 51.8 100.8 51.8 100.8 51.7 C 100.8 51.7 100.8 51.7 100.8 51.7 Z M 98.6 51.1 C 98.5 51.0 98.5 51.0 98.6 51.1 M 105.1 55.1 C 105.0 54.9 105.0 54.9 105.1 55.1 M 84.3 48.8 C 84.2 48.7 84.2 48.7 84.3 48.8 M 88.9 49.8 C 86.9 48.3 90.2 49.5 88.9 49.8 M 95.0 46.8 C 94.5 46.1 96.5 46.8 95.0 46.8 M 85.0 50.4 C 83.6 48.9 87.5 49.0 85.0 50.4 M 90.0 50.0 C 89.9 50.0 89.9 50.0 90.0 50.0 C 90.0 50.0 90.0 50.0 90.0 50.0 Z M 83.9 47.0 C 83.9 47.0 83.9 47.0 83.9 47.0 C 83.9 47.0 83.9 47.0 83.9 47.0 Z M 83.2 47.1 C 83.3 47.0 83.3 47.0 83.2 47.1 C 83.2 47.1 83.2 47.1 83.2 47.1 Z M 83.0 50.6 C 83.1 50.5 83.1 50.5 83.0 50.6 C 83.0 50.6 83.0 50.6 83.0 50.6 Z M 104.1 49.4 C 102.6 48.7 105.3 49.7 104.1 49.4 C 104.1 49.4 104.1 49.4 104.1 49.4 Z M 96.5 51.1 C 94.2 49.0 98.4 50.7 96.5 51.1 C 96.5 51.1 96.5 51.1 96.5 51.1 Z M 93.9 48.7 C 93.9 48.6 93.9 48.6 93.9 48.7 C 93.9 48.7 93.9 48.7 93.9 48.7 Z M 85.9 51.3 C 85.9 51.2 85.9 51.2 85.9 51.3 C 85.9 51.3 85.9 51.3 85.9 51.3 Z M 103.4 48.9 C 103.4 48.8 103.4 48.8 103.4 48.9 C 103.4 48.9 103.4 48.9 103.4 48.9 Z M 78.5 49.8 C 78.5 49.7 78.5 49.7 78.5 49.8 C 78.5 49.8 78.5 49.8 78.5 49.8 Z M 88.4 46.8 C 87.7 47.3 88.3 46.3 88.4 46.8 C 88.4 46.8 88.4 46.8 88.4 46.8 Z M 85.9 46.7 C 85.9 46.8 85.9 46.8 85.9 46.7 C 85.9 46.7 85.9 46.7 85.9 46.7 Z M 74.5 51.1 C 74.5 51.1 74.5 51.1 74.5 51.1 C 74.5 51.1 74.5 51.1 74.5 51.1 Z M 79.9 45.4 C 79.9 45.4 79.9 45.4 79.9 45.4 C 79.9 45.4 79.9 45.4 79.9 45.4 Z M 77.6 47.1 C 77.6 47.1 77.6 47.1 77.6 47.1 C 77.6 47.1 77.6 47.1 77.6 47.1 Z M 83.5 50.2 C 81.0 50.5 84.2 49.6 83.5 50.2 C 83.5 50.2 83.5 50.2 83.5 50.2 Z M 71.5 47.6 C 71.5 47.5 71.5 47.5 71.5 47.6 C 71.5 47.6 71.5 47.6 71.5 47.6 Z M 70.0 49.6 C 70.0 49.5 70.0 49.5 70.0 49.6 C 70.0 49.6 70.0 49.6 70.0 49.6 Z M 69.3 50.7 C 69.2 50.6 69.2 50.6 69.3 50.7 C 69.3 50.7 69.3 50.7 69.3 50.7 Z M 99.0 49.0 C 99.1 49.1 99.1 49.1 99.0 49.0 C 99.0 49.0 99.0 49.0 99.0 49.0 Z M 99.3 52.6 C 99.3 52.6 99.3 52.6 99.3 52.6 C 99.3 52.6 99.3 52.6 99.3 52.6 Z M 96.2 51.6 C 96.2 51.6 96.2 51.6 96.2 51.6 C 96.2 51.6 96.2 51.6 96.2 51.6 Z M 100.0 47.2 C 100.0 47.3 100.0 47.3 100.0 47.2 C 100.0 47.2 100.0 47.2 100.0 47.2 Z M 87.4 48.5 C 87.4 48.6 87.4 48.6 87.4 48.5 C 87.4 48.5 87.4 48.5 87.4 48.5 Z M 86.5 47.2 C 86.5 47.3 86.5 47.3 86.5 47.2 C 86.5 47.2 86.5 47.2 86.5 47.2 Z M 89.6 45.4 C 89.6 45.5 89.6 45.5 89.6 45.4 C 89.6 45.4 89.6 45.4 89.6 45.4 Z M 85.7 46.1 C 85.8 46.1 85.8 46.1 85.7 46.1 C 85.7 46.1 85.7 46.1 85.7 46.1 Z M 107.6 50.9 C 107.6 50.8 107.6 50.8 107.6 50.9 C 107.6 50.9 107.6 50.9 107.6 50.9 Z M 107.3 53.4 C 107.4 53.4 107.4 53.4 107.3 53.4 C 107.3 53.4 107.3 53.4 107.3 53.4 Z M 86.7 50.4 C 86.1 50.9 85.7 49.6 86.7 50.4 M 91.4 50.0 C 91.5 50.0 91.5 50.0 91.4 50.0 C 91.4 50.0 91.4 50.0 91.4 50.0 Z M 78.8 50.3 C 78.4 49.3 81.0 50.8 78.8 50.3 C 78.8 50.3 78.8 50.3 78.8 50.3 Z M 82.0 46.1 C 81.9 46.1 81.9 46.1 82.0 46.1 C 82.0 46.1 82.0 46.1 82.0 46.1 Z M 80.7 46.5 C 80.6 46.4 80.6 46.4 80.7 46.5 C 80.7 46.5 80.7 46.5 80.7 46.5 Z M 73.5 49.2 C 73.4 49.1 73.4 49.1 73.5 49.2 M 91.9 50.9 C 91.3 50.5 91.4 50.6 91.9 50.9 M 77.3 50.2 C 77.3 50.2 77.3 50.2 77.3 50.2 C 77.3 50.2 77.3 50.2 77.3 50.2 Z M 71.9 49.8 C 72.0 49.7 72.0 49.7 71.9 49.8 C 71.9 49.8 71.9 49.8 71.9 49.8 Z M 95.3 50.3 C 95.4 49.8 95.5 49.6 95.5 49.5 C 95.7 49.4 95.7 49.6 95.4 50.1 C 95.4 50.2 95.4 50.2 95.3 50.3 M 104.1 53.2 C 104.1 53.2 104.1 53.2 104.1 53.2 C 104.1 53.2 104.1 53.2 104.1 53.2 Z M 64.4 50.6 C 66.7 52.0 67.0 50.1 67.0 50.0 C 66.4 52.6 69.4 49.0 68.9 48.5 C 69.1 48.2 67.7 43.7 65.5 46.4 C 65.0 46.8 64.8 46.0 64.5 45.9 C 61.3 46.0 66.5 47.3 62.6 47.3 C 62.0 46.9 63.0 44.8 60.6 46.3 C 60.5 46.1 58.1 45.3 58.9 46.3 C 57.8 45.3 56.9 46.5 55.8 46.7 C 54.8 46.1 56.8 45.2 53.0 46.3 C 51.5 44.6 50.7 47.6 49.5 45.7 C 48.5 45.6 46.9 48.8 49.2 47.0 C 48.8 47.2 50.0 48.7 47.2 48.2 C 47.6 47.8 49.5 44.6 44.8 46.1 C 44.1 46.0 42.3 46.9 41.9 46.5 C 44.3 46.1 38.8 45.1 39.3 46.1 C 35.6 45.4 37.7 46.8 35.1 45.8 C 32.9 45.7 35.7 47.2 33.1 46.4 C 31.0 46.5 32.5 45.7 32.7 45.8 C 30.9 45.6 30.2 46.2 29.6 46.2 C 29.3 46.0 28.5 45.3 28.0 46.2 C 26.1 47.6 27.8 49.1 26.9 50.5 C 28.2 51.2 27.5 49.4 28.4 50.5 C 29.1 49.6 28.5 50.6 32.2 50.4 C 32.1 50.2 31.2 49.5 32.1 49.4 C 33.6 49.6 32.4 52.0 34.9 50.3 C 32.1 49.8 38.8 49.5 36.2 49.0 C 39.5 48.7 37.2 49.2 39.5 49.8 C 39.5 48.1 39.5 51.6 40.5 50.2 C 40.7 50.9 44.4 50.6 41.8 49.6 C 45.6 49.1 43.2 50.1 44.5 51.0 C 46.2 51.1 44.8 48.3 45.7 50.3 C 47.9 51.2 45.9 49.3 47.5 50.9 C 46.8 49.5 49.1 50.9 48.6 49.4 C 52.6 49.2 48.0 51.0 50.8 49.9 C 50.0 49.9 50.1 52.0 52.0 50.6 C 51.5 48.2 53.9 52.8 53.0 49.5 C 58.6 48.6 53.8 50.9 56.8 50.9 C 57.6 50.9 56.1 49.8 56.8 49.8 C 60.6 50.3 57.3 51.1 59.5 49.5 C 63.4 49.1 60.5 50.9 62.3 51.0 C 62.5 50.2 64.2 48.9 64.4 50.6 M 61.1 49.9 C 60.2 50.4 60.6 49.3 61.1 49.9 M 68.6 50.6 C 67.8 51.1 68.2 50.1 68.6 50.6 M 57.9 50.3 C 56.7 50.9 57.6 49.5 57.9 50.3 M 37.3 49.5 C 38.8 49.5 36.7 50.0 37.3 49.5 M 65.6 50.7 C 64.4 51.3 65.4 49.8 65.6 50.7 M 67.1 49.5 C 67.1 49.4 67.1 49.4 67.1 49.5 M 35.2 50.9 C 35.2 50.8 35.2 50.8 35.2 50.9 M 40.7 50.9 C 39.6 50.8 41.4 50.5 40.7 50.9 M 41.3 45.5 C 40.1 45.5 42.0 45.2 41.3 45.5 M 32.2 50.9 C 31.0 51.3 31.9 50.3 32.2 50.9 M 29.2 49.7 C 28.1 50.2 28.5 49.2 29.2 49.7 M 62.0 48.0 C 62.0 47.9 62.0 47.9 62.0 48.0 C 62.0 48.0 62.0 48.0 62.0 48.0 Z M 51.9 46.6 C 53.1 47.2 50.5 46.0 51.9 46.6 M 53.5 50.2 C 52.8 49.1 55.0 50.2 53.5 50.2 C 53.5 50.2 53.5 50.2 53.5 50.2 Z M 55.3 49.7 C 55.3 49.6 55.3 49.6 55.3 49.7 C 55.3 49.7 55.3 49.7 55.3 49.7 Z M 49.6 49.6 C 49.6 49.6 49.6 49.6 49.6 49.6 C 49.6 49.6 49.6 49.6 49.6 49.6 Z M 50.8 49.5 C 51.3 49.3 51.4 49.7 50.8 49.5 C 50.8 49.5 50.8 49.5 50.8 49.5 Z M 42.7 46.0 C 43.2 45.8 43.3 46.3 42.7 46.0 C 42.7 46.0 42.7 46.0 42.7 46.0 Z M 52.6 49.1 C 52.9 48.0 53.4 49.9 52.6 49.1 C 52.6 49.1 52.6 49.1 52.6 49.1 Z M 46.7 46.5 C 46.1 46.8 45.7 45.5 46.7 46.5 M 34.1 50.7 C 33.6 51.0 33.1 49.6 34.1 50.7 M 46.1 51.0 C 45.6 51.3 45.1 49.9 46.1 51.0 M 60.4 50.3 C 60.2 50.2 60.2 50.2 60.4 50.3 M 54.1 45.6 C 53.3 46.0 53.8 45.1 54.1 45.6 M 65.6 46.0 C 64.7 46.4 65.2 45.5 65.6 46.0 M 36.1 45.6 C 36.1 45.9 34.8 45.5 36.1 45.6 M 44.8 49.2 C 43.8 49.1 42.7 48.5 45.0 48.6 C 45.1 48.8 44.4 49.0 44.8 49.2 C 44.8 49.2 44.8 49.2 44.8 49.2 Z M 41.2 46.7 C 41.1 46.6 41.1 46.6 41.2 46.7 M 42.9 50.2 C 42.7 50.1 42.7 50.1 42.9 50.2 M 36.7 50.1 C 36.6 50.0 36.6 50.0 36.7 50.1 M 35.9 50.4 C 35.9 50.4 35.9 50.4 35.9 50.4 C 35.9 50.4 35.9 50.4 35.9 50.4 Z M 29.1 50.9 C 29.2 50.8 29.2 50.8 29.1 50.9 C 29.1 50.9 29.1 50.9 29.1 50.9 Z M 38.7 50.0 C 38.7 49.9 38.7 49.9 38.7 50.0 C 38.7 50.0 38.7 50.0 38.7 50.0 Z M 33.3 45.8 C 33.3 45.8 33.3 45.8 33.3 45.8 C 33.3 45.8 33.3 45.8 33.3 45.8 Z M 34.0 46.5 C 34.0 46.4 34.0 46.4 34.0 46.5 C 34.0 46.5 34.0 46.5 34.0 46.5 Z M 63.8 50.6 C 62.8 51.4 63.6 48.7 63.8 50.6 M 30.9 46.5 C 30.1 45.7 32.5 46.3 30.9 46.5 C 30.9 46.5 30.9 46.5 30.9 46.5 Z M 39.5 49.1 C 39.4 48.9 39.4 48.9 39.5 49.1 M 35.5 50.3 C 35.5 50.2 35.5 50.2 35.5 50.3 M 53.4 51.2 C 53.4 51.0 53.4 51.0 53.4 51.2 M 30.8 50.1 C 27.9 49.9 32.2 48.6 30.8 50.1 M 54.9 50.1 C 54.9 50.2 54.9 50.2 54.9 50.1 M 48.5 48.1 C 46.6 48.2 49.3 47.5 48.5 48.1 M 43.5 49.5 C 43.6 49.4 43.6 49.4 43.5 49.5 C 43.5 49.5 43.5 49.5 43.5 49.5 Z M 46.4 49.5 C 47.8 49.3 46.7 49.8 46.4 49.5 C 46.4 49.5 46.4 49.5 46.4 49.5 Z M 62.6 49.6 C 60.8 49.5 64.5 49.3 62.6 49.6 C 62.6 49.6 62.6 49.6 62.6 49.6 Z M 32.2 47.6 C 32.3 47.5 32.3 47.5 32.2 47.6 C 32.2 47.6 32.2 47.6 32.2 47.6 Z M 39.0 50.8 C 39.9 50.5 39.4 51.1 39.0 50.8 C 39.0 50.8 39.0 50.8 39.0 50.8 Z M 28.1 50.9 C 29.0 50.6 28.5 51.2 28.1 50.9 C 28.1 50.9 28.1 50.9 28.1 50.9 Z M 64.8 49.8 C 58.3 48.0 73.6 50.3 64.8 49.8 C 64.8 49.8 64.8 49.8 64.8 49.8 Z M 45.2 50.2 C 45.2 50.1 45.2 50.1 45.2 50.2 C 45.2 50.2 45.2 50.2 45.2 50.2 Z M 57.4 51.0 C 57.5 50.9 57.5 50.9 57.4 51.0 C 57.4 51.0 57.4 51.0 57.4 51.0 Z M 59.6 50.0 C 59.7 49.9 59.7 49.9 59.6 50.0 C 59.6 50.0 59.6 50.0 59.6 50.0 Z M 59.5 45.7 C 59.5 45.6 59.5 45.6 59.5 45.7 C 59.5 45.7 59.5 45.7 59.5 45.7 Z M 58.6 47.7 C 58.7 47.5 58.7 47.5 58.6 47.7 C 58.6 47.7 58.6 47.7 58.6 47.7 Z M 63.0 46.9 C 63.0 46.8 63.0 46.8 63.0 46.9 C 63.0 46.9 63.0 46.9 63.0 46.9 Z M 63.0 46.3 C 63.0 46.3 63.0 46.3 63.0 46.3 C 63.0 46.3 63.0 46.3 63.0 46.3 Z M 35.6 49.1 C 35.7 49.0 35.7 49.0 35.6 49.1 C 35.6 49.1 35.6 49.1 35.6 49.1 Z M 38.0 47.4 C 36.4 48.0 38.6 46.4 38.0 47.4 C 38.0 47.4 38.0 47.4 38.0 47.4 Z M 51.8 48.2 C 50.4 48.5 52.8 47.7 51.8 48.2 C 51.8 48.2 51.8 48.2 51.8 48.2 Z M 50.5 45.9 C 50.5 45.9 50.5 45.9 50.5 45.9 C 50.5 45.9 50.5 45.9 50.5 45.9 Z M 59.5 51.0 C 59.6 50.9 59.6 50.9 59.5 51.0 C 59.5 51.0 59.5 51.0 59.5 51.0 Z M 62.2 50.3 C 62.4 49.4 63.0 50.7 62.2 50.3 M 48.9 50.8 C 48.9 50.7 48.9 50.7 48.9 50.8 C 48.9 50.8 48.9 50.8 48.9 50.8 Z M 40.7 49.4 C 40.7 49.3 40.7 49.3 40.7 49.4 C 40.7 49.4 40.7 49.4 40.7 49.4 Z M 32.3 50.0 C 32.4 49.8 32.4 49.8 32.3 50.0 C 32.3 50.0 32.3 50.0 32.3 50.0 Z M 43.7 50.7 C 43.8 50.5 43.8 50.5 43.7 50.7 C 43.7 50.7 43.7 50.7 43.7 50.7 Z M 47.8 49.8 C 47.8 49.7 47.8 49.7 47.8 49.8 C 47.8 49.8 47.8 49.8 47.8 49.8 Z M 30.5 48.7 C 30.6 48.6 30.6 48.6 30.5 48.7 C 30.5 48.7 30.5 48.7 30.5 48.7 Z M 42.8 50.8 C 42.8 50.8 42.8 50.8 42.8 50.8 C 42.8 50.8 42.8 50.8 42.8 50.8 Z M 40.6 47.9 C 40.7 47.9 40.7 47.9 40.6 47.9 C 40.6 47.9 40.6 47.9 40.6 47.9 Z M 61.7 51.5 C 61.7 51.5 61.7 51.5 61.7 51.5 C 61.7 51.5 61.7 51.5 61.7 51.5 Z M 30.4 49.9 C 30.4 49.8 30.4 49.8 30.4 49.9 C 30.4 49.9 30.4 49.9 30.4 49.9 Z M 29.9 50.7 C 29.9 50.6 29.9 50.6 29.9 50.7 C 29.9 50.7 29.9 50.7 29.9 50.7 Z M 36.0 46.4 C 38.9 46.9 33.3 46.6 35.4 47.6 C 31.2 47.8 35.3 46.4 36.0 46.4 C 36.0 46.4 36.0 46.4 36.0 46.4 Z M 25.9 51.0 C 27.6 49.8 27.6 48.6 27.0 47.4 C 26.2 46.8 26.1 49.2 26.2 47.1 C 28.0 46.7 25.4 44.0 25.4 46.7 C 22.9 47.1 25.1 45.0 23.5 46.1 C 20.9 46.3 22.3 45.5 20.2 45.7 C 19.0 47.1 19.1 45.0 18.5 46.4 C 19.5 44.9 16.3 46.8 16.3 46.1 C 18.1 45.2 9.2 46.1 14.1 46.5 C 12.1 47.2 12.5 46.0 11.8 45.8 C 11.4 46.2 10.5 46.1 9.7 45.9 C 8.8 45.7 8.6 45.5 8.2 45.8 C 8.2 46.0 8.5 46.2 8.6 46.5 C 8.7 47.1 7.8 46.1 7.9 46.2 C 7.3 46.3 5.3 46.1 7.7 45.7 C 8.2 45.1 6.4 44.8 7.0 44.5 C 6.3 43.3 5.3 44.5 6.3 43.6 C 6.2 42.4 6.3 40.2 6.1 40.2 C 6.3 39.0 7.1 38.7 6.3 37.5 C 7.9 34.9 3.3 35.8 6.4 34.7 C 5.6 34.0 7.7 33.2 5.8 33.4 C 6.6 34.3 7.2 28.9 5.8 31.3 C 5.4 30.7 7.8 27.3 5.9 27.8 C 4.5 26.7 3.0 27.0 1.7 29.7 C 2.8 29.3 0.6 32.4 2.4 30.4 C 3.1 28.2 3.1 34.4 2.4 33.1 C 0.2 32.9 3.8 36.1 2.2 37.5 C 3.1 36.4 3.6 41.5 1.9 40.1 C 1.7 41.0 2.5 41.2 1.6 42.3 C 1.7 39.2 3.3 43.4 2.3 43.2 C 2.0 43.0 1.6 44.4 2.1 45.9 C 2.5 47.3 3.6 48.4 3.8 47.8 C 4.1 44.6 4.8 49.4 6.1 49.1 C 9.2 50.2 5.0 51.2 7.8 50.0 C 8.5 50.4 12.0 50.4 9.9 50.9 C 9.1 50.7 11.9 48.4 12.3 50.3 C 8.7 51.5 16.4 51.0 15.2 50.3 C 9.7 49.3 21.0 49.1 16.7 50.2 C 19.1 51.3 16.0 50.6 19.0 50.2 C 18.6 49.5 21.0 48.9 20.4 50.2 C 20.8 52.1 21.3 47.7 23.1 50.2 C 23.3 51.4 26.8 49.4 25.4 50.7 C 25.3 50.8 25.8 51.0 25.9 51.0 M 24.8 50.8 C 25.3 50.4 25.5 51.3 24.8 50.8 M 25.3 50.4 C 25.3 50.4 25.3 50.4 25.3 50.4 C 25.3 50.4 25.3 50.4 25.3 50.4 Z M 19.4 50.1 C 19.5 50.1 19.5 50.1 19.4 50.1 C 19.4 50.1 19.4 50.1 19.4 50.1 Z M 14.9 45.3 C 14.9 45.4 14.9 45.4 14.9 45.3 C 14.9 45.3 14.9 45.3 14.9 45.3 Z M 15.5 50.0 C 15.6 50.0 15.6 50.0 15.5 50.0 C 15.5 50.0 15.5 50.0 15.5 50.0 Z M 21.5 49.8 C 21.6 49.8 21.6 49.8 21.5 49.8 C 21.5 49.8 21.5 49.8 21.5 49.8 Z M 15.9 50.7 C 15.6 50.0 17.2 51.2 15.8 50.8 C 15.8 50.7 16.0 50.7 15.9 50.7 M 10.8 51.0 C 10.8 50.9 10.8 50.9 10.8 51.0 M 7.0 41.5 C 7.1 41.4 7.1 41.4 7.0 41.5 M 1.4 40.7 C 1.5 40.6 1.5 40.6 1.4 40.7 M 4.8 48.7 C 3.0 47.4 4.6 48.1 4.8 48.7 M 1.8 36.6 C 1.3 38.5 1.4 34.5 1.8 36.6 M 1.4 34.7 C 1.4 34.5 1.4 34.5 1.4 34.7 M 1.7 43.6 C 1.7 43.7 1.7 43.7 1.7 43.6 C 1.7 43.6 1.7 43.6 1.7 43.6 Z M 5.3 49.4 C 7.6 51.3 2.5 48.5 5.3 49.4 M 18.7 50.8 C 17.6 51.1 18.8 49.9 18.7 50.8 M 21.1 50.4 C 21.1 50.3 21.1 50.3 21.1 50.4 C 21.1 50.4 21.1 50.4 21.1 50.4 Z M 1.8 39.7 C 1.8 39.8 1.8 39.8 1.8 39.7 C 1.8 39.7 1.8 39.7 1.8 39.7 Z M 1.6 37.5 C 1.6 37.5 1.6 37.5 1.6 37.5 C 1.6 37.5 1.6 37.5 1.6 37.5 Z M 6.8 33.5 C 6.9 33.6 6.9 33.6 6.8 33.5 C 6.8 33.5 6.8 33.5 6.8 33.5 Z M 19.4 48.2 C 20.9 48.6 17.8 49.9 18.1 48.6 C 18.0 48.1 19.2 48.3 19.4 48.2 M 7.7 48.8 C 7.7 46.9 8.7 51.5 7.7 48.8 M 2.5 34.3 C 4.7 32.7 1.1 36.3 2.5 34.3 M 2.2 31.3 C 2.6 30.4 2.4 37.0 1.9 32.4 C 1.5 32.0 2.0 31.6 2.2 31.3 M 10.7 50.1 C 10.3 49.1 13.1 50.5 10.7 50.1 M 5.3 43.3 C 4.6 42.7 4.1 40.6 5.2 41.5 C 6.5 41.5 5.8 44.0 5.3 43.3 M 24.4 49.8 C 23.1 51.4 24.5 48.5 24.4 49.8 M 18.5 49.6 C 18.4 49.7 18.4 49.7 18.5 49.6 C 18.5 49.6 18.5 49.6 18.5 49.6 Z M 16.1 49.9 C 16.0 49.8 16.0 49.8 16.1 49.9 M 23.4 51.2 C 23.3 51.0 23.3 51.0 23.4 51.2 M 3.6 43.4 C 3.7 43.3 3.7 43.3 3.6 43.4 M 5.5 48.7 C 3.9 45.8 6.9 49.3 5.5 48.7 M 11.8 46.8 C 11.1 46.1 13.2 46.8 11.8 46.8 M 2.2 45.0 C 3.1 42.3 4.3 47.7 2.2 45.0 M 6.7 49.5 C 6.5 49.5 6.5 49.5 6.7 49.5 C 6.7 49.5 6.7 49.5 6.7 49.5 Z M 5.4 42.7 C 5.4 42.7 5.4 42.7 5.4 42.7 C 5.4 42.7 5.4 42.7 5.4 42.7 Z M 5.3 42.0 C 5.4 42.1 5.4 42.1 5.3 42.0 C 5.3 42.0 5.3 42.0 5.3 42.0 Z M 1.8 42.5 C 1.9 42.5 1.9 42.5 1.8 42.5 C 1.8 42.5 1.8 42.5 1.8 42.5 Z M 21.3 46.3 C 19.7 46.2 22.6 46.1 21.3 46.3 C 21.3 46.3 21.3 46.3 21.3 46.3 Z M 14.0 50.7 C 11.4 49.5 15.9 49.5 14.0 50.7 C 14.0 50.7 14.0 50.7 14.0 50.7 Z M 11.0 48.7 C 11.0 48.6 11.0 48.6 11.0 48.7 C 11.0 48.7 11.0 48.7 11.0 48.7 Z M 1.9 46.8 C 2.0 46.7 2.0 46.7 1.9 46.8 C 1.9 46.8 1.9 46.8 1.9 46.8 Z M 20.5 46.1 C 20.5 46.0 20.5 46.0 20.5 46.1 C 20.5 46.1 20.5 46.1 20.5 46.1 Z M 2.6 37.8 C 2.7 37.8 2.7 37.8 2.6 37.8 C 2.6 37.8 2.6 37.8 2.6 37.8 Z M 6.6 45.7 C 5.9 45.8 6.9 45.3 6.6 45.7 C 6.6 45.7 6.6 45.7 6.6 45.7 Z M 5.8 44.2 C 5.8 44.2 5.8 44.2 5.8 44.2 C 5.8 44.2 5.8 44.2 5.8 44.2 Z M 1.3 34.1 C 1.3 34.0 1.3 34.0 1.3 34.1 C 1.3 34.1 1.3 34.1 1.3 34.1 Z M 7.1 38.4 C 7.0 38.3 7.0 38.3 7.1 38.4 C 7.1 38.4 7.1 38.4 7.1 38.4 Z M 5.3 36.4 C 5.3 36.5 5.3 36.5 5.3 36.4 C 5.3 36.4 5.3 36.4 5.3 36.4 Z M 2.2 42.9 C 1.9 40.5 2.8 43.4 2.2 42.9 C 2.2 42.9 2.2 42.9 2.2 42.9 Z M 4.8 30.4 C 4.9 30.4 4.9 30.4 4.8 30.4 C 4.8 30.4 4.8 30.4 4.8 30.4 Z M 2.8 29.3 C 2.9 29.2 2.9 29.2 2.8 29.3 C 2.8 29.3 2.8 29.3 2.8 29.3 Z M 1.7 28.7 C 1.8 28.7 1.8 28.7 1.7 28.7 C 1.7 28.7 1.7 28.7 1.7 28.7 Z M 16.2 47.7 C 16.3 47.8 16.3 47.8 16.2 47.7 C 16.2 47.7 16.2 47.7 16.2 47.7 Z M 17.1 51.0 C 17.1 51.0 17.1 51.0 17.1 51.0 C 17.1 51.0 17.1 51.0 17.1 51.0 Z M 13.8 51.2 C 13.9 51.2 13.9 51.2 13.8 51.2 C 13.8 51.2 13.8 51.2 13.8 51.2 Z M 16.8 45.7 C 16.9 45.8 16.9 45.8 16.8 45.7 C 16.8 45.7 16.8 45.7 16.8 45.7 Z M 4.9 46.4 C 4.9 46.5 4.9 46.5 4.9 46.4 C 4.9 46.4 4.9 46.4 4.9 46.4 Z M 5.5 44.8 C 5.5 44.9 5.5 44.9 5.5 44.8 C 5.5 44.8 5.5 44.8 5.5 44.8 Z M 7.9 45.1 C 7.9 45.1 7.9 45.1 7.9 45.1 C 7.9 45.1 7.9 45.1 7.9 45.1 Z M 6.4 43.9 C 6.4 43.9 6.4 43.9 6.4 43.9 C 6.4 43.9 6.4 43.9 6.4 43.9 Z M 25.1 46.4 C 25.1 46.3 25.1 46.3 25.1 46.4 C 25.1 46.4 25.1 46.4 25.1 46.4 Z M 25.3 48.9 C 25.3 48.8 25.3 48.8 25.3 48.9 C 25.3 48.9 25.3 48.9 25.3 48.9 Z M 3.2 47.1 C 2.3 46.8 2.9 45.4 3.2 47.1 M 8.6 50.0 C 8.7 50.0 8.7 50.0 8.6 50.0 C 8.6 50.0 8.6 50.0 8.6 50.0 Z M 2.1 38.2 C 3.1 37.6 1.6 40.5 2.1 38.2 C 2.1 38.2 2.1 38.2 2.1 38.2 Z M 6.3 40.6 C 6.4 40.6 6.4 40.6 6.3 40.6 C 6.3 40.6 6.3 40.6 6.3 40.6 Z M 5.9 39.4 C 6.0 39.3 6.0 39.3 5.9 39.4 C 5.9 39.4 5.9 39.4 5.9 39.4 Z M 3.2 32.7 C 3.3 32.6 3.3 32.6 3.2 32.7 M 9.4 50.9 C 8.7 50.5 8.8 50.6 9.4 50.9 M 2.2 36.7 C 2.2 36.7 2.2 36.7 2.2 36.7 C 2.2 36.7 2.2 36.7 2.2 36.7 Z M 2.6 31.2 C 2.7 31.3 2.7 31.3 2.6 31.2 C 2.6 31.2 2.6 31.2 2.6 31.2 Z M 12.7 50.3 C 12.6 49.0 13.2 49.3 12.7 50.3 M 22.0 49.9 C 22.0 49.8 22.0 49.8 22.0 49.9 C 22.0 49.9 22.0 49.9 22.0 49.9 Z M 1.8 23.9 C 0.4 26.5 2.3 26.4 2.4 26.4 C -0.2 26.2 3.4 28.6 3.9 28.0 C 4.2 28.1 8.7 25.9 6.0 24.2 C 5.6 23.8 6.4 23.4 6.5 23.1 C 6.4 19.9 5.1 25.3 5.1 21.5 C 5.5 20.8 7.6 21.4 6.1 19.3 C 6.3 19.2 7.1 16.6 6.1 17.6 C 7.1 16.3 5.9 15.6 5.7 14.5 C 6.3 13.4 7.2 15.2 6.1 11.6 C 7.8 9.9 4.7 8.9 6.8 8.6 C 6.9 8.2 4.1 6.4 5.5 8.2 C 5.4 8.0 3.0 8.5 5.1 6.4 C 5.1 6.7 5.8 7.4 6.4 7.6 C 7.0 7.9 7.2 7.8 8.0 6.6 C 8.4 6.5 9.4 5.6 9.9 5.9 C 7.5 6.3 13.2 7.4 12.6 6.4 C 16.3 7.1 14.0 5.6 16.8 6.7 C 19.0 6.7 15.9 5.2 18.7 6.1 C 20.7 5.9 19.4 6.7 19.2 6.7 C 21.0 6.8 21.5 6.2 22.2 6.3 C 22.6 6.4 23.5 7.1 23.8 6.3 C 25.4 4.8 23.5 3.4 24.1 1.9 C 22.6 1.2 23.7 3.0 22.6 1.9 C 22.0 2.9 22.5 1.9 18.8 2.1 C 19.0 2.3 19.9 2.9 19.1 3.0 C 17.6 2.9 18.3 0.4 16.2 2.2 C 19.0 2.7 12.4 3.0 15.0 3.5 C 11.8 3.8 14.1 3.3 11.6 2.7 C 12.0 4.4 11.3 0.9 10.5 2.2 C 10.2 1.5 6.6 1.9 9.4 2.9 C 7.5 3.1 6.7 3.5 6.4 3.3 C 6.2 3.0 6.3 2.4 5.2 2.6 C 2.8 3.9 7.0 4.3 4.2 4.1 C 2.7 4.9 3.0 5.3 3.2 5.3 C 3.4 5.3 3.6 5.0 2.3 5.9 C 4.1 5.3 1.5 8.1 3.3 7.6 C 2.7 9.9 2.7 9.7 2.4 9.5 C 2.1 9.3 1.9 8.9 2.5 10.2 C 2.5 9.3 0.4 9.9 1.8 11.4 C 4.2 10.5 -0.4 13.8 2.9 12.3 C 3.8 17.7 1.5 13.3 1.5 16.3 C 1.5 17.1 2.6 15.4 2.6 16.1 C 2.1 20.0 1.3 16.9 2.9 18.8 C 3.3 22.6 1.5 20.0 1.4 21.9 C 2.2 21.9 3.5 23.4 1.8 23.9 M 2.6 20.4 C 2.0 19.6 3.1 19.9 2.6 20.4 M 1.8 28.1 C 1.3 27.3 2.3 27.6 1.8 28.1 M 2.1 17.3 C 1.5 16.3 2.9 16.9 2.1 17.3 M 13.8 2.9 C 12.4 2.9 14.4 2.5 13.8 2.9 M 1.7 25.1 C 1.1 24.0 2.6 24.7 1.7 25.1 M 3.0 26.4 C 3.0 26.3 3.0 26.3 3.0 26.4 M 15.7 1.6 C 15.8 1.6 15.8 1.6 15.7 1.6 M 10.2 1.6 C 11.4 1.6 9.6 1.9 10.2 1.6 M 10.6 6.9 C 11.8 7.0 10.0 7.3 10.6 6.9 M 18.7 1.5 C 19.8 1.1 19.1 2.1 18.7 1.5 M 21.9 2.7 C 22.9 2.2 22.7 3.2 21.9 2.7 M 4.4 21.0 C 4.5 21.0 4.5 21.0 4.4 21.0 C 4.4 21.0 4.4 21.0 4.4 21.0 Z M 5.8 10.7 C 5.2 11.9 6.4 9.1 5.8 10.7 M 2.2 12.9 C 3.3 12.0 2.2 14.4 2.2 12.9 C 2.2 12.9 2.2 12.9 2.2 12.9 Z M 2.7 14.6 C 2.8 14.6 2.8 14.6 2.7 14.6 C 2.7 14.6 2.7 14.6 2.7 14.6 Z M 2.8 8.8 C 2.8 8.8 2.8 8.8 2.8 8.8 C 2.8 8.8 2.8 8.8 2.8 8.8 Z M 2.9 10.0 C 3.1 10.5 2.7 10.7 2.9 10.0 C 2.9 10.0 2.9 10.0 2.9 10.0 Z M 9.1 6.4 C 8.8 6.6 8.7 6.2 9.1 6.4 C 9.1 6.4 9.1 6.4 9.1 6.4 Z M 3.3 11.8 C 4.4 11.9 2.6 12.7 3.3 11.8 C 3.3 11.8 3.3 11.8 3.3 11.8 Z M 6.8 6.9 C 6.8 6.5 8.0 7.1 6.8 6.9 M 16.9 1.8 C 17.3 1.5 18.1 2.8 16.9 1.8 M 3.3 4.2 C 3.5 3.5 5.2 3.5 3.3 4.2 M 2.1 19.8 C 2.2 19.6 2.2 19.6 2.1 19.8 M 6.8 12.7 C 6.4 11.9 7.3 12.2 6.8 12.7 M 6.4 24.2 C 6.0 23.4 6.9 23.7 6.4 24.2 M 15.8 6.8 C 15.7 6.5 17.1 7.0 15.8 6.8 M 6.0 4.1 C 7.2 3.6 8.4 3.5 6.4 4.7 C 6.1 4.5 6.6 4.0 6.0 4.1 C 6.0 4.1 6.0 4.1 6.0 4.1 Z M 10.5 5.7 C 10.6 5.8 10.6 5.8 10.5 5.7 M 7.7 2.4 C 8.0 2.4 8.0 2.4 7.7 2.4 M 14.3 2.3 C 14.5 2.5 14.5 2.5 14.3 2.3 M 15.1 2.0 C 15.1 2.1 15.1 2.1 15.1 2.0 C 15.1 2.0 15.1 2.0 15.1 2.0 Z M 21.8 1.6 C 21.8 1.6 21.8 1.6 21.8 1.6 C 21.8 1.6 21.8 1.6 21.8 1.6 Z M 12.4 2.5 C 12.4 2.5 12.4 2.5 12.4 2.5 C 12.4 2.5 12.4 2.5 12.4 2.5 Z M 18.5 6.6 C 18.6 6.7 18.6 6.7 18.5 6.6 C 18.5 6.6 18.5 6.6 18.5 6.6 Z M 17.7 6.0 C 17.8 6.0 17.8 6.0 17.7 6.0 C 17.7 6.0 17.7 6.0 17.7 6.0 Z M 1.8 23.3 C 1.0 22.4 3.7 22.7 1.8 23.3 M 20.8 6.0 C 21.8 6.7 19.2 6.1 20.8 6.0 C 20.8 6.0 20.8 6.0 20.8 6.0 Z M 11.8 3.4 C 11.9 3.5 11.9 3.5 11.8 3.4 M 15.5 2.1 C 15.6 2.3 15.6 2.3 15.5 2.1 M 1.2 13.0 C 1.4 12.9 1.4 12.9 1.2 13.0 M 20.3 2.3 C 23.2 2.6 19.2 3.9 20.3 2.3 M 2.3 14.2 C 2.2 14.3 2.2 14.3 2.3 14.2 M 4.6 7.6 C 5.1 5.8 5.0 8.4 4.6 7.6 M 7.3 3.3 C 7.3 3.3 7.3 3.3 7.3 3.3 C 7.3 3.3 7.3 3.3 7.3 3.3 Z M 4.4 5.1 C 3.5 6.5 3.9 5.3 4.4 5.1 C 4.4 5.1 4.4 5.1 4.4 5.1 Z M 2.8 21.9 C 2.9 20.0 3.1 23.7 2.8 21.9 C 2.8 21.9 2.8 21.9 2.8 21.9 Z M 19.3 4.9 C 19.2 4.9 19.2 4.9 19.3 4.9 C 19.3 4.9 19.3 4.9 19.3 4.9 Z M 11.9 1.7 C 11.1 2.0 11.5 1.4 11.9 1.7 C 11.9 1.7 11.9 1.7 11.9 1.7 Z M 22.8 1.6 C 22.0 1.9 22.4 1.3 22.8 1.6 C 22.8 1.6 22.8 1.6 22.8 1.6 Z M 2.6 24.1 C 4.4 17.2 2.1 33.0 2.6 24.1 C 2.6 24.1 2.6 24.1 2.6 24.1 Z M 4.9 3.7 C 4.9 3.8 4.9 3.8 4.9 3.7 C 4.9 3.7 4.9 3.7 4.9 3.7 Z M 1.4 16.9 C 1.5 17.0 1.5 17.0 1.4 16.9 C 1.4 16.9 1.4 16.9 1.4 16.9 Z M 2.5 19.0 C 2.5 19.0 2.5 19.0 2.5 19.0 C 2.5 19.0 2.5 19.0 2.5 19.0 Z M 6.7 18.0 C 6.8 18.1 6.8 18.1 6.7 18.0 C 6.7 18.0 6.7 18.0 6.7 18.0 Z M 4.8 17.5 C 4.9 17.6 4.9 17.6 4.8 17.5 C 4.8 17.5 4.8 17.5 4.8 17.5 Z M 5.5 21.8 C 5.6 21.8 5.6 21.8 5.5 21.8 C 5.5 21.8 5.5 21.8 5.5 21.8 Z M 6.1 21.6 C 6.1 21.7 6.1 21.7 6.1 21.6 C 6.1 21.6 6.1 21.6 6.1 21.6 Z M 15.6 3.3 C 15.6 3.4 15.6 3.4 15.6 3.3 C 15.6 3.3 15.6 3.3 15.6 3.3 Z M 13.6 5.1 C 15.0 4.5 13.2 6.0 13.6 5.1 C 13.6 5.1 13.6 5.1 13.6 5.1 Z M 4.2 10.9 C 4.0 9.4 4.7 11.7 4.2 10.9 C 4.2 10.9 4.2 10.9 4.2 10.9 Z M 6.5 9.1 C 6.5 9.1 6.5 9.1 6.5 9.1 C 6.5 9.1 6.5 9.1 6.5 9.1 Z M 1.4 19.0 C 1.5 19.1 1.5 19.1 1.4 19.0 C 1.4 19.0 1.4 19.0 1.4 19.0 Z M 2.1 21.6 C 3.0 21.7 1.7 22.4 2.1 21.6 M 1.7 8.0 C 1.8 8.0 1.8 8.0 1.7 8.0 C 1.7 8.0 1.7 8.0 1.7 8.0 Z M 10.5 3.1 C 10.5 3.1 10.5 3.1 10.5 3.1 C 10.5 3.1 10.5 3.1 10.5 3.1 Z M 18.8 2.5 C 18.8 2.6 18.8 2.6 18.8 2.5 C 18.8 2.5 18.8 2.5 18.8 2.5 Z M 6.3 2.3 C 6.3 2.5 6.3 2.5 6.3 2.3 C 6.3 2.3 6.3 2.3 6.3 2.3 Z M 3.1 6.5 C 3.2 6.6 3.2 6.6 3.1 6.5 C 3.1 6.5 3.1 6.5 3.1 6.5 Z M 20.8 3.8 C 20.7 3.8 20.7 3.8 20.8 3.8 C 20.8 3.8 20.8 3.8 20.8 3.8 Z M 7.6 1.8 C 7.6 1.9 7.6 1.9 7.6 1.8 C 7.6 1.8 7.6 1.8 7.6 1.8 Z M 10.9 4.5 C 10.8 4.6 10.8 4.6 10.9 4.5 C 10.9 4.5 10.9 4.5 10.9 4.5 Z M 0.9 21.3 C 0.9 21.4 0.9 21.4 0.9 21.3 C 0.9 21.3 0.9 21.3 0.9 21.3 Z M 20.7 2.6 C 20.7 2.6 20.7 2.6 20.7 2.6 C 20.7 2.6 20.7 2.6 20.7 2.6 Z M 21.1 1.8 C 21.1 1.8 21.1 1.8 21.1 1.8 C 21.1 1.8 21.1 1.8 21.1 1.8 Z M 15.8 6.0 C 12.8 5.5 18.4 5.8 16.1 4.9 C 20.3 4.6 16.4 6.1 15.8 6.0 C 15.8 6.0 15.8 6.0 15.8 6.0 Z M 25.0 1.4 C 23.5 2.7 23.7 3.8 24.6 5.1 C 25.5 5.7 25.1 3.3 25.5 5.3 C 23.6 5.7 26.7 8.4 26.3 5.8 C 28.7 5.4 27.0 7.5 28.3 6.4 C 30.9 6.1 29.6 6.9 31.7 6.8 C 32.6 5.3 33.0 7.5 33.3 6.1 C 32.5 7.6 35.4 5.7 35.6 6.4 C 33.8 7.3 42.6 6.4 37.7 5.9 C 39.5 5.2 39.4 6.5 40.1 6.7 C 40.8 5.8 43.5 7.4 44.5 6.5 C 44.2 6.3 43.6 6.2 43.4 5.9 C 42.9 5.4 44.8 6.1 44.6 6.0 C 45.3 5.7 48.3 4.8 45.2 6.4 C 45.2 7.1 47.9 6.0 48.0 6.7 C 51.0 6.7 48.4 5.3 50.0 6.3 C 52.1 6.4 53.6 6.4 53.5 6.2 C 54.9 6.3 55.3 7.2 56.3 6.4 C 59.2 8.0 57.4 3.3 59.1 6.4 C 59.7 5.7 60.8 7.7 60.3 5.8 C 59.6 6.7 65.1 7.3 62.4 5.9 C 62.9 5.4 66.8 7.9 65.9 5.9 C 66.8 4.5 66.2 3.1 63.3 1.7 C 63.9 2.8 60.3 0.6 62.7 2.5 C 65.1 3.1 58.8 3.2 60.0 2.5 C 59.8 0.2 57.2 3.9 55.6 2.3 C 56.8 3.2 51.8 3.6 53.0 1.9 C 52.0 1.8 51.9 2.6 50.7 1.6 C 53.8 1.8 49.9 3.4 49.9 2.4 C 50.2 1.7 45.6 1.2 46.3 2.2 C 48.3 4.5 45.0 1.7 44.4 2.6 C 42.0 3.1 44.4 0.6 42.9 2.3 C 42.3 2.0 39.0 2.0 41.0 1.5 C 41.8 1.8 39.5 4.1 38.7 2.1 C 42.1 1.0 34.5 1.5 35.9 2.1 C 41.6 3.2 30.2 3.3 34.4 2.3 C 31.7 1.2 35.0 1.8 32.1 2.3 C 32.6 2.9 30.3 3.5 30.7 2.3 C 29.9 0.4 30.2 4.8 28.0 2.2 C 27.5 1.1 24.4 3.0 25.5 1.8 C 25.6 1.7 25.1 1.4 25.0 1.4 M 26.1 1.7 C 25.8 2.1 25.4 1.1 26.1 1.7 M 25.7 2.1 C 25.7 2.0 25.7 2.0 25.7 2.1 C 25.7 2.1 25.7 2.1 25.7 2.1 Z M 31.6 2.4 C 31.6 2.3 31.6 2.3 31.6 2.4 C 31.6 2.4 31.6 2.4 31.6 2.4 Z M 37.1 7.1 C 37.0 7.1 37.0 7.1 37.1 7.1 C 37.1 7.1 37.1 7.1 37.1 7.1 Z M 35.6 2.5 C 35.5 2.5 35.5 2.5 35.6 2.5 C 35.6 2.5 35.6 2.5 35.6 2.5 Z M 29.6 2.7 C 29.5 2.7 29.5 2.7 29.6 2.7 C 29.6 2.7 29.6 2.7 29.6 2.7 Z M 35.1 1.8 C 35.5 2.5 33.6 1.3 35.1 1.7 C 35.2 1.7 34.9 1.7 35.1 1.8 M 40.1 1.5 C 40.2 1.6 40.2 1.6 40.1 1.5 M 52.5 7.1 C 52.5 7.2 52.5 7.2 52.5 7.1 M 52.2 1.4 C 52.4 1.5 52.4 1.5 52.2 1.4 M 45.3 2.2 C 46.9 2.1 45.8 2.6 45.3 2.2 M 56.4 1.9 C 54.4 1.4 58.4 1.5 56.4 1.9 M 58.2 1.4 C 58.4 1.5 58.4 1.5 58.2 1.4 M 49.5 1.7 C 49.4 1.8 49.4 1.8 49.5 1.7 C 49.5 1.7 49.5 1.7 49.5 1.7 Z M 44.6 1.9 C 42.5 1.5 46.5 1.3 44.6 1.9 M 32.2 1.7 C 33.3 1.3 32.3 2.6 32.2 1.7 M 30.0 2.1 C 29.9 2.1 29.9 2.1 30.0 2.1 C 30.0 2.1 30.0 2.1 30.0 2.1 Z M 53.3 1.8 C 53.2 1.8 53.2 1.8 53.3 1.8 C 53.3 1.8 53.3 1.8 53.3 1.8 Z M 55.5 1.7 C 55.4 1.7 55.4 1.7 55.5 1.7 C 55.5 1.7 55.5 1.7 55.5 1.7 Z M 60.4 6.9 C 60.4 6.9 60.4 6.9 60.4 6.9 C 60.4 6.9 60.4 6.9 60.4 6.9 Z M 32.0 4.3 C 30.5 3.9 33.3 2.5 33.2 3.8 C 33.5 4.4 32.2 4.1 32.0 4.3 M 43.4 3.5 C 44.1 5.3 41.5 1.1 43.4 3.5 M 58.8 2.6 C 60.8 4.7 56.5 1.1 58.8 2.6 M 61.8 2.2 C 62.8 2.7 56.1 2.5 60.6 1.9 C 61.0 1.6 61.4 2.0 61.8 2.2 M 40.3 2.4 C 41.0 3.3 37.8 1.9 40.3 2.4 M 50.3 5.3 C 50.9 4.7 52.8 4.1 52.1 5.2 C 52.4 6.6 49.5 5.8 50.3 5.3 M 26.7 2.7 C 27.7 1.1 26.9 4.0 26.7 2.7 M 32.7 2.8 C 32.7 2.7 32.7 2.7 32.7 2.8 C 32.7 2.8 32.7 2.8 32.7 2.8 Z M 35.0 2.6 C 35.1 2.7 35.1 2.7 35.0 2.6 M 27.4 1.3 C 27.6 1.4 27.6 1.4 27.4 1.3 M 49.9 3.7 C 50.1 3.8 50.1 3.8 49.9 3.7 M 45.0 2.6 C 47.5 4.2 43.8 2.9 45.0 2.6 M 39.9 5.6 C 40.7 6.4 38.5 5.7 39.9 5.6 M 48.6 2.0 C 50.5 3.5 46.6 3.4 48.6 2.0 M 43.8 2.5 C 43.9 2.5 43.9 2.5 43.8 2.5 C 43.8 2.5 43.8 2.5 43.8 2.5 Z M 51.0 5.5 C 50.9 5.5 50.9 5.5 51.0 5.5 C 51.0 5.5 51.0 5.5 51.0 5.5 Z M 51.6 5.4 C 51.6 5.4 51.6 5.4 51.6 5.4 C 51.6 5.4 51.6 5.4 51.6 5.4 Z M 50.5 1.9 C 50.5 1.9 50.5 1.9 50.5 1.9 C 50.5 1.9 50.5 1.9 50.5 1.9 Z M 30.5 6.1 C 32.1 6.3 29.2 6.4 30.5 6.1 C 30.5 6.1 30.5 6.1 30.5 6.1 Z M 36.9 1.8 C 39.8 3.0 35.2 2.9 36.9 1.8 C 36.9 1.8 36.9 1.8 36.9 1.8 Z M 40.3 3.7 C 40.3 3.8 40.3 3.8 40.3 3.7 C 40.3 3.7 40.3 3.7 40.3 3.7 Z M 47.4 1.1 C 47.4 1.2 47.4 1.2 47.4 1.1 C 47.4 1.1 47.4 1.1 47.4 1.1 Z M 31.3 6.3 C 31.3 6.4 31.3 6.4 31.3 6.3 C 31.3 6.3 31.3 6.3 31.3 6.3 Z M 55.3 2.7 C 55.3 2.8 55.3 2.8 55.3 2.7 C 55.3 2.7 55.3 2.7 55.3 2.7 Z M 46.6 5.7 C 47.1 5.1 46.8 6.2 46.6 5.7 C 46.6 5.7 46.6 5.7 46.6 5.7 Z M 49.0 5.7 C 49.1 5.7 49.1 5.7 49.0 5.7 C 49.0 5.7 49.0 5.7 49.0 5.7 Z M 58.8 1.3 C 58.9 1.3 58.9 1.3 58.8 1.3 C 58.8 1.3 58.8 1.3 58.8 1.3 Z M 55.5 7.1 C 55.6 7.1 55.6 7.1 55.5 7.1 C 55.5 7.1 55.5 7.1 55.5 7.1 Z M 57.2 5.4 C 57.2 5.4 57.2 5.4 57.2 5.4 C 57.2 5.4 57.2 5.4 57.2 5.4 Z M 50.2 2.2 C 52.5 1.9 49.8 2.9 50.2 2.2 C 50.2 2.2 50.2 2.2 50.2 2.2 Z M 63.1 4.9 C 63.2 5.0 63.2 5.0 63.1 4.9 C 63.1 4.9 63.1 4.9 63.1 4.9 Z M 63.9 2.9 C 64.0 3.0 64.0 3.0 63.9 2.9 C 63.9 2.9 63.9 2.9 63.9 2.9 Z M 64.2 1.8 C 64.3 1.9 64.3 1.9 64.2 1.8 C 64.2 1.8 64.2 1.8 64.2 1.8 Z M 35.3 4.7 C 35.2 4.7 35.2 4.7 35.3 4.7 C 35.3 4.7 35.3 4.7 35.3 4.7 Z M 33.8 1.4 C 33.8 1.4 33.8 1.4 33.8 1.4 C 33.8 1.4 33.8 1.4 33.8 1.4 Z M 37.0 1.3 C 37.0 1.3 37.0 1.3 37.0 1.3 C 37.0 1.3 37.0 1.3 37.0 1.3 Z M 35.1 6.7 C 35.0 6.7 35.0 6.7 35.1 6.7 C 35.1 6.7 35.1 6.7 35.1 6.7 Z M 46.9 3.9 C 46.8 3.9 46.8 3.9 46.9 3.9 C 46.9 3.9 46.9 3.9 46.9 3.9 Z M 48.3 5.2 C 48.3 5.2 48.3 5.2 48.3 5.2 C 48.3 5.2 48.3 5.2 48.3 5.2 Z M 45.8 7.0 C 45.8 7.0 45.8 7.0 45.8 7.0 C 45.8 7.0 45.8 7.0 45.8 7.0 Z M 49.5 6.4 C 49.4 6.4 49.4 6.4 49.5 6.4 C 49.5 6.4 49.5 6.4 49.5 6.4 Z M 26.7 6.1 C 26.6 6.1 26.6 6.1 26.7 6.1 C 26.7 6.1 26.7 6.1 26.7 6.1 Z M 26.0 3.6 C 26.0 3.7 26.0 3.7 26.0 3.6 C 26.0 3.6 26.0 3.6 26.0 3.6 Z M 46.9 2.1 C 47.4 1.6 48.2 2.8 46.9 2.1 M 42.3 2.4 C 42.3 2.5 42.3 2.5 42.3 2.4 C 42.3 2.4 42.3 2.4 42.3 2.4 Z M 54.8 2.2 C 55.6 3.2 52.5 1.7 54.8 2.2 C 54.8 2.2 54.8 2.2 54.8 2.2 Z M 53.2 6.4 C 53.3 6.4 53.3 6.4 53.2 6.4 C 53.2 6.4 53.2 6.4 53.2 6.4 Z M 54.4 6.0 C 54.5 6.1 54.5 6.1 54.4 6.0 C 54.4 6.0 54.4 6.0 54.4 6.0 Z M 60.6 3.2 C 60.7 3.3 60.7 3.3 60.6 3.2 M 41.5 1.5 C 42.3 2.0 42.2 1.9 41.5 1.5 M 56.4 2.2 C 56.3 2.3 56.3 2.3 56.4 2.2 C 56.4 2.2 56.4 2.2 56.4 2.2 Z M 61.9 2.7 C 61.9 2.7 61.9 2.7 61.9 2.7 C 61.9 2.7 61.9 2.7 61.9 2.7 Z M 38.3 2.2 C 38.7 3.4 38.0 3.1 38.3 2.2 M 29.1 2.6 C 29.1 2.7 29.1 2.7 29.1 2.6 C 29.1 2.6 29.1 2.6 29.1 2.6 Z M 69.7 2.7 C 63.7 1.2 65.7 3.9 65.6 4.4 C 65.0 5.1 65.9 5.6 67.1 6.1 C 68.7 7.8 68.5 4.3 69.7 6.0 C 71.8 8.3 70.9 4.1 72.2 6.5 C 72.1 7.1 74.2 6.6 74.0 6.4 C 75.3 7.6 76.4 5.5 76.3 5.3 C 77.2 5.6 77.8 7.8 79.7 6.2 C 81.3 5.6 82.6 7.7 81.7 6.3 C 83.5 7.9 82.5 5.8 83.9 6.3 C 85.1 7.2 83.6 4.9 85.7 6.7 C 86.0 5.3 85.2 7.6 89.3 6.6 C 87.2 6.5 91.0 5.5 90.5 6.4 C 89.3 7.4 92.4 6.0 94.6 6.6 C 94.9 6.1 96.9 4.9 97.0 6.3 C 99.5 7.8 98.7 5.3 100.0 6.6 C 100.9 7.1 100.8 6.0 101.3 6.1 C 102.3 7.0 102.7 6.4 105.4 6.7 C 111.1 7.2 105.4 4.2 107.4 3.8 C 107.6 3.4 103.5 0.2 105.5 2.6 C 104.9 1.9 101.1 4.4 102.5 1.7 C 101.2 2.8 102.6 0.7 99.5 1.9 C 104.9 3.8 94.4 2.7 98.6 1.8 C 97.7 1.2 95.9 1.3 97.3 1.8 C 98.4 3.5 93.9 1.0 96.4 3.1 C 93.3 2.5 94.6 4.3 93.4 3.1 C 92.1 0.8 93.7 3.6 92.1 3.0 C 88.6 3.0 90.5 0.4 88.9 2.1 C 85.3 1.0 88.5 3.1 87.4 3.4 C 87.5 4.9 83.6 2.2 86.1 2.0 C 85.0 2.8 85.7 1.2 84.4 2.2 C 86.0 3.6 82.0 0.7 82.8 1.8 C 81.5 2.2 82.5 3.0 82.0 3.1 C 80.0 3.1 80.2 1.7 80.1 2.7 C 79.8 3.3 78.3 1.5 78.2 1.9 C 80.3 2.0 76.9 3.4 76.4 2.7 C 77.7 2.6 75.3 0.8 74.7 1.9 C 76.6 5.0 72.7 1.1 72.0 2.2 C 73.4 3.9 67.5 2.4 69.4 1.6 C 69.3 1.8 69.7 2.8 69.7 2.7 M 77.6 2.2 C 79.4 2.3 75.9 2.5 77.6 2.2 M 77.5 1.7 C 78.4 2.3 75.7 1.3 77.5 1.5 C 77.5 1.5 77.3 1.7 77.5 1.7 M 84.6 1.7 C 84.5 2.1 83.5 1.4 84.6 1.7 M 86.3 2.7 C 87.6 3.2 84.8 2.8 86.3 2.7 M 102.0 2.4 C 101.2 5.0 99.9 0.9 102.0 2.4 M 91.4 1.9 C 89.6 2.2 91.7 0.8 91.4 1.9 M 91.0 2.5 C 90.2 2.9 90.6 1.9 91.0 2.5 M 99.0 2.4 C 99.2 2.4 99.2 2.4 99.0 2.4 C 99.0 2.4 99.0 2.4 99.0 2.4 Z M 103.7 2.5 C 103.8 2.4 103.8 2.4 103.7 2.5 C 103.7 2.5 103.7 2.5 103.7 2.5 Z M 94.5 2.7 C 92.9 2.1 96.8 2.4 94.5 2.7 C 94.5 2.7 94.5 2.7 94.5 2.7 Z M 102.8 6.4 C 102.7 6.4 102.7 6.4 102.8 6.4 C 102.8 6.4 102.8 6.4 102.8 6.4 Z M 76.6 3.3 C 76.5 3.4 76.5 3.4 76.6 3.3 C 76.6 3.3 76.6 3.3 76.6 3.3 Z M 71.0 2.4 C 71.1 2.7 70.0 2.1 71.0 2.4 C 71.0 2.4 71.0 2.4 71.0 2.4 Z M 67.4 5.3 C 67.3 5.4 67.3 5.4 67.4 5.3 C 67.4 5.3 67.4 5.3 67.4 5.3 Z M 75.2 4.7 C 75.1 4.7 75.1 4.7 75.2 4.7 C 75.2 4.7 75.2 4.7 75.2 4.7 Z M 75.4 2.8 C 74.2 1.4 77.6 3.2 75.4 2.8 C 75.4 2.8 75.4 2.8 75.4 2.8 Z M 93.8 6.2 C 93.7 5.6 95.1 6.4 93.8 6.2 C 93.8 6.2 93.8 6.2 93.8 6.2 Z M 86.6 3.3 C 86.8 3.0 87.5 3.4 86.6 3.3 C 86.6 3.3 86.6 3.3 86.6 3.3 Z M 83.2 1.4 C 83.3 1.1 84.0 1.5 83.2 1.4 C 83.2 1.4 83.2 1.4 83.2 1.4 Z M 71.0 2.0 C 71.1 1.9 71.1 1.9 71.0 2.0 C 71.0 2.0 71.0 2.0 71.0 2.0 Z M 73.2 3.1 C 71.5 1.7 75.4 3.8 73.2 3.1 C 73.2 3.1 73.2 3.1 73.2 3.1 Z M 71.0 3.4 C 71.8 4.0 69.2 3.2 71.0 3.4 M 72.8 5.5 C 74.3 4.9 71.9 7.9 72.8 5.5 C 72.8 5.5 72.8 5.5 72.8 5.5 Z M 81.3 6.0 C 81.4 6.1 81.4 6.1 81.3 6.0 C 81.3 6.0 81.3 6.0 81.3 6.0 Z M 79.3 2.1 C 80.8 2.2 78.5 2.4 79.3 2.1 C 79.3 2.1 79.3 2.1 79.3 2.1 Z M 66.9 1.8 C 68.3 1.9 66.0 2.2 66.9 1.8 C 66.9 1.8 66.9 1.8 66.9 1.8 Z M 85.7 4.7 C 88.0 4.5 84.5 5.4 85.7 4.7 C 85.7 4.7 85.7 4.7 85.7 4.7 Z M 93.9 3.2 C 94.0 3.2 94.0 3.2 93.9 3.2 C 93.9 3.2 93.9 3.2 93.9 3.2 Z M 95.3 2.6 C 95.4 2.7 95.4 2.7 95.3 2.6 C 95.3 2.6 95.3 2.6 95.3 2.6 Z M 102.4 4.0 C 102.5 4.0 102.5 4.0 102.4 4.0 C 102.4 4.0 102.4 4.0 102.4 4.0 Z M 96.6 2.0 C 96.6 2.0 96.6 2.0 96.6 2.0 C 96.6 2.0 96.6 2.0 96.6 2.0 Z M 101.3 2.3 C 101.4 2.4 101.4 2.4 101.3 2.3 C 101.3 2.3 101.3 2.3 101.3 2.3 Z M 100.3 1.2 C 100.4 1.2 100.4 1.2 100.3 1.2 C 100.3 1.2 100.3 1.2 100.3 1.2 Z M 91.8 7.0 C 91.9 7.0 91.9 7.0 91.8 7.0 C 91.8 7.0 91.8 7.0 91.8 7.0 Z M 73.4 1.6 C 73.5 1.7 73.5 1.7 73.4 1.6 C 73.4 1.6 73.4 1.6 73.4 1.6 Z M 101.1 2.9 C 101.1 2.9 101.1 2.9 101.1 2.9 C 101.1 2.9 101.1 2.9 101.1 2.9 Z M 90.1 3.9 C 90.5 5.0 88.7 2.4 90.4 3.8 C 90.3 3.9 90.0 3.7 90.1 3.9 M 92.2 5.8 C 92.1 5.8 92.1 5.8 92.2 5.8 C 92.2 5.8 92.2 5.8 92.2 5.8 Z M 87.3 6.5 C 87.2 6.5 87.2 6.5 87.3 6.5 C 87.3 6.5 87.3 6.5 87.3 6.5 Z M 95.7 1.8 C 95.3 1.1 97.1 2.3 95.5 1.8 M 103.1 6.0 C 102.7 5.3 104.5 6.5 102.9 6.0 M 65.3 2.3 C 65.3 2.8 64.3 2.0 65.3 2.3 M 86.3 7.1 C 86.2 7.6 85.2 6.8 86.3 7.1 M 88.3 5.6 C 87.9 5.0 89.7 6.1 88.1 5.7 M 99.6 5.9 C 99.6 5.9 99.6 5.9 99.6 5.9 C 99.6 5.9 99.6 5.9 99.6 5.9 Z M 81.5 2.3 C 81.6 2.3 81.6 2.3 81.5 2.3 C 81.5 2.3 81.5 2.3 81.5 2.3 Z M 88.2 3.6 C 87.1 2.7 89.4 4.2 88.2 3.6 M 80.1 3.8 C 78.6 2.7 82.2 4.1 80.1 3.8 M 105.9 6.2 C 104.0 4.9 107.1 6.9 105.9 6.2 M 97.9 3.0 C 96.1 1.7 99.2 3.7 97.9 3.0 M 82.9 2.8 C 82.7 2.1 84.5 3.2 82.9 2.8 M 68.5 2.2 C 67.2 2.0 70.1 1.6 68.5 2.2 M 96.2 6.0 C 96.2 6.0 96.2 6.0 96.2 6.0 C 96.2 6.0 96.2 6.0 96.2 6.0 Z M 74.1 7.1 C 74.2 7.2 74.2 7.2 74.1 7.1 C 74.1 7.1 74.1 7.1 74.1 7.1 Z M 106.2 2.0 C 106.3 2.0 106.3 2.0 106.2 2.0 C 106.2 2.0 106.2 2.0 106.2 2.0 Z M 97.3 3.6 C 97.4 3.7 97.4 3.7 97.3 3.6 C 97.3 3.6 97.3 3.6 97.3 3.6 Z M 103.5 1.8 C 103.6 1.9 103.6 1.9 103.5 1.8 C 103.5 1.8 103.5 1.8 103.5 1.8 Z M 93.3 4.6 C 93.3 4.6 93.3 4.6 93.3 4.6 C 93.3 4.6 93.3 4.6 93.3 4.6 Z M 91.4 1.3 C 91.4 1.3 91.4 1.3 91.4 1.3 C 91.4 1.3 91.4 1.3 91.4 1.3 Z M 87.1 2.7 C 87.1 2.7 87.1 2.7 87.1 2.7 C 87.1 2.7 87.1 2.7 87.1 2.7 Z M 93.6 1.6 C 96.4 1.4 92.5 2.7 93.6 1.6 C 93.6 1.6 93.6 1.6 93.6 1.6 Z M 89.7 4.8 C 89.8 4.9 89.8 4.9 89.7 4.8 C 89.7 4.8 89.7 4.8 89.7 4.8 Z M 88.6 2.5 C 90.1 1.6 90.1 4.1 88.6 2.5 M 80.6 1.7 C 81.0 1.2 81.1 2.5 80.6 1.7 M 78.6 6.1 C 78.6 6.1 78.6 6.1 78.6 6.1 C 78.6 6.1 78.6 6.1 78.6 6.1 Z M 79.3 5.7 C 79.5 5.8 79.5 5.8 79.3 5.7 C 79.3 5.7 79.3 5.7 79.3 5.7 Z M 78.6 1.5 C 78.7 1.6 78.7 1.6 78.6 1.5 C 78.6 1.5 78.6 1.5 78.6 1.5 Z M 79.8 7.0 C 79.9 7.0 79.9 7.0 79.8 7.0 C 79.8 7.0 79.8 7.0 79.8 7.0 Z M 90.3 1.4 C 90.4 1.4 90.4 1.4 90.3 1.4 C 90.3 1.4 90.3 1.4 90.3 1.4 Z M 104.7 1.3 C 104.8 1.4 104.8 1.4 104.7 1.3 C 104.7 1.3 104.7 1.3 104.7 1.3 Z M 69.8 5.6 C 69.9 5.7 69.9 5.7 69.8 5.6 C 69.8 5.6 69.8 5.6 69.8 5.6 Z M 92.2 2.7 C 92.3 2.7 92.3 2.7 92.2 2.7 C 92.2 2.7 92.2 2.7 92.2 2.7 Z M 76.5 5.9 C 76.6 5.9 76.6 5.9 76.5 5.9 C 76.5 5.9 76.5 5.9 76.5 5.9 Z M 91.2 2.4 C 91.3 2.4 91.3 2.4 91.2 2.4 C 91.2 2.4 91.2 2.4 91.2 2.4 Z M 95.8 6.2 C 95.8 6.3 95.8 6.3 95.8 6.2 C 95.8 6.2 95.8 6.2 95.8 6.2 Z M 99.2 7.0 C 99.2 7.0 99.2 7.0 99.2 7.0 C 99.2 7.0 99.2 7.0 99.2 7.0 Z M 94.9 3.9 C 94.9 4.0 94.9 4.0 94.9 3.9 C 94.9 3.9 94.9 3.9 94.9 3.9 Z M 75.1 4.5 C 69.1 3.3 79.5 3.9 75.1 4.5 M 95.9 4.2 C 91.8 4.0 98.7 2.9 95.9 4.2 C 96.2 3.9 96.0 4.2 95.9 4.2 M 110.4 1.8 C 107.4 0.5 108.0 2.4 108.1 2.4 C 107.5 -0.1 106.1 3.4 106.8 3.9 C 106.8 4.3 110.3 8.7 111.2 6.0 C 111.6 5.7 112.1 6.5 112.5 6.5 C 114.0 6.5 113.1 6.2 112.8 5.8 C 112.4 5.5 112.0 4.9 113.5 5.3 C 114.0 5.8 112.8 7.3 114.6 6.9 C 114.5 7.1 114.7 8.8 115.2 7.7 C 114.8 9.0 115.8 8.5 116.0 9.6 C 115.4 10.8 114.5 9.3 115.7 12.5 C 113.9 14.7 117.0 14.2 115.0 16.3 C 115.0 17.3 118.2 17.5 116.4 16.0 C 116.6 16.2 118.1 14.3 117.5 17.4 C 117.1 17.2 113.9 16.8 115.4 20.8 C 115.4 21.6 116.2 23.0 115.8 23.5 C 115.5 21.3 114.4 27.3 115.4 26.4 C 114.7 30.3 116.2 27.6 115.1 30.7 C 115.1 32.8 116.5 29.4 115.7 32.4 C 115.9 34.3 115.1 33.3 115.1 33.1 C 115.1 33.4 115.1 33.7 115.1 34.0 C 115.9 34.8 116.7 35.0 117.0 35.3 C 117.1 35.7 117.0 36.5 118.1 36.5 C 120.9 37.2 121.1 35.3 123.1 35.3 C 122.8 34.0 121.6 35.3 122.0 34.2 C 120.7 34.1 121.9 34.1 119.7 32.1 C 119.7 31.9 119.7 31.7 119.7 31.4 C 119.5 31.6 118.9 32.8 118.8 31.9 C 118.9 30.4 121.4 30.4 119.6 28.8 C 119.1 31.8 118.8 25.2 118.3 28.0 C 118.0 24.9 118.5 27.0 119.1 24.4 C 117.4 25.2 120.9 23.5 119.5 23.2 C 120.2 22.7 119.9 19.2 118.9 22.2 C 118.5 18.5 119.4 20.6 120.3 18.9 C 120.4 17.1 117.6 19.8 119.6 17.9 C 120.6 15.3 118.6 18.2 120.2 15.9 C 118.8 17.2 120.2 14.2 118.7 15.4 C 118.6 11.6 120.3 15.3 119.3 13.0 C 119.2 13.8 121.3 12.7 119.9 11.5 C 117.5 13.2 122.1 8.6 118.8 11.0 C 118.4 8.4 118.6 7.8 119.0 7.5 C 119.4 7.3 120.3 7.3 119.2 5.3 C 118.6 4.4 118.9 7.3 118.5 6.5 C 117.7 4.0 117.1 3.8 117.2 3.7 C 117.3 3.7 117.5 4.1 116.3 4.2 C 114.4 3.0 113.9 2.9 113.7 2.5 C 113.5 2.1 113.3 1.5 112.3 1.5 C 112.4 2.2 111.3 3.5 110.4 1.8 M 114.6 2.9 C 115.5 2.7 115.3 3.7 114.6 2.9 M 106.2 1.8 C 106.8 1.3 106.8 2.4 106.2 1.8 M 118.1 4.7 C 119.2 5.3 118.0 6.0 118.1 4.7 M 118.9 26.7 C 118.9 25.2 119.3 27.1 118.9 26.7 M 109.2 1.7 C 110.1 1.1 109.8 2.6 109.2 1.7 M 108.2 3.0 C 108.3 3.0 108.3 3.0 108.2 3.0 M 120.2 28.2 C 120.2 28.2 120.2 28.2 120.2 28.2 M 120.2 22.6 C 120.2 23.8 119.9 22.1 120.2 22.6 M 114.8 24.6 C 114.8 25.8 114.5 24.0 114.8 24.6 M 120.3 31.1 C 120.7 32.1 119.7 31.7 120.3 31.1 M 120.7 34.0 C 121.9 34.5 120.7 34.7 120.7 34.0 M 114.0 4.7 C 114.0 4.7 114.0 4.7 114.0 4.7 C 114.0 4.7 114.0 4.7 114.0 4.7 Z M 116.0 13.4 C 116.5 12.0 115.3 15.1 116.0 13.4 M 119.5 10.2 C 118.4 11.4 119.6 8.6 119.5 10.2 C 119.5 10.2 119.5 10.2 119.5 10.2 Z M 119.0 8.5 C 118.9 8.5 118.9 8.5 119.0 8.5 C 119.0 8.5 119.0 8.5 119.0 8.5 Z M 118.9 14.4 C 118.9 14.3 118.9 14.3 118.9 14.4 C 118.9 14.4 118.9 14.4 118.9 14.4 Z M 118.8 13.2 C 118.6 12.9 119.1 12.5 118.8 13.2 C 118.8 13.2 118.8 13.2 118.8 13.2 Z M 115.4 22.9 C 115.1 22.5 115.6 22.2 115.4 22.9 C 115.4 22.9 115.4 22.9 115.4 22.9 Z M 118.5 11.6 C 117.4 11.8 119.2 10.5 118.5 11.6 C 118.5 11.6 118.5 11.6 118.5 11.6 Z M 115.9 18.7 C 116.1 19.1 114.8 20.2 115.9 18.7 M 120.0 29.4 C 120.3 29.8 118.9 30.9 120.0 29.4 M 120.3 17.2 C 120.6 17.6 119.3 18.7 120.3 17.2 M 115.3 2.7 C 115.5 2.9 115.5 2.9 115.3 2.7 M 114.9 11.7 C 115.3 12.3 114.4 12.3 114.9 11.7 M 111.4 6.5 C 112.1 6.1 111.9 7.0 111.4 6.5 M 114.9 29.7 C 115.2 29.6 114.8 31.0 114.9 29.7 M 118.6 19.3 C 118.4 20.4 117.8 21.7 117.9 19.5 C 118.1 19.3 118.3 19.9 118.6 19.3 C 118.6 19.3 118.6 19.3 118.6 19.3 Z M 116.1 24.1 C 116.0 24.3 116.0 24.3 116.1 24.1 M 119.6 20.8 C 119.5 21.0 119.5 21.0 119.6 20.8 M 119.5 27.0 C 119.3 27.2 119.3 27.2 119.5 27.0 M 119.8 27.7 C 119.7 27.7 119.7 27.7 119.8 27.7 C 119.8 27.7 119.8 27.7 119.8 27.7 Z M 121.9 33.5 C 121.8 33.5 121.8 33.5 121.9 33.5 C 121.9 33.5 121.9 33.5 121.9 33.5 Z M 119.3 25.1 C 119.3 25.1 119.3 25.1 119.3 25.1 C 119.3 25.1 119.3 25.1 119.3 25.1 Z M 115.2 32.4 C 115.1 32.4 115.1 32.4 115.2 32.4 C 115.2 32.4 115.2 32.4 115.2 32.4 Z M 115.8 31.4 C 115.8 31.5 115.8 31.5 115.8 31.4 C 115.8 31.4 115.8 31.4 115.8 31.4 Z M 111.0 1.8 C 111.6 1.1 112.1 3.7 111.0 1.8 M 116.3 34.3 C 116.2 35.2 115.1 33.2 116.3 34.3 C 116.3 34.3 116.3 34.3 116.3 34.3 Z M 118.4 24.7 C 118.3 24.9 118.3 24.9 118.4 24.7 M 119.7 28.1 C 119.5 28.2 119.5 28.2 119.7 28.1 M 120.5 9.8 C 120.3 10.0 120.3 10.0 120.5 9.8 M 120.0 32.7 C 121.7 34.8 117.5 32.4 120.0 32.7 M 119.4 8.7 C 119.5 8.6 119.5 8.6 119.4 8.7 M 117.4 16.1 C 117.5 18.0 116.8 15.7 117.4 16.1 M 118.8 20.5 C 118.7 20.5 118.7 20.5 118.8 20.5 C 118.8 20.5 118.8 20.5 118.8 20.5 Z M 118.8 17.7 C 118.6 16.3 119.1 17.2 118.8 17.7 C 118.8 17.7 118.8 17.7 118.8 17.7 Z M 112.7 2.8 C 115.2 3.0 110.4 3.2 112.7 2.8 C 112.7 2.8 112.7 2.8 112.7 2.8 Z M 116.9 32.7 C 116.8 32.6 116.8 32.6 116.9 32.7 C 116.9 32.7 116.9 32.7 116.9 32.7 Z M 120.1 24.4 C 119.8 23.7 120.4 23.9 120.1 24.4 C 120.1 24.4 120.1 24.4 120.1 24.4 Z M 122.6 34.2 C 121.7 33.8 122.6 33.8 122.6 34.2 C 122.6 34.2 122.6 34.2 122.6 34.2 Z M 110.4 2.6 C 117.7 4.4 101.3 2.2 110.4 2.6 C 110.4 2.6 110.4 2.6 110.4 2.6 Z M 119.5 18.5 C 119.5 18.5 119.5 18.5 119.5 18.5 C 119.5 18.5 119.5 18.5 119.5 18.5 Z M 118.7 4.5 C 118.6 4.5 118.6 4.5 118.7 4.5 C 118.7 4.5 118.7 4.5 118.7 4.5 Z M 116.2 3.6 C 116.2 3.6 116.2 3.6 116.2 3.6 C 116.2 3.6 116.2 3.6 116.2 3.6 Z M 114.6 7.9 C 114.6 7.9 114.6 7.9 114.6 7.9 C 114.6 7.9 114.6 7.9 114.6 7.9 Z M 116.3 6.8 C 116.1 6.8 116.1 6.8 116.3 6.8 C 116.3 6.8 116.3 6.8 116.3 6.8 Z M 113.3 5.6 C 113.3 5.7 113.3 5.7 113.3 5.6 C 113.3 5.6 113.3 5.6 113.3 5.6 Z M 113.4 6.2 C 113.3 6.2 113.3 6.2 113.4 6.2 C 113.4 6.2 113.4 6.2 113.4 6.2 Z M 118.5 28.6 C 118.4 28.6 118.4 28.6 118.5 28.6 C 118.5 28.6 118.5 28.6 118.5 28.6 Z M 116.7 27.0 C 117.3 28.3 115.8 26.9 116.7 27.0 C 116.7 27.0 116.7 27.0 116.7 27.0 Z M 117.5 12.8 C 117.8 14.1 117.0 12.1 117.5 12.8 C 117.5 12.8 117.5 12.8 117.5 12.8 Z M 115.2 15.2 C 115.2 15.2 115.2 15.2 115.2 15.2 C 115.2 15.2 115.2 15.2 115.2 15.2 Z M 116.4 2.4 C 116.3 2.5 116.3 2.5 116.4 2.4 C 116.4 2.4 116.4 2.4 116.4 2.4 Z M 112.8 2.2 C 113.1 3.1 111.5 1.7 112.8 2.2 M 120.1 14.5 C 120.0 14.5 120.0 14.5 120.1 14.5 C 120.1 14.5 120.1 14.5 120.1 14.5 Z M 118.7 23.4 C 118.6 23.4 118.6 23.4 118.7 23.4 C 118.7 23.4 118.7 23.4 118.7 23.4 Z M 119.3 31.5 C 119.2 31.5 119.2 31.5 119.3 31.5 C 119.3 31.5 119.3 31.5 119.3 31.5 Z M 120.0 19.7 C 119.9 19.7 119.9 19.7 120.0 19.7 C 120.0 19.7 120.0 19.7 120.0 19.7 Z M 119.2 16.1 C 119.0 16.1 119.0 16.1 119.2 16.1 C 119.2 16.1 119.2 16.1 119.2 16.1 Z M 118.8 33.5 C 118.7 33.5 118.7 33.5 118.8 33.5 C 118.8 33.5 118.8 33.5 118.8 33.5 Z M 120.1 20.6 C 120.1 20.6 120.1 20.6 120.1 20.6 C 120.1 20.6 120.1 20.6 120.1 20.6 Z M 117.3 24.2 C 117.2 24.1 117.2 24.1 117.3 24.2 C 117.3 24.2 117.3 24.2 117.3 24.2 Z M 112.8 0.9 C 112.7 1.0 112.7 1.0 112.8 0.9 C 112.8 0.9 112.8 0.9 112.8 0.9 Z M 120.0 33.1 C 119.9 33.1 119.9 33.1 120.0 33.1 C 120.0 33.1 120.0 33.1 120.0 33.1 Z M 121.2 33.1 C 121.1 33.1 121.1 33.1 121.2 33.1 C 121.2 33.1 121.2 33.1 121.2 33.1 Z M 115.7 29.5 C 116.2 26.3 115.9 32.0 116.9 29.5 C 117.1 33.6 115.7 30.1 115.7 29.5 C 115.7 29.5 115.7 29.5 115.7 29.5 Z M 124.2 35.7 C 121.9 35.1 120.8 35.6 120.0 36.7 C 120.0 37.5 122.3 36.4 120.4 37.4 C 118.7 36.2 118.0 39.3 120.5 38.1 C 122.6 39.7 119.2 39.1 121.2 39.7 C 123.4 41.5 121.6 40.9 123.3 42.3 C 125.5 42.4 123.5 43.5 125.1 43.2 C 123.0 43.2 127.1 44.5 126.5 44.9 C 124.3 44.0 131.5 49.9 128.4 46.3 C 130.5 47.3 129.1 47.7 129.4 48.3 C 130.8 48.4 131.2 51.0 132.8 51.3 C 132.8 51.1 132.4 50.6 132.5 50.3 C 132.8 49.8 133.4 51.4 133.3 51.2 C 134.2 51.6 137.2 53.4 133.4 51.8 C 132.7 52.1 135.7 53.6 135.1 53.9 C 137.2 56.0 136.8 53.6 136.9 55.2 C 138.3 56.7 139.4 57.8 139.6 57.7 C 140.4 58.7 139.9 59.4 141.4 59.7 C 141.9 62.5 145.1 59.1 143.3 61.7 C 144.4 61.8 143.4 63.6 144.8 62.3 C 143.4 62.2 146.8 66.4 146.2 63.9 C 147.0 64.0 147.5 68.0 148.7 66.3 C 150.6 66.3 151.5 65.2 150.7 62.5 C 150.1 63.4 149.7 59.9 149.6 62.4 C 150.7 64.4 146.2 60.0 147.7 60.5 C 149.7 59.3 144.4 59.3 144.8 57.3 C 144.8 58.6 140.9 55.3 143.3 55.4 C 142.7 54.6 141.9 55.0 142.0 53.7 C 144.0 55.9 139.7 53.9 140.7 53.4 C 141.6 53.4 138.9 49.9 138.4 50.8 C 137.5 53.2 138.0 49.7 136.6 49.7 C 134.4 48.2 138.6 48.9 135.8 48.5 C 135.7 48.0 133.4 45.7 135.3 46.9 C 135.7 47.5 131.6 46.8 133.2 45.5 C 136.6 47.4 130.9 42.4 131.1 43.5 C 134.0 47.9 125.9 40.0 129.9 42.5 C 129.2 40.3 130.8 42.8 128.3 40.9 C 128.0 41.5 125.7 40.2 127.3 40.0 C 128.8 38.7 124.4 40.6 125.5 38.0 C 126.4 37.3 122.1 35.8 124.3 36.2 C 124.4 36.2 124.3 35.8 124.2 35.7 M 124.8 36.6 C 124.1 36.5 124.8 35.9 124.8 36.6 M 124.1 36.4 C 124.1 36.4 124.1 36.4 124.1 36.4 C 124.1 36.4 124.1 36.4 124.1 36.4 Z M 127.9 40.7 C 127.9 40.6 127.9 40.6 127.9 40.7 C 127.9 40.7 127.9 40.7 127.9 40.7 Z M 126.8 46.3 C 126.8 46.2 126.8 46.2 126.8 46.3 C 126.8 46.3 126.8 46.3 126.8 46.3 Z M 130.5 43.4 C 130.5 43.4 130.5 43.4 130.5 43.4 C 130.5 43.4 130.5 43.4 130.5 43.4 Z M 126.1 39.3 C 126.1 39.3 126.1 39.3 126.1 39.3 C 126.1 39.3 126.1 39.3 126.1 39.3 Z M 130.9 42.8 C 130.5 43.4 130.5 41.6 131.1 42.8 C 131.1 42.9 130.9 42.7 130.9 42.8 M 134.7 46.2 C 134.7 46.3 134.7 46.3 134.7 46.2 M 138.0 57.3 C 137.9 57.4 137.9 57.4 138.0 57.3 M 143.3 54.7 C 143.3 54.8 143.3 54.8 143.3 54.7 M 137.6 50.2 C 138.8 51.2 137.6 50.6 137.6 50.2 M 145.8 57.8 C 144.8 56.1 147.6 59.0 145.8 57.8 M 147.5 58.8 C 147.5 59.0 147.5 59.0 147.5 58.8 M 141.1 52.8 C 141.0 52.8 141.0 52.8 141.1 52.8 C 141.1 52.8 141.1 52.8 141.1 52.8 Z M 137.4 49.5 C 136.3 47.9 139.5 50.6 137.4 49.5 M 129.0 40.8 C 130.1 41.4 128.2 41.2 129.0 40.8 M 127.0 39.4 C 127.0 39.4 127.0 39.4 127.0 39.4 C 127.0 39.4 127.0 39.4 127.0 39.4 Z M 143.6 55.5 C 143.6 55.5 143.6 55.5 143.6 55.5 C 143.6 55.5 143.6 55.5 143.6 55.5 Z M 145.3 57.0 C 145.3 57.0 145.3 57.0 145.3 57.0 C 145.3 57.0 145.3 57.0 145.3 57.0 Z M 143.8 62.9 C 143.8 62.9 143.8 62.9 143.8 62.9 C 143.8 62.9 143.8 62.9 143.8 62.9 Z M 126.2 41.6 C 125.5 40.4 128.9 41.9 127.5 42.3 C 127.1 42.7 126.4 41.7 126.2 41.6 M 135.0 49.4 C 133.7 50.6 136.1 47.0 135.0 49.4 M 146.7 59.7 C 146.2 62.1 146.6 57.5 146.7 59.7 M 149.2 61.7 C 149.5 62.6 145.0 57.8 148.7 60.7 C 149.3 60.8 149.2 61.3 149.2 61.7 M 134.0 46.7 C 133.5 47.6 132.7 44.8 134.0 46.7 M 138.1 55.0 C 139.2 55.2 141.0 56.2 139.5 56.2 C 138.4 57.0 137.0 54.6 138.1 55.0 M 124.1 37.3 C 126.5 37.5 122.8 37.9 124.1 37.3 M 128.2 41.6 C 128.3 41.5 128.3 41.5 128.2 41.6 C 128.2 41.6 128.2 41.6 128.2 41.6 Z M 130.1 43.1 C 130.0 43.2 130.0 43.2 130.1 43.1 M 126.1 37.4 C 126.1 37.5 126.1 37.5 126.1 37.4 M 139.5 54.0 C 139.4 54.2 139.4 54.2 139.5 54.0 M 137.0 50.1 C 137.3 52.5 135.8 49.4 137.0 50.1 M 130.4 47.7 C 130.2 48.6 129.3 46.7 130.4 47.7 M 140.1 52.4 C 140.0 54.3 137.4 51.6 140.1 52.4 M 136.3 49.2 C 136.4 49.3 136.4 49.3 136.3 49.2 C 136.3 49.2 136.3 49.2 136.3 49.2 Z M 138.4 55.5 C 138.4 55.5 138.4 55.5 138.4 55.5 C 138.4 55.5 138.4 55.5 138.4 55.5 Z M 139.0 56.0 C 138.9 55.9 138.9 55.9 139.0 56.0 C 139.0 56.0 139.0 56.0 139.0 56.0 Z M 141.7 53.7 C 141.6 53.6 141.6 53.6 141.7 53.7 C 141.7 53.7 141.7 53.7 141.7 53.7 Z M 123.1 41.2 C 124.1 42.4 121.9 40.4 123.1 41.2 C 123.1 41.2 123.1 41.2 123.1 41.2 Z M 132.2 44.1 C 133.0 46.6 129.9 43.4 132.2 44.1 C 132.2 44.1 132.2 44.1 132.2 44.1 Z M 132.6 47.3 C 132.5 47.3 132.5 47.3 132.6 47.3 C 132.6 47.3 132.6 47.3 132.6 47.3 Z M 140.2 51.1 C 140.1 51.2 140.1 51.2 140.2 51.1 C 140.2 51.1 140.2 51.1 140.2 51.1 Z M 123.5 41.9 C 123.4 41.9 123.4 41.9 123.5 41.9 C 123.5 41.9 123.5 41.9 123.5 41.9 Z M 144.2 57.3 C 144.2 57.4 144.2 57.4 144.2 57.3 C 144.2 57.3 144.2 57.3 144.2 57.3 Z M 135.1 52.5 C 136.0 52.6 134.8 52.8 135.1 52.5 C 135.1 52.5 135.1 52.5 135.1 52.5 Z M 136.8 54.2 C 136.9 54.3 136.9 54.3 136.8 54.2 C 136.8 54.2 136.8 54.2 136.8 54.2 Z M 148.0 59.2 C 148.0 59.2 148.0 59.2 148.0 59.2 C 148.0 59.2 148.0 59.2 148.0 59.2 Z M 140.1 59.5 C 140.2 59.5 140.2 59.5 140.1 59.5 C 140.1 59.5 140.1 59.5 140.1 59.5 Z M 143.0 59.9 C 142.9 59.9 142.9 59.9 143.0 59.9 C 143.0 59.9 143.0 59.9 143.0 59.9 Z M 141.1 53.6 C 143.0 55.1 140.1 53.6 141.1 53.6 C 141.1 53.6 141.1 53.6 141.1 53.6 Z M 147.6 63.9 C 147.6 64.0 147.6 64.0 147.6 63.9 C 147.6 63.9 147.6 63.9 147.6 63.9 Z M 150.1 63.4 C 150.0 63.6 150.0 63.6 150.1 63.4 C 150.1 63.4 150.1 63.4 150.1 63.4 Z M 151.3 63.2 C 151.3 63.3 151.3 63.3 151.3 63.2 C 151.3 63.2 151.3 63.2 151.3 63.2 Z M 128.0 44.1 C 128.1 44.0 128.1 44.0 128.0 44.1 C 128.0 44.1 128.0 44.1 128.0 44.1 Z M 130.4 41.8 C 130.4 41.8 130.4 41.8 130.4 41.8 C 130.4 41.8 130.4 41.8 130.4 41.8 Z M 132.8 44.0 C 132.8 44.0 132.8 44.0 132.8 44.0 C 132.8 44.0 132.8 44.0 132.8 44.0 Z M 125.8 44.7 C 125.8 44.6 125.8 44.6 125.8 44.7 C 125.8 44.7 125.8 44.7 125.8 44.7 Z M 137.1 52.0 C 137.1 51.9 137.1 51.9 137.1 52.0 C 137.1 52.0 137.1 52.0 137.1 52.0 Z M 136.8 53.5 C 136.8 53.5 136.8 53.5 136.8 53.5 C 136.8 53.5 136.8 53.5 136.8 53.5 Z M 133.2 52.5 C 133.2 52.5 133.2 52.5 133.2 52.5 C 133.2 52.5 133.2 52.5 133.2 52.5 Z M 136.4 54.8 C 136.4 54.8 136.4 54.8 136.4 54.8 C 136.4 54.8 136.4 54.8 136.4 54.8 Z M 120.4 38.5 C 120.4 38.5 120.4 38.5 120.4 38.5 C 120.4 38.5 120.4 38.5 120.4 38.5 Z M 122.7 37.2 C 122.5 37.2 122.5 37.2 122.7 37.2 C 122.7 37.2 122.7 37.2 122.7 37.2 Z M 138.9 51.2 C 139.7 51.3 139.1 52.4 138.9 51.2 M 135.3 48.1 C 135.3 48.1 135.3 48.1 135.3 48.1 C 135.3 48.1 135.3 48.1 135.3 48.1 Z M 144.3 56.8 C 144.0 57.8 143.2 54.9 144.3 56.8 C 144.3 56.8 144.3 56.8 144.3 56.8 Z M 139.1 57.5 C 139.2 57.6 139.2 57.6 139.1 57.5 C 139.1 57.5 139.1 57.5 139.1 57.5 Z M 140.4 58.2 C 140.3 58.3 140.3 58.3 140.4 58.2 C 140.4 58.2 140.4 58.2 140.4 58.2 Z M 147.4 61.3 C 147.4 61.4 147.4 61.4 147.4 61.3 M 135.7 47.2 C 135.8 48.0 135.8 47.8 135.7 47.2 M 145.4 57.9 C 145.3 57.9 145.3 57.9 145.4 57.9 C 145.4 57.9 145.4 57.9 145.4 57.9 Z M 148.9 62.0 C 148.8 62.0 148.8 62.0 148.9 62.0 C 148.9 62.0 148.9 62.0 148.9 62.0 Z M 132.8 45.3 C 131.8 46.0 131.6 45.4 132.8 45.3 M 125.9 39.0 C 125.8 39.0 125.8 39.0 125.9 39.0 C 125.9 39.0 125.9 39.0 125.9 39.0 Z M 125.9 39.0 " fill="#A6AAA8"></path></g></svg>