<?xml version="1.0" encoding="UTF-8" standalone="no"?><svg xmlns="http://www.w3.org/2000/svg" xmlns:xlink="http://www.w3.org/1999/xlink" clip-rule="evenodd" stroke-miterlimit="4.00" viewBox="0 0 123 91"><desc>SVG generated by Keynote</desc><defs></defs><g transform="matrix(1.00, 0.00, -0.00, -1.00, 0.0, 91.0)"><path d="M 9.9 86.9 C 7.1 86.9 4.9 84.7 4.9 81.9 L 4.9 47.8 C 4.9 45.1 7.1 42.8 9.9 42.8 L 90.6 42.8 L 100.6 11.2 L 110.6 42.8 L 113.3 42.8 C 116.1 42.8 118.3 45.1 118.3 47.8 L 118.3 81.9 C 118.3 84.7 116.1 86.9 113.3 86.9 L 9.9 86.9 Z M 9.9 86.9 " fill="#212121"></path><path d="M 3.4 79.4 C 3.5 79.7 3.3 80.5 3.5 80.7 M 3.4 79.4 C 2.3 80.2 1.7 81.4 2.3 84.1 C 3.1 86.9 3.2 83.7 3.7 83.8 C 5.1 86.7 5.1 86.7 3.9 87.2 C 5.4 87.7 8.7 90.4 8.2 88.8 C 5.5 88.1 6.6 88.2 7.6 88.3 C 8.7 88.5 9.6 88.5 7.9 87.4 C 7.6 87.1 8.7 87.0 9.1 87.1 C 8.0 86.3 9.7 86.0 8.7 85.2 C 8.8 84.2 8.7 84.7 8.7 83.8 C 8.6 83.6 8.5 83.9 8.4 84.1 C 7.7 84.9 8.3 83.3 7.5 83.2 C 8.5 82.1 6.9 82.3 6.5 83.0 C 6.4 82.4 7.9 81.5 6.9 80.7 C 7.6 80.2 7.1 77.9 6.3 79.3 C 5.7 80.4 5.3 79.3 4.9 79.1 C 4.6 79.5 5.1 80.9 4.8 81.1 C 4.6 80.7 4.0 78.9 4.1 80.8 C 3.6 80.2 3.3 81.2 3.4 79.4 C 3.4 79.4 3.4 79.4 3.4 79.4 Z M 5.0 87.4 C 4.8 87.7 4.4 86.8 5.0 87.4 C 5.0 87.4 5.0 87.4 5.0 87.4 Z M 7.6 81.4 C 7.3 81.4 7.7 80.7 7.6 81.4 C 7.6 81.4 7.6 81.4 7.6 81.4 Z M 8.2 84.0 C 8.0 84.3 8.0 83.7 8.2 84.0 C 8.2 84.0 8.2 84.0 8.2 84.0 Z M 3.7 85.4 C 3.3 83.9 4.8 86.0 4.6 86.4 C 4.5 86.2 3.6 85.8 3.7 85.4 C 3.7 85.4 3.7 85.4 3.7 85.4 Z M 5.5 84.1 C 5.4 84.1 5.1 83.7 5.5 83.6 C 5.7 83.8 5.7 84.1 5.5 84.1 C 5.5 84.1 5.5 84.1 5.5 84.1 Z M 9.5 88.3 C 9.4 88.4 8.8 88.4 8.9 88.1 C 9.3 88.0 9.6 88.2 9.5 88.3 C 9.5 88.3 9.5 88.3 9.5 88.3 Z M 4.0 83.5 C 4.0 83.2 4.3 83.0 4.4 83.3 C 4.3 83.5 4.5 84.4 4.0 83.5 C 4.0 83.5 4.0 83.5 4.0 83.5 Z M 2.5 81.6 C 2.7 80.7 3.3 82.7 3.2 82.7 C 2.9 83.1 2.2 82.1 2.5 81.6 C 2.5 81.6 2.5 81.6 2.5 81.6 Z M 4.4 82.8 C 4.4 81.9 4.7 83.1 4.4 82.8 C 4.4 82.8 4.4 82.8 4.4 82.8 Z M 9.1 85.4 C 8.6 85.1 9.4 85.2 9.1 85.4 C 9.1 85.4 9.1 85.4 9.1 85.4 Z M 7.8 83.2 C 7.8 82.8 8.1 83.2 7.8 83.2 C 7.8 83.2 7.8 83.2 7.8 83.2 Z M 5.9 86.8 C 7.1 87.8 5.4 87.7 5.9 86.8 C 5.9 86.8 5.9 86.8 5.9 86.8 Z M 2.4 79.6 C 2.4 80.8 1.5 79.8 2.4 79.6 C 2.4 79.6 2.4 79.6 2.4 79.6 Z M 11.6 89.0 C 10.4 89.2 14.9 90.4 13.2 88.9 C 12.7 87.7 15.9 87.8 15.0 88.9 C 15.9 89.1 15.9 89.2 16.5 88.6 C 16.6 89.5 18.7 89.9 19.5 89.5 C 20.0 88.7 18.1 89.4 19.3 88.5 C 22.0 88.3 19.2 87.7 20.3 86.7 C 20.4 86.7 20.4 87.2 20.7 86.9 C 20.8 85.9 19.3 85.3 20.0 84.6 C 19.6 84.7 17.6 83.7 18.4 84.5 C 18.7 85.4 16.3 83.4 16.4 84.9 C 15.8 84.2 15.1 85.2 14.5 84.3 C 14.0 84.2 14.0 84.9 14.1 85.1 C 14.1 85.8 13.5 83.6 12.7 84.8 C 12.6 84.4 10.4 84.6 12.1 85.1 C 11.6 85.0 9.1 84.7 10.4 86.0 C 12.1 86.6 8.6 87.4 10.6 87.4 C 12.2 87.6 12.5 87.3 11.3 88.0 C 11.0 87.9 9.2 88.1 10.7 88.7 C 11.0 88.5 11.8 88.6 11.6 89.0 C 11.6 89.0 11.6 89.0 11.6 89.0 Z M 11.3 87.0 C 12.2 87.0 11.3 87.5 11.3 87.0 C 11.3 87.0 11.3 87.0 11.3 87.0 Z M 14.6 84.0 C 15.6 84.0 14.7 84.5 14.6 84.0 C 14.6 84.0 14.6 84.0 14.6 84.0 Z M 14.4 89.3 C 14.9 88.9 14.9 90.3 14.4 89.3 C 14.4 89.3 14.4 89.3 14.4 89.3 Z M 13.1 85.1 C 13.1 85.1 12.9 85.3 12.7 85.4 C 12.8 85.3 13.0 85.1 13.1 85.1 C 13.1 85.1 13.1 85.1 13.1 85.1 Z M 15.9 89.3 C 17.3 88.6 16.1 90.4 15.9 89.3 C 15.9 89.3 15.9 89.3 15.9 89.3 Z M 18.7 88.0 C 18.9 86.6 20.1 88.3 18.7 88.0 C 18.7 88.0 18.7 88.0 18.7 88.0 Z M 16.9 85.0 C 16.6 85.3 16.7 84.8 16.9 85.0 C 16.9 85.0 16.9 85.0 16.9 85.0 Z M 10.9 84.8 C 10.7 85.1 10.7 84.6 10.9 84.8 C 10.9 84.8 10.9 84.8 10.9 84.8 Z M 18.6 85.1 C 18.5 85.6 18.1 84.8 18.6 85.1 C 18.6 85.1 18.6 85.1 18.6 85.1 Z M 14.7 88.7 C 13.4 89.8 13.2 87.2 14.7 88.7 C 14.7 88.7 14.7 88.7 14.7 88.7 Z M 12.4 88.9 C 11.6 89.1 12.6 88.2 13.0 88.3 C 12.9 88.5 12.6 88.8 12.4 88.9 C 12.4 88.9 12.4 88.9 12.4 88.9 Z M 16.0 88.6 C 15.1 89.2 15.2 88.3 16.0 88.6 C 16.0 88.6 16.0 88.6 16.0 88.6 Z M 13.8 89.2 C 13.4 89.1 14.1 89.1 13.8 89.2 C 13.8 89.2 13.8 89.2 13.8 89.2 Z M 17.6 89.8 C 17.2 89.6 17.9 89.6 17.6 89.8 C 17.6 89.8 17.6 89.8 17.6 89.8 Z M 11.4 89.4 C 11.0 89.3 11.7 89.3 11.4 89.4 C 11.4 89.4 11.4 89.4 11.4 89.4 Z M 17.3 89.0 C 17.4 88.6 16.2 87.5 18.4 88.4 C 18.7 88.7 17.8 89.4 17.3 89.0 C 17.3 89.0 17.3 89.0 17.3 89.0 Z M 3.4 75.5 C 1.9 81.2 4.6 79.7 5.1 79.9 C 5.8 80.7 6.3 79.9 6.8 78.7 C 8.5 77.4 5.0 77.0 6.7 76.1 C 9.0 74.3 4.7 74.5 7.1 73.6 C 7.7 73.8 7.2 71.7 7.1 71.9 C 8.2 70.6 6.2 69.3 6.0 69.3 C 6.3 68.5 8.4 68.2 6.8 66.0 C 6.3 64.3 8.4 63.2 6.9 64.0 C 8.6 62.4 6.4 63.1 7.0 61.7 C 7.9 60.7 5.6 61.9 7.3 60.0 C 6.0 59.5 8.2 60.6 7.2 56.4 C 7.1 58.5 6.2 54.5 7.1 55.2 C 8.1 56.5 6.7 53.2 7.3 51.0 C 6.8 50.6 5.6 48.5 6.9 48.6 C 7.7 47.4 7.5 47.4 7.3 47.2 C 7.1 46.9 6.8 46.6 7.5 46.7 C 8.2 46.5 7.2 45.9 7.5 45.8 C 8.6 46.0 8.3 45.1 9.8 45.3 C 10.5 45.4 11.9 45.3 12.2 45.1 C 12.5 44.9 12.4 44.6 12.2 44.2 C 11.8 43.5 10.9 42.6 11.9 42.5 C 12.1 42.0 8.1 38.8 10.0 41.2 C 9.7 40.9 8.1 41.5 7.3 42.1 C 6.4 42.7 5.7 43.2 6.0 41.5 C 5.4 42.5 5.3 42.3 4.9 42.3 C 4.6 42.3 3.6 42.5 3.3 44.8 C 4.5 43.3 5.1 43.4 5.0 43.6 C 5.0 43.9 4.5 44.5 4.1 45.3 C 3.2 46.8 2.3 49.2 2.7 45.9 C 1.8 47.1 2.0 49.3 2.4 47.8 C 4.1 46.9 1.7 51.2 3.7 48.9 C 3.2 51.9 5.0 50.8 3.7 51.9 C 1.5 53.0 4.3 51.6 3.6 53.2 C 3.6 56.7 1.1 54.5 2.8 56.2 C 1.7 59.8 3.7 56.8 4.0 57.9 C 5.5 58.0 2.8 61.5 2.6 59.0 C 3.5 60.2 1.9 59.4 2.9 60.8 C 4.3 59.4 1.4 63.0 2.5 62.3 C 2.9 63.7 3.7 62.8 3.7 63.2 C 3.8 65.3 2.4 64.9 3.4 65.1 C 4.0 65.5 2.1 66.7 2.6 66.9 C 2.7 64.8 4.1 68.5 3.3 68.8 C 3.2 67.5 1.5 69.7 2.6 70.4 C 5.7 69.0 1.8 72.3 2.9 73.1 C 4.6 72.0 3.1 77.7 2.3 75.7 C 2.4 75.8 3.4 75.5 3.4 75.5 M 2.8 67.5 C 3.0 65.8 3.2 69.3 2.8 67.5 M 2.4 67.6 C 3.0 66.8 2.0 69.3 2.2 67.6 C 2.2 67.5 2.4 67.7 2.4 67.6 M 2.3 60.5 C 2.8 60.7 2.0 61.5 2.3 60.5 M 3.4 59.0 C 3.8 57.7 3.5 60.5 3.4 59.0 M 5.7 42.4 C 6.3 45.2 2.7 42.9 5.7 42.4 M 2.5 53.8 C 2.9 55.6 1.5 53.3 2.5 53.8 M 3.2 54.2 C 3.6 55.0 2.6 54.5 3.2 54.2 M 3.4 45.6 C 3.5 45.5 3.5 45.5 3.4 45.6 C 3.4 45.6 3.4 45.6 3.4 45.6 Z M 7.7 41.5 C 7.7 41.4 7.7 41.4 7.7 41.5 C 7.7 41.5 7.7 41.5 7.7 41.5 Z M 3.3 50.7 C 2.7 52.3 3.1 48.4 3.3 50.7 C 3.3 50.7 3.3 50.7 3.3 50.7 Z M 8.3 45.4 C 8.3 45.5 8.3 45.5 8.3 45.4 C 8.3 45.4 8.3 45.4 8.3 45.4 Z M 4.0 68.7 C 4.0 68.8 4.0 68.8 4.0 68.7 C 4.0 68.7 4.0 68.7 4.0 68.7 Z M 3.0 74.2 C 3.4 74.1 2.8 75.2 3.0 74.2 C 3.0 74.2 3.0 74.2 3.0 74.2 Z M 6.0 78.3 C 6.0 78.4 6.0 78.4 6.0 78.3 C 6.0 78.3 6.0 78.3 6.0 78.3 Z M 5.4 70.4 C 5.4 70.4 5.4 70.4 5.4 70.4 C 5.4 70.4 5.4 70.4 5.4 70.4 Z M 3.5 69.8 C 2.0 70.8 3.8 67.7 3.5 69.8 C 3.5 69.8 3.5 69.8 3.5 69.8 Z M 6.9 51.8 C 6.3 51.8 7.1 50.4 6.9 51.8 C 6.9 51.8 6.9 51.8 6.9 51.8 Z M 4.0 58.7 C 3.6 58.5 4.1 57.9 4.0 58.7 C 4.0 58.7 4.0 58.7 4.0 58.7 Z M 2.0 61.9 C 1.7 61.7 2.2 61.1 2.0 61.9 C 2.0 61.9 2.0 61.9 2.0 61.9 Z M 2.7 74.1 C 2.6 74.0 2.6 74.0 2.7 74.1 C 2.7 74.1 2.7 74.1 2.7 74.1 Z M 3.7 72.1 C 2.4 73.5 4.4 70.0 3.7 72.1 C 3.7 72.1 3.7 72.1 3.7 72.1 Z M 4.1 74.3 C 4.6 73.6 3.9 76.1 4.1 74.3 M 6.1 72.9 C 5.6 71.3 8.5 74.1 6.1 72.9 C 6.1 72.9 6.1 72.9 6.1 72.9 Z M 6.7 64.4 C 6.7 64.3 6.7 64.3 6.7 64.4 C 6.7 64.4 6.7 64.4 6.7 64.4 Z M 2.8 65.8 C 2.8 64.4 3.1 66.7 2.8 65.8 C 2.8 65.8 2.8 65.8 2.8 65.8 Z M 2.5 78.2 C 2.5 76.8 2.8 79.1 2.5 78.2 C 2.5 78.2 2.5 78.2 2.5 78.2 Z M 5.4 59.8 C 5.2 57.4 6.1 61.1 5.4 59.8 C 5.4 59.8 5.4 59.8 5.4 59.8 Z M 3.8 51.4 C 3.9 51.3 3.9 51.3 3.8 51.4 C 3.8 51.4 3.8 51.4 3.8 51.4 Z M 3.3 49.9 C 3.3 49.9 3.3 49.9 3.3 49.9 C 3.3 49.9 3.3 49.9 3.3 49.9 Z M 6.9 43.5 C 7.0 43.5 7.0 43.5 6.9 43.5 C 6.9 43.5 6.9 43.5 6.9 43.5 Z M 2.7 48.6 C 2.7 48.6 2.7 48.6 2.7 48.6 C 2.7 48.6 2.7 48.6 2.7 48.6 Z M 4.9 43.1 C 5.1 43.0 5.1 43.0 4.9 43.1 C 4.9 43.1 4.9 43.1 4.9 43.1 Z M 3.2 43.4 C 3.3 43.3 3.3 43.3 3.2 43.4 C 3.2 43.4 3.2 43.4 3.2 43.4 Z M 7.6 53.9 C 7.7 53.8 7.7 53.8 7.6 53.9 C 7.6 53.9 7.6 53.9 7.6 53.9 Z M 2.2 71.6 C 2.3 71.5 2.3 71.5 2.2 71.6 C 2.2 71.6 2.2 71.6 2.2 71.6 Z M 5.1 43.6 C 5.2 43.6 5.2 43.6 5.1 43.6 C 5.1 43.6 5.1 43.6 5.1 43.6 Z M 4.6 55.3 C 5.7 55.0 3.1 56.5 4.5 55.0 C 4.6 55.0 4.4 55.4 4.6 55.3 M 6.4 53.3 C 6.5 53.4 6.5 53.4 6.4 53.3 C 6.4 53.3 6.4 53.3 6.4 53.3 Z M 7.1 58.4 C 7.2 58.5 7.2 58.5 7.1 58.4 C 7.1 58.4 7.1 58.4 7.1 58.4 Z M 2.4 49.5 C 1.8 49.8 2.9 48.1 2.5 49.7 M 8.3 45.0 C 7.8 44.5 9.3 45.0 8.3 45.1 M 2.9 79.8 C 3.4 80.0 2.6 80.8 2.9 79.8 M 7.7 59.5 C 8.2 59.6 7.4 60.5 7.7 59.5 M 6.3 57.3 C 5.7 57.6 6.8 55.9 6.3 57.5 M 6.8 46.6 C 6.8 46.6 6.8 46.6 6.8 46.6 C 6.8 46.6 6.8 46.6 6.8 46.6 Z M 2.9 63.6 C 2.9 63.6 2.9 63.6 2.9 63.6 C 2.9 63.6 2.9 63.6 2.9 63.6 Z M 4.3 57.2 C 3.4 58.2 4.8 56.0 4.3 57.2 M 4.4 65.2 C 3.4 66.6 4.8 63.2 4.4 65.2 M 10.2 44.9 C 8.4 43.6 11.4 45.6 10.2 44.9 M 3.7 47.2 C 2.2 49.2 4.5 45.8 3.7 47.2 M 3.5 62.3 C 2.8 62.5 3.9 60.8 3.5 62.3 M 2.8 76.6 C 2.7 77.9 2.3 74.9 2.8 76.6 M 6.6 49.4 C 6.7 49.3 6.7 49.3 6.6 49.4 C 6.6 49.4 6.6 49.4 6.6 49.4 Z M 7.8 71.8 C 7.8 71.7 7.8 71.7 7.8 71.8 C 7.8 71.8 7.8 71.8 7.8 71.8 Z M 10.8 40.6 C 10.9 40.7 10.9 40.7 10.8 40.6 C 10.8 40.6 10.8 40.6 10.8 40.6 Z M 4.2 48.1 C 4.3 48.0 4.3 48.0 4.2 48.1 C 4.2 48.1 4.2 48.1 4.2 48.1 Z M 7.3 40.9 C 7.4 40.9 7.4 40.9 7.3 40.9 C 7.3 40.9 7.3 40.9 7.3 40.9 Z M 5.3 52.2 C 5.3 52.1 5.3 52.1 5.3 52.2 C 5.3 52.2 5.3 52.2 5.3 52.2 Z M 2.0 53.7 C 2.0 53.7 2.0 53.7 2.0 53.7 C 2.0 53.7 2.0 53.7 2.0 53.7 Z M 3.4 58.1 C 3.4 58.1 3.4 58.1 3.4 58.1 C 3.4 58.1 3.4 58.1 3.4 58.1 Z M 2.2 51.5 C 2.0 48.8 3.3 52.7 2.2 51.5 C 2.2 51.5 2.2 51.5 2.2 51.5 Z M 5.5 55.7 C 5.5 55.7 5.5 55.7 5.5 55.7 C 5.5 55.7 5.5 55.7 5.5 55.7 Z M 3.2 56.6 C 2.2 55.0 4.8 55.3 3.2 56.6 M 2.4 64.5 C 1.9 64.1 3.2 64.2 2.4 64.5 M 6.7 67.1 C 6.8 67.1 6.8 67.1 6.7 67.1 C 6.7 67.1 6.7 67.1 6.7 67.1 Z M 6.4 66.3 C 6.4 66.2 6.4 66.2 6.4 66.3 C 6.4 66.3 6.4 66.3 6.4 66.3 Z M 2.2 66.5 C 2.2 66.4 2.2 66.4 2.2 66.5 C 2.2 66.5 2.2 66.5 2.2 66.5 Z M 7.6 66.0 C 7.7 65.9 7.7 65.9 7.6 66.0 C 7.6 66.0 7.6 66.0 7.6 66.0 Z M 2.0 54.8 C 2.1 54.7 2.1 54.7 2.0 54.8 C 2.0 54.8 2.0 54.8 2.0 54.8 Z M 9.0 40.0 C 9.1 40.0 9.1 40.0 9.0 40.0 C 9.0 40.0 9.0 40.0 9.0 40.0 Z M 6.3 75.9 C 6.3 75.8 6.3 75.8 6.3 75.9 C 6.3 75.9 6.3 75.9 6.3 75.9 Z M 3.3 53.0 C 3.4 53.0 3.4 53.0 3.3 53.0 C 3.3 53.0 3.3 53.0 3.3 53.0 Z M 6.5 69.2 C 6.6 69.1 6.6 69.1 6.5 69.2 C 6.5 69.2 6.5 69.2 6.5 69.2 Z M 3.1 54.0 C 3.1 54.0 3.1 54.0 3.1 54.0 C 3.1 54.0 3.1 54.0 3.1 54.0 Z M 6.9 49.8 C 6.9 49.7 6.9 49.7 6.9 49.8 C 6.9 49.8 6.9 49.8 6.9 49.8 Z M 7.7 47.2 C 7.8 47.2 7.8 47.2 7.7 47.2 C 7.7 47.2 7.7 47.2 7.7 47.2 Z M 4.6 50.5 C 4.6 50.4 4.6 50.4 4.6 50.5 C 4.6 50.5 4.6 50.5 4.6 50.5 Z M 5.1 70.4 C 4.0 76.2 4.6 65.9 5.1 70.4 M 4.9 49.5 C 4.6 53.5 3.6 46.6 4.9 49.5 C 4.5 49.1 4.8 49.4 4.9 49.5 M 12.0 40.1 C 10.7 41.3 11.1 42.5 12.2 43.7 C 13.2 44.3 12.4 41.9 13.1 44.0 C 11.3 44.4 14.8 47.1 14.0 44.4 C 16.3 44.0 14.9 46.1 16.1 45.0 C 18.6 44.8 17.5 45.6 19.5 45.4 C 20.3 44.0 21.0 46.1 21.0 44.7 C 20.5 46.2 23.1 44.3 23.4 45.0 C 21.8 45.9 30.5 45.0 25.5 44.6 C 27.2 43.9 27.3 45.1 28.0 45.3 C 28.6 44.4 31.6 46.0 32.5 45.1 C 32.2 44.9 31.5 44.9 31.2 44.6 C 30.7 44.0 32.7 44.7 32.5 44.7 C 33.2 44.3 36.0 43.4 33.2 45.0 C 33.3 45.7 35.9 44.7 36.0 45.3 C 39.1 45.4 36.2 43.9 38.0 45.0 C 40.1 45.0 41.6 45.0 41.6 44.8 C 42.9 45.0 43.6 45.8 44.4 45.0 C 47.7 46.6 44.8 42.0 47.2 45.1 C 47.6 44.3 49.3 46.3 48.3 44.4 C 47.8 45.3 53.5 45.9 50.5 44.5 C 50.8 44.1 55.5 46.5 54.0 44.6 C 54.4 43.1 53.5 41.7 50.2 40.4 C 51.0 41.5 46.9 39.2 49.8 41.1 C 52.3 41.8 46.1 41.8 47.1 41.1 C 46.3 38.9 44.7 42.5 42.6 40.9 C 44.1 41.8 39.2 42.3 39.9 40.6 C 38.9 40.4 39.1 41.2 37.6 40.3 C 40.7 40.4 37.2 42.0 37.0 41.0 C 37.2 40.4 32.5 39.8 33.3 40.8 C 35.9 43.1 31.9 40.3 31.5 41.2 C 29.2 41.7 31.1 39.2 30.0 41.0 C 29.3 40.7 26.0 40.7 27.9 40.2 C 28.8 40.4 26.9 42.7 25.8 40.7 C 28.9 39.6 21.5 40.1 22.9 40.8 C 28.8 41.8 17.5 42.0 21.5 40.9 C 18.7 39.8 22.1 40.5 19.2 40.9 C 19.8 41.6 17.6 42.2 17.8 40.9 C 16.7 39.0 17.8 43.4 15.1 40.9 C 14.5 39.7 11.7 41.7 12.6 40.4 C 12.7 40.3 12.1 40.1 12.0 40.1 M 13.2 40.3 C 12.9 40.7 12.3 39.8 13.2 40.3 M 12.8 40.7 C 12.8 40.7 12.8 40.7 12.8 40.7 C 12.8 40.7 12.8 40.7 12.8 40.7 Z M 18.8 41.0 C 18.7 41.0 18.7 41.0 18.8 41.0 C 18.8 41.0 18.8 41.0 18.8 41.0 Z M 25.1 45.8 C 25.0 45.7 25.0 45.7 25.1 45.8 C 25.1 45.8 25.1 45.8 25.1 45.8 Z M 22.7 41.1 C 22.7 41.1 22.7 41.1 22.7 41.1 C 22.7 41.1 22.7 41.1 22.7 41.1 Z M 16.8 41.3 C 16.7 41.3 16.7 41.3 16.8 41.3 C 16.8 41.3 16.8 41.3 16.8 41.3 Z M 22.1 40.4 C 22.7 41.1 20.6 39.9 22.1 40.3 C 22.2 40.4 21.9 40.4 22.1 40.4 M 27.1 40.1 C 27.1 40.2 27.1 40.2 27.1 40.1 M 40.7 45.7 C 40.8 45.8 40.8 45.8 40.7 45.7 M 39.1 40.1 C 39.3 40.2 39.3 40.2 39.1 40.1 M 32.4 40.9 C 33.9 40.8 32.9 41.2 32.4 40.9 M 43.4 40.5 C 41.2 40.0 45.3 40.1 43.4 40.5 M 45.1 40.1 C 45.3 40.1 45.3 40.1 45.1 40.1 M 36.4 40.3 C 36.4 40.4 36.4 40.4 36.4 40.3 C 36.4 40.3 36.4 40.3 36.4 40.3 Z M 31.6 40.6 C 29.4 40.2 33.4 39.9 31.6 40.6 M 19.2 40.3 C 20.2 40.0 19.5 41.2 19.2 40.3 M 17.1 40.7 C 17.1 40.8 17.1 40.8 17.1 40.7 C 17.1 40.7 17.1 40.7 17.1 40.7 Z M 40.2 40.4 C 40.2 40.5 40.2 40.5 40.2 40.4 C 40.2 40.4 40.2 40.4 40.2 40.4 Z M 42.4 40.3 C 42.3 40.3 42.3 40.3 42.4 40.3 C 42.4 40.3 42.4 40.3 42.4 40.3 Z M 48.7 45.5 C 48.6 45.5 48.6 45.5 48.7 45.5 C 48.7 45.5 48.7 45.5 48.7 45.5 Z M 19.5 42.9 C 17.9 42.5 20.5 41.2 20.6 42.5 C 21.0 43.0 19.6 42.8 19.5 42.9 M 30.8 42.1 C 31.9 43.9 28.3 39.7 30.8 42.1 M 45.9 41.2 C 48.5 43.3 43.3 39.7 45.9 41.2 M 48.8 40.9 C 49.9 41.3 43.2 41.1 47.6 40.6 C 47.8 40.2 48.4 40.6 48.8 40.9 M 27.5 41.0 C 28.3 42.0 24.9 40.6 27.5 41.0 M 38.1 43.9 C 38.6 43.3 40.3 42.8 39.9 43.8 C 40.5 45.2 37.4 44.5 38.1 43.9 M 13.9 41.3 C 14.7 39.7 14.3 42.6 13.9 41.3 M 19.9 41.4 C 19.9 41.4 19.9 41.4 19.9 41.4 C 19.9 41.4 19.9 41.4 19.9 41.4 Z M 22.1 41.2 C 22.3 41.3 22.3 41.3 22.1 41.2 M 14.4 39.9 C 14.6 40.1 14.6 40.1 14.4 39.9 M 37.3 42.3 C 37.5 42.4 37.5 42.4 37.3 42.3 M 32.1 41.3 C 35.0 42.8 31.0 41.6 32.1 41.3 M 27.7 44.3 C 28.6 45.0 26.2 44.3 27.7 44.3 M 35.6 40.7 C 37.9 42.1 34.0 42.1 35.6 40.7 M 30.9 41.1 C 31.0 41.1 31.0 41.1 30.9 41.1 C 30.9 41.1 30.9 41.1 30.9 41.1 Z M 38.8 44.1 C 38.7 44.1 38.7 44.1 38.8 44.1 C 38.8 44.1 38.8 44.1 38.8 44.1 Z M 39.4 44.0 C 39.4 44.1 39.4 44.1 39.4 44.0 C 39.4 44.0 39.4 44.0 39.4 44.0 Z M 37.5 40.5 C 37.5 40.6 37.5 40.6 37.5 40.5 C 37.5 40.5 37.5 40.5 37.5 40.5 Z M 18.2 44.8 C 19.9 44.9 17.0 45.0 18.2 44.8 C 18.2 44.8 18.2 44.8 18.2 44.8 Z M 24.0 40.4 C 27.1 41.6 22.5 41.5 24.0 40.4 C 24.0 40.4 24.0 40.4 24.0 40.4 Z M 27.7 42.4 C 27.7 42.4 27.7 42.4 27.7 42.4 C 27.7 42.4 27.7 42.4 27.7 42.4 Z M 34.2 39.8 C 34.2 39.9 34.2 39.9 34.2 39.8 C 34.2 39.8 34.2 39.8 34.2 39.8 Z M 19.1 45.0 C 19.1 45.1 19.1 45.1 19.1 45.0 C 19.1 45.0 19.1 45.0 19.1 45.0 Z M 42.5 41.3 C 42.5 41.4 42.5 41.4 42.5 41.3 C 42.5 41.3 42.5 41.3 42.5 41.3 Z M 34.4 44.3 C 34.8 43.8 34.7 44.8 34.4 44.3 C 34.4 44.3 34.4 44.3 34.4 44.3 Z M 36.9 44.4 C 36.9 44.3 36.9 44.3 36.9 44.4 C 36.9 44.4 36.9 44.4 36.9 44.4 Z M 45.6 40.0 C 45.7 39.9 45.7 39.9 45.6 40.0 C 45.6 40.0 45.6 40.0 45.6 40.0 Z M 43.8 45.7 C 43.9 45.7 43.9 45.7 43.8 45.7 C 43.8 45.7 43.8 45.7 43.8 45.7 Z M 45.1 44.0 C 45.0 44.0 45.0 44.0 45.1 44.0 C 45.1 44.0 45.1 44.0 45.1 44.0 Z M 37.2 40.9 C 39.5 40.6 37.0 41.5 37.2 40.9 C 37.2 40.9 37.2 40.9 37.2 40.9 Z M 50.9 43.5 C 51.0 43.6 51.0 43.6 50.9 43.5 C 50.9 43.5 50.9 43.5 50.9 43.5 Z M 51.1 41.5 C 51.2 41.6 51.2 41.6 51.1 41.5 C 51.1 41.5 51.1 41.5 51.1 41.5 Z M 51.1 40.4 C 51.3 40.5 51.3 40.5 51.1 40.4 C 51.1 40.4 51.1 40.4 51.1 40.4 Z M 22.9 43.4 C 22.8 43.3 22.8 43.3 22.9 43.4 C 22.9 43.4 22.9 43.4 22.9 43.4 Z M 20.8 40.1 C 20.7 40.1 20.7 40.1 20.8 40.1 C 20.8 40.1 20.8 40.1 20.8 40.1 Z M 24.0 39.9 C 23.9 39.9 23.9 39.9 24.0 39.9 C 24.0 39.9 24.0 39.9 24.0 39.9 Z M 23.0 45.3 C 22.9 45.3 22.9 45.3 23.0 45.3 C 23.0 45.3 23.0 45.3 23.0 45.3 Z M 34.4 42.6 C 34.3 42.5 34.3 42.5 34.4 42.6 C 34.4 42.6 34.4 42.6 34.4 42.6 Z M 36.1 43.9 C 36.0 43.8 36.0 43.8 36.1 43.9 C 36.1 43.9 36.1 43.9 36.1 43.9 Z M 33.9 45.7 C 33.9 45.6 33.9 45.6 33.9 45.7 C 33.9 45.7 33.9 45.7 33.9 45.7 Z M 37.5 45.0 C 37.4 45.0 37.4 45.0 37.5 45.0 C 37.5 45.0 37.5 45.0 37.5 45.0 Z M 14.4 44.7 C 14.4 44.8 14.4 44.8 14.4 44.7 C 14.4 44.7 14.4 44.7 14.4 44.7 Z M 13.4 42.2 C 13.3 42.3 13.3 42.3 13.4 42.2 C 13.4 42.2 13.4 42.2 13.4 42.2 Z M 34.0 40.7 C 34.3 40.2 35.4 41.4 34.0 40.7 M 29.4 41.1 C 29.4 41.1 29.4 41.1 29.4 41.1 C 29.4 41.1 29.4 41.1 29.4 41.1 Z M 41.8 40.8 C 42.9 41.8 39.4 40.3 41.8 40.8 C 41.8 40.8 41.8 40.8 41.8 40.8 Z M 41.3 45.0 C 41.3 45.0 41.3 45.0 41.3 45.0 C 41.3 45.0 41.3 45.0 41.3 45.0 Z M 42.3 44.6 C 42.5 44.7 42.5 44.7 42.3 44.6 C 42.3 44.6 42.3 44.6 42.3 44.6 Z M 47.9 41.9 C 48.0 42.0 48.0 42.0 47.9 41.9 M 28.5 40.2 C 29.4 40.6 29.2 40.5 28.5 40.2 M 43.4 40.9 C 43.4 40.9 43.4 40.9 43.4 40.9 C 43.4 40.9 43.4 40.9 43.4 40.9 Z M 49.1 41.3 C 49.0 41.4 49.0 41.4 49.1 41.3 C 49.1 41.3 49.1 41.3 49.1 41.3 Z M 25.4 40.8 C 26.0 42.1 25.3 41.8 25.4 40.8 M 16.3 41.2 C 16.3 41.3 16.3 41.3 16.3 41.2 C 16.3 41.2 16.3 41.2 16.3 41.2 Z M 56.0 40.5 C 52.8 39.1 53.8 41.0 53.8 41.1 C 52.7 38.5 52.1 42.1 52.8 42.6 C 52.9 42.9 57.3 47.4 57.7 44.7 C 58.0 44.3 58.7 45.1 59.1 45.2 C 62.2 45.1 56.1 43.8 60.0 43.8 C 60.9 44.2 61.3 46.3 62.7 44.8 C 62.9 45.0 66.0 45.8 64.4 44.8 C 66.2 45.8 66.3 44.6 67.3 44.4 C 68.7 45.0 67.4 45.9 70.4 44.8 C 73.1 46.5 71.8 43.5 74.4 45.4 C 75.4 45.4 74.8 42.3 73.8 44.1 C 73.9 43.9 71.7 42.4 74.9 42.9 C 74.7 43.3 75.2 46.5 78.8 45.0 C 79.6 45.1 80.8 44.2 81.5 44.6 C 79.3 45.0 85.7 46.0 84.5 45.0 C 88.6 45.7 85.5 44.2 88.9 45.3 C 91.1 45.4 87.1 43.9 90.5 44.7 C 92.4 44.6 91.6 45.4 91.3 45.3 C 91.8 45.3 92.1 45.3 92.4 45.3 C 92.6 44.4 92.5 43.7 92.6 43.3 C 92.8 43.2 93.5 43.4 93.0 42.1 C 92.6 38.6 91.2 38.2 90.5 35.5 C 89.6 36.1 91.0 37.6 90.0 37.2 C 90.3 38.9 90.0 37.5 89.0 40.7 C 88.8 40.7 88.5 40.7 88.2 40.7 C 88.5 40.9 89.9 41.6 89.0 41.6 C 87.5 41.5 86.7 39.0 85.7 40.8 C 88.8 41.3 82.3 41.6 85.3 42.1 C 82.2 42.4 84.2 41.9 81.4 41.3 C 82.7 43.0 80.1 39.5 80.1 40.9 C 79.4 40.2 76.0 40.5 79.3 41.5 C 75.7 41.9 77.5 41.0 75.6 40.1 C 73.8 40.0 77.2 42.8 74.8 40.8 C 71.9 39.9 75.4 41.8 72.7 40.2 C 74.3 41.6 71.0 40.2 72.6 41.7 C 68.8 41.9 72.0 40.1 70.0 41.2 C 70.9 41.2 69.2 39.1 68.4 40.5 C 70.6 42.9 64.9 38.3 68.1 41.6 C 63.2 42.5 66.3 40.2 63.4 40.2 C 62.6 40.2 64.8 41.3 64.2 41.3 C 60.0 40.8 62.7 40.0 61.6 41.6 C 58.0 42.0 59.8 40.2 57.8 40.1 C 58.1 40.9 57.3 42.2 56.0 40.5 M 59.8 41.2 C 60.3 40.7 60.6 41.8 59.8 41.2 M 51.8 40.5 C 52.3 40.0 52.5 41.0 51.8 40.5 M 62.7 40.8 C 63.5 40.2 63.5 41.6 62.7 40.8 M 83.8 41.6 C 82.3 41.6 84.1 41.1 83.8 41.6 M 54.8 40.4 C 55.5 39.8 55.5 41.3 54.8 40.4 M 54.1 41.6 C 54.1 41.7 54.1 41.7 54.1 41.6 M 84.8 40.2 C 84.9 40.3 84.9 40.3 84.8 40.2 M 79.4 40.2 C 80.5 40.2 78.9 40.6 79.4 40.2 M 82.8 45.6 C 84.0 45.6 82.3 45.9 82.8 45.6 M 87.8 40.2 C 88.7 39.8 88.6 40.8 87.8 40.2 M 90.2 39.0 C 90.3 37.3 90.8 38.9 90.2 39.0 M 60.2 43.1 C 60.2 43.2 60.2 43.2 60.2 43.1 C 60.2 43.1 60.2 43.1 60.2 43.1 Z M 71.2 44.4 C 69.7 43.9 73.1 45.1 71.2 44.4 M 67.2 40.9 C 68.7 42.0 65.6 40.9 67.2 40.9 C 67.2 40.9 67.2 40.9 67.2 40.9 Z M 65.7 41.4 C 65.7 41.5 65.7 41.5 65.7 41.4 C 65.7 41.4 65.7 41.4 65.7 41.4 Z M 71.5 41.5 C 71.4 41.5 71.4 41.5 71.5 41.5 C 71.5 41.5 71.5 41.5 71.5 41.5 Z M 70.4 41.6 C 70.0 41.8 69.6 41.4 70.4 41.6 C 70.4 41.6 70.4 41.6 70.4 41.6 Z M 81.0 45.0 C 80.6 45.3 80.2 44.8 81.0 45.0 C 81.0 45.0 81.0 45.0 81.0 45.0 Z M 68.8 42.0 C 69.3 43.1 67.5 41.2 68.8 42.0 C 68.8 42.0 68.8 42.0 68.8 42.0 Z M 76.6 44.6 C 76.9 44.3 78.4 45.6 76.6 44.6 M 86.1 40.4 C 86.4 40.1 88.0 41.5 86.1 40.4 M 73.9 40.1 C 74.3 39.8 75.7 41.2 73.9 40.1 M 60.2 40.8 C 60.4 40.9 60.4 40.9 60.2 40.8 M 69.8 45.5 C 70.3 45.1 70.5 46.0 69.8 45.5 M 57.9 45.1 C 58.5 44.7 58.6 45.6 57.9 45.1 M 88.0 45.5 C 87.8 45.2 89.4 45.6 88.0 45.5 M 76.5 41.9 C 77.6 42.0 79.1 42.6 76.8 42.5 C 76.6 42.3 77.1 42.1 76.5 41.9 C 76.5 41.9 76.5 41.9 76.5 41.9 Z M 82.0 44.4 C 82.2 44.5 82.2 44.5 82.0 44.4 M 77.7 40.9 C 77.9 41.0 77.9 41.0 77.7 40.9 M 83.9 41.0 C 84.2 41.1 84.2 41.1 83.9 41.0 M 84.5 40.7 C 84.5 40.7 84.5 40.7 84.5 40.7 C 84.5 40.7 84.5 40.7 84.5 40.7 Z M 89.5 37.6 C 89.5 37.7 89.5 37.7 89.5 37.6 C 89.5 37.6 89.5 37.6 89.5 37.6 Z M 82.1 41.1 C 82.1 41.2 82.1 41.2 82.1 41.1 C 82.1 41.1 82.1 41.1 82.1 41.1 Z M 90.7 45.3 C 90.7 45.3 90.7 45.3 90.7 45.3 C 90.7 45.3 90.7 45.3 90.7 45.3 Z M 89.5 44.6 C 89.5 44.7 89.5 44.7 89.5 44.6 C 89.5 44.6 89.5 44.6 89.5 44.6 Z M 56.6 40.5 C 57.1 39.7 58.1 42.4 56.6 40.5 M 92.1 44.1 C 92.8 44.2 91.7 45.7 92.1 44.1 C 92.1 44.1 92.1 44.1 92.1 44.1 Z M 82.0 42.0 C 82.1 42.2 82.1 42.2 82.0 42.0 M 84.9 40.8 C 85.1 40.9 85.1 40.9 84.9 40.8 M 66.5 39.9 C 66.7 40.1 66.7 40.1 66.5 39.9 M 89.4 40.3 C 90.6 37.5 90.1 43.2 89.4 40.3 M 65.9 41.0 C 65.7 40.9 65.7 40.9 65.9 41.0 M 73.6 43.0 C 75.5 42.9 73.3 43.6 73.6 43.0 M 77.7 41.6 C 77.6 41.7 77.6 41.7 77.7 41.6 C 77.7 41.6 77.7 41.6 77.7 41.6 Z M 74.8 41.6 C 73.5 41.8 74.2 41.3 74.8 41.6 C 74.8 41.6 74.8 41.6 74.8 41.6 Z M 58.5 41.5 C 60.4 41.6 56.8 41.8 58.5 41.5 C 58.5 41.5 58.5 41.5 58.5 41.5 Z M 90.4 43.5 C 90.4 43.6 90.4 43.6 90.4 43.5 C 90.4 43.5 90.4 43.5 90.4 43.5 Z M 81.2 40.3 C 80.5 40.6 80.6 40.0 81.2 40.3 C 81.2 40.3 81.2 40.3 81.2 40.3 Z M 89.8 36.5 C 89.7 37.8 89.5 36.5 89.8 36.5 C 89.8 36.5 89.8 36.5 89.8 36.5 Z M 56.2 41.3 C 63.9 43.1 47.0 40.8 56.2 41.3 C 56.2 41.3 56.2 41.3 56.2 41.3 Z M 75.5 40.9 C 75.5 41.0 75.5 41.0 75.5 40.9 C 75.5 40.9 75.5 40.9 75.5 40.9 Z M 62.7 40.1 C 62.7 40.2 62.7 40.2 62.7 40.1 C 62.7 40.1 62.7 40.1 62.7 40.1 Z M 61.2 41.1 C 61.2 41.2 61.2 41.2 61.2 41.1 C 61.2 41.1 61.2 41.1 61.2 41.1 Z M 64.3 45.4 C 64.3 45.5 64.3 45.5 64.3 45.4 C 64.3 45.4 64.3 45.4 64.3 45.4 Z M 63.9 43.4 C 63.8 43.6 63.8 43.6 63.9 43.4 C 63.9 43.4 63.9 43.4 63.9 43.4 Z M 59.9 44.2 C 59.9 44.3 59.9 44.3 59.9 44.2 C 59.9 44.2 59.9 44.2 59.9 44.2 Z M 60.3 44.7 C 60.3 44.8 60.3 44.8 60.3 44.7 C 60.3 44.7 60.3 44.7 60.3 44.7 Z M 85.8 42.0 C 85.8 42.1 85.8 42.1 85.8 42.0 C 85.8 42.0 85.8 42.0 85.8 42.0 Z M 84.7 43.7 C 85.9 43.1 84.9 44.7 84.7 43.7 C 84.7 43.7 84.7 43.7 84.7 43.7 Z M 70.2 42.9 C 71.5 42.6 69.6 43.4 70.2 42.9 C 70.2 42.9 70.2 42.9 70.2 42.9 Z M 73.2 45.2 C 73.3 45.2 73.3 45.2 73.2 45.2 C 73.2 45.2 73.2 45.2 73.2 45.2 Z M 60.6 40.1 C 60.6 40.2 60.6 40.2 60.6 40.1 C 60.6 40.1 60.6 40.1 60.6 40.1 Z M 58.4 40.8 C 58.8 41.7 57.4 40.4 58.4 40.8 M 71.3 40.3 C 71.4 40.4 71.4 40.4 71.3 40.3 C 71.3 40.3 71.3 40.3 71.3 40.3 Z M 80.6 41.7 C 80.6 41.8 80.6 41.8 80.6 41.7 C 80.6 41.7 80.6 41.7 80.6 41.7 Z M 88.5 41.1 C 88.5 41.3 88.5 41.3 88.5 41.1 C 88.5 41.1 88.5 41.1 88.5 41.1 Z M 76.5 40.4 C 76.6 40.5 76.6 40.5 76.5 40.4 C 76.5 40.4 76.5 40.4 76.5 40.4 Z M 73.1 41.3 C 73.2 41.4 73.2 41.4 73.1 41.3 C 73.1 41.3 73.1 41.3 73.1 41.3 Z M 90.6 41.5 C 90.6 41.6 90.6 41.6 90.6 41.5 C 90.6 41.5 90.6 41.5 90.6 41.5 Z M 77.4 40.3 C 77.4 40.3 77.4 40.3 77.4 40.3 C 77.4 40.3 77.4 40.3 77.4 40.3 Z M 81.7 43.2 C 81.7 43.2 81.7 43.2 81.7 43.2 C 81.7 43.2 81.7 43.2 81.7 43.2 Z M 58.1 39.6 C 58.1 39.6 58.1 39.6 58.1 39.6 C 58.1 39.6 58.1 39.6 58.1 39.6 Z M 89.7 40.1 C 89.8 40.2 89.8 40.2 89.7 40.1 C 89.7 40.1 89.7 40.1 89.7 40.1 Z M 89.4 38.7 C 89.4 38.8 89.4 38.8 89.4 38.7 C 89.4 38.7 89.4 38.7 89.4 38.7 Z M 87.5 44.7 C 84.2 44.2 90.0 44.5 87.2 43.5 C 91.3 43.3 88.2 44.7 87.5 44.7 C 87.5 44.7 87.5 44.7 87.5 44.7 Z M 90.6 33.8 C 90.7 37.2 91.5 38.7 92.5 39.6 C 93.1 39.8 91.6 36.4 92.9 39.2 C 92.6 41.4 95.0 42.9 93.4 39.2 C 93.8 36.5 94.5 41.3 94.2 38.6 C 94.8 36.0 94.8 38.5 95.2 36.6 C 94.9 33.0 95.9 37.0 95.4 34.0 C 95.8 37.6 95.8 31.4 96.1 32.7 C 96.0 36.0 97.9 27.1 96.5 30.0 C 96.8 26.7 97.1 29.9 97.3 29.8 C 97.3 27.0 98.2 29.1 98.4 25.9 C 98.3 25.5 98.1 25.9 98.0 25.3 C 97.8 24.1 98.4 24.5 98.3 24.5 C 98.5 23.0 99.2 17.5 98.5 24.9 C 98.6 27.0 99.2 21.8 99.2 23.7 C 100.0 21.5 99.3 18.9 99.7 21.1 C 100.2 19.7 100.5 18.7 100.6 18.0 C 100.6 18.0 100.6 18.0 100.6 17.8 C 101.0 19.4 101.0 22.3 101.3 20.6 C 101.8 27.4 102.1 13.1 102.0 23.1 C 102.3 21.5 102.2 27.8 102.5 22.4 C 102.1 24.1 103.3 29.8 103.0 24.4 C 103.3 23.7 103.5 32.4 103.9 27.3 C 104.7 25.0 105.0 21.5 104.5 15.4 C 104.3 18.5 103.7 9.1 104.0 16.4 C 104.6 20.3 102.6 14.0 103.1 13.4 C 103.6 7.5 101.9 14.4 101.6 8.1 C 101.9 12.0 100.3 8.3 100.8 4.2 C 100.7 3.9 100.7 3.8 100.6 3.7 C 100.4 4.7 100.3 6.3 100.0 4.7 C 101.0 1.9 99.7 11.5 99.7 8.1 C 99.8 5.5 98.1 9.2 98.4 11.4 C 99.2 16.6 97.9 11.4 97.8 14.8 C 97.1 18.7 97.6 8.8 97.2 15.6 C 97.0 15.4 95.8 19.1 96.4 15.6 C 96.8 15.2 96.5 23.9 95.8 19.5 C 96.8 12.7 94.1 22.8 94.7 22.8 C 96.9 19.4 93.3 31.3 94.3 24.7 C 92.9 25.4 94.4 23.1 93.5 27.4 C 93.9 28.1 93.4 31.6 93.0 28.8 C 91.9 26.1 94.0 34.1 92.0 31.7 C 91.3 30.2 91.3 36.8 91.0 33.7 C 90.9 33.4 90.6 33.7 90.6 33.8 M 91.1 32.8 C 91.2 33.9 90.5 32.8 91.1 32.8 M 91.2 33.9 C 91.1 33.9 91.1 33.9 91.2 33.9 C 91.2 33.9 91.2 33.9 91.2 33.9 Z M 93.4 28.0 C 93.3 27.9 93.3 27.9 93.4 28.0 C 93.4 28.0 93.4 28.0 93.4 28.0 Z M 96.7 33.2 C 96.7 33.1 96.7 33.1 96.7 33.2 C 96.7 33.2 96.7 33.2 96.7 33.2 Z M 94.8 23.9 C 94.7 24.0 94.7 24.0 94.8 23.9 C 94.8 23.9 94.8 23.9 94.8 23.9 Z M 92.8 30.7 C 92.8 30.8 92.8 30.8 92.8 30.7 C 92.8 30.7 92.8 30.7 92.8 30.7 Z M 94.4 22.9 C 94.7 24.0 93.7 23.4 94.3 22.6 C 94.4 22.6 94.3 22.9 94.4 22.9 M 96.1 16.4 C 96.1 16.6 96.1 16.6 96.1 16.4 M 100.3 21.5 C 100.4 21.8 100.4 21.8 100.3 21.5 M 100.5 2.3 C 100.6 2.4 100.6 2.4 100.5 2.3 M 98.1 12.6 C 98.6 10.6 98.3 13.2 98.1 12.6 M 102.0 7.8 C 101.3 4.2 102.8 9.1 102.0 7.8 M 102.7 8.8 C 102.8 9.2 102.8 9.2 102.7 8.8 M 99.5 6.3 C 99.5 6.5 99.5 6.5 99.5 6.3 C 99.5 6.3 99.5 6.3 99.5 6.3 Z M 97.8 12.5 C 97.0 13.8 98.4 8.3 97.8 12.5 M 93.3 25.9 C 93.6 24.0 93.7 27.7 93.3 25.9 M 92.7 29.2 C 92.7 29.3 92.7 29.3 92.7 29.2 C 92.7 29.2 92.7 29.2 92.7 29.2 Z M 100.9 4.2 C 100.9 4.1 100.9 4.1 100.9 4.2 C 100.9 4.2 100.9 4.2 100.9 4.2 Z M 101.7 6.3 C 101.7 6.3 101.7 6.3 101.7 6.3 C 101.7 6.3 101.7 6.3 101.7 6.3 Z M 102.3 25.4 C 102.3 25.3 102.3 25.3 102.3 25.4 C 102.3 25.4 102.3 25.4 102.3 25.4 Z M 94.3 31.4 C 93.6 32.2 94.0 26.5 94.5 29.3 C 94.7 30.2 94.3 30.9 94.3 31.4 M 97.6 18.4 C 98.1 22.8 96.5 13.8 97.6 18.4 M 102.7 12.5 C 102.8 19.9 102.2 5.9 102.7 12.5 M 103.8 14.8 C 104.0 16.9 101.8 9.2 103.5 12.7 C 103.7 12.3 103.7 13.8 103.8 14.8 M 96.4 18.5 C 96.8 20.4 95.4 20.1 96.4 18.5 M 99.8 17.4 C 100.0 14.8 100.5 11.1 100.3 15.5 C 100.3 19.9 99.6 19.8 99.8 17.4 M 91.8 33.8 C 91.4 30.0 92.6 35.8 91.8 33.8 M 93.9 27.7 C 93.9 27.6 93.9 27.6 93.9 27.7 C 93.9 27.7 93.9 27.7 93.9 27.7 Z M 94.6 24.7 C 94.7 24.9 94.7 24.9 94.6 24.7 M 91.4 30.6 C 91.5 30.7 91.5 30.7 91.4 30.6 M 99.7 12.4 C 99.7 12.6 99.7 12.6 99.7 12.4 M 98.0 14.2 C 99.0 16.4 97.6 16.4 98.0 14.2 M 97.0 27.4 C 97.4 28.5 96.6 28.7 97.0 27.4 M 99.2 8.5 C 99.9 11.3 98.6 14.9 99.2 8.5 M 97.6 15.0 C 97.6 14.9 97.6 14.9 97.6 15.0 C 97.6 15.0 97.6 15.0 97.6 15.0 Z M 100.0 17.4 C 100.0 17.5 100.0 17.5 100.0 17.4 C 100.0 17.4 100.0 17.4 100.0 17.4 Z M 100.2 16.5 C 100.1 16.7 100.1 16.7 100.2 16.5 C 100.2 16.5 100.2 16.5 100.2 16.5 Z M 99.9 5.7 C 99.9 5.9 99.9 5.9 99.9 5.7 C 99.9 5.7 99.9 5.7 99.9 5.7 Z M 94.7 36.4 C 95.1 35.3 94.5 37.8 94.7 36.4 C 94.7 36.4 94.7 36.4 94.7 36.4 Z M 95.0 20.8 C 96.3 20.6 94.8 25.2 95.0 20.8 C 95.0 20.8 95.0 20.8 95.0 20.8 Z M 96.7 22.1 C 96.7 22.3 96.7 22.3 96.7 22.1 C 96.7 22.1 96.7 22.1 96.7 22.1 Z M 98.7 6.9 C 98.8 7.1 98.8 7.1 98.7 6.9 C 98.7 6.9 98.7 6.9 98.7 6.9 Z M 95.0 36.1 C 95.0 36.2 95.0 36.2 95.0 36.1 C 95.0 36.1 95.0 36.1 95.0 36.1 Z M 101.5 8.9 C 101.5 9.2 101.5 9.2 101.5 8.9 C 101.5 8.9 101.5 8.9 101.5 8.9 Z M 98.8 21.8 C 98.9 19.7 98.9 23.1 98.8 21.8 C 98.8 21.8 98.8 21.8 98.8 21.8 Z M 99.5 19.8 C 99.5 19.7 99.5 19.7 99.5 19.8 C 99.5 19.8 99.5 19.8 99.5 19.8 Z M 103.0 9.1 C 103.0 9.2 103.0 9.2 103.0 9.1 C 103.0 9.1 103.0 9.1 103.0 9.1 Z M 101.1 22.3 C 101.1 22.3 101.1 22.3 101.1 22.3 C 101.1 22.3 101.1 22.3 101.1 22.3 Z M 101.7 18.5 C 101.7 18.6 101.7 18.6 101.7 18.5 C 101.7 18.5 101.7 18.5 101.7 18.5 Z M 99.8 7.3 C 100.6 3.7 99.6 10.0 99.8 7.3 C 99.8 7.3 99.8 7.3 99.8 7.3 Z M 103.5 22.5 C 103.5 22.8 103.5 22.8 103.5 22.5 C 103.5 22.5 103.5 22.5 103.5 22.5 Z M 104.3 18.5 C 104.3 18.9 104.3 18.9 104.3 18.5 C 104.3 18.5 104.3 18.5 104.3 18.5 Z M 104.8 16.5 C 104.8 16.8 104.8 16.8 104.8 16.5 C 104.8 16.5 104.8 16.5 104.8 16.5 Z M 95.4 29.3 C 95.4 29.2 95.4 29.2 95.4 29.3 C 95.4 29.3 95.4 29.3 95.4 29.3 Z M 93.8 23.6 C 93.8 23.6 93.8 23.6 93.8 23.6 C 93.8 23.6 93.8 23.6 93.8 23.6 Z M 94.9 19.5 C 94.9 19.4 94.9 19.4 94.9 19.5 C 94.9 19.5 94.9 19.5 94.9 19.5 Z M 96.1 33.8 C 96.0 33.8 96.0 33.8 96.1 33.8 C 96.1 33.8 96.1 33.8 96.1 33.8 Z M 98.7 16.2 C 98.7 16.0 98.7 16.0 98.7 16.2 C 98.7 16.2 98.7 16.2 98.7 16.2 Z M 99.2 19.0 C 99.2 18.8 99.2 18.8 99.2 19.0 C 99.2 19.0 99.2 19.0 99.2 19.0 Z M 98.7 26.4 C 98.7 26.3 98.7 26.3 98.7 26.4 C 98.7 26.4 98.7 26.4 98.7 26.4 Z M 99.6 21.7 C 99.6 21.6 99.6 21.6 99.6 21.7 C 99.6 21.7 99.6 21.7 99.6 21.7 Z M 93.7 39.4 C 93.7 39.5 93.7 39.5 93.7 39.4 C 93.7 39.4 93.7 39.4 93.7 39.4 Z M 92.1 36.0 C 92.1 36.2 92.1 36.2 92.1 36.0 C 92.1 36.0 92.1 36.0 92.1 36.0 Z M 98.6 10.5 C 98.8 8.3 99.1 11.4 98.6 10.5 M 97.1 16.5 C 97.1 16.6 97.1 16.6 97.1 16.5 C 97.1 16.5 97.1 16.5 97.1 16.5 Z M 101.4 7.0 C 101.5 10.7 100.6 2.9 101.4 7.0 C 101.4 7.0 101.4 7.0 101.4 7.0 Z M 100.5 18.6 C 100.6 18.7 100.6 18.7 100.5 18.6 C 100.5 18.6 100.5 18.6 100.5 18.6 Z M 100.9 17.9 C 100.9 18.2 100.9 18.2 100.9 17.9 C 100.9 17.9 100.9 17.9 100.9 17.9 Z M 103.1 16.0 C 103.2 16.4 103.2 16.4 103.1 16.0 M 96.6 14.9 C 97.0 15.2 96.9 15.1 96.6 14.9 M 101.9 8.8 C 101.9 8.9 101.9 8.9 101.9 8.8 C 101.9 8.8 101.9 8.8 101.9 8.8 Z M 103.7 16.1 C 103.7 16.1 103.7 16.1 103.7 16.1 C 103.7 16.1 103.7 16.1 103.7 16.1 Z M 95.6 20.2 C 96.1 22.9 95.8 22.9 95.6 20.2 M 92.6 31.1 C 92.6 31.2 92.6 31.2 92.6 31.1 C 92.6 31.1 92.6 31.1 92.6 31.1 Z M 106.6 22.1 C 106.1 16.1 105.5 20.5 105.5 20.6 C 106.4 15.1 104.4 20.7 104.4 22.4 C 104.3 23.2 103.5 35.3 104.8 30.6 C 105.1 30.2 104.9 32.2 104.9 32.6 C 105.8 34.9 104.9 27.7 105.9 31.1 C 106.0 32.4 104.9 36.0 106.1 34.9 C 106.0 35.3 106.2 38.7 106.5 36.3 C 106.3 38.9 107.1 37.6 107.5 38.2 C 107.5 39.9 106.5 39.9 108.1 41.1 C 107.3 44.5 109.5 41.3 108.5 44.7 C 108.6 44.9 108.9 44.9 109.3 44.7 C 109.9 44.4 110.5 43.9 110.1 43.6 C 110.0 43.5 109.8 43.4 109.5 43.4 C 109.7 43.5 110.2 41.5 110.7 42.8 C 111.0 42.8 111.3 42.8 111.7 42.9 C 111.0 43.3 107.0 46.5 112.8 45.0 C 113.5 45.1 115.0 44.7 115.0 45.0 C 113.3 44.5 114.8 46.8 115.6 46.3 C 116.0 48.2 116.9 47.1 115.8 49.0 C 115.8 51.2 117.3 49.3 116.4 51.4 C 116.6 53.5 115.8 51.6 115.8 51.5 C 115.7 53.1 116.2 54.2 116.2 54.7 C 116.0 55.0 115.4 55.4 116.2 56.4 C 117.6 59.1 119.1 58.4 120.6 60.1 C 121.3 59.2 119.5 58.8 120.6 58.6 C 119.6 57.3 120.6 58.5 120.4 54.8 C 120.2 54.7 119.6 55.2 119.5 54.2 C 119.6 52.9 122.1 55.5 120.3 52.0 C 119.8 54.4 119.5 47.6 119.0 49.8 C 118.7 46.4 119.5 49.5 119.7 46.8 C 117.9 45.7 122.0 47.7 119.9 45.7 C 120.7 45.9 117.8 41.6 118.4 44.1 C 116.7 42.2 116.2 42.3 116.5 42.1 C 116.8 42.0 117.8 42.1 117.6 41.4 C 115.5 39.9 114.0 42.9 115.0 41.0 C 113.1 39.5 113.7 41.8 113.2 40.2 C 113.0 41.0 112.5 40.9 112.0 40.9 C 111.9 40.5 111.7 40.3 111.3 41.3 C 109.9 37.4 112.7 40.1 110.9 38.3 C 111.2 39.2 112.5 36.5 111.0 36.1 C 109.6 40.0 111.5 30.6 110.0 36.5 C 107.7 32.4 110.5 33.6 109.4 30.2 C 109.1 29.3 109.1 32.8 108.9 32.1 C 107.7 27.1 109.3 29.3 107.8 29.7 C 106.4 26.6 108.1 26.0 107.4 23.7 C 107.1 25.0 106.0 26.1 106.6 22.1 M 107.4 27.4 C 107.9 27.3 107.4 28.9 107.4 27.4 M 105.0 17.3 C 105.5 17.0 105.1 19.1 105.0 17.3 M 108.7 30.0 C 109.4 30.3 108.4 31.8 108.7 30.0 M 119.6 49.1 C 119.6 47.6 120.0 50.0 119.6 49.1 M 106.2 20.5 C 106.8 20.5 106.0 22.8 106.2 20.5 M 105.3 21.9 C 105.3 22.0 105.3 22.0 105.3 21.9 M 120.9 52.0 C 120.9 52.0 120.9 52.0 120.9 52.0 M 120.6 45.8 C 121.1 47.5 120.0 44.6 120.6 45.8 M 114.4 45.9 C 114.9 46.2 113.9 46.0 114.4 45.9 M 121.0 55.0 C 121.4 56.5 120.4 55.0 121.0 55.0 M 119.8 57.3 C 120.3 58.7 119.2 57.7 119.8 57.3 M 106.4 30.3 C 106.4 30.4 106.4 30.4 106.4 30.3 C 106.4 30.3 106.4 30.3 106.4 30.3 Z M 108.5 41.5 C 108.5 39.8 108.5 43.5 108.5 41.5 M 110.2 35.1 C 109.8 37.4 109.7 33.3 110.2 35.1 C 110.2 35.1 110.2 35.1 110.2 35.1 Z M 109.3 33.9 C 109.2 33.9 109.2 33.9 109.3 33.9 C 109.3 33.9 109.3 33.9 109.3 33.9 Z M 111.2 40.0 C 111.1 40.0 111.1 40.0 111.2 40.0 C 111.2 40.0 111.2 40.0 111.2 40.0 Z M 110.7 38.9 C 110.4 38.7 110.6 37.9 110.7 38.9 C 110.7 38.9 110.7 38.9 110.7 38.9 Z M 114.2 45.2 C 113.7 45.3 114.0 44.9 114.2 45.2 C 114.2 45.2 114.2 45.2 114.2 45.2 Z M 109.9 37.5 C 109.1 38.8 110.0 35.7 109.9 37.5 C 109.9 37.5 109.9 37.5 109.9 37.5 Z M 111.2 44.6 C 111.9 44.3 111.5 45.6 111.2 44.6 M 120.7 53.0 C 121.0 53.7 119.7 53.4 120.7 53.0 M 115.3 40.4 C 116.4 40.4 115.5 41.5 115.3 40.4 M 107.9 27.2 C 107.9 27.6 107.9 27.6 107.9 27.2 M 107.3 41.2 C 107.8 41.3 107.1 42.2 107.3 41.2 M 104.7 31.6 C 105.0 31.4 104.6 33.0 104.7 31.6 M 115.7 47.9 C 115.9 48.1 115.5 49.1 115.7 47.9 M 115.0 42.1 C 116.1 42.6 116.5 43.1 114.3 42.6 C 114.4 42.4 115.3 42.5 115.0 42.1 C 115.0 42.1 115.0 42.1 115.0 42.1 Z M 115.5 45.2 C 115.5 45.3 115.5 45.3 115.5 45.2 M 118.3 43.0 C 118.3 43.1 118.3 43.1 118.3 43.0 M 120.2 50.1 C 120.0 50.1 120.0 50.1 120.2 50.1 M 120.5 51.0 C 120.4 51.0 120.4 51.0 120.5 51.0 C 120.5 51.0 120.5 51.0 120.5 51.0 Z M 120.9 58.1 C 120.9 58.0 120.9 58.0 120.9 58.1 C 120.9 58.1 120.9 58.1 120.9 58.1 Z M 120.0 48.0 C 120.0 47.9 120.0 47.9 120.0 48.0 C 120.0 48.0 120.0 48.0 120.0 48.0 Z M 115.9 50.8 C 115.8 50.8 115.8 50.8 115.9 50.8 C 115.9 50.8 115.9 50.8 115.9 50.8 Z M 116.5 50.6 C 116.5 50.5 116.5 50.5 116.5 50.6 C 116.5 50.6 116.5 50.6 116.5 50.6 Z M 106.8 22.7 C 107.4 22.2 106.2 27.2 106.8 22.7 M 116.5 53.6 C 115.8 54.0 116.4 51.9 116.5 53.6 C 116.5 53.6 116.5 53.6 116.5 53.6 Z M 118.9 46.4 C 118.8 46.4 118.8 46.4 118.9 46.4 M 120.4 51.4 C 120.2 51.3 120.2 51.3 120.4 51.4 M 110.8 33.7 C 110.7 34.0 110.7 34.0 110.8 33.7 M 120.2 56.0 C 119.9 58.7 118.6 53.6 120.2 56.0 M 109.7 33.7 C 109.7 33.4 109.7 33.4 109.7 33.7 M 110.4 42.8 C 110.5 42.9 110.5 42.9 110.5 43.0 C 111.4 43.0 110.8 43.2 110.3 43.3 C 110.2 43.0 110.2 42.8 110.4 42.8 M 116.7 42.7 C 116.6 42.7 116.6 42.7 116.7 42.7 C 116.7 42.7 116.7 42.7 116.7 42.7 Z M 113.4 41.6 C 111.4 41.8 113.2 41.3 113.4 41.6 C 113.4 41.6 113.4 41.6 113.4 41.6 Z M 106.8 26.3 C 107.4 28.5 106.1 25.1 106.8 26.3 C 106.8 26.3 106.8 26.3 106.8 26.3 Z M 117.6 53.0 C 117.5 52.9 117.5 52.9 117.6 53.0 C 117.6 53.0 117.6 53.0 117.6 53.0 Z M 120.8 48.2 C 120.5 47.1 121.1 48.0 120.8 48.2 C 120.8 48.2 120.8 48.2 120.8 48.2 Z M 120.9 59.1 C 120.6 58.1 121.2 58.9 120.9 59.1 C 120.9 59.1 120.9 59.1 120.9 59.1 Z M 106.2 23.5 C 107.5 33.8 103.2 12.7 106.2 23.5 C 106.2 23.5 106.2 23.5 106.2 23.5 Z M 115.7 41.3 C 115.6 41.3 115.6 41.3 115.7 41.3 C 115.7 41.3 115.7 41.3 115.7 41.3 Z M 109.2 29.4 C 109.2 29.4 109.2 29.4 109.2 29.4 C 109.2 29.4 109.2 29.4 109.2 29.4 Z M 108.0 28.8 C 107.9 28.8 107.9 28.8 108.0 28.8 C 108.0 28.8 108.0 28.8 108.0 28.8 Z M 106.1 36.9 C 106.0 37.0 106.0 37.0 106.1 36.9 C 106.1 36.9 106.1 36.9 106.1 36.9 Z M 107.2 34.1 C 107.1 34.3 107.1 34.3 107.2 34.1 C 107.2 34.1 107.2 34.1 107.2 34.1 Z M 105.7 31.7 C 105.6 31.8 105.6 31.8 105.7 31.7 C 105.7 31.7 105.7 31.7 105.7 31.7 Z M 105.5 32.9 C 105.5 32.9 105.5 32.9 105.5 32.9 C 105.5 32.9 105.5 32.9 105.5 32.9 Z M 119.2 50.6 C 119.1 50.4 119.1 50.4 119.2 50.6 C 119.2 50.6 119.2 50.6 119.2 50.6 Z M 117.3 47.2 C 118.2 48.7 116.3 46.4 117.3 47.2 C 117.3 47.2 117.3 47.2 117.3 47.2 Z M 109.5 39.5 C 110.1 40.6 108.9 39.3 109.5 39.5 C 109.5 39.5 109.5 39.5 109.5 39.5 Z M 108.4 43.6 C 108.4 43.7 108.4 43.7 108.4 43.6 C 108.4 43.6 108.4 43.6 108.4 43.6 Z M 108.5 26.9 C 108.4 27.0 108.4 27.0 108.5 26.9 C 108.5 26.9 108.5 26.9 108.5 26.9 Z M 107.2 25.3 C 106.8 27.0 107.1 23.5 107.2 25.3 M 112.2 39.3 C 112.1 39.5 112.1 39.5 112.2 39.3 C 112.2 39.3 112.2 39.3 112.2 39.3 Z M 118.8 45.2 C 118.7 45.2 118.7 45.2 118.8 45.2 C 118.8 45.2 118.8 45.2 118.8 45.2 Z M 120.0 54.3 C 119.9 54.2 119.9 54.2 120.0 54.3 C 120.0 54.3 120.0 54.3 120.0 54.3 Z M 118.0 42.1 C 117.8 42.1 117.8 42.1 118.0 42.1 C 118.0 42.1 118.0 42.1 118.0 42.1 Z M 112.2 41.3 C 112.1 41.4 112.1 41.4 112.2 41.3 C 112.2 41.3 112.2 41.3 112.2 41.3 Z M 118.7 55.4 C 118.7 55.3 118.7 55.3 118.7 55.4 C 118.7 55.4 118.7 55.4 118.7 55.4 Z M 119.1 43.1 C 119.1 43.0 119.1 43.0 119.1 43.1 C 119.1 43.1 119.1 43.1 119.1 43.1 Z M 117.2 45.2 C 117.0 45.1 117.0 45.1 117.2 45.2 C 117.2 45.2 117.2 45.2 117.2 45.2 Z M 107.9 23.2 C 107.8 23.3 107.8 23.3 107.9 23.2 C 107.9 23.2 107.9 23.2 107.9 23.2 Z M 119.9 56.2 C 119.9 56.1 119.9 56.1 119.9 56.2 C 119.9 56.2 119.9 56.2 119.9 56.2 Z M 120.7 57.2 C 120.7 57.2 120.7 57.2 120.7 57.2 C 120.7 57.2 120.7 57.2 120.7 57.2 Z M 116.4 48.5 C 117.0 45.9 116.6 51.3 117.6 49.8 C 117.9 54.2 116.4 49.1 116.4 48.5 C 116.4 48.5 116.4 48.5 116.4 48.5 Z M 121.0 61.4 C 119.8 59.0 118.7 58.2 117.4 58.1 C 116.8 58.6 119.2 60.1 117.2 58.8 C 116.8 56.7 114.1 57.7 116.7 59.3 C 117.1 62.0 115.0 58.7 116.1 60.8 C 116.4 63.6 115.5 61.8 115.7 64.0 C 117.2 66.0 115.0 64.7 116.4 66.1 C 114.9 64.2 116.8 68.5 116.1 68.2 C 115.2 65.8 116.1 75.3 116.5 70.6 C 117.2 73.0 116.0 72.0 115.8 72.5 C 116.7 73.9 115.1 75.4 116.0 77.1 C 116.2 77.0 116.3 76.4 116.5 76.4 C 117.1 76.4 116.4 77.7 116.5 77.6 C 116.8 78.5 117.7 82.2 116.1 78.0 C 115.4 77.4 116.5 80.9 115.8 80.5 C 115.8 83.5 117.3 82.1 116.1 82.4 C 115.9 83.6 115.1 84.1 115.2 84.3 C 114.5 84.6 114.5 83.8 113.7 84.7 C 112.4 83.3 110.7 87.8 111.2 84.7 C 110.1 85.4 110.3 83.4 109.5 85.3 C 110.9 84.4 105.8 83.8 107.5 85.2 C 106.6 85.7 104.4 83.2 104.0 85.2 C 102.2 86.6 101.8 88.0 103.7 89.3 C 104.0 88.2 105.9 90.5 104.9 88.6 C 102.9 88.0 109.2 87.9 107.6 88.6 C 106.2 90.9 111.3 87.2 111.9 88.8 C 111.5 88.4 112.5 88.1 113.8 88.0 C 115.0 87.9 116.2 87.9 114.7 89.0 C 115.9 88.9 116.3 87.8 117.5 88.2 C 115.7 89.3 116.1 88.4 116.9 87.6 C 117.6 86.8 118.4 85.7 118.4 86.4 C 118.3 87.0 119.4 86.4 120.1 85.1 C 120.8 83.9 120.8 82.2 120.3 82.1 C 118.0 82.6 120.8 81.1 119.9 79.8 C 119.4 77.1 121.9 81.3 120.2 78.5 C 120.5 78.2 120.5 74.9 120.9 77.2 C 120.7 77.9 118.4 73.8 120.4 74.6 C 121.5 78.8 121.0 70.9 120.4 71.7 C 119.3 76.6 119.1 65.1 120.2 70.1 C 121.3 68.3 120.7 71.1 120.2 67.8 C 119.6 67.8 119.0 65.1 120.2 66.4 C 122.1 67.1 117.7 64.0 120.3 63.7 C 121.4 64.2 119.5 59.6 120.7 61.7 C 120.8 61.8 121.1 61.5 121.0 61.4 M 120.8 62.3 C 120.4 61.6 121.4 62.0 120.8 62.3 M 120.4 61.6 C 120.4 61.6 120.4 61.6 120.4 61.6 C 120.4 61.6 120.4 61.6 120.4 61.6 Z M 120.1 67.3 C 120.2 67.3 120.2 67.3 120.1 67.3 C 120.1 67.3 120.1 67.3 120.1 67.3 Z M 115.4 69.2 C 115.4 69.2 115.4 69.2 115.4 69.2 C 115.4 69.2 115.4 69.2 115.4 69.2 Z M 120.0 71.1 C 120.0 71.1 120.0 71.1 120.0 71.1 C 120.0 71.1 120.0 71.1 120.0 71.1 Z M 119.8 65.0 C 119.8 65.0 119.8 65.0 119.8 65.0 C 119.8 65.0 119.8 65.0 119.8 65.0 Z M 120.7 71.2 C 120.0 71.1 121.2 70.1 120.8 71.3 C 120.8 71.3 120.8 71.1 120.7 71.2 M 121.0 76.4 C 120.9 76.4 120.9 76.4 121.0 76.4 M 115.1 83.1 C 115.0 83.0 115.0 83.0 115.1 83.1 M 115.3 89.4 C 115.2 89.3 115.2 89.3 115.3 89.4 M 120.3 81.1 C 120.4 82.7 119.9 81.3 120.3 81.1 M 110.7 89.2 C 112.4 89.7 108.4 89.6 110.7 89.2 M 108.6 89.7 C 108.5 89.6 108.5 89.6 108.6 89.7 M 118.9 86.9 C 118.9 86.8 118.9 86.8 118.9 86.9 C 118.9 86.9 118.9 86.9 118.9 86.9 Z M 120.6 80.6 C 120.9 78.7 121.2 83.0 120.6 80.6 M 120.8 68.4 C 121.2 69.7 119.9 67.8 120.8 68.4 M 120.4 65.8 C 120.4 65.8 120.4 65.8 120.4 65.8 C 120.4 65.8 120.4 65.8 120.4 65.8 Z M 114.1 89.3 C 114.2 89.2 114.2 89.2 114.1 89.3 C 114.1 89.3 114.1 89.3 114.1 89.3 Z M 111.5 89.4 C 111.6 89.4 111.6 89.4 111.5 89.4 C 111.5 89.4 111.5 89.4 111.5 89.4 Z M 110.2 84.2 C 110.3 84.2 110.3 84.2 110.2 84.2 C 110.2 84.2 110.2 84.2 110.2 84.2 Z M 118.2 66.2 C 118.6 64.9 119.9 68.8 118.7 67.8 C 118.1 67.6 118.4 66.5 118.2 66.2 M 119.0 78.2 C 117.2 77.6 121.4 78.0 119.0 78.2 M 108.9 88.5 C 108.3 86.4 110.1 90.0 108.9 88.5 M 105.6 88.9 C 104.9 88.4 111.5 88.6 106.5 89.2 C 105.9 89.5 105.8 89.1 105.6 88.9 M 120.1 76.0 C 119.1 75.9 120.6 73.8 120.1 76.0 M 116.9 83.4 C 117.2 84.4 116.2 86.2 116.2 84.7 C 115.6 83.3 116.8 82.4 116.9 83.4 M 119.8 62.1 C 121.4 64.4 118.5 61.3 119.8 62.1 M 119.7 68.0 C 119.8 68.1 119.8 68.1 119.7 68.0 C 119.7 68.0 119.7 68.0 119.7 68.0 Z M 119.9 70.5 C 119.8 70.5 119.8 70.5 119.9 70.5 M 121.2 63.9 C 121.1 64.0 121.1 64.0 121.2 63.9 M 118.0 84.8 C 117.9 84.8 117.9 84.8 118.0 84.8 M 119.9 80.4 C 118.3 81.9 119.5 79.0 119.9 80.4 M 116.9 73.1 C 116.1 73.4 116.8 71.6 116.9 73.1 M 119.5 85.4 C 117.7 85.7 120.3 81.1 119.5 85.4 M 120.0 79.3 C 120.0 79.5 120.0 79.5 120.0 79.3 C 120.0 79.3 120.0 79.3 120.0 79.3 Z M 116.6 83.7 C 116.6 83.6 116.6 83.6 116.6 83.7 C 116.6 83.7 116.6 83.7 116.6 83.7 Z M 116.3 84.2 C 116.4 84.1 116.4 84.1 116.3 84.2 C 116.3 84.2 116.3 84.2 116.3 84.2 Z M 117.8 87.7 C 117.8 87.6 117.8 87.6 117.8 87.7 C 117.8 87.7 117.8 87.7 117.8 87.7 Z M 116.3 63.2 C 116.2 64.8 116.1 61.8 116.3 63.2 C 116.3 63.2 116.3 63.2 116.3 63.2 Z M 120.7 73.0 C 119.5 75.0 119.6 70.5 120.7 73.0 C 120.7 73.0 120.7 73.0 120.7 73.0 Z M 118.8 75.0 C 118.7 74.9 118.7 74.9 118.8 75.0 C 118.8 75.0 118.8 75.0 118.8 75.0 Z M 120.7 85.1 C 120.7 85.0 120.7 85.0 120.7 85.1 C 120.7 85.1 120.7 85.1 120.7 85.1 Z M 116.1 63.9 C 116.1 63.9 116.1 63.9 116.1 63.9 C 116.1 63.9 116.1 63.9 116.1 63.9 Z M 112.4 88.4 C 112.4 88.3 112.4 88.3 112.4 88.4 C 112.4 88.4 112.4 88.4 112.4 88.4 Z M 116.8 79.8 C 117.4 80.7 116.3 79.7 116.8 79.8 C 116.8 79.8 116.8 79.8 116.8 79.8 Z M 116.8 82.2 C 116.8 82.2 116.8 82.2 116.8 82.2 C 116.8 82.2 116.8 82.2 116.8 82.2 Z M 107.9 89.8 C 107.9 89.8 107.9 89.8 107.9 89.8 C 107.9 89.8 107.9 89.8 107.9 89.8 Z M 114.1 83.8 C 114.1 83.9 114.1 83.9 114.1 83.8 C 114.1 83.8 114.1 83.8 114.1 83.8 Z M 112.4 85.7 C 112.4 85.7 112.4 85.7 112.4 85.7 C 112.4 85.7 112.4 85.7 112.4 85.7 Z M 118.2 86.9 C 115.9 89.5 118.6 85.6 118.2 86.9 C 118.2 86.9 118.2 86.9 118.2 86.9 Z M 106.1 86.2 C 106.1 86.1 106.1 86.1 106.1 86.2 C 106.1 86.2 106.1 86.2 106.1 86.2 Z M 103.9 88.2 C 103.9 88.1 103.9 88.1 103.9 88.2 C 103.9 88.2 103.9 88.2 103.9 88.2 Z M 102.9 89.3 C 102.8 89.2 102.8 89.2 102.9 89.3 C 102.9 89.3 102.9 89.3 102.9 89.3 Z M 117.8 69.2 C 117.8 69.2 117.8 69.2 117.8 69.2 C 117.8 69.2 117.8 69.2 117.8 69.2 Z M 121.1 70.1 C 121.1 70.1 121.1 70.1 121.1 70.1 C 121.1 70.1 121.1 70.1 121.1 70.1 Z M 121.2 73.5 C 121.2 73.5 121.2 73.5 121.2 73.5 C 121.2 73.5 121.2 73.5 121.2 73.5 Z M 115.8 67.4 C 115.8 67.4 115.8 67.4 115.8 67.4 C 115.8 67.4 115.8 67.4 115.8 67.4 Z M 118.6 81.4 C 118.6 81.4 118.6 81.4 118.6 81.4 C 118.6 81.4 118.6 81.4 118.6 81.4 Z M 117.2 81.9 C 117.3 81.9 117.3 81.9 117.2 81.9 C 117.2 81.9 117.2 81.9 117.2 81.9 Z M 115.5 78.1 C 115.5 78.1 115.5 78.1 115.5 78.1 C 115.5 78.1 115.5 78.1 115.5 78.1 Z M 116.1 82.1 C 116.1 82.1 116.1 82.1 116.1 82.1 C 116.1 82.1 116.1 82.1 116.1 82.1 Z M 116.4 59.4 C 116.4 59.4 116.4 59.4 116.4 59.4 C 116.4 59.4 116.4 59.4 116.4 59.4 Z M 118.9 60.7 C 118.8 60.6 118.8 60.6 118.9 60.7 C 118.9 60.7 118.9 60.7 118.9 60.7 Z M 120.3 83.1 C 120.6 84.4 119.4 84.1 120.3 83.1 M 120.1 77.9 C 120.0 77.9 120.0 77.9 120.1 77.9 C 120.1 77.9 120.1 77.9 120.1 77.9 Z M 112.5 88.9 C 112.4 87.9 114.5 89.4 112.5 88.9 C 112.5 88.9 112.5 88.9 112.5 88.9 Z M 115.2 83.9 C 115.2 83.9 115.2 83.9 115.2 83.9 C 115.2 83.9 115.2 83.9 115.2 83.9 Z M 114.8 84.8 C 114.7 84.7 114.7 84.7 114.8 84.8 C 114.8 84.8 114.8 84.8 114.8 84.8 Z M 107.5 87.8 C 107.5 87.8 107.5 87.8 107.5 87.8 M 121.0 77.8 C 120.5 78.3 120.6 78.2 121.0 77.8 M 111.0 88.9 C 111.1 88.8 111.1 88.8 111.0 88.9 C 111.0 88.9 111.0 88.9 111.0 88.9 Z M 105.8 88.4 C 105.9 88.4 105.9 88.4 105.8 88.4 C 105.8 88.4 105.8 88.4 105.8 88.4 Z M 120.3 74.1 C 119.1 73.6 119.4 73.1 120.3 74.1 M 119.9 64.6 C 119.8 64.6 119.8 64.6 119.9 64.6 C 119.9 64.6 119.9 64.6 119.9 64.6 Z M 98.0 88.4 C 103.0 89.9 102.8 87.2 103.3 86.7 C 104.4 86.0 103.8 85.5 102.9 85.0 C 102.4 83.3 100.4 86.8 100.2 85.1 C 99.6 82.8 97.7 87.0 98.0 84.6 C 98.5 84.0 96.1 84.5 96.2 84.7 C 95.6 83.5 93.2 85.6 93.1 85.8 C 92.4 85.5 93.2 83.3 90.3 84.9 C 88.3 85.5 88.3 83.4 88.2 84.8 C 87.5 83.2 87.2 85.3 86.1 84.8 C 85.5 83.9 85.5 86.2 84.5 84.4 C 83.3 85.8 85.6 83.5 80.8 84.5 C 82.9 84.6 78.4 85.6 79.6 84.7 C 81.4 83.7 77.4 85.0 75.6 84.4 C 74.9 85.0 72.1 86.2 72.9 84.8 C 71.3 83.3 70.5 85.8 70.0 84.5 C 69.5 84.0 68.9 85.1 68.4 85.0 C 68.0 84.1 67.2 84.7 64.7 84.4 C 59.1 83.9 63.2 86.9 61.0 87.3 C 60.5 87.7 62.8 90.9 62.2 88.5 C 62.4 89.2 67.6 86.7 64.6 89.3 C 66.6 88.3 64.0 90.4 67.8 89.2 C 63.5 87.3 73.3 88.4 68.5 89.3 C 69.1 89.9 71.0 89.8 69.8 89.3 C 69.8 87.6 72.8 90.1 71.6 88.0 C 74.3 88.6 74.1 86.7 74.5 88.0 C 74.5 90.3 74.6 87.5 75.8 88.1 C 79.3 88.1 75.8 90.7 78.4 89.0 C 81.4 90.1 79.5 88.0 80.7 87.7 C 81.6 86.2 83.8 88.9 81.1 89.1 C 82.8 88.3 81.1 89.9 83.0 88.9 C 82.3 87.5 84.4 90.4 84.4 89.3 C 85.9 88.9 85.5 88.0 85.9 88.0 C 88.0 88.0 86.8 89.4 87.6 88.4 C 88.3 87.8 88.6 89.6 89.0 89.2 C 86.9 89.1 91.3 87.7 91.3 88.4 C 89.9 88.5 91.2 90.3 92.5 89.2 C 92.6 86.1 94.0 90.0 95.3 88.9 C 95.1 87.2 100.0 88.7 97.6 89.5 C 97.8 89.3 98.0 88.3 98.0 88.4 M 89.7 88.9 C 88.1 88.8 91.7 88.6 89.7 88.9 M 89.6 89.4 C 89.1 88.8 91.1 89.8 89.5 89.6 C 89.4 89.6 89.7 89.4 89.6 89.4 M 82.5 89.4 C 82.9 88.9 83.3 89.7 82.5 89.4 M 81.5 88.4 C 80.5 87.9 83.0 88.3 81.5 88.4 M 65.5 88.7 C 67.8 86.1 66.8 90.1 65.5 88.7 M 75.8 89.2 C 77.9 88.9 74.8 90.3 75.8 89.2 M 76.6 88.6 C 77.6 88.2 76.6 89.2 76.6 88.6 M 68.5 88.7 C 68.4 88.7 68.4 88.7 68.5 88.7 C 68.5 88.7 68.5 88.7 68.5 88.7 Z M 63.9 88.6 C 63.8 88.7 63.8 88.7 63.9 88.6 C 63.9 88.6 63.9 88.6 63.9 88.6 Z M 73.2 88.4 C 74.4 89.0 70.7 88.7 73.2 88.4 C 73.2 88.4 73.2 88.4 73.2 88.4 Z M 67.1 84.7 C 67.2 84.7 67.2 84.7 67.1 84.7 C 67.1 84.7 67.1 84.7 67.1 84.7 Z M 91.6 87.7 C 91.6 87.7 91.6 87.7 91.6 87.7 C 91.6 87.7 91.6 87.7 91.6 87.7 Z M 96.5 88.7 C 96.6 88.4 97.4 89.0 96.5 88.7 C 96.5 88.7 96.5 88.7 96.5 88.7 Z M 102.1 85.8 C 102.2 85.7 102.2 85.7 102.1 85.8 C 102.1 85.8 102.1 85.8 102.1 85.8 Z M 93.9 86.4 C 94.0 86.4 94.0 86.4 93.9 86.4 C 93.9 86.4 93.9 86.4 93.9 86.4 Z M 92.4 88.3 C 92.7 89.7 90.5 87.9 92.4 88.3 C 92.4 88.3 92.4 88.3 92.4 88.3 Z M 76.1 84.9 C 75.8 85.5 74.9 84.7 76.1 84.9 C 76.1 84.9 76.1 84.9 76.1 84.9 Z M 81.4 87.8 C 81.1 88.1 80.7 87.6 81.4 87.8 C 81.4 87.8 81.4 87.8 81.4 87.8 Z M 83.7 89.7 C 83.4 90.0 83.0 89.6 83.7 89.7 C 83.7 89.7 83.7 89.7 83.7 89.7 Z M 96.3 89.1 C 96.1 89.2 96.1 89.2 96.3 89.1 C 96.3 89.1 96.3 89.1 96.3 89.1 Z M 94.8 88.0 C 95.6 89.4 93.0 87.3 94.8 88.0 C 94.8 88.0 94.8 88.0 94.8 88.0 Z M 97.2 87.7 C 96.7 87.1 98.9 87.9 97.2 87.7 M 96.7 85.6 C 94.9 86.2 99.2 83.2 96.7 85.6 C 96.7 85.6 96.7 85.6 96.7 85.6 Z M 88.6 85.1 C 88.5 85.0 88.5 85.0 88.6 85.1 C 88.6 85.1 88.6 85.1 88.6 85.1 Z M 88.0 89.0 C 86.6 88.9 89.1 88.6 88.0 89.0 C 88.0 89.0 88.0 89.0 88.0 89.0 Z M 100.3 89.3 C 98.9 89.2 101.3 88.9 100.3 89.3 C 100.3 89.3 100.3 89.3 100.3 89.3 Z M 83.3 86.4 C 80.8 86.6 85.0 85.7 83.3 86.4 C 83.3 86.4 83.3 86.4 83.3 86.4 Z M 74.1 87.9 C 74.1 87.9 74.1 87.9 74.1 87.9 C 74.1 87.9 74.1 87.9 74.1 87.9 Z M 72.4 88.5 C 72.3 88.4 72.3 88.4 72.4 88.5 C 72.4 88.5 72.4 88.5 72.4 88.5 Z M 66.1 87.1 C 66.0 87.1 66.0 87.1 66.1 87.1 C 66.1 87.1 66.1 87.1 66.1 87.1 Z M 70.7 89.1 C 70.7 89.1 70.7 89.1 70.7 89.1 C 70.7 89.1 70.7 89.1 70.7 89.1 Z M 66.2 88.8 C 66.1 88.7 66.1 88.7 66.2 88.8 C 66.2 88.8 66.2 88.8 66.2 88.8 Z M 66.6 89.9 C 66.5 89.9 66.5 89.9 66.6 89.9 C 66.6 89.9 66.6 89.9 66.6 89.9 Z M 78.6 84.1 C 78.5 84.1 78.5 84.1 78.6 84.1 C 78.6 84.1 78.6 84.1 78.6 84.1 Z M 93.6 89.5 C 93.5 89.4 93.5 89.4 93.6 89.5 C 93.6 89.5 93.6 89.5 93.6 89.5 Z M 66.7 88.2 C 66.7 88.2 66.7 88.2 66.7 88.2 C 66.7 88.2 66.7 88.2 66.7 88.2 Z M 78.4 87.2 C 78.7 86.1 78.8 88.7 78.0 87.2 C 78.1 87.2 78.4 87.4 78.4 87.2 M 77.4 85.3 C 77.5 85.3 77.5 85.3 77.4 85.3 C 77.4 85.3 77.4 85.3 77.4 85.3 Z M 82.8 84.6 C 82.9 84.6 82.9 84.6 82.8 84.6 C 82.8 84.6 82.8 84.6 82.8 84.6 Z M 71.5 89.3 C 71.5 90.0 70.4 88.8 71.7 89.3 M 66.5 85.1 C 66.6 85.8 65.4 84.6 66.7 85.1 M 102.1 88.8 C 102.5 88.3 102.9 89.1 102.1 88.8 M 84.2 84.0 C 84.6 83.5 85.1 84.3 84.2 84.0 M 81.3 85.5 C 81.3 86.1 80.2 85.0 81.5 85.4 M 70.1 85.2 C 70.0 85.2 70.0 85.2 70.1 85.2 C 70.1 85.2 70.1 85.2 70.1 85.2 Z M 85.9 88.8 C 85.8 88.8 85.8 88.8 85.9 88.8 C 85.9 88.8 85.9 88.8 85.9 88.8 Z M 80.1 87.5 C 80.7 88.4 79.2 86.9 80.1 87.5 M 88.3 87.3 C 89.1 88.4 86.4 87.0 88.3 87.3 M 63.9 84.9 C 65.0 86.2 63.1 84.2 63.9 84.9 M 70.0 88.1 C 71.0 89.4 69.1 87.4 70.0 88.1 M 84.8 88.3 C 84.7 89.0 83.6 87.9 84.8 88.3 M 98.8 88.9 C 100.1 89.1 96.9 89.5 98.8 88.9 M 73.5 85.1 C 73.5 85.1 73.5 85.1 73.5 85.1 C 73.5 85.1 73.5 85.1 73.5 85.1 Z M 96.5 84.0 C 96.5 83.9 96.5 83.9 96.5 84.0 C 96.5 84.0 96.5 84.0 96.5 84.0 Z M 61.1 89.1 C 61.0 89.1 61.0 89.1 61.1 89.1 C 61.1 89.1 61.1 89.1 61.1 89.1 Z M 71.0 87.5 C 71.0 87.4 71.0 87.4 71.0 87.5 C 71.0 87.5 71.0 87.5 71.0 87.5 Z M 63.7 89.3 C 63.6 89.2 63.6 89.2 63.7 89.3 C 63.7 89.3 63.7 89.3 63.7 89.3 Z M 75.6 86.5 C 75.6 86.5 75.6 86.5 75.6 86.5 C 75.6 86.5 75.6 86.5 75.6 86.5 Z M 75.5 89.8 C 75.5 89.8 75.5 89.8 75.5 89.8 C 75.5 89.8 75.5 89.8 75.5 89.8 Z M 80.6 88.4 C 80.6 88.4 80.6 88.4 80.6 88.4 C 80.6 88.4 80.6 88.4 80.6 88.4 Z M 73.4 89.5 C 70.5 89.7 75.2 88.4 73.4 89.5 C 73.4 89.5 73.4 89.5 73.4 89.5 Z M 79.3 86.2 C 79.3 86.2 79.3 86.2 79.3 86.2 C 79.3 86.2 79.3 86.2 79.3 86.2 Z M 79.0 88.6 C 76.9 89.5 78.5 87.0 79.0 88.6 M 86.5 89.4 C 85.8 89.9 86.5 88.6 86.5 89.4 M 91.3 85.0 C 91.3 85.0 91.3 85.0 91.3 85.0 C 91.3 85.0 91.3 85.0 91.3 85.0 Z M 90.3 85.4 C 90.2 85.3 90.2 85.3 90.3 85.4 C 90.3 85.4 90.3 85.4 90.3 85.4 Z M 88.4 89.6 C 88.3 89.5 88.3 89.5 88.4 89.6 C 88.4 89.6 88.4 89.6 88.4 89.6 Z M 90.7 84.1 C 90.6 84.1 90.6 84.1 90.7 84.1 C 90.7 84.1 90.7 84.1 90.7 84.1 Z M 76.6 89.7 C 76.5 89.7 76.5 89.7 76.6 89.7 C 76.6 89.7 76.6 89.7 76.6 89.7 Z M 62.2 89.8 C 62.2 89.7 62.2 89.7 62.2 89.8 C 62.2 89.8 62.2 89.8 62.2 89.8 Z M 99.9 85.5 C 99.8 85.4 99.8 85.4 99.9 85.5 C 99.9 85.5 99.9 85.5 99.9 85.5 Z M 75.5 88.4 C 75.4 88.4 75.4 88.4 75.5 88.4 C 75.5 88.4 75.5 88.4 75.5 88.4 Z M 93.3 85.2 C 93.3 85.2 93.3 85.2 93.3 85.2 C 93.3 85.2 93.3 85.2 93.3 85.2 Z M 76.3 88.7 C 76.3 88.7 76.3 88.7 76.3 88.7 C 76.3 88.7 76.3 88.7 76.3 88.7 Z M 74.1 84.8 C 74.0 84.8 74.0 84.8 74.1 84.8 C 74.1 84.8 74.1 84.8 74.1 84.8 Z M 71.1 84.1 C 71.1 84.1 71.1 84.1 71.1 84.1 C 71.1 84.1 71.1 84.1 71.1 84.1 Z M 73.6 87.2 C 73.6 87.1 73.6 87.1 73.6 87.2 C 73.6 87.2 73.6 87.2 73.6 87.2 Z M 93.8 86.6 C 99.0 87.8 89.0 87.2 93.8 86.6 M 72.7 86.9 C 76.6 87.1 69.2 88.2 72.7 86.9 C 72.2 87.2 72.7 86.9 72.7 86.9 M 56.8 89.3 C 59.0 90.6 59.5 88.7 59.5 88.7 C 58.6 91.2 62.0 87.7 61.6 87.2 C 61.8 86.8 60.9 82.4 58.4 85.1 C 57.9 85.4 57.7 84.6 57.4 84.6 C 54.2 84.7 59.3 85.9 55.4 85.9 C 54.8 85.6 56.1 83.5 53.5 84.9 C 53.4 84.7 51.0 83.9 51.8 84.9 C 50.7 83.9 49.7 85.1 48.5 85.3 C 47.6 84.8 49.7 83.8 45.8 85.0 C 44.5 83.2 43.4 86.3 42.3 84.3 C 41.3 84.3 39.5 87.5 41.9 85.7 C 41.5 85.9 42.6 87.4 39.8 86.8 C 40.3 86.4 42.4 83.2 37.5 84.7 C 36.8 84.7 34.9 85.5 34.6 85.1 C 37.0 84.8 31.5 83.7 32.0 84.7 C 28.3 84.0 30.3 85.5 27.8 84.4 C 25.6 84.4 28.3 85.9 25.7 85.0 C 23.7 85.2 25.1 84.4 25.3 84.4 C 23.5 84.3 22.9 84.9 22.2 84.8 C 21.9 84.7 21.1 84.0 20.6 84.8 C 18.7 86.3 20.3 87.7 19.4 89.2 C 20.7 89.9 20.1 88.1 20.9 89.2 C 21.7 88.2 21.0 89.2 24.7 89.0 C 24.6 88.8 23.8 88.2 24.7 88.1 C 26.1 88.2 24.9 90.7 27.4 88.9 C 24.7 88.4 31.4 88.1 28.8 87.6 C 32.1 87.3 29.7 87.8 32.0 88.4 C 32.1 86.7 32.0 90.2 33.0 88.9 C 33.2 89.5 36.9 89.2 34.4 88.2 C 38.2 87.8 35.7 88.7 36.9 89.6 C 38.7 89.7 37.4 86.9 38.3 89.0 C 40.4 89.9 38.5 87.9 39.9 89.5 C 39.4 88.1 41.6 89.6 41.2 88.0 C 45.1 87.9 40.5 89.6 43.4 88.6 C 42.5 88.5 42.5 90.6 44.4 89.2 C 44.1 86.8 46.3 91.4 45.6 88.2 C 51.2 87.2 46.3 89.5 49.3 89.5 C 50.0 89.5 48.6 88.5 49.3 88.4 C 53.1 88.9 49.7 89.7 52.1 88.2 C 56.0 87.7 52.9 89.5 54.7 89.6 C 55.0 88.9 56.9 87.6 56.8 89.3 M 53.6 88.5 C 52.7 89.0 53.2 88.0 53.6 88.5 M 61.1 89.3 C 60.2 89.8 60.7 88.7 61.1 89.3 M 50.4 89.0 C 49.2 89.5 50.2 88.1 50.4 89.0 M 29.9 88.2 C 31.3 88.2 29.2 88.6 29.9 88.2 M 58.0 89.4 C 56.8 90.0 57.9 88.5 58.0 89.4 M 59.7 88.1 C 59.6 88.1 59.6 88.1 59.7 88.1 M 27.8 89.5 C 27.7 89.5 27.7 89.5 27.8 89.5 M 33.2 89.5 C 32.1 89.5 33.9 89.2 33.2 89.5 M 34.0 84.2 C 32.8 84.1 34.8 83.8 34.0 84.2 M 24.8 89.6 C 23.6 90.0 24.4 89.0 24.8 89.6 M 21.8 88.4 C 20.7 88.9 21.1 87.8 21.8 88.4 M 54.7 86.6 C 54.7 86.6 54.7 86.6 54.7 86.6 C 54.7 86.6 54.7 86.6 54.7 86.6 Z M 44.7 85.3 C 45.8 85.8 43.3 84.6 44.7 85.3 M 46.0 88.8 C 45.4 87.7 47.5 88.9 46.0 88.8 C 46.0 88.8 46.0 88.8 46.0 88.8 Z M 47.8 88.3 C 47.9 88.3 47.9 88.3 47.8 88.3 C 47.8 88.3 47.8 88.3 47.8 88.3 Z M 42.1 88.2 C 42.2 88.2 42.2 88.2 42.1 88.2 C 42.1 88.2 42.1 88.2 42.1 88.2 Z M 43.3 88.2 C 43.8 87.9 44.0 88.4 43.3 88.2 C 43.3 88.2 43.3 88.2 43.3 88.2 Z M 35.4 84.7 C 36.0 84.5 36.1 84.9 35.4 84.7 C 35.4 84.7 35.4 84.7 35.4 84.7 Z M 45.2 87.8 C 45.5 86.7 45.9 88.5 45.2 87.8 C 45.2 87.8 45.2 87.8 45.2 87.8 Z M 39.4 85.2 C 38.8 85.5 38.5 84.1 39.4 85.2 M 26.6 89.3 C 26.1 89.6 25.6 88.3 26.6 89.3 M 38.6 89.6 C 38.1 89.9 37.7 88.6 38.6 89.6 M 52.8 89.0 C 52.7 88.8 52.7 88.8 52.8 89.0 M 47.0 84.2 C 46.1 84.6 46.6 83.8 47.0 84.2 M 58.5 84.6 C 57.6 85.0 58.2 84.1 58.5 84.6 M 28.8 84.3 C 28.8 84.5 27.5 84.1 28.8 84.3 M 37.4 87.9 C 36.4 87.7 35.4 87.1 37.6 87.2 C 37.7 87.5 37.0 87.6 37.4 87.9 C 37.4 87.9 37.4 87.9 37.4 87.9 Z M 33.9 85.4 C 33.7 85.3 33.7 85.3 33.9 85.4 M 35.4 88.9 C 35.3 88.8 35.3 88.8 35.4 88.9 M 29.3 88.8 C 29.1 88.6 29.1 88.6 29.3 88.8 M 28.4 89.1 C 28.5 89.0 28.5 89.0 28.4 89.1 C 28.4 89.1 28.4 89.1 28.4 89.1 Z M 21.7 89.5 C 21.7 89.5 21.7 89.5 21.7 89.5 C 21.7 89.5 21.7 89.5 21.7 89.5 Z M 31.2 88.6 C 31.3 88.6 31.3 88.6 31.2 88.6 C 31.2 88.6 31.2 88.6 31.2 88.6 Z M 26.0 84.5 C 25.9 84.4 25.9 84.4 26.0 84.5 C 26.0 84.5 26.0 84.5 26.0 84.5 Z M 26.6 85.1 C 26.6 85.1 26.6 85.1 26.6 85.1 C 26.6 85.1 26.6 85.1 26.6 85.1 Z M 56.3 89.3 C 55.2 90.0 56.2 87.4 56.3 89.3 M 23.6 85.1 C 22.7 84.4 25.2 85.0 23.6 85.1 C 23.6 85.1 23.6 85.1 23.6 85.1 Z M 32.1 87.7 C 32.0 87.6 32.0 87.6 32.1 87.7 M 28.1 89.0 C 28.0 88.8 28.0 88.8 28.1 89.0 M 45.9 89.8 C 45.8 89.7 45.8 89.7 45.9 89.8 M 23.3 88.8 C 20.5 88.5 24.7 87.2 23.3 88.8 M 47.4 88.8 C 47.4 88.9 47.4 88.9 47.4 88.8 M 41.2 86.7 C 39.2 86.8 42.0 86.1 41.2 86.7 M 36.1 88.1 C 36.1 88.1 36.1 88.1 36.1 88.1 C 36.1 88.1 36.1 88.1 36.1 88.1 Z M 38.9 88.1 C 40.4 88.0 39.2 88.4 38.9 88.1 C 38.9 88.1 38.9 88.1 38.9 88.1 Z M 55.1 88.3 C 53.4 88.1 57.1 87.9 55.1 88.3 C 55.1 88.3 55.1 88.3 55.1 88.3 Z M 24.8 86.2 C 24.9 86.2 24.9 86.2 24.8 86.2 C 24.8 86.2 24.8 86.2 24.8 86.2 Z M 31.5 89.4 C 32.4 89.1 31.9 89.7 31.5 89.4 C 31.5 89.4 31.5 89.4 31.5 89.4 Z M 20.7 89.5 C 21.5 89.2 21.0 89.8 20.7 89.5 C 20.7 89.5 20.7 89.5 20.7 89.5 Z M 57.3 88.5 C 51.0 86.6 66.1 88.9 57.3 88.5 C 57.3 88.5 57.3 88.5 57.3 88.5 Z M 37.7 88.8 C 37.7 88.8 37.7 88.8 37.7 88.8 C 37.7 88.8 37.7 88.8 37.7 88.8 Z M 49.9 89.6 C 49.9 89.5 49.9 89.5 49.9 89.6 C 49.9 89.6 49.9 89.6 49.9 89.6 Z M 52.1 88.6 C 52.2 88.5 52.2 88.5 52.1 88.6 C 52.1 88.6 52.1 88.6 52.1 88.6 Z M 52.4 84.3 C 52.4 84.3 52.4 84.3 52.4 84.3 C 52.4 84.3 52.4 84.3 52.4 84.3 Z M 51.3 86.3 C 51.4 86.2 51.4 86.2 51.3 86.3 C 51.3 86.3 51.3 86.3 51.3 86.3 Z M 55.8 85.6 C 55.9 85.5 55.9 85.5 55.8 85.6 C 55.8 85.6 55.8 85.6 55.8 85.6 Z M 55.8 85.0 C 55.9 84.9 55.9 84.9 55.8 85.0 C 55.8 85.0 55.8 85.0 55.8 85.0 Z M 28.2 87.8 C 28.2 87.7 28.2 87.7 28.2 87.8 C 28.2 87.8 28.2 87.8 28.2 87.8 Z M 30.7 86.0 C 29.0 86.6 31.2 85.1 30.7 86.0 C 30.7 86.0 30.7 86.0 30.7 86.0 Z M 44.5 86.9 C 43.0 87.1 45.5 86.3 44.5 86.9 C 44.5 86.9 44.5 86.9 44.5 86.9 Z M 43.3 84.6 C 43.3 84.5 43.3 84.5 43.3 84.6 C 43.3 84.6 43.3 84.6 43.3 84.6 Z M 51.9 89.6 C 52.0 89.5 52.0 89.5 51.9 89.6 C 51.9 89.6 51.9 89.6 51.9 89.6 Z M 54.7 88.9 C 55.0 88.0 55.4 89.3 54.7 88.9 M 41.4 89.4 C 41.4 89.3 41.4 89.3 41.4 89.4 C 41.4 89.4 41.4 89.4 41.4 89.4 Z M 33.2 88.0 C 33.3 87.9 33.3 87.9 33.2 88.0 C 33.2 88.0 33.2 88.0 33.2 88.0 Z M 24.9 88.6 C 24.9 88.5 24.9 88.5 24.9 88.6 C 24.9 88.6 24.9 88.6 24.9 88.6 Z M 36.2 89.3 C 36.3 89.2 36.3 89.2 36.2 89.3 C 36.2 89.3 36.2 89.3 36.2 89.3 Z M 40.3 88.5 C 40.4 88.4 40.4 88.4 40.3 88.5 C 40.3 88.5 40.3 88.5 40.3 88.5 Z M 23.1 87.3 C 23.2 87.3 23.2 87.3 23.1 87.3 C 23.1 87.3 23.1 87.3 23.1 87.3 Z M 35.3 89.4 C 35.3 89.4 35.3 89.4 35.3 89.4 C 35.3 89.4 35.3 89.4 35.3 89.4 Z M 33.2 86.6 C 33.3 86.5 33.3 86.5 33.2 86.6 C 33.2 86.6 33.2 86.6 33.2 86.6 Z M 54.1 90.2 C 54.1 90.1 54.1 90.1 54.1 90.2 C 54.1 90.2 54.1 90.2 54.1 90.2 Z M 23.0 88.5 C 23.0 88.5 23.0 88.5 23.0 88.5 C 23.0 88.5 23.0 88.5 23.0 88.5 Z M 22.4 89.3 C 22.4 89.3 22.4 89.3 22.4 89.3 C 22.4 89.3 22.4 89.3 22.4 89.3 Z M 28.6 85.0 C 31.6 85.6 25.9 85.2 28.0 86.2 C 23.8 86.5 28.0 85.0 28.6 85.0 C 28.6 85.0 28.6 85.0 28.6 85.0 Z M 28.6 85.0 " fill="#A6AAA8"></path></g></svg>