<?xml version="1.0" encoding="UTF-8" standalone="no"?><svg xmlns="http://www.w3.org/2000/svg" xmlns:xlink="http://www.w3.org/1999/xlink" clip-rule="evenodd" stroke-miterlimit="4.00" viewBox="0 0 109 109"><desc>SVG generated by Keynote</desc><defs></defs><g transform="matrix(1.00, 0.00, -0.00, -1.00, 0.0, 109.0)"><path d="M 37.9 102.8 C 37.6 103.0 36.9 102.8 36.7 102.9 M 37.9 102.8 C 37.2 101.7 35.8 101.7 34.1 101.5 C 32.2 101.4 34.2 102.5 33.9 102.9 C 31.4 103.4 31.4 102.6 31.8 101.4 C 30.8 102.2 28.0 100.8 28.6 102.3 C 32.6 102.3 25.8 102.6 29.1 103.5 C 29.5 103.7 28.5 104.1 28.1 104.1 C 29.2 104.7 27.4 105.4 29.1 105.9 C 29.4 106.8 29.1 106.4 30.2 107.1 C 30.7 107.2 30.5 106.9 30.4 106.7 C 30.6 105.6 31.8 107.3 32.7 106.6 C 33.6 108.1 34.5 106.4 33.7 105.8 C 34.6 105.9 35.6 107.4 36.4 106.4 C 36.9 107.1 39.2 106.6 37.8 105.7 C 36.8 105.2 37.9 104.7 38.1 104.4 C 37.8 104.1 36.4 104.5 36.2 104.3 C 36.6 104.0 38.4 103.5 36.5 103.6 C 37.1 103.1 36.1 102.8 37.9 102.8 C 37.9 102.8 37.9 102.8 37.9 102.8 Z M 31.1 102.0 C 31.1 101.6 31.7 102.0 31.1 102.0 C 31.1 102.0 31.1 102.0 31.1 102.0 Z M 35.7 107.1 C 35.7 106.7 36.4 107.1 35.7 107.1 C 35.7 107.1 35.7 107.1 35.7 107.1 Z M 30.8 106.7 C 30.7 106.3 31.4 106.7 30.8 106.7 C 30.8 106.7 30.8 106.7 30.8 106.7 Z M 32.9 102.3 C 33.9 102.6 32.0 102.8 31.8 102.4 C 32.0 102.5 32.6 102.0 32.9 102.3 C 32.9 102.3 32.9 102.3 32.9 102.3 Z M 33.0 104.5 C 33.1 104.3 33.5 104.3 33.5 104.7 C 33.2 104.8 32.9 104.6 33.0 104.5 C 33.0 104.5 33.0 104.5 33.0 104.5 Z M 27.7 102.9 C 27.8 102.8 28.2 102.7 28.2 103.1 C 27.9 103.2 27.6 103.0 27.7 102.9 C 27.7 102.9 27.7 102.9 27.7 102.9 Z M 34.1 103.3 C 34.3 103.3 34.4 103.7 34.1 103.7 C 34.0 103.6 33.2 103.5 34.1 103.3 C 34.1 103.3 34.1 103.3 34.1 103.3 Z M 35.7 102.0 C 36.6 102.2 34.8 102.8 34.9 102.6 C 34.6 102.3 35.2 101.7 35.7 102.0 C 35.7 102.0 35.7 102.0 35.7 102.0 Z M 34.6 103.8 C 35.3 104.0 34.3 104.1 34.6 103.8 C 34.6 103.8 34.6 103.8 34.6 103.8 Z M 28.4 105.7 C 29.2 105.9 28.1 106.0 28.4 105.7 C 28.4 105.7 28.4 105.7 28.4 105.7 Z M 32.3 106.9 C 33.1 107.1 32.0 107.2 32.3 106.9 C 32.3 106.9 32.3 106.9 32.3 106.9 Z M 30.9 103.0 C 29.6 103.0 30.7 102.1 30.9 103.0 C 30.9 103.0 30.9 103.0 30.9 103.0 Z M 37.8 101.9 C 36.5 101.9 37.6 101.0 37.8 101.9 C 37.8 101.9 37.8 101.9 37.8 101.9 Z M 25.3 102.3 C 26.8 102.1 21.3 100.8 23.3 102.3 C 23.8 103.5 20.5 103.3 21.3 102.2 C 20.4 102.1 20.4 102.0 19.9 102.5 C 19.9 101.6 18.1 101.0 17.5 101.4 C 17.1 102.1 18.6 101.7 17.6 102.3 C 15.4 102.3 17.6 103.2 16.6 104.1 C 16.5 104.1 16.5 103.6 16.3 103.8 C 16.1 104.7 17.3 105.6 16.5 106.2 C 16.9 106.1 18.6 107.4 17.9 106.5 C 17.8 105.5 20.0 107.7 19.9 106.2 C 20.5 106.9 21.2 106.0 21.9 106.9 C 22.4 107.1 22.4 106.3 22.3 106.1 C 22.3 105.4 23.0 107.6 23.9 106.4 C 24.0 106.8 26.8 106.7 24.7 106.1 C 25.3 106.2 28.8 106.5 26.9 105.2 C 24.5 104.6 29.4 103.9 26.6 103.8 C 24.4 103.7 24.1 103.9 25.6 103.2 C 26.1 103.3 28.6 103.2 26.5 102.6 C 26.0 102.8 25.0 102.6 25.3 102.3 C 25.3 102.3 25.3 102.3 25.3 102.3 Z M 25.7 104.2 C 24.5 104.3 25.6 103.7 25.7 104.2 C 25.7 104.2 25.7 104.2 25.7 104.2 Z M 21.7 107.2 C 20.7 107.2 21.7 106.7 21.7 107.2 C 21.7 107.2 21.7 107.2 21.7 107.2 Z M 22.0 101.9 C 21.5 102.3 21.4 100.9 22.0 101.9 C 22.0 101.9 22.0 101.9 22.0 101.9 Z M 23.5 106.1 C 23.4 106.1 23.7 105.9 23.9 105.8 C 23.8 105.9 23.6 106.1 23.5 106.1 C 23.5 106.1 23.5 106.1 23.5 106.1 Z M 20.5 101.8 C 19.2 102.4 20.3 100.8 20.5 101.8 C 20.5 101.8 20.5 101.8 20.5 101.8 Z M 18.0 102.9 C 17.7 104.3 16.9 102.5 18.0 102.9 C 18.0 102.9 18.0 102.9 18.0 102.9 Z M 19.4 106.1 C 19.7 105.8 19.7 106.3 19.4 106.1 C 19.4 106.1 19.4 106.1 19.4 106.1 Z M 26.2 106.4 C 26.6 106.1 26.6 106.6 26.2 106.4 C 26.2 106.4 26.2 106.4 26.2 106.4 Z M 17.9 105.8 C 18.0 105.3 18.3 106.1 17.9 105.8 C 17.9 105.8 17.9 105.8 17.9 105.8 Z M 21.7 102.4 C 23.0 101.4 23.2 104.1 21.7 102.4 C 21.7 102.4 21.7 102.4 21.7 102.4 Z M 24.2 102.4 C 25.2 102.1 24.0 103.0 23.6 102.9 C 23.6 102.8 24.0 102.4 24.2 102.4 C 24.2 102.4 24.2 102.4 24.2 102.4 Z M 20.4 102.5 C 21.2 102.0 21.1 102.8 20.4 102.5 C 20.4 102.5 20.4 102.5 20.4 102.5 Z M 22.6 102.0 C 23.1 102.1 22.2 102.1 22.6 102.0 C 22.6 102.0 22.6 102.0 22.6 102.0 Z M 19.0 101.3 C 19.4 101.4 18.7 101.4 19.0 101.3 C 19.0 101.3 19.0 101.3 19.0 101.3 Z M 25.5 101.8 C 26.1 101.9 25.1 101.9 25.5 101.8 C 25.5 101.8 25.5 101.8 25.5 101.8 Z M 19.3 102.0 C 19.1 102.5 20.0 103.7 18.3 102.6 C 18.0 102.2 18.8 101.6 19.3 102.0 C 19.3 102.0 19.3 102.0 19.3 102.0 Z M 41.6 102.9 C 36.3 101.3 37.5 104.0 37.3 104.5 C 36.6 105.3 37.3 105.7 38.3 106.2 C 39.5 107.9 40.0 104.5 40.8 106.2 C 42.3 108.4 42.5 104.2 43.1 106.6 C 42.9 107.2 44.9 106.7 44.8 106.5 C 45.8 107.7 47.3 105.7 47.3 105.4 C 48.0 105.8 48.1 107.9 50.2 106.3 C 51.9 105.7 52.6 107.9 52.2 106.4 C 53.4 108.0 53.0 105.9 54.2 106.5 C 55.1 107.4 54.3 105.1 55.8 106.8 C 56.5 105.4 55.1 107.7 59.2 106.7 C 57.2 106.6 61.1 105.6 60.3 106.6 C 58.9 107.5 62.3 106.2 64.2 106.8 C 64.7 106.3 66.9 105.0 66.5 106.4 C 68.5 108.0 68.5 105.4 69.3 106.7 C 70.0 107.3 70.2 106.1 70.7 106.2 C 71.3 107.2 72.0 106.5 74.4 106.8 C 79.6 107.3 75.2 104.3 77.2 104.0 C 77.5 103.5 74.6 100.3 75.7 102.7 C 75.4 102.0 71.1 104.5 73.2 101.9 C 71.6 102.9 73.6 100.8 70.2 102.1 C 74.8 103.9 65.1 102.8 69.5 101.9 C 68.7 101.4 66.9 101.5 68.2 101.9 C 68.7 103.6 65.1 101.1 66.9 103.2 C 64.2 102.6 64.9 104.5 64.1 103.2 C 63.4 101.0 64.2 103.8 62.8 103.1 C 59.6 103.1 62.1 100.6 60.1 102.2 C 56.9 101.1 59.4 103.2 58.3 103.5 C 58.0 105.0 55.0 102.3 57.5 102.1 C 56.2 102.9 57.2 101.4 55.8 102.3 C 56.8 103.8 53.9 100.8 54.3 102.0 C 53.0 102.3 53.7 103.2 53.3 103.2 C 51.3 103.2 51.9 101.8 51.5 102.9 C 51.1 103.4 50.2 101.6 49.9 102.1 C 51.9 102.1 48.2 103.6 48.0 102.8 C 49.3 102.7 47.4 100.9 46.6 102.1 C 47.6 105.2 44.9 101.2 44.0 102.4 C 44.8 104.1 39.6 102.6 41.6 101.8 C 41.4 101.9 41.6 102.9 41.6 102.9 M 49.3 102.3 C 51.0 102.5 47.5 102.7 49.3 102.3 M 49.3 101.9 C 50.0 102.4 47.7 101.4 49.3 101.7 C 49.4 101.7 49.1 101.8 49.3 101.9 M 56.1 101.8 C 55.9 102.3 55.2 101.5 56.1 101.8 M 57.4 102.9 C 58.5 103.3 55.9 102.9 57.4 102.9 M 72.5 102.5 C 71.0 105.1 70.9 101.1 72.5 102.5 M 62.5 102.0 C 60.7 102.3 63.2 100.9 62.5 102.0 M 62.0 102.7 C 61.1 103.1 61.8 102.1 62.0 102.7 M 69.6 102.5 C 69.8 102.6 69.8 102.6 69.6 102.5 C 69.6 102.5 69.6 102.5 69.6 102.5 Z M 74.1 102.6 C 74.1 102.6 74.1 102.6 74.1 102.6 C 74.1 102.6 74.1 102.6 74.1 102.6 Z M 65.3 102.8 C 63.9 102.2 67.6 102.6 65.3 102.8 C 65.3 102.8 65.3 102.8 65.3 102.8 Z M 72.0 106.5 C 71.9 106.5 71.9 106.5 72.0 106.5 C 72.0 106.5 72.0 106.5 72.0 106.5 Z M 48.0 103.5 C 48.0 103.5 48.0 103.5 48.0 103.5 C 48.0 103.5 48.0 103.5 48.0 103.5 Z M 42.9 102.5 C 43.0 102.9 42.0 102.3 42.9 102.5 C 42.9 102.5 42.9 102.5 42.9 102.5 Z M 38.8 105.5 C 38.7 105.5 38.7 105.5 38.8 105.5 C 38.8 105.5 38.8 105.5 38.8 105.5 Z M 46.3 104.8 C 46.2 104.9 46.2 104.9 46.3 104.8 C 46.3 104.8 46.3 104.8 46.3 104.8 Z M 47.0 102.9 C 46.2 101.5 49.0 103.3 47.0 102.9 C 47.0 102.9 47.0 102.9 47.0 102.9 Z M 63.6 106.3 C 63.6 105.7 64.8 106.6 63.6 106.3 C 63.6 106.3 63.6 106.3 63.6 106.3 Z M 57.6 103.4 C 57.8 103.1 58.3 103.6 57.6 103.4 C 57.6 103.4 57.6 103.4 57.6 103.4 Z M 54.8 101.5 C 55.0 101.2 55.5 101.7 54.8 101.5 C 54.8 101.5 54.8 101.5 54.8 101.5 Z M 43.0 102.1 C 43.1 102.0 43.1 102.0 43.0 102.1 C 43.0 102.1 43.0 102.1 43.0 102.1 Z M 44.8 103.2 C 43.6 101.9 46.8 103.9 44.8 103.2 C 44.8 103.2 44.8 103.2 44.8 103.2 Z M 42.7 103.6 C 43.3 104.1 41.0 103.4 42.7 103.6 M 43.9 105.6 C 45.4 105.0 42.5 108.0 43.9 105.6 C 43.9 105.6 43.9 105.6 43.9 105.6 Z M 51.8 106.1 C 51.9 106.2 51.9 106.2 51.8 106.1 C 51.8 106.1 51.8 106.1 51.8 106.1 Z M 50.9 102.3 C 52.3 102.3 50.1 102.6 50.9 102.3 C 50.9 102.3 50.9 102.3 50.9 102.3 Z M 39.1 102.0 C 40.5 102.0 38.2 102.3 39.1 102.0 C 39.1 102.0 39.1 102.0 39.1 102.0 Z M 56.3 104.8 C 58.6 104.6 55.0 105.6 56.3 104.8 C 56.3 104.8 56.3 104.8 56.3 104.8 Z M 64.5 103.3 C 64.6 103.3 64.6 103.3 64.5 103.3 C 64.5 103.3 64.5 103.3 64.5 103.3 Z M 66.0 102.8 C 66.1 102.8 66.1 102.8 66.0 102.8 C 66.0 102.8 66.0 102.8 66.0 102.8 Z M 72.4 104.1 C 72.5 104.2 72.5 104.2 72.4 104.1 C 72.4 104.1 72.4 104.1 72.4 104.1 Z M 67.4 102.1 C 67.5 102.2 67.5 102.2 67.4 102.1 C 67.4 102.1 67.4 102.1 67.4 102.1 Z M 71.8 102.5 C 71.9 102.5 71.9 102.5 71.8 102.5 C 71.8 102.5 71.8 102.5 71.8 102.5 Z M 71.2 101.3 C 71.3 101.4 71.3 101.4 71.2 101.3 C 71.2 101.3 71.2 101.3 71.2 101.3 Z M 61.4 107.1 C 61.5 107.2 61.5 107.2 61.4 107.1 C 61.4 107.1 61.4 107.1 61.4 107.1 Z M 45.4 101.7 C 45.5 101.8 45.5 101.8 45.4 101.7 C 45.4 101.7 45.4 101.7 45.4 101.7 Z M 71.5 103.0 C 71.5 103.0 71.5 103.0 71.5 103.0 C 71.5 103.0 71.5 103.0 71.5 103.0 Z M 60.7 104.0 C 60.8 105.2 59.8 102.5 61.0 104.0 C 60.9 104.0 60.7 103.9 60.7 104.0 M 62.2 105.9 C 62.1 105.9 62.1 105.9 62.2 105.9 C 62.2 105.9 62.2 105.9 62.2 105.9 Z M 57.3 106.6 C 57.2 106.6 57.2 106.6 57.3 106.6 C 57.3 106.6 57.3 106.6 57.3 106.6 Z M 66.6 101.9 C 66.5 101.3 67.8 102.4 66.5 101.9 M 72.4 106.1 C 72.2 105.5 73.6 106.6 72.2 106.1 M 37.6 102.4 C 37.4 102.9 36.6 102.1 37.6 102.4 M 56.2 107.2 C 56.0 107.7 55.3 106.9 56.2 107.2 M 58.5 105.8 C 58.3 105.1 59.7 106.3 58.3 105.8 M 69.1 106.1 C 69.2 106.1 69.2 106.1 69.1 106.1 C 69.1 106.1 69.1 106.1 69.1 106.1 Z M 53.0 102.4 C 53.1 102.4 53.1 102.4 53.0 102.4 C 53.0 102.4 53.0 102.4 53.0 102.4 Z M 59.0 103.7 C 58.1 102.9 60.0 104.3 59.0 103.7 M 51.3 103.9 C 50.1 102.8 53.2 104.3 51.3 103.9 M 75.0 106.4 C 73.6 105.1 75.9 107.1 75.0 106.4 M 68.4 103.1 C 67.1 101.8 69.4 103.8 68.4 103.1 M 54.2 102.9 C 54.1 102.3 55.5 103.3 54.2 102.9 M 40.6 102.3 C 39.4 102.2 42.3 101.8 40.6 102.3 M 65.9 106.1 C 65.9 106.2 65.9 106.2 65.9 106.1 C 65.9 106.1 65.9 106.1 65.9 106.1 Z M 44.7 107.2 C 44.8 107.3 44.8 107.3 44.7 107.2 C 44.7 107.2 44.7 107.2 44.7 107.2 Z M 76.6 102.1 C 76.7 102.2 76.7 102.2 76.6 102.1 C 76.6 102.1 76.6 102.1 76.6 102.1 Z M 67.6 103.7 C 67.7 103.8 67.7 103.8 67.6 103.7 C 67.6 103.7 67.6 103.7 67.6 103.7 Z M 74.1 101.9 C 74.2 102.0 74.2 102.0 74.1 101.9 C 74.1 101.9 74.1 101.9 74.1 101.9 Z M 63.5 104.7 C 63.5 104.8 63.5 104.8 63.5 104.7 C 63.5 104.7 63.5 104.7 63.5 104.7 Z M 62.7 101.4 C 62.7 101.5 62.7 101.5 62.7 101.4 C 62.7 101.4 62.7 101.4 62.7 101.4 Z M 58.2 102.8 C 58.2 102.9 58.2 102.9 58.2 102.8 C 58.2 102.8 58.2 102.8 58.2 102.8 Z M 64.7 101.7 C 67.4 101.5 63.4 102.8 64.7 101.7 C 64.7 101.7 64.7 101.7 64.7 101.7 Z M 60.1 105.0 C 60.1 105.0 60.1 105.0 60.1 105.0 C 60.1 105.0 60.1 105.0 60.1 105.0 Z M 59.7 102.7 C 61.4 101.7 60.6 104.2 59.7 102.7 M 52.2 101.9 C 52.7 101.4 52.5 102.7 52.2 101.9 M 49.2 106.2 C 49.2 106.3 49.2 106.3 49.2 106.2 C 49.2 106.2 49.2 106.2 49.2 106.2 Z M 50.0 105.9 C 50.1 105.9 50.1 105.9 50.0 105.9 C 50.0 105.9 50.0 105.9 50.0 105.9 Z M 50.4 101.7 C 50.4 101.7 50.4 101.7 50.4 101.7 C 50.4 101.7 50.4 101.7 50.4 101.7 Z M 50.1 107.1 C 50.2 107.1 50.2 107.1 50.1 107.1 C 50.1 107.1 50.1 107.1 50.1 107.1 Z M 61.7 101.5 C 61.7 101.5 61.7 101.5 61.7 101.5 C 61.7 101.5 61.7 101.5 61.7 101.5 Z M 75.4 101.5 C 75.5 101.5 75.5 101.5 75.4 101.5 C 75.4 101.5 75.4 101.5 75.4 101.5 Z M 41.0 105.8 C 41.1 105.8 41.1 105.8 41.0 105.8 C 41.0 105.8 41.0 105.8 41.0 105.8 Z M 63.1 102.8 C 63.1 102.9 63.1 102.9 63.1 102.8 C 63.1 102.8 63.1 102.8 63.1 102.8 Z M 47.3 106.0 C 47.3 106.1 47.3 106.1 47.3 106.0 C 47.3 106.0 47.3 106.0 47.3 106.0 Z M 62.2 102.5 C 62.2 102.6 62.2 102.6 62.2 102.5 C 62.2 102.5 62.2 102.5 62.2 102.5 Z M 65.4 106.4 C 65.5 106.4 65.5 106.4 65.4 106.4 C 65.4 106.4 65.4 106.4 65.4 106.4 Z M 68.4 107.1 C 68.4 107.1 68.4 107.1 68.4 107.1 C 68.4 107.1 68.4 107.1 68.4 107.1 Z M 65.2 104.1 C 65.3 104.1 65.3 104.1 65.2 104.1 C 65.2 104.1 65.2 104.1 65.2 104.1 Z M 46.3 104.6 C 40.9 103.5 50.6 104.1 46.3 104.6 M 66.1 104.4 C 62.4 104.1 69.2 103.1 66.1 104.4 C 66.6 104.0 66.2 104.3 66.1 104.4 M 78.0 101.6 C 76.4 102.8 76.4 104.0 77.1 105.2 C 77.9 105.8 77.8 103.4 77.9 105.5 C 76.1 105.9 78.7 108.5 78.6 105.9 C 81.0 105.5 79.0 107.6 80.4 106.5 C 82.9 106.3 81.8 107.1 84.2 106.9 C 85.7 105.4 85.6 107.6 86.2 106.2 C 85.1 107.7 88.4 105.7 88.5 106.4 C 86.7 107.4 94.8 105.9 90.5 105.9 C 92.2 105.0 91.9 106.2 92.6 106.3 C 93.1 105.3 95.5 106.4 96.4 105.1 C 96.1 105.0 95.5 105.2 95.2 105.0 C 94.8 104.5 96.6 104.6 96.4 104.6 C 97.1 104.0 99.8 101.7 97.2 104.7 C 97.3 105.4 99.5 102.9 99.8 103.5 C 102.5 101.6 99.6 102.0 101.3 101.8 C 103.0 100.2 103.8 98.8 103.7 98.7 C 104.6 97.7 105.4 97.7 105.2 96.2 C 107.7 94.2 102.8 93.9 106.0 93.7 C 105.4 93.0 107.5 92.8 105.6 92.5 C 106.3 93.4 107.5 88.9 105.9 90.8 C 105.5 90.2 108.1 87.2 106.2 87.6 C 104.8 86.3 103.4 86.8 101.9 88.9 C 103.1 88.7 100.6 91.0 102.6 89.6 C 103.4 87.8 102.9 92.7 102.4 91.7 C 100.2 91.1 103.4 94.1 101.5 94.5 C 102.6 94.0 101.1 98.1 100.2 96.2 C 99.7 96.8 100.2 97.4 99.0 97.4 C 100.6 95.7 99.6 99.3 99.0 98.5 C 98.8 97.7 95.8 99.6 96.6 100.2 C 99.0 101.4 95.6 100.2 95.4 101.3 C 93.7 102.7 95.1 99.4 94.3 101.5 C 93.9 101.3 91.7 101.8 92.9 101.0 C 93.5 101.1 92.0 103.8 91.5 101.9 C 93.9 100.4 88.2 101.6 89.2 102.1 C 93.9 102.9 83.9 103.6 87.9 102.3 C 85.5 101.3 88.9 101.9 85.5 102.4 C 86.0 103.0 83.2 103.7 83.9 102.4 C 83.3 100.5 82.5 104.9 80.7 102.3 C 80.5 101.2 77.2 103.2 78.5 101.9 C 78.6 101.8 78.1 101.6 78.0 101.6 M 79.0 101.8 C 78.6 102.2 78.4 101.3 79.0 101.8 M 78.6 102.2 C 78.6 102.2 78.6 102.2 78.6 102.2 C 78.6 102.2 78.6 102.2 78.6 102.2 Z M 85.0 102.5 C 85.0 102.4 85.0 102.4 85.0 102.5 C 85.0 102.5 85.0 102.5 85.0 102.5 Z M 89.9 107.1 C 89.8 107.0 89.8 107.0 89.9 107.1 C 89.9 107.1 89.9 107.1 89.9 107.1 Z M 88.9 102.5 C 88.9 102.5 88.9 102.5 88.9 102.5 C 88.9 102.5 88.9 102.5 88.9 102.5 Z M 82.5 102.8 C 82.4 102.8 82.4 102.8 82.5 102.8 C 82.5 102.8 82.5 102.8 82.5 102.8 Z M 88.6 101.8 C 88.9 102.5 87.4 101.4 88.6 101.7 C 88.7 101.8 88.4 101.8 88.6 101.8 M 92.4 101.1 C 92.4 101.2 92.4 101.2 92.4 101.1 M 103.6 100.3 C 103.7 100.4 103.7 100.4 103.6 100.3 M 99.6 96.3 C 99.7 96.3 99.7 96.3 99.6 96.3 M 96.0 100.6 C 97.1 99.9 96.5 100.8 96.0 100.6 M 101.3 93.8 C 100.4 94.9 101.3 92.3 101.3 93.8 M 101.2 92.5 C 101.2 92.4 101.2 92.4 101.2 92.5 M 98.4 98.2 C 98.4 98.2 98.4 98.2 98.4 98.2 C 98.4 98.2 98.4 98.2 98.4 98.2 Z M 95.4 100.6 C 93.8 101.0 96.6 99.3 95.4 100.6 M 85.8 101.8 C 87.0 101.4 85.8 102.7 85.8 101.8 M 83.1 102.2 C 83.0 102.3 83.0 102.3 83.1 102.2 C 83.1 102.2 83.1 102.2 83.1 102.2 Z M 100.3 95.9 C 100.2 96.0 100.2 96.0 100.3 95.9 C 100.3 95.9 100.3 95.9 100.3 95.9 Z M 100.9 94.3 C 100.9 94.3 100.9 94.3 100.9 94.3 C 100.9 94.3 100.9 94.3 100.9 94.3 Z M 106.7 92.8 C 106.7 92.9 106.7 92.9 106.7 92.8 C 106.7 92.8 106.7 92.8 106.7 92.8 Z M 85.1 104.4 C 83.4 104.0 86.8 102.6 86.5 103.9 C 86.7 104.5 85.3 104.3 85.1 104.4 M 94.9 102.5 C 95.8 104.1 92.7 100.8 94.9 102.5 M 102.3 92.5 C 104.6 91.9 100.6 93.6 102.3 92.5 M 102.3 90.2 C 102.8 89.6 102.0 94.4 101.9 91.0 C 101.6 90.6 102.1 90.4 102.3 90.2 M 92.6 101.9 C 93.1 102.8 90.8 101.9 92.6 101.9 M 101.0 100.6 C 101.1 99.7 101.8 97.8 102.2 99.2 C 103.2 100.0 100.8 101.7 101.0 100.6 M 79.5 102.8 C 80.6 101.2 79.4 104.1 79.5 102.8 M 86.1 102.9 C 86.1 102.8 86.1 102.8 86.1 102.9 C 86.1 102.9 86.1 102.9 86.1 102.9 Z M 88.4 102.6 C 88.5 102.7 88.5 102.7 88.4 102.6 M 80.4 101.4 C 80.5 101.5 80.5 101.5 80.4 101.4 M 99.8 99.5 C 100.0 99.5 100.0 99.5 99.8 99.5 M 95.9 101.1 C 98.3 101.7 95.1 101.9 95.9 101.1 M 92.4 105.3 C 93.1 105.9 91.2 105.6 92.4 105.3 M 98.1 98.9 C 100.0 99.2 97.7 101.1 98.1 98.9 M 94.9 101.4 C 95.0 101.4 95.0 101.4 94.9 101.4 C 94.9 101.4 94.9 101.4 94.9 101.4 Z M 101.6 100.3 C 101.6 100.3 101.6 100.3 101.6 100.3 C 101.6 100.3 101.6 100.3 101.6 100.3 Z M 102.0 99.7 C 102.0 99.8 102.0 99.8 102.0 99.7 C 102.0 99.7 102.0 99.7 102.0 99.7 Z M 99.1 97.7 C 99.1 97.8 99.1 97.8 99.1 97.7 C 99.1 97.7 99.1 97.7 99.1 97.7 Z M 82.9 106.3 C 85.0 106.4 81.2 106.5 82.9 106.3 C 82.9 106.3 82.9 106.3 82.9 106.3 Z M 90.1 101.7 C 92.3 102.7 88.7 103.0 90.1 101.7 C 90.1 101.7 90.1 101.7 90.1 101.7 Z M 92.7 103.3 C 92.7 103.4 92.7 103.4 92.7 103.3 C 92.7 103.3 92.7 103.3 92.7 103.3 Z M 96.9 98.7 C 96.9 98.8 96.9 98.8 96.9 98.7 C 96.9 98.7 96.9 98.7 96.9 98.7 Z M 83.9 106.5 C 83.9 106.6 83.9 106.6 83.9 106.5 C 83.9 106.5 83.9 106.5 83.9 106.5 Z M 101.7 94.9 C 101.8 95.0 101.8 95.0 101.7 94.9 C 101.7 94.9 101.7 94.9 101.7 94.9 Z M 98.2 103.3 C 98.5 102.5 98.6 103.7 98.2 103.3 C 98.2 103.3 98.2 103.3 98.2 103.3 Z M 100.3 101.9 C 100.3 101.8 100.3 101.8 100.3 101.9 C 100.3 101.9 100.3 101.9 100.3 101.9 Z M 101.1 92.1 C 101.1 92.0 101.1 92.0 101.1 92.1 C 101.1 92.1 101.1 92.1 101.1 92.1 Z M 105.4 97.4 C 105.5 97.4 105.5 97.4 105.4 97.4 C 105.4 97.4 105.4 97.4 105.4 97.4 Z M 104.6 94.8 C 104.6 94.8 104.6 94.8 104.6 94.8 C 104.6 94.8 104.6 94.8 104.6 94.8 Z M 99.1 98.2 C 100.2 96.6 99.3 99.0 99.1 98.2 C 99.1 98.2 99.1 98.2 99.1 98.2 Z M 105.0 89.9 C 105.1 89.8 105.1 89.8 105.0 89.9 C 105.0 89.9 105.0 89.9 105.0 89.9 Z M 103.1 88.7 C 103.2 88.6 103.2 88.6 103.1 88.7 C 103.1 88.7 103.1 88.7 103.1 88.7 Z M 102.0 88.1 C 102.1 88.0 102.1 88.0 102.0 88.1 C 102.0 88.1 102.0 88.1 102.0 88.1 Z M 88.5 104.8 C 88.4 104.7 88.4 104.7 88.5 104.8 C 88.5 104.8 88.5 104.8 88.5 104.8 Z M 87.4 101.5 C 87.4 101.5 87.4 101.5 87.4 101.5 C 87.4 101.5 87.4 101.5 87.4 101.5 Z M 90.2 101.2 C 90.2 101.2 90.2 101.2 90.2 101.2 C 90.2 101.2 90.2 101.2 90.2 101.2 Z M 88.0 106.8 C 87.9 106.7 87.9 106.7 88.0 106.8 C 88.0 106.8 88.0 106.8 88.0 106.8 Z M 97.8 101.5 C 97.7 101.5 97.7 101.5 97.8 101.5 C 97.8 101.5 97.8 101.5 97.8 101.5 Z M 99.5 101.9 C 99.4 101.9 99.4 101.9 99.5 101.9 C 99.5 101.9 99.5 101.9 99.5 101.9 Z M 97.9 105.0 C 97.8 105.0 97.8 105.0 97.9 105.0 C 97.9 105.0 97.9 105.0 97.9 105.0 Z M 101.0 102.2 C 100.9 102.2 100.9 102.2 101.0 102.2 C 101.0 102.2 101.0 102.2 101.0 102.2 Z M 78.9 106.2 C 78.9 106.3 78.9 106.3 78.9 106.2 C 78.9 106.2 78.9 106.2 78.9 106.2 Z M 78.7 103.7 C 78.6 103.8 78.6 103.8 78.7 103.7 C 78.7 103.7 78.7 103.7 78.7 103.7 Z M 97.1 99.8 C 97.1 99.1 98.2 99.9 97.1 99.8 M 93.9 101.7 C 93.9 101.7 93.9 101.7 93.9 101.7 C 93.9 101.7 93.9 101.7 93.9 101.7 Z M 101.1 95.1 C 102.2 95.0 99.9 96.5 101.1 95.1 C 101.1 95.1 101.1 95.1 101.1 95.1 Z M 103.6 99.2 C 103.7 99.1 103.7 99.1 103.6 99.2 C 103.6 99.2 103.6 99.2 103.6 99.2 Z M 104.0 97.8 C 104.1 97.8 104.1 97.8 104.0 97.8 C 104.0 97.8 104.0 97.8 104.0 97.8 Z M 103.2 91.5 C 103.3 91.4 103.3 91.4 103.2 91.5 M 93.3 100.9 C 93.9 101.2 93.8 101.2 93.3 100.9 M 101.6 94.0 C 101.6 94.0 101.6 94.0 101.6 94.0 C 101.6 94.0 101.6 94.0 101.6 94.0 Z M 102.8 90.2 C 102.8 90.3 102.8 90.3 102.8 90.2 C 102.8 90.2 102.8 90.2 102.8 90.2 Z M 91.2 102.0 C 91.4 103.2 90.9 103.0 91.2 102.0 M 81.8 102.7 C 81.8 102.8 81.8 102.8 81.8 102.7 C 81.8 102.7 81.8 102.7 81.8 102.7 Z M 102.1 82.8 C 100.8 86.0 102.7 85.8 102.7 85.8 C 100.2 85.4 103.7 88.1 104.2 87.6 C 104.5 87.7 109.0 85.8 106.3 83.6 C 106.0 83.0 106.8 82.6 106.9 82.1 C 106.8 80.1 106.5 80.7 106.1 81.4 C 105.8 82.0 105.5 82.1 105.5 80.3 C 105.8 79.7 107.9 80.4 106.5 78.3 C 106.7 78.2 107.5 75.8 106.5 76.7 C 107.5 75.5 106.3 74.8 106.1 73.7 C 106.6 72.7 107.6 74.5 106.4 71.1 C 108.2 69.6 105.1 69.0 107.1 67.7 C 107.1 66.8 103.9 65.5 105.7 67.5 C 105.5 67.2 104.0 68.5 104.6 65.7 C 105.0 66.1 108.2 67.6 106.7 63.3 C 106.7 62.6 105.9 61.0 106.3 60.6 C 106.6 62.8 107.7 57.6 106.7 58.1 C 107.4 54.6 105.9 56.6 107.0 54.1 C 107.0 52.1 105.5 54.8 106.4 52.3 C 106.2 50.3 107.0 51.6 107.0 51.8 C 107.1 50.2 106.6 49.6 106.6 49.0 C 106.8 48.6 107.4 47.9 106.6 47.5 C 105.2 45.7 103.7 47.3 102.2 46.5 C 101.5 47.8 103.3 47.1 102.2 48.0 C 103.2 48.6 102.2 48.1 102.4 51.6 C 102.6 51.5 103.2 50.6 103.3 51.5 C 103.2 52.9 100.7 51.9 102.5 54.1 C 103.0 51.5 103.3 57.9 103.8 55.4 C 104.1 58.5 103.6 56.3 103.0 58.5 C 104.7 58.4 101.2 58.7 102.6 59.5 C 101.9 59.7 102.2 63.2 103.2 60.7 C 103.6 64.3 102.7 62.0 101.8 63.3 C 101.7 65.0 104.5 63.5 102.5 64.5 C 101.5 66.7 103.5 64.6 101.9 66.2 C 103.3 65.5 101.9 67.8 103.4 67.2 C 103.5 70.9 101.8 66.7 102.8 69.4 C 102.9 68.5 100.8 68.9 102.2 70.5 C 104.6 69.8 100.0 72.6 103.2 71.4 C 104.2 76.6 101.9 72.3 101.9 75.1 C 101.9 75.9 103.0 74.4 103.0 75.0 C 102.5 78.7 101.7 75.6 103.3 77.6 C 103.7 81.2 101.9 78.6 101.8 80.4 C 102.5 80.5 103.8 82.3 102.1 82.8 M 102.9 79.1 C 102.4 78.3 103.4 78.6 102.9 79.1 M 102.1 87.5 C 101.6 86.7 102.6 87.0 102.1 87.5 M 102.4 76.1 C 101.9 75.1 103.3 75.8 102.4 76.1 M 103.2 56.5 C 103.2 57.8 102.8 55.8 103.2 56.5 M 102.0 84.3 C 101.4 82.9 102.9 83.9 102.0 84.3 M 103.3 85.8 C 103.3 85.8 103.3 85.8 103.3 85.8 M 101.9 54.5 C 101.9 54.5 101.9 54.5 101.9 54.5 M 101.9 59.8 C 101.9 58.7 102.2 60.4 101.9 59.8 M 107.3 60.0 C 107.3 58.8 107.6 60.6 107.3 60.0 M 101.8 51.7 C 101.4 50.5 102.4 51.3 101.8 51.7 M 103.0 48.7 C 102.5 47.7 103.6 48.1 103.0 48.7 M 104.8 79.7 C 104.8 79.8 104.8 79.8 104.8 79.7 C 104.8 79.7 104.8 79.7 104.8 79.7 Z M 106.1 70.1 C 105.6 71.3 106.8 68.7 106.1 70.1 M 102.6 71.9 C 103.7 71.1 102.5 73.4 102.6 71.9 C 102.6 71.9 102.6 71.9 102.6 71.9 Z M 103.1 73.6 C 103.1 73.6 103.1 73.6 103.1 73.6 C 103.1 73.6 103.1 73.6 103.1 73.6 Z M 103.2 68.1 C 103.2 68.2 103.2 68.2 103.2 68.1 C 103.2 68.1 103.2 68.1 103.2 68.1 Z M 103.3 69.3 C 103.5 69.7 103.0 69.9 103.3 69.3 C 103.3 69.3 103.3 69.3 103.3 69.3 Z M 106.7 61.3 C 107.0 61.8 106.5 61.9 106.7 61.3 C 106.7 61.3 106.7 61.3 106.7 61.3 Z M 103.6 71.0 C 104.7 71.1 102.9 71.7 103.6 71.0 C 103.6 71.0 103.6 71.0 103.6 71.0 Z M 106.2 65.1 C 105.9 64.6 107.3 64.1 106.2 65.1 M 102.1 53.4 C 101.8 52.9 103.1 52.4 102.1 53.4 M 101.8 64.9 C 101.5 64.4 102.8 63.9 101.8 64.9 M 102.4 78.5 C 102.6 78.3 102.6 78.3 102.4 78.5 M 107.2 72.1 C 106.8 71.3 107.7 71.7 107.2 72.1 M 106.8 83.5 C 106.4 82.5 107.3 83.1 106.8 83.5 M 107.1 55.1 C 106.9 55.1 107.3 53.9 107.1 55.1 M 103.5 63.6 C 103.7 62.6 104.3 61.5 104.2 63.6 C 103.9 63.8 103.8 63.1 103.5 63.6 C 103.5 63.6 103.5 63.6 103.5 63.6 Z M 106.0 60.0 C 106.1 59.8 106.1 59.8 106.0 60.0 M 102.5 61.8 C 102.6 61.6 102.6 61.6 102.5 61.8 M 102.6 55.9 C 102.8 55.8 102.8 55.8 102.6 55.9 M 102.3 55.2 C 102.4 55.2 102.4 55.2 102.3 55.2 C 102.3 55.2 102.3 55.2 102.3 55.2 Z M 101.9 48.7 C 101.9 48.7 101.9 48.7 101.9 48.7 C 101.9 48.7 101.9 48.7 101.9 48.7 Z M 102.8 57.8 C 102.8 57.8 102.8 57.8 102.8 57.8 C 102.8 57.8 102.8 57.8 102.8 57.8 Z M 106.9 52.4 C 107.0 52.4 107.0 52.4 106.9 52.4 C 106.9 52.4 106.9 52.4 106.9 52.4 Z M 106.3 53.1 C 106.3 53.1 106.3 53.1 106.3 53.1 C 106.3 53.1 106.3 53.1 106.3 53.1 Z M 102.1 82.0 C 101.4 80.8 104.0 81.4 102.1 82.0 M 106.3 50.2 C 107.0 49.4 106.4 51.8 106.3 50.2 C 106.3 50.2 106.3 50.2 106.3 50.2 Z M 103.7 58.5 C 103.8 58.4 103.8 58.4 103.7 58.5 M 102.4 54.8 C 102.6 54.7 102.6 54.7 102.4 54.8 M 101.6 71.9 C 101.7 71.8 101.7 71.8 101.6 71.9 M 102.6 50.3 C 102.9 47.5 104.2 51.5 102.6 50.3 M 102.6 73.2 C 102.6 73.3 102.6 73.3 102.6 73.2 M 104.7 67.0 C 104.6 65.2 105.3 67.7 104.7 67.0 M 103.3 62.3 C 103.4 62.4 103.4 62.4 103.3 62.3 C 103.3 62.3 103.3 62.3 103.3 62.3 Z M 103.3 65.1 C 103.5 66.4 103.0 65.4 103.3 65.1 C 103.3 65.1 103.3 65.1 103.3 65.1 Z M 103.1 80.5 C 103.3 78.8 103.5 82.3 103.1 80.5 C 103.1 80.5 103.1 80.5 103.1 80.5 Z M 105.2 51.5 C 105.3 51.6 105.3 51.6 105.2 51.5 C 105.2 51.5 105.2 51.5 105.2 51.5 Z M 102.0 58.1 C 102.3 58.9 101.7 58.5 102.0 58.1 C 102.0 58.1 102.0 58.1 102.0 58.1 Z M 101.9 47.7 C 102.2 48.5 101.6 48.1 101.9 47.7 C 101.9 47.7 101.9 47.7 101.9 47.7 Z M 102.9 83.1 C 104.8 74.7 102.5 94.4 102.9 83.1 C 102.9 83.1 102.9 83.1 102.9 83.1 Z M 102.6 64.0 C 102.6 64.0 102.6 64.0 102.6 64.0 C 102.6 64.0 102.6 64.0 102.6 64.0 Z M 101.8 75.7 C 101.9 75.8 101.9 75.8 101.8 75.7 C 101.8 75.7 101.8 75.7 101.8 75.7 Z M 102.8 77.7 C 102.9 77.8 102.9 77.8 102.8 77.7 C 102.8 77.7 102.8 77.7 102.8 77.7 Z M 107.1 77.2 C 107.1 77.2 107.1 77.2 107.1 77.2 C 107.1 77.2 107.1 77.2 107.1 77.2 Z M 105.1 76.5 C 105.3 76.6 105.3 76.6 105.1 76.5 C 105.1 76.5 105.1 76.5 105.1 76.5 Z M 105.9 80.6 C 105.9 80.6 105.9 80.6 105.9 80.6 C 105.9 80.6 105.9 80.6 105.9 80.6 Z M 106.4 80.5 C 106.5 80.5 106.5 80.5 106.4 80.5 C 106.4 80.5 106.4 80.5 106.4 80.5 Z M 103.6 54.8 C 103.7 54.8 103.7 54.8 103.6 54.8 C 103.6 54.8 103.6 54.8 103.6 54.8 Z M 105.4 57.0 C 104.8 55.5 106.3 57.4 105.4 57.0 C 105.4 57.0 105.4 57.0 105.4 57.0 Z M 104.5 70.1 C 104.3 68.8 105.1 71.0 104.5 70.1 C 104.5 70.1 104.5 70.1 104.5 70.1 Z M 106.9 68.7 C 106.9 68.6 106.9 68.6 106.9 68.7 C 106.9 68.7 106.9 68.7 106.9 68.7 Z M 101.8 77.7 C 101.9 77.8 101.9 77.8 101.8 77.7 C 101.8 77.7 101.8 77.7 101.8 77.7 Z M 102.5 80.2 C 103.4 80.3 102.1 81.0 102.5 80.2 M 102.0 67.6 C 102.1 67.6 102.1 67.6 102.0 67.6 C 102.0 67.6 102.0 67.6 102.0 67.6 Z M 103.4 59.6 C 103.5 59.6 103.5 59.6 103.4 59.6 C 103.4 59.6 103.4 59.6 103.4 59.6 Z M 102.8 51.7 C 102.9 51.7 102.9 51.7 102.8 51.7 C 102.8 51.7 102.8 51.7 102.8 51.7 Z M 102.1 62.6 C 102.2 62.7 102.2 62.7 102.1 62.6 C 102.1 62.6 102.1 62.6 102.1 62.6 Z M 102.9 66.4 C 103.0 66.5 103.0 66.5 102.9 66.4 C 102.9 66.4 102.9 66.4 102.9 66.4 Z M 104.1 49.9 C 104.1 50.0 104.1 50.0 104.1 49.9 C 104.1 49.9 104.1 49.9 104.1 49.9 Z M 102.0 61.7 C 102.0 61.8 102.0 61.8 102.0 61.7 C 102.0 61.7 102.0 61.7 102.0 61.7 Z M 104.8 59.5 C 104.9 59.5 104.9 59.5 104.8 59.5 C 104.8 59.5 104.8 59.5 104.8 59.5 Z M 101.2 79.9 C 101.3 79.9 101.3 79.9 101.2 79.9 C 101.2 79.9 101.2 79.9 101.2 79.9 Z M 102.9 49.9 C 102.9 49.9 102.9 49.9 102.9 49.9 C 102.9 49.9 102.9 49.9 102.9 49.9 Z M 102.1 49.4 C 102.1 49.4 102.1 49.4 102.1 49.4 C 102.1 49.4 102.1 49.4 102.1 49.4 Z M 106.4 55.0 C 105.9 57.8 106.2 52.5 105.2 54.5 C 104.9 50.5 106.4 54.4 106.4 55.0 C 106.4 55.0 106.4 55.0 106.4 55.0 Z M 101.8 45.6 C 103.0 47.2 104.1 47.2 105.4 46.5 C 106.0 45.8 103.6 45.8 105.6 45.7 C 106.0 47.5 108.7 45.0 106.1 45.0 C 105.7 42.7 107.8 44.6 106.7 43.2 C 106.4 40.7 107.3 42.0 107.1 40.1 C 105.6 39.0 107.8 39.0 106.4 38.5 C 107.9 39.4 106.0 36.4 106.7 36.3 C 107.6 38.1 106.7 29.7 106.3 34.3 C 105.6 32.4 106.8 32.8 107.0 32.1 C 106.1 31.3 107.7 29.0 106.8 27.9 C 106.6 28.1 106.6 28.7 106.3 28.9 C 105.7 29.2 106.4 27.6 106.3 27.7 C 106.0 27.0 105.1 22.5 106.7 27.1 C 107.4 27.4 106.3 23.7 107.0 23.8 C 107.0 20.4 105.6 22.9 106.6 21.6 C 106.6 19.4 106.4 18.1 106.3 18.1 C 106.3 17.0 107.1 16.6 106.1 15.8 C 107.3 13.4 102.9 15.2 105.6 13.5 C 104.7 13.1 106.2 11.5 104.5 12.4 C 105.7 12.9 103.5 7.6 103.6 10.3 C 102.9 10.0 102.4 5.8 101.4 7.5 C 99.5 7.6 99.0 9.0 99.2 11.4 C 100.0 10.5 99.6 13.8 100.2 11.4 C 99.7 9.6 102.4 14.1 101.4 13.4 C 99.2 14.1 103.5 15.2 102.1 16.4 C 102.8 15.5 103.8 19.3 102.0 18.3 C 101.9 19.1 102.8 19.2 101.8 20.1 C 101.8 17.5 103.6 21.1 102.6 21.0 C 102.0 20.5 101.5 25.4 102.5 24.8 C 104.8 22.9 102.0 26.6 102.9 27.3 C 103.4 29.7 100.9 26.9 102.6 28.7 C 102.3 29.2 102.3 32.4 101.9 30.4 C 102.1 29.6 104.4 32.3 102.4 32.6 C 101.3 29.2 101.8 36.5 102.4 35.4 C 103.5 30.1 103.7 40.9 102.6 36.8 C 101.5 39.1 102.1 36.1 102.6 39.0 C 103.2 38.6 103.8 40.9 102.6 40.3 C 100.7 40.8 105.1 41.1 102.5 42.9 C 101.4 43.2 103.3 46.4 102.1 45.1 C 102.0 45.1 101.7 45.5 101.8 45.6 M 102.0 44.6 C 102.4 45.0 101.4 45.2 102.0 44.6 M 102.4 45.0 C 102.4 45.1 102.4 45.1 102.4 45.0 C 102.4 45.0 102.4 45.0 102.4 45.0 Z M 102.7 39.4 C 102.6 39.5 102.6 39.5 102.7 39.4 C 102.7 39.4 102.7 39.4 102.7 39.4 Z M 107.4 35.0 C 107.4 35.0 107.4 35.0 107.4 35.0 C 107.4 35.0 107.4 35.0 107.4 35.0 Z M 102.8 35.7 C 102.8 35.7 102.8 35.7 102.8 35.7 C 102.8 35.7 102.8 35.7 102.8 35.7 Z M 103.0 41.4 C 103.0 41.5 103.0 41.5 103.0 41.4 C 103.0 41.4 103.0 41.4 103.0 41.4 Z M 102.1 36.1 C 102.8 35.8 101.6 37.3 102.0 36.0 C 102.0 35.9 102.0 36.2 102.1 36.1 M 101.8 31.2 C 101.9 31.2 101.9 31.2 101.8 31.2 M 107.2 19.2 C 107.3 19.2 107.3 19.2 107.2 19.2 M 101.6 18.8 C 101.6 18.7 101.6 18.7 101.6 18.8 M 102.5 26.0 C 102.4 24.0 102.9 25.5 102.5 26.0 M 101.5 15.9 C 101.4 17.3 100.8 14.6 101.5 15.9 M 100.8 14.8 C 100.8 14.6 100.8 14.6 100.8 14.8 M 102.0 21.3 C 102.0 21.3 102.0 21.3 102.0 21.3 C 102.0 21.3 102.0 21.3 102.0 21.3 Z M 102.2 26.9 C 101.9 29.6 101.6 24.0 102.2 26.9 M 102.0 38.8 C 101.6 37.7 102.9 38.8 102.0 38.8 M 102.4 41.0 C 102.4 41.0 102.4 41.0 102.4 41.0 C 102.4 41.0 102.4 41.0 102.4 41.0 Z M 101.8 18.1 C 101.9 18.1 101.9 18.1 101.8 18.1 C 101.8 18.1 101.8 18.1 101.8 18.1 Z M 101.5 16.5 C 101.5 16.6 101.5 16.6 101.5 16.5 C 101.5 16.5 101.5 16.5 101.5 16.5 Z M 105.6 12.0 C 105.6 12.1 105.6 12.1 105.6 12.0 C 105.6 12.0 105.6 12.0 105.6 12.0 Z M 104.6 39.3 C 104.2 40.8 102.9 37.9 104.1 38.2 C 104.7 38.0 104.4 39.2 104.6 39.3 M 103.8 28.4 C 105.6 28.0 101.4 29.8 103.8 28.4 M 101.9 14.3 C 103.4 12.3 101.0 16.3 101.9 14.3 M 100.4 12.1 C 100.4 11.3 102.8 16.0 100.6 13.1 C 100.1 12.9 100.3 12.5 100.4 12.1 M 102.7 31.1 C 103.7 30.7 102.2 33.4 102.7 31.1 M 105.6 21.0 C 104.9 20.3 104.2 18.6 105.4 19.3 C 106.7 19.2 106.1 21.9 105.6 21.0 M 103.0 44.2 C 101.4 43.0 104.3 44.2 103.0 44.2 M 103.1 38.5 C 103.0 38.5 103.0 38.5 103.1 38.5 C 103.1 38.5 103.1 38.5 103.1 38.5 Z M 102.9 36.3 C 103.0 36.2 103.0 36.2 102.9 36.3 M 101.6 43.2 C 101.7 43.1 101.7 43.1 101.6 43.2 M 103.9 21.1 C 104.0 21.0 104.0 21.0 103.9 21.1 M 102.9 26.6 C 104.5 23.5 103.3 28.2 102.9 26.6 M 105.9 32.1 C 106.7 31.4 106.0 33.5 105.9 32.1 M 102.3 22.2 C 103.8 20.5 103.8 24.4 102.3 22.2 M 102.8 27.9 C 102.8 27.7 102.8 27.7 102.8 27.9 C 102.8 27.9 102.8 27.9 102.8 27.9 Z M 105.7 20.4 C 105.7 20.5 105.7 20.5 105.7 20.4 C 105.7 20.4 105.7 20.4 105.7 20.4 Z M 105.6 19.8 C 105.6 19.8 105.6 19.8 105.6 19.8 C 105.6 19.8 105.6 19.8 105.6 19.8 Z M 102.1 20.3 C 102.1 20.4 102.1 20.4 102.1 20.3 C 102.1 20.3 102.1 20.3 102.1 20.3 Z M 106.5 41.1 C 106.6 39.6 106.7 42.3 106.5 41.1 C 106.5 41.1 106.5 41.1 106.5 41.1 Z M 102.1 34.3 C 103.3 31.7 103.2 36.1 102.1 34.3 C 102.1 34.3 102.1 34.3 102.1 34.3 Z M 104.0 31.4 C 104.1 31.4 104.1 31.4 104.0 31.4 C 104.0 31.4 104.0 31.4 104.0 31.4 Z M 101.4 23.3 C 101.5 23.3 101.5 23.3 101.4 23.3 C 101.4 23.3 101.4 23.3 101.4 23.3 Z M 106.7 40.3 C 106.7 40.3 106.7 40.3 106.7 40.3 C 106.7 40.3 106.7 40.3 106.7 40.3 Z M 102.5 16.6 C 102.6 16.6 102.6 16.6 102.5 16.6 C 102.5 16.6 102.5 16.6 102.5 16.6 Z M 106.0 25.2 C 105.4 24.5 106.5 25.1 106.0 25.2 C 106.0 25.2 106.0 25.2 106.0 25.2 Z M 106.0 22.4 C 106.0 22.4 106.0 22.4 106.0 22.4 C 106.0 22.4 106.0 22.4 106.0 22.4 Z M 100.6 14.5 C 100.5 14.4 100.5 14.4 100.6 14.5 C 100.6 14.5 100.6 14.5 100.6 14.5 Z M 107.0 16.5 C 107.0 16.4 107.0 16.4 107.0 16.5 C 107.0 16.5 107.0 16.5 107.0 16.5 Z M 105.0 15.1 C 105.0 15.1 105.0 15.1 105.0 15.1 C 105.0 15.1 105.0 15.1 105.0 15.1 Z M 102.5 20.7 C 102.1 18.5 103.1 21.2 102.5 20.7 C 102.5 20.7 102.5 20.7 102.5 20.7 Z M 102.2 10.1 C 102.3 10.0 102.3 10.0 102.2 10.1 C 102.2 10.1 102.2 10.1 102.2 10.1 Z M 100.0 10.5 C 100.0 10.4 100.0 10.4 100.0 10.5 C 100.0 10.5 100.0 10.5 100.0 10.5 Z M 98.8 10.8 C 98.8 10.7 98.8 10.7 98.8 10.8 C 98.8 10.8 98.8 10.8 98.8 10.8 Z M 105.0 36.3 C 105.0 36.4 105.0 36.4 105.0 36.3 C 105.0 36.3 105.0 36.3 105.0 36.3 Z M 101.8 37.2 C 101.7 37.2 101.7 37.2 101.8 37.2 C 101.8 37.2 101.8 37.2 101.8 37.2 Z M 101.6 34.1 C 101.6 34.1 101.6 34.1 101.6 34.1 C 101.6 34.1 101.6 34.1 101.6 34.1 Z M 107.0 36.9 C 107.0 36.9 107.0 36.9 107.0 36.9 C 107.0 36.9 107.0 36.9 107.0 36.9 Z M 104.2 24.4 C 104.2 24.5 104.2 24.5 104.2 24.4 C 104.2 24.4 104.2 24.4 104.2 24.4 Z M 105.5 23.1 C 105.5 23.2 105.5 23.2 105.5 23.1 C 105.5 23.1 105.5 23.1 105.5 23.1 Z M 107.3 26.5 C 107.3 26.6 107.3 26.6 107.3 26.5 C 107.3 26.5 107.3 26.5 107.3 26.5 Z M 106.7 22.1 C 106.6 22.1 106.6 22.1 106.7 22.1 C 106.7 22.1 106.7 22.1 106.7 22.1 Z M 106.4 44.7 C 106.4 44.7 106.4 44.7 106.4 44.7 C 106.4 44.7 106.4 44.7 106.4 44.7 Z M 103.9 45.0 C 104.0 45.0 104.0 45.0 103.9 45.0 C 103.9 45.0 103.9 45.0 103.9 45.0 Z M 102.4 24.0 C 101.9 23.4 103.1 22.7 102.4 24.0 M 102.7 29.3 C 102.8 29.3 102.8 29.3 102.7 29.3 C 102.7 29.3 102.7 29.3 102.7 29.3 Z M 102.1 17.0 C 103.0 16.4 101.8 18.6 102.1 17.0 C 102.1 17.0 102.1 17.0 102.1 17.0 Z M 106.5 18.5 C 106.5 18.4 106.5 18.4 106.5 18.5 C 106.5 18.5 106.5 18.5 106.5 18.5 Z M 106.0 17.4 C 106.0 17.3 106.0 17.3 106.0 17.4 C 106.0 17.4 106.0 17.4 106.0 17.4 Z M 101.9 12.7 C 101.9 12.6 101.9 12.6 101.9 12.7 M 101.8 29.8 C 102.3 29.2 102.2 29.3 101.8 29.8 M 101.9 15.9 C 101.9 15.9 101.9 15.9 101.9 15.9 C 101.9 15.9 101.9 15.9 101.9 15.9 Z M 100.8 11.9 C 100.8 11.9 100.8 11.9 100.8 11.9 C 100.8 11.9 100.8 11.9 100.8 11.9 Z M 102.5 33.0 C 103.7 32.9 103.4 33.5 102.5 33.0 M 102.9 41.9 C 103.0 41.9 103.0 41.9 102.9 41.9 C 102.9 41.9 102.9 41.9 102.9 41.9 Z M 95.8 8.4 C 96.9 10.6 97.8 9.1 97.9 9.1 C 96.1 10.9 100.0 9.6 100.0 9.0 C 100.3 8.8 101.5 3.8 98.5 5.1 C 97.8 5.1 98.0 4.3 97.7 4.0 C 94.5 2.6 99.1 6.0 95.5 4.6 C 95.0 4.0 96.2 2.1 94.0 3.1 C 94.0 2.9 92.0 1.7 92.6 2.8 C 91.8 1.7 90.9 2.8 89.9 2.9 C 89.0 2.3 91.0 1.4 87.2 2.4 C 85.6 0.6 84.9 3.7 83.1 1.8 C 81.9 1.7 80.1 4.9 82.9 3.1 C 82.5 3.3 83.4 4.8 80.7 4.3 C 81.1 3.9 82.6 0.6 78.3 2.2 C 77.6 2.1 75.9 2.9 75.5 2.6 C 77.8 2.2 72.5 1.2 73.0 2.1 C 69.6 1.5 71.6 2.9 69.1 1.8 C 67.0 1.8 69.8 3.3 67.2 2.4 C 65.3 2.6 66.6 1.8 66.8 1.9 C 65.1 1.7 64.5 2.3 64.0 2.2 C 63.6 2.1 62.8 1.4 62.4 2.2 C 60.7 3.7 62.3 5.2 61.5 6.6 C 62.8 7.3 62.1 5.5 62.9 6.6 C 63.6 5.7 63.0 6.7 66.5 6.5 C 66.5 6.2 65.6 5.6 66.5 5.5 C 67.8 5.6 66.9 8.1 69.1 6.4 C 66.4 5.8 72.8 5.6 70.4 5.0 C 73.4 4.7 71.2 5.2 73.5 5.8 C 73.3 4.2 73.6 7.6 74.5 6.3 C 74.7 7.0 78.2 6.7 75.7 5.7 C 79.3 5.2 77.0 6.2 78.3 7.0 C 80.0 7.2 78.4 4.3 79.5 6.4 C 81.7 7.3 79.6 5.4 81.2 7.0 C 80.4 5.5 83.3 7.0 82.5 5.4 C 87.6 5.3 82.1 7.1 85.2 6.0 C 84.3 5.9 84.7 8.0 86.5 6.7 C 85.8 4.2 88.6 8.9 87.5 5.6 C 92.8 4.9 88.5 7.0 90.7 7.2 C 91.3 7.3 90.2 6.1 90.7 6.1 C 93.7 6.9 91.0 7.4 92.7 6.2 C 95.5 6.3 92.9 7.5 94.3 8.1 C 94.6 7.4 96.4 6.8 95.8 8.4 M 93.8 6.7 C 93.1 7.1 93.6 6.1 93.8 6.7 M 98.5 10.4 C 97.7 10.3 98.6 9.8 98.5 10.4 M 91.5 6.8 C 90.7 7.2 91.4 5.9 91.5 6.8 M 71.4 5.6 C 72.8 5.6 70.8 6.0 71.4 5.6 M 96.6 9.0 C 95.5 9.0 96.9 8.1 96.6 9.0 M 98.3 8.6 C 98.2 8.6 98.2 8.6 98.3 8.6 M 69.5 6.9 C 69.4 6.9 69.4 6.9 69.5 6.9 M 74.7 7.0 C 73.6 6.9 75.4 6.6 74.7 7.0 M 74.9 1.6 C 73.8 1.5 75.6 1.2 74.9 1.6 M 66.6 7.0 C 65.5 7.4 66.3 6.4 66.6 7.0 M 63.7 5.8 C 62.7 6.3 63.0 5.3 63.7 5.8 M 94.8 5.1 C 94.8 5.0 94.8 5.0 94.8 5.1 C 94.8 5.1 94.8 5.1 94.8 5.1 Z M 86.1 2.7 C 87.4 3.3 84.5 2.1 86.1 2.7 M 87.9 6.3 C 87.2 5.2 89.4 6.4 87.9 6.3 C 87.9 6.3 87.9 6.3 87.9 6.3 Z M 89.5 5.9 C 89.6 5.8 89.6 5.8 89.5 5.9 C 89.5 5.9 89.5 5.9 89.5 5.9 Z M 83.7 5.7 C 83.8 5.7 83.8 5.7 83.7 5.7 C 83.7 5.7 83.7 5.7 83.7 5.7 Z M 85.1 5.6 C 85.6 5.4 85.9 5.8 85.1 5.6 C 85.1 5.6 85.1 5.6 85.1 5.6 Z M 76.3 2.1 C 76.8 1.9 76.9 2.3 76.3 2.1 C 76.3 2.1 76.3 2.1 76.3 2.1 Z M 87.0 5.3 C 87.2 4.2 87.8 6.0 87.0 5.3 C 87.0 5.3 87.0 5.3 87.0 5.3 Z M 80.1 2.6 C 79.6 2.9 79.1 1.6 80.1 2.6 M 68.4 6.7 C 67.9 7.0 67.4 5.7 68.4 6.7 M 79.9 7.0 C 79.4 7.3 78.9 6.0 79.9 7.0 M 93.2 7.1 C 93.2 7.0 93.2 7.0 93.2 7.1 M 88.3 1.7 C 87.5 2.1 87.9 1.2 88.3 1.7 M 98.7 4.7 C 97.7 4.6 98.6 4.0 98.7 4.7 M 70.0 1.7 C 70.1 2.0 68.8 1.6 70.0 1.7 M 78.5 5.3 C 77.5 5.2 76.5 4.6 78.6 4.6 C 78.7 4.9 78.1 5.1 78.5 5.3 C 78.5 5.3 78.5 5.3 78.5 5.3 Z M 74.9 2.8 C 74.8 2.7 74.8 2.7 74.9 2.8 M 76.8 6.3 C 76.6 6.2 76.6 6.2 76.8 6.3 M 70.9 6.2 C 70.7 6.0 70.7 6.0 70.9 6.2 M 70.1 6.5 C 70.1 6.5 70.1 6.5 70.1 6.5 C 70.1 6.5 70.1 6.5 70.1 6.5 Z M 63.7 7.0 C 63.7 6.9 63.7 6.9 63.7 7.0 C 63.7 7.0 63.7 7.0 63.7 7.0 Z M 72.7 6.1 C 72.8 6.0 72.8 6.0 72.7 6.1 C 72.7 6.1 72.7 6.1 72.7 6.1 Z M 67.4 1.9 C 67.4 1.9 67.4 1.9 67.4 1.9 C 67.4 1.9 67.4 1.9 67.4 1.9 Z M 68.1 2.6 C 68.1 2.5 68.1 2.5 68.1 2.6 C 68.1 2.6 68.1 2.6 68.1 2.6 Z M 95.5 8.2 C 94.5 8.6 96.0 6.3 95.5 8.2 M 65.2 2.5 C 64.4 1.8 66.7 2.4 65.2 2.5 C 65.2 2.5 65.2 2.5 65.2 2.5 Z M 73.4 5.1 C 73.4 5.0 73.4 5.0 73.4 5.1 M 69.8 6.4 C 69.7 6.3 69.7 6.3 69.8 6.4 M 87.9 7.3 C 87.9 7.2 87.9 7.2 87.9 7.3 M 65.2 6.2 C 62.5 5.9 66.5 4.6 65.2 6.2 M 89.2 6.3 C 89.2 6.4 89.2 6.4 89.2 6.3 M 82.2 4.2 C 79.6 4.2 83.1 3.6 82.2 4.2 M 77.3 5.5 C 77.3 5.5 77.3 5.5 77.3 5.5 C 77.3 5.5 77.3 5.5 77.3 5.5 Z M 80.0 5.5 C 81.4 5.4 80.4 5.8 80.0 5.5 C 80.0 5.5 80.0 5.5 80.0 5.5 Z M 94.8 6.8 C 93.4 6.1 96.5 7.1 94.8 6.8 C 94.8 6.8 94.8 6.8 94.8 6.8 Z M 66.5 3.7 C 66.5 3.6 66.5 3.6 66.5 3.7 C 66.5 3.7 66.5 3.7 66.5 3.7 Z M 73.1 6.8 C 73.9 6.5 73.5 7.1 73.1 6.8 C 73.1 6.8 73.1 6.8 73.1 6.8 Z M 62.7 7.0 C 63.5 6.7 63.1 7.3 62.7 7.0 C 62.7 7.0 62.7 7.0 62.7 7.0 Z M 96.4 7.8 C 92.5 3.4 102.7 12.0 96.4 7.8 C 96.4 7.8 96.4 7.8 96.4 7.8 Z M 78.9 6.3 C 79.0 6.2 79.0 6.2 78.9 6.3 C 78.9 6.3 78.9 6.3 78.9 6.3 Z M 91.1 7.4 C 91.2 7.3 91.2 7.3 91.1 7.4 C 91.1 7.4 91.1 7.4 91.1 7.4 Z M 92.8 6.6 C 92.8 6.6 92.8 6.6 92.8 6.6 C 92.8 6.6 92.8 6.6 92.8 6.6 Z M 93.1 2.3 C 93.2 2.3 93.2 2.3 93.1 2.3 C 93.1 2.3 93.1 2.3 93.1 2.3 Z M 92.2 4.2 C 92.3 4.0 92.3 4.0 92.2 4.2 C 92.2 4.2 92.2 4.2 92.2 4.2 Z M 95.9 4.3 C 96.0 4.3 96.0 4.3 95.9 4.3 C 95.9 4.3 95.9 4.3 95.9 4.3 Z M 96.0 3.8 C 96.1 3.8 96.1 3.8 96.0 3.8 C 96.0 3.8 96.0 3.8 96.0 3.8 Z M 69.7 5.2 C 69.8 5.1 69.8 5.1 69.7 5.2 C 69.7 5.2 69.7 5.2 69.7 5.2 Z M 71.9 3.4 C 70.5 4.1 72.4 2.5 71.9 3.4 C 71.9 3.4 71.9 3.4 71.9 3.4 Z M 86.2 4.3 C 84.6 4.5 87.2 3.8 86.2 4.3 C 86.2 4.3 86.2 4.3 86.2 4.3 Z M 84.4 2.0 C 84.4 2.0 84.4 2.0 84.4 2.0 C 84.4 2.0 84.4 2.0 84.4 2.0 Z M 92.5 7.6 C 92.6 7.5 92.6 7.5 92.5 7.6 C 92.5 7.6 92.5 7.6 92.5 7.6 Z M 94.4 7.3 C 94.8 6.5 94.8 8.0 94.4 7.3 M 83.0 6.9 C 83.0 6.7 83.0 6.7 83.0 6.9 C 83.0 6.9 83.0 6.9 83.0 6.9 Z M 74.6 5.4 C 74.6 5.4 74.6 5.4 74.6 5.4 C 74.6 5.4 74.6 5.4 74.6 5.4 Z M 66.7 6.0 C 66.7 5.9 66.7 5.9 66.7 6.0 C 66.7 6.0 66.7 6.0 66.7 6.0 Z M 77.6 6.7 C 77.6 6.6 77.6 6.6 77.6 6.7 C 77.6 6.7 77.6 6.7 77.6 6.7 Z M 81.4 5.9 C 81.4 5.8 81.4 5.8 81.4 5.9 C 81.4 5.9 81.4 5.9 81.4 5.9 Z M 64.9 4.8 C 65.0 4.7 65.0 4.7 64.9 4.8 C 64.9 4.8 64.9 4.8 64.9 4.8 Z M 76.7 6.9 C 76.7 6.8 76.7 6.8 76.7 6.9 C 76.7 6.9 76.7 6.9 76.7 6.9 Z M 74.4 4.0 C 74.5 3.9 74.5 3.9 74.4 4.0 C 74.4 4.0 74.4 4.0 74.4 4.0 Z M 93.8 8.5 C 93.9 8.5 93.9 8.5 93.8 8.5 C 93.8 8.5 93.8 8.5 93.8 8.5 Z M 64.8 6.0 C 64.9 5.9 64.9 5.9 64.8 6.0 C 64.8 6.0 64.8 6.0 64.8 6.0 Z M 64.3 6.8 C 64.4 6.7 64.4 6.7 64.3 6.8 C 64.3 6.8 64.3 6.8 64.3 6.8 Z M 70.0 2.5 C 72.8 3.0 67.4 2.7 69.5 3.7 C 65.5 3.9 69.4 2.4 70.0 2.5 C 70.0 2.5 70.0 2.5 70.0 2.5 Z M 60.6 7.1 C 62.2 5.9 62.1 4.7 61.5 3.4 C 60.7 2.8 60.7 5.3 60.7 3.2 C 62.5 2.8 59.9 0.1 60.0 2.8 C 57.6 3.1 59.6 1.1 58.2 2.1 C 55.7 2.4 57.0 1.6 55.0 1.8 C 53.9 3.2 53.9 1.1 53.4 2.4 C 54.4 0.9 51.4 2.8 51.3 2.2 C 53.1 1.2 44.7 2.1 49.2 2.6 C 47.4 3.3 47.7 2.0 47.1 1.9 C 46.3 2.7 44.0 1.2 42.9 2.0 C 43.1 2.2 43.7 2.3 43.8 2.6 C 44.2 3.1 42.5 2.5 42.7 2.5 C 41.9 2.8 38.9 3.7 42.1 2.2 C 42.3 1.4 39.5 2.5 39.6 1.8 C 36.8 1.8 38.9 3.3 37.7 2.2 C 35.7 2.2 34.3 2.2 34.3 2.3 C 33.0 2.2 32.8 1.4 31.7 2.2 C 29.3 0.6 30.0 5.2 29.1 2.1 C 28.4 2.8 27.7 0.8 27.8 2.7 C 28.6 1.9 22.4 1.2 25.2 2.6 C 24.4 3.1 20.8 0.7 21.3 2.7 C 20.2 4.1 20.3 5.5 23.1 6.8 C 22.8 5.7 26.2 7.9 24.0 6.0 C 21.4 5.4 29.2 5.4 27.4 6.0 C 26.9 8.3 30.3 4.6 31.6 6.3 C 30.5 5.4 35.4 4.9 34.0 6.6 C 34.9 6.7 35.1 5.9 36.1 6.9 C 33.2 6.8 37.2 5.1 37.0 6.2 C 36.5 6.8 40.9 7.3 40.4 6.4 C 38.9 4.0 41.5 6.9 42.3 5.9 C 44.7 5.4 41.9 7.9 43.7 6.2 C 44.2 6.5 47.3 6.5 45.3 7.0 C 44.6 6.8 47.2 4.4 47.6 6.4 C 44.1 7.5 51.5 7.0 50.3 6.4 C 45.1 5.3 55.9 5.2 51.8 6.3 C 54.1 7.4 51.1 6.7 54.0 6.2 C 53.6 5.6 55.8 5.0 55.3 6.3 C 55.8 8.1 56.1 3.7 57.9 6.3 C 58.1 7.4 61.4 5.5 60.1 6.7 C 60.0 6.9 60.5 7.1 60.6 7.1 M 59.6 6.9 C 59.9 6.4 60.2 7.4 59.6 6.9 M 60.0 6.5 C 60.0 6.5 60.0 6.5 60.0 6.5 C 60.0 6.5 60.0 6.5 60.0 6.5 Z M 54.4 6.2 C 54.4 6.2 54.4 6.2 54.4 6.2 C 54.4 6.2 54.4 6.2 54.4 6.2 Z M 50.0 1.4 C 50.0 1.5 50.0 1.5 50.0 1.4 C 50.0 1.4 50.0 1.4 50.0 1.4 Z M 50.7 6.1 C 50.7 6.1 50.7 6.1 50.7 6.1 C 50.7 6.1 50.7 6.1 50.7 6.1 Z M 56.4 5.9 C 56.4 5.9 56.4 5.9 56.4 5.9 C 56.4 5.9 56.4 5.9 56.4 5.9 Z M 51.0 6.7 C 50.7 6.0 52.3 7.3 50.9 6.9 C 50.9 6.8 51.1 6.8 51.0 6.7 M 46.1 7.0 C 46.1 6.9 46.1 6.9 46.1 7.0 M 35.4 1.5 C 35.4 1.4 35.4 1.4 35.4 1.5 M 34.5 7.1 C 34.4 7.0 34.4 7.0 34.5 7.1 M 41.3 6.3 C 39.8 6.4 40.9 6.0 41.3 6.3 M 30.6 6.7 C 32.5 7.1 28.6 7.1 30.6 6.7 M 28.8 7.1 C 28.7 7.0 28.7 7.0 28.8 7.1 M 37.2 6.8 C 37.3 6.8 37.3 6.8 37.2 6.8 C 37.2 6.8 37.2 6.8 37.2 6.8 Z M 41.9 6.6 C 43.9 7.0 40.0 7.3 41.9 6.6 M 53.7 6.8 C 52.7 7.2 53.7 5.9 53.7 6.8 M 55.9 6.4 C 56.0 6.4 56.0 6.4 55.9 6.4 C 55.9 6.4 55.9 6.4 55.9 6.4 Z M 33.6 6.7 C 33.7 6.7 33.7 6.7 33.6 6.7 C 33.6 6.7 33.6 6.7 33.6 6.7 Z M 31.5 6.8 C 31.5 6.8 31.5 6.8 31.5 6.8 C 31.5 6.8 31.5 6.8 31.5 6.8 Z M 27.9 1.6 C 28.0 1.6 28.0 1.6 27.9 1.6 C 27.9 1.6 27.9 1.6 27.9 1.6 Z M 54.3 4.3 C 55.7 4.6 52.8 6.0 53.1 4.7 C 53.0 4.2 54.1 4.4 54.3 4.3 M 43.4 5.0 C 43.0 3.2 44.8 7.4 43.4 5.0 M 28.5 5.9 C 27.1 3.8 30.4 7.4 28.5 5.9 M 25.0 6.3 C 23.9 5.9 32.4 6.1 26.3 6.6 C 25.7 7.0 25.3 6.5 25.0 6.3 M 46.1 6.2 C 45.7 5.2 48.4 6.6 46.1 6.2 M 37.1 3.2 C 36.4 3.9 34.6 4.4 35.4 3.3 C 35.4 2.0 38.0 2.7 37.1 3.2 M 59.1 5.9 C 57.9 7.4 59.2 4.5 59.1 5.9 M 53.5 5.7 C 53.4 5.8 53.4 5.8 53.5 5.7 C 53.5 5.7 53.5 5.7 53.5 5.7 Z M 51.2 6.0 C 51.1 5.9 51.1 5.9 51.2 6.0 M 58.2 7.2 C 58.1 7.1 58.1 7.1 58.2 7.2 M 37.2 4.9 C 37.1 4.7 37.1 4.7 37.2 4.9 M 41.7 5.9 C 39.6 4.3 42.9 5.6 41.7 5.9 M 47.1 2.9 C 46.4 2.2 48.4 2.8 47.1 2.9 M 38.2 6.5 C 36.6 5.0 40.3 5.1 38.2 6.5 M 42.8 6.1 C 42.7 6.1 42.7 6.1 42.8 6.1 C 42.8 6.1 42.8 6.1 42.8 6.1 Z M 36.6 3.1 C 36.6 3.0 36.6 3.0 36.6 3.1 C 36.6 3.1 36.6 3.1 36.6 3.1 Z M 35.9 3.1 C 36.0 3.1 36.0 3.1 35.9 3.1 C 35.9 3.1 35.9 3.1 35.9 3.1 Z M 36.3 6.7 C 36.3 6.6 36.3 6.6 36.3 6.7 C 36.3 6.7 36.3 6.7 36.3 6.7 Z M 56.1 2.4 C 54.5 2.3 57.3 2.1 56.1 2.4 C 56.1 2.4 56.1 2.4 56.1 2.4 Z M 49.2 6.7 C 46.7 5.6 51.0 5.6 49.2 6.7 C 49.2 6.7 49.2 6.7 49.2 6.7 Z M 46.3 4.8 C 46.3 4.7 46.3 4.7 46.3 4.8 C 46.3 4.8 46.3 4.8 46.3 4.8 Z M 39.1 7.4 C 39.1 7.3 39.1 7.3 39.1 7.4 C 39.1 7.4 39.1 7.4 39.1 7.4 Z M 55.3 2.2 C 55.3 2.1 55.3 2.1 55.3 2.2 C 55.3 2.2 55.3 2.2 55.3 2.2 Z M 31.9 5.9 C 31.9 5.8 31.9 5.8 31.9 5.9 C 31.9 5.9 31.9 5.9 31.9 5.9 Z M 40.7 2.8 C 40.2 3.4 40.6 2.4 40.7 2.8 C 40.7 2.8 40.7 2.8 40.7 2.8 Z M 38.4 2.8 C 38.4 2.8 38.4 2.8 38.4 2.8 C 38.4 2.8 38.4 2.8 38.4 2.8 Z M 28.2 7.2 C 28.2 7.2 28.2 7.2 28.2 7.2 C 28.2 7.2 28.2 7.2 28.2 7.2 Z M 32.6 1.4 C 32.5 1.4 32.5 1.4 32.6 1.4 C 32.6 1.4 32.6 1.4 32.6 1.4 Z M 30.6 3.2 C 30.7 3.1 30.7 3.1 30.6 3.2 C 30.6 3.2 30.6 3.2 30.6 3.2 Z M 36.7 6.3 C 34.4 6.6 37.2 5.6 36.7 6.3 C 36.7 6.3 36.7 6.3 36.7 6.3 Z M 24.1 3.6 C 24.0 3.5 24.0 3.5 24.1 3.6 C 24.1 3.6 24.1 3.6 24.1 3.6 Z M 22.7 5.7 C 22.7 5.6 22.7 5.6 22.7 5.7 C 22.7 5.7 22.7 5.7 22.7 5.7 Z M 22.1 6.8 C 22.1 6.7 22.1 6.7 22.1 6.8 C 22.1 6.8 22.1 6.8 22.1 6.8 Z M 51.3 3.8 C 51.3 3.9 51.3 3.9 51.3 3.8 C 51.3 3.8 51.3 3.8 51.3 3.8 Z M 52.2 7.1 C 52.2 7.1 52.2 7.1 52.2 7.1 C 52.2 7.1 52.2 7.1 52.2 7.1 Z M 49.1 7.2 C 49.1 7.3 49.1 7.3 49.1 7.2 C 49.1 7.2 49.1 7.2 49.1 7.2 Z M 51.8 1.8 C 51.9 1.9 51.9 1.9 51.8 1.8 C 51.8 1.8 51.8 1.8 51.8 1.8 Z M 40.1 4.6 C 40.2 4.7 40.2 4.7 40.1 4.6 C 40.1 4.6 40.1 4.6 40.1 4.6 Z M 39.0 3.3 C 39.1 3.3 39.1 3.3 39.0 3.3 C 39.0 3.3 39.0 3.3 39.0 3.3 Z M 41.7 1.5 C 41.7 1.5 41.7 1.5 41.7 1.5 C 41.7 1.5 41.7 1.5 41.7 1.5 Z M 38.2 2.1 C 38.2 2.2 38.2 2.2 38.2 2.1 C 38.2 2.1 38.2 2.1 38.2 2.1 Z M 59.7 2.4 C 59.7 2.4 59.7 2.4 59.7 2.4 C 59.7 2.4 59.7 2.4 59.7 2.4 Z M 59.9 4.9 C 60.0 4.9 60.0 4.9 59.9 4.9 C 59.9 4.9 59.9 4.9 59.9 4.9 Z M 39.8 6.4 C 39.2 7.0 38.7 5.7 39.8 6.4 M 44.2 6.1 C 44.2 6.1 44.2 6.1 44.2 6.1 C 44.2 6.1 44.2 6.1 44.2 6.1 Z M 32.3 6.3 C 31.7 5.3 34.4 6.9 32.3 6.3 C 32.3 6.3 32.3 6.3 32.3 6.3 Z M 34.6 2.1 C 34.6 2.1 34.6 2.1 34.6 2.1 C 34.6 2.1 34.6 2.1 34.6 2.1 Z M 33.4 2.6 C 33.4 2.5 33.4 2.5 33.4 2.6 C 33.4 2.6 33.4 2.6 33.4 2.6 Z M 26.8 5.3 C 26.6 5.2 26.6 5.2 26.8 5.3 M 44.8 7.0 C 44.1 6.6 44.3 6.7 44.8 7.0 M 30.8 6.3 C 30.8 6.3 30.8 6.3 30.8 6.3 C 30.8 6.3 30.8 6.3 30.8 6.3 Z M 24.9 5.8 C 25.0 5.8 25.0 5.8 24.9 5.8 C 24.9 5.8 24.9 5.8 24.9 5.8 Z M 48.0 6.3 C 47.8 5.1 48.5 5.4 48.0 6.3 M 56.8 5.9 C 56.8 5.9 56.8 5.9 56.8 5.9 C 56.8 5.9 56.8 5.9 56.8 5.9 Z M 17.6 6.1 C 22.0 7.1 21.1 4.7 21.4 4.2 C 22.1 3.4 21.3 3.0 20.2 2.5 C 19.0 0.9 18.8 4.4 17.9 2.8 C 16.3 0.7 16.8 4.9 15.8 2.7 C 15.9 2.0 14.1 2.9 14.3 3.0 C 13.1 2.2 12.2 4.8 12.2 5.0 C 11.4 5.0 10.0 3.2 9.0 6.0 C 7.9 7.5 5.9 6.7 7.4 7.3 C 5.2 7.2 7.0 8.3 5.8 9.1 C 4.5 9.3 6.9 9.7 4.5 10.4 C 4.9 11.1 4.8 10.8 4.4 10.9 C 4.0 11.0 3.1 12.0 3.1 13.9 C 3.7 12.2 3.8 15.9 3.0 15.0 C 2.3 13.5 3.0 16.7 2.3 18.4 C 2.7 18.9 3.9 21.2 2.5 20.8 C 0.9 22.7 3.4 22.9 2.1 23.9 C 1.6 24.7 2.7 25.1 2.6 25.7 C 1.7 26.6 2.3 27.4 2.0 29.8 C 1.6 35.1 4.6 30.6 4.9 32.7 C 5.3 33.0 8.5 30.1 6.1 31.2 C 6.8 30.8 4.3 26.5 7.0 28.7 C 5.9 27.0 8.0 29.4 6.8 25.1 C 4.9 30.9 6.1 18.8 6.9 24.1 C 7.5 23.3 7.4 21.3 6.9 22.7 C 5.2 23.2 7.8 19.5 5.7 21.3 C 6.3 18.5 4.5 19.2 5.9 18.7 C 8.1 18.3 5.2 18.7 6.0 17.6 C 6.4 15.0 8.6 17.5 7.3 15.8 C 8.9 13.8 6.4 15.0 6.4 14.1 C 5.0 13.4 8.6 12.0 8.0 14.0 C 7.6 12.7 8.6 14.2 8.4 12.6 C 6.7 12.7 10.5 12.1 9.3 11.8 C 9.7 10.7 8.7 10.6 8.9 10.3 C 10.1 8.9 10.7 10.4 10.3 9.4 C 10.2 8.7 11.9 9.6 11.8 9.1 C 10.4 10.1 12.3 7.1 12.8 7.7 C 11.9 8.3 14.0 9.1 14.2 7.8 C 12.2 5.3 15.6 8.2 16.0 7.0 C 15.0 5.4 19.2 6.2 17.8 7.2 C 17.9 7.1 17.6 6.1 17.6 6.1 M 12.1 8.7 C 10.9 9.3 13.2 7.5 12.1 8.7 M 12.4 9.0 C 11.6 8.8 13.7 8.7 12.4 9.2 C 12.4 9.2 12.5 9.0 12.4 9.0 M 8.7 13.1 C 8.4 12.7 9.3 12.6 8.7 13.1 M 7.3 13.6 C 6.5 14.3 7.7 12.4 7.3 13.6 M 6.3 28.0 C 3.7 26.5 7.8 26.4 6.3 28.0 M 7.2 17.5 C 7.0 16.1 8.2 18.2 7.2 17.5 M 6.6 17.0 C 6.3 16.3 7.2 17.0 6.6 17.0 M 6.3 24.3 C 6.3 24.5 6.3 24.5 6.3 24.3 C 6.3 24.3 6.3 24.3 6.3 24.3 Z M 6.2 29.6 C 6.3 29.6 6.3 29.6 6.2 29.6 C 6.2 29.6 6.2 29.6 6.2 29.6 Z M 6.2 19.7 C 6.8 18.5 6.3 21.8 6.2 19.7 C 6.2 19.7 6.2 19.7 6.2 19.7 Z M 2.3 27.5 C 2.3 27.4 2.3 27.4 2.3 27.5 C 2.3 27.5 2.3 27.5 2.3 27.5 Z M 12.5 7.1 C 12.5 7.0 12.5 7.0 12.5 7.1 C 12.5 7.1 12.5 7.1 12.5 7.1 Z M 16.7 6.6 C 16.6 6.3 17.4 6.8 16.7 6.6 C 16.7 6.6 16.7 6.6 16.7 6.6 Z M 19.8 3.3 C 19.9 3.3 19.9 3.3 19.8 3.3 C 19.8 3.3 19.8 3.3 19.8 3.3 Z M 13.4 5.1 C 13.5 5.1 13.5 5.1 13.4 5.1 C 13.4 5.1 13.4 5.1 13.4 5.1 Z M 13.5 7.1 C 14.8 8.1 11.8 7.5 13.5 7.1 C 13.5 7.1 13.5 7.1 13.5 7.1 Z M 2.8 17.9 C 3.4 18.0 2.4 19.0 2.8 17.9 C 2.8 17.9 2.8 17.9 2.8 17.9 Z M 6.7 13.6 C 6.9 13.9 6.3 14.2 6.7 13.6 C 6.7 13.6 6.7 13.6 6.7 13.6 Z M 9.5 12.3 C 9.7 12.7 9.0 12.7 9.5 12.3 C 9.5 12.3 9.5 12.3 9.5 12.3 Z M 16.7 7.0 C 16.6 7.1 16.6 7.1 16.7 7.0 C 16.7 7.0 16.7 7.0 16.7 7.0 Z M 15.1 6.3 C 16.4 7.3 13.5 6.0 15.1 6.3 C 15.1 6.3 15.1 6.3 15.1 6.3 Z M 16.7 5.6 C 16.1 5.2 18.0 5.6 16.7 5.6 M 15.3 3.8 C 14.1 4.6 15.9 1.2 15.3 3.8 C 15.3 3.8 15.3 3.8 15.3 3.8 Z M 7.8 7.2 C 7.7 7.2 7.7 7.2 7.8 7.2 C 7.8 7.2 7.8 7.2 7.8 7.2 Z M 11.0 9.5 C 10.1 10.2 11.4 8.8 11.0 9.5 C 11.0 9.5 11.0 9.5 11.0 9.5 Z M 19.8 6.8 C 18.6 6.9 20.5 6.5 19.8 6.8 C 19.8 6.8 19.8 6.8 19.8 6.8 Z M 5.9 11.8 C 5.1 14.0 6.0 10.3 5.9 11.8 C 5.9 11.8 5.9 11.8 5.9 11.8 Z M 5.7 19.0 C 5.7 19.1 5.7 19.1 5.7 19.0 C 5.7 19.0 5.7 19.0 5.7 19.0 Z M 6.2 20.4 C 6.1 20.5 6.1 20.5 6.2 20.4 C 6.2 20.4 6.2 20.4 6.2 20.4 Z M 4.7 27.9 C 4.7 28.0 4.7 28.0 4.7 27.9 C 4.7 27.9 4.7 27.9 4.7 27.9 Z M 6.7 21.8 C 6.7 21.9 6.7 21.9 6.7 21.8 C 6.7 21.8 6.7 21.8 6.7 21.8 Z M 6.4 27.3 C 6.3 27.4 6.3 27.4 6.4 27.3 C 6.4 27.3 6.4 27.3 6.4 27.3 Z M 7.5 26.4 C 7.5 26.5 7.5 26.5 7.5 26.4 C 7.5 26.4 7.5 26.4 7.5 26.4 Z M 2.3 15.8 C 2.2 15.9 2.2 15.9 2.3 15.8 C 2.3 15.8 2.3 15.8 2.3 15.8 Z M 15.1 7.9 C 15.0 7.8 15.0 7.8 15.1 7.9 C 15.1 7.9 15.1 7.9 15.1 7.9 Z M 5.9 26.8 C 5.8 26.8 5.8 26.8 5.9 26.8 C 5.9 26.8 5.9 26.8 5.9 26.8 Z M 5.4 15.8 C 4.3 15.6 7.0 15.4 5.4 16.0 C 5.4 16.0 5.6 15.8 5.4 15.8 M 3.3 16.7 C 3.3 16.6 3.3 16.6 3.3 16.7 C 3.3 16.7 3.3 16.7 3.3 16.7 Z M 3.9 12.0 C 3.9 12.0 3.9 12.0 3.9 12.0 C 3.9 12.0 3.9 12.0 3.9 12.0 Z M 7.0 21.0 C 7.6 20.9 6.5 22.2 7.0 20.9 M 2.7 27.9 C 3.4 27.7 2.3 29.1 2.7 27.7 M 21.2 6.3 C 21.3 5.8 22.1 6.6 21.2 6.3 M 3.9 10.6 C 3.6 10.2 4.7 9.8 3.9 10.6 M 4.2 13.6 C 4.9 13.6 3.4 14.5 4.2 13.4 M 2.8 23.6 C 2.8 23.7 2.8 23.7 2.8 23.6 C 2.8 23.6 2.8 23.6 2.8 23.6 Z M 9.7 10.7 C 9.7 10.7 9.7 10.7 9.7 10.7 C 9.7 10.7 9.7 10.7 9.7 10.7 Z M 6.0 14.5 C 7.0 14.2 5.3 15.2 6.0 14.5 M 9.7 8.5 C 11.3 8.5 8.2 9.4 9.7 8.5 M 2.5 30.4 C 3.8 29.1 1.8 31.4 2.5 30.4 M 5.7 22.9 C 7.1 21.4 5.0 24.0 5.7 22.9 M 8.6 11.1 C 9.2 11.5 7.6 11.8 8.6 11.1 M 18.4 6.6 C 19.5 6.6 17.2 7.3 18.4 6.6 M 2.8 20.1 C 2.8 20.2 2.8 20.2 2.8 20.1 C 2.8 20.1 2.8 20.1 2.8 20.1 Z M 14.2 2.4 C 14.1 2.3 14.1 2.3 14.2 2.4 C 14.2 2.4 14.2 2.4 14.2 2.4 Z M 6.7 32.1 C 6.7 32.2 6.7 32.2 6.7 32.1 C 6.7 32.1 6.7 32.1 6.7 32.1 Z M 5.2 22.0 C 5.1 22.0 5.1 22.0 5.2 22.0 C 5.2 22.0 5.2 22.0 5.2 22.0 Z M 6.9 29.6 C 6.8 29.7 6.8 29.7 6.9 29.6 C 6.9 29.6 6.9 29.6 6.9 29.6 Z M 4.4 18.0 C 4.3 18.0 4.3 18.0 4.4 18.0 C 4.4 18.0 4.4 18.0 4.4 18.0 Z M 7.7 17.7 C 7.7 17.7 7.7 17.7 7.7 17.7 C 7.7 17.7 7.7 17.7 7.7 17.7 Z M 7.0 14.3 C 7.0 14.3 7.0 14.3 7.0 14.3 C 7.0 14.3 7.0 14.3 7.0 14.3 Z M 7.3 19.3 C 7.3 21.6 6.3 18.1 7.3 19.3 C 7.3 19.3 7.3 19.3 7.3 19.3 Z M 4.6 15.1 C 4.6 15.1 4.6 15.1 4.6 15.1 C 4.6 15.1 4.6 15.1 4.6 15.1 Z M 6.9 15.4 C 7.5 16.8 5.2 15.6 6.9 15.4 M 10.5 10.5 C 10.6 11.2 9.8 10.1 10.5 10.5 M 10.0 5.4 C 10.0 5.3 10.0 5.3 10.0 5.4 C 10.0 5.4 10.0 5.4 10.0 5.4 Z M 9.5 6.2 C 9.4 6.2 9.4 6.2 9.5 6.2 C 9.5 6.2 9.5 6.2 9.5 6.2 Z M 11.7 9.7 C 11.7 9.7 11.7 9.7 11.7 9.7 C 11.7 9.7 11.7 9.7 11.7 9.7 Z M 8.6 5.2 C 8.5 5.3 8.5 5.3 8.6 5.2 C 8.6 5.2 8.6 5.2 8.6 5.2 Z M 7.8 17.0 C 7.7 17.0 7.7 17.0 7.8 17.0 C 7.8 17.0 7.8 17.0 7.8 17.0 Z M 7.4 30.9 C 7.4 30.9 7.4 30.9 7.4 30.9 C 7.4 30.9 7.4 30.9 7.4 30.9 Z M 17.7 3.2 C 17.6 3.2 17.6 3.2 17.7 3.2 C 17.7 3.2 17.7 3.2 17.7 3.2 Z M 6.3 17.9 C 6.3 17.9 6.3 17.9 6.3 17.9 C 6.3 17.9 6.3 17.9 6.3 17.9 Z M 12.0 4.5 C 11.9 4.5 11.9 4.5 12.0 4.5 C 12.0 4.5 12.0 4.5 12.0 4.5 Z M 6.7 17.2 C 6.7 17.2 6.7 17.2 6.7 17.2 C 6.7 17.2 6.7 17.2 6.7 17.2 Z M 2.6 19.7 C 2.6 19.7 2.6 19.7 2.6 19.7 C 2.6 19.7 2.6 19.7 2.6 19.7 Z M 1.7 22.8 C 1.7 22.8 1.7 22.8 1.7 22.8 C 1.7 22.8 1.7 22.8 1.7 22.8 Z M 4.9 19.6 C 4.9 19.6 4.9 19.6 4.9 19.6 C 4.9 19.6 4.9 19.6 4.9 19.6 Z M 13.5 5.4 C 19.1 4.4 9.6 7.5 13.5 5.4 M 4.6 20.5 C 5.0 16.7 5.7 23.5 4.6 20.5 C 4.9 20.9 4.6 20.5 4.6 20.5 M 6.9 36.2 C 8.2 33.8 6.3 33.7 6.3 33.7 C 8.8 34.0 5.3 31.6 4.8 32.1 C 4.4 32.0 -0.0 33.9 2.7 35.5 C 3.0 36.0 2.2 36.3 2.2 36.6 C 2.3 39.6 3.5 34.6 3.6 38.2 C 3.2 38.8 1.1 38.1 2.5 40.2 C 2.3 40.3 1.5 42.7 2.5 41.8 C 1.5 43.0 2.7 43.7 2.9 44.8 C 2.4 45.8 1.4 44.0 2.6 47.4 C 0.8 48.9 3.9 49.5 2.0 50.8 C 1.9 51.7 5.1 53.0 3.3 51.0 C 3.5 51.3 5.0 50.0 4.4 52.8 C 4.0 52.4 0.8 50.9 2.3 55.2 C 2.3 55.9 3.1 57.5 2.8 57.9 C 2.4 55.7 1.3 60.9 2.3 60.4 C 1.6 63.9 3.1 61.9 2.0 64.4 C 2.0 66.4 3.5 63.7 2.6 66.2 C 2.8 68.2 2.0 66.9 2.0 66.7 C 1.9 68.3 2.5 68.9 2.4 69.5 C 2.3 69.9 1.6 70.6 2.4 71.0 C 3.9 72.8 5.3 71.2 6.8 72.0 C 7.5 70.7 5.7 71.4 6.8 70.5 C 5.8 69.9 6.9 70.4 6.6 66.9 C 6.4 67.0 5.8 67.9 5.7 67.0 C 5.8 65.6 8.3 66.6 6.5 64.4 C 6.0 67.0 5.7 60.6 5.2 63.1 C 4.9 60.0 5.4 62.2 6.0 60.0 C 4.3 60.1 7.8 59.8 6.5 59.0 C 7.2 58.8 6.8 55.3 5.8 57.8 C 5.4 54.2 6.3 56.4 7.2 55.1 C 7.3 53.5 4.5 55.0 6.6 54.0 C 7.5 51.8 5.5 53.9 7.1 52.3 C 5.7 53.0 7.2 50.7 5.6 51.3 C 5.5 47.6 7.3 51.8 6.2 49.1 C 6.1 49.9 8.2 49.6 6.9 48.0 C 4.4 48.7 9.0 45.9 5.8 47.1 C 4.9 41.9 7.1 46.2 7.1 43.4 C 7.1 42.6 6.1 44.1 6.0 43.5 C 6.5 39.8 7.3 42.9 5.8 40.9 C 5.4 37.3 7.1 39.9 7.2 38.1 C 6.5 38.0 5.2 36.5 6.9 36.2 M 6.1 39.4 C 6.6 40.2 5.6 39.9 6.1 39.4 M 6.9 32.1 C 7.4 32.9 6.3 32.5 6.9 32.1 M 6.6 42.4 C 7.1 43.4 5.7 42.7 6.6 42.4 M 5.8 62.0 C 5.8 60.7 6.2 62.7 5.8 62.0 M 7.0 35.0 C 7.6 36.1 6.1 35.3 7.0 35.0 M 5.7 33.7 C 5.7 33.7 5.7 33.7 5.7 33.7 M 7.1 64.0 C 7.1 64.0 7.1 64.0 7.1 64.0 M 7.1 58.7 C 7.1 59.8 6.8 58.1 7.1 58.7 M 1.8 58.5 C 1.7 59.7 1.4 57.9 1.8 58.5 M 7.2 66.8 C 7.6 68.0 6.6 67.2 7.2 66.8 M 6.0 69.8 C 6.5 70.8 5.5 70.4 6.0 69.8 M 4.2 38.7 C 4.2 38.7 4.2 38.7 4.2 38.7 C 4.2 38.7 4.2 38.7 4.2 38.7 Z M 2.9 48.4 C 3.4 47.2 2.2 49.8 2.9 48.4 M 6.4 46.6 C 5.3 47.4 6.5 45.1 6.4 46.6 C 6.4 46.6 6.4 46.6 6.4 46.6 Z M 5.9 44.9 C 5.9 44.9 5.9 44.9 5.9 44.9 C 5.9 44.9 5.9 44.9 5.9 44.9 Z M 5.9 50.4 C 5.8 50.3 5.8 50.3 5.9 50.4 C 5.9 50.4 5.9 50.4 5.9 50.4 Z M 5.8 49.2 C 5.5 48.8 6.0 48.6 5.8 49.2 C 5.8 49.2 5.8 49.2 5.8 49.2 Z M 2.3 57.2 C 2.1 56.7 2.5 56.5 2.3 57.2 C 2.3 57.2 2.3 57.2 2.3 57.2 Z M 5.4 47.5 C 4.3 47.4 6.1 46.7 5.4 47.5 C 5.4 47.5 5.4 47.5 5.4 47.5 Z M 2.8 53.4 C 3.1 53.9 1.8 54.4 2.8 53.4 M 6.9 65.1 C 7.2 65.6 5.9 66.1 6.9 65.1 M 7.2 53.6 C 7.5 54.0 6.2 54.6 7.2 53.6 M 6.6 40.0 C 6.5 40.1 6.5 40.1 6.6 40.0 M 1.8 46.4 C 2.3 47.2 1.4 46.8 1.8 46.4 M 2.2 35.6 C 2.6 36.3 1.7 35.9 2.2 35.6 M 1.9 63.4 C 2.2 63.4 1.7 64.6 1.9 63.4 M 5.5 54.9 C 5.3 55.9 4.7 57.0 4.8 54.8 C 5.1 54.7 5.2 55.4 5.5 54.9 C 5.5 54.9 5.5 54.9 5.5 54.9 Z M 3.0 58.5 C 2.9 58.7 2.9 58.7 3.0 58.5 M 6.5 56.7 C 6.4 56.8 6.4 56.8 6.5 56.7 M 6.4 62.6 C 6.2 62.7 6.2 62.7 6.4 62.6 M 6.7 63.3 C 6.6 63.3 6.6 63.3 6.7 63.3 C 6.7 63.3 6.7 63.3 6.7 63.3 Z M 7.1 69.8 C 7.1 69.8 7.1 69.8 7.1 69.8 C 7.1 69.8 7.1 69.8 7.1 69.8 Z M 6.2 60.7 C 6.2 60.7 6.2 60.7 6.2 60.7 C 6.2 60.7 6.2 60.7 6.2 60.7 Z M 2.1 66.0 C 2.0 66.1 2.0 66.1 2.1 66.0 C 2.1 66.0 2.1 66.0 2.1 66.0 Z M 2.7 65.4 C 2.7 65.4 2.7 65.4 2.7 65.4 C 2.7 65.4 2.7 65.4 2.7 65.4 Z M 6.9 36.7 C 7.6 37.6 5.0 37.2 6.9 36.7 M 2.7 68.2 C 2.0 69.1 2.6 66.7 2.7 68.2 C 2.7 68.2 2.7 68.2 2.7 68.2 Z M 5.3 60.0 C 5.2 60.1 5.2 60.1 5.3 60.0 M 6.6 63.7 C 6.4 63.8 6.4 63.8 6.6 63.7 M 7.4 46.6 C 7.3 46.6 7.3 46.6 7.4 46.6 M 6.4 68.2 C 6.1 71.0 4.8 67.0 6.4 68.2 M 6.4 45.3 C 6.5 45.2 6.5 45.2 6.4 45.3 M 4.3 51.5 C 4.4 53.3 3.7 50.8 4.3 51.5 M 5.7 56.2 C 5.7 56.1 5.7 56.1 5.7 56.2 C 5.7 56.2 5.7 56.2 5.7 56.2 Z M 5.7 53.4 C 5.6 52.1 6.0 53.1 5.7 53.4 C 5.7 53.4 5.7 53.4 5.7 53.4 Z M 5.9 38.0 C 5.7 39.7 5.5 36.2 5.9 38.0 C 5.9 38.0 5.9 38.0 5.9 38.0 Z M 3.8 67.0 C 3.8 66.9 3.8 66.9 3.8 67.0 C 3.8 67.0 3.8 67.0 3.8 67.0 Z M 7.0 60.4 C 6.7 59.6 7.3 60.0 7.0 60.4 C 7.0 60.4 7.0 60.4 7.0 60.4 Z M 7.1 70.8 C 6.9 70.0 7.5 70.4 7.1 70.8 C 7.1 70.8 7.1 70.8 7.1 70.8 Z M 6.1 35.9 C 4.3 42.3 6.5 27.4 6.1 35.9 C 6.1 35.9 6.1 35.9 6.1 35.9 Z M 6.5 54.5 C 6.4 54.5 6.4 54.5 6.5 54.5 C 6.5 54.5 6.5 54.5 6.5 54.5 Z M 7.2 42.8 C 7.1 42.7 7.1 42.7 7.2 42.8 C 7.2 42.8 7.2 42.8 7.2 42.8 Z M 6.2 40.8 C 6.1 40.7 6.1 40.7 6.2 40.8 C 6.2 40.8 6.2 40.8 6.2 40.8 Z M 1.9 41.3 C 1.9 41.3 1.9 41.3 1.9 41.3 C 1.9 41.3 1.9 41.3 1.9 41.3 Z M 3.9 42.0 C 3.8 41.9 3.8 41.9 3.9 42.0 C 3.9 42.0 3.9 42.0 3.9 42.0 Z M 3.2 37.9 C 3.1 37.9 3.1 37.9 3.2 37.9 C 3.2 37.9 3.2 37.9 3.2 37.9 Z M 2.6 38.0 C 2.6 38.0 2.6 38.0 2.6 38.0 C 2.6 38.0 2.6 38.0 2.6 38.0 Z M 5.4 63.7 C 5.3 63.7 5.3 63.7 5.4 63.7 C 5.4 63.7 5.4 63.7 5.4 63.7 Z M 3.6 61.5 C 4.2 63.0 2.7 61.1 3.6 61.5 C 3.6 61.5 3.6 61.5 3.6 61.5 Z M 4.5 48.3 C 4.7 49.7 3.9 47.5 4.5 48.3 C 4.5 48.3 4.5 48.3 4.5 48.3 Z M 2.2 49.8 C 2.1 49.9 2.1 49.9 2.2 49.8 C 2.2 49.8 2.2 49.8 2.2 49.8 Z M 7.2 40.8 C 7.1 40.7 7.1 40.7 7.2 40.8 C 7.2 40.8 7.2 40.8 7.2 40.8 Z M 6.5 38.3 C 5.6 38.2 7.0 37.5 6.5 38.3 M 7.0 50.9 C 6.9 50.9 6.9 50.9 7.0 50.9 C 7.0 50.9 7.0 50.9 7.0 50.9 Z M 5.6 58.9 C 5.6 58.9 5.6 58.9 5.6 58.9 C 5.6 58.9 5.6 58.9 5.6 58.9 Z M 6.2 66.8 C 6.1 66.8 6.1 66.8 6.2 66.8 C 6.2 66.8 6.2 66.8 6.2 66.8 Z M 6.9 55.9 C 6.8 55.8 6.8 55.8 6.9 55.9 C 6.9 55.9 6.9 55.9 6.9 55.9 Z M 6.1 52.1 C 6.0 52.0 6.0 52.0 6.1 52.1 C 6.1 52.1 6.1 52.1 6.1 52.1 Z M 4.9 68.5 C 4.9 68.5 4.9 68.5 4.9 68.5 C 4.9 68.5 4.9 68.5 4.9 68.5 Z M 7.0 56.7 C 7.0 56.7 7.0 56.7 7.0 56.7 C 7.0 56.7 7.0 56.7 7.0 56.7 Z M 4.2 59.0 C 4.1 59.0 4.1 59.0 4.2 59.0 C 4.2 59.0 4.2 59.0 4.2 59.0 Z M 7.8 38.6 C 7.7 38.6 7.7 38.6 7.8 38.6 C 7.8 38.6 7.8 38.6 7.8 38.6 Z M 6.1 68.6 C 6.1 68.6 6.1 68.6 6.1 68.6 C 6.1 68.6 6.1 68.6 6.1 68.6 Z M 6.9 69.1 C 6.9 69.1 6.9 69.1 6.9 69.1 C 6.9 69.1 6.9 69.1 6.9 69.1 Z M 2.7 63.5 C 3.2 60.7 2.9 66.0 3.8 64.0 C 4.1 68.0 2.6 64.1 2.7 63.5 C 2.7 63.5 2.7 63.5 2.7 63.5 Z M 7.3 72.9 C 6.1 71.3 4.9 71.3 3.6 72.0 C 3.0 72.7 5.4 72.7 3.4 72.8 C 3.0 71.0 0.3 73.5 2.9 73.5 C 3.3 75.8 1.3 73.9 2.3 75.3 C 2.6 77.8 1.8 76.5 1.9 78.4 C 3.4 79.5 1.2 79.5 2.6 80.0 C 1.1 79.1 3.0 82.4 2.3 82.5 C 1.4 80.0 2.4 90.6 2.8 85.1 C 3.5 87.4 2.3 86.9 2.1 87.6 C 3.0 88.4 1.6 90.8 2.6 91.7 C 2.8 91.5 2.7 90.9 3.0 90.7 C 3.5 90.4 3.0 91.9 3.1 91.8 C 3.5 92.4 4.8 94.9 2.8 92.3 C 2.1 92.3 3.6 94.5 3.0 94.6 C 3.6 97.1 4.4 94.7 4.0 96.4 C 4.9 98.6 5.9 99.8 6.1 99.7 C 6.7 100.9 6.4 101.7 7.9 102.0 C 8.8 105.0 10.9 100.7 10.2 103.9 C 11.3 103.7 11.0 105.8 11.8 104.0 C 10.6 104.4 15.2 106.8 13.8 104.9 C 14.4 104.6 16.7 107.6 16.6 105.6 C 17.8 104.4 17.6 103.0 16.2 101.3 C 16.1 102.4 14.7 99.7 15.5 101.9 C 16.8 102.9 12.3 101.3 13.6 101.2 C 14.8 99.3 10.4 101.0 10.7 99.1 C 10.8 100.3 7.5 97.5 9.6 97.4 C 9.2 96.7 8.4 96.9 8.9 95.8 C 9.9 97.9 6.9 95.7 7.9 95.4 C 8.6 95.5 8.1 92.4 7.2 92.9 C 5.2 94.5 7.5 92.0 6.5 91.6 C 5.7 89.9 8.5 91.7 6.6 90.5 C 6.9 90.1 6.7 87.3 7.3 89.0 C 7.1 89.7 4.7 87.3 6.6 86.9 C 7.8 90.4 7.2 82.3 6.6 83.8 C 5.5 90.5 5.4 76.0 6.4 81.8 C 7.0 80.2 7.1 80.7 7.0 80.8 C 6.9 80.9 6.6 80.9 6.4 79.5 C 5.8 79.9 5.2 77.6 6.4 78.2 C 8.3 77.7 3.9 77.4 6.5 75.6 C 7.6 75.3 5.7 72.1 6.9 73.4 C 7.0 73.4 7.3 73.0 7.3 72.9 M 7.0 73.9 C 6.6 73.5 7.6 73.3 7.0 73.9 M 6.6 73.5 C 6.7 73.4 6.7 73.4 6.6 73.5 C 6.6 73.5 6.6 73.5 6.6 73.5 Z M 6.3 79.1 C 6.4 79.0 6.4 79.0 6.3 79.1 C 6.3 79.1 6.3 79.1 6.3 79.1 Z M 1.6 84.2 C 1.6 84.2 1.6 84.2 1.6 84.2 C 1.6 84.2 1.6 84.2 1.6 84.2 Z M 6.2 83.3 C 6.2 83.3 6.2 83.3 6.2 83.3 C 6.2 83.3 6.2 83.3 6.2 83.3 Z M 6.0 77.1 C 6.0 77.0 6.0 77.0 6.0 77.1 C 6.0 77.1 6.0 77.1 6.0 77.1 Z M 6.9 82.9 C 6.2 83.2 7.4 81.1 7.0 82.9 C 7.0 83.0 7.0 82.7 6.9 82.9 M 7.3 88.3 C 7.2 88.3 7.2 88.3 7.3 88.3 M 4.5 99.1 C 4.5 99.2 4.5 99.2 4.5 99.1 M 9.7 96.7 C 9.7 96.8 9.7 96.8 9.7 96.7 M 7.0 92.3 C 7.3 93.3 6.7 92.6 7.0 92.3 M 11.6 99.2 C 10.7 97.9 13.1 99.9 11.6 99.2 M 13.0 99.7 C 13.1 99.8 13.1 99.8 13.0 99.7 M 8.4 94.9 C 8.3 94.9 8.3 94.9 8.4 94.9 C 8.4 94.9 8.4 94.9 8.4 94.9 Z M 7.2 91.8 C 7.3 90.3 8.1 93.1 7.2 91.8 M 7.0 79.7 C 7.4 80.8 6.1 79.7 7.0 79.7 M 6.6 77.5 C 6.6 77.5 6.6 77.5 6.6 77.5 C 6.6 77.5 6.6 77.5 6.6 77.5 Z M 9.9 97.5 C 9.8 97.5 9.8 97.5 9.9 97.5 C 9.9 97.5 9.9 97.5 9.9 97.5 Z M 11.2 98.7 C 11.1 98.6 11.1 98.6 11.2 98.7 C 11.2 98.7 11.2 98.7 11.2 98.7 Z M 11.2 104.9 C 11.1 104.9 11.1 104.9 11.2 104.9 C 11.2 104.9 11.2 104.9 11.2 104.9 Z M 4.4 79.1 C 4.8 77.7 6.2 80.6 4.9 80.3 C 4.4 80.5 4.6 79.3 4.4 79.1 M 5.5 90.9 C 3.8 91.4 7.7 89.4 5.5 90.9 M 12.6 100.8 C 12.7 103.3 12.0 98.7 12.6 100.8 M 15.0 101.5 C 15.5 102.0 10.7 100.1 14.4 100.9 C 14.9 100.7 14.8 101.2 15.0 101.5 M 6.4 88.4 C 5.5 88.8 6.8 86.2 6.4 88.4 M 5.2 96.6 C 6.0 97.0 7.5 98.3 6.1 98.1 C 5.0 98.9 4.3 96.0 5.2 96.6 M 6.0 74.3 C 7.6 75.5 4.7 74.3 6.0 74.3 M 5.9 80.0 C 6.0 80.0 6.0 80.0 5.9 80.0 C 5.9 80.0 5.9 80.0 5.9 80.0 Z M 6.2 82.6 C 6.0 82.7 6.0 82.7 6.2 82.6 M 7.4 75.2 C 7.3 75.4 7.3 75.4 7.4 75.2 M 6.6 95.8 C 6.5 96.0 6.5 96.0 6.6 95.8 M 6.5 92.0 C 5.3 93.9 6.1 91.2 6.5 92.0 M 3.1 87.6 C 2.4 88.3 3.0 86.1 3.1 87.6 M 7.7 94.4 C 6.9 96.1 5.8 93.2 7.7 94.4 M 6.6 91.2 C 6.6 91.3 6.6 91.3 6.6 91.2 C 6.6 91.2 6.6 91.2 6.6 91.2 Z M 5.3 97.2 C 5.2 97.2 5.2 97.2 5.3 97.2 C 5.3 97.2 5.3 97.2 5.3 97.2 Z M 5.7 97.8 C 5.6 97.7 5.6 97.7 5.7 97.8 C 5.7 97.8 5.7 97.8 5.7 97.8 Z M 8.6 95.7 C 8.5 95.7 8.5 95.7 8.6 95.7 C 8.6 95.7 8.6 95.7 8.6 95.7 Z M 2.6 77.4 C 2.4 78.9 2.3 76.2 2.6 77.4 C 2.6 77.4 2.6 77.4 2.6 77.4 Z M 6.9 85.1 C 5.8 88.1 5.8 83.0 6.9 85.1 C 6.9 85.1 6.9 85.1 6.9 85.1 Z M 5.1 88.2 C 5.0 88.2 5.0 88.2 5.1 88.2 C 5.1 88.2 5.1 88.2 5.1 88.2 Z M 8.4 93.5 C 8.3 93.5 8.3 93.5 8.4 93.5 C 8.4 93.5 8.4 93.5 8.4 93.5 Z M 2.4 78.1 C 2.3 78.1 2.3 78.1 2.4 78.1 C 2.4 78.1 2.4 78.1 2.4 78.1 Z M 10.3 99.2 C 10.2 99.2 10.2 99.2 10.3 99.2 C 10.3 99.2 10.3 99.2 10.3 99.2 Z M 3.7 93.4 C 4.3 93.8 3.3 93.6 3.7 93.4 C 3.7 93.4 3.7 93.4 3.7 93.4 Z M 4.2 95.4 C 4.3 95.5 4.3 95.5 4.2 95.4 C 4.2 95.4 4.2 95.4 4.2 95.4 Z M 13.5 99.8 C 13.5 99.8 13.5 99.8 13.5 99.8 C 13.5 99.8 13.5 99.8 13.5 99.8 Z M 6.6 101.8 C 6.7 101.9 6.7 101.9 6.6 101.8 C 6.6 101.8 6.6 101.8 6.6 101.8 Z M 9.4 102.0 C 9.4 102.0 9.4 102.0 9.4 102.0 C 9.4 102.0 9.4 102.0 9.4 102.0 Z M 8.1 95.6 C 9.3 97.2 7.3 95.5 8.1 95.6 C 8.1 95.6 8.1 95.6 8.1 95.6 Z M 14.8 104.2 C 14.8 104.3 14.8 104.3 14.8 104.2 C 14.8 104.2 14.8 104.2 14.8 104.2 Z M 16.2 102.4 C 16.2 102.5 16.2 102.5 16.2 102.4 C 16.2 102.4 16.2 102.4 16.2 102.4 Z M 16.8 101.4 C 16.8 101.5 16.8 101.5 16.8 101.4 C 16.8 101.4 16.8 101.4 16.8 101.4 Z M 4.0 82.5 C 4.1 82.4 4.1 82.4 4.0 82.5 C 4.0 82.5 4.0 82.5 4.0 82.5 Z M 7.3 81.3 C 7.3 81.3 7.3 81.3 7.3 81.3 C 7.3 81.3 7.3 81.3 7.3 81.3 Z M 7.4 85.3 C 7.5 85.3 7.5 85.3 7.4 85.3 C 7.4 85.3 7.4 85.3 7.4 85.3 Z M 2.0 81.7 C 2.0 81.7 2.0 81.7 2.0 81.7 C 2.0 81.7 2.0 81.7 2.0 81.7 Z M 5.5 93.5 C 5.6 93.5 5.6 93.5 5.5 93.5 C 5.5 93.5 5.5 93.5 5.5 93.5 Z M 4.5 94.7 C 4.5 94.7 4.5 94.7 4.5 94.7 C 4.5 94.7 4.5 94.7 4.5 94.7 Z M 2.2 92.8 C 2.3 92.8 2.3 92.8 2.2 92.8 C 2.2 92.8 2.2 92.8 2.2 92.8 Z M 3.7 95.9 C 3.7 95.9 3.7 95.9 3.7 95.9 C 3.7 95.9 3.7 95.9 3.7 95.9 Z M 2.6 73.8 C 2.6 73.8 2.6 73.8 2.6 73.8 C 2.6 73.8 2.6 73.8 2.6 73.8 Z M 5.1 73.5 C 5.0 73.5 5.0 73.5 5.1 73.5 C 5.1 73.5 5.1 73.5 5.1 73.5 Z M 7.4 93.3 C 8.0 93.6 6.9 94.3 7.4 93.3 M 6.5 90.0 C 6.5 90.0 6.5 90.0 6.5 90.0 C 6.5 90.0 6.5 90.0 6.5 90.0 Z M 10.4 98.6 C 10.0 99.6 9.4 97.0 10.4 98.6 C 10.4 98.6 10.4 98.6 10.4 98.6 Z M 5.6 99.5 C 5.7 99.6 5.7 99.6 5.6 99.5 C 5.6 99.5 5.6 99.5 5.6 99.5 Z M 6.8 100.3 C 6.8 100.4 6.8 100.4 6.8 100.3 C 6.8 100.3 6.8 100.3 6.8 100.3 Z M 13.6 102.0 C 13.7 102.2 13.7 102.2 13.6 102.0 M 7.3 89.5 C 7.0 90.1 7.0 90.0 7.3 89.5 M 11.3 99.5 C 11.2 99.4 11.2 99.4 11.3 99.5 C 11.3 99.5 11.3 99.5 11.3 99.5 Z M 14.9 101.9 C 14.8 101.9 14.8 101.9 14.9 101.9 C 14.9 101.9 14.9 101.9 14.9 101.9 Z M 6.5 86.5 C 5.3 86.7 5.6 86.0 6.5 86.5 M 6.1 76.6 C 6.0 76.6 6.0 76.6 6.1 76.6 C 6.1 76.6 6.1 76.6 6.1 76.6 Z M 6.1 76.6 " fill="#FDCA55"></path><g><clipPath id="clip-18"><path d="M 4.5 4.3 L 104.5 4.3 L 104.5 104.3 L 4.5 104.3 Z M 4.5 4.3 "></path></clipPath><g clip-path="url(#clip-18)"><text xml:space="preserve" font-family="DINCondensed-Bold" font-weight="bold" font-size="22.0" fill="#FEFFFE" transform="matrix(1.00, 0.00, -0.00, -1.00, 36.0, 63.0)">L</text><text xml:space="preserve" font-family="DINCondensed-Bold" font-weight="bold" font-size="22.0" fill="#FEFFFE" transform="matrix(1.00, 0.00, -0.00, -1.00, 44.1, 63.0)">o</text><text xml:space="preserve" font-family="DINCondensed-Bold" font-weight="bold" font-size="22.0" fill="#FEFFFE" transform="matrix(1.00, 0.00, -0.00, -1.00, 52.3, 63.0)">c</text><text xml:space="preserve" font-family="DINCondensed-Bold" font-weight="bold" font-size="22.0" fill="#FEFFFE" transform="matrix(1.00, 0.00, -0.00, -1.00, 60.4, 63.0)">a</text><text xml:space="preserve" font-family="DINCondensed-Bold" font-weight="bold" font-size="22.0" fill="#FEFFFE" transform="matrix(1.00, 0.00, -0.00, -1.00, 68.6, 63.0)">l</text><text xml:space="preserve" font-family="DINCondensed-Bold" font-weight="bold" font-size="22.0" fill="#FEFFFE" transform="matrix(1.00, 0.00, -0.00, -1.00, 72.7, 63.0)"> </text><text xml:space="preserve" font-family="DINCondensed-Bold" font-weight="bold" font-size="22.0" fill="#FEFFFE" transform="matrix(1.00, 0.00, -0.00, -1.00, 76.7, 63.0)"> </text><text xml:space="preserve" font-family="DINCondensed-Bold" font-weight="bold" font-size="22.0" fill="#FEFFFE" transform="matrix(1.00, 0.00, -0.00, -1.00, 18.0, 41.0)">R</text><text xml:space="preserve" font-family="DINCondensed-Bold" font-weight="bold" font-size="22.0" fill="#FEFFFE" transform="matrix(1.00, 0.00, -0.00, -1.00, 27.4, 41.0)">e</text><text xml:space="preserve" font-family="DINCondensed-Bold" font-weight="bold" font-size="22.0" fill="#FEFFFE" transform="matrix(1.00, 0.00, -0.00, -1.00, 35.5, 41.0)">p</text><text xml:space="preserve" font-family="DINCondensed-Bold" font-weight="bold" font-size="22.0" fill="#FEFFFE" transform="matrix(1.00, 0.00, -0.00, -1.00, 44.1, 41.0)">o</text><text xml:space="preserve" font-family="DINCondensed-Bold" font-weight="bold" font-size="22.0" fill="#FEFFFE" transform="matrix(1.00, 0.00, -0.00, -1.00, 52.2, 41.0)">s</text><text xml:space="preserve" font-family="DINCondensed-Bold" font-weight="bold" font-size="22.0" fill="#FEFFFE" transform="matrix(1.00, 0.00, -0.00, -1.00, 60.0, 41.0)">i</text><text xml:space="preserve" font-family="DINCondensed-Bold" font-weight="bold" font-size="22.0" fill="#FEFFFE" transform="matrix(1.00, 0.00, -0.00, -1.00, 64.0, 41.0)">t</text><text xml:space="preserve" font-family="DINCondensed-Bold" font-weight="bold" font-size="22.0" fill="#FEFFFE" transform="matrix(1.00, 0.00, -0.00, -1.00, 68.5, 41.0)">o</text><text xml:space="preserve" font-family="DINCondensed-Bold" font-weight="bold" font-size="22.0" fill="#FEFFFE" transform="matrix(1.00, 0.00, -0.00, -1.00, 76.7, 41.0)">r</text><text xml:space="preserve" font-family="DINCondensed-Bold" font-weight="bold" font-size="22.0" fill="#FEFFFE" transform="matrix(1.00, 0.00, -0.00, -1.00, 83.2, 41.0)">y</text></g></g></g></svg>