<?xml version="1.0" encoding="UTF-8" standalone="no"?><svg xmlns="http://www.w3.org/2000/svg" xmlns:xlink="http://www.w3.org/1999/xlink" clip-rule="evenodd" stroke-miterlimit="4.00" viewBox="0 0 155 86"><desc>SVG generated by Keynote</desc><defs></defs><g transform="matrix(1.00, 0.00, -0.00, -1.00, 0.0, 86.0)"><path d="M 4.4 81.6 L 36.9 31.9 L 36.9 9.9 C 36.9 7.1 39.2 4.9 41.9 4.9 L 145.4 4.9 C 148.1 4.9 150.4 7.1 150.4 9.9 L 150.4 44.0 C 150.4 46.7 148.1 49.0 145.4 49.0 L 54.0 49.0 L 4.4 81.6 Z M 4.4 81.6 " fill="#212121"></path><path d="M 8.8 72.1 C 8.8 72.4 8.2 72.9 8.2 73.2 M 8.8 72.1 C 7.5 72.2 6.7 73.2 5.6 74.6 C 4.5 76.1 6.5 75.0 6.8 75.5 C 5.8 77.8 5.1 77.3 4.3 76.4 C 4.5 77.6 1.7 79.2 3.3 79.5 C 5.4 76.2 2.0 82.1 4.6 79.7 C 5.0 79.5 4.8 80.6 4.6 80.9 C 5.7 80.3 5.3 82.3 6.6 81.0 C 7.5 81.3 7.0 81.4 8.3 80.8 C 8.6 80.4 8.2 80.4 8.0 80.4 C 7.2 79.6 9.3 79.5 9.2 78.4 C 10.9 78.4 10.0 76.8 9.1 77.1 C 9.7 76.5 11.5 76.4 11.1 75.1 C 12.0 75.1 12.8 72.9 11.3 73.6 C 10.3 74.2 10.5 73.0 10.3 72.7 C 9.8 72.8 9.5 74.3 9.1 74.3 C 9.1 73.8 9.7 72.0 8.7 73.7 C 8.6 72.9 7.8 73.5 8.8 72.1 C 8.8 72.1 8.8 72.1 8.8 72.1 Z M 4.4 77.3 C 4.1 77.1 4.8 76.8 4.4 77.3 C 4.4 77.3 4.4 77.3 4.4 77.3 Z M 11.3 76.1 C 11.0 75.9 11.7 75.6 11.3 76.1 C 11.3 76.1 11.3 76.1 11.3 76.1 Z M 8.2 80.1 C 7.9 79.9 8.6 79.6 8.2 80.1 C 8.2 80.1 8.2 80.1 8.2 80.1 Z M 5.6 76.0 C 6.5 75.3 5.6 77.0 5.2 76.9 C 5.3 76.8 5.2 76.0 5.6 76.0 C 5.6 76.0 5.6 76.0 5.6 76.0 Z M 7.6 77.0 C 7.5 76.9 7.7 76.5 8.0 76.7 C 7.9 77.0 7.6 77.2 7.6 77.0 C 7.6 77.0 7.6 77.0 7.6 77.0 Z M 3.4 80.6 C 3.3 80.5 3.5 80.1 3.8 80.3 C 3.7 80.6 3.4 80.7 3.4 80.6 C 3.4 80.6 3.4 80.6 3.4 80.6 Z M 7.1 75.5 C 7.3 75.3 7.7 75.4 7.5 75.7 C 7.3 75.7 6.9 76.3 7.1 75.5 C 7.1 75.5 7.1 75.5 7.1 75.5 Z M 6.9 73.5 C 7.6 72.8 7.1 74.6 7.0 74.5 C 6.6 74.6 6.4 73.7 6.9 73.5 C 6.9 73.5 6.9 73.5 6.9 73.5 Z M 7.9 75.3 C 8.4 74.8 7.9 75.8 7.9 75.3 C 7.9 75.3 7.9 75.3 7.9 75.3 Z M 6.1 81.5 C 6.7 81.0 6.2 81.9 6.1 81.5 C 6.1 81.5 6.1 81.5 6.1 81.5 Z M 9.3 78.9 C 9.8 78.3 9.3 79.3 9.3 78.9 C 9.3 78.9 9.3 78.9 9.3 78.9 Z M 5.2 78.0 C 4.5 79.1 4.3 77.7 5.2 78.0 C 5.2 78.0 5.2 78.0 5.2 78.0 Z M 8.0 71.7 C 7.3 72.8 7.1 71.4 8.0 71.7 C 8.0 71.7 8.0 71.7 8.0 71.7 Z M 7.0 82.4 C 6.1 83.2 10.6 81.8 8.3 81.4 C 7.2 80.7 9.9 79.1 9.8 80.5 C 10.7 80.1 10.7 80.1 10.8 79.4 C 11.4 80.1 13.5 79.3 13.8 78.4 C 13.8 77.5 12.6 79.2 13.2 77.8 C 15.3 76.1 12.6 77.1 12.9 75.7 C 13.0 75.6 13.3 76.0 13.4 75.6 C 13.0 74.8 11.4 75.1 11.6 74.1 C 11.3 74.4 9.1 74.6 10.3 74.9 C 10.9 75.5 7.9 75.1 8.8 76.3 C 7.9 76.1 7.8 77.3 6.8 76.9 C 6.3 77.0 6.8 77.7 6.9 77.8 C 7.3 78.4 5.6 76.8 5.6 78.3 C 5.3 78.0 3.6 79.4 5.2 78.9 C 4.8 79.1 2.5 80.2 4.3 80.6 C 6.1 80.1 3.6 82.7 5.3 81.6 C 6.7 80.9 6.8 80.5 6.2 81.7 C 5.9 81.8 4.5 82.9 6.1 82.6 C 6.3 82.3 6.9 82.0 7.0 82.4 C 7.0 82.4 7.0 82.4 7.0 82.4 Z M 5.6 80.9 C 6.4 80.4 6.0 81.3 5.6 80.9 C 5.6 80.9 5.6 80.9 5.6 80.9 Z M 6.8 76.6 C 7.5 76.0 7.1 77.0 6.8 76.6 C 6.8 76.6 6.8 76.6 6.8 76.6 Z M 9.5 81.1 C 9.7 80.5 10.5 81.6 9.5 81.1 C 9.5 81.1 9.5 81.1 9.5 81.1 Z M 6.1 78.4 C 6.1 78.3 6.1 78.6 6.0 78.8 C 5.9 78.7 6.0 78.4 6.1 78.4 C 6.1 78.4 6.1 78.4 6.1 78.4 Z M 10.8 80.3 C 11.5 79.0 11.5 81.0 10.8 80.3 C 10.8 80.3 10.8 80.3 10.8 80.3 Z M 12.4 77.7 C 11.8 76.4 13.7 77.1 12.4 77.7 C 12.4 77.7 12.4 77.7 12.4 77.7 Z M 9.2 76.1 C 9.2 76.5 8.9 76.1 9.2 76.1 C 9.2 76.1 9.2 76.1 9.2 76.1 Z M 4.1 79.3 C 4.1 79.6 3.8 79.3 4.1 79.3 C 4.1 79.3 4.1 79.3 4.1 79.3 Z M 10.7 75.3 C 10.9 75.8 10.2 75.4 10.7 75.3 C 10.7 75.3 10.7 75.3 10.7 75.3 Z M 9.4 80.5 C 9.0 82.1 7.3 80.0 9.4 80.5 C 9.4 80.5 9.4 80.5 9.4 80.5 Z M 7.6 81.8 C 7.0 82.5 7.4 81.2 7.8 81.1 C 7.8 81.2 7.7 81.7 7.6 81.8 C 7.6 81.8 7.6 81.8 7.6 81.8 Z M 10.4 79.7 C 10.0 80.6 9.6 79.9 10.4 79.7 C 10.4 79.7 10.4 79.7 10.4 79.7 Z M 9.0 81.4 C 8.5 81.5 9.2 81.1 9.0 81.4 C 9.0 81.4 9.0 81.4 9.0 81.4 Z M 12.4 79.8 C 12.0 79.9 12.6 79.4 12.4 79.8 C 12.4 79.8 12.4 79.8 12.4 79.8 Z M 7.1 82.9 C 6.6 83.0 7.3 82.6 7.1 82.9 C 7.1 82.9 7.1 82.9 7.1 82.9 Z M 11.8 79.3 C 11.6 78.8 10.0 78.6 12.3 78.2 C 12.8 78.3 12.4 79.4 11.8 79.3 C 11.8 79.3 11.8 79.3 11.8 79.3 Z M 11.0 68.9 C 6.6 72.8 9.7 73.0 10.0 73.5 C 10.2 74.5 11.0 74.1 12.0 73.4 C 14.2 73.2 11.5 71.0 13.4 71.1 C 16.3 71.0 12.6 68.7 15.1 69.3 C 15.5 69.8 16.3 67.8 16.1 67.8 C 17.7 67.4 16.7 65.2 16.6 65.1 C 17.2 64.6 19.2 65.5 19.0 62.8 C 19.5 61.1 21.8 61.4 20.2 61.2 C 22.4 60.8 20.3 60.2 21.5 59.4 C 22.8 59.0 20.2 58.7 22.7 58.1 C 21.9 56.9 23.1 59.1 24.6 55.0 C 23.4 56.8 24.7 52.9 25.1 54.0 C 25.2 55.6 25.9 52.1 27.6 50.6 C 27.4 50.0 27.5 47.5 28.6 48.4 C 31.2 47.2 28.8 46.3 30.5 46.0 C 31.5 45.6 30.5 45.0 30.8 44.6 C 32.2 44.4 31.9 43.6 33.6 41.5 C 37.1 37.0 31.6 40.0 32.4 38.1 C 32.2 37.7 27.4 39.1 30.4 38.9 C 29.5 39.0 29.4 43.7 28.1 40.9 C 28.2 42.7 27.3 40.2 26.6 43.5 C 31.0 40.2 24.4 48.3 26.0 44.1 C 25.1 44.6 24.2 46.2 25.3 45.2 C 27.2 45.4 22.8 47.6 25.8 46.8 C 23.7 49.0 25.8 49.1 24.2 49.3 C 21.7 49.0 24.8 49.4 23.4 50.4 C 21.5 53.2 20.6 50.0 21.0 52.4 C 18.2 54.7 21.5 53.4 21.1 54.5 C 22.4 55.4 18.2 56.9 19.4 54.7 C 19.4 56.1 18.6 54.6 18.6 56.2 C 20.5 55.9 16.2 57.2 17.5 57.3 C 17.0 58.6 18.2 58.4 18.0 58.8 C 16.9 60.5 16.0 59.4 16.7 60.2 C 16.9 60.8 14.7 60.8 15.0 61.2 C 16.2 59.5 15.4 63.4 14.6 63.2 C 15.2 62.1 12.6 62.9 13.1 64.1 C 16.5 64.7 11.4 65.2 11.9 66.5 C 13.9 66.6 9.6 70.5 10.0 68.4 C 10.0 68.5 11.0 68.8 11.0 68.9 M 14.9 61.9 C 16.0 60.5 14.2 63.6 14.9 61.9 M 14.5 61.7 C 15.4 61.3 13.2 62.9 14.3 61.5 C 14.4 61.5 14.4 61.8 14.5 61.7 M 18.3 55.7 C 18.6 56.1 17.5 56.4 18.3 55.7 M 20.0 55.0 C 21.1 54.3 19.3 56.4 20.0 55.0 M 28.3 41.7 C 30.0 43.9 26.1 42.6 28.3 41.7 M 22.1 50.2 C 21.4 52.0 21.5 49.2 22.1 50.2 M 22.4 51.0 C 22.3 51.9 21.8 50.9 22.4 51.0 M 26.7 44.2 C 26.8 44.1 26.8 44.1 26.7 44.2 C 26.7 44.2 26.7 44.2 26.7 44.2 Z M 29.3 40.3 C 29.3 40.3 29.3 40.3 29.3 40.3 C 29.3 40.3 29.3 40.3 29.3 40.3 Z M 24.5 48.1 C 23.1 49.1 25.5 46.0 24.5 48.1 C 24.5 48.1 24.5 48.1 24.5 48.1 Z M 31.9 43.6 C 31.9 43.6 31.9 43.6 31.9 43.6 C 31.9 43.6 31.9 43.6 31.9 43.6 Z M 15.2 63.5 C 15.2 63.6 15.2 63.6 15.2 63.5 C 15.2 63.5 15.2 63.5 15.2 63.5 Z M 11.4 67.5 C 11.8 67.6 10.7 68.2 11.4 67.5 C 11.4 67.5 11.4 67.5 11.4 67.5 Z M 11.6 72.6 C 11.6 72.7 11.6 72.7 11.6 72.6 C 11.6 72.6 11.6 72.6 11.6 72.6 Z M 15.4 65.7 C 15.4 65.7 15.4 65.7 15.4 65.7 C 15.4 65.7 15.4 65.7 15.4 65.7 Z M 14.2 64.1 C 12.4 64.2 15.6 62.6 14.2 64.1 C 14.2 64.1 14.2 64.1 14.2 64.1 Z M 26.8 51.0 C 26.3 50.7 27.7 50.0 26.8 51.0 C 26.8 51.0 26.8 51.0 26.8 51.0 Z M 20.7 55.1 C 20.5 54.8 21.2 54.5 20.7 55.1 C 20.7 55.1 20.7 55.1 20.7 55.1 Z M 17.3 56.7 C 17.1 56.4 17.9 56.2 17.3 56.7 C 17.3 56.7 17.3 56.7 17.3 56.7 Z M 11.1 67.3 C 11.1 67.1 11.1 67.1 11.1 67.3 C 11.1 67.3 11.1 67.3 11.1 67.3 Z M 13.1 66.2 C 11.2 66.7 14.9 64.8 13.1 66.2 C 13.1 66.2 13.1 66.2 13.1 66.2 Z M 12.2 68.3 C 13.1 67.9 11.1 69.6 12.2 68.3 M 14.7 68.1 C 15.1 66.5 16.0 70.5 14.7 68.1 C 14.7 68.1 14.7 68.1 14.7 68.1 Z M 19.8 61.4 C 19.9 61.4 19.9 61.4 19.8 61.4 C 19.8 61.4 19.8 61.4 19.8 61.4 Z M 15.8 60.4 C 16.6 59.3 15.6 61.3 15.8 60.4 C 15.8 60.4 15.8 60.4 15.8 60.4 Z M 8.8 70.6 C 9.6 69.4 8.5 71.5 8.8 70.6 C 8.8 70.6 8.8 70.6 8.8 70.6 Z M 21.2 56.8 C 22.3 54.8 21.1 58.3 21.2 56.8 C 21.2 56.8 21.2 56.8 21.2 56.8 Z M 24.5 49.0 C 24.6 48.9 24.6 48.9 24.5 49.0 C 24.5 49.0 24.5 49.0 24.5 49.0 Z M 24.9 47.4 C 24.9 47.4 24.9 47.4 24.9 47.4 C 24.9 47.4 24.9 47.4 24.9 47.4 Z M 29.8 42.4 C 29.9 42.3 29.9 42.3 29.8 42.4 C 29.8 42.4 29.8 42.4 29.8 42.4 Z M 25.1 46.0 C 25.1 46.0 25.1 46.0 25.1 46.0 C 25.1 46.0 25.1 46.0 25.1 46.0 Z M 27.9 42.3 C 28.0 42.2 28.0 42.2 27.9 42.3 C 27.9 42.3 27.9 42.3 27.9 42.3 Z M 26.4 42.4 C 26.5 42.3 26.5 42.3 26.4 42.4 C 26.4 42.4 26.4 42.4 26.4 42.4 Z M 26.3 53.2 C 26.4 53.1 26.4 53.1 26.3 53.2 C 26.3 53.2 26.3 53.2 26.3 53.2 Z M 12.1 65.0 C 12.3 64.9 12.3 64.9 12.1 65.0 C 12.1 65.0 12.1 65.0 12.1 65.0 Z M 28.2 42.8 C 28.3 42.7 28.3 42.7 28.2 42.8 C 28.2 42.8 28.2 42.8 28.2 42.8 Z M 23.0 52.6 C 24.1 53.0 21.1 52.8 23.1 52.3 C 23.2 52.4 22.8 52.6 23.0 52.6 M 25.6 52.1 C 25.6 52.1 25.6 52.1 25.6 52.1 C 25.6 52.1 25.6 52.1 25.6 52.1 Z M 23.4 56.7 C 23.4 56.7 23.4 56.7 23.4 56.7 C 23.4 56.7 23.4 56.7 23.4 56.7 Z M 24.4 46.6 C 23.7 46.5 25.6 45.7 24.3 46.8 M 31.8 43.0 C 31.0 43.0 32.9 42.1 31.7 43.2 M 8.3 72.2 C 8.6 72.6 7.5 72.8 8.3 72.2 M 23.3 57.9 C 23.7 58.3 22.5 58.6 23.3 57.9 M 23.3 55.3 C 22.6 55.2 24.5 54.4 23.3 55.4 M 29.8 46.0 C 29.8 45.9 29.8 45.9 29.8 46.0 C 29.8 46.0 29.8 46.0 29.8 46.0 Z M 17.1 58.7 C 17.1 58.6 17.1 58.6 17.1 58.7 C 17.1 58.7 17.1 58.7 17.1 58.7 Z M 21.7 54.0 C 20.5 54.4 22.9 53.3 21.7 54.0 M 17.5 60.8 C 15.8 61.4 18.9 59.4 17.5 60.8 M 33.5 40.9 C 31.5 41.6 34.7 40.2 33.5 40.9 M 26.6 45.5 C 24.6 46.1 27.8 44.9 26.6 45.5 M 18.3 57.9 C 17.6 57.6 19.4 56.9 18.3 57.9 M 9.9 69.4 C 9.1 70.4 10.4 67.7 9.9 69.4 M 27.9 48.9 C 28.0 48.8 28.0 48.8 27.9 48.9 C 27.9 48.9 27.9 48.9 27.9 48.9 Z M 16.6 68.2 C 16.7 68.1 16.7 68.1 16.6 68.2 C 16.6 68.2 16.6 68.2 16.6 68.2 Z M 30.3 38.0 C 30.4 37.9 30.4 37.9 30.3 38.0 C 30.3 38.0 30.3 38.0 30.3 38.0 Z M 26.7 46.4 C 26.8 46.4 26.8 46.4 26.7 46.4 C 26.7 46.4 26.7 46.4 26.7 46.4 Z M 28.7 40.1 C 28.8 40.1 28.8 40.1 28.7 40.1 C 28.7 40.1 28.7 40.1 28.7 40.1 Z M 25.3 50.4 C 25.3 50.4 25.3 50.4 25.3 50.4 C 25.3 50.4 25.3 50.4 25.3 50.4 Z M 21.7 49.8 C 21.7 49.8 21.7 49.8 21.7 49.8 C 21.7 49.8 21.7 49.8 21.7 49.8 Z M 20.4 54.3 C 20.5 54.3 20.5 54.3 20.4 54.3 C 20.4 54.3 20.4 54.3 20.4 54.3 Z M 23.1 48.2 C 24.5 45.7 23.4 49.8 23.1 48.2 C 23.1 48.2 23.1 48.2 23.1 48.2 Z M 23.5 53.5 C 23.6 53.5 23.6 53.5 23.5 53.5 C 23.5 53.5 23.5 53.5 23.5 53.5 Z M 21.2 52.9 C 21.2 51.1 23.2 52.8 21.2 52.9 M 16.2 59.1 C 16.0 58.5 17.0 59.2 16.2 59.1 M 18.4 63.7 C 18.4 63.7 18.4 63.7 18.4 63.7 C 18.4 63.7 18.4 63.7 18.4 63.7 Z M 18.5 62.8 C 18.6 62.8 18.6 62.8 18.5 62.8 C 18.5 62.8 18.5 62.8 18.5 62.8 Z M 14.9 60.6 C 15.0 60.6 15.0 60.6 14.9 60.6 C 14.9 60.6 14.9 60.6 14.9 60.6 Z M 19.7 63.3 C 19.8 63.2 19.8 63.2 19.7 63.3 C 19.7 63.3 19.7 63.3 19.7 63.3 Z M 21.2 50.8 C 21.2 50.7 21.2 50.7 21.2 50.8 C 21.2 50.8 21.2 50.8 21.2 50.8 Z M 29.0 38.8 C 29.0 38.8 29.0 38.8 29.0 38.8 C 29.0 38.8 29.0 38.8 29.0 38.8 Z M 13.2 70.8 C 13.3 70.7 13.3 70.7 13.2 70.8 C 13.2 70.8 13.2 70.8 13.2 70.8 Z M 23.2 50.0 C 23.3 50.0 23.3 50.0 23.2 50.0 C 23.2 50.0 23.2 50.0 23.2 50.0 Z M 17.0 65.3 C 17.1 65.3 17.1 65.3 17.0 65.3 C 17.0 65.3 17.0 65.3 17.0 65.3 Z M 22.5 50.7 C 22.5 50.7 22.5 50.7 22.5 50.7 C 22.5 50.7 22.5 50.7 22.5 50.7 Z M 28.0 49.3 C 28.0 49.3 28.0 49.3 28.0 49.3 C 28.0 49.3 28.0 49.3 28.0 49.3 Z M 30.4 47.0 C 30.4 47.0 30.4 47.0 30.4 47.0 C 30.4 47.0 30.4 47.0 30.4 47.0 Z M 25.7 48.6 C 25.7 48.6 25.7 48.6 25.7 48.6 C 25.7 48.6 25.7 48.6 25.7 48.6 Z M 15.2 65.5 C 11.1 69.8 17.2 61.5 15.2 65.5 M 26.4 47.9 C 24.0 51.2 27.0 44.8 26.4 47.9 C 26.4 47.4 26.4 47.9 26.4 47.9 M 30.6 36.6 C 30.8 38.4 32.0 38.8 33.6 38.6 C 34.7 38.1 32.3 37.3 34.3 38.0 C 33.7 39.7 37.8 38.3 35.2 37.5 C 36.1 35.3 37.0 37.7 36.8 36.1 C 38.0 33.8 38.1 35.2 39.0 33.4 C 38.7 32.9 38.8 32.6 39.0 32.5 C 39.1 32.2 39.7 32.2 38.8 31.6 C 40.3 33.1 38.4 29.3 39.1 29.4 C 40.0 31.6 39.1 22.4 38.7 27.1 C 38.0 25.0 39.2 25.7 39.4 25.1 C 38.5 24.0 40.1 22.0 39.2 20.5 C 39.0 20.7 39.0 21.3 38.7 21.4 C 38.1 21.6 38.8 20.1 38.8 20.2 C 38.4 19.4 37.5 15.9 39.1 19.7 C 39.8 20.1 38.8 16.9 39.4 17.2 C 39.4 14.2 38.0 16.0 39.1 15.0 C 39.1 12.9 39.1 11.4 38.9 11.4 C 39.1 10.1 39.8 10.1 39.2 9.2 C 40.1 8.8 39.6 8.4 39.3 7.8 C 39.0 7.3 38.8 6.9 40.0 7.9 C 39.8 7.1 41.0 8.7 40.3 6.9 C 40.1 8.0 43.1 7.9 41.7 6.6 C 42.1 6.1 45.1 8.6 45.0 6.6 C 46.5 5.2 46.6 3.8 44.4 2.4 C 44.4 3.5 41.9 1.3 43.4 3.2 C 44.4 3.5 43.4 3.7 42.3 3.7 C 41.1 3.7 39.3 4.0 40.2 3.4 C 40.5 2.2 39.3 2.7 38.2 3.9 C 37.2 5.0 36.8 6.5 35.8 6.7 C 36.4 6.4 36.0 7.8 35.9 9.0 C 35.7 10.1 35.5 10.9 34.7 10.0 C 34.5 10.9 35.3 11.3 34.3 12.1 C 34.5 9.1 36.1 13.7 35.1 13.3 C 34.4 12.6 33.9 17.0 34.9 16.8 C 37.2 15.8 34.4 17.8 35.3 18.9 C 35.8 21.5 33.3 17.9 35.0 20.3 C 34.8 20.7 34.7 24.0 34.3 21.8 C 34.5 21.0 36.8 24.5 34.8 24.3 C 33.7 20.4 34.2 28.2 34.8 27.2 C 35.9 22.0 36.1 33.4 35.0 28.7 C 33.9 30.8 34.6 27.9 35.0 31.1 C 35.2 31.0 35.4 31.2 35.6 31.5 C 35.6 32.0 35.0 32.8 34.4 32.2 C 32.2 32.1 36.4 33.7 32.9 34.5 C 31.6 34.3 31.7 37.8 31.2 36.3 C 31.1 36.2 30.6 36.5 30.6 36.6 M 31.4 35.8 C 31.6 36.2 30.5 36.2 31.4 35.8 M 31.5 36.3 C 31.5 36.3 31.5 36.3 31.5 36.3 C 31.5 36.3 31.5 36.3 31.5 36.3 Z M 35.0 31.5 C 34.9 31.5 34.9 31.5 35.0 31.5 C 35.0 31.5 35.0 31.5 35.0 31.5 Z M 39.8 28.3 C 39.8 28.3 39.8 28.3 39.8 28.3 C 39.8 28.3 39.8 28.3 39.8 28.3 Z M 35.2 27.6 C 35.2 27.7 35.2 27.7 35.2 27.6 C 35.2 27.6 35.2 27.6 35.2 27.6 Z M 34.2 33.3 C 34.1 33.4 34.1 33.4 34.2 33.3 C 34.2 33.3 34.2 33.3 34.2 33.3 Z M 34.5 27.8 C 35.2 27.7 34.0 29.0 34.4 27.7 C 34.4 27.7 34.4 27.9 34.5 27.8 M 34.2 22.6 C 34.3 22.6 34.3 22.6 34.2 22.6 M 39.8 12.8 C 39.9 12.8 39.9 12.8 39.8 12.8 M 34.2 10.5 C 34.3 10.4 34.3 10.4 34.2 10.5 M 34.9 17.8 C 34.9 16.2 35.3 17.5 34.9 17.8 M 36.2 5.3 C 34.2 7.0 37.9 2.6 36.2 5.3 M 38.2 3.1 C 38.4 3.0 38.4 3.0 38.2 3.1 M 34.4 13.4 C 34.5 13.4 34.5 13.4 34.4 13.4 C 34.4 13.4 34.4 13.4 34.4 13.4 Z M 34.7 18.3 C 34.3 20.3 34.0 16.1 34.7 18.3 M 34.4 30.6 C 34.1 29.4 35.3 30.9 34.4 30.6 M 33.8 32.7 C 33.9 32.8 33.9 32.8 33.8 32.7 C 33.8 32.7 33.8 32.7 33.8 32.7 Z M 34.5 9.4 C 34.6 9.6 34.6 9.6 34.5 9.4 C 34.5 9.4 34.5 9.4 34.5 9.4 Z M 35.4 6.2 C 35.3 6.3 35.3 6.3 35.4 6.2 C 35.4 6.2 35.4 6.2 35.4 6.2 Z M 40.7 7.9 C 40.7 8.0 40.7 8.0 40.7 7.9 C 40.7 7.9 40.7 7.9 40.7 7.9 Z M 36.9 32.0 C 36.4 32.5 36.2 32.1 36.2 31.7 C 35.9 31.0 35.9 30.2 36.5 30.6 C 37.0 30.6 36.9 31.5 37.0 31.9 C 36.9 31.9 36.9 32.0 36.9 32.0 M 36.2 20.3 C 38.0 20.3 33.8 21.1 36.2 20.3 M 38.8 4.1 C 40.9 5.3 36.3 3.7 38.8 4.1 M 42.6 2.9 C 43.0 3.1 41.4 3.1 40.1 3.4 C 38.9 3.6 37.9 3.1 41.4 2.6 C 42.2 2.2 42.4 2.7 42.6 2.9 M 35.1 22.8 C 36.1 22.6 34.7 25.1 35.1 22.8 M 38.0 14.2 C 37.4 13.3 36.8 11.2 37.9 12.3 C 39.3 12.7 38.6 15.2 38.0 14.2 M 32.6 35.7 C 31.7 34.2 33.9 36.2 32.6 35.7 M 35.5 30.7 C 35.5 30.6 35.5 30.6 35.5 30.7 C 35.5 30.7 35.5 30.7 35.5 30.7 Z M 35.3 28.3 C 35.4 28.2 35.4 28.2 35.3 28.3 M 31.8 34.5 C 31.9 34.4 31.9 34.4 31.8 34.5 M 36.4 13.8 C 36.5 13.7 36.5 13.7 36.4 13.8 M 35.4 18.3 C 36.9 16.5 35.7 19.6 35.4 18.3 M 38.4 24.8 C 39.1 24.3 38.4 26.2 38.4 24.8 M 34.8 14.4 C 36.2 13.2 36.2 17.0 34.8 14.4 M 35.2 19.4 C 35.2 19.3 35.2 19.3 35.2 19.4 C 35.2 19.4 35.2 19.4 35.2 19.4 Z M 38.2 13.6 C 38.2 13.7 38.2 13.7 38.2 13.6 C 38.2 13.6 38.2 13.6 38.2 13.6 Z M 38.1 12.9 C 38.2 13.0 38.2 13.0 38.1 12.9 C 38.1 12.9 38.1 12.9 38.1 12.9 Z M 34.6 12.4 C 34.6 12.5 34.6 12.5 34.6 12.4 C 34.6 12.4 34.6 12.4 34.6 12.4 Z M 37.8 34.1 C 38.8 32.8 37.3 35.3 37.8 34.1 C 37.8 34.1 37.8 34.1 37.8 34.1 Z M 34.5 26.0 C 35.7 23.6 35.6 28.1 34.5 26.0 C 34.5 26.0 34.5 26.0 34.5 26.0 Z M 36.5 23.4 C 36.5 23.5 36.5 23.5 36.5 23.4 C 36.5 23.4 36.5 23.4 36.5 23.4 Z M 33.9 15.2 C 33.9 15.2 33.9 15.2 33.9 15.2 C 33.9 15.2 33.9 15.2 33.9 15.2 Z M 38.4 33.5 C 38.5 33.5 38.5 33.5 38.4 33.5 C 38.4 33.5 38.4 33.5 38.4 33.5 Z M 35.9 7.4 C 35.9 7.5 35.9 7.5 35.9 7.4 C 35.9 7.4 35.9 7.4 35.9 7.4 Z M 38.4 18.1 C 37.9 17.4 38.9 18.1 38.4 18.1 C 38.4 18.1 38.4 18.1 38.4 18.1 Z M 38.4 15.7 C 38.4 15.6 38.4 15.6 38.4 15.7 C 38.4 15.7 38.4 15.7 38.4 15.7 Z M 39.0 2.6 C 39.1 2.5 39.1 2.5 39.0 2.6 C 39.0 2.6 39.0 2.6 39.0 2.6 Z M 39.8 9.8 C 39.8 9.8 39.8 9.8 39.8 9.8 C 39.8 9.8 39.8 9.8 39.8 9.8 Z M 38.6 8.0 C 38.6 8.0 38.6 8.0 38.6 8.0 C 38.6 8.0 38.6 8.0 38.6 8.0 Z M 35.0 12.9 C 34.7 10.4 35.6 13.6 35.0 12.9 C 35.0 12.9 35.0 12.9 35.0 12.9 Z M 42.7 5.6 C 42.8 5.7 42.8 5.7 42.7 5.6 C 42.7 5.6 42.7 5.6 42.7 5.6 Z M 44.4 3.6 C 44.5 3.7 44.5 3.7 44.4 3.6 C 44.4 3.6 44.4 3.6 44.4 3.6 Z M 45.3 2.5 C 45.3 2.6 45.3 2.6 45.3 2.5 C 45.3 2.5 45.3 2.5 45.3 2.5 Z M 37.4 28.9 C 37.4 29.0 37.4 29.0 37.4 28.9 C 37.4 28.9 37.4 28.9 37.4 28.9 Z M 34.2 28.9 C 34.1 28.9 34.1 28.9 34.2 28.9 C 34.2 28.9 34.2 28.9 34.2 28.9 Z M 34.0 25.6 C 34.0 25.6 34.0 25.6 34.0 25.6 C 34.0 25.6 34.0 25.6 34.0 25.6 Z M 39.4 30.1 C 39.4 30.1 39.4 30.1 39.4 30.1 C 39.4 30.1 39.4 30.1 39.4 30.1 Z M 36.6 17.0 C 36.6 17.0 36.6 17.0 36.6 17.0 C 36.6 17.0 36.6 17.0 36.6 17.0 Z M 38.0 16.2 C 37.9 16.2 37.9 16.2 38.0 16.2 C 38.0 16.2 38.0 16.2 38.0 16.2 Z M 39.7 19.5 C 39.7 19.5 39.7 19.5 39.7 19.5 C 39.7 19.5 39.7 19.5 39.7 19.5 Z M 39.1 15.5 C 39.1 15.6 39.1 15.6 39.1 15.5 C 39.1 15.5 39.1 15.5 39.1 15.5 Z M 35.7 37.3 C 35.7 37.3 35.7 37.3 35.7 37.3 C 35.7 37.3 35.7 37.3 35.7 37.3 Z M 33.0 36.7 C 33.1 36.8 33.1 36.8 33.0 36.7 C 33.0 36.7 33.0 36.7 33.0 36.7 Z M 34.8 16.1 C 34.3 15.4 35.5 15.2 34.8 16.1 M 35.1 20.9 C 35.2 20.9 35.2 20.9 35.1 20.9 C 35.1 20.9 35.1 20.9 35.1 20.9 Z M 35.3 7.6 C 36.4 7.5 33.9 10.2 35.3 7.6 C 35.3 7.6 35.3 7.6 35.3 7.6 Z M 39.1 11.8 C 39.1 11.8 39.1 11.8 39.1 11.8 C 39.1 11.8 39.1 11.8 39.1 11.8 Z M 38.7 10.4 C 38.8 10.4 38.8 10.4 38.7 10.4 C 38.7 10.4 38.7 10.4 38.7 10.4 Z M 40.7 4.1 C 40.8 4.1 40.8 4.1 40.7 4.1 M 34.2 21.2 C 34.7 20.6 34.6 20.7 34.2 21.2 M 36.3 5.7 C 36.3 5.8 36.3 5.8 36.3 5.7 C 36.3 5.7 36.3 5.7 36.3 5.7 Z M 42.5 3.4 C 42.5 3.4 42.5 3.4 42.5 3.4 C 42.5 3.4 42.5 3.4 42.5 3.4 Z M 34.9 24.7 C 36.1 24.9 35.9 25.5 34.9 24.7 M 33.8 33.7 C 33.9 33.7 33.9 33.7 33.8 33.7 C 33.8 33.7 33.8 33.7 33.8 33.7 Z M 50.2 2.5 C 47.9 1.2 47.5 3.1 47.5 3.1 C 48.3 0.6 45.0 4.1 45.4 4.6 C 45.2 5.0 46.2 9.4 48.6 6.7 C 49.2 6.4 49.3 7.2 49.6 7.2 C 52.8 7.1 47.8 5.8 51.6 5.8 C 52.2 6.2 50.9 8.3 53.5 6.9 C 53.6 7.1 56.0 7.9 55.2 6.9 C 56.2 7.9 57.2 6.7 58.4 6.4 C 59.3 7.0 57.2 8.0 61.2 6.8 C 62.4 8.6 63.5 5.5 64.6 7.4 C 65.5 7.5 67.5 4.3 65.0 6.1 C 65.4 5.9 64.3 4.4 67.1 4.9 C 66.6 5.4 64.4 8.6 69.3 7.0 C 70.0 7.1 71.9 6.3 72.3 6.6 C 69.9 7.0 75.2 8.1 74.8 7.1 C 78.4 7.8 76.5 6.3 79.0 7.4 C 81.1 7.4 78.5 5.9 81.1 6.8 C 83.1 6.6 81.6 7.4 81.4 7.4 C 83.1 7.5 83.9 6.9 84.5 7.0 C 84.8 7.1 85.5 7.8 86.1 7.0 C 88.1 5.5 86.6 4.1 87.7 2.6 C 86.4 1.9 86.9 3.7 86.1 2.6 C 85.3 3.5 86.0 2.5 82.3 2.7 C 82.4 3.0 83.2 3.6 82.3 3.7 C 80.9 3.6 82.3 1.1 79.6 2.9 C 82.4 3.4 75.6 3.6 78.1 4.2 C 74.9 4.5 77.2 4.0 75.0 3.4 C 74.8 5.0 75.1 1.6 74.0 2.9 C 73.9 2.2 70.2 2.5 72.6 3.6 C 68.8 4.0 71.3 3.0 70.1 2.2 C 68.4 2.1 69.5 4.9 68.8 2.8 C 66.7 1.9 68.5 3.9 67.1 2.2 C 67.6 3.7 65.4 2.2 65.8 3.8 C 61.8 3.9 66.6 2.1 63.6 3.2 C 64.5 3.3 64.5 1.2 62.6 2.5 C 62.8 5.0 60.8 0.4 61.4 3.6 C 55.7 4.5 60.7 2.3 57.7 2.3 C 57.0 2.3 58.4 3.3 57.7 3.4 C 53.9 2.9 57.3 2.0 54.9 3.6 C 51.0 4.0 54.1 2.3 52.3 2.2 C 52.0 2.9 50.1 4.2 50.2 2.5 M 53.4 3.3 C 54.3 2.8 53.8 3.8 53.4 3.3 M 45.9 2.5 C 46.8 2.0 46.3 3.1 45.9 2.5 M 56.6 2.8 C 57.8 2.3 56.8 3.7 56.6 2.8 M 77.1 3.6 C 75.7 3.6 77.8 3.2 77.1 3.6 M 49.0 2.4 C 50.2 1.8 49.1 3.3 49.0 2.4 M 47.3 3.7 C 47.4 3.7 47.4 3.7 47.3 3.7 M 79.3 2.3 C 79.4 2.3 79.4 2.3 79.3 2.3 M 73.8 2.3 C 75.0 2.3 73.1 2.6 73.8 2.3 M 72.7 7.6 C 73.9 7.7 72.0 8.0 72.7 7.6 M 82.3 2.2 C 83.6 1.8 82.6 2.8 82.3 2.2 M 85.3 3.4 C 86.4 2.9 85.9 3.9 85.3 3.4 M 52.3 5.2 C 52.3 5.2 52.3 5.2 52.3 5.2 C 52.3 5.2 52.3 5.2 52.3 5.2 Z M 62.2 6.5 C 61.1 6.0 63.6 7.2 62.2 6.5 M 61.0 3.0 C 61.6 4.1 59.5 2.9 61.0 3.0 C 61.0 3.0 61.0 3.0 61.0 3.0 Z M 59.2 3.5 C 59.1 3.5 59.1 3.5 59.2 3.5 C 59.2 3.5 59.2 3.5 59.2 3.5 Z M 64.9 3.5 C 64.8 3.6 64.8 3.6 64.9 3.5 C 64.9 3.5 64.9 3.5 64.9 3.5 Z M 63.7 3.6 C 63.2 3.9 63.0 3.4 63.7 3.6 C 63.7 3.6 63.7 3.6 63.7 3.6 Z M 71.4 7.1 C 70.9 7.3 70.8 6.9 71.4 7.1 C 71.4 7.1 71.4 7.1 71.4 7.1 Z M 61.8 4.0 C 61.4 5.1 61.1 3.3 61.8 4.0 C 61.8 4.0 61.8 4.0 61.8 4.0 Z M 67.5 6.6 C 68.0 6.3 68.4 7.6 67.5 6.6 M 80.5 2.5 C 81.0 2.2 81.4 3.5 80.5 2.5 M 68.5 2.2 C 69.0 1.9 69.3 3.2 68.5 2.2 M 54.1 2.8 C 54.3 2.9 54.3 2.9 54.1 2.8 M 59.9 7.6 C 60.8 7.1 60.3 8.0 59.9 7.6 M 48.5 7.2 C 49.4 6.8 48.8 7.7 48.5 7.2 M 78.0 7.5 C 78.0 7.2 79.2 7.7 78.0 7.5 M 69.6 3.9 C 70.6 4.1 71.6 4.6 69.4 4.6 C 69.3 4.3 70.0 4.2 69.6 3.9 C 69.6 3.9 69.6 3.9 69.6 3.9 Z M 73.0 6.4 C 73.1 6.5 73.1 6.5 73.0 6.4 M 71.6 2.9 C 71.8 3.0 71.8 3.0 71.6 2.9 M 77.8 3.0 C 77.9 3.2 77.9 3.2 77.8 3.0 M 78.6 2.7 C 78.6 2.8 78.6 2.8 78.6 2.7 C 78.6 2.7 78.6 2.7 78.6 2.7 Z M 85.4 2.3 C 85.4 2.3 85.4 2.3 85.4 2.3 C 85.4 2.3 85.4 2.3 85.4 2.3 Z M 75.8 3.2 C 75.8 3.2 75.8 3.2 75.8 3.2 C 75.8 3.2 75.8 3.2 75.8 3.2 Z M 80.8 7.3 C 80.8 7.4 80.8 7.4 80.8 7.3 C 80.8 7.3 80.8 7.3 80.8 7.3 Z M 80.2 6.7 C 80.2 6.7 80.2 6.7 80.2 6.7 C 80.2 6.7 80.2 6.7 80.2 6.7 Z M 50.7 2.5 C 51.8 1.7 50.8 4.4 50.7 2.5 M 83.2 6.7 C 84.0 7.4 81.6 6.8 83.2 6.7 C 83.2 6.7 83.2 6.7 83.2 6.7 Z M 74.9 4.1 C 75.0 4.2 75.0 4.2 74.9 4.1 M 79.0 2.8 C 79.0 3.0 79.0 3.0 79.0 2.8 M 61.2 2.0 C 61.2 2.1 61.2 2.1 61.2 2.0 M 83.7 3.0 C 86.6 3.3 82.2 4.6 83.7 3.0 M 59.6 3.0 C 59.6 2.9 59.6 2.9 59.6 3.0 M 65.8 5.1 C 67.7 5.0 65.0 5.7 65.8 5.1 M 70.9 3.7 C 70.9 3.7 70.9 3.7 70.9 3.7 C 70.9 3.7 70.9 3.7 70.9 3.7 Z M 68.1 3.7 C 66.6 3.8 67.8 3.4 68.1 3.7 C 68.1 3.7 68.1 3.7 68.1 3.7 Z M 51.9 3.5 C 53.6 3.7 49.9 3.9 51.9 3.5 C 51.9 3.5 51.9 3.5 51.9 3.5 Z M 82.0 5.6 C 81.9 5.6 81.9 5.6 82.0 5.6 C 82.0 5.6 82.0 5.6 82.0 5.6 Z M 75.6 2.4 C 74.7 2.7 75.2 2.1 75.6 2.4 C 75.6 2.4 75.6 2.4 75.6 2.4 Z M 86.4 2.3 C 85.6 2.5 86.1 1.9 86.4 2.3 C 86.4 2.3 86.4 2.3 86.4 2.3 Z M 49.7 3.3 C 56.0 5.1 40.9 2.9 49.7 3.3 C 49.7 3.3 49.7 3.3 49.7 3.3 Z M 69.3 2.9 C 69.3 3.0 69.3 3.0 69.3 2.9 C 69.3 2.9 69.3 2.9 69.3 2.9 Z M 57.2 2.2 C 57.1 2.2 57.1 2.2 57.2 2.2 C 57.2 2.2 57.2 2.2 57.2 2.2 Z M 54.8 3.2 C 54.8 3.2 54.8 3.2 54.8 3.2 C 54.8 3.2 54.8 3.2 54.8 3.2 Z M 54.6 7.5 C 54.5 7.5 54.5 7.5 54.6 7.5 C 54.6 7.5 54.6 7.5 54.6 7.5 Z M 55.7 5.5 C 55.6 5.6 55.6 5.6 55.7 5.5 C 55.7 5.5 55.7 5.5 55.7 5.5 Z M 51.2 6.2 C 51.1 6.3 51.1 6.3 51.2 6.2 C 51.2 6.2 51.2 6.2 51.2 6.2 Z M 51.2 6.8 C 51.1 6.8 51.1 6.8 51.2 6.8 C 51.2 6.8 51.2 6.8 51.2 6.8 Z M 78.8 4.0 C 78.7 4.1 78.7 4.1 78.8 4.0 C 78.8 4.0 78.8 4.0 78.8 4.0 Z M 76.2 5.8 C 77.9 5.2 75.6 6.7 76.2 5.8 C 76.2 5.8 76.2 5.8 76.2 5.8 Z M 62.5 4.9 C 64.0 4.7 61.4 5.5 62.5 4.9 C 62.5 4.9 62.5 4.9 62.5 4.9 Z M 63.6 7.2 C 63.6 7.3 63.6 7.3 63.6 7.2 C 63.6 7.2 63.6 7.2 63.6 7.2 Z M 55.1 2.2 C 55.0 2.3 55.0 2.3 55.1 2.2 C 55.1 2.2 55.1 2.2 55.1 2.2 Z M 52.3 2.9 C 52.0 3.8 51.6 2.4 52.3 2.9 M 65.6 2.4 C 65.6 2.5 65.6 2.5 65.6 2.4 C 65.6 2.4 65.6 2.4 65.6 2.4 Z M 73.8 3.8 C 73.7 3.8 73.7 3.8 73.8 3.8 C 73.8 3.8 73.8 3.8 73.8 3.8 Z M 82.2 3.2 C 82.1 3.3 82.1 3.3 82.2 3.2 C 82.2 3.2 82.2 3.2 82.2 3.2 Z M 70.8 2.5 C 70.7 2.6 70.7 2.6 70.8 2.5 C 70.8 2.5 70.8 2.5 70.8 2.5 Z M 66.7 3.3 C 66.6 3.4 66.6 3.4 66.7 3.3 C 66.7 3.3 66.7 3.3 66.7 3.3 Z M 83.8 4.5 C 83.7 4.5 83.7 4.5 83.8 4.5 C 83.8 4.5 83.8 4.5 83.8 4.5 Z M 71.8 2.4 C 71.7 2.4 71.7 2.4 71.8 2.4 C 71.8 2.4 71.8 2.4 71.8 2.4 Z M 73.7 5.2 C 73.6 5.3 73.6 5.3 73.7 5.2 C 73.7 5.2 73.7 5.2 73.7 5.2 Z M 52.9 1.6 C 52.9 1.7 52.9 1.7 52.9 1.6 C 52.9 1.6 52.9 1.6 52.9 1.6 Z M 84.1 3.3 C 84.0 3.3 84.0 3.3 84.1 3.3 C 84.1 3.3 84.1 3.3 84.1 3.3 Z M 84.7 2.5 C 84.7 2.5 84.7 2.5 84.7 2.5 C 84.7 2.5 84.7 2.5 84.7 2.5 Z M 78.2 6.7 C 75.3 6.2 80.8 6.5 78.8 5.6 C 83.1 5.3 78.8 6.8 78.2 6.7 C 78.2 6.7 78.2 6.7 78.2 6.7 Z M 88.7 2.1 C 86.9 3.3 86.7 4.5 87.3 5.8 C 88.0 6.4 88.3 4.0 88.0 6.0 C 86.1 6.4 88.5 9.1 88.8 6.5 C 91.3 6.1 88.9 8.1 90.6 7.1 C 93.2 6.8 91.8 7.6 93.8 7.5 C 95.2 6.0 94.9 8.2 95.6 6.8 C 94.4 8.3 97.8 6.4 97.8 7.1 C 95.9 8.0 104.9 7.1 100.1 6.6 C 102.1 5.9 101.6 7.2 102.3 7.4 C 103.2 6.5 105.5 8.1 106.8 7.2 C 106.6 7.0 105.9 6.9 105.8 6.6 C 105.5 6.1 107.2 6.8 107.0 6.7 C 107.8 6.4 111.1 5.5 107.5 7.1 C 107.3 7.8 110.3 6.7 110.2 7.4 C 113.2 7.4 111.0 5.9 112.3 7.0 C 114.4 7.1 115.9 7.1 115.9 6.9 C 117.2 7.0 117.4 7.9 118.6 7.1 C 121.1 8.6 120.6 4.0 121.4 7.1 C 122.2 6.4 122.8 8.4 122.8 6.5 C 121.8 7.4 127.1 8.0 124.9 6.6 C 125.5 6.1 128.7 8.6 128.3 6.6 C 129.6 5.2 129.4 3.8 126.9 2.4 C 127.1 3.5 124.3 1.3 126.1 3.2 C 128.3 3.8 122.0 3.9 123.4 3.2 C 123.8 0.9 120.2 4.6 119.0 3.0 C 120.0 3.9 114.9 4.3 116.5 2.6 C 115.6 2.5 115.3 3.3 114.3 2.3 C 117.4 2.5 113.0 4.1 113.3 3.0 C 113.9 2.4 109.4 1.9 109.7 2.8 C 111.1 5.2 108.6 2.4 107.7 3.3 C 105.2 3.8 108.3 1.3 106.3 3.0 C 105.8 2.7 102.5 2.7 104.6 2.2 C 105.4 2.5 102.4 4.8 102.2 2.8 C 105.9 1.7 98.2 2.2 99.4 2.8 C 104.7 3.9 93.4 4.0 97.8 3.0 C 95.5 1.9 98.6 2.5 95.5 3.0 C 95.8 3.6 93.4 4.2 94.1 3.0 C 93.9 1.1 93.0 5.5 91.4 2.9 C 91.3 1.8 87.6 3.7 89.1 2.5 C 89.2 2.3 88.8 2.1 88.7 2.1 M 89.7 2.4 C 89.3 2.8 89.1 1.8 89.7 2.4 M 89.2 2.8 C 89.2 2.7 89.2 2.7 89.2 2.8 C 89.2 2.8 89.2 2.8 89.2 2.8 Z M 95.0 3.1 C 95.0 3.0 95.0 3.0 95.0 3.1 C 95.0 3.1 95.0 3.1 95.0 3.1 Z M 99.2 7.8 C 99.1 7.8 99.1 7.8 99.2 7.8 C 99.2 7.8 99.2 7.8 99.2 7.8 Z M 99.0 3.2 C 98.9 3.2 98.9 3.2 99.0 3.2 C 99.0 3.2 99.0 3.2 99.0 3.2 Z M 92.9 3.4 C 92.9 3.4 92.9 3.4 92.9 3.4 C 92.9 3.4 92.9 3.4 92.9 3.4 Z M 98.7 2.5 C 98.9 3.2 97.4 2.0 98.7 2.4 C 98.8 2.4 98.5 2.4 98.7 2.5 M 103.8 2.2 C 103.8 2.3 103.8 2.3 103.8 2.2 M 114.6 7.8 C 114.6 7.8 114.6 7.8 114.6 7.8 M 115.9 2.1 C 116.0 2.2 116.0 2.2 115.9 2.1 M 108.8 2.9 C 110.4 2.8 109.1 3.3 108.8 2.9 M 120.0 2.5 C 118.1 2.1 122.1 2.2 120.0 2.5 M 121.9 2.1 C 122.1 2.2 122.1 2.2 121.9 2.1 M 113.1 2.4 C 113.0 2.4 113.0 2.4 113.1 2.4 C 113.1 2.4 113.1 2.4 113.1 2.4 Z M 108.2 2.6 C 106.1 2.2 110.3 2.0 108.2 2.6 M 95.8 2.4 C 97.0 2.0 95.7 3.3 95.8 2.4 M 93.5 2.8 C 93.4 2.8 93.4 2.8 93.5 2.8 C 93.5 2.8 93.5 2.8 93.5 2.8 Z M 116.9 2.5 C 116.8 2.5 116.8 2.5 116.9 2.5 C 116.9 2.5 116.9 2.5 116.9 2.5 Z M 119.1 2.4 C 119.1 2.4 119.1 2.4 119.1 2.4 C 119.1 2.4 119.1 2.4 119.1 2.4 Z M 122.6 7.6 C 122.5 7.6 122.5 7.6 122.6 7.6 C 122.6 7.6 122.6 7.6 122.6 7.6 Z M 94.9 4.9 C 93.5 4.6 96.7 3.2 96.2 4.5 C 96.3 5.0 95.1 4.8 94.9 4.9 M 106.5 4.2 C 106.7 6.0 105.3 1.8 106.5 4.2 M 122.1 3.3 C 123.5 5.4 120.3 1.8 122.1 3.3 M 125.3 2.9 C 126.1 3.3 119.5 3.2 124.2 2.6 C 124.6 2.3 124.9 2.7 125.3 2.9 M 103.8 3.0 C 104.1 4.0 101.4 2.6 103.8 3.0 M 112.9 6.0 C 113.7 5.4 115.7 4.8 114.8 5.9 C 114.6 7.3 112.0 6.5 112.9 6.0 M 90.1 3.4 C 91.5 1.8 89.8 4.7 90.1 3.4 M 96.0 3.5 C 96.0 3.4 96.0 3.4 96.0 3.5 C 96.0 3.5 96.0 3.5 96.0 3.5 Z M 98.3 3.2 C 98.4 3.4 98.4 3.4 98.3 3.2 M 91.2 2.0 C 91.3 2.1 91.3 2.1 91.2 2.0 M 113.0 4.4 C 113.1 4.5 113.1 4.5 113.0 4.4 M 108.3 3.3 C 110.4 4.9 107.0 3.6 108.3 3.3 M 102.4 6.3 C 103.0 7.1 101.0 6.4 102.4 6.3 M 112.1 2.7 C 113.6 4.2 109.8 4.1 112.1 2.7 M 107.2 3.2 C 107.3 3.2 107.3 3.2 107.2 3.2 C 107.2 3.2 107.2 3.2 107.2 3.2 Z M 113.5 6.2 C 113.5 6.2 113.5 6.2 113.5 6.2 C 113.5 6.2 113.5 6.2 113.5 6.2 Z M 114.2 6.1 C 114.1 6.1 114.1 6.1 114.2 6.1 C 114.2 6.1 114.2 6.1 114.2 6.1 Z M 114.1 2.6 C 114.0 2.6 114.0 2.6 114.1 2.6 C 114.1 2.6 114.1 2.6 114.1 2.6 Z M 92.8 6.8 C 94.4 7.0 91.5 7.1 92.8 6.8 C 92.8 6.8 92.8 6.8 92.8 6.8 Z M 100.5 2.5 C 103.1 3.7 98.5 3.6 100.5 2.5 C 100.5 2.5 100.5 2.5 100.5 2.5 Z M 103.4 4.4 C 103.4 4.5 103.4 4.5 103.4 4.4 C 103.4 4.4 103.4 4.4 103.4 4.4 Z M 111.1 1.8 C 111.1 1.9 111.1 1.9 111.1 1.8 C 111.1 1.8 111.1 1.8 111.1 1.8 Z M 93.6 7.0 C 93.6 7.1 93.6 7.1 93.6 7.0 C 93.6 7.0 93.6 7.0 93.6 7.0 Z M 118.7 3.4 C 118.6 3.4 118.6 3.4 118.7 3.4 C 118.7 3.4 118.7 3.4 118.7 3.4 Z M 109.1 6.4 C 109.7 5.8 109.2 6.8 109.1 6.4 C 109.1 6.4 109.1 6.4 109.1 6.4 Z M 111.5 6.4 C 111.6 6.4 111.6 6.4 111.5 6.4 C 111.5 6.4 111.5 6.4 111.5 6.4 Z M 122.5 2.0 C 122.6 2.0 122.6 2.0 122.5 2.0 C 122.5 2.0 122.5 2.0 122.5 2.0 Z M 117.6 7.8 C 117.7 7.8 117.7 7.8 117.6 7.8 C 117.6 7.8 117.6 7.8 117.6 7.8 Z M 119.8 6.1 C 119.8 6.1 119.8 6.1 119.8 6.1 C 119.8 6.1 119.8 6.1 119.8 6.1 Z M 113.6 2.9 C 116.1 2.6 113.0 3.6 113.6 2.9 C 113.6 2.9 113.6 2.9 113.6 2.9 Z M 125.8 5.6 C 125.9 5.7 125.9 5.7 125.8 5.6 C 125.8 5.6 125.8 5.6 125.8 5.6 Z M 127.2 3.6 C 127.2 3.7 127.2 3.7 127.2 3.6 C 127.2 3.6 127.2 3.6 127.2 3.6 Z M 127.8 2.5 C 127.9 2.6 127.9 2.6 127.8 2.5 C 127.8 2.5 127.8 2.5 127.8 2.5 Z M 98.1 5.4 C 98.0 5.3 98.0 5.3 98.1 5.4 C 98.1 5.4 98.1 5.4 98.1 5.4 Z M 97.5 2.1 C 97.5 2.1 97.5 2.1 97.5 2.1 C 97.5 2.1 97.5 2.1 97.5 2.1 Z M 100.8 2.0 C 100.7 1.9 100.7 1.9 100.8 2.0 C 100.8 2.0 100.8 2.0 100.8 2.0 Z M 97.2 7.4 C 97.2 7.4 97.2 7.4 97.2 7.4 C 97.2 7.4 97.2 7.4 97.2 7.4 Z M 109.9 4.6 C 109.8 4.5 109.8 4.5 109.9 4.6 C 109.9 4.6 109.9 4.6 109.9 4.6 Z M 110.9 5.9 C 110.9 5.9 110.9 5.9 110.9 5.9 C 110.9 5.9 110.9 5.9 110.9 5.9 Z M 107.9 7.7 C 107.9 7.7 107.9 7.7 107.9 7.7 C 107.9 7.7 107.9 7.7 107.9 7.7 Z M 111.7 7.1 C 111.7 7.1 111.7 7.1 111.7 7.1 C 111.7 7.1 111.7 7.1 111.7 7.1 Z M 89.0 6.8 C 89.0 6.8 89.0 6.8 89.0 6.8 C 89.0 6.8 89.0 6.8 89.0 6.8 Z M 89.1 4.3 C 89.0 4.4 89.0 4.4 89.1 4.3 C 89.1 4.3 89.1 4.3 89.1 4.3 Z M 110.4 2.8 C 111.0 2.3 111.5 3.5 110.4 2.8 M 105.7 3.1 C 105.7 3.1 105.7 3.1 105.7 3.1 C 105.7 3.1 105.7 3.1 105.7 3.1 Z M 118.3 2.9 C 118.8 3.9 116.1 2.4 118.3 2.9 C 118.3 2.9 118.3 2.9 118.3 2.9 Z M 115.5 7.1 C 115.5 7.1 115.5 7.1 115.5 7.1 C 115.5 7.1 115.5 7.1 115.5 7.1 Z M 116.8 6.7 C 116.8 6.8 116.8 6.8 116.8 6.7 C 116.8 6.7 116.8 6.7 116.8 6.7 Z M 123.7 3.9 C 123.9 4.0 123.9 4.0 123.7 3.9 M 105.2 2.2 C 105.9 2.7 105.7 2.6 105.2 2.2 M 119.9 2.9 C 119.8 2.9 119.8 2.9 119.9 2.9 C 119.9 2.9 119.9 2.9 119.9 2.9 Z M 125.3 3.4 C 125.2 3.4 125.2 3.4 125.3 3.4 C 125.3 3.4 125.3 3.4 125.3 3.4 Z M 101.8 2.9 C 101.8 4.1 101.2 3.8 101.8 2.9 M 92.5 3.3 C 92.5 3.4 92.5 3.4 92.5 3.3 C 92.5 3.3 92.5 3.3 92.5 3.3 Z M 132.7 2.5 C 130.3 1.2 130.2 3.1 130.2 3.1 C 130.5 0.6 127.8 4.1 128.3 4.6 C 128.2 5.0 130.0 9.4 131.9 6.7 C 132.4 6.4 132.7 7.2 133.0 7.2 C 136.2 7.1 130.9 5.8 134.7 5.8 C 135.4 6.2 134.6 8.3 136.8 6.9 C 136.9 7.1 139.5 7.9 138.5 6.9 C 139.7 7.9 140.5 6.7 141.7 6.4 C 142.7 7.0 140.8 8.0 144.5 6.8 C 145.3 7.7 145.6 7.4 145.9 7.1 C 146.3 6.9 146.8 6.8 146.6 7.8 C 147.0 8.1 149.7 6.1 147.4 6.7 C 147.7 6.7 148.2 4.4 149.4 7.0 C 149.1 6.9 148.1 7.2 147.7 7.7 C 147.2 8.3 147.3 8.3 148.2 9.5 C 148.2 10.0 149.0 11.8 148.6 12.2 C 148.2 9.8 147.2 15.4 148.2 14.8 C 147.5 18.5 148.9 16.4 147.9 19.0 C 147.8 21.2 149.3 18.3 148.5 21.0 C 148.6 23.0 147.8 21.7 147.9 21.5 C 147.7 23.2 148.3 23.9 148.3 24.5 C 148.1 24.9 147.4 25.7 148.3 26.1 C 149.7 27.9 151.2 26.1 152.6 26.9 C 153.3 25.5 151.5 26.3 152.6 25.3 C 151.7 24.7 152.7 25.2 152.5 21.6 C 152.3 21.7 151.6 22.6 151.5 21.7 C 151.7 20.3 154.1 21.2 152.4 18.9 C 151.9 21.7 151.6 15.0 151.1 17.6 C 150.8 14.4 151.3 16.7 151.9 14.3 C 150.2 14.5 153.7 14.1 152.3 13.3 C 153.0 13.0 152.7 9.4 151.7 12.0 C 151.2 8.2 152.4 11.1 153.0 8.9 C 152.7 6.1 150.6 9.5 151.9 7.3 C 151.8 5.6 151.3 5.7 151.2 5.9 C 151.1 6.1 151.3 6.3 151.1 4.8 C 150.7 6.6 149.4 3.3 149.0 5.0 C 147.1 3.7 147.1 3.7 147.6 3.5 C 148.0 3.4 148.6 3.2 146.7 3.3 C 147.2 3.5 147.5 3.1 147.4 2.7 C 147.2 2.3 146.0 1.9 145.1 2.5 C 145.9 5.0 143.0 0.4 144.2 3.6 C 138.7 4.5 143.3 2.3 140.3 2.3 C 139.5 2.3 141.1 3.3 140.4 3.4 C 136.5 2.9 139.8 2.0 137.7 3.6 C 133.9 4.0 136.6 2.3 134.8 2.2 C 134.6 2.9 133.0 4.2 132.7 2.5 M 136.1 3.3 C 136.9 2.8 136.6 3.8 136.1 3.3 M 128.5 2.5 C 129.3 2.0 128.9 3.1 128.5 2.5 M 139.3 2.8 C 140.3 2.3 139.6 3.7 139.3 2.8 M 151.6 16.5 C 151.6 15.0 152.1 17.1 151.6 16.5 M 131.5 2.4 C 132.7 1.8 131.8 3.3 131.5 2.4 M 130.1 3.7 C 130.1 3.7 130.1 3.7 130.1 3.7 M 153.0 18.5 C 152.9 18.5 152.9 18.5 153.0 18.5 M 153.0 13.0 C 152.9 14.1 152.6 12.3 153.0 13.0 M 147.6 12.8 C 147.6 14.1 147.3 12.2 147.6 12.8 M 153.0 21.5 C 153.4 22.6 152.4 21.8 153.0 21.5 M 151.9 24.6 C 152.3 25.6 151.3 25.3 151.9 24.6 M 135.4 5.2 C 135.3 5.2 135.3 5.2 135.4 5.2 C 135.4 5.2 135.4 5.2 135.4 5.2 Z M 145.5 6.5 C 144.6 5.9 146.5 7.2 145.5 6.5 M 143.7 3.0 C 144.5 4.1 142.1 2.9 143.7 3.0 C 143.7 3.0 143.7 3.0 143.7 3.0 Z M 141.9 3.5 C 141.9 3.5 141.9 3.5 141.9 3.5 C 141.9 3.5 141.9 3.5 141.9 3.5 Z M 148.1 4.2 C 148.1 4.2 148.1 4.2 148.1 4.2 C 148.1 4.2 148.1 4.2 148.1 4.2 Z M 146.7 3.8 C 146.1 3.9 145.9 3.4 146.7 3.8 C 146.7 3.8 146.7 3.8 146.7 3.8 Z M 148.2 11.4 C 147.9 10.9 148.4 10.8 148.2 11.4 C 148.2 11.4 148.2 11.4 148.2 11.4 Z M 144.6 4.0 C 144.5 5.1 143.8 3.3 144.6 4.0 C 144.6 4.0 144.6 4.0 144.6 4.0 Z M 148.2 8.3 C 148.6 8.5 147.7 9.4 148.2 8.3 M 152.8 19.6 C 153.1 20.1 151.7 20.7 152.8 19.6 M 152.3 6.4 C 152.9 7.0 152.1 8.3 152.3 6.4 M 136.8 2.8 C 136.9 2.9 136.9 2.9 136.8 2.8 M 143.4 7.6 C 144.2 7.1 143.8 8.0 143.4 7.6 M 131.9 7.2 C 132.8 6.8 132.3 7.7 131.9 7.2 M 147.7 18.1 C 148.0 18.0 147.6 19.3 147.7 18.1 M 151.2 8.8 C 151.3 10.1 151.0 11.2 150.6 8.9 C 150.8 8.7 151.1 9.4 151.2 8.8 C 151.2 8.8 151.2 8.8 151.2 8.8 Z M 148.8 12.9 C 148.7 13.0 148.7 13.0 148.8 12.9 M 152.3 10.9 C 152.2 11.0 152.2 11.0 152.3 10.9 M 152.2 17.1 C 152.1 17.2 152.1 17.2 152.2 17.1 M 152.5 17.8 C 152.5 17.8 152.5 17.8 152.5 17.8 C 152.5 17.8 152.5 17.8 152.5 17.8 Z M 153.0 24.6 C 152.9 24.6 152.9 24.6 153.0 24.6 C 153.0 24.6 153.0 24.6 153.0 24.6 Z M 152.1 15.1 C 152.0 15.1 152.0 15.1 152.1 15.1 C 152.1 15.1 152.1 15.1 152.1 15.1 Z M 147.9 20.8 C 147.9 20.8 147.9 20.8 147.9 20.8 C 147.9 20.8 147.9 20.8 147.9 20.8 Z M 148.6 20.1 C 148.5 20.1 148.5 20.1 148.6 20.1 C 148.6 20.1 148.6 20.1 148.6 20.1 Z M 133.3 2.5 C 134.2 1.7 133.7 4.4 133.3 2.5 M 148.6 23.1 C 147.8 24.0 148.4 21.5 148.6 23.1 C 148.6 23.1 148.6 23.1 148.6 23.1 Z M 151.2 14.4 C 151.0 14.5 151.0 14.5 151.2 14.4 M 152.4 18.2 C 152.3 18.3 152.3 18.3 152.4 18.2 M 143.6 2.0 C 143.7 2.1 143.7 2.1 143.6 2.0 M 152.2 23.0 C 152.0 25.9 150.7 21.7 152.2 23.0 M 142.3 3.0 C 142.2 2.9 142.2 2.9 142.3 3.0 M 148.4 6.1 C 149.9 7.2 147.5 6.2 148.4 6.1 M 151.6 10.3 C 151.5 10.3 151.5 10.3 151.6 10.3 C 151.6 10.3 151.6 10.3 151.6 10.3 Z M 150.8 7.0 C 149.9 5.5 150.9 6.4 150.8 7.0 C 150.8 7.0 150.8 7.0 150.8 7.0 Z M 134.6 3.5 C 136.4 3.7 132.7 3.9 134.6 3.5 C 134.6 3.5 134.6 3.5 134.6 3.5 Z M 149.7 21.7 C 149.6 21.7 149.6 21.7 149.7 21.7 C 149.7 21.7 149.7 21.7 149.7 21.7 Z M 152.9 14.7 C 152.6 13.9 153.2 14.3 152.9 14.7 C 152.9 14.7 152.9 14.7 152.9 14.7 Z M 153.0 25.6 C 152.7 24.7 153.3 25.2 153.0 25.6 C 153.0 25.6 153.0 25.6 153.0 25.6 Z M 132.4 3.3 C 139.1 5.1 123.5 2.9 132.4 3.3 C 132.4 3.3 132.4 3.3 132.4 3.3 Z M 152.1 8.1 C 152.0 8.0 152.0 8.0 152.1 8.1 C 152.1 8.1 152.1 8.1 152.1 8.1 Z M 139.7 2.2 C 139.6 2.2 139.6 2.2 139.7 2.2 C 139.7 2.2 139.7 2.2 139.7 2.2 Z M 137.5 3.2 C 137.5 3.2 137.5 3.2 137.5 3.2 C 137.5 3.2 137.5 3.2 137.5 3.2 Z M 138.0 7.5 C 138.0 7.5 138.0 7.5 138.0 7.5 C 138.0 7.5 138.0 7.5 138.0 7.5 Z M 138.8 5.5 C 138.7 5.6 138.7 5.6 138.8 5.5 C 138.8 5.5 138.8 5.5 138.8 5.5 Z M 134.4 6.2 C 134.4 6.3 134.4 6.3 134.4 6.2 C 134.4 6.2 134.4 6.2 134.4 6.2 Z M 134.5 6.8 C 134.5 6.8 134.5 6.8 134.5 6.8 C 134.5 6.8 134.5 6.8 134.5 6.8 Z M 151.2 18.2 C 151.1 18.2 151.1 18.2 151.2 18.2 C 151.2 18.2 151.2 18.2 151.2 18.2 Z M 149.5 16.0 C 150.1 17.5 148.5 15.5 149.5 16.0 C 149.5 16.0 149.5 16.0 149.5 16.0 Z M 145.5 4.9 C 147.0 4.7 144.5 5.4 145.5 4.9 C 145.5 4.9 145.5 4.9 145.5 4.9 Z M 146.2 7.4 C 146.2 7.4 146.2 7.4 146.2 7.4 C 146.2 7.4 146.2 7.4 146.2 7.4 Z M 137.6 2.2 C 137.5 2.3 137.5 2.3 137.6 2.2 C 137.6 2.2 137.6 2.2 137.6 2.2 Z M 134.9 2.9 C 134.8 3.8 134.1 2.4 134.9 2.9 M 149.4 3.5 C 149.3 3.6 149.3 3.6 149.4 3.5 C 149.4 3.5 149.4 3.5 149.4 3.5 Z M 151.5 13.2 C 151.4 13.1 151.4 13.1 151.5 13.2 C 151.5 13.2 151.5 13.2 151.5 13.2 Z M 152.1 21.5 C 151.9 21.4 151.9 21.4 152.1 21.5 C 152.1 21.5 152.1 21.5 152.1 21.5 Z M 152.8 10.0 C 152.7 9.9 152.7 9.9 152.8 10.0 C 152.8 10.0 152.8 10.0 152.8 10.0 Z M 150.1 5.3 C 150.0 5.4 150.0 5.4 150.1 5.3 C 150.1 5.3 150.1 5.3 150.1 5.3 Z M 150.8 23.4 C 150.7 23.3 150.7 23.3 150.8 23.4 C 150.8 23.4 150.8 23.4 150.8 23.4 Z M 152.9 10.9 C 152.9 10.9 152.9 10.9 152.9 10.9 C 152.9 10.9 152.9 10.9 152.9 10.9 Z M 150.0 13.4 C 150.0 13.3 150.0 13.3 150.0 13.4 C 150.0 13.4 150.0 13.4 150.0 13.4 Z M 135.3 1.6 C 135.3 1.7 135.3 1.7 135.3 1.6 C 135.3 1.6 135.3 1.6 135.3 1.6 Z M 152.0 23.4 C 151.9 23.4 151.9 23.4 152.0 23.4 C 152.0 23.4 152.0 23.4 152.0 23.4 Z M 152.8 23.9 C 152.7 23.8 152.7 23.8 152.8 23.9 C 152.8 23.9 152.8 23.9 152.8 23.9 Z M 148.5 18.1 C 149.0 15.1 148.7 20.7 149.7 18.6 C 149.9 22.8 148.5 18.7 148.5 18.1 C 148.5 18.1 148.5 18.1 148.5 18.1 Z M 153.1 27.8 C 151.9 26.2 150.7 26.3 149.5 27.0 C 148.9 27.9 151.3 27.7 149.2 27.9 C 148.8 26.0 146.1 28.8 148.8 28.7 C 149.2 31.1 147.1 29.1 148.2 30.6 C 148.4 33.2 147.6 31.9 147.8 33.9 C 149.2 35.0 147.1 35.1 148.5 35.6 C 147.0 34.7 148.9 37.7 148.2 37.8 C 147.3 36.0 148.2 44.9 148.6 40.0 C 149.3 41.9 148.1 41.7 147.9 42.3 C 148.3 42.7 148.2 43.8 148.0 44.2 C 147.7 44.7 147.4 44.9 147.6 45.4 C 147.9 45.4 148.1 45.1 148.4 45.1 C 149.0 45.1 147.9 45.8 148.0 45.7 C 148.0 46.3 147.5 48.2 147.5 45.8 C 147.0 45.3 146.4 46.9 146.2 46.3 C 144.8 46.8 146.4 47.9 145.0 46.8 C 142.8 46.8 141.3 46.8 141.4 47.0 C 140.1 46.8 139.7 46.0 138.6 46.8 C 135.9 45.2 137.2 49.8 135.8 46.7 C 135.2 47.5 134.2 45.4 134.6 47.3 C 135.3 46.5 130.0 45.9 132.4 47.3 C 131.9 47.7 128.2 45.3 129.0 47.2 C 128.0 48.6 128.4 50.0 131.1 51.4 C 130.7 50.3 134.0 52.5 131.8 50.7 C 129.5 50.0 135.8 50.0 134.6 50.7 C 134.5 52.9 137.4 49.3 138.9 50.9 C 137.8 50.0 142.8 49.5 141.5 51.2 C 142.5 51.4 142.6 50.5 143.7 51.5 C 140.7 51.4 144.7 49.8 144.6 50.8 C 144.4 51.1 145.5 51.6 147.1 51.3 C 148.6 51.0 149.8 50.1 149.2 49.9 C 145.8 49.2 151.0 49.1 150.7 47.8 C 152.2 44.9 152.7 48.9 151.9 46.2 C 152.4 45.6 152.5 41.7 153.0 43.8 C 152.8 44.6 150.5 42.0 152.5 41.5 C 153.6 45.0 153.1 37.3 152.4 38.6 C 151.4 44.2 151.2 32.8 152.3 37.1 C 153.4 34.6 152.7 37.8 152.3 34.8 C 151.6 35.2 151.0 32.9 152.3 33.4 C 154.2 32.8 149.8 32.7 152.3 30.7 C 153.5 30.4 151.5 27.0 152.8 28.3 C 152.9 28.4 153.1 27.9 153.1 27.8 M 152.9 28.9 C 152.5 28.5 153.4 28.2 152.9 28.9 M 152.5 28.5 C 152.5 28.4 152.5 28.4 152.5 28.5 C 152.5 28.5 152.5 28.5 152.5 28.5 Z M 152.2 34.3 C 152.2 34.3 152.2 34.3 152.2 34.3 C 152.2 34.3 152.2 34.3 152.2 34.3 Z M 147.4 39.3 C 147.5 39.3 147.5 39.3 147.4 39.3 C 147.4 39.3 147.4 39.3 147.4 39.3 Z M 152.1 38.3 C 152.1 38.2 152.1 38.2 152.1 38.3 C 152.1 38.3 152.1 38.3 152.1 38.3 Z M 151.9 32.3 C 151.9 32.2 151.9 32.2 151.9 32.3 C 151.9 32.3 151.9 32.3 151.9 32.3 Z M 152.8 37.8 C 152.1 38.2 153.3 36.4 152.9 37.9 C 152.8 38.0 152.8 37.7 152.8 37.8 M 153.1 42.9 C 153.0 42.9 153.0 42.9 153.1 42.9 M 142.5 46.1 C 142.5 46.0 142.5 46.0 142.5 46.1 M 142.2 51.7 C 142.0 51.6 142.0 51.6 142.2 51.7 M 150.2 49.0 C 148.7 50.5 149.5 49.1 150.2 49.0 M 138.0 51.3 C 140.0 51.8 136.0 51.7 138.0 51.3 M 136.2 51.7 C 136.0 51.7 136.0 51.7 136.2 51.7 M 145.0 51.4 C 145.0 51.4 145.0 51.4 145.0 51.4 C 145.0 51.4 145.0 51.4 145.0 51.4 Z M 151.0 48.5 C 153.2 46.5 149.8 51.1 151.0 48.5 M 152.9 35.0 C 153.2 36.1 152.0 35.0 152.9 35.0 M 152.5 32.7 C 152.4 32.7 152.4 32.7 152.5 32.7 C 152.5 32.7 152.5 32.7 152.5 32.7 Z M 141.2 51.3 C 141.2 51.3 141.2 51.3 141.2 51.3 C 141.2 51.3 141.2 51.3 141.2 51.3 Z M 138.9 51.5 C 139.0 51.4 139.0 51.4 138.9 51.5 C 138.9 51.5 138.9 51.5 138.9 51.5 Z M 134.5 46.3 C 134.6 46.2 134.6 46.2 134.5 46.3 C 134.5 46.3 134.5 46.3 134.5 46.3 Z M 150.3 34.5 C 150.7 33.0 152.0 36.0 150.7 35.8 C 150.2 36.0 150.4 34.7 150.3 34.5 M 150.6 46.2 C 148.7 46.1 153.5 45.5 150.6 46.2 M 135.7 50.5 C 134.0 48.4 137.8 52.0 135.7 50.5 M 132.7 50.9 C 131.8 50.5 138.4 50.7 133.8 51.2 C 133.4 51.6 133.1 51.1 132.7 50.9 M 152.2 43.0 C 151.2 43.6 152.6 40.6 152.2 43.0 M 144.5 47.8 C 143.8 48.5 141.9 49.0 142.7 47.9 C 142.5 46.6 145.3 47.3 144.5 47.8 M 151.9 29.4 C 153.5 30.5 150.6 29.4 151.9 29.4 M 151.8 35.3 C 151.8 35.4 151.8 35.4 151.8 35.3 C 151.8 35.3 151.8 35.3 151.8 35.3 Z M 152.0 37.7 C 151.9 37.8 151.9 37.8 152.0 37.7 M 153.3 30.3 C 153.1 30.4 153.1 30.4 153.3 30.3 M 144.7 49.5 C 144.6 49.3 144.6 49.3 144.7 49.5 M 150.2 48.3 C 147.0 49.6 151.0 47.0 150.2 48.3 M 148.9 42.3 C 148.2 43.0 148.9 40.8 148.9 42.3 M 146.1 51.1 C 143.4 49.9 149.0 49.3 146.1 51.1 M 151.2 47.2 C 151.2 47.4 151.2 47.4 151.2 47.2 C 151.2 47.2 151.2 47.2 151.2 47.2 Z M 143.9 47.7 C 143.9 47.7 143.9 47.7 143.9 47.7 C 143.9 47.7 143.9 47.7 143.9 47.7 Z M 143.2 47.8 C 143.2 47.7 143.2 47.7 143.2 47.8 C 143.2 47.8 143.2 47.8 143.2 47.8 Z M 143.9 51.3 C 144.0 51.2 144.0 51.2 143.9 51.3 C 143.9 51.3 143.9 51.3 143.9 51.3 Z M 148.4 32.8 C 148.3 34.4 148.2 31.5 148.4 32.8 C 148.4 32.8 148.4 32.8 148.4 32.8 Z M 152.8 39.7 C 151.6 42.5 151.7 37.9 152.8 39.7 C 152.8 39.7 152.8 39.7 152.8 39.7 Z M 150.8 42.9 C 150.7 42.9 150.7 42.9 150.8 42.9 C 150.8 42.9 150.8 42.9 150.8 42.9 Z M 148.0 51.6 C 148.0 51.5 148.0 51.5 148.0 51.6 C 148.0 51.6 148.0 51.6 148.0 51.6 Z M 148.2 33.6 C 148.1 33.6 148.1 33.6 148.2 33.6 C 148.2 33.6 148.2 33.6 148.2 33.6 Z M 139.2 50.5 C 139.2 50.4 139.2 50.4 139.2 50.5 C 139.2 50.5 139.2 50.5 139.2 50.5 Z M 147.3 46.9 C 147.3 47.6 146.9 46.6 147.3 46.9 C 147.3 46.9 147.3 46.9 147.3 46.9 Z M 145.7 47.4 C 145.7 47.4 145.7 47.4 145.7 47.4 C 145.7 47.4 145.7 47.4 145.7 47.4 Z M 135.6 51.8 C 135.5 51.8 135.5 51.8 135.6 51.8 C 135.6 51.8 135.6 51.8 135.6 51.8 Z M 139.5 46.0 C 139.4 46.1 139.4 46.1 139.5 46.0 C 139.5 46.0 139.5 46.0 139.5 46.0 Z M 137.6 47.8 C 137.6 47.8 137.6 47.8 137.6 47.8 C 137.6 47.8 137.6 47.8 137.6 47.8 Z M 144.3 50.9 C 141.9 51.2 144.8 50.3 144.3 50.9 C 144.3 50.9 144.3 50.9 144.3 50.9 Z M 131.6 48.3 C 131.6 48.2 131.6 48.2 131.6 48.3 C 131.6 48.3 131.6 48.3 131.6 48.3 Z M 130.7 50.3 C 130.6 50.2 130.6 50.2 130.7 50.3 C 130.7 50.3 130.7 50.3 130.7 50.3 Z M 130.2 51.3 C 130.1 51.3 130.1 51.3 130.2 51.3 C 130.2 51.3 130.2 51.3 130.2 51.3 Z M 149.8 37.8 C 149.9 37.7 149.9 37.7 149.8 37.8 C 149.8 37.8 149.8 37.8 149.8 37.8 Z M 153.1 36.6 C 153.1 36.6 153.1 36.6 153.1 36.6 C 153.1 36.6 153.1 36.6 153.1 36.6 Z M 153.3 39.9 C 153.3 39.8 153.3 39.8 153.3 39.9 C 153.3 39.9 153.3 39.9 153.3 39.9 Z M 147.8 37.3 C 147.9 37.3 147.9 37.3 147.8 37.3 C 147.8 37.3 147.8 37.3 147.8 37.3 Z M 147.8 48.6 C 147.9 48.6 147.9 48.6 147.8 48.6 C 147.8 48.6 147.8 48.6 147.8 48.6 Z M 146.3 47.8 C 146.3 47.8 146.3 47.8 146.3 47.8 C 146.3 47.8 146.3 47.8 146.3 47.8 Z M 146.9 45.5 C 146.9 45.6 146.9 45.6 146.9 45.5 C 146.9 45.5 146.9 45.5 146.9 45.5 Z M 145.4 46.8 C 145.4 46.8 145.4 46.8 145.4 46.8 C 145.4 46.8 145.4 46.8 145.4 46.8 Z M 148.5 29.0 C 148.4 29.0 148.4 29.0 148.5 29.0 C 148.5 29.0 148.5 29.0 148.5 29.0 Z M 151.0 28.6 C 150.9 28.5 150.9 28.5 151.0 28.6 C 151.0 28.6 151.0 28.6 151.0 28.6 Z M 148.4 50.4 C 148.0 51.1 146.6 50.4 148.4 50.4 M 152.0 45.4 C 152.0 45.4 152.0 45.4 152.0 45.4 C 152.0 45.4 152.0 45.4 152.0 45.4 Z M 139.7 51.0 C 139.0 50.0 141.9 51.5 139.7 51.0 C 139.7 51.0 139.7 51.0 139.7 51.0 Z M 141.7 46.8 C 141.7 46.7 141.7 46.7 141.7 46.8 C 141.7 46.8 141.7 46.8 141.7 46.8 Z M 140.5 47.2 C 140.4 47.1 140.4 47.1 140.5 47.2 C 140.5 47.2 140.5 47.2 140.5 47.2 Z M 134.0 49.9 C 133.9 49.8 133.9 49.8 134.0 49.9 M 153.0 44.5 C 152.5 45.7 152.6 45.5 153.0 44.5 M 138.1 50.9 C 138.2 50.9 138.2 50.9 138.1 50.9 C 138.1 50.9 138.1 50.9 138.1 50.9 Z M 132.6 50.5 C 132.7 50.4 132.7 50.4 132.6 50.5 C 132.6 50.5 132.6 50.5 132.6 50.5 Z M 152.4 41.1 C 151.1 41.3 151.4 40.6 152.4 41.1 M 152.0 31.8 C 151.9 31.8 151.9 31.8 152.0 31.8 C 152.0 31.8 152.0 31.8 152.0 31.8 Z M 124.8 50.4 C 130.7 51.9 128.9 49.3 129.1 48.7 C 129.8 48.0 129.0 47.6 127.8 47.1 C 126.4 45.4 126.3 48.8 125.2 47.1 C 123.3 44.8 123.7 49.1 122.7 46.7 C 122.9 46.1 120.8 46.6 121.0 46.7 C 119.7 45.6 118.4 47.6 118.5 47.8 C 117.7 47.5 117.3 45.4 115.2 47.0 C 113.6 47.5 112.4 45.4 113.2 46.9 C 111.6 45.2 112.3 47.4 111.0 46.8 C 109.9 45.9 111.2 48.2 109.3 46.5 C 108.8 47.8 109.8 45.6 105.7 46.6 C 107.8 46.7 103.8 47.6 104.5 46.7 C 105.8 45.7 102.5 47.1 100.4 46.5 C 100.0 47.0 97.8 48.2 98.0 46.9 C 95.6 45.3 96.1 47.9 94.9 46.6 C 94.1 46.0 94.1 47.2 93.6 47.1 C 92.7 46.1 92.2 46.8 89.6 46.5 C 83.9 46.0 89.3 49.0 87.2 49.3 C 87.0 49.8 90.8 53.0 89.0 50.6 C 89.6 51.3 93.6 48.8 91.9 51.4 C 93.4 50.3 91.8 52.5 94.9 51.2 C 89.8 49.4 100.2 50.5 95.8 51.4 C 96.7 51.9 98.5 51.8 97.1 51.4 C 96.2 49.7 100.5 52.1 98.2 50.1 C 101.2 50.6 100.1 48.8 101.2 50.1 C 102.3 52.3 100.9 49.5 102.5 50.2 C 106.0 50.2 103.8 52.7 105.5 51.0 C 109.1 52.2 106.1 50.1 107.2 49.8 C 107.3 48.3 110.9 51.0 108.3 51.2 C 109.5 50.4 108.7 51.9 110.1 50.9 C 108.7 49.5 112.3 52.4 111.7 51.3 C 113.0 50.9 112.1 50.1 112.5 50.1 C 114.6 50.1 114.2 51.4 114.4 50.4 C 114.8 49.8 116.1 51.7 116.3 51.2 C 114.1 51.1 117.8 49.7 118.1 50.5 C 116.8 50.6 119.1 52.3 119.7 51.2 C 118.2 48.1 121.7 52.0 122.4 50.9 C 121.3 49.2 127.0 50.7 125.1 51.5 C 125.2 51.4 124.8 50.4 124.8 50.4 M 116.8 51.0 C 115.1 50.8 118.7 50.6 116.8 51.0 M 117.0 51.4 C 116.1 50.8 118.7 51.8 116.9 51.6 C 116.9 51.6 117.1 51.5 117.0 51.4 M 109.8 51.5 C 110.0 51.0 110.9 51.8 109.8 51.5 M 108.3 50.4 C 107.0 50.0 109.8 50.3 108.3 50.4 M 92.5 50.8 C 93.5 48.2 94.5 52.2 92.5 50.8 M 103.1 51.3 C 104.9 50.9 102.6 52.4 103.1 51.3 M 103.5 50.6 C 104.3 50.2 103.8 51.2 103.5 50.6 M 95.5 50.8 C 95.3 50.7 95.3 50.7 95.5 50.8 C 95.5 50.8 95.5 50.8 95.5 50.8 Z M 90.8 50.7 C 90.8 50.7 90.8 50.7 90.8 50.7 C 90.8 50.7 90.8 50.7 90.8 50.7 Z M 100.0 50.5 C 101.6 51.1 97.7 50.7 100.0 50.5 C 100.0 50.5 100.0 50.5 100.0 50.5 Z M 92.2 46.8 C 92.2 46.7 92.2 46.7 92.2 46.8 C 92.2 46.8 92.2 46.8 92.2 46.8 Z M 118.0 49.8 C 118.1 49.8 118.1 49.8 118.0 49.8 C 118.0 49.8 118.0 49.8 118.0 49.8 Z M 123.5 50.8 C 123.4 50.4 124.5 51.0 123.5 50.8 C 123.5 50.8 123.5 50.8 123.5 50.8 Z M 127.4 47.8 C 127.5 47.8 127.5 47.8 127.4 47.8 C 127.4 47.8 127.4 47.8 127.4 47.8 Z M 119.6 48.4 C 119.7 48.4 119.7 48.4 119.6 48.4 C 119.6 48.4 119.6 48.4 119.6 48.4 Z M 119.1 50.3 C 120.2 51.8 117.0 50.0 119.1 50.3 C 119.1 50.3 119.1 50.3 119.1 50.3 Z M 101.1 46.9 C 101.2 47.6 99.8 46.7 101.1 46.9 C 101.1 46.9 101.1 46.9 101.1 46.9 Z M 108.0 49.8 C 107.8 50.2 107.1 49.7 108.0 49.8 C 108.0 49.8 108.0 49.8 108.0 49.8 Z M 111.2 51.8 C 111.1 52.1 110.4 51.6 111.2 51.8 C 111.2 51.8 111.2 51.8 111.2 51.8 Z M 123.5 51.2 C 123.4 51.2 123.4 51.2 123.5 51.2 C 123.5 51.2 123.5 51.2 123.5 51.2 Z M 121.4 50.1 C 122.9 51.4 119.3 49.4 121.4 50.1 C 121.4 50.1 121.4 50.1 121.4 50.1 Z M 123.6 49.7 C 122.8 49.2 125.4 49.9 123.6 49.7 M 122.0 47.7 C 120.5 48.2 123.1 45.3 122.0 47.7 C 122.0 47.7 122.0 47.7 122.0 47.7 Z M 113.6 47.1 C 113.5 47.1 113.5 47.1 113.6 47.1 C 113.6 47.1 113.6 47.1 113.6 47.1 Z M 115.2 51.0 C 113.7 51.0 116.0 50.7 115.2 51.0 C 115.2 51.0 115.2 51.0 115.2 51.0 Z M 127.6 51.3 C 126.2 51.3 128.5 51.0 127.6 51.3 C 127.6 51.3 127.6 51.3 127.6 51.3 Z M 109.0 48.4 C 106.7 48.6 110.4 47.7 109.0 48.4 C 109.0 48.4 109.0 48.4 109.0 48.4 Z M 100.7 50.0 C 100.6 49.9 100.6 49.9 100.7 50.0 C 100.7 50.0 100.7 50.0 100.7 50.0 Z M 99.2 50.5 C 99.2 50.5 99.2 50.5 99.2 50.5 C 99.2 50.5 99.2 50.5 99.2 50.5 Z M 92.3 49.2 C 92.1 49.1 92.1 49.1 92.3 49.2 C 92.3 49.2 92.3 49.2 92.3 49.2 Z M 97.9 51.2 C 97.8 51.1 97.8 51.1 97.9 51.2 C 97.9 51.2 97.9 51.2 97.9 51.2 Z M 93.2 50.8 C 93.1 50.8 93.1 50.8 93.2 50.8 C 93.2 50.8 93.2 50.8 93.2 50.8 Z M 94.1 52.0 C 94.0 51.9 94.0 51.9 94.1 52.0 C 94.1 52.0 94.1 52.0 94.1 52.0 Z M 103.2 46.2 C 103.1 46.1 103.1 46.1 103.2 46.2 C 103.2 46.2 103.2 46.2 103.2 46.2 Z M 121.0 51.6 C 120.9 51.5 120.9 51.5 121.0 51.6 C 121.0 51.6 121.0 51.6 121.0 51.6 Z M 93.5 50.3 C 93.4 50.3 93.4 50.3 93.5 50.3 C 93.5 50.3 93.5 50.3 93.5 50.3 Z M 104.6 49.2 C 104.3 48.1 105.8 50.7 104.3 49.3 C 104.3 49.2 104.7 49.4 104.6 49.2 M 102.7 47.4 C 102.7 47.3 102.7 47.3 102.7 47.4 C 102.7 47.4 102.7 47.4 102.7 47.4 Z M 107.7 46.7 C 107.7 46.6 107.7 46.6 107.7 46.7 C 107.7 46.7 107.7 46.7 107.7 46.7 Z M 98.7 51.4 C 99.1 52.0 97.4 50.9 98.9 51.3 M 91.8 47.2 C 92.1 47.8 90.4 46.7 92.0 47.1 M 129.2 50.9 C 129.3 50.4 130.2 51.2 129.2 50.9 M 108.7 46.1 C 108.8 45.6 109.7 46.4 108.7 46.1 M 106.6 47.5 C 106.9 48.2 105.2 47.0 106.8 47.5 M 95.3 47.2 C 95.2 47.2 95.2 47.2 95.3 47.2 C 95.3 47.2 95.3 47.2 95.3 47.2 Z M 113.0 50.9 C 112.9 50.9 112.9 50.9 113.0 50.9 C 113.0 50.9 113.0 50.9 113.0 50.9 Z M 106.5 49.6 C 107.5 50.4 105.3 49.0 106.5 49.6 M 114.5 49.4 C 115.9 50.5 112.5 49.0 114.5 49.4 M 89.1 46.9 C 90.7 48.2 87.9 46.2 89.1 46.9 M 96.6 50.2 C 98.3 51.5 95.5 49.5 96.6 50.2 M 111.6 50.3 C 111.8 51.0 110.1 49.9 111.6 50.3 M 125.9 51.0 C 127.3 51.1 124.3 51.5 125.9 51.0 M 98.7 47.2 C 98.6 47.1 98.6 47.1 98.7 47.2 C 98.7 47.2 98.7 47.2 98.7 47.2 Z M 120.9 46.0 C 120.8 46.0 120.8 46.0 120.9 46.0 C 120.9 46.0 120.9 46.0 120.9 46.0 Z M 88.2 51.2 C 88.1 51.1 88.1 51.1 88.2 51.2 C 88.2 51.2 88.2 51.2 88.2 51.2 Z M 97.4 49.6 C 97.3 49.5 97.3 49.5 97.4 49.6 C 97.4 49.6 97.4 49.6 97.4 49.6 Z M 90.9 51.3 C 90.8 51.3 90.8 51.3 90.9 51.3 C 90.9 51.3 90.9 51.3 90.9 51.3 Z M 101.5 48.6 C 101.4 48.5 101.4 48.5 101.5 48.6 C 101.5 48.6 101.5 48.6 101.5 48.6 Z M 103.0 51.9 C 103.0 51.8 103.0 51.8 103.0 51.9 C 103.0 51.9 103.0 51.9 103.0 51.9 Z M 107.4 50.4 C 107.4 50.4 107.4 50.4 107.4 50.4 C 107.4 50.4 107.4 50.4 107.4 50.4 Z M 100.8 51.6 C 98.0 51.8 102.0 50.5 100.8 51.6 C 100.8 51.6 100.8 51.6 100.8 51.6 Z M 105.0 48.3 C 105.0 48.3 105.0 48.3 105.0 48.3 C 105.0 48.3 105.0 48.3 105.0 48.3 Z M 105.9 50.6 C 104.3 51.6 104.6 49.0 105.9 50.6 M 113.9 51.4 C 113.4 51.9 113.5 50.6 113.9 51.4 M 116.3 47.1 C 116.3 47.0 116.3 47.0 116.3 47.1 C 116.3 47.1 116.3 47.1 116.3 47.1 Z M 115.5 47.4 C 115.4 47.4 115.4 47.4 115.5 47.4 C 115.5 47.4 115.5 47.4 115.5 47.4 Z M 115.8 51.6 C 115.8 51.6 115.8 51.6 115.8 51.6 C 115.8 51.6 115.8 51.6 115.8 51.6 Z M 115.2 46.2 C 115.1 46.1 115.1 46.1 115.2 46.2 C 115.2 46.2 115.2 46.2 115.2 46.2 Z M 104.1 51.8 C 104.0 51.8 104.0 51.8 104.1 51.8 C 104.1 51.8 104.1 51.8 104.1 51.8 Z M 89.7 51.8 C 89.6 51.8 89.6 51.8 89.7 51.8 C 89.7 51.8 89.7 51.8 89.7 51.8 Z M 125.0 47.5 C 124.9 47.5 124.9 47.5 125.0 47.5 C 125.0 47.5 125.0 47.5 125.0 47.5 Z M 102.3 50.5 C 102.2 50.4 102.2 50.4 102.3 50.5 C 102.3 50.5 102.3 50.5 102.3 50.5 Z M 118.4 47.3 C 118.3 47.2 118.3 47.2 118.4 47.3 C 118.4 47.3 118.4 47.3 118.4 47.3 Z M 103.3 50.7 C 103.2 50.7 103.2 50.7 103.3 50.7 C 103.3 50.7 103.3 50.7 103.3 50.7 Z M 99.1 46.9 C 99.1 46.9 99.1 46.9 99.1 46.9 C 99.1 46.9 99.1 46.9 99.1 46.9 Z M 95.8 46.2 C 95.8 46.1 95.8 46.1 95.8 46.2 C 95.8 46.2 95.8 46.2 95.8 46.2 Z M 99.8 49.2 C 99.7 49.2 99.7 49.2 99.8 49.2 C 99.8 49.2 99.8 49.2 99.8 49.2 Z M 119.6 48.7 C 125.5 49.8 115.2 49.2 119.6 48.7 M 98.8 48.9 C 102.8 49.2 95.9 50.2 98.8 48.9 C 98.4 49.3 98.7 49.0 98.8 48.9 M 84.0 51.3 C 86.9 52.7 86.5 50.8 86.4 50.7 C 86.7 53.3 88.5 49.7 87.8 49.2 C 87.9 48.9 84.9 44.4 83.7 47.1 C 83.3 47.5 82.8 46.7 82.4 46.6 C 79.3 46.7 84.9 48.0 81.1 48.0 C 80.3 47.6 80.6 45.5 78.7 47.0 C 78.6 46.8 75.8 46.0 77.0 47.0 C 75.6 46.0 75.1 47.2 74.0 47.4 C 72.8 46.8 74.5 45.9 71.1 47.0 C 69.0 45.3 69.3 48.3 67.4 46.4 C 66.4 46.3 65.9 49.5 67.5 47.7 C 67.3 47.9 69.0 49.4 66.0 48.9 C 66.3 48.5 67.0 45.3 62.8 46.8 C 62.1 46.7 60.6 47.5 60.1 47.2 C 62.3 46.8 56.4 45.8 57.3 46.7 C 53.5 46.1 55.8 47.5 53.2 46.5 C 53.2 46.6 53.1 46.6 53.0 46.6 C 51.2 47.7 54.1 47.6 51.6 48.3 C 49.9 49.5 50.8 48.0 51.0 47.9 C 49.5 48.7 49.1 49.7 48.6 50.0 C 48.2 50.0 47.3 49.8 47.2 50.9 C 46.2 53.3 48.1 53.8 47.9 55.7 C 49.2 55.6 48.0 54.3 49.1 54.8 C 49.4 53.6 49.3 54.9 52.2 52.7 C 52.1 52.5 51.1 52.3 51.9 51.8 C 53.1 51.1 53.0 54.1 54.4 51.1 C 53.4 51.5 53.8 51.0 54.4 50.4 C 55.4 50.2 56.9 50.0 55.3 49.7 C 58.5 49.4 56.3 49.9 58.8 50.5 C 58.2 48.8 59.5 52.2 60.0 50.9 C 60.4 51.6 64.0 51.3 61.1 50.3 C 64.8 49.8 62.6 50.8 64.2 51.7 C 66.0 51.8 63.6 49.0 65.3 51.0 C 67.8 51.9 65.1 50.0 67.2 51.6 C 66.1 50.2 68.9 51.6 67.8 50.1 C 71.7 49.9 67.8 51.7 70.2 50.6 C 69.4 50.6 70.3 52.7 71.6 51.3 C 70.2 48.8 74.4 53.5 72.3 50.2 C 77.5 49.3 73.6 51.6 76.6 51.6 C 77.3 51.6 75.5 50.5 76.1 50.5 C 80.1 50.9 77.1 51.8 78.8 50.2 C 82.5 49.8 80.2 51.6 82.1 51.7 C 82.1 50.9 83.3 49.6 84.0 51.3 M 80.4 50.5 C 79.8 51.1 79.8 50.0 80.4 50.5 M 88.3 51.3 C 87.6 51.8 87.7 50.8 88.3 51.3 M 77.4 51.0 C 76.5 51.6 76.9 50.2 77.4 51.0 M 56.6 50.2 C 58.0 50.2 56.1 50.7 56.6 50.2 M 85.3 51.4 C 84.3 52.0 84.8 50.5 85.3 51.4 M 86.4 50.1 C 86.3 50.1 86.3 50.1 86.4 50.1 M 55.0 51.5 C 54.9 51.5 54.9 51.5 55.0 51.5 M 60.5 51.6 C 59.3 51.5 61.0 51.2 60.5 51.6 M 59.1 46.2 C 57.9 46.2 59.7 45.9 59.1 46.2 M 52.5 53.1 C 51.6 54.2 52.0 52.7 52.5 53.1 M 49.5 53.7 C 48.8 54.7 48.8 53.5 49.5 53.7 M 80.7 48.7 C 80.7 48.6 80.7 48.6 80.7 48.7 C 80.7 48.7 80.7 48.7 80.7 48.7 Z M 70.2 47.3 C 71.5 47.9 68.5 46.7 70.2 47.3 M 73.0 50.9 C 71.9 49.8 74.5 50.9 73.0 50.9 C 73.0 50.9 73.0 50.9 73.0 50.9 Z M 74.6 50.4 C 74.6 50.3 74.6 50.3 74.6 50.4 C 74.6 50.4 74.6 50.4 74.6 50.4 Z M 68.9 50.3 C 68.9 50.3 68.9 50.3 68.9 50.3 C 68.9 50.3 68.9 50.3 68.9 50.3 Z M 70.0 50.2 C 70.4 50.0 70.8 50.4 70.0 50.2 C 70.0 50.2 70.0 50.2 70.0 50.2 Z M 60.7 46.7 C 61.2 46.5 61.4 47.0 60.7 46.7 C 60.7 46.7 60.7 46.7 60.7 46.7 Z M 71.7 49.8 C 71.6 48.7 72.7 50.5 71.7 49.8 C 71.7 49.8 71.7 49.8 71.7 49.8 Z M 64.9 47.2 C 64.4 47.5 63.5 46.2 64.9 47.2 M 53.9 51.9 C 53.6 52.4 52.7 51.4 53.9 51.9 M 65.9 51.7 C 65.5 52.0 64.5 50.6 65.9 51.7 M 79.9 51.0 C 79.7 50.9 79.7 50.9 79.9 51.0 M 72.0 46.3 C 71.3 46.7 71.4 45.8 72.0 46.3 M 83.6 46.7 C 82.8 47.1 83.0 46.2 83.6 46.7 M 54.0 46.3 C 54.1 46.6 52.7 46.2 54.0 46.3 M 64.0 49.9 C 62.9 49.8 61.6 49.2 63.9 49.3 C 64.1 49.5 63.5 49.7 64.0 49.9 C 64.0 49.9 64.0 49.9 64.0 49.9 Z M 59.5 47.4 C 59.3 47.3 59.3 47.3 59.5 47.4 M 62.4 50.9 C 62.2 50.8 62.2 50.8 62.4 50.9 M 56.2 50.8 C 56.0 50.7 56.0 50.7 56.2 50.8 M 55.5 51.1 C 55.5 51.1 55.5 51.1 55.5 51.1 C 55.5 51.1 55.5 51.1 55.5 51.1 Z M 49.9 54.8 C 49.9 54.7 49.9 54.7 49.9 54.8 C 49.9 54.8 49.9 54.8 49.9 54.8 Z M 58.1 50.7 C 58.1 50.6 58.1 50.6 58.1 50.7 C 58.1 50.7 58.1 50.7 58.1 50.7 Z M 51.6 47.6 C 51.5 47.6 51.5 47.6 51.6 47.6 C 51.6 47.6 51.6 47.6 51.6 47.6 Z M 52.4 47.9 C 52.3 47.8 52.3 47.8 52.4 47.9 C 52.4 47.9 52.4 47.9 52.4 47.9 Z M 83.5 51.3 C 82.7 52.1 82.5 49.4 83.5 51.3 M 49.8 49.5 C 48.8 49.3 51.1 48.5 49.8 49.5 C 49.8 49.5 49.8 49.5 49.8 49.5 Z M 58.6 49.8 C 58.5 49.6 58.5 49.6 58.6 49.8 M 55.1 51.0 C 55.0 50.9 55.0 50.9 55.1 51.0 M 73.3 51.9 C 73.1 51.7 73.1 51.7 73.3 51.9 M 51.0 53.1 C 48.5 54.5 51.6 50.9 51.0 53.1 M 74.3 50.8 C 74.4 50.9 74.4 50.9 74.3 50.8 M 67.3 48.8 C 65.4 48.8 67.8 48.2 67.3 48.8 M 62.7 50.2 C 62.8 50.1 62.8 50.1 62.7 50.2 C 62.7 50.2 62.7 50.2 62.7 50.2 Z M 65.6 50.2 C 67.0 50.0 66.0 50.5 65.6 50.2 C 65.6 50.2 65.6 50.2 65.6 50.2 Z M 81.9 50.3 C 80.0 50.2 83.7 50.0 81.9 50.3 C 81.9 50.3 81.9 50.3 81.9 50.3 Z M 51.3 49.9 C 51.3 49.8 51.3 49.8 51.3 49.9 C 51.3 49.9 51.3 49.9 51.3 49.9 Z M 58.7 51.4 C 59.5 51.2 59.2 51.8 58.7 51.4 C 58.7 51.4 58.7 51.4 58.7 51.4 Z M 49.0 55.3 C 49.6 54.6 49.5 55.4 49.0 55.3 C 49.0 55.3 49.0 55.3 49.0 55.3 Z M 84.1 50.5 C 77.0 48.7 93.2 51.0 84.1 50.5 C 84.1 50.5 84.1 50.5 84.1 50.5 Z M 64.7 50.9 C 64.7 50.8 64.7 50.8 64.7 50.9 C 64.7 50.9 64.7 50.9 64.7 50.9 Z M 77.2 51.7 C 77.2 51.6 77.2 51.6 77.2 51.7 C 77.2 51.7 77.2 51.7 77.2 51.7 Z M 79.0 50.6 C 79.1 50.6 79.1 50.6 79.0 50.6 C 79.0 50.6 79.0 50.6 79.0 50.6 Z M 77.4 46.4 C 77.4 46.3 77.4 46.3 77.4 46.4 C 77.4 46.4 77.4 46.4 77.4 46.4 Z M 77.1 48.3 C 77.2 48.2 77.2 48.2 77.1 48.3 C 77.1 48.3 77.1 48.3 77.1 48.3 Z M 81.3 47.6 C 81.3 47.5 81.3 47.5 81.3 47.6 C 81.3 47.6 81.3 47.6 81.3 47.6 Z M 81.1 47.0 C 81.1 47.0 81.1 47.0 81.1 47.0 C 81.1 47.0 81.1 47.0 81.1 47.0 Z M 54.7 49.8 C 54.7 49.7 54.7 49.7 54.7 49.8 C 54.7 49.8 54.7 49.8 54.7 49.8 Z M 56.5 48.0 C 55.1 48.7 56.7 47.1 56.5 48.0 C 56.5 48.0 56.5 48.0 56.5 48.0 Z M 70.6 48.9 C 69.2 49.1 71.4 48.4 70.6 48.9 C 70.6 48.9 70.6 48.9 70.6 48.9 Z M 68.5 46.6 C 68.4 46.6 68.4 46.6 68.5 46.6 C 68.5 46.6 68.5 46.6 68.5 46.6 Z M 79.3 51.7 C 79.3 51.6 79.3 51.6 79.3 51.7 C 79.3 51.7 79.3 51.7 79.3 51.7 Z M 81.7 51.0 C 81.6 50.1 82.6 51.4 81.7 51.0 M 68.6 51.5 C 68.6 51.4 68.6 51.4 68.6 51.5 C 68.6 51.5 68.6 51.5 68.6 51.5 Z M 59.9 50.1 C 59.9 50.0 59.9 50.0 59.9 50.1 C 59.9 50.1 59.9 50.1 59.9 50.1 Z M 52.2 52.1 C 52.2 52.0 52.2 52.0 52.2 52.1 C 52.2 52.1 52.2 52.1 52.2 52.1 Z M 63.4 51.4 C 63.4 51.2 63.4 51.2 63.4 51.4 C 63.4 51.4 63.4 51.4 63.4 51.4 Z M 67.1 50.5 C 67.1 50.4 67.1 50.4 67.1 50.5 C 67.1 50.5 67.1 50.5 67.1 50.5 Z M 50.3 51.9 C 50.3 51.8 50.3 51.8 50.3 51.9 C 50.3 51.9 50.3 51.9 50.3 51.9 Z M 62.5 51.5 C 62.5 51.5 62.5 51.5 62.5 51.5 C 62.5 51.5 62.5 51.5 62.5 51.5 Z M 59.3 48.6 C 59.3 48.6 59.3 48.6 59.3 48.6 C 59.3 48.6 59.3 48.6 59.3 48.6 Z M 81.7 52.2 C 81.7 52.2 81.7 52.2 81.7 52.2 C 81.7 52.2 81.7 52.2 81.7 52.2 Z M 50.6 53.1 C 50.6 53.1 50.6 53.1 50.6 53.1 C 50.6 53.1 50.6 53.1 50.6 53.1 Z M 50.4 54.2 C 50.4 54.1 50.4 54.1 50.4 54.2 C 50.4 54.2 50.4 54.2 50.4 54.2 Z M 54.1 47.1 C 56.2 47.4 54.3 47.4 53.6 47.7 C 53.3 47.9 53.3 48.2 53.7 48.2 C 53.8 48.2 53.9 48.2 54.0 48.3 C 53.9 48.3 53.8 48.3 53.8 48.3 C 51.2 50.1 52.5 48.2 53.4 47.2 C 53.7 47.1 54.0 47.1 54.1 47.1 C 54.1 47.1 54.1 47.1 54.1 47.1 Z M 47.3 56.7 C 48.2 54.6 47.8 53.4 46.8 52.6 C 45.9 52.4 46.8 54.8 46.0 52.8 C 47.5 51.4 44.3 50.3 45.2 52.8 C 43.3 54.5 44.3 51.4 43.4 53.2 C 41.3 55.0 42.2 53.4 40.5 54.7 C 40.1 56.8 39.3 54.7 39.3 56.3 C 39.6 54.3 37.7 57.9 37.3 57.3 C 38.6 55.4 31.4 61.2 35.7 58.9 C 34.3 60.7 34.1 59.3 33.5 59.5 C 33.1 60.8 30.4 60.7 29.8 62.1 C 30.1 62.2 30.6 61.9 30.9 62.1 C 31.4 62.4 29.7 62.7 29.8 62.7 C 29.3 63.4 27.0 66.0 29.2 62.7 C 29.0 61.9 27.0 64.5 26.8 63.9 C 24.3 65.5 26.8 65.6 25.2 65.3 C 23.5 66.5 22.2 67.3 22.3 67.5 C 21.1 68.0 20.5 67.4 19.9 68.8 C 17.0 68.8 19.8 72.5 17.5 70.3 C 17.3 71.3 15.7 70.0 16.7 71.6 C 17.0 70.3 12.3 72.7 14.9 72.7 C 14.6 73.4 10.6 73.1 12.0 74.6 C 11.7 76.4 12.6 77.5 15.4 77.3 C 14.6 76.5 18.2 76.8 15.7 76.2 C 13.5 76.9 18.7 73.4 18.0 74.7 C 18.8 76.9 19.8 71.8 21.7 72.5 C 20.4 72.3 24.4 69.1 23.9 71.4 C 24.8 71.0 24.6 70.2 25.9 70.5 C 23.3 72.0 26.1 68.3 26.4 69.3 C 26.2 70.2 30.2 68.2 29.4 67.5 C 27.1 66.3 30.6 67.3 30.9 66.1 C 32.8 64.2 31.4 68.1 32.2 65.5 C 32.8 65.5 35.5 63.7 34.0 65.3 C 33.2 65.5 34.6 61.8 35.7 63.5 C 33.2 66.5 39.3 61.8 38.1 61.9 C 33.1 63.9 42.5 57.5 39.3 60.9 C 41.7 60.6 38.9 61.7 41.2 59.6 C 40.6 59.3 42.4 57.4 42.4 58.9 C 43.4 60.4 42.1 56.0 44.6 57.5 C 45.2 58.4 47.4 54.7 46.7 56.6 C 46.7 56.8 47.2 56.7 47.3 56.7 M 46.3 57.0 C 46.5 56.4 47.0 57.2 46.3 57.0 M 46.5 56.4 C 46.5 56.4 46.5 56.4 46.5 56.4 C 46.5 56.4 46.5 56.4 46.5 56.4 Z M 41.5 59.3 C 41.6 59.4 41.6 59.4 41.5 59.3 C 41.5 59.3 41.5 59.3 41.5 59.3 Z M 35.9 57.4 C 35.9 57.4 35.9 57.4 35.9 57.4 C 35.9 57.4 35.9 57.4 35.9 57.4 Z M 38.2 61.4 C 38.3 61.3 38.3 61.3 38.2 61.4 C 38.2 61.4 38.2 61.4 38.2 61.4 Z M 43.2 57.9 C 43.2 57.9 43.2 57.9 43.2 57.9 C 43.2 57.9 43.2 57.9 43.2 57.9 Z M 38.8 61.8 C 38.3 61.3 40.1 61.6 38.8 62.0 C 38.7 61.9 39.0 61.8 38.8 61.8 M 34.7 64.9 C 34.6 64.8 34.6 64.8 34.7 64.9 M 22.9 66.0 C 22.8 65.9 22.8 65.9 22.9 66.0 M 24.7 71.5 C 24.5 71.5 24.5 71.5 24.7 71.5 M 30.2 67.0 C 28.9 67.9 29.7 66.8 30.2 67.0 M 21.1 73.4 C 22.9 72.8 19.5 74.9 21.1 73.4 M 19.7 74.8 C 19.5 74.9 19.5 74.9 19.7 74.8 M 26.9 69.8 C 26.9 69.7 26.9 69.7 26.9 69.8 C 26.9 69.8 26.9 69.8 26.9 69.8 Z M 30.9 66.9 C 32.7 66.1 29.4 68.6 30.9 66.9 M 41.2 60.4 C 40.4 61.3 40.9 59.5 41.2 60.4 M 43.0 58.7 C 43.0 58.7 43.0 58.7 43.0 58.7 C 43.0 58.7 43.0 58.7 43.0 58.7 Z M 23.7 71.7 C 23.8 71.7 23.8 71.7 23.7 71.7 C 23.7 71.7 23.7 71.7 23.7 71.7 Z M 21.9 73.1 C 22.0 73.0 22.0 73.0 21.9 73.1 C 21.9 73.1 21.9 73.1 21.9 73.1 Z M 16.3 70.6 C 16.3 70.5 16.3 70.5 16.3 70.6 C 16.3 70.6 16.3 70.6 16.3 70.6 Z M 40.8 57.6 C 42.2 57.1 40.1 60.0 39.9 58.7 C 39.5 58.3 40.7 57.8 40.8 57.6 M 31.5 64.6 C 30.4 63.2 33.7 66.0 31.5 64.6 M 18.9 74.0 C 16.6 72.9 21.2 74.2 18.9 74.0 M 16.5 76.0 C 15.6 76.1 21.2 72.6 17.6 75.6 C 17.4 76.2 16.9 76.0 16.5 76.0 M 34.3 64.1 C 33.5 63.4 36.5 63.2 34.3 64.1 M 25.2 66.6 C 24.9 67.5 23.5 69.1 23.7 67.7 C 23.1 66.4 25.7 65.6 25.2 66.6 M 45.6 56.3 C 45.1 58.5 45.1 55.0 45.6 56.3 M 40.6 59.4 C 40.6 59.5 40.6 59.5 40.6 59.4 C 40.6 59.4 40.6 59.4 40.6 59.4 Z M 38.7 61.0 C 38.6 60.9 38.6 60.9 38.7 61.0 M 45.2 58.2 C 45.1 58.1 45.1 58.1 45.2 58.2 M 26.0 68.0 C 25.8 68.0 25.8 68.0 26.0 68.0 M 30.4 66.3 C 27.8 66.2 31.3 65.4 30.4 66.3 M 33.9 60.5 C 33.0 60.2 35.0 59.6 33.9 60.5 M 27.5 68.9 C 25.5 68.5 28.8 66.4 27.5 68.9 M 31.4 65.9 C 31.3 65.9 31.3 65.9 31.4 65.9 C 31.4 65.9 31.4 65.9 31.4 65.9 Z M 24.6 66.7 C 24.7 66.7 24.7 66.7 24.6 66.7 C 24.6 66.7 24.6 66.7 24.6 66.7 Z M 24.1 67.2 C 24.1 67.1 24.1 67.1 24.1 67.2 C 24.1 67.2 24.1 67.2 24.1 67.2 Z M 26.0 70.2 C 26.0 70.1 26.0 70.1 26.0 70.2 C 26.0 70.2 26.0 70.2 26.0 70.2 Z M 41.7 54.7 C 40.2 55.5 42.7 53.8 41.7 54.7 C 41.7 54.7 41.7 54.7 41.7 54.7 Z M 37.3 62.8 C 34.6 63.2 38.4 60.7 37.3 62.8 C 37.3 62.8 37.3 62.8 37.3 62.8 Z M 34.0 62.7 C 33.9 62.6 33.9 62.6 34.0 62.7 C 34.0 62.7 34.0 62.7 34.0 62.7 Z M 28.8 69.2 C 28.8 69.1 28.8 69.1 28.8 69.2 C 28.8 69.2 28.8 69.2 28.8 69.2 Z M 40.9 55.0 C 40.9 54.9 40.9 54.9 40.9 55.0 C 40.9 55.0 40.9 55.0 40.9 55.0 Z M 21.8 72.0 C 21.7 71.9 21.7 71.9 21.8 72.0 C 21.8 72.0 21.8 72.0 21.8 72.0 Z M 28.2 64.1 C 28.0 64.9 27.9 63.7 28.2 64.1 C 28.2 64.1 28.2 64.1 28.2 64.1 Z M 26.2 65.4 C 26.1 65.5 26.1 65.5 26.2 65.4 C 26.2 65.4 26.2 65.4 26.2 65.4 Z M 19.3 75.3 C 19.2 75.3 19.2 75.3 19.3 75.3 C 19.3 75.3 19.3 75.3 19.3 75.3 Z M 20.3 67.6 C 20.3 67.7 20.3 67.7 20.3 67.6 C 20.3 67.6 20.3 67.6 20.3 67.6 Z M 19.4 70.3 C 19.4 70.3 19.4 70.3 19.4 70.3 C 19.4 70.3 19.4 70.3 19.4 70.3 Z M 26.2 69.6 C 24.3 71.2 26.3 68.7 26.2 69.6 C 26.2 69.6 26.2 69.6 26.2 69.6 Z M 14.6 74.0 C 14.5 74.0 14.5 74.0 14.6 74.0 C 14.6 74.0 14.6 74.0 14.6 74.0 Z M 14.6 76.5 C 14.5 76.4 14.5 76.4 14.6 76.5 C 14.6 76.5 14.6 76.5 14.6 76.5 Z M 14.6 77.7 C 14.5 77.7 14.5 77.7 14.6 77.7 C 14.6 77.7 14.6 77.7 14.6 77.7 Z M 37.9 58.9 C 38.0 58.9 38.0 58.9 37.9 58.9 C 37.9 58.9 37.9 58.9 37.9 58.9 Z M 40.0 61.5 C 40.0 61.5 40.0 61.5 40.0 61.5 C 40.0 61.5 40.0 61.5 40.0 61.5 Z M 37.3 63.4 C 37.3 63.4 37.3 63.4 37.3 63.4 C 37.3 63.4 37.3 63.4 37.3 63.4 Z M 37.7 56.7 C 37.7 56.7 37.7 56.7 37.7 56.7 C 37.7 56.7 37.7 56.7 37.7 56.7 Z M 28.4 66.1 C 28.5 66.1 28.5 66.1 28.4 66.1 C 28.4 66.1 28.4 66.1 28.4 66.1 Z M 26.9 65.5 C 27.0 65.5 27.0 65.5 26.9 65.5 C 26.9 65.5 26.9 65.5 26.9 65.5 Z M 28.5 62.3 C 28.6 62.3 28.6 62.3 28.5 62.3 C 28.5 62.3 28.5 62.3 28.5 62.3 Z M 25.6 65.0 C 25.7 65.0 25.7 65.0 25.6 65.0 C 25.6 65.0 25.6 65.0 25.6 65.0 Z M 44.9 52.7 C 44.9 52.6 44.9 52.6 44.9 52.7 C 44.9 52.7 44.9 52.7 44.9 52.7 Z M 45.9 55.0 C 46.0 54.9 46.0 54.9 45.9 55.0 C 45.9 55.0 45.9 55.0 45.9 55.0 Z M 28.9 68.0 C 28.7 68.8 27.7 67.9 28.9 68.0 M 32.7 65.1 C 32.7 65.1 32.7 65.1 32.7 65.1 C 32.7 65.1 32.7 65.1 32.7 65.1 Z M 22.3 72.2 C 21.4 71.6 24.4 71.4 22.3 72.2 C 22.3 72.2 22.3 72.2 22.3 72.2 Z M 22.5 67.1 C 22.4 67.1 22.4 67.1 22.5 67.1 C 22.5 67.1 22.5 67.1 22.5 67.1 Z M 21.6 68.1 C 21.5 68.1 21.5 68.1 21.6 68.1 C 21.6 68.1 21.6 68.1 21.6 68.1 Z M 17.2 74.3 C 17.1 74.3 17.1 74.3 17.2 74.3 M 33.5 65.6 C 32.8 65.6 32.9 65.6 33.5 65.6 M 21.0 73.0 C 21.1 73.0 21.1 73.0 21.0 73.0 C 21.0 73.0 21.0 73.0 21.0 73.0 Z M 16.3 75.6 C 16.3 75.5 16.3 75.5 16.3 75.6 C 16.3 75.6 16.3 75.6 16.3 75.6 Z M 36.0 63.2 C 35.4 62.1 36.1 62.0 36.0 63.2 M 43.6 57.7 C 43.6 57.6 43.6 57.6 43.6 57.7 C 43.6 57.7 43.6 57.7 43.6 57.7 Z M 43.6 57.7 " fill="#A6AAA8"></path></g></svg>