<?xml version="1.0" encoding="UTF-8" standalone="no"?><svg xmlns="http://www.w3.org/2000/svg" xmlns:xlink="http://www.w3.org/1999/xlink" clip-rule="evenodd" stroke-miterlimit="4.00" viewBox="0 0 84 104"><desc>SVG generated by Keynote</desc><defs></defs><g transform="matrix(1.00, 0.00, -0.00, -1.00, 0.0, 104.0)"><path d="M 17.8 84.8 C 17.8 85.0 17.3 85.4 17.3 85.6 M 17.8 84.8 C 16.7 84.7 16.1 85.6 15.1 86.7 C 14.2 88.0 15.9 87.2 16.1 87.5 C 15.2 89.4 14.6 89.1 14.0 88.3 C 14.1 89.3 11.8 90.6 13.1 90.9 C 15.0 88.1 12.0 93.0 14.2 91.1 C 14.5 90.9 14.3 91.8 14.2 92.0 C 15.1 91.6 14.7 93.2 15.8 92.2 C 16.6 92.5 16.2 92.5 17.2 92.1 C 17.5 91.8 17.2 91.8 17.0 91.7 C 16.3 91.0 18.1 91.0 18.0 90.1 C 19.4 90.1 18.7 88.7 17.9 89.0 C 18.4 88.5 19.9 88.5 19.6 87.4 C 20.3 87.4 21.1 85.6 19.8 86.1 C 19.0 86.5 19.2 85.6 19.0 85.3 C 18.6 85.4 18.3 86.6 18.0 86.6 C 18.1 86.2 18.5 84.7 17.7 86.1 C 17.6 85.4 17.0 85.9 17.8 84.8 C 17.8 84.8 17.8 84.8 17.8 84.8 Z M 14.1 89.0 C 13.8 88.9 14.4 88.6 14.1 89.0 C 14.1 89.0 14.1 89.0 14.1 89.0 Z M 19.8 88.2 C 19.5 88.1 20.1 87.8 19.8 88.2 C 19.8 88.2 19.8 88.2 19.8 88.2 Z M 17.2 91.5 C 16.9 91.3 17.5 91.0 17.2 91.5 C 17.2 91.5 17.2 91.5 17.2 91.5 Z M 15.1 87.9 C 15.8 87.4 15.1 88.8 14.7 88.7 C 14.9 88.6 14.8 88.0 15.1 87.9 C 15.1 87.9 15.1 87.9 15.1 87.9 Z M 16.7 88.9 C 16.6 88.8 16.8 88.4 17.0 88.6 C 17.0 88.9 16.7 89.0 16.7 88.9 C 16.7 88.9 16.7 88.9 16.7 88.9 Z M 13.1 91.8 C 13.1 91.7 13.2 91.3 13.5 91.6 C 13.4 91.8 13.2 91.9 13.1 91.8 C 13.1 91.8 13.1 91.8 13.1 91.8 Z M 16.4 87.6 C 16.5 87.4 16.8 87.5 16.7 87.8 C 16.5 87.8 16.1 88.3 16.4 87.6 C 16.4 87.6 16.4 87.6 16.4 87.6 Z M 16.3 85.8 C 16.8 85.3 16.4 86.8 16.3 86.7 C 15.9 86.8 15.8 86.0 16.3 85.8 C 16.3 85.8 16.3 85.8 16.3 85.8 Z M 17.0 87.5 C 17.4 87.0 17.0 87.8 17.0 87.5 C 17.0 87.5 17.0 87.5 17.0 87.5 Z M 15.4 92.6 C 15.9 92.2 15.5 93.0 15.4 92.6 C 15.4 92.6 15.4 92.6 15.4 92.6 Z M 18.1 90.5 C 18.5 90.1 18.1 90.8 18.1 90.5 C 18.1 90.5 18.1 90.5 18.1 90.5 Z M 14.7 89.7 C 14.1 90.5 14.0 89.3 14.7 89.7 C 14.7 89.7 14.7 89.7 14.7 89.7 Z M 17.2 84.4 C 16.6 85.2 16.4 84.0 17.2 84.4 C 17.2 84.4 17.2 84.4 17.2 84.4 Z M 56.7 26.7 C 57.1 25.8 54.1 28.4 55.9 27.9 C 57.0 28.1 55.4 30.2 55.0 29.1 C 54.5 29.7 54.5 29.7 54.6 30.3 C 53.9 30.0 52.6 31.3 52.6 32.0 C 52.9 32.7 53.3 31.1 53.3 32.3 C 52.2 34.3 54.0 32.6 54.2 33.8 C 54.1 33.8 53.8 33.6 53.8 33.9 C 54.5 34.4 55.6 33.7 55.8 34.5 C 55.9 34.2 57.5 33.3 56.6 33.5 C 55.8 33.2 58.3 32.5 57.2 31.9 C 58.0 31.8 57.7 30.9 58.5 30.8 C 58.9 30.6 58.3 30.2 58.2 30.2 C 57.7 29.9 59.5 30.5 59.0 29.4 C 59.3 29.5 60.2 27.9 59.1 28.8 C 59.4 28.6 60.8 27.0 59.3 27.3 C 58.0 28.2 59.2 25.4 58.2 26.8 C 57.3 27.8 57.4 28.1 57.4 27.0 C 57.7 26.8 58.4 25.5 57.3 26.3 C 57.2 26.6 56.8 27.0 56.7 26.7 C 56.7 26.7 56.7 26.7 56.7 26.7 Z M 58.1 27.4 C 57.8 28.0 57.8 27.2 58.1 27.4 C 58.1 27.4 58.1 27.4 58.1 27.4 Z M 58.7 31.1 C 58.3 31.7 58.3 30.9 58.7 31.1 C 58.7 31.1 58.7 31.1 58.7 31.1 Z M 55.1 28.5 C 55.2 29.0 54.1 28.5 55.1 28.5 C 55.1 28.5 55.1 28.5 55.1 28.5 Z M 58.6 29.5 C 58.6 29.5 58.6 29.3 58.6 29.2 C 58.6 29.2 58.7 29.5 58.6 29.5 C 58.6 29.5 58.6 29.5 58.6 29.5 Z M 54.4 29.6 C 54.2 30.8 53.5 29.3 54.4 29.6 C 54.4 29.6 54.4 29.6 54.4 29.6 Z M 54.0 32.1 C 54.9 32.8 53.1 32.9 54.0 32.1 C 54.0 32.1 54.0 32.1 54.0 32.1 Z M 56.9 32.2 C 56.9 31.9 57.2 32.1 56.9 32.2 C 56.9 32.2 56.9 32.2 56.9 32.2 Z M 59.9 28.2 C 59.8 27.9 60.1 28.1 59.9 28.2 C 59.9 28.2 59.9 28.2 59.9 28.2 Z M 56.1 33.3 C 55.8 33.0 56.5 33.1 56.1 33.3 C 56.1 33.3 56.1 33.3 56.1 33.3 Z M 55.4 29.0 C 55.2 27.6 57.2 28.7 55.4 29.0 C 55.4 29.0 55.4 29.0 55.4 29.0 Z M 56.3 27.4 C 56.6 26.7 56.7 27.8 56.4 28.0 C 56.4 27.9 56.3 27.5 56.3 27.4 C 56.3 27.4 56.3 27.4 56.3 27.4 Z M 54.8 29.9 C 54.8 29.1 55.4 29.5 54.8 29.9 C 54.8 29.9 54.8 29.9 54.8 29.9 Z M 55.4 28.1 C 55.7 27.9 55.4 28.5 55.4 28.1 C 55.4 28.1 55.4 28.1 55.4 28.1 Z M 53.2 30.5 C 53.5 30.3 53.2 30.9 53.2 30.5 C 53.2 30.5 53.2 30.5 53.2 30.5 Z M 56.4 26.4 C 56.7 26.1 56.4 26.7 56.4 26.4 C 56.4 26.4 56.4 26.4 56.4 26.4 Z M 53.9 30.6 C 54.2 31.0 55.5 30.6 53.8 31.7 C 53.4 31.8 53.4 30.8 53.9 30.6 C 53.9 30.6 53.9 30.6 53.9 30.6 Z M 19.5 82.3 C 16.1 85.1 18.5 85.5 18.7 85.9 C 18.9 86.8 19.6 86.5 20.4 86.0 C 22.1 86.1 19.9 84.1 21.5 84.4 C 23.7 84.5 20.8 82.3 22.8 83.1 C 23.1 83.5 23.7 81.9 23.5 81.9 C 24.8 81.8 24.0 79.8 23.9 79.7 C 24.4 79.4 25.9 80.4 25.8 78.2 C 26.2 76.8 27.9 77.3 26.7 76.9 C 28.4 76.9 26.8 76.1 27.7 75.6 C 28.7 75.4 26.8 74.9 28.7 74.7 C 28.0 73.6 29.0 75.6 30.1 72.4 C 29.2 73.7 30.3 70.6 30.5 71.6 C 30.6 73.0 31.2 70.1 32.4 69.1 C 32.3 68.6 32.5 66.5 33.2 67.4 C 35.2 66.8 33.4 65.6 34.7 65.7 C 35.4 65.5 34.7 64.8 35.0 64.5 C 35.9 64.5 35.8 63.8 37.0 62.3 C 39.8 59.1 35.7 60.6 36.4 59.1 C 36.2 58.7 32.6 59.2 34.8 59.5 C 34.2 59.5 34.0 63.5 33.1 60.8 C 33.1 62.4 32.5 60.1 31.9 62.9 C 35.2 60.7 30.1 66.6 31.4 63.3 C 30.7 63.5 30.0 64.8 30.9 64.1 C 32.3 64.6 29.0 65.8 31.2 65.6 C 29.6 67.2 31.2 67.6 29.9 67.5 C 28.1 66.9 30.4 67.7 29.3 68.3 C 27.8 70.5 27.2 67.6 27.5 69.7 C 25.2 71.3 27.8 70.6 27.5 71.5 C 28.4 72.4 25.2 73.1 26.2 71.4 C 26.2 72.6 25.6 71.2 25.6 72.6 C 27.0 72.6 23.7 73.2 24.7 73.4 C 24.3 74.5 25.2 74.4 25.0 74.7 C 24.2 76.0 23.5 74.9 24.0 75.7 C 24.2 76.3 22.5 76.0 22.7 76.4 C 23.7 75.1 23.0 78.2 22.4 78.0 C 22.9 77.1 20.8 77.5 21.2 78.6 C 23.8 79.4 19.9 79.4 20.2 80.5 C 21.8 80.7 18.4 83.5 18.8 81.8 C 18.8 82.0 19.6 82.3 19.5 82.3 M 22.6 76.9 C 23.5 75.9 22.1 78.3 22.6 76.9 M 22.3 76.7 C 23.0 76.5 21.3 77.6 22.2 76.6 C 22.2 76.6 22.2 76.8 22.3 76.7 M 25.3 72.2 C 25.6 72.5 24.7 72.6 25.3 72.2 M 26.7 71.8 C 27.5 71.3 26.1 72.8 26.7 71.8 M 33.3 61.6 C 34.3 63.8 31.5 62.0 33.3 61.6 M 28.4 68.0 C 27.8 69.4 27.9 67.1 28.4 68.0 M 28.6 68.7 C 28.5 69.4 28.1 68.5 28.6 68.7 M 32.0 63.5 C 32.1 63.4 32.1 63.4 32.0 63.5 C 32.0 63.5 32.0 63.5 32.0 63.5 Z M 34.0 60.5 C 34.0 60.5 34.0 60.5 34.0 60.5 C 34.0 60.5 34.0 60.5 34.0 60.5 Z M 30.2 66.5 C 29.1 67.1 31.0 64.9 30.2 66.5 C 30.2 66.5 30.2 66.5 30.2 66.5 Z M 35.8 63.8 C 35.7 63.9 35.7 63.9 35.8 63.8 C 35.8 63.8 35.8 63.8 35.8 63.8 Z M 22.9 78.3 C 22.9 78.4 22.9 78.4 22.9 78.3 C 22.9 78.3 22.9 78.3 22.9 78.3 Z M 19.9 81.3 C 20.2 81.4 19.3 81.7 19.9 81.3 C 19.9 81.3 19.9 81.3 19.9 81.3 Z M 20.1 85.4 C 20.1 85.4 20.1 85.4 20.1 85.4 C 20.1 85.4 20.1 85.4 20.1 85.4 Z M 23.0 80.1 C 23.0 80.1 23.0 80.1 23.0 80.1 C 23.0 80.1 23.0 80.1 23.0 80.1 Z M 22.0 78.7 C 20.7 78.6 23.2 77.6 22.0 78.7 C 22.0 78.7 22.0 78.7 22.0 78.7 Z M 31.9 69.3 C 31.5 69.0 32.5 68.6 31.9 69.3 C 31.9 69.3 31.9 69.3 31.9 69.3 Z M 27.1 71.9 C 27.0 71.6 27.6 71.5 27.1 71.9 C 27.1 71.9 27.1 71.9 27.1 71.9 Z M 24.6 72.9 C 24.4 72.6 25.0 72.5 24.6 72.9 C 24.6 72.9 24.6 72.9 24.6 72.9 Z M 19.7 81.0 C 19.6 80.9 19.6 80.9 19.7 81.0 C 19.7 81.0 19.7 81.0 19.7 81.0 Z M 21.2 80.3 C 19.7 80.5 22.6 79.3 21.2 80.3 C 21.2 80.3 21.2 80.3 21.2 80.3 Z M 20.5 81.9 C 21.2 81.7 19.6 82.9 20.5 81.9 M 22.5 82.0 C 22.8 80.8 23.5 84.1 22.5 82.0 C 22.5 82.0 22.5 82.0 22.5 82.0 Z M 26.4 77.1 C 26.5 77.0 26.5 77.0 26.4 77.1 C 26.4 77.1 26.4 77.1 26.4 77.1 Z M 23.3 75.8 C 24.0 74.9 23.2 76.5 23.3 75.8 C 23.3 75.8 23.3 75.8 23.3 75.8 Z M 17.8 83.5 C 18.4 82.7 17.6 84.3 17.8 83.5 C 17.8 83.5 17.8 83.5 17.8 83.5 Z M 27.5 73.4 C 28.4 71.9 27.4 74.7 27.5 73.4 C 27.5 73.4 27.5 73.4 27.5 73.4 Z M 30.2 67.3 C 30.2 67.2 30.2 67.2 30.2 67.3 C 30.2 67.3 30.2 67.3 30.2 67.3 Z M 30.5 66.0 C 30.5 66.0 30.5 66.0 30.5 66.0 C 30.5 66.0 30.5 66.0 30.5 66.0 Z M 34.3 62.4 C 34.4 62.4 34.4 62.4 34.3 62.4 C 34.3 62.4 34.3 62.4 34.3 62.4 Z M 30.7 64.8 C 30.7 64.8 30.7 64.8 30.7 64.8 C 30.7 64.8 30.7 64.8 30.7 64.8 Z M 32.9 62.0 C 33.0 62.0 33.0 62.0 32.9 62.0 C 32.9 62.0 32.9 62.0 32.9 62.0 Z M 31.8 61.9 C 31.9 61.8 31.9 61.8 31.8 61.9 C 31.8 61.9 31.8 61.9 31.8 61.9 Z M 31.4 71.1 C 31.5 71.1 31.5 71.1 31.4 71.1 C 31.4 71.1 31.4 71.1 31.4 71.1 Z M 20.4 79.2 C 20.6 79.2 20.6 79.2 20.4 79.2 C 20.4 79.2 20.4 79.2 20.4 79.2 Z M 33.1 62.5 C 33.1 62.5 33.1 62.5 33.1 62.5 C 33.1 62.5 33.1 62.5 33.1 62.5 Z M 29.0 70.1 C 29.8 70.6 27.5 70.0 29.1 69.9 C 29.1 70.0 28.8 70.1 29.0 70.1 M 30.9 70.0 C 30.9 70.1 30.9 70.1 30.9 70.0 C 30.9 70.0 30.9 70.0 30.9 70.0 Z M 29.2 73.6 C 29.2 73.7 29.2 73.7 29.2 73.6 C 29.2 73.6 29.2 73.6 29.2 73.6 Z M 30.2 65.2 C 29.7 65.0 31.1 64.6 30.1 65.3 M 35.7 63.3 C 35.2 63.1 36.6 62.7 35.6 63.4 M 17.4 84.8 C 17.6 85.1 16.8 85.2 17.4 84.8 M 29.1 74.6 C 29.4 75.0 28.5 75.1 29.1 74.6 M 29.2 72.4 C 28.6 72.3 30.0 71.8 29.1 72.6 M 34.1 65.5 C 34.2 65.5 34.2 65.5 34.1 65.5 C 34.1 65.5 34.1 65.5 34.1 65.5 Z M 24.4 74.5 C 24.4 74.5 24.4 74.5 24.4 74.5 C 24.4 74.5 24.4 74.5 24.4 74.5 Z M 28.0 71.2 C 27.0 71.3 28.8 70.7 28.0 71.2 M 24.6 76.3 C 23.3 76.6 25.7 75.3 24.6 76.3 M 37.0 61.7 C 35.5 62.0 37.9 61.4 37.0 61.7 M 31.8 64.6 C 30.3 64.8 32.7 64.3 31.8 64.6 M 25.3 73.9 C 24.8 73.7 26.2 73.3 25.3 73.9 M 18.7 82.7 C 18.1 83.4 19.1 81.3 18.7 82.7 M 32.7 67.7 C 32.8 67.6 32.8 67.6 32.7 67.7 C 32.7 67.7 32.7 67.7 32.7 67.7 Z M 24.0 82.3 C 24.0 82.2 24.0 82.2 24.0 82.3 C 24.0 82.3 24.0 82.3 24.0 82.3 Z M 34.8 58.6 C 34.9 58.6 34.9 58.6 34.8 58.6 C 34.8 58.6 34.8 58.6 34.8 58.6 Z M 31.9 65.4 C 32.0 65.4 32.0 65.4 31.9 65.4 C 31.9 65.4 31.9 65.4 31.9 65.4 Z M 33.6 60.2 C 33.7 60.2 33.7 60.2 33.6 60.2 C 33.6 60.2 33.6 60.2 33.6 60.2 Z M 30.7 68.6 C 30.7 68.6 30.7 68.6 30.7 68.6 C 30.7 68.6 30.7 68.6 30.7 68.6 Z M 28.1 67.6 C 28.1 67.6 28.1 67.6 28.1 67.6 C 28.1 67.6 28.1 67.6 28.1 67.6 Z M 27.0 71.3 C 27.0 71.2 27.0 71.2 27.0 71.3 C 27.0 71.3 27.0 71.3 27.0 71.3 Z M 29.2 66.4 C 30.2 64.5 29.3 67.8 29.2 66.4 C 29.2 66.4 29.2 66.4 29.2 66.4 Z M 29.3 71.0 C 29.4 71.0 29.4 71.0 29.3 71.0 C 29.3 71.0 29.3 71.0 29.3 71.0 Z M 27.6 70.2 C 27.7 68.6 29.1 70.3 27.6 70.2 M 23.6 74.8 C 23.5 74.2 24.3 75.0 23.6 74.8 M 25.3 78.8 C 25.3 78.8 25.3 78.8 25.3 78.8 C 25.3 78.8 25.3 78.8 25.3 78.8 Z M 25.4 78.1 C 25.5 78.1 25.5 78.1 25.4 78.1 C 25.4 78.1 25.4 78.1 25.4 78.1 Z M 22.7 75.9 C 22.7 75.9 22.7 75.9 22.7 75.9 C 22.7 75.9 22.7 75.9 22.7 75.9 Z M 26.3 78.6 C 26.4 78.6 26.4 78.6 26.3 78.6 C 26.3 78.6 26.3 78.6 26.3 78.6 Z M 27.7 68.3 C 27.7 68.3 27.7 68.3 27.7 68.3 C 27.7 68.3 27.7 68.3 27.7 68.3 Z M 33.8 59.1 C 33.9 59.1 33.9 59.1 33.8 59.1 C 33.8 59.1 33.8 59.1 33.8 59.1 Z M 21.3 84.0 C 21.3 84.0 21.3 84.0 21.3 84.0 C 21.3 84.0 21.3 84.0 21.3 84.0 Z M 29.2 68.0 C 29.3 68.0 29.3 68.0 29.2 68.0 C 29.2 68.0 29.2 68.0 29.2 68.0 Z M 24.3 80.0 C 24.3 80.0 24.3 80.0 24.3 80.0 C 24.3 80.0 24.3 80.0 24.3 80.0 Z M 28.6 68.4 C 28.6 68.4 28.6 68.4 28.6 68.4 C 28.6 68.4 28.6 68.4 28.6 68.4 Z M 32.7 68.1 C 32.7 68.1 32.7 68.1 32.7 68.1 C 32.7 68.1 32.7 68.1 32.7 68.1 Z M 34.6 66.5 C 34.6 66.4 34.6 66.4 34.6 66.5 C 34.6 66.5 34.6 66.5 34.6 66.5 Z M 31.0 67.1 C 31.1 67.1 31.1 67.1 31.0 67.1 C 31.0 67.1 31.0 67.1 31.0 67.1 Z M 22.9 80.0 C 19.6 83.0 24.4 76.9 22.9 80.0 M 31.6 66.7 C 29.7 69.1 32.1 64.0 31.6 66.7 C 31.6 66.2 31.6 66.6 31.6 66.7 M 35.1 57.5 C 35.2 59.1 36.0 59.6 37.2 59.8 C 38.0 59.6 36.3 58.4 37.7 59.4 C 37.2 60.7 40.2 60.3 38.3 59.1 C 39.1 57.4 39.7 59.6 39.6 58.2 C 40.5 56.4 40.5 57.7 41.2 56.3 C 40.8 54.9 42.2 55.9 41.5 54.9 C 42.1 56.2 42.2 53.3 42.7 53.6 C 42.5 55.2 45.7 49.2 43.3 52.0 C 43.7 50.5 44.4 51.3 44.8 50.9 C 44.5 50.0 46.6 49.2 46.6 48.1 C 46.3 48.1 46.0 48.5 45.7 48.4 C 45.2 48.4 46.4 47.6 46.3 47.7 C 46.4 47.1 47.2 44.6 46.8 47.5 C 47.2 48.0 47.8 45.6 48.2 46.0 C 49.4 44.1 47.5 44.9 48.8 44.5 C 49.7 43.2 50.4 42.3 50.2 42.2 C 50.9 41.5 51.6 41.7 51.5 40.6 C 53.7 39.7 50.2 38.0 52.7 38.8 C 52.6 38.0 54.2 38.5 52.9 37.7 C 53.1 38.7 55.8 35.6 53.9 36.4 C 53.8 35.8 56.9 34.9 55.3 34.3 C 54.9 32.8 53.8 32.3 51.8 33.3 C 52.7 33.7 49.8 34.5 52.0 34.2 C 53.3 33.1 50.7 37.1 50.8 35.9 C 49.4 34.6 50.4 38.5 48.8 38.6 C 49.8 38.3 48.0 41.7 47.4 40.0 C 46.9 40.5 47.4 41.1 46.3 41.3 C 47.7 39.4 47.0 42.8 46.4 42.2 C 46.1 41.6 43.8 44.2 44.7 44.4 C 47.0 44.5 43.8 44.9 44.1 45.8 C 43.4 47.7 42.9 44.7 43.3 46.6 C 42.9 46.8 41.5 48.9 42.0 47.4 C 42.5 47.0 42.9 49.8 41.4 49.1 C 42.2 46.3 39.2 51.4 40.2 51.0 C 43.3 48.0 38.5 55.2 39.6 52.0 C 37.8 53.0 39.6 51.3 38.7 53.5 C 39.3 53.5 38.7 55.3 38.0 54.4 C 36.5 53.8 39.4 56.1 36.8 56.0 C 36.0 55.7 35.8 58.7 35.5 57.3 C 35.5 57.2 35.1 57.4 35.1 57.5 M 35.7 56.9 C 35.8 57.4 35.0 57.1 35.7 56.9 M 35.8 57.4 C 35.8 57.4 35.8 57.4 35.8 57.4 C 35.8 57.4 35.8 57.4 35.8 57.4 Z M 38.5 53.8 C 38.5 53.8 38.5 53.8 38.5 53.8 C 38.5 53.8 38.5 53.8 38.5 53.8 Z M 43.8 53.1 C 43.7 53.1 43.7 53.1 43.8 53.1 C 43.8 53.1 43.8 53.1 43.8 53.1 Z M 40.3 51.4 C 40.2 51.4 40.2 51.4 40.3 51.4 C 40.3 51.4 40.3 51.4 40.3 51.4 Z M 37.8 55.3 C 37.8 55.3 37.8 55.3 37.8 55.3 C 37.8 55.3 37.8 55.3 37.8 55.3 Z M 39.6 51.3 C 40.3 51.4 38.7 51.9 39.6 51.2 C 39.6 51.2 39.5 51.3 39.6 51.3 M 41.6 47.9 C 41.7 47.9 41.7 47.9 41.6 47.9 M 50.3 43.4 C 50.4 43.4 50.4 43.4 50.3 43.4 M 46.8 40.2 C 46.9 40.1 46.9 40.1 46.8 40.2 M 44.3 45.0 C 44.9 44.0 44.7 45.0 44.3 45.0 M 48.9 37.8 C 47.7 38.8 49.5 36.2 48.9 37.8 M 49.4 36.3 C 49.5 36.3 49.5 36.3 49.4 36.3 M 45.8 42.1 C 45.8 42.1 45.8 42.1 45.8 42.1 C 45.8 42.1 45.8 42.1 45.8 42.1 Z M 43.8 45.3 C 42.7 46.4 44.3 43.7 43.8 45.3 M 38.3 53.0 C 38.6 52.2 39.0 53.5 38.3 53.0 M 37.6 54.7 C 37.6 54.7 37.6 54.7 37.6 54.7 C 37.6 54.7 37.6 54.7 37.6 54.7 Z M 47.5 39.7 C 47.5 39.8 47.5 39.8 47.5 39.7 C 47.5 39.7 47.5 39.7 47.5 39.7 Z M 48.4 38.2 C 48.4 38.3 48.4 38.3 48.4 38.2 C 48.4 38.2 48.4 38.2 48.4 38.2 Z M 53.6 38.3 C 53.6 38.3 53.6 38.3 53.6 38.3 C 53.6 38.3 53.6 38.3 53.6 38.3 Z M 39.8 54.6 C 39.0 55.4 39.3 52.8 40.1 53.6 C 40.5 53.8 39.8 54.4 39.8 54.6 M 44.3 47.0 C 45.7 47.6 42.0 46.8 44.3 47.0 M 50.3 36.7 C 52.4 36.7 48.5 37.2 50.3 36.7 M 51.4 34.6 C 52.1 34.2 49.1 38.3 50.7 35.1 C 50.7 34.7 51.1 34.7 51.4 34.6 M 42.3 48.3 C 43.1 48.4 40.9 49.6 42.3 48.3 M 48.3 43.7 C 48.2 42.9 48.7 41.4 49.0 42.5 C 50.0 43.1 48.3 44.5 48.3 43.7 M 36.6 57.1 C 36.0 55.6 37.5 57.7 36.6 57.1 M 39.2 53.4 C 39.2 53.3 39.2 53.3 39.2 53.4 C 39.2 53.4 39.2 53.4 39.2 53.4 Z M 40.1 51.8 C 40.2 51.8 40.2 51.8 40.1 51.8 M 36.0 55.8 C 36.2 55.8 36.2 55.8 36.0 55.8 M 47.2 43.0 C 47.3 42.9 47.3 42.9 47.2 43.0 M 44.4 45.5 C 46.5 44.8 44.1 46.4 44.4 45.5 M 44.1 50.4 C 44.9 50.4 43.5 51.4 44.1 50.4 M 45.6 42.8 C 47.3 42.5 45.6 44.9 45.6 42.8 M 43.8 46.2 C 43.9 46.1 43.9 46.1 43.8 46.2 C 43.8 46.2 43.8 46.2 43.8 46.2 Z M 48.7 43.4 C 48.7 43.4 48.7 43.4 48.7 43.4 C 48.7 43.4 48.7 43.4 48.7 43.4 Z M 48.9 42.9 C 48.9 43.0 48.9 43.0 48.9 42.9 C 48.9 42.9 48.9 42.9 48.9 42.9 Z M 46.4 41.5 C 46.3 41.6 46.3 41.6 46.4 41.5 C 46.4 41.5 46.4 41.5 46.4 41.5 Z M 40.4 56.7 C 41.1 55.7 40.0 57.6 40.4 56.7 C 40.4 56.7 40.4 56.7 40.4 56.7 Z M 40.4 50.1 C 42.4 49.0 40.4 51.8 40.4 50.1 C 40.4 50.1 40.4 50.1 40.4 50.1 Z M 43.1 49.1 C 43.1 49.1 43.1 49.1 43.1 49.1 C 43.1 49.1 43.1 49.1 43.1 49.1 Z M 44.5 43.1 C 44.6 43.1 44.6 43.1 44.5 43.1 C 44.5 43.1 44.5 43.1 44.5 43.1 Z M 40.8 56.3 C 40.9 56.3 40.9 56.3 40.8 56.3 C 40.8 56.3 40.8 56.3 40.8 56.3 Z M 48.9 39.0 C 48.9 39.0 48.9 39.0 48.9 39.0 C 48.9 39.0 48.9 39.0 48.9 39.0 Z M 47.0 46.3 C 46.8 45.6 47.3 46.4 47.0 46.3 C 47.0 46.3 47.0 46.3 47.0 46.3 Z M 48.0 44.8 C 48.0 44.7 48.0 44.7 48.0 44.8 C 48.0 44.8 48.0 44.8 48.0 44.8 Z M 49.6 35.9 C 49.6 35.9 49.6 35.9 49.6 35.9 C 49.6 35.9 49.6 35.9 49.6 35.9 Z M 51.6 41.5 C 51.7 41.4 51.7 41.4 51.6 41.5 C 51.6 41.5 51.6 41.5 51.6 41.5 Z M 51.3 39.4 C 51.3 39.4 51.3 39.4 51.3 39.4 C 51.3 39.4 51.3 39.4 51.3 39.4 Z M 46.4 42.0 C 47.3 40.3 46.6 42.6 46.4 42.0 C 46.4 42.0 46.4 42.0 46.4 42.0 Z M 53.6 35.4 C 53.7 35.4 53.7 35.4 53.6 35.4 C 53.6 35.4 53.6 35.4 53.6 35.4 Z M 52.7 33.7 C 52.8 33.7 52.8 33.7 52.7 33.7 C 52.7 33.7 52.7 33.7 52.7 33.7 Z M 52.2 32.8 C 52.3 32.8 52.3 32.8 52.2 32.8 C 52.2 32.8 52.2 32.8 52.2 32.8 Z M 41.5 52.8 C 41.5 52.8 41.5 52.8 41.5 52.8 C 41.5 52.8 41.5 52.8 41.5 52.8 Z M 38.9 51.9 C 38.8 51.9 38.8 51.9 38.9 51.9 C 38.9 51.9 38.9 51.9 38.9 51.9 Z M 40.2 49.7 C 40.1 49.7 40.1 49.7 40.2 49.7 C 40.2 49.7 40.2 49.7 40.2 49.7 Z M 42.7 54.1 C 42.6 54.1 42.6 54.1 42.7 54.1 C 42.7 54.1 42.7 54.1 42.7 54.1 Z M 46.0 45.0 C 46.0 45.0 46.0 45.0 46.0 45.0 C 46.0 45.0 46.0 45.0 46.0 45.0 Z M 47.4 44.9 C 47.4 44.9 47.4 44.9 47.4 44.9 C 47.4 44.9 47.4 44.9 47.4 44.9 Z M 47.4 47.5 C 47.4 47.5 47.4 47.5 47.4 47.5 C 47.4 47.5 47.4 47.5 47.4 47.5 Z M 48.6 44.9 C 48.6 44.9 48.6 44.9 48.6 44.9 C 48.6 44.9 48.6 44.9 48.6 44.9 Z M 38.7 59.1 C 38.7 59.1 38.7 59.1 38.7 59.1 C 38.7 59.1 38.7 59.1 38.7 59.1 Z M 36.9 58.0 C 36.9 58.1 36.9 58.1 36.9 58.0 C 36.9 58.0 36.9 58.0 36.9 58.0 Z M 44.9 43.9 C 44.8 43.3 45.9 43.6 44.9 43.9 M 43.1 47.1 C 43.1 47.1 43.1 47.1 43.1 47.1 C 43.1 47.1 43.1 47.1 43.1 47.1 Z M 48.4 39.0 C 49.3 39.1 47.1 40.1 48.4 39.0 C 48.4 39.0 48.4 39.0 48.4 39.0 Z M 50.2 42.5 C 50.2 42.5 50.2 42.5 50.2 42.5 C 50.2 42.5 50.2 42.5 50.2 42.5 Z M 50.4 41.5 C 50.5 41.5 50.5 41.5 50.4 41.5 C 50.4 41.5 50.4 41.5 50.4 41.5 Z M 51.5 36.0 C 51.6 36.0 51.6 36.0 51.5 36.0 M 42.3 47.0 C 42.9 46.8 42.7 46.8 42.3 47.0 M 49.1 38.0 C 49.1 38.1 49.1 38.1 49.1 38.0 C 49.1 38.0 49.1 38.0 49.1 38.0 Z M 51.7 34.8 C 51.7 34.8 51.7 34.8 51.7 34.8 C 51.7 34.8 51.7 34.8 51.7 34.8 Z M 41.3 49.4 C 42.2 49.9 41.7 50.2 41.3 49.4 M 37.6 55.5 C 37.6 55.6 37.6 55.6 37.6 55.5 C 37.6 55.5 37.6 55.5 37.6 55.5 Z M 37.6 55.5 " fill="#838786"></path><path d="M 55.9 27.4 C 55.8 28.0 57.0 28.5 57.3 28.4 C 57.5 28.2 58.2 29.2 58.6 28.9 C 59.0 28.6 59.1 28.5 58.9 28.5 C 58.6 28.6 59.2 28.3 59.4 27.9 C 59.6 27.4 59.3 28.6 60.1 27.2 C 60.4 26.8 60.4 27.4 60.9 26.9 C 61.3 26.4 60.7 26.3 60.5 26.1 C 60.3 26.0 61.6 25.2 61.7 24.6 C 61.7 24.4 62.5 24.1 62.8 24.3 C 63.0 24.4 62.7 24.9 63.0 24.9 C 63.3 24.9 63.4 24.6 63.5 24.4 C 63.7 24.1 63.8 23.8 63.6 23.7 C 63.4 23.7 63.2 23.6 63.5 23.5 C 63.8 23.3 64.1 23.1 64.2 23.1 C 64.4 23.0 64.5 22.2 64.3 22.3 C 64.1 22.4 64.8 21.9 64.7 21.7 C 64.6 21.6 64.5 21.5 64.3 21.7 C 64.0 21.9 64.1 22.0 63.8 22.0 C 63.5 22.1 63.3 22.1 63.5 21.9 C 63.6 21.7 63.9 21.3 63.7 21.3 C 63.6 21.3 63.3 21.3 63.2 21.1 C 63.1 20.9 63.2 20.5 63.3 20.4 C 63.5 20.4 63.9 19.8 63.8 20.3 C 63.7 20.7 64.2 20.2 64.3 20.1 C 64.5 20.1 64.3 19.9 64.6 19.7 C 64.9 19.5 65.0 19.8 65.0 20.7 C 64.9 20.9 64.9 21.3 65.1 21.3 C 65.3 21.3 65.3 20.9 65.3 20.6 C 65.2 20.4 65.6 20.6 65.7 20.6 C 65.9 20.5 65.5 20.3 65.6 20.3 C 65.8 20.2 66.1 20.2 66.0 19.9 C 65.9 19.7 66.0 19.6 65.8 19.7 C 65.6 19.8 65.4 20.0 65.4 19.8 C 65.5 19.6 66.3 17.9 65.8 18.4 C 65.3 19.0 66.9 15.8 65.5 17.4 C 64.2 19.0 64.8 16.2 64.2 17.0 C 63.6 17.7 63.3 16.7 62.7 17.5 C 62.6 17.6 62.1 17.9 62.0 17.8 C 62.0 17.7 62.1 17.3 62.0 17.3 C 61.9 17.2 61.7 17.5 61.6 17.8 C 61.4 18.1 61.5 18.3 61.1 18.6 C 60.7 19.0 60.5 19.2 60.3 19.6 C 60.1 19.9 60.1 20.1 60.2 20.2 C 60.2 20.3 60.4 20.2 60.5 20.3 C 60.7 20.3 60.5 20.7 60.3 20.9 C 60.1 21.2 59.8 21.1 59.6 21.3 C 59.4 21.6 58.9 21.9 59.0 21.7 C 59.1 21.5 59.5 21.3 59.7 21.0 C 59.8 20.8 60.1 20.3 59.8 20.4 C 59.6 20.6 58.9 21.6 58.8 21.8 C 58.7 21.9 58.8 23.0 58.5 23.0 C 58.0 22.9 57.8 23.6 57.6 23.8 C 57.4 23.9 56.7 25.3 56.9 25.3 C 57.5 25.2 56.7 26.5 57.0 26.7 C 57.2 26.8 56.2 26.6 55.9 27.4 M 64.5 21.4 C 64.4 21.4 64.5 21.0 64.6 20.9 C 64.7 20.8 64.8 21.0 64.7 21.1 C 64.6 21.2 64.5 21.4 64.5 21.4 Z M 64.5 20.8 C 64.4 20.8 64.3 20.7 64.4 20.5 C 64.7 20.2 64.7 20.5 64.7 20.6 C 64.7 20.7 64.6 20.8 64.5 20.8 Z M 62.1 25.9 C 62.0 25.8 62.2 25.6 62.4 25.5 C 62.6 25.3 62.8 25.5 62.7 25.7 C 62.6 25.9 62.2 26.0 62.1 25.9 Z M 61.9 25.0 C 61.8 24.9 61.8 24.9 62.0 24.7 C 62.2 24.6 62.3 24.6 62.2 24.9 C 62.1 25.0 62.0 25.1 61.9 25.0 Z M 59.8 27.9 C 60.1 27.5 60.2 28.2 59.7 28.5 C 59.3 28.8 59.4 28.4 59.8 27.9 Z M 57.7 24.0 C 57.7 24.0 57.7 24.4 57.6 24.4 C 57.2 24.7 57.7 24.0 57.7 24.0 Z M 63.9 20.7 C 63.9 20.7 63.9 21.0 63.8 21.0 C 63.4 21.2 63.9 20.7 63.9 20.7 Z M 63.5 18.2 C 63.5 18.4 63.3 18.4 63.4 18.3 C 63.4 18.1 63.5 18.0 63.5 18.2 Z M 59.8 26.9 C 59.8 27.2 59.5 27.2 59.6 27.0 C 59.7 26.8 59.8 26.8 59.8 26.9 Z M 59.3 28.6 C 59.3 28.7 59.1 28.8 59.2 28.7 C 59.3 28.5 59.3 28.5 59.3 28.6 Z M 61.4 26.6 C 61.2 26.5 61.0 26.5 61.4 26.3 C 61.9 26.2 62.0 26.3 62.1 26.4 C 62.2 26.5 61.7 27.0 61.5 27.0 C 61.0 26.9 61.7 26.7 61.4 26.6 Z M 59.0 23.3 C 58.8 23.4 58.8 23.1 59.0 23.1 C 59.3 23.0 59.2 23.2 59.0 23.3 Z M 59.5 29.6 C 59.8 29.4 59.9 29.4 59.7 29.6 M 61.4 20.1 C 61.2 20.4 61.7 20.1 61.4 20.4 C 61.1 20.7 60.9 20.4 61.2 20.1 C 61.5 19.9 61.6 19.9 61.4 20.1 Z M 62.8 21.7 C 62.8 21.6 63.0 21.4 63.1 21.7 C 63.2 22.1 62.4 22.1 62.5 21.9 C 62.6 21.7 62.8 21.8 62.8 21.7 Z M 56.6 26.5 C 56.7 26.7 56.3 26.8 56.4 26.6 C 56.4 26.4 56.5 26.3 56.6 26.5 Z M 59.2 25.2 C 59.2 25.3 59.0 25.4 59.1 25.2 C 59.1 25.1 59.2 25.0 59.2 25.2 Z M 64.1 21.5 C 64.1 21.7 63.9 21.7 63.9 21.5 C 64.0 21.4 64.0 21.4 64.1 21.5 Z M 61.0 28.0 C 60.8 28.7 60.4 29.0 60.5 28.1 C 60.6 27.5 61.1 27.9 61.0 28.0 Z M 61.1 22.0 C 61.1 22.2 60.9 22.2 61.0 22.0 C 61.0 21.9 61.1 21.8 61.1 22.0 Z M 61.6 23.2 C 61.9 23.0 61.9 23.5 61.3 24.0 C 60.7 24.5 60.6 23.5 61.0 23.3 C 61.6 22.8 61.3 23.3 61.6 23.2 Z M 61.1 25.9 C 61.2 26.1 60.7 26.3 60.9 26.0 C 60.9 25.8 61.0 25.7 61.1 25.9 Z M 61.9 25.3 C 61.9 25.4 61.7 25.5 61.8 25.3 C 61.8 25.3 61.8 25.2 61.9 25.3 Z M 56.6 26.0 C 56.7 26.1 56.5 26.2 56.5 26.0 C 56.6 25.9 56.6 25.9 56.6 26.0 Z M 58.7 27.1 C 58.8 27.2 58.5 27.4 58.5 27.2 C 58.6 27.1 58.7 27.0 58.7 27.1 Z M 71.5 27.6 C 71.4 27.5 71.5 27.1 71.6 27.2 C 71.8 27.3 71.5 27.8 71.5 27.6 Z M 70.8 31.3 C 70.9 31.5 70.6 32.1 70.5 31.6 C 70.5 31.2 70.8 31.2 70.8 31.3 Z M 71.2 24.2 C 71.1 24.0 71.2 23.9 71.2 24.0 C 71.3 24.1 71.2 24.3 71.2 24.2 Z M 66.6 16.8 C 66.5 16.6 66.7 16.2 66.7 15.9 C 66.7 15.9 66.7 15.9 66.7 15.9 C 66.7 16.0 66.8 16.0 66.9 16.1 C 66.9 16.1 66.8 16.2 66.8 16.2 C 66.8 16.5 66.7 17.0 66.6 16.8 Z M 66.5 15.3 C 66.6 15.1 66.7 15.6 66.7 15.9 C 66.5 15.7 66.4 15.5 66.5 15.3 Z M 70.3 34.1 C 70.4 34.2 70.1 34.5 70.1 34.3 C 70.1 34.1 70.1 34.0 70.3 34.1 Z M 70.2 31.3 C 70.2 31.2 70.4 31.3 70.3 31.4 C 70.2 31.5 70.1 31.4 70.2 31.3 Z M 71.0 18.6 C 70.9 18.5 70.8 18.5 70.9 18.3 C 71.0 18.0 71.1 18.0 71.1 18.3 C 71.2 18.5 71.1 18.6 71.0 18.6 Z M 71.5 18.2 C 71.6 18.0 71.8 18.1 71.9 18.3 C 71.9 18.5 71.6 18.8 71.5 18.7 C 71.4 18.7 71.4 18.5 71.5 18.2 Z M 72.1 19.8 C 72.2 19.9 72.1 20.1 72.0 19.9 C 72.0 19.8 71.9 19.8 72.1 19.8 Z M 70.1 13.0 C 70.2 12.7 70.4 12.9 70.4 13.0 C 70.5 13.1 70.5 13.2 70.4 13.3 C 70.3 13.4 70.1 13.3 70.1 13.0 Z M 71.8 21.1 C 72.0 21.8 71.7 22.3 71.4 21.4 C 71.1 20.9 71.7 21.0 71.8 21.1 Z M 71.3 23.3 C 71.4 22.9 71.6 22.9 71.5 23.2 C 71.5 23.5 71.8 23.0 71.7 23.5 C 71.5 23.9 71.3 23.7 71.3 23.3 Z M 70.7 21.7 C 70.7 21.2 71.2 21.7 71.0 22.2 C 70.7 22.7 70.6 22.3 70.7 21.7 Z M 70.0 21.0 C 70.0 20.8 70.1 20.7 70.2 20.8 C 70.3 21.0 70.1 21.2 70.0 21.0 Z M 70.6 22.6 C 70.6 22.4 70.6 22.4 70.7 22.5 C 70.7 22.6 70.6 22.8 70.6 22.6 Z M 70.5 14.1 C 70.6 14.2 70.5 14.3 70.4 14.2 C 70.3 14.0 70.4 14.0 70.5 14.1 Z M 66.3 24.8 C 66.4 24.9 66.3 25.1 66.3 24.9 C 66.3 24.8 66.2 24.7 66.3 24.8 Z M 69.8 13.4 C 69.8 13.4 70.0 13.7 69.9 13.8 C 69.7 14.1 69.8 13.4 69.8 13.4 Z M 67.4 22.1 C 67.6 22.2 67.3 22.5 67.2 22.3 C 67.2 22.1 67.2 22.0 67.4 22.1 Z M 67.1 21.6 C 67.2 21.7 67.1 21.9 67.1 21.8 C 67.0 21.6 67.0 21.6 67.1 21.6 Z M 70.0 28.5 C 69.9 28.4 70.0 28.2 70.1 28.4 C 70.2 28.5 70.0 28.6 70.0 28.5 Z M 68.2 34.0 C 68.1 34.3 67.1 34.6 67.0 34.4 C 66.8 34.2 66.2 33.4 66.0 33.4 C 65.8 33.5 65.9 32.8 65.9 32.6 C 65.8 32.5 66.2 32.1 66.2 32.0 C 66.3 31.9 66.2 31.4 66.2 31.4 C 66.2 31.4 66.1 31.2 66.1 30.9 C 66.1 30.5 66.4 30.2 66.5 29.7 C 66.7 29.2 66.4 29.0 66.4 28.6 C 66.3 28.1 67.0 27.7 67.1 27.3 C 67.2 26.9 66.6 26.9 66.6 26.4 C 66.5 26.0 66.7 25.7 66.8 25.8 C 66.9 26.0 67.0 25.8 67.0 25.7 C 67.0 25.5 67.2 25.0 67.1 24.8 C 67.0 24.6 66.5 26.0 66.6 24.2 C 66.5 23.3 66.7 22.0 67.1 22.9 C 67.4 23.5 68.0 22.1 67.7 22.1 C 67.4 22.1 67.4 20.5 67.0 20.9 C 66.8 21.1 66.5 19.5 66.6 19.3 C 66.7 19.1 66.5 18.4 67.0 18.1 C 67.2 18.0 67.7 16.1 67.0 16.2 C 67.0 16.2 66.9 16.1 66.9 16.1 C 66.9 15.9 67.1 15.8 67.1 15.5 C 67.2 15.2 67.1 14.8 66.9 14.8 C 66.7 14.8 66.6 15.0 66.6 15.0 C 66.5 15.0 66.4 14.8 66.4 14.7 C 66.1 14.7 65.7 14.7 65.8 14.8 C 66.0 14.8 65.4 15.2 65.3 15.2 C 65.2 15.1 64.8 15.2 64.5 15.1 C 64.2 15.1 64.3 15.2 64.4 15.4 C 64.5 15.5 64.2 15.6 63.9 15.7 C 63.6 15.8 63.4 15.9 63.2 15.8 C 62.9 15.7 63.5 15.5 63.5 15.3 C 63.4 15.1 62.6 14.9 62.5 15.0 C 62.1 15.4 60.7 15.4 60.7 15.5 C 60.8 15.7 61.1 16.0 60.5 16.2 C 58.8 16.9 60.7 15.5 60.2 15.8 C 59.0 16.4 59.4 16.1 59.0 16.3 C 58.5 16.5 58.1 16.5 58.2 16.5 C 58.4 16.6 58.1 16.7 57.7 16.7 C 57.3 16.8 58.3 17.1 58.0 17.2 C 57.8 17.2 57.8 17.4 57.6 17.6 C 57.5 17.8 57.4 17.5 57.0 17.6 C 56.5 17.7 57.0 17.9 56.7 18.2 C 56.4 18.4 57.4 17.9 57.0 18.3 C 56.5 18.7 55.8 18.8 55.6 18.8 C 55.4 18.8 56.5 18.2 56.4 18.1 C 56.4 18.0 55.9 18.2 55.9 18.1 C 55.9 18.0 55.1 18.2 54.8 18.3 C 54.5 18.4 54.5 18.9 54.8 18.9 C 55.1 18.9 54.6 19.2 54.4 19.3 C 54.1 19.4 54.2 19.5 54.0 19.6 C 53.8 19.8 53.6 20.0 53.3 20.1 C 53.0 20.2 53.3 19.9 53.2 19.9 C 53.1 19.8 52.8 20.0 52.6 20.3 C 52.3 20.7 52.4 19.6 52.1 19.8 C 51.8 20.0 51.5 20.3 51.1 20.5 C 50.7 20.7 51.0 20.8 51.1 20.8 C 51.2 20.9 50.3 21.1 50.5 21.1 C 50.7 21.1 51.0 21.5 50.8 21.6 C 50.2 21.9 50.5 21.6 50.3 21.5 C 50.0 21.4 49.3 21.9 49.3 21.7 C 49.3 21.5 49.9 21.0 49.8 20.9 C 49.7 20.9 48.8 20.9 48.9 20.8 C 48.9 20.7 49.5 19.8 49.3 19.9 C 49.1 20.0 48.3 20.0 48.3 19.7 C 48.4 19.5 49.0 19.1 48.8 19.1 C 47.8 19.1 49.5 17.6 49.6 17.5 C 49.7 17.4 49.9 18.0 50.2 17.7 C 50.4 17.5 51.0 17.5 50.8 17.7 C 50.8 17.7 50.9 17.5 51.2 17.3 C 51.4 17.1 51.7 17.1 52.1 16.9 C 52.4 16.8 52.5 16.5 52.8 16.3 C 53.1 16.0 53.6 16.3 53.9 16.2 C 54.2 16.1 54.0 15.7 54.4 15.4 C 54.8 15.2 55.0 15.1 54.9 15.3 C 54.8 15.4 55.0 15.5 55.1 15.4 C 55.2 15.3 55.7 15.2 55.8 15.0 C 55.9 14.9 54.7 15.2 56.1 14.4 C 56.8 14.1 57.5 14.2 57.3 14.3 C 56.8 14.6 58.2 14.7 58.1 14.5 C 58.0 14.3 59.4 13.7 58.9 13.5 C 58.8 13.4 60.0 12.7 60.2 12.7 C 60.4 12.7 61.0 12.3 61.4 12.6 C 61.5 12.7 62.1 11.9 62.3 11.9 C 62.4 11.8 63.6 11.4 63.9 11.4 C 64.1 11.5 63.6 11.7 63.3 11.7 C 63.1 11.8 62.7 11.8 62.5 11.9 C 62.3 12.0 62.8 12.0 63.1 11.9 C 63.4 11.9 63.6 12.1 63.9 12.0 C 64.2 11.9 64.5 11.8 64.5 11.7 C 64.4 11.5 64.2 11.5 64.2 11.4 C 64.2 11.4 64.4 11.2 64.7 11.1 C 65.1 11.0 65.4 10.9 65.9 10.9 C 66.4 10.8 66.5 10.7 66.8 10.5 C 67.1 10.4 67.5 10.4 67.5 10.4 C 67.6 10.5 67.2 10.7 67.2 10.8 C 67.2 10.9 67.5 10.8 67.7 10.8 C 67.9 10.8 68.8 10.9 69.0 10.9 C 69.0 10.9 69.0 11.1 69.1 11.3 L 69.4 11.3 C 69.5 11.5 70.7 11.9 70.7 11.7 C 70.8 11.5 70.8 11.6 71.1 11.8 C 71.3 11.9 71.1 12.1 71.0 12.2 C 70.9 12.3 71.3 12.3 71.2 12.4 C 71.1 12.5 70.7 12.5 70.9 12.7 C 71.1 12.9 71.4 13.2 71.2 13.4 C 71.0 13.5 70.8 13.1 70.7 12.9 C 70.2 12.1 70.3 12.1 70.2 12.4 C 70.0 12.7 69.9 12.7 69.8 12.8 C 69.7 12.9 69.7 13.4 69.6 13.3 L 69.6 13.4 C 69.6 13.4 69.4 13.4 69.2 13.5 C 69.2 13.5 69.2 13.5 69.2 13.6 C 69.2 13.7 69.3 14.0 69.5 14.2 C 69.7 14.3 69.9 14.1 70.1 14.1 C 70.2 14.0 70.2 14.4 70.2 14.7 C 70.3 14.9 70.4 14.8 70.6 14.6 C 70.8 14.5 70.7 14.4 70.8 14.1 C 70.9 13.8 71.0 13.9 71.1 13.9 C 71.3 14.0 71.1 14.8 71.2 14.6 C 71.2 14.5 71.7 15.2 71.6 15.3 C 71.5 15.4 71.4 15.7 71.2 16.0 C 71.1 16.2 71.3 16.2 71.5 16.2 C 71.7 16.1 71.8 16.4 71.8 16.7 C 71.8 17.0 71.9 17.3 71.6 17.5 C 71.4 17.7 71.3 17.0 71.1 17.0 C 70.8 17.0 70.3 17.7 70.4 17.9 C 70.7 18.4 70.4 20.1 70.7 20.1 C 70.9 20.1 71.4 17.9 71.4 20.4 C 71.3 21.1 69.8 20.0 69.9 20.5 C 70.0 22.0 70.3 21.3 70.4 21.9 C 70.4 22.4 70.1 22.8 70.3 22.7 C 70.4 22.6 70.3 22.9 70.2 23.3 C 70.0 23.8 71.0 22.8 70.9 23.1 C 70.8 23.3 71.0 23.4 71.2 23.6 C 71.3 23.9 70.9 23.9 70.8 24.3 C 70.6 25.0 71.2 24.4 71.4 24.8 C 71.5 25.2 71.5 24.0 71.7 24.6 C 71.9 25.2 71.5 26.0 71.4 26.2 C 71.3 26.4 70.8 24.8 70.8 25.6 C 70.8 25.8 70.5 26.0 70.3 25.9 C 70.2 25.9 70.1 27.0 70.0 27.4 C 69.9 27.8 70.7 27.5 71.0 27.2 C 71.2 26.8 71.2 27.5 71.1 27.8 C 71.0 28.2 71.2 28.0 71.3 28.3 C 71.4 28.6 71.4 28.9 71.3 29.2 C 71.1 29.6 71.0 29.3 70.9 29.4 C 70.7 29.5 70.7 30.1 71.0 30.5 C 71.2 30.9 70.3 30.1 70.3 30.5 C 70.2 30.9 69.9 31.6 69.7 32.1 C 69.6 32.6 70.0 32.3 70.1 32.2 C 70.3 32.1 69.7 33.3 69.9 33.1 C 70.1 32.8 70.8 32.5 70.8 32.7 C 70.6 33.6 70.5 33.1 70.1 33.4 C 69.7 33.7 69.5 34.8 69.3 34.7 C 69.1 34.6 69.1 33.7 69.0 33.8 C 68.8 33.9 68.5 34.6 68.4 34.6 C 68.3 34.5 68.3 33.6 68.2 34.0 Z M 51.0 18.1 C 50.7 18.1 50.4 18.3 50.5 18.2 C 50.6 18.0 50.6 18.0 50.4 18.1 C 50.1 18.2 50.4 18.3 50.5 18.4 C 50.6 18.4 51.2 18.1 51.0 18.1 Z M 53.8 18.5 C 53.4 18.6 52.9 19.5 53.0 19.7 C 53.1 19.9 53.5 19.6 53.8 19.5 C 54.1 19.4 54.1 18.4 53.8 18.5 Z M 52.7 17.1 C 52.4 17.2 52.3 17.5 52.6 17.4 C 53.0 17.3 52.6 17.3 52.8 17.2 C 53.0 17.1 53.0 17.0 52.7 17.1 Z M 53.0 16.4 C 52.8 16.4 52.7 16.6 52.8 16.6 C 52.9 16.6 53.2 16.4 53.0 16.4 Z M 56.8 17.4 C 56.5 17.4 56.2 17.6 56.3 17.4 C 56.4 17.3 56.3 17.3 56.1 17.4 C 55.9 17.4 56.1 17.6 56.3 17.6 C 56.4 17.7 57.1 17.5 56.8 17.4 Z M 55.0 15.7 C 55.0 15.8 55.3 15.7 55.2 15.6 C 55.2 15.5 55.1 15.6 55.0 15.7 Z M 56.7 16.6 C 56.4 16.8 56.9 16.8 56.9 16.7 C 57.0 16.6 56.9 16.4 56.7 16.6 Z M 58.1 15.6 C 57.7 15.9 57.8 15.9 57.9 16.0 C 58.0 16.0 57.7 16.4 58.1 16.1 C 58.5 15.8 59.0 16.0 59.2 15.6 C 59.4 15.1 58.6 15.4 58.1 15.6 Z M 59.6 15.8 C 59.5 15.9 59.7 16.0 59.8 15.8 C 59.9 15.7 59.8 15.7 59.6 15.8 Z M 60.4 14.3 C 60.2 14.4 60.4 14.5 60.5 14.4 C 60.5 14.3 60.5 14.2 60.4 14.3 Z M 59.9 13.2 C 59.9 13.1 60.2 13.0 60.2 13.0 C 60.2 13.0 59.5 13.2 59.9 13.2 Z M 63.9 15.1 C 64.7 15.0 65.0 14.8 64.6 14.7 C 64.3 14.7 64.8 14.5 64.1 14.5 C 63.7 14.5 63.1 15.2 63.9 15.1 Z M 61.6 12.9 C 61.5 12.8 61.3 13.0 61.5 13.0 C 61.7 13.0 61.9 12.9 61.6 12.9 Z M 63.5 13.8 C 63.1 13.7 63.2 13.8 63.3 14.0 C 63.5 14.1 62.8 14.0 63.1 14.3 C 63.3 14.4 63.9 14.3 63.9 14.1 C 63.9 14.0 63.9 13.9 63.5 13.8 Z M 68.3 16.1 C 68.3 16.2 68.5 16.2 68.4 16.0 C 68.3 15.9 68.2 16.0 68.3 16.1 Z M 63.7 13.0 C 63.5 13.1 63.6 13.2 63.8 13.1 C 63.9 13.0 63.7 12.9 63.7 13.0 Z M 65.2 13.7 C 65.1 13.8 65.1 13.6 64.8 13.7 C 64.7 13.7 65.3 14.1 65.4 13.8 C 65.5 13.6 65.3 13.6 65.2 13.7 Z M 65.9 13.4 C 65.8 13.6 66.0 13.8 66.1 13.9 C 66.2 13.9 65.8 14.0 65.5 14.1 C 65.3 14.2 65.4 14.3 65.7 14.4 C 65.9 14.5 66.0 14.4 66.3 14.4 C 66.3 14.4 66.3 14.4 66.3 14.4 C 66.3 14.1 66.3 13.9 66.3 13.7 C 66.2 13.7 66.2 13.6 66.3 13.6 C 66.3 13.5 66.3 13.4 66.3 13.2 C 66.3 13.2 66.4 13.1 66.4 13.1 C 66.2 13.1 65.9 13.3 65.9 13.4 Z M 67.7 14.5 C 67.7 14.2 67.6 14.4 67.5 14.4 C 67.5 14.4 67.4 14.5 67.3 14.5 C 67.3 14.8 67.6 14.9 67.7 14.5 Z M 65.0 11.9 C 64.7 11.9 64.6 12.2 65.0 12.2 C 65.4 12.2 64.9 12.0 65.2 12.0 C 65.5 11.9 65.4 11.8 65.0 11.9 Z M 69.9 14.7 C 69.6 14.5 69.5 14.8 69.6 14.9 C 69.7 15.0 69.4 14.9 69.5 15.2 C 69.5 15.4 70.1 14.9 69.9 14.7 Z M 71.0 16.6 C 71.2 15.8 70.9 15.4 70.8 15.7 C 70.6 16.0 70.5 15.5 70.3 16.1 C 70.1 16.6 70.8 17.3 71.0 16.6 Z M 69.6 17.0 C 69.8 16.9 69.9 16.3 69.8 16.2 C 69.6 16.2 69.5 16.1 69.2 16.5 C 68.9 16.8 69.1 16.8 69.4 16.7 C 69.6 16.6 69.2 17.2 69.6 17.0 Z M 67.5 18.2 C 67.6 18.0 67.6 17.8 67.4 18.0 C 67.3 18.1 67.4 18.4 67.5 18.2 Z M 68.7 19.7 C 68.6 19.6 68.6 19.6 68.6 19.7 C 68.7 19.9 68.8 19.8 68.7 19.7 Z M 68.1 18.0 C 68.1 18.0 67.6 19.0 68.0 19.1 C 68.1 19.1 68.1 18.0 68.1 18.0 Z M 69.4 22.8 C 69.4 22.7 69.8 23.2 69.6 22.7 C 69.4 22.2 69.9 21.7 69.6 21.4 C 69.1 21.0 69.0 22.0 69.1 22.5 C 69.1 23.1 69.3 22.9 69.4 22.8 Z M 69.4 24.3 C 69.5 24.7 69.7 24.2 69.7 24.1 C 69.6 24.0 69.3 24.1 69.4 24.3 Z M 70.4 25.1 C 70.6 25.0 70.7 24.2 70.5 24.5 C 70.3 24.8 70.3 25.2 70.2 25.0 C 70.1 24.9 70.1 25.0 70.0 25.2 C 69.9 25.5 70.3 25.3 70.4 25.1 Z M 67.3 25.6 C 67.2 25.6 67.2 25.7 67.3 25.8 C 67.4 25.9 67.4 25.6 67.3 25.6 Z M 70.4 29.5 C 70.8 29.5 70.7 28.9 70.9 28.5 C 71.0 28.2 69.8 27.8 69.7 28.2 C 69.5 28.7 70.1 29.6 70.4 29.5 Z M 66.6 28.4 C 66.5 28.6 66.6 28.8 66.7 28.7 C 66.8 28.6 66.7 28.2 66.6 28.4 Z M 67.5 29.2 C 67.6 28.8 67.3 29.2 67.4 28.9 C 67.4 28.6 67.3 28.7 67.2 29.0 C 67.1 29.4 67.4 29.6 67.5 29.2 Z M 66.7 32.1 C 66.9 31.9 67.1 31.1 66.9 31.4 C 66.7 31.7 66.6 32.1 66.5 32.0 C 66.4 31.8 66.4 31.9 66.3 32.1 C 66.2 32.5 66.6 32.2 66.7 32.1 Z M 70.6 28.8 C 70.7 29.1 70.4 29.3 70.4 29.1 C 70.4 28.8 70.5 28.6 70.6 28.8 Z M 69.4 21.5 C 69.5 21.6 69.3 21.9 69.3 21.7 C 69.3 21.6 69.3 21.5 69.4 21.5 Z M 58.4 16.8 C 58.5 16.7 58.6 16.7 58.5 16.8 C 58.4 16.9 58.2 16.8 58.4 16.8 Z M 62.5 16.2 C 62.3 16.3 62.0 16.1 62.0 16.1 C 62.0 16.0 62.2 15.9 62.4 15.9 C 62.7 15.9 62.7 16.1 62.5 16.2 Z M 62.1 15.6 C 62.2 15.5 62.2 15.5 62.2 15.6 C 62.1 15.7 61.9 15.7 62.1 15.6 Z M 61.1 15.6 C 61.3 15.5 61.3 15.5 61.3 15.7 C 61.2 15.8 60.8 15.8 61.1 15.6 Z M 62.6 15.3 C 62.9 15.3 62.9 15.3 62.7 15.4 C 62.5 15.5 62.4 15.5 62.4 15.4 C 62.4 15.3 62.4 15.3 62.6 15.3 Z M 55.6 14.5 C 55.6 14.6 55.4 14.6 55.5 14.5 C 55.6 14.5 55.6 14.4 55.6 14.5 Z M 58.3 13.9 C 58.3 14.0 58.1 14.0 58.2 13.9 C 58.3 13.8 58.4 13.7 58.3 13.9 Z M 48.2 20.3 C 48.2 20.4 47.8 20.5 47.8 20.4 C 47.9 20.3 48.3 20.2 48.2 20.3 Z M 49.1 21.2 C 49.1 21.4 48.8 21.4 49.0 21.3 C 49.1 21.1 49.2 21.1 49.1 21.2 Z M 66.2 14.1 C 66.1 14.3 65.9 14.2 66.1 14.1 C 66.2 14.0 66.3 14.0 66.2 14.1 Z M 58.0 14.2 C 58.0 14.4 57.7 14.3 57.8 14.2 C 58.0 14.1 58.1 14.0 58.0 14.2 Z M 59.6 16.9 C 60.0 16.5 60.0 17.0 59.9 17.1 C 59.3 17.4 58.9 17.4 59.6 16.9 Z M 57.2 17.7 C 57.4 17.7 57.4 17.7 57.4 17.7 C 57.3 17.8 57.1 17.8 57.2 17.7 Z M 59.0 15.5 C 59.0 15.6 58.7 15.6 58.8 15.5 C 58.9 15.4 59.0 15.4 59.0 15.5 Z M 57.9 17.5 C 58.3 17.5 58.4 17.5 58.1 17.6 C 57.8 17.7 58.3 17.8 57.9 17.8 C 57.5 17.9 57.6 17.6 57.9 17.5 Z M 58.8 16.9 C 58.3 16.9 58.7 16.6 59.2 16.5 C 59.6 16.3 59.3 16.9 58.8 16.9 Z M 69.0 10.9 C 69.0 10.9 69.0 10.9 69.0 10.9 C 69.0 10.9 69.0 10.9 69.0 10.9 Z M 51.6 20.7 C 51.8 20.5 51.9 20.7 51.8 20.8 C 51.7 20.9 51.2 21.1 51.6 20.7 Z M 53.8 18.9 C 53.7 19.0 53.6 18.9 53.6 18.9 C 53.7 18.8 53.8 18.7 53.8 18.9 Z M 53.5 19.4 C 53.4 19.6 53.1 19.5 53.3 19.4 C 53.5 19.3 53.6 19.3 53.5 19.4 Z M 51.6 20.5 C 51.6 20.5 51.6 20.4 51.7 20.4 C 51.8 20.4 51.7 20.5 51.6 20.5 Z M 55.5 18.3 C 56.0 18.1 55.6 18.7 55.1 18.7 C 54.7 18.7 55.0 18.5 55.5 18.3 Z M 55.5 18.3 " fill="#838786"></path></g></svg>