<?xml version="1.0" encoding="UTF-8" standalone="no"?><svg xmlns="http://www.w3.org/2000/svg" xmlns:xlink="http://www.w3.org/1999/xlink" clip-rule="evenodd" stroke-miterlimit="4.00" viewBox="0 0 154 109"><desc>SVG generated by Keynote</desc><defs></defs><g transform="matrix(1.00, 0.00, -0.00, -1.00, 0.0, 109.0)"><path d="M 37.7 103.0 C 37.4 103.1 36.7 102.9 36.5 103.1 M 37.7 103.0 C 37.0 101.9 35.6 101.8 33.9 101.6 C 32.0 101.6 33.9 102.6 33.7 103.1 C 31.2 103.5 31.2 102.7 31.6 101.5 C 30.6 102.3 27.8 100.9 28.4 102.4 C 32.4 102.4 25.6 102.7 28.9 103.6 C 29.3 103.8 28.3 104.2 27.9 104.2 C 29.0 104.8 27.1 105.6 28.9 106.0 C 29.2 106.9 28.9 106.5 30.0 107.3 C 30.5 107.4 30.3 107.0 30.2 106.8 C 30.4 105.7 31.6 107.4 32.5 106.7 C 33.4 108.2 34.3 106.5 33.5 105.9 C 34.4 106.1 35.4 107.5 36.2 106.5 C 36.7 107.2 39.0 106.8 37.6 105.9 C 36.6 105.3 37.7 104.9 37.9 104.5 C 37.6 104.2 36.2 104.7 36.0 104.4 C 36.4 104.2 38.2 103.6 36.3 103.7 C 36.9 103.2 35.9 102.9 37.7 103.0 C 37.7 103.0 37.7 103.0 37.7 103.0 Z M 30.9 102.2 C 30.9 101.8 31.5 102.2 30.9 102.2 C 30.9 102.2 30.9 102.2 30.9 102.2 Z M 35.5 107.2 C 35.5 106.9 36.1 107.3 35.5 107.2 C 35.5 107.2 35.5 107.2 35.5 107.2 Z M 30.6 106.8 C 30.5 106.5 31.2 106.9 30.6 106.8 C 30.6 106.8 30.6 106.8 30.6 106.8 Z M 32.7 102.4 C 33.7 102.7 31.8 102.9 31.6 102.6 C 31.8 102.6 32.4 102.1 32.7 102.4 C 32.7 102.4 32.7 102.4 32.7 102.4 Z M 32.8 104.6 C 32.9 104.5 33.3 104.4 33.3 104.8 C 33.0 104.9 32.7 104.7 32.8 104.6 C 32.8 104.6 32.8 104.6 32.8 104.6 Z M 27.5 103.0 C 27.6 102.9 28.0 102.9 28.0 103.2 C 27.7 103.3 27.4 103.2 27.5 103.0 C 27.5 103.0 27.5 103.0 27.5 103.0 Z M 33.9 103.4 C 34.1 103.5 34.2 103.8 33.9 103.9 C 33.8 103.7 33.0 103.6 33.9 103.4 C 33.9 103.4 33.9 103.4 33.9 103.4 Z M 35.5 102.1 C 36.4 102.3 34.6 102.9 34.6 102.7 C 34.4 102.5 35.0 101.8 35.5 102.1 C 35.5 102.1 35.5 102.1 35.5 102.1 Z M 34.4 103.9 C 35.1 104.1 34.1 104.2 34.4 103.9 C 34.4 103.9 34.4 103.9 34.4 103.9 Z M 28.2 105.9 C 29.0 106.0 27.9 106.1 28.2 105.9 C 28.2 105.9 28.2 105.9 28.2 105.9 Z M 32.1 107.0 C 32.9 107.2 31.8 107.3 32.1 107.0 C 32.1 107.0 32.1 107.0 32.1 107.0 Z M 30.7 103.2 C 29.4 103.1 30.5 102.2 30.7 103.2 C 30.7 103.2 30.7 103.2 30.7 103.2 Z M 37.6 102.0 C 36.3 102.0 37.4 101.1 37.6 102.0 C 37.6 102.0 37.6 102.0 37.6 102.0 Z M 25.1 102.4 C 26.6 102.2 21.1 100.9 23.1 102.4 C 23.6 103.7 20.3 103.5 21.1 102.4 C 20.2 102.2 20.2 102.1 19.7 102.7 C 19.7 101.8 17.9 101.1 17.3 101.5 C 16.9 102.2 18.4 101.8 17.4 102.5 C 15.2 102.4 17.4 103.4 16.4 104.2 C 16.3 104.2 16.3 103.7 16.1 103.9 C 15.8 104.9 17.1 105.7 16.3 106.3 C 16.7 106.2 18.4 107.5 17.7 106.6 C 17.6 105.7 19.8 107.8 19.7 106.4 C 20.3 107.1 21.0 106.2 21.7 107.0 C 22.2 107.2 22.2 106.4 22.1 106.2 C 22.1 105.5 22.8 107.8 23.7 106.6 C 23.8 106.9 26.6 106.8 24.5 106.2 C 25.1 106.4 28.6 106.7 26.7 105.4 C 24.2 104.7 29.2 104.0 26.4 103.9 C 24.2 103.8 23.8 104.0 25.4 103.4 C 25.9 103.4 28.4 103.3 26.3 102.7 C 25.8 102.9 24.8 102.8 25.1 102.4 C 25.1 102.4 25.1 102.4 25.1 102.4 Z M 25.5 104.3 C 24.3 104.4 25.4 103.8 25.5 104.3 C 25.5 104.3 25.5 104.3 25.5 104.3 Z M 21.5 107.3 C 20.5 107.3 21.5 106.8 21.5 107.3 C 21.5 107.3 21.5 107.3 21.5 107.3 Z M 21.8 102.0 C 21.3 102.4 21.2 101.0 21.8 102.0 C 21.8 102.0 21.8 102.0 21.8 102.0 Z M 23.3 106.2 C 23.2 106.2 23.5 106.1 23.7 106.0 C 23.6 106.0 23.4 106.2 23.3 106.2 C 23.3 106.2 23.3 106.2 23.3 106.2 Z M 20.3 102.0 C 19.0 102.6 20.1 100.9 20.3 102.0 C 20.3 102.0 20.3 102.0 20.3 102.0 Z M 17.8 103.1 C 17.5 104.4 16.7 102.7 17.8 103.1 C 17.8 103.1 17.8 103.1 17.8 103.1 Z M 19.2 106.2 C 19.5 106.0 19.4 106.4 19.2 106.2 C 19.2 106.2 19.2 106.2 19.2 106.2 Z M 26.0 106.6 C 26.3 106.3 26.3 106.7 26.0 106.6 C 26.0 106.6 26.0 106.6 26.0 106.6 Z M 17.6 106.0 C 17.8 105.5 18.1 106.3 17.6 106.0 C 17.6 106.0 17.6 106.0 17.6 106.0 Z M 21.5 102.6 C 22.8 101.5 23.0 104.2 21.5 102.6 C 21.5 102.6 21.5 102.6 21.5 102.6 Z M 24.0 102.5 C 25.0 102.3 23.8 103.2 23.4 103.0 C 23.4 102.9 23.8 102.6 24.0 102.5 C 24.0 102.5 24.0 102.5 24.0 102.5 Z M 20.2 102.6 C 21.0 102.1 20.9 103.0 20.2 102.6 C 20.2 102.6 20.2 102.6 20.2 102.6 Z M 22.4 102.1 C 22.9 102.2 22.0 102.2 22.4 102.1 C 22.4 102.1 22.4 102.1 22.4 102.1 Z M 18.8 101.4 C 19.2 101.6 18.5 101.5 18.8 101.4 C 18.8 101.4 18.8 101.4 18.8 101.4 Z M 25.3 101.9 C 25.9 102.1 24.9 102.1 25.3 101.9 C 25.3 101.9 25.3 101.9 25.3 101.9 Z M 19.1 102.2 C 18.9 102.6 19.7 103.8 18.1 102.7 C 17.8 102.3 18.6 101.7 19.1 102.2 C 19.1 102.2 19.1 102.2 19.1 102.2 Z M 41.5 103.0 C 36.0 101.5 37.3 104.2 37.1 104.7 C 36.4 105.4 37.1 105.9 38.2 106.4 C 39.3 108.1 39.9 104.6 40.7 106.3 C 42.2 108.6 42.4 104.3 43.0 106.7 C 42.8 107.3 44.9 106.8 44.7 106.7 C 45.8 107.8 47.3 105.8 47.3 105.6 C 48.1 105.9 48.1 108.0 50.4 106.4 C 52.0 105.9 52.8 108.0 52.3 106.5 C 53.6 108.2 53.2 106.1 54.5 106.6 C 55.3 107.5 54.5 105.2 56.1 106.9 C 56.7 105.6 55.3 107.9 59.6 106.9 C 57.5 106.7 61.5 105.8 60.7 106.7 C 59.3 107.7 62.7 106.3 64.6 106.9 C 65.2 106.4 67.5 105.2 67.1 106.5 C 69.1 108.1 69.1 105.6 69.9 106.9 C 70.6 107.4 70.9 106.2 71.3 106.3 C 72.0 107.3 72.6 106.6 75.1 106.9 C 80.5 107.4 75.9 104.4 78.0 104.1 C 78.3 103.6 75.3 100.4 76.5 102.8 C 76.1 102.2 71.7 104.7 73.9 102.0 C 72.2 103.1 74.3 100.9 70.9 102.2 C 75.5 104.1 65.6 102.9 70.1 102.0 C 69.3 101.5 67.5 101.6 68.8 102.0 C 69.3 103.7 65.6 101.3 67.5 103.3 C 64.6 102.8 65.4 104.6 64.6 103.3 C 63.9 101.1 64.7 103.9 63.3 103.2 C 59.9 103.2 62.5 100.7 60.5 102.4 C 57.2 101.3 59.8 103.3 58.6 103.6 C 58.3 105.2 55.3 102.4 57.8 102.2 C 56.5 103.1 57.5 101.5 56.0 102.5 C 57.1 103.9 54.1 101.0 54.6 102.1 C 53.2 102.5 53.9 103.3 53.5 103.4 C 51.5 103.4 52.1 102.0 51.7 103.0 C 51.2 103.6 50.3 101.7 50.0 102.2 C 52.1 102.3 48.3 103.7 48.1 102.9 C 49.4 102.8 47.5 101.1 46.6 102.2 C 47.7 105.3 44.9 101.4 43.9 102.5 C 44.8 104.2 39.4 102.7 41.5 101.9 C 41.3 102.0 41.5 103.0 41.5 103.0 M 49.4 102.5 C 51.1 102.6 47.6 102.8 49.4 102.5 M 49.4 102.0 C 50.1 102.6 47.8 101.6 49.4 101.8 C 49.5 101.8 49.2 102.0 49.4 102.0 M 56.4 101.9 C 56.2 102.4 55.4 101.7 56.4 101.9 M 57.7 103.0 C 58.8 103.5 56.2 103.1 57.7 103.0 M 73.2 102.7 C 71.6 105.2 71.6 101.2 73.2 102.7 M 63.0 102.1 C 61.1 102.5 63.6 101.1 63.0 102.1 M 62.4 102.8 C 61.5 103.2 62.2 102.2 62.4 102.8 M 70.3 102.7 C 70.4 102.7 70.4 102.7 70.3 102.7 C 70.3 102.7 70.3 102.7 70.3 102.7 Z M 74.9 102.7 C 74.9 102.7 74.9 102.7 74.9 102.7 C 74.9 102.7 74.9 102.7 74.9 102.7 Z M 65.8 102.9 C 64.4 102.3 68.1 102.7 65.8 102.9 C 65.8 102.9 65.8 102.9 65.8 102.9 Z M 72.7 106.6 C 72.6 106.7 72.6 106.7 72.7 106.6 C 72.7 106.6 72.7 106.6 72.7 106.6 Z M 48.1 103.6 C 48.0 103.7 48.0 103.7 48.1 103.6 C 48.1 103.6 48.1 103.6 48.1 103.6 Z M 42.9 102.7 C 42.9 103.0 41.9 102.4 42.9 102.7 C 42.9 102.7 42.9 102.7 42.9 102.7 Z M 38.6 105.6 C 38.6 105.6 38.6 105.6 38.6 105.6 C 38.6 105.6 38.6 105.6 38.6 105.6 Z M 46.3 105.0 C 46.3 105.0 46.3 105.0 46.3 105.0 C 46.3 105.0 46.3 105.0 46.3 105.0 Z M 47.1 103.1 C 46.2 101.7 49.1 103.4 47.1 103.1 C 47.1 103.1 47.1 103.1 47.1 103.1 Z M 64.0 106.5 C 64.1 105.9 65.3 106.7 64.0 106.5 C 64.0 106.5 64.0 106.5 64.0 106.5 Z M 57.9 103.6 C 58.1 103.2 58.7 103.7 57.9 103.6 C 57.9 103.6 57.9 103.6 57.9 103.6 Z M 55.0 101.7 C 55.3 101.3 55.8 101.8 55.0 101.7 C 55.0 101.7 55.0 101.7 55.0 101.7 Z M 42.9 102.3 C 43.1 102.2 43.1 102.2 42.9 102.3 C 42.9 102.3 42.9 102.3 42.9 102.3 Z M 44.8 103.3 C 43.5 102.0 46.8 104.0 44.8 103.3 C 44.8 103.3 44.8 103.3 44.8 103.3 Z M 42.6 103.7 C 43.3 104.2 40.9 103.5 42.6 103.7 M 43.9 105.7 C 45.4 105.2 42.4 108.1 43.9 105.7 C 43.9 105.7 43.9 105.7 43.9 105.7 Z M 51.9 106.3 C 52.0 106.3 52.0 106.3 51.9 106.3 C 51.9 106.3 51.9 106.3 51.9 106.3 Z M 51.1 102.4 C 52.5 102.4 50.2 102.7 51.1 102.4 C 51.1 102.4 51.1 102.4 51.1 102.4 Z M 38.9 102.1 C 40.3 102.2 38.0 102.4 38.9 102.1 C 38.9 102.1 38.9 102.1 38.9 102.1 Z M 56.6 105.0 C 58.9 104.8 55.2 105.7 56.6 105.0 C 56.6 105.0 56.6 105.0 56.6 105.0 Z M 65.0 103.4 C 65.1 103.5 65.1 103.5 65.0 103.4 C 65.0 103.4 65.0 103.4 65.0 103.4 Z M 66.6 102.9 C 66.6 102.9 66.6 102.9 66.6 102.9 C 66.6 102.9 66.6 102.9 66.6 102.9 Z M 73.1 104.3 C 73.2 104.3 73.2 104.3 73.1 104.3 C 73.1 104.3 73.1 104.3 73.1 104.3 Z M 68.0 102.3 C 68.0 102.3 68.0 102.3 68.0 102.3 C 68.0 102.3 68.0 102.3 68.0 102.3 Z M 72.5 102.6 C 72.6 102.7 72.6 102.7 72.5 102.6 C 72.5 102.6 72.5 102.6 72.5 102.6 Z M 71.9 101.5 C 72.0 101.5 72.0 101.5 71.9 101.5 C 71.9 101.5 71.9 101.5 71.9 101.5 Z M 61.8 107.2 C 61.9 107.3 61.9 107.3 61.8 107.2 C 61.8 107.2 61.8 107.2 61.8 107.2 Z M 45.4 101.8 C 45.5 101.9 45.5 101.9 45.4 101.8 C 45.4 101.8 45.4 101.8 45.4 101.8 Z M 72.1 103.1 C 72.2 103.2 72.2 103.2 72.1 103.1 C 72.1 103.1 72.1 103.1 72.1 103.1 Z M 61.1 104.2 C 61.2 105.3 60.2 102.7 61.4 104.1 C 61.4 104.2 61.1 104.0 61.1 104.2 M 62.6 106.0 C 62.5 106.1 62.5 106.1 62.6 106.0 C 62.6 106.0 62.6 106.0 62.6 106.0 Z M 57.6 106.7 C 57.6 106.8 57.6 106.8 57.6 106.7 C 57.6 106.7 57.6 106.7 57.6 106.7 Z M 67.2 102.0 C 67.0 101.4 68.4 102.5 67.0 102.1 M 73.1 106.2 C 72.9 105.6 74.4 106.7 72.9 106.3 M 37.4 102.5 C 37.2 103.0 36.4 102.3 37.4 102.5 M 56.5 107.3 C 56.3 107.8 55.6 107.1 56.5 107.3 M 58.8 105.9 C 58.6 105.3 60.1 106.4 58.6 105.9 M 69.7 106.2 C 69.8 106.2 69.8 106.2 69.7 106.2 C 69.7 106.2 69.7 106.2 69.7 106.2 Z M 53.2 102.5 C 53.3 102.5 53.3 102.5 53.2 102.5 C 53.2 102.5 53.2 102.5 53.2 102.5 Z M 59.3 103.9 C 58.5 103.0 60.4 104.4 59.3 103.9 M 51.4 104.0 C 50.2 103.0 53.4 104.4 51.4 104.0 M 75.7 106.5 C 74.4 105.2 76.7 107.2 75.7 106.5 M 69.0 103.3 C 67.7 102.0 70.0 104.0 69.0 103.3 M 54.4 103.1 C 54.4 102.4 55.8 103.5 54.4 103.1 M 40.5 102.4 C 39.2 102.3 42.2 101.9 40.5 102.4 M 66.4 106.2 C 66.5 106.3 66.5 106.3 66.4 106.2 C 66.4 106.2 66.4 106.2 66.4 106.2 Z M 44.7 107.4 C 44.8 107.4 44.8 107.4 44.7 107.4 C 44.7 107.4 44.7 107.4 44.7 107.4 Z M 77.5 102.3 C 77.5 102.3 77.5 102.3 77.5 102.3 C 77.5 102.3 77.5 102.3 77.5 102.3 Z M 68.2 103.9 C 68.2 103.9 68.2 103.9 68.2 103.9 C 68.2 103.9 68.2 103.9 68.2 103.9 Z M 74.9 102.1 C 74.9 102.2 74.9 102.2 74.9 102.1 C 74.9 102.1 74.9 102.1 74.9 102.1 Z M 64.0 104.9 C 64.0 104.9 64.0 104.9 64.0 104.9 C 64.0 104.9 64.0 104.9 64.0 104.9 Z M 63.1 101.6 C 63.2 101.6 63.2 101.6 63.1 101.6 C 63.1 101.6 63.1 101.6 63.1 101.6 Z M 58.5 103.0 C 58.5 103.0 58.5 103.0 58.5 103.0 C 58.5 103.0 58.5 103.0 58.5 103.0 Z M 65.2 101.8 C 68.0 101.6 63.8 102.9 65.2 101.8 C 65.2 101.8 65.2 101.8 65.2 101.8 Z M 60.5 105.1 C 60.5 105.1 60.5 105.1 60.5 105.1 C 60.5 105.1 60.5 105.1 60.5 105.1 Z M 60.1 102.8 C 61.8 101.8 61.0 104.4 60.1 102.8 M 52.4 102.0 C 52.9 101.5 52.7 102.8 52.4 102.0 M 49.3 106.3 C 49.3 106.4 49.3 106.4 49.3 106.3 C 49.3 106.3 49.3 106.3 49.3 106.3 Z M 50.1 106.0 C 50.2 106.0 50.2 106.0 50.1 106.0 C 50.1 106.0 50.1 106.0 50.1 106.0 Z M 50.5 101.8 C 50.6 101.8 50.6 101.8 50.5 101.8 C 50.5 101.8 50.5 101.8 50.5 101.8 Z M 50.3 107.2 C 50.4 107.3 50.4 107.3 50.3 107.2 C 50.3 107.2 50.3 107.2 50.3 107.2 Z M 62.1 101.6 C 62.1 101.7 62.1 101.7 62.1 101.6 C 62.1 101.6 62.1 101.6 62.1 101.6 Z M 76.2 101.6 C 76.2 101.6 76.2 101.6 76.2 101.6 C 76.2 101.6 76.2 101.6 76.2 101.6 Z M 40.9 105.9 C 41.0 105.9 41.0 105.9 40.9 105.9 C 40.9 105.9 40.9 105.9 40.9 105.9 Z M 63.5 103.0 C 63.6 103.0 63.6 103.0 63.5 103.0 C 63.5 103.0 63.5 103.0 63.5 103.0 Z M 47.3 106.1 C 47.4 106.2 47.4 106.2 47.3 106.1 C 47.3 106.1 47.3 106.1 47.3 106.1 Z M 62.6 102.7 C 62.7 102.7 62.7 102.7 62.6 102.7 C 62.6 102.7 62.6 102.7 62.6 102.7 Z M 66.0 106.5 C 66.0 106.5 66.0 106.5 66.0 106.5 C 66.0 106.5 66.0 106.5 66.0 106.5 Z M 69.0 107.3 C 69.0 107.3 69.0 107.3 69.0 107.3 C 69.0 107.3 69.0 107.3 69.0 107.3 Z M 65.7 104.2 C 65.8 104.2 65.8 104.2 65.7 104.2 C 65.7 104.2 65.7 104.2 65.7 104.2 Z M 46.4 104.7 C 40.8 103.6 50.8 104.2 46.4 104.7 M 66.7 104.5 C 62.8 104.2 69.8 103.2 66.7 104.5 C 67.1 104.1 66.7 104.4 66.7 104.5 M 78.8 101.7 C 77.2 102.9 77.2 104.1 77.9 105.3 C 78.7 106.0 78.7 103.5 78.7 105.6 C 76.9 106.0 79.5 108.7 79.5 106.0 C 81.9 105.7 79.9 107.7 81.3 106.7 C 83.9 106.4 82.5 107.2 84.5 107.0 C 85.7 105.6 85.7 107.7 86.2 106.4 C 85.2 107.9 88.3 106.0 88.4 106.6 C 86.5 107.6 95.2 106.6 90.5 106.2 C 92.4 105.5 92.0 106.8 92.7 106.9 C 93.5 106.1 95.8 107.6 97.0 106.8 C 96.8 106.6 96.2 106.5 96.0 106.2 C 95.7 105.6 97.4 106.3 97.2 106.3 C 98.0 106.0 101.1 105.1 97.8 106.6 C 97.6 107.3 100.4 106.3 100.3 106.9 C 103.2 107.0 101.1 105.5 102.3 106.6 C 104.4 106.6 105.8 106.6 105.8 106.4 C 107.1 106.6 107.3 107.4 108.5 106.6 C 111.0 108.2 110.2 103.6 111.2 106.7 C 111.9 106.0 112.6 108.0 112.5 106.1 C 111.6 106.9 116.8 107.6 114.5 106.2 C 115.1 105.7 118.3 108.1 117.9 106.2 C 119.0 104.8 118.8 103.4 116.3 102.0 C 116.6 103.1 113.7 100.9 115.5 102.8 C 117.7 103.4 111.6 103.4 112.9 102.8 C 113.2 100.5 109.9 104.2 108.6 102.5 C 109.7 103.4 104.7 103.9 106.1 102.2 C 105.2 102.1 105.0 102.9 104.0 101.9 C 107.0 102.0 102.8 103.7 103.0 102.6 C 103.5 102.0 99.1 101.5 99.5 102.4 C 101.1 104.8 98.4 101.9 97.6 102.9 C 95.2 103.4 98.0 100.9 96.2 102.6 C 95.7 102.3 92.4 102.3 94.5 101.8 C 95.3 102.0 92.6 104.4 92.2 102.4 C 95.7 101.3 88.2 101.8 89.4 102.4 C 94.8 103.5 83.7 103.6 87.9 102.5 C 85.5 101.4 88.6 102.1 85.6 102.6 C 86.0 103.2 83.7 103.8 84.3 102.5 C 83.8 100.6 83.5 105.1 81.6 102.5 C 81.4 101.4 78.0 103.3 79.3 102.1 C 79.4 101.9 78.9 101.7 78.8 101.7 M 79.9 101.9 C 79.5 102.4 79.2 101.4 79.9 101.9 M 79.5 102.3 C 79.4 102.3 79.4 102.3 79.5 102.3 C 79.5 102.3 79.5 102.3 79.5 102.3 Z M 85.2 102.6 C 85.2 102.6 85.2 102.6 85.2 102.6 C 85.2 102.6 85.2 102.6 85.2 102.6 Z M 89.7 107.4 C 89.7 107.3 89.7 107.3 89.7 107.4 C 89.7 107.4 89.7 107.4 89.7 107.4 Z M 89.0 102.7 C 89.0 102.7 89.0 102.7 89.0 102.7 C 89.0 102.7 89.0 102.7 89.0 102.7 Z M 83.2 102.9 C 83.1 102.9 83.1 102.9 83.2 102.9 C 83.2 102.9 83.2 102.9 83.2 102.9 Z M 88.7 102.0 C 89.0 102.8 87.3 101.5 88.7 101.9 C 88.8 102.0 88.5 102.0 88.7 102.0 M 93.6 101.8 C 93.7 101.9 93.7 101.9 93.6 101.8 M 104.6 107.3 C 104.7 107.4 104.7 107.4 104.6 107.3 M 105.5 101.7 C 105.7 101.8 105.7 101.8 105.5 101.7 M 98.6 102.5 C 100.1 102.4 99.0 102.8 98.6 102.5 M 109.6 102.1 C 107.7 101.7 111.6 101.7 109.6 102.1 M 111.4 101.7 C 111.6 101.8 111.6 101.8 111.4 101.7 M 102.8 102.0 C 102.7 102.0 102.7 102.0 102.8 102.0 C 102.8 102.0 102.8 102.0 102.8 102.0 Z M 98.0 102.2 C 96.0 101.8 100.0 101.5 98.0 102.2 M 85.9 102.0 C 87.0 101.6 85.9 102.9 85.9 102.0 M 83.6 102.4 C 83.6 102.4 83.6 102.4 83.6 102.4 C 83.6 102.4 83.6 102.4 83.6 102.4 Z M 106.5 102.1 C 106.4 102.1 106.4 102.1 106.5 102.1 C 106.5 102.1 106.5 102.1 106.5 102.1 Z M 108.7 101.9 C 108.6 102.0 108.6 102.0 108.7 101.9 C 108.7 101.9 108.7 101.9 108.7 101.9 Z M 112.4 107.2 C 112.3 107.2 112.3 107.2 112.4 107.2 C 112.4 107.2 112.4 107.2 112.4 107.2 Z M 85.3 104.5 C 83.8 104.2 86.8 102.8 86.5 104.1 C 86.7 104.6 85.5 104.4 85.3 104.5 M 96.5 103.8 C 96.9 105.6 95.0 101.4 96.5 103.8 M 111.7 102.9 C 113.2 105.0 109.8 101.4 111.7 102.9 M 114.7 102.5 C 115.6 102.9 109.1 102.7 113.7 102.2 C 114.1 101.8 114.4 102.3 114.7 102.5 M 93.7 102.6 C 94.2 103.6 91.4 102.2 93.7 102.6 M 102.9 105.6 C 103.6 104.9 105.5 104.4 104.7 105.5 C 104.7 106.8 102.0 106.1 102.9 105.6 M 80.3 102.9 C 81.6 101.4 80.3 104.3 80.3 102.9 M 86.2 103.1 C 86.2 103.0 86.2 103.0 86.2 103.1 C 86.2 103.1 86.2 103.1 86.2 103.1 Z M 88.4 102.8 C 88.5 102.9 88.5 102.9 88.4 102.8 M 81.3 101.6 C 81.4 101.7 81.4 101.7 81.3 101.6 M 102.8 103.9 C 103.0 104.1 103.0 104.1 102.8 103.9 M 98.2 102.9 C 100.4 104.5 97.0 103.2 98.2 102.9 M 92.7 105.9 C 93.4 106.6 91.3 106.0 92.7 105.9 M 101.8 102.3 C 103.4 103.8 99.7 103.7 101.8 102.3 M 97.1 102.7 C 97.2 102.7 97.2 102.7 97.1 102.7 C 97.1 102.7 97.1 102.7 97.1 102.7 Z M 103.5 105.7 C 103.4 105.8 103.4 105.8 103.5 105.7 C 103.5 105.7 103.5 105.7 103.5 105.7 Z M 104.2 105.7 C 104.1 105.7 104.1 105.7 104.2 105.7 C 104.2 105.7 104.2 105.7 104.2 105.7 Z M 103.8 102.1 C 103.7 102.2 103.7 102.2 103.8 102.1 C 103.8 102.1 103.8 102.1 103.8 102.1 Z M 83.5 106.4 C 85.0 106.5 82.2 106.7 83.5 106.4 C 83.5 106.4 83.5 106.4 83.5 106.4 Z M 90.5 102.1 C 93.1 103.2 88.6 103.2 90.5 102.1 C 90.5 102.1 90.5 102.1 90.5 102.1 Z M 93.5 104.0 C 93.5 104.1 93.5 104.1 93.5 104.0 C 93.5 104.0 93.5 104.0 93.5 104.0 Z M 100.8 101.4 C 100.8 101.5 100.8 101.5 100.8 101.4 C 100.8 101.4 100.8 101.4 100.8 101.4 Z M 84.3 106.6 C 84.3 106.7 84.3 106.7 84.3 106.6 C 84.3 106.6 84.3 106.6 84.3 106.6 Z M 108.3 102.9 C 108.3 103.0 108.3 103.0 108.3 102.9 C 108.3 102.9 108.3 102.9 108.3 102.9 Z M 99.2 106.0 C 99.8 105.4 99.3 106.4 99.2 106.0 C 99.2 106.0 99.2 106.0 99.2 106.0 Z M 101.6 106.0 C 101.6 106.0 101.6 106.0 101.6 106.0 C 101.6 106.0 101.6 106.0 101.6 106.0 Z M 112.0 101.6 C 112.1 101.6 112.1 101.6 112.0 101.6 C 112.0 101.6 112.0 101.6 112.0 101.6 Z M 107.6 107.4 C 107.6 107.4 107.6 107.4 107.6 107.4 C 107.6 107.4 107.6 107.4 107.6 107.4 Z M 109.6 105.6 C 109.5 105.7 109.5 105.7 109.6 105.6 C 109.6 105.6 109.6 105.6 109.6 105.6 Z M 103.4 102.5 C 105.7 102.2 102.8 103.2 103.4 102.5 C 103.4 102.5 103.4 102.5 103.4 102.5 Z M 115.4 105.2 C 115.5 105.3 115.5 105.3 115.4 105.2 C 115.4 105.2 115.4 105.2 115.4 105.2 Z M 116.6 103.1 C 116.7 103.2 116.7 103.2 116.6 103.1 C 116.6 103.1 116.6 103.1 116.6 103.1 Z M 117.2 102.1 C 117.3 102.2 117.3 102.2 117.2 102.1 C 117.2 102.1 117.2 102.1 117.2 102.1 Z M 88.4 105.0 C 88.3 104.9 88.3 104.9 88.4 105.0 C 88.4 105.0 88.4 105.0 88.4 105.0 Z M 87.5 101.7 C 87.4 101.7 87.4 101.7 87.5 101.7 C 87.5 101.7 87.5 101.7 87.5 101.7 Z M 90.7 101.6 C 90.6 101.5 90.6 101.5 90.7 101.6 C 90.7 101.6 90.7 101.6 90.7 101.6 Z M 87.8 107.0 C 87.8 106.9 87.8 106.9 87.8 107.0 C 87.8 107.0 87.8 107.0 87.8 107.0 Z M 99.8 104.2 C 99.8 104.1 99.8 104.1 99.8 104.2 C 99.8 104.2 99.8 104.2 99.8 104.2 Z M 101.0 105.5 C 100.9 105.5 100.9 105.5 101.0 105.5 C 101.0 105.5 101.0 105.5 101.0 105.5 Z M 98.2 107.3 C 98.2 107.3 98.2 107.3 98.2 107.3 C 98.2 107.3 98.2 107.3 98.2 107.3 Z M 101.8 106.7 C 101.8 106.6 101.8 106.6 101.8 106.7 C 101.8 106.7 101.8 106.7 101.8 106.7 Z M 79.8 106.4 C 79.8 106.4 79.8 106.4 79.8 106.4 C 79.8 106.4 79.8 106.4 79.8 106.4 Z M 79.5 103.8 C 79.5 103.9 79.5 103.9 79.5 103.8 C 79.5 103.8 79.5 103.8 79.5 103.8 Z M 100.2 102.4 C 100.7 101.8 101.3 103.1 100.2 102.4 M 95.6 102.7 C 95.6 102.7 95.6 102.7 95.6 102.7 C 95.6 102.7 95.6 102.7 95.6 102.7 Z M 107.9 102.5 C 108.5 103.4 105.7 101.9 107.9 102.5 C 107.9 102.5 107.9 102.5 107.9 102.5 Z M 105.5 106.7 C 105.5 106.7 105.5 106.7 105.5 106.7 C 105.5 106.7 105.5 106.7 105.5 106.7 Z M 106.7 106.2 C 106.8 106.3 106.8 106.3 106.7 106.2 C 106.7 106.2 106.7 106.2 106.7 106.2 Z M 113.3 103.5 C 113.4 103.6 113.4 103.6 113.3 103.5 M 95.0 101.8 C 95.7 102.2 95.6 102.1 95.0 101.8 M 109.4 102.5 C 109.4 102.5 109.4 102.5 109.4 102.5 C 109.4 102.5 109.4 102.5 109.4 102.5 Z M 114.8 103.0 C 114.7 103.0 114.7 103.0 114.8 103.0 C 114.8 103.0 114.8 103.0 114.8 103.0 Z M 91.8 102.5 C 91.9 103.7 91.3 103.4 91.8 102.5 M 82.7 102.8 C 82.7 102.9 82.7 102.9 82.7 102.8 C 82.7 102.8 82.7 102.8 82.7 102.8 Z M 122.0 102.1 C 119.5 100.7 119.5 102.6 119.5 102.7 C 119.8 100.1 117.3 103.7 117.8 104.2 C 117.7 104.5 119.6 109.0 121.4 106.3 C 121.9 106.0 122.1 106.7 122.5 106.8 C 125.5 106.7 120.4 105.4 124.1 105.4 C 124.7 105.8 124.0 107.9 126.2 106.4 C 126.3 106.6 129.6 107.4 128.4 106.4 C 129.9 107.4 130.8 106.2 132.0 106.0 C 133.1 106.5 131.5 107.6 134.8 106.2 C 136.4 107.9 136.4 104.8 138.0 106.4 C 138.8 106.3 139.3 103.0 137.9 105.1 C 138.1 104.8 136.8 103.7 139.1 103.6 C 138.9 104.1 138.3 108.3 142.2 104.7 C 143.0 104.3 144.1 102.6 144.7 102.6 C 142.9 104.5 148.2 101.2 147.1 101.0 C 150.3 98.4 147.7 99.5 149.9 97.2 C 151.0 95.0 148.7 97.0 150.1 95.0 C 150.5 93.3 150.9 94.6 150.8 94.8 C 151.4 93.4 150.8 92.7 151.0 92.2 C 151.2 91.9 151.9 91.2 151.2 90.7 C 149.9 88.9 148.3 90.3 146.9 89.5 C 146.1 90.6 147.9 90.2 146.8 90.7 C 147.6 91.4 146.8 90.9 146.4 93.4 C 146.6 93.4 147.4 92.9 147.3 93.6 C 147.0 94.6 145.1 92.8 145.8 95.3 C 147.3 93.4 144.8 98.7 146.5 97.0 C 145.2 99.7 145.9 97.7 144.1 98.8 C 145.4 99.9 142.8 97.6 143.1 99.1 C 142.5 98.7 140.3 100.9 142.7 100.3 C 140.3 102.6 141.4 100.6 140.0 100.3 C 138.7 100.8 141.0 102.9 139.4 101.3 C 137.3 101.1 139.6 102.4 138.1 101.1 C 138.9 102.3 136.9 101.3 137.7 102.8 C 134.9 103.5 137.9 101.1 135.9 102.5 C 136.6 102.5 136.2 100.4 134.9 101.9 C 135.7 104.3 132.9 99.9 134.2 103.1 C 131.8 103.7 131.4 103.3 131.4 102.8 C 131.5 102.4 132.0 101.8 130.3 101.8 C 129.4 101.8 131.2 102.9 130.5 102.9 C 126.1 102.5 129.9 101.6 127.1 103.2 C 124.5 103.4 124.8 103.1 124.7 102.7 C 124.7 102.3 124.9 101.8 124.0 101.7 C 123.9 102.5 122.4 103.8 122.0 102.1 M 125.3 102.9 C 126.1 102.4 125.8 103.4 125.3 102.9 M 117.8 102.1 C 118.6 101.6 118.3 102.6 117.8 102.1 M 129.1 102.4 C 130.4 101.9 129.5 103.2 129.1 102.4 M 145.4 97.5 C 144.7 98.5 145.4 96.8 145.4 97.5 M 120.8 102.0 C 121.9 101.4 121.1 102.9 120.8 102.0 M 119.5 103.3 C 119.5 103.3 119.5 103.3 119.5 103.3 M 145.2 95.4 C 145.2 95.3 145.2 95.3 145.2 95.4 M 142.5 98.7 C 143.2 98.2 142.4 99.3 142.5 98.7 M 145.9 102.9 C 146.9 102.1 145.5 103.7 145.9 102.9 M 145.9 93.3 C 145.7 92.5 146.5 93.3 145.9 93.3 M 147.5 91.4 C 147.1 90.6 148.1 91.0 147.5 91.4 M 124.7 104.7 C 124.7 104.8 124.7 104.8 124.7 104.7 C 124.7 104.7 124.7 104.7 124.7 104.7 Z M 135.6 105.8 C 134.5 105.4 137.0 106.3 135.6 105.8 M 133.7 102.4 C 134.5 103.5 132.3 102.5 133.7 102.4 C 133.7 102.4 133.7 102.4 133.7 102.4 Z M 132.1 103.0 C 132.0 103.1 132.0 103.1 132.1 103.0 C 132.1 103.0 132.1 103.0 132.1 103.0 Z M 136.9 102.7 C 136.9 102.7 136.9 102.7 136.9 102.7 C 136.9 102.7 136.9 102.7 136.9 102.7 Z M 136.1 102.9 C 135.7 103.2 135.5 102.7 136.1 102.9 C 136.1 102.9 136.1 102.9 136.1 102.9 Z M 144.3 103.5 C 144.0 104.0 143.6 103.7 144.3 103.5 C 144.3 103.5 144.3 103.5 144.3 103.5 Z M 134.6 103.4 C 134.6 104.5 133.9 102.8 134.6 103.4 C 134.6 103.4 134.6 103.4 134.6 103.4 Z M 140.1 105.1 C 140.5 104.7 141.3 105.8 140.1 105.1 M 145.7 94.6 C 145.6 94.1 147.0 94.2 145.7 94.6 M 138.9 100.8 C 139.2 100.4 140.0 101.5 138.9 100.8 M 126.0 102.4 C 126.1 102.5 126.1 102.5 126.0 102.4 M 133.8 107.0 C 134.5 106.6 134.2 107.5 133.8 107.0 M 121.4 106.8 C 122.2 106.4 121.8 107.3 121.4 106.8 M 149.5 98.3 C 149.3 98.2 150.4 97.1 149.5 98.3 M 140.6 102.0 C 141.5 101.7 142.8 101.7 140.8 102.6 C 140.6 102.4 141.1 102.0 140.6 102.0 C 140.6 102.0 140.6 102.0 140.6 102.0 Z M 145.1 102.0 C 145.3 102.0 145.3 102.0 145.1 102.0 M 141.6 100.3 C 141.7 100.3 141.7 100.3 141.6 100.3 M 145.2 96.7 C 145.4 96.7 145.4 96.7 145.2 96.7 M 145.3 96.0 C 145.3 96.1 145.3 96.1 145.3 96.0 C 145.3 96.0 145.3 96.0 145.3 96.0 Z M 146.3 91.2 C 146.4 91.3 146.4 91.3 146.3 91.2 C 146.3 91.2 146.3 91.2 146.3 91.2 Z M 144.3 98.2 C 144.4 98.2 144.4 98.2 144.3 98.2 C 144.3 98.2 144.3 98.2 144.3 98.2 Z M 150.6 95.3 C 150.7 95.3 150.7 95.3 150.6 95.3 C 150.6 95.3 150.6 95.3 150.6 95.3 Z M 149.7 95.9 C 149.8 95.9 149.8 95.9 149.7 95.9 C 149.7 95.9 149.7 95.9 149.7 95.9 Z M 122.5 102.1 C 123.5 101.3 123.0 104.0 122.5 102.1 M 150.5 93.2 C 151.3 92.6 150.3 94.6 150.5 93.2 C 150.5 93.2 150.5 93.2 150.5 93.2 Z M 144.6 99.2 C 144.8 99.3 144.8 99.3 144.6 99.2 M 145.5 95.8 C 145.7 95.8 145.7 95.8 145.5 95.8 M 133.6 101.5 C 133.7 101.6 133.7 101.6 133.6 101.5 M 146.9 92.5 C 147.5 90.5 148.2 93.7 146.9 92.5 M 132.4 102.5 C 132.4 102.5 132.4 102.5 132.4 102.5 M 138.1 104.0 C 139.6 103.6 137.7 104.7 138.1 104.0 M 141.6 101.2 C 141.5 101.3 141.5 101.3 141.6 101.2 C 141.6 101.2 141.6 101.2 141.6 101.2 Z M 139.3 102.2 C 138.3 102.7 139.0 102.0 139.3 102.2 C 139.3 102.2 139.3 102.2 139.3 102.2 Z M 123.9 103.1 C 125.7 103.3 122.0 103.5 123.9 103.1 C 123.9 103.1 123.9 103.1 123.9 103.1 Z M 149.1 94.1 C 149.2 94.1 149.2 94.1 149.1 94.1 C 149.1 94.1 149.1 94.1 149.1 94.1 Z M 143.6 97.9 C 143.3 98.6 143.1 97.9 143.6 97.9 C 143.6 97.9 143.6 97.9 143.6 97.9 Z M 146.4 90.5 C 146.6 91.2 146.1 90.8 146.4 90.5 C 146.4 90.5 146.4 90.5 146.4 90.5 Z M 121.7 102.9 C 128.3 104.7 113.0 102.4 121.7 102.9 C 121.7 102.9 121.7 102.9 121.7 102.9 Z M 139.9 101.2 C 139.9 101.3 139.9 101.3 139.9 101.2 C 139.9 101.2 139.9 101.2 139.9 101.2 Z M 129.6 101.8 C 129.5 101.8 129.5 101.8 129.6 101.8 C 129.6 101.8 129.6 101.8 129.6 101.8 Z M 126.9 102.8 C 126.9 102.8 126.9 102.8 126.9 102.8 C 126.9 102.8 126.9 102.8 126.9 102.8 Z M 127.7 107.0 C 127.7 107.1 127.7 107.1 127.7 107.0 C 127.7 107.0 127.7 107.0 127.7 107.0 Z M 128.6 105.1 C 128.5 105.2 128.5 105.2 128.6 105.1 C 128.6 105.1 128.6 105.1 128.6 105.1 Z M 123.8 105.8 C 123.8 105.9 123.8 105.9 123.8 105.8 C 123.8 105.8 123.8 105.8 123.8 105.8 Z M 123.9 106.4 C 123.9 106.4 123.9 106.4 123.9 106.4 C 123.9 106.4 123.9 106.4 123.9 106.4 Z M 146.6 96.4 C 146.7 96.5 146.7 96.5 146.6 96.4 C 146.6 96.4 146.6 96.4 146.6 96.4 Z M 146.9 99.2 C 147.3 97.5 147.3 100.1 146.9 99.2 C 146.9 99.2 146.9 99.2 146.9 99.2 Z M 135.5 104.3 C 136.7 103.9 134.7 104.9 135.5 104.3 C 135.5 104.3 135.5 104.3 135.5 104.3 Z M 137.1 106.4 C 137.1 106.4 137.1 106.4 137.1 106.4 C 137.1 106.4 137.1 106.4 137.1 106.4 Z M 126.9 101.7 C 126.8 101.8 126.8 101.8 126.9 101.7 C 126.9 101.7 126.9 101.7 126.9 101.7 Z M 124.2 102.5 C 124.1 103.4 123.4 102.0 124.2 102.5 M 137.1 101.4 C 137.1 101.5 137.1 101.5 137.1 101.4 C 137.1 101.4 137.1 101.4 137.1 101.4 Z M 143.6 99.8 C 143.7 99.8 143.7 99.8 143.6 99.8 C 143.6 99.8 143.6 99.8 143.6 99.8 Z M 146.8 93.6 C 146.9 93.7 146.9 93.7 146.8 93.6 C 146.8 93.6 146.8 93.6 146.8 93.6 Z M 140.7 100.3 C 140.7 100.4 140.7 100.4 140.7 100.3 C 140.7 100.3 140.7 100.3 140.7 100.3 Z M 138.2 102.2 C 138.2 102.3 138.2 102.3 138.2 102.2 C 138.2 102.2 138.2 102.2 138.2 102.2 Z M 148.3 92.6 C 148.4 92.6 148.4 92.6 148.3 92.6 C 148.3 92.6 148.3 92.6 148.3 92.6 Z M 141.3 99.8 C 141.3 99.8 141.3 99.8 141.3 99.8 C 141.3 99.8 141.3 99.8 141.3 99.8 Z M 144.7 100.7 C 144.7 100.8 144.7 100.8 144.7 100.7 C 144.7 100.7 144.7 100.7 144.7 100.7 Z M 124.5 101.2 C 124.5 101.2 124.5 101.2 124.5 101.2 C 124.5 101.2 124.5 101.2 124.5 101.2 Z M 147.2 92.3 C 147.2 92.3 147.2 92.3 147.2 92.3 C 147.2 92.3 147.2 92.3 147.2 92.3 Z M 146.5 91.8 C 146.5 91.8 146.5 91.8 146.5 91.8 C 146.5 91.8 146.5 91.8 146.5 91.8 Z M 148.9 97.9 C 146.9 100.4 150.0 95.3 148.1 96.8 C 149.8 92.9 149.3 97.3 148.9 97.9 C 148.9 97.9 148.9 97.9 148.9 97.9 Z M 146.4 88.7 C 147.6 90.2 148.7 90.3 150.0 89.7 C 150.7 89.1 148.3 88.9 150.3 89.0 C 150.6 90.8 153.4 88.3 150.8 88.3 C 150.5 85.8 152.5 88.0 151.5 86.3 C 151.3 83.4 152.0 85.0 151.9 82.2 C 150.4 80.6 152.6 80.8 151.2 80.3 C 152.7 81.3 150.8 78.2 151.5 78.1 C 152.4 80.0 151.5 71.3 151.0 76.0 C 150.3 74.1 151.6 74.5 151.8 73.8 C 150.9 73.0 152.5 70.7 151.6 69.5 C 151.4 69.7 151.3 70.3 151.0 70.5 C 150.5 70.8 151.2 69.2 151.1 69.3 C 150.8 68.5 149.9 65.4 151.5 68.7 C 152.2 68.9 151.1 66.1 151.8 66.2 C 151.8 63.3 150.4 65.4 151.4 64.2 C 151.5 62.1 151.5 60.7 151.3 60.7 C 151.4 59.4 152.3 59.2 151.5 58.1 C 153.0 55.5 148.4 56.3 151.5 55.3 C 150.8 54.6 152.8 53.9 150.9 54.0 C 151.8 54.9 152.4 49.8 151.0 52.0 C 150.5 51.4 153.0 48.2 151.0 48.6 C 149.6 47.5 148.2 47.7 146.8 50.2 C 147.9 49.9 145.7 52.8 147.6 51.0 C 148.2 48.8 148.3 54.9 147.6 53.6 C 145.3 53.3 149.0 56.6 147.4 57.9 C 148.3 56.8 148.7 61.8 147.0 60.4 C 146.9 61.3 147.7 61.5 146.7 62.5 C 146.9 59.5 148.5 63.7 147.5 63.5 C 146.8 63.0 146.3 67.4 147.3 67.0 C 149.6 65.4 146.8 68.1 147.7 68.9 C 148.2 71.3 145.7 68.5 147.4 70.3 C 147.1 70.8 147.1 74.1 146.6 72.0 C 146.9 71.2 149.2 74.0 147.2 74.3 C 146.1 70.8 146.6 78.3 147.2 77.1 C 148.3 71.8 148.4 82.8 147.4 78.6 C 146.3 81.0 146.9 77.9 147.4 80.9 C 148.0 80.5 148.6 83.3 147.4 82.6 C 145.5 83.2 149.9 83.9 147.3 85.9 C 146.2 86.2 148.0 89.5 146.8 88.2 C 146.7 88.2 146.4 88.6 146.4 88.7 M 146.7 87.7 C 147.1 88.1 146.2 88.3 146.7 87.7 M 147.1 88.1 C 147.1 88.2 147.1 88.2 147.1 88.1 C 147.1 88.1 147.1 88.1 147.1 88.1 Z M 147.5 81.3 C 147.4 81.4 147.4 81.4 147.5 81.3 C 147.5 81.3 147.5 81.3 147.5 81.3 Z M 152.2 76.8 C 152.2 76.8 152.2 76.8 152.2 76.8 C 152.2 76.8 152.2 76.8 152.2 76.8 Z M 147.6 77.5 C 147.6 77.5 147.6 77.5 147.6 77.5 C 147.6 77.5 147.6 77.5 147.6 77.5 Z M 147.8 84.1 C 147.8 84.1 147.8 84.1 147.8 84.1 C 147.8 84.1 147.8 84.1 147.8 84.1 Z M 146.9 77.8 C 147.6 77.6 146.4 79.2 146.8 77.8 C 146.8 77.7 146.8 78.0 146.9 77.8 M 146.6 72.9 C 146.7 72.8 146.7 72.8 146.6 72.9 M 152.2 61.9 C 152.2 61.8 152.2 61.8 152.2 61.9 M 146.5 61.0 C 146.6 60.8 146.6 60.8 146.5 61.0 M 147.3 67.9 C 147.2 66.4 147.7 67.5 147.3 67.9 M 146.9 56.9 C 146.5 58.9 146.6 54.9 146.9 56.9 M 146.5 55.1 C 146.6 54.9 146.6 54.9 146.5 55.1 M 146.8 63.7 C 146.8 63.8 146.8 63.8 146.8 63.7 C 146.8 63.7 146.8 63.7 146.8 63.7 Z M 147.0 68.5 C 146.6 70.5 146.4 66.5 147.0 68.5 M 146.8 80.6 C 146.4 79.5 147.7 80.6 146.8 80.6 M 147.2 83.5 C 147.2 83.5 147.2 83.5 147.2 83.5 C 147.2 83.5 147.2 83.5 147.2 83.5 Z M 146.9 60.0 C 146.9 60.1 146.9 60.1 146.9 60.0 C 146.9 60.0 146.9 60.0 146.9 60.0 Z M 146.8 57.8 C 146.8 57.9 146.8 57.9 146.8 57.8 C 146.8 57.8 146.8 57.8 146.8 57.8 Z M 152.0 54.1 C 152.0 54.2 152.0 54.2 152.0 54.1 C 152.0 54.1 152.0 54.1 152.0 54.1 Z M 149.4 81.2 C 149.0 82.7 147.6 79.7 148.9 80.0 C 149.4 79.8 149.2 81.0 149.4 81.2 M 148.6 70.0 C 150.4 69.6 146.2 71.5 148.6 70.0 M 147.7 54.8 C 149.8 53.3 146.2 56.7 147.7 54.8 M 147.3 51.8 C 147.7 50.9 147.6 57.4 147.0 52.9 C 146.7 52.4 147.1 52.1 147.3 51.8 M 147.5 72.8 C 148.4 72.4 147.0 75.2 147.5 72.8 M 150.4 63.6 C 149.8 62.9 149.2 61.0 150.3 61.8 C 151.7 61.8 150.9 64.5 150.4 63.6 M 147.7 87.3 C 146.2 86.0 149.1 87.3 147.7 87.3 M 147.9 80.4 C 147.8 80.3 147.8 80.3 147.9 80.4 C 147.9 80.4 147.9 80.4 147.9 80.4 Z M 147.6 78.1 C 147.8 78.0 147.8 78.0 147.6 78.1 M 146.4 86.2 C 146.5 86.1 146.5 86.1 146.4 86.2 M 148.8 63.7 C 148.9 63.5 148.9 63.5 148.8 63.7 M 147.7 68.3 C 149.3 66.1 148.0 69.5 147.7 68.3 M 150.7 73.8 C 151.5 73.1 150.8 75.2 150.7 73.8 M 147.1 64.7 C 148.6 63.1 148.5 66.8 147.1 64.7 M 147.6 69.4 C 147.6 69.3 147.6 69.3 147.6 69.4 C 147.6 69.4 147.6 69.4 147.6 69.4 Z M 150.6 63.0 C 150.6 63.1 150.6 63.1 150.6 63.0 C 150.6 63.0 150.6 63.0 150.6 63.0 Z M 150.5 62.3 C 150.5 62.4 150.5 62.4 150.5 62.3 C 150.5 62.3 150.5 62.3 150.5 62.3 Z M 147.0 62.7 C 147.0 62.8 147.0 62.8 147.0 62.7 C 147.0 62.7 147.0 62.7 147.0 62.7 Z M 151.2 83.7 C 151.4 81.6 151.5 85.3 151.2 83.7 C 151.2 83.7 151.2 83.7 151.2 83.7 Z M 146.9 76.0 C 148.1 73.4 148.0 77.9 146.9 76.0 C 146.9 76.0 146.9 76.0 146.9 76.0 Z M 148.8 73.1 C 148.9 73.1 148.9 73.1 148.8 73.1 C 148.8 73.1 148.8 73.1 148.8 73.1 Z M 146.2 65.7 C 146.3 65.7 146.3 65.7 146.2 65.7 C 146.2 65.7 146.2 65.7 146.2 65.7 Z M 151.4 82.6 C 151.5 82.6 151.5 82.6 151.4 82.6 C 151.4 82.6 151.4 82.6 151.4 82.6 Z M 147.8 58.2 C 147.8 58.2 147.8 58.2 147.8 58.2 C 147.8 58.2 147.8 58.2 147.8 58.2 Z M 150.8 67.3 C 150.2 66.7 151.3 67.2 150.8 67.3 C 150.8 67.3 150.8 67.3 150.8 67.3 Z M 150.8 65.0 C 150.8 64.9 150.8 64.9 150.8 65.0 C 150.8 65.0 150.8 65.0 150.8 65.0 Z M 146.4 54.5 C 146.4 54.4 146.4 54.4 146.4 54.5 C 146.4 54.5 146.4 54.5 146.4 54.5 Z M 152.2 58.9 C 152.2 58.9 152.2 58.9 152.2 58.9 C 152.2 58.9 152.2 58.9 152.2 58.9 Z M 150.5 56.9 C 150.5 57.0 150.5 57.0 150.5 56.9 C 150.5 56.9 150.5 56.9 150.5 56.9 Z M 147.3 63.1 C 147.0 60.8 148.0 63.7 147.3 63.1 C 147.3 63.1 147.3 63.1 147.3 63.1 Z M 150.0 51.1 C 150.1 51.0 150.1 51.0 150.0 51.1 C 150.0 51.1 150.0 51.1 150.0 51.1 Z M 148.0 49.9 C 148.1 49.8 148.1 49.8 148.0 49.9 C 148.0 49.9 148.0 49.9 148.0 49.9 Z M 146.9 49.3 C 147.0 49.2 147.0 49.2 146.9 49.3 C 146.9 49.3 146.9 49.3 146.9 49.3 Z M 149.8 78.1 C 149.7 78.2 149.7 78.2 149.8 78.1 C 149.8 78.1 149.8 78.1 149.8 78.1 Z M 146.5 79.0 C 146.5 79.1 146.5 79.1 146.5 79.0 C 146.5 79.0 146.5 79.0 146.5 79.0 Z M 146.4 75.8 C 146.4 75.9 146.4 75.9 146.4 75.8 C 146.4 75.8 146.4 75.8 146.4 75.8 Z M 151.8 78.7 C 151.8 78.7 151.8 78.7 151.8 78.7 C 151.8 78.7 151.8 78.7 151.8 78.7 Z M 149.0 66.7 C 149.0 66.7 149.0 66.7 149.0 66.7 C 149.0 66.7 149.0 66.7 149.0 66.7 Z M 150.3 65.5 C 150.3 65.6 150.3 65.6 150.3 65.5 C 150.3 65.5 150.3 65.5 150.3 65.5 Z M 152.1 68.3 C 152.1 68.3 152.1 68.3 152.1 68.3 C 152.1 68.3 152.1 68.3 152.1 68.3 Z M 151.5 64.7 C 151.5 64.7 151.5 64.7 151.5 64.7 C 151.5 64.7 151.5 64.7 151.5 64.7 Z M 151.1 88.0 C 151.2 88.0 151.2 88.0 151.1 88.0 C 151.1 88.0 151.1 88.0 151.1 88.0 Z M 148.6 88.1 C 148.7 88.2 148.7 88.2 148.6 88.1 C 148.6 88.1 148.6 88.1 148.6 88.1 Z M 147.2 66.3 C 146.7 65.8 147.9 65.2 147.2 66.3 M 147.5 70.9 C 147.6 70.9 147.6 70.9 147.5 70.9 C 147.5 70.9 147.5 70.9 147.5 70.9 Z M 147.3 58.6 C 148.3 58.0 146.8 60.8 147.3 58.6 C 147.3 58.6 147.3 58.6 147.3 58.6 Z M 151.5 61.0 C 151.5 61.0 151.5 61.0 151.5 61.0 C 151.5 61.0 151.5 61.0 151.5 61.0 Z M 151.1 59.8 C 151.2 59.7 151.2 59.7 151.1 59.8 C 151.1 59.8 151.1 59.8 151.1 59.8 Z M 148.3 53.2 C 148.4 53.1 148.4 53.1 148.3 53.2 M 146.6 71.5 C 147.1 70.8 147.0 70.9 146.6 71.5 M 147.3 57.1 C 147.4 57.1 147.4 57.1 147.3 57.1 C 147.3 57.1 147.3 57.1 147.3 57.1 Z M 147.8 51.8 C 147.8 51.8 147.8 51.8 147.8 51.8 C 147.8 51.8 147.8 51.8 147.8 51.8 Z M 147.3 74.7 C 148.5 74.6 148.2 75.2 147.3 74.7 M 147.7 84.6 C 147.8 84.6 147.8 84.6 147.7 84.6 C 147.7 84.6 147.7 84.6 147.7 84.6 Z M 146.9 44.5 C 145.6 47.0 147.5 47.0 147.5 47.0 C 145.0 46.7 148.5 49.2 149.0 48.7 C 149.4 48.8 153.8 46.9 151.1 45.1 C 150.8 44.7 151.6 44.4 151.6 44.0 C 151.5 41.0 150.2 46.1 150.2 42.4 C 150.6 41.8 152.7 42.5 151.3 40.3 C 151.5 40.3 152.3 37.8 151.3 38.7 C 152.3 37.5 151.1 36.8 150.9 35.7 C 151.4 34.7 152.4 36.5 151.2 32.9 C 153.0 31.4 149.9 30.8 151.8 29.5 C 151.9 28.6 148.7 27.2 150.5 29.3 C 150.3 29.0 148.8 30.3 149.4 27.5 C 149.8 27.9 153.0 29.6 151.4 24.2 C 151.5 23.3 150.6 21.4 151.0 21.0 C 151.4 23.4 152.2 17.8 151.3 18.4 C 151.6 15.0 150.5 17.2 151.0 14.7 C 150.6 12.8 150.1 16.2 149.9 13.1 C 148.9 11.1 150.2 12.2 150.2 12.4 C 149.6 10.5 148.6 10.2 148.3 9.6 C 148.2 9.2 148.1 8.1 147.2 8.2 C 144.8 7.6 144.9 10.0 143.4 10.5 C 143.6 11.8 144.6 10.1 144.2 11.4 C 145.2 11.3 144.5 11.3 145.9 14.0 C 146.1 13.8 146.3 12.8 146.7 13.5 C 147.1 14.7 144.5 14.6 146.6 15.8 C 146.6 13.7 147.9 18.5 148.1 16.5 C 148.8 18.8 148.0 17.1 147.6 19.1 C 149.3 18.9 145.8 19.4 147.2 20.1 C 146.5 20.3 147.0 23.9 147.9 21.2 C 148.5 25.0 147.4 22.6 146.6 24.2 C 146.5 26.3 149.3 24.3 147.2 25.8 C 146.3 28.7 148.3 26.3 146.7 27.9 C 148.1 27.2 146.6 29.6 148.2 29.0 C 148.3 32.8 146.5 28.5 147.6 31.2 C 147.7 30.4 145.6 30.7 146.9 32.3 C 149.4 31.6 144.8 34.5 148.0 33.3 C 148.9 38.6 146.7 34.2 146.7 37.1 C 146.7 37.9 147.7 36.3 147.8 37.0 C 147.3 40.8 146.5 37.6 148.0 39.6 C 148.4 43.3 146.7 40.7 146.6 42.5 C 147.3 42.7 148.6 44.1 146.9 44.5 M 147.7 41.2 C 147.2 40.4 148.2 40.7 147.7 41.2 M 146.9 48.7 C 146.4 47.9 147.5 48.2 146.9 48.7 M 147.2 38.1 C 146.7 37.0 148.1 37.8 147.2 38.1 M 147.7 17.4 C 147.8 18.5 147.2 17.0 147.7 17.4 M 146.8 45.7 C 146.2 44.6 147.7 45.4 146.8 45.7 M 148.1 47.0 C 148.1 47.0 148.1 47.0 148.1 47.0 M 146.1 16.2 C 146.1 16.1 146.1 16.1 146.1 16.2 M 146.6 20.4 C 146.6 19.3 146.9 20.9 146.6 20.4 M 151.9 20.3 C 151.9 19.1 152.3 21.0 151.9 20.3 M 145.4 14.3 C 144.7 13.6 145.9 13.8 145.4 14.3 M 145.2 11.5 C 144.3 11.0 145.3 10.7 145.2 11.5 M 149.6 41.8 C 149.6 41.9 149.6 41.9 149.6 41.8 C 149.6 41.8 149.6 41.8 149.6 41.8 Z M 150.9 32.0 C 150.4 33.1 151.6 30.5 150.9 32.0 M 147.4 33.8 C 148.5 33.0 147.3 35.3 147.4 33.8 C 147.4 33.8 147.4 33.8 147.4 33.8 Z M 147.9 35.5 C 147.9 35.5 147.9 35.5 147.9 35.5 C 147.9 35.5 147.9 35.5 147.9 35.5 Z M 147.9 29.9 C 148.0 30.0 148.0 30.0 147.9 29.9 C 147.9 29.9 147.9 29.9 147.9 29.9 Z M 148.0 31.1 C 148.3 31.5 147.8 31.7 148.0 31.1 C 148.0 31.1 148.0 31.1 148.0 31.1 Z M 151.5 21.8 C 151.7 22.3 151.3 22.5 151.5 21.8 C 151.5 21.8 151.5 21.8 151.5 21.8 Z M 148.4 32.8 C 149.5 33.0 147.7 33.6 148.4 32.8 C 148.4 32.8 148.4 32.8 148.4 32.8 Z M 151.0 26.6 C 150.7 25.9 152.0 25.2 151.0 26.6 M 146.1 15.4 C 145.7 15.1 146.9 14.4 146.1 15.4 M 146.6 26.3 C 146.3 25.7 147.6 24.9 146.6 26.3 M 147.2 40.5 C 147.3 40.4 147.3 40.4 147.2 40.5 M 152.0 34.0 C 151.5 33.2 152.4 33.6 152.0 34.0 M 151.6 45.1 C 151.2 44.3 152.1 44.7 151.6 45.1 M 151.3 15.5 C 151.0 15.6 151.2 14.4 151.3 15.5 M 148.3 24.5 C 148.4 23.2 149.0 21.9 149.0 24.6 C 148.7 24.8 148.6 24.0 148.3 24.5 C 148.3 24.5 148.3 24.5 148.3 24.5 Z M 150.7 20.3 C 150.8 20.2 150.8 20.2 150.7 20.3 M 147.3 22.4 C 147.4 22.2 147.4 22.2 147.3 22.4 M 147.0 17.1 C 147.1 16.9 147.1 16.9 147.0 17.1 M 146.6 16.6 C 146.6 16.6 146.6 16.6 146.6 16.6 C 146.6 16.6 146.6 16.6 146.6 16.6 Z M 144.3 12.1 C 144.3 12.1 144.3 12.1 144.3 12.1 C 144.3 12.1 144.3 12.1 144.3 12.1 Z M 147.3 18.5 C 147.4 18.5 147.4 18.5 147.3 18.5 C 147.3 18.5 147.3 18.5 147.3 18.5 Z M 150.5 13.2 C 150.5 13.2 150.5 13.2 150.5 13.2 C 150.5 13.2 150.5 13.2 150.5 13.2 Z M 150.0 14.0 C 150.1 14.0 150.1 14.0 150.0 14.0 C 150.0 14.0 150.0 14.0 150.0 14.0 Z M 146.9 44.0 C 146.2 43.0 148.8 43.5 146.9 44.0 M 148.8 11.0 C 149.0 9.8 149.8 12.5 148.8 11.0 C 148.8 11.0 148.8 11.0 148.8 11.0 Z M 148.3 19.1 C 148.4 19.0 148.4 19.0 148.3 19.1 M 146.6 16.3 C 146.8 16.2 146.8 16.2 146.6 16.3 M 146.4 33.8 C 146.5 33.7 146.5 33.7 146.4 33.8 M 145.6 12.8 C 144.7 10.6 147.5 13.0 145.6 12.8 M 147.4 35.1 C 147.3 35.2 147.3 35.2 147.4 35.1 M 149.5 28.8 C 149.4 26.9 150.1 29.4 149.5 28.8 M 148.1 23.0 C 148.1 23.0 148.1 23.0 148.1 23.0 C 148.1 23.0 148.1 23.0 148.1 23.0 Z M 148.1 26.5 C 148.2 28.4 147.8 27.0 148.1 26.5 C 148.1 26.5 148.1 26.5 148.1 26.5 Z M 147.9 42.6 C 148.1 40.9 148.3 44.5 147.9 42.6 C 147.9 42.6 147.9 42.6 147.9 42.6 Z M 148.4 12.8 C 148.5 12.8 148.5 12.8 148.4 12.8 C 148.4 12.8 148.4 12.8 148.4 12.8 Z M 146.6 18.9 C 146.9 19.5 146.3 19.2 146.6 18.9 C 146.6 18.9 146.6 18.9 146.6 18.9 Z M 143.8 11.5 C 144.4 11.8 143.7 11.9 143.8 11.5 C 143.8 11.5 143.8 11.5 143.8 11.5 Z M 147.7 44.8 C 149.5 38.2 147.3 53.5 147.7 44.8 C 147.7 44.8 147.7 44.8 147.7 44.8 Z M 147.3 25.0 C 147.4 25.1 147.4 25.1 147.3 25.0 C 147.3 25.0 147.3 25.0 147.3 25.0 Z M 146.6 37.7 C 146.7 37.7 146.7 37.7 146.6 37.7 C 146.6 37.7 146.6 37.7 146.6 37.7 Z M 147.6 39.8 C 147.7 39.8 147.7 39.8 147.6 39.8 C 147.6 39.8 147.6 39.8 147.6 39.8 Z M 151.9 39.2 C 151.9 39.2 151.9 39.2 151.9 39.2 C 151.9 39.2 151.9 39.2 151.9 39.2 Z M 149.9 38.5 C 150.0 38.6 150.0 38.6 149.9 38.5 C 149.9 38.5 149.9 38.5 149.9 38.5 Z M 150.6 42.7 C 150.7 42.8 150.7 42.8 150.6 42.7 C 150.6 42.7 150.6 42.7 150.6 42.7 Z M 151.2 42.6 C 151.2 42.6 151.2 42.6 151.2 42.6 C 151.2 42.6 151.2 42.6 151.2 42.6 Z M 147.8 16.0 C 147.9 16.0 147.9 16.0 147.8 16.0 C 147.8 16.0 147.8 16.0 147.8 16.0 Z M 149.9 17.5 C 149.1 16.3 150.8 17.8 149.9 17.5 C 149.9 17.5 149.9 17.5 149.9 17.5 Z M 149.3 32.0 C 149.1 30.6 149.9 32.9 149.3 32.0 C 149.3 32.0 149.3 32.0 149.3 32.0 Z M 151.6 30.5 C 151.7 30.4 151.7 30.4 151.6 30.5 C 151.6 30.5 151.6 30.5 151.6 30.5 Z M 146.6 39.8 C 146.7 39.8 146.7 39.8 146.6 39.8 C 146.6 39.8 146.6 39.8 146.6 39.8 Z M 147.3 42.3 C 148.2 42.4 146.8 43.1 147.3 42.3 M 146.8 29.4 C 146.9 29.4 146.9 29.4 146.8 29.4 C 146.8 29.4 146.8 29.4 146.8 29.4 Z M 148.1 20.1 C 148.1 20.2 148.1 20.2 148.1 20.1 C 148.1 20.1 148.1 20.1 148.1 20.1 Z M 146.3 13.9 C 146.5 13.9 146.5 13.9 146.3 13.9 C 146.3 13.9 146.3 13.9 146.3 13.9 Z M 146.9 23.4 C 147.0 23.4 147.0 23.4 146.9 23.4 C 146.9 23.4 146.9 23.4 146.9 23.4 Z M 147.7 28.2 C 147.8 28.2 147.8 28.2 147.7 28.2 C 147.7 28.2 147.7 28.2 147.7 28.2 Z M 146.7 11.9 C 146.8 11.9 146.8 11.9 146.7 11.9 C 146.7 11.9 146.7 11.9 146.7 11.9 Z M 146.7 22.4 C 146.8 22.4 146.8 22.4 146.7 22.4 C 146.7 22.4 146.7 22.4 146.7 22.4 Z M 149.5 19.9 C 149.6 20.0 149.6 20.0 149.5 19.9 C 149.5 19.9 149.5 19.9 149.5 19.9 Z M 146.0 42.0 C 146.1 42.0 146.1 42.0 146.0 42.0 C 146.0 42.0 146.0 42.0 146.0 42.0 Z M 145.7 12.4 C 145.7 12.4 145.7 12.4 145.7 12.4 C 145.7 12.4 145.7 12.4 145.7 12.4 Z M 144.8 12.5 C 144.8 12.5 144.8 12.5 144.8 12.5 C 144.8 12.5 144.8 12.5 144.8 12.5 Z M 150.5 15.6 C 150.5 18.2 149.9 13.6 149.3 15.5 C 148.3 12.2 150.4 15.1 150.5 15.6 C 150.5 15.6 150.5 15.6 150.5 15.6 Z M 142.5 10.3 C 144.2 10.3 145.2 9.7 145.6 8.3 C 145.5 7.2 143.8 9.1 145.2 7.5 C 146.9 8.5 146.5 4.6 144.8 6.7 C 142.6 5.3 145.5 4.9 143.5 4.9 C 140.9 3.6 142.0 3.4 140.3 3.0 C 138.8 4.1 139.4 2.1 138.7 3.3 C 139.8 2.0 136.8 3.4 136.8 2.7 C 138.6 2.0 130.4 2.1 134.8 2.9 C 132.9 3.4 133.3 2.3 132.6 2.1 C 131.7 2.9 129.0 1.3 127.4 2.2 C 127.7 2.4 128.5 2.4 128.7 2.7 C 129.2 3.3 126.9 2.6 127.2 2.6 C 126.6 2.8 125.5 3.1 125.1 3.2 C 124.6 3.2 123.9 3.1 126.4 2.3 C 126.6 1.6 123.6 2.6 123.7 2.0 C 120.9 1.9 123.0 3.4 121.8 2.3 C 119.7 2.3 118.2 2.3 118.2 2.5 C 117.0 2.3 116.7 1.5 115.6 2.3 C 113.1 0.7 113.9 5.3 112.9 2.2 C 112.2 3.0 111.5 1.0 111.6 2.9 C 112.5 2.0 107.3 1.4 109.5 2.8 C 109.0 3.2 105.7 0.8 106.2 2.7 C 105.0 4.2 105.2 5.6 107.8 6.9 C 107.5 5.8 110.4 8.1 108.5 6.2 C 106.4 5.5 112.5 5.5 111.2 6.2 C 110.9 8.4 114.2 4.8 115.5 6.4 C 114.4 5.5 119.4 5.0 117.9 6.7 C 118.9 6.9 119.1 6.1 120.1 7.0 C 117.1 6.9 121.2 5.3 121.1 6.3 C 120.5 6.9 125.0 7.5 124.5 6.5 C 123.0 4.2 125.5 7.0 126.6 6.1 C 130.1 5.6 126.2 8.0 128.5 6.3 C 129.1 6.6 132.9 6.7 130.6 7.1 C 129.7 6.9 132.7 4.6 133.0 6.6 C 129.6 7.6 136.3 7.5 135.4 6.8 C 131.3 5.3 139.9 6.2 136.6 6.8 C 138.2 8.2 136.0 7.0 138.2 7.1 C 138.1 6.4 139.9 6.3 139.2 7.4 C 138.9 9.3 141.1 5.4 141.1 8.4 C 140.7 9.4 144.0 9.5 142.4 9.8 C 142.3 9.9 142.4 10.3 142.5 10.3 M 142.0 9.6 C 142.5 9.5 142.1 10.4 142.0 9.6 M 142.5 9.5 C 142.5 9.6 142.5 9.6 142.5 9.5 C 142.5 9.5 142.5 9.5 142.5 9.5 Z M 138.5 7.1 C 138.5 7.2 138.5 7.2 138.5 7.1 C 138.5 7.1 138.5 7.1 138.5 7.1 Z M 135.6 1.8 C 135.7 1.9 135.7 1.9 135.6 1.8 C 135.6 1.8 135.6 1.8 135.6 1.8 Z M 135.7 6.5 C 135.8 6.5 135.8 6.5 135.7 6.5 C 135.7 6.5 135.7 6.5 135.7 6.5 Z M 140.1 7.4 C 140.2 7.4 140.2 7.4 140.1 7.4 C 140.1 7.4 140.1 7.4 140.1 7.4 Z M 135.9 7.2 C 135.8 6.5 136.9 7.8 135.9 7.3 C 135.8 7.3 136.0 7.3 135.9 7.2 M 131.5 7.2 C 131.5 7.1 131.5 7.1 131.5 7.2 M 119.4 1.6 C 119.4 1.5 119.4 1.5 119.4 1.6 M 118.5 7.2 C 118.4 7.1 118.4 7.1 118.5 7.2 M 125.5 6.4 C 123.9 6.5 125.1 6.1 125.5 6.4 M 114.5 6.8 C 116.4 7.3 112.5 7.2 114.5 6.8 M 112.7 7.2 C 112.5 7.2 112.5 7.2 112.7 7.2 M 121.3 7.0 C 121.3 6.9 121.3 6.9 121.3 7.0 C 121.3 7.0 121.3 7.0 121.3 7.0 Z M 126.1 6.7 C 128.1 7.1 124.1 7.4 126.1 6.7 M 137.9 7.7 C 137.1 7.8 138.1 6.8 137.9 7.7 M 139.5 7.7 C 139.6 7.7 139.6 7.7 139.5 7.7 C 139.5 7.7 139.5 7.7 139.5 7.7 Z M 117.6 6.9 C 117.7 6.8 117.7 6.8 117.6 6.9 C 117.6 6.9 117.6 6.9 117.6 6.9 Z M 115.4 7.0 C 115.5 7.0 115.5 7.0 115.4 7.0 C 115.4 7.0 115.4 7.0 115.4 7.0 Z M 111.7 1.8 C 111.8 1.8 111.8 1.8 111.7 1.8 C 111.7 1.8 111.7 1.8 111.7 1.8 Z M 139.0 5.3 C 140.0 5.9 137.4 6.7 137.9 5.5 C 137.9 4.9 138.8 5.4 139.0 5.3 M 128.1 5.2 C 127.6 3.4 130.0 7.6 128.1 5.2 M 112.4 6.1 C 110.9 4.0 114.3 7.6 112.4 6.1 M 109.4 6.4 C 108.5 6.0 115.0 6.2 110.4 6.7 C 110.0 7.1 109.7 6.7 109.4 6.4 M 131.4 6.3 C 131.0 5.3 134.0 6.8 131.4 6.3 M 121.2 3.4 C 120.5 4.0 118.6 4.5 119.4 3.5 C 119.4 2.1 122.1 2.8 121.2 3.4 M 142.3 8.6 C 140.5 9.3 143.1 7.5 142.3 8.6 M 137.9 6.5 C 137.9 6.6 137.9 6.6 137.9 6.5 C 137.9 6.5 137.9 6.5 137.9 6.5 Z M 136.2 6.5 C 136.1 6.3 136.1 6.3 136.2 6.5 M 140.9 9.3 C 140.9 9.2 140.9 9.2 140.9 9.3 M 121.2 5.0 C 121.1 4.9 121.1 4.9 121.2 5.0 M 125.9 6.0 C 123.7 4.5 127.1 5.7 125.9 6.0 M 132.6 3.1 C 131.9 2.3 134.1 3.1 132.6 3.1 M 122.2 6.6 C 120.7 5.2 124.4 5.2 122.2 6.6 M 127.3 6.2 C 127.2 6.2 127.2 6.2 127.3 6.2 C 127.3 6.2 127.3 6.2 127.3 6.2 Z M 120.6 3.2 C 120.7 3.2 120.7 3.2 120.6 3.2 C 120.6 3.2 120.6 3.2 120.6 3.2 Z M 119.9 3.3 C 120.0 3.2 120.0 3.2 119.9 3.3 C 119.9 3.3 119.9 3.3 119.9 3.3 Z M 120.3 6.8 C 120.4 6.8 120.4 6.8 120.3 6.8 C 120.3 6.8 120.3 6.8 120.3 6.8 Z M 141.2 4.0 C 139.6 3.2 142.6 4.4 141.2 4.0 C 141.2 4.0 141.2 4.0 141.2 4.0 Z M 134.5 7.0 C 132.4 5.7 136.1 6.0 134.5 7.0 C 134.5 7.0 134.5 7.0 134.5 7.0 Z M 131.7 5.0 C 131.7 4.9 131.7 4.9 131.7 5.0 C 131.7 5.0 131.7 5.0 131.7 5.0 Z M 123.3 7.5 C 123.3 7.4 123.3 7.4 123.3 7.5 C 123.3 7.5 123.3 7.5 123.3 7.5 Z M 140.4 3.5 C 140.4 3.4 140.4 3.4 140.4 3.5 C 140.4 3.5 140.4 3.5 140.4 3.5 Z M 115.8 6.0 C 115.8 5.9 115.8 5.9 115.8 6.0 C 115.8 6.0 115.8 6.0 115.8 6.0 Z M 124.9 3.0 C 124.3 3.5 124.8 2.5 124.9 3.0 C 124.9 3.0 124.9 3.0 124.9 3.0 Z M 122.5 2.9 C 122.5 3.0 122.5 3.0 122.5 2.9 C 122.5 2.9 122.5 2.9 122.5 2.9 Z M 112.1 7.3 C 112.0 7.4 112.0 7.4 112.1 7.3 C 112.1 7.3 112.1 7.3 112.1 7.3 Z M 116.5 1.6 C 116.4 1.6 116.4 1.6 116.5 1.6 C 116.5 1.6 116.5 1.6 116.5 1.6 Z M 114.5 3.3 C 114.5 3.3 114.5 3.3 114.5 3.3 C 114.5 3.3 114.5 3.3 114.5 3.3 Z M 120.7 6.4 C 118.4 6.7 121.3 5.8 120.7 6.4 C 120.7 6.4 120.7 6.4 120.7 6.4 Z M 108.7 3.8 C 108.6 3.7 108.6 3.7 108.7 3.8 C 108.7 3.8 108.7 3.8 108.7 3.8 Z M 107.5 5.8 C 107.4 5.7 107.4 5.7 107.5 5.8 C 107.5 5.8 107.5 5.8 107.5 5.8 Z M 106.9 6.9 C 106.8 6.8 106.8 6.8 106.9 6.9 C 106.9 6.9 106.9 6.9 106.9 6.9 Z M 136.5 4.3 C 136.6 4.4 136.6 4.4 136.5 4.3 C 136.5 4.3 136.5 4.3 136.5 4.3 Z M 136.7 7.7 C 136.8 7.7 136.8 7.7 136.7 7.7 C 136.7 7.7 136.7 7.7 136.7 7.7 Z M 134.3 7.5 C 134.3 7.6 134.3 7.6 134.3 7.5 C 134.3 7.5 134.3 7.5 134.3 7.5 Z M 137.3 2.4 C 137.4 2.5 137.4 2.5 137.3 2.4 C 137.3 2.4 137.3 2.4 137.3 2.4 Z M 124.2 4.7 C 124.3 4.8 124.3 4.8 124.2 4.7 C 124.2 4.7 124.2 4.7 124.2 4.7 Z M 123.1 3.4 C 123.2 3.5 123.2 3.5 123.1 3.4 C 123.1 3.4 123.1 3.4 123.1 3.4 Z M 125.9 1.7 C 125.9 1.7 125.9 1.7 125.9 1.7 C 125.9 1.7 125.9 1.7 125.9 1.7 Z M 122.2 2.3 C 122.3 2.3 122.3 2.3 122.2 2.3 C 122.2 2.3 122.2 2.3 122.2 2.3 Z M 144.8 6.2 C 144.8 6.2 144.8 6.2 144.8 6.2 C 144.8 6.2 144.8 6.2 144.8 6.2 Z M 143.4 8.3 C 143.5 8.3 143.5 8.3 143.4 8.3 C 143.4 8.3 143.4 8.3 143.4 8.3 Z M 123.9 6.6 C 123.3 7.1 122.8 5.9 123.9 6.6 M 129.2 6.3 C 129.3 6.2 129.3 6.2 129.2 6.3 C 129.2 6.3 129.2 6.3 129.2 6.3 Z M 116.2 6.5 C 115.6 5.5 118.3 7.0 116.2 6.5 C 116.2 6.5 116.2 6.5 116.2 6.5 Z M 118.6 2.3 C 118.6 2.3 118.6 2.3 118.6 2.3 C 118.6 2.3 118.6 2.3 118.6 2.3 Z M 117.4 2.7 C 117.3 2.6 117.3 2.6 117.4 2.7 C 117.4 2.7 117.4 2.7 117.4 2.7 Z M 110.8 5.4 C 110.7 5.3 110.7 5.3 110.8 5.4 M 129.9 7.1 C 129.1 6.7 129.3 6.8 129.9 7.1 M 114.6 6.4 C 114.7 6.4 114.7 6.4 114.6 6.4 C 114.6 6.4 114.6 6.4 114.6 6.4 Z M 109.3 6.0 C 109.4 5.9 109.4 5.9 109.3 6.0 C 109.3 6.0 109.3 6.0 109.3 6.0 Z M 133.4 6.6 C 133.3 5.3 133.9 5.7 133.4 6.6 M 140.5 7.6 C 140.5 7.5 140.5 7.5 140.5 7.6 C 140.5 7.6 140.5 7.6 140.5 7.6 Z M 101.7 5.9 C 107.2 7.4 105.9 4.8 106.2 4.3 C 106.9 3.5 106.2 3.1 105.1 2.6 C 103.9 0.9 103.3 4.3 102.5 2.6 C 101.1 0.4 100.9 4.6 100.2 2.2 C 100.5 1.6 98.3 2.1 98.5 2.2 C 97.4 1.1 95.9 3.1 95.9 3.3 C 95.2 3.0 95.1 0.9 92.9 2.5 C 91.2 3.1 90.4 0.9 90.9 2.4 C 89.7 0.8 90.0 2.9 88.8 2.3 C 87.9 1.4 88.8 3.7 87.2 2.0 C 86.5 3.4 87.9 1.1 83.7 2.1 C 85.7 2.2 81.7 3.2 82.5 2.2 C 84.0 1.3 80.5 2.6 78.6 2.0 C 78.1 2.5 75.8 3.8 76.2 2.4 C 74.2 0.8 74.2 3.4 73.3 2.1 C 72.6 1.5 72.4 2.7 71.9 2.6 C 71.2 1.6 70.6 2.3 68.1 2.0 C 62.7 1.5 67.3 4.5 65.3 4.8 C 64.9 5.3 67.9 8.5 66.7 6.1 C 67.1 6.8 71.5 4.3 69.3 6.9 C 71.0 5.9 69.0 8.0 72.4 6.7 C 67.7 4.9 77.6 6.0 73.2 6.9 C 73.9 7.4 75.8 7.3 74.4 6.9 C 73.9 5.2 77.6 7.7 75.8 5.6 C 78.6 6.2 77.9 4.3 78.7 5.6 C 79.3 7.8 78.5 5.0 80.0 5.7 C 83.3 5.7 80.7 8.2 82.8 6.6 C 86.0 7.7 83.5 5.6 84.6 5.3 C 84.9 3.8 88.0 6.5 85.5 6.7 C 86.8 5.9 85.7 7.4 87.2 6.5 C 86.1 5.0 89.2 8.0 88.7 6.8 C 90.1 6.5 89.4 5.6 89.8 5.6 C 91.8 5.6 91.2 7.0 91.6 5.9 C 92.0 5.3 93.0 7.2 93.2 6.7 C 91.2 6.7 94.9 5.2 95.2 6.0 C 93.9 6.1 95.8 7.9 96.6 6.7 C 95.6 3.6 98.4 7.5 99.3 6.4 C 98.4 4.7 103.8 6.2 101.8 7.0 C 101.9 6.9 101.7 5.9 101.7 5.9 M 93.8 6.5 C 92.1 6.3 95.7 6.1 93.8 6.5 M 93.9 6.9 C 93.2 6.4 95.5 7.4 93.8 7.1 C 93.8 7.1 94.0 7.0 93.9 6.9 M 86.9 7.0 C 87.1 6.5 87.8 7.3 86.9 7.0 M 85.5 5.9 C 84.4 5.5 87.1 5.8 85.5 5.9 M 70.0 6.3 C 71.6 3.7 71.7 7.7 70.0 6.3 M 80.3 6.8 C 82.2 6.4 79.6 7.9 80.3 6.8 M 80.9 6.1 C 81.7 5.7 81.1 6.7 80.9 6.1 M 73.0 6.3 C 72.8 6.2 72.8 6.2 73.0 6.3 C 73.0 6.3 73.0 6.3 73.0 6.3 Z M 68.4 6.2 C 68.4 6.2 68.4 6.2 68.4 6.2 C 68.4 6.2 68.4 6.2 68.4 6.2 Z M 77.4 6.0 C 78.9 6.6 75.1 6.2 77.4 6.0 C 77.4 6.0 77.4 6.0 77.4 6.0 Z M 70.6 2.3 C 70.7 2.3 70.7 2.3 70.6 2.3 C 70.6 2.3 70.6 2.3 70.6 2.3 Z M 95.2 5.3 C 95.2 5.3 95.2 5.3 95.2 5.3 C 95.2 5.3 95.2 5.3 95.2 5.3 Z M 100.4 6.3 C 100.3 5.9 101.3 6.5 100.4 6.3 C 100.4 6.3 100.4 6.3 100.4 6.3 Z M 104.6 3.3 C 104.7 3.3 104.7 3.3 104.6 3.3 C 104.6 3.3 104.6 3.3 104.6 3.3 Z M 96.9 4.0 C 97.0 3.9 97.0 3.9 96.9 4.0 C 96.9 4.0 96.9 4.0 96.9 4.0 Z M 96.2 5.9 C 97.0 7.3 94.2 5.5 96.2 5.9 C 96.2 5.9 96.2 5.9 96.2 5.9 Z M 79.2 2.4 C 79.2 3.1 78.0 2.2 79.2 2.4 C 79.2 2.4 79.2 2.4 79.2 2.4 Z M 85.3 5.4 C 85.1 5.7 84.6 5.2 85.3 5.4 C 85.3 5.4 85.3 5.4 85.3 5.4 Z M 88.2 7.3 C 88.0 7.6 87.5 7.1 88.2 7.3 C 88.2 7.3 88.2 7.3 88.2 7.3 Z M 100.3 6.7 C 100.2 6.8 100.2 6.8 100.3 6.7 C 100.3 6.7 100.3 6.7 100.3 6.7 Z M 98.4 5.6 C 99.7 6.9 96.4 4.9 98.4 5.6 C 98.4 5.6 98.4 5.6 98.4 5.6 Z M 100.7 5.2 C 100.0 4.7 102.3 5.4 100.7 5.2 M 99.4 3.2 C 97.8 3.7 100.8 0.8 99.4 3.2 C 99.4 3.2 99.4 3.2 99.4 3.2 Z M 91.3 2.7 C 91.2 2.6 91.2 2.6 91.3 2.7 C 91.3 2.7 91.3 2.7 91.3 2.7 Z M 92.2 6.5 C 90.8 6.5 93.1 6.2 92.2 6.5 C 92.2 6.5 92.2 6.5 92.2 6.5 Z M 104.3 6.8 C 102.9 6.8 105.2 6.5 104.3 6.8 C 104.3 6.8 104.3 6.8 104.3 6.8 Z M 86.6 3.9 C 84.4 4.2 88.1 3.2 86.6 3.9 C 86.6 3.9 86.6 3.9 86.6 3.9 Z M 78.2 5.5 C 78.2 5.5 78.2 5.5 78.2 5.5 C 78.2 5.5 78.2 5.5 78.2 5.5 Z M 76.7 6.0 C 76.6 6.0 76.6 6.0 76.7 6.0 C 76.7 6.0 76.7 6.0 76.7 6.0 Z M 70.2 4.7 C 70.1 4.6 70.1 4.6 70.2 4.7 C 70.2 4.7 70.2 4.7 70.2 4.7 Z M 75.3 6.7 C 75.2 6.6 75.2 6.6 75.3 6.7 C 75.3 6.7 75.3 6.7 75.3 6.7 Z M 70.8 6.3 C 70.7 6.3 70.7 6.3 70.8 6.3 C 70.8 6.3 70.8 6.3 70.8 6.3 Z M 71.4 7.5 C 71.3 7.4 71.3 7.4 71.4 7.5 C 71.4 7.5 71.4 7.5 71.4 7.5 Z M 81.4 1.7 C 81.3 1.6 81.3 1.6 81.4 1.7 C 81.4 1.7 81.4 1.7 81.4 1.7 Z M 97.8 7.1 C 97.7 7.0 97.7 7.0 97.8 7.1 C 97.8 7.1 97.8 7.1 97.8 7.1 Z M 71.1 5.8 C 71.1 5.8 71.1 5.8 71.1 5.8 C 71.1 5.8 71.1 5.8 71.1 5.8 Z M 82.1 4.8 C 82.1 3.6 83.1 6.2 81.8 4.8 C 81.9 4.8 82.2 4.9 82.1 4.8 M 80.6 2.9 C 80.7 2.8 80.7 2.8 80.6 2.9 C 80.6 2.9 80.6 2.9 80.6 2.9 Z M 85.6 2.2 C 85.7 2.1 85.7 2.1 85.6 2.2 C 85.6 2.2 85.6 2.2 85.6 2.2 Z M 76.1 6.9 C 76.3 7.5 74.8 6.4 76.2 6.9 M 70.1 2.7 C 70.3 3.3 68.9 2.2 70.3 2.7 M 105.9 6.4 C 106.1 5.9 106.8 6.7 105.9 6.4 M 86.7 1.6 C 86.9 1.1 87.7 1.9 86.7 1.6 M 84.4 3.0 C 84.6 3.7 83.2 2.5 84.6 3.0 M 73.6 2.7 C 73.5 2.7 73.5 2.7 73.6 2.7 C 73.6 2.7 73.6 2.7 73.6 2.7 Z M 90.0 6.4 C 90.0 6.4 90.0 6.4 90.0 6.4 C 90.0 6.4 90.0 6.4 90.0 6.4 Z M 83.9 5.1 C 84.8 5.9 82.9 4.5 83.9 5.1 M 91.8 4.9 C 93.0 6.0 89.9 4.5 91.8 4.9 M 67.5 2.4 C 68.9 3.7 66.5 1.7 67.5 2.4 M 74.2 5.7 C 75.6 7.0 73.2 5.0 74.2 5.7 M 88.8 5.9 C 88.9 6.5 87.5 5.5 88.8 5.9 M 102.7 6.5 C 104.0 6.6 101.0 7.0 102.7 6.5 M 76.9 2.7 C 76.8 2.6 76.8 2.6 76.9 2.7 C 76.9 2.7 76.9 2.7 76.9 2.7 Z M 98.5 1.6 C 98.5 1.5 98.5 1.5 98.5 1.6 C 98.5 1.6 98.5 1.6 98.5 1.6 Z M 65.8 6.7 C 65.7 6.6 65.7 6.6 65.8 6.7 C 65.8 6.7 65.8 6.7 65.8 6.7 Z M 75.1 5.1 C 75.0 5.0 75.0 5.0 75.1 5.1 C 75.1 5.1 75.1 5.1 75.1 5.1 Z M 68.4 6.9 C 68.3 6.8 68.3 6.8 68.4 6.9 C 68.4 6.9 68.4 6.9 68.4 6.9 Z M 79.3 4.1 C 79.2 4.0 79.2 4.0 79.3 4.1 C 79.3 4.1 79.3 4.1 79.3 4.1 Z M 80.1 7.4 C 80.1 7.3 80.1 7.3 80.1 7.4 C 80.1 7.4 80.1 7.4 80.1 7.4 Z M 84.7 6.0 C 84.7 5.9 84.7 5.9 84.7 6.0 C 84.7 6.0 84.7 6.0 84.7 6.0 Z M 78.0 7.1 C 75.3 7.3 79.4 6.0 78.0 7.1 C 78.0 7.1 78.0 7.1 78.0 7.1 Z M 82.8 3.8 C 82.8 3.8 82.8 3.8 82.8 3.8 C 82.8 3.8 82.8 3.8 82.8 3.8 Z M 83.2 6.1 C 81.4 7.1 82.2 4.6 83.2 6.1 M 90.9 6.9 C 90.3 7.4 90.6 6.1 90.9 6.9 M 93.9 2.6 C 93.9 2.5 93.9 2.5 93.9 2.6 C 93.9 2.6 93.9 2.6 93.9 2.6 Z M 93.1 2.9 C 93.0 2.9 93.0 2.9 93.1 2.9 C 93.1 2.9 93.1 2.9 93.1 2.9 Z M 92.7 7.1 C 92.7 7.1 92.7 7.1 92.7 7.1 C 92.7 7.1 92.7 7.1 92.7 7.1 Z M 93.0 1.7 C 92.9 1.7 92.9 1.7 93.0 1.7 C 93.0 1.7 93.0 1.7 93.0 1.7 Z M 81.2 7.3 C 81.1 7.3 81.1 7.3 81.2 7.3 C 81.2 7.3 81.2 7.3 81.2 7.3 Z M 67.1 7.3 C 67.0 7.3 67.0 7.3 67.1 7.3 C 67.1 7.3 67.1 7.3 67.1 7.3 Z M 102.3 3.0 C 102.3 3.0 102.3 3.0 102.3 3.0 C 102.3 3.0 102.3 3.0 102.3 3.0 Z M 79.7 6.0 C 79.7 5.9 79.7 5.9 79.7 6.0 C 79.7 6.0 79.7 6.0 79.7 6.0 Z M 95.9 2.8 C 95.9 2.7 95.9 2.7 95.9 2.8 C 95.9 2.8 95.9 2.8 95.9 2.8 Z M 80.6 6.3 C 80.6 6.2 80.6 6.2 80.6 6.3 C 80.6 6.3 80.6 6.3 80.6 6.3 Z M 77.3 2.4 C 77.3 2.4 77.3 2.4 77.3 2.4 C 77.3 2.4 77.3 2.4 77.3 2.4 Z M 74.3 1.7 C 74.2 1.7 74.2 1.7 74.3 1.7 C 74.3 1.7 74.3 1.7 74.3 1.7 Z M 77.5 4.7 C 77.5 4.7 77.5 4.7 77.5 4.7 C 77.5 4.7 77.5 4.7 77.5 4.7 Z M 96.9 4.2 C 102.5 5.3 92.5 4.7 96.9 4.2 M 76.6 4.4 C 80.5 4.7 73.5 5.7 76.6 4.4 C 76.1 4.8 76.5 4.5 76.6 4.4 M 61.7 6.8 C 64.1 8.2 64.1 6.3 64.1 6.2 C 63.9 8.8 66.4 5.2 65.9 4.7 C 65.9 4.4 64.0 -0.1 62.3 2.6 C 61.8 3.0 61.5 2.2 61.2 2.1 C 58.2 2.2 63.3 3.5 59.6 3.5 C 58.9 3.1 59.7 1.0 57.5 2.5 C 57.4 2.3 54.9 1.5 55.9 2.5 C 54.7 1.5 53.9 2.7 52.8 2.9 C 51.8 2.3 53.7 1.4 50.1 2.5 C 48.6 0.8 48.0 3.8 46.6 1.9 C 45.7 1.9 44.4 5.0 46.4 3.2 C 46.1 3.4 47.4 4.9 44.6 4.4 C 45.0 4.0 46.6 0.8 42.2 2.3 C 41.4 2.2 39.7 3.1 39.3 2.7 C 41.6 2.3 36.2 1.3 36.8 2.3 C 33.2 1.6 35.3 3.1 32.7 2.0 C 30.6 1.9 33.4 3.4 30.8 2.6 C 28.8 2.7 30.2 1.9 30.4 2.0 C 28.7 1.8 28.0 2.4 27.5 2.4 C 27.1 2.2 25.9 1.6 25.4 2.4 C 23.0 3.8 25.1 5.3 24.2 6.7 C 25.8 7.4 24.9 5.6 26.1 6.7 C 27.0 5.8 26.5 6.8 30.1 6.6 C 30.0 6.4 29.1 5.7 30.0 5.7 C 31.4 5.8 30.4 8.3 32.7 6.5 C 30.0 6.0 36.6 5.7 34.0 5.2 C 37.2 4.9 34.9 5.4 37.2 6.0 C 37.1 4.3 37.4 7.8 38.2 6.4 C 38.5 7.1 42.0 6.8 39.5 5.8 C 43.2 5.4 40.8 6.3 42.2 7.2 C 43.9 7.3 42.3 4.5 43.4 6.5 C 45.6 7.5 43.5 5.5 45.1 7.1 C 44.4 5.7 46.7 7.1 46.1 5.6 C 50.0 5.4 45.7 7.2 48.3 6.1 C 47.5 6.1 47.8 8.2 49.5 6.8 C 48.8 4.4 51.6 9.0 50.4 5.7 C 55.8 4.8 51.3 7.1 54.3 7.1 C 55.0 7.1 53.5 6.0 54.1 6.0 C 57.9 6.5 54.8 7.3 56.8 5.7 C 60.5 5.3 57.8 7.1 59.7 7.2 C 59.8 6.4 61.3 5.1 61.7 6.8 M 58.3 6.1 C 57.6 6.6 57.8 5.5 58.3 6.1 M 65.8 6.8 C 65.0 7.3 65.4 6.3 65.8 6.8 M 55.2 6.5 C 54.2 7.1 54.9 5.7 55.2 6.5 M 35.1 5.7 C 36.5 5.7 34.5 6.2 35.1 5.7 M 62.8 6.9 C 61.7 7.5 62.5 6.0 62.8 6.9 M 64.2 5.7 C 64.1 5.6 64.1 5.6 64.2 5.7 M 33.1 7.1 C 33.1 7.0 33.1 7.0 33.1 7.1 M 38.5 7.1 C 37.4 7.1 39.2 6.8 38.5 7.1 M 38.7 1.7 C 37.6 1.7 39.4 1.4 38.7 1.7 M 30.2 7.1 C 29.0 7.5 29.8 6.5 30.2 7.1 M 27.2 6.0 C 25.7 6.4 26.2 5.4 27.2 6.0 M 59.0 4.2 C 59.0 4.1 59.0 4.1 59.0 4.2 C 59.0 4.2 59.0 4.2 59.0 4.2 Z M 49.1 2.9 C 50.3 3.4 47.7 2.2 49.1 2.9 M 50.9 6.4 C 50.1 5.3 52.5 6.4 50.9 6.4 C 50.9 6.4 50.9 6.4 50.9 6.4 Z M 52.7 5.9 C 52.7 5.8 52.7 5.8 52.7 5.9 C 52.7 5.9 52.7 5.9 52.7 5.9 Z M 47.1 5.8 C 47.1 5.8 47.1 5.8 47.1 5.8 C 47.1 5.8 47.1 5.8 47.1 5.8 Z M 48.2 5.7 C 48.7 5.5 48.9 5.9 48.2 5.7 C 48.2 5.7 48.2 5.7 48.2 5.7 Z M 40.1 2.3 C 40.6 2.0 40.7 2.5 40.1 2.3 C 40.1 2.3 40.1 2.3 40.1 2.3 Z M 50.0 5.3 C 50.1 4.2 50.8 6.1 50.0 5.3 C 50.0 5.3 50.0 5.3 50.0 5.3 Z M 44.0 2.7 C 43.5 3.0 43.0 1.7 44.0 2.7 M 32.0 6.9 C 31.5 7.2 31.0 5.8 32.0 6.9 M 43.8 7.2 C 43.3 7.5 42.8 6.1 43.8 7.2 M 57.7 6.5 C 57.6 6.4 57.6 6.4 57.7 6.5 M 51.1 1.8 C 50.4 2.2 50.7 1.3 51.1 1.8 M 62.3 2.2 C 61.5 2.6 61.9 1.7 62.3 2.2 M 33.7 1.8 C 33.7 2.1 32.5 1.7 33.7 1.8 M 42.4 5.4 C 41.4 5.3 40.3 4.7 42.5 4.8 C 42.6 5.0 42.0 5.2 42.4 5.4 C 42.4 5.4 42.4 5.4 42.4 5.4 Z M 38.7 2.9 C 38.6 2.8 38.6 2.8 38.7 2.9 M 40.6 6.4 C 40.4 6.3 40.4 6.3 40.6 6.4 M 34.5 6.3 C 34.4 6.2 34.4 6.2 34.5 6.3 M 33.8 6.6 C 33.8 6.6 33.8 6.6 33.8 6.6 C 33.8 6.6 33.8 6.6 33.8 6.6 Z M 27.1 7.1 C 27.1 7.0 27.1 7.0 27.1 7.1 C 27.1 7.1 27.1 7.1 27.1 7.1 Z M 36.5 6.2 C 36.5 6.1 36.5 6.1 36.5 6.2 C 36.5 6.2 36.5 6.2 36.5 6.2 Z M 31.0 2.0 C 31.0 2.0 31.0 2.0 31.0 2.0 C 31.0 2.0 31.0 2.0 31.0 2.0 Z M 31.7 2.7 C 31.7 2.6 31.7 2.6 31.7 2.7 C 31.7 2.7 31.7 2.7 31.7 2.7 Z M 61.1 6.8 C 60.2 7.6 60.6 4.9 61.1 6.8 M 28.7 2.7 C 27.9 1.9 30.3 2.5 28.7 2.7 C 28.7 2.7 28.7 2.7 28.7 2.7 Z M 37.2 5.3 C 37.1 5.1 37.1 5.1 37.2 5.3 M 33.4 6.5 C 33.3 6.4 33.3 6.4 33.4 6.5 M 51.0 7.4 C 50.9 7.2 50.9 7.2 51.0 7.4 M 28.7 6.3 C 25.9 6.1 30.0 4.8 28.7 6.3 M 52.3 6.3 C 52.3 6.4 52.3 6.4 52.3 6.3 M 45.9 4.3 C 44.0 4.4 46.6 3.7 45.9 4.3 M 41.1 5.7 C 41.2 5.6 41.2 5.6 41.1 5.7 C 41.1 5.7 41.1 5.7 41.1 5.7 Z M 43.9 5.7 C 45.3 5.5 44.3 6.0 43.9 5.7 C 43.9 5.7 43.9 5.7 43.9 5.7 Z M 59.8 5.8 C 58.0 5.7 61.6 5.5 59.8 5.8 C 59.8 5.8 59.8 5.8 59.8 5.8 Z M 30.0 3.8 C 30.1 3.7 30.1 3.7 30.0 3.8 C 30.0 3.8 30.0 3.8 30.0 3.8 Z M 36.8 7.0 C 37.6 6.7 37.2 7.3 36.8 7.0 C 36.8 7.0 36.8 7.0 36.8 7.0 Z M 25.7 7.1 C 26.9 6.8 26.3 7.4 25.7 7.1 C 25.7 7.1 25.7 7.1 25.7 7.1 Z M 61.9 6.0 C 55.4 4.2 70.7 6.5 61.9 6.0 C 61.9 6.0 61.9 6.0 61.9 6.0 Z M 42.8 6.4 C 42.8 6.3 42.8 6.3 42.8 6.4 C 42.8 6.4 42.8 6.4 42.8 6.4 Z M 54.9 7.2 C 54.9 7.1 54.9 7.1 54.9 7.2 C 54.9 7.2 54.9 7.2 54.9 7.2 Z M 56.9 6.2 C 57.0 6.1 57.0 6.1 56.9 6.2 C 56.9 6.2 56.9 6.2 56.9 6.2 Z M 56.3 1.9 C 56.4 1.8 56.4 1.8 56.3 1.9 C 56.3 1.9 56.3 1.9 56.3 1.9 Z M 55.6 3.9 C 55.7 3.7 55.7 3.7 55.6 3.9 C 55.6 3.9 55.6 3.9 55.6 3.9 Z M 59.9 3.1 C 59.9 3.0 59.9 3.0 59.9 3.1 C 59.9 3.1 59.9 3.1 59.9 3.1 Z M 59.8 2.6 C 59.8 2.5 59.8 2.5 59.8 2.6 C 59.8 2.6 59.8 2.6 59.8 2.6 Z M 33.4 5.3 C 33.5 5.2 33.5 5.2 33.4 5.3 C 33.4 5.3 33.4 5.3 33.4 5.3 Z M 35.7 3.6 C 34.1 4.2 36.1 2.6 35.7 3.6 C 35.7 3.6 35.7 3.6 35.7 3.6 Z M 49.2 4.4 C 47.7 4.7 50.1 3.9 49.2 4.4 C 49.2 4.4 49.2 4.4 49.2 4.4 Z M 47.6 2.1 C 47.6 2.1 47.6 2.1 47.6 2.1 C 47.6 2.1 47.6 2.1 47.6 2.1 Z M 56.9 7.2 C 57.0 7.1 57.0 7.1 56.9 7.2 C 56.9 7.2 56.9 7.2 56.9 7.2 Z M 59.5 6.5 C 59.6 5.6 60.3 6.9 59.5 6.5 M 46.5 7.0 C 46.5 6.9 46.5 6.9 46.5 7.0 C 46.5 7.0 46.5 7.0 46.5 7.0 Z M 38.3 5.6 C 38.4 5.5 38.4 5.5 38.3 5.6 C 38.3 5.6 38.3 5.6 38.3 5.6 Z M 30.2 6.2 C 30.3 6.0 30.3 6.0 30.2 6.2 C 30.2 6.2 30.2 6.2 30.2 6.2 Z M 41.4 6.9 C 41.5 6.8 41.5 6.8 41.4 6.9 C 41.4 6.9 41.4 6.9 41.4 6.9 Z M 45.3 6.0 C 45.4 5.9 45.4 5.9 45.3 6.0 C 45.3 6.0 45.3 6.0 45.3 6.0 Z M 28.4 4.9 C 28.5 4.8 28.5 4.8 28.4 4.9 C 28.4 4.9 28.4 4.9 28.4 4.9 Z M 40.5 7.0 C 40.6 7.0 40.6 7.0 40.5 7.0 C 40.5 7.0 40.5 7.0 40.5 7.0 Z M 38.2 4.2 C 38.3 4.1 38.3 4.1 38.2 4.2 C 38.2 4.2 38.2 4.2 38.2 4.2 Z M 59.1 7.7 C 59.2 7.7 59.2 7.7 59.1 7.7 C 59.1 7.7 59.1 7.7 59.1 7.7 Z M 28.4 6.1 C 28.4 6.0 28.4 6.0 28.4 6.1 C 28.4 6.1 28.4 6.1 28.4 6.1 Z M 27.9 6.9 C 27.9 6.8 27.9 6.8 27.9 6.9 C 27.9 6.9 27.9 6.9 27.9 6.9 Z M 33.6 2.6 C 36.5 3.1 31.0 2.8 33.1 3.8 C 29.0 4.0 33.0 2.6 33.6 2.6 C 33.6 2.6 33.6 2.6 33.6 2.6 Z M 23.1 7.2 C 24.9 6.0 25.0 4.8 24.1 3.6 C 23.2 3.0 23.2 5.4 23.2 3.3 C 25.3 2.9 22.2 0.3 22.3 2.9 C 19.6 3.3 21.7 1.2 20.3 2.3 C 17.7 2.7 19.0 1.8 17.2 2.2 C 16.3 3.8 16.0 1.7 15.8 3.1 C 16.4 1.5 14.1 3.9 13.8 3.3 C 14.5 2.6 12.8 3.0 11.5 3.9 C 10.1 4.7 9.3 5.4 11.8 4.5 C 10.2 6.1 10.0 4.9 9.3 5.1 C 9.0 6.4 5.9 7.1 5.8 8.7 C 6.1 8.6 6.6 8.1 6.9 8.2 C 7.6 8.3 5.9 9.2 6.0 9.1 C 5.7 10.0 4.5 13.4 5.4 9.4 C 4.9 8.9 4.1 12.2 3.6 11.9 C 2.2 14.9 4.5 13.2 3.2 14.0 C 2.7 15.8 2.5 17.1 2.7 17.1 C 2.4 18.2 1.5 18.4 2.3 19.5 C 0.5 21.9 5.2 21.4 2.1 22.4 C 2.8 23.2 0.8 24.0 2.7 23.9 C 1.8 22.9 1.2 29.7 2.6 26.6 C 3.1 27.4 0.6 30.7 2.6 30.2 C 4.0 31.4 5.4 31.2 6.7 28.7 C 5.7 29.0 7.9 26.0 6.0 27.9 C 5.4 30.1 5.3 22.8 6.0 24.4 C 8.3 24.9 4.7 21.0 6.3 19.9 C 5.4 20.8 5.3 16.6 6.9 17.9 C 7.1 17.2 6.3 16.9 7.4 16.4 C 6.9 18.4 5.9 15.2 6.9 15.6 C 7.4 16.1 9.0 13.2 8.0 13.1 C 5.3 13.2 8.9 12.6 8.5 11.5 C 9.3 9.5 9.7 13.0 9.5 10.7 C 10.0 10.6 11.9 8.8 11.0 10.3 C 10.4 10.5 10.9 7.2 12.2 8.7 C 10.3 11.2 15.5 7.8 14.3 7.6 C 9.6 8.2 18.0 5.3 15.3 7.2 C 17.2 7.8 14.8 7.6 16.9 6.8 C 16.5 6.2 18.2 5.4 17.9 6.7 C 18.5 8.5 18.4 4.1 20.2 6.5 C 20.5 7.6 23.9 5.6 22.5 6.9 C 22.4 7.0 23.0 7.2 23.1 7.2 M 21.9 7.0 C 22.3 6.6 22.6 7.5 21.9 7.0 M 22.4 6.6 C 22.4 6.6 22.4 6.6 22.4 6.6 C 22.4 6.6 22.4 6.6 22.4 6.6 Z M 17.2 6.7 C 17.2 6.7 17.2 6.7 17.2 6.7 C 17.2 6.7 17.2 6.7 17.2 6.7 Z M 12.2 3.1 C 12.2 3.1 12.2 3.1 12.2 3.1 C 12.2 3.1 12.2 3.1 12.2 3.1 Z M 14.4 7.2 C 14.4 7.2 14.4 7.2 14.4 7.2 C 14.4 7.2 14.4 7.2 14.4 7.2 Z M 18.8 6.2 C 18.9 6.2 18.9 6.2 18.8 6.2 C 18.8 6.2 18.8 6.2 18.8 6.2 Z M 14.9 7.8 C 14.5 7.2 15.9 8.0 14.8 7.9 C 14.8 7.9 15.0 7.8 14.9 7.8 M 11.6 9.9 C 11.5 9.8 11.5 9.8 11.6 9.9 M 2.0 15.9 C 1.9 15.9 1.9 15.9 2.0 15.9 M 7.4 17.5 C 7.3 17.6 7.3 17.6 7.4 17.5 M 8.4 12.4 C 7.7 13.6 7.9 12.5 8.4 12.4 M 6.7 20.8 C 7.3 19.0 7.0 22.8 6.7 20.8 M 7.1 22.8 C 7.0 22.9 7.0 22.9 7.1 22.8 M 7.5 15.6 C 7.5 15.5 7.5 15.5 7.5 15.6 C 7.5 15.6 7.5 15.6 7.5 15.6 Z M 8.9 12.1 C 10.1 11.0 8.5 13.9 8.9 12.1 M 16.8 7.4 C 16.1 7.9 16.7 6.5 16.8 7.4 M 18.5 6.8 C 18.5 6.8 18.5 6.8 18.5 6.8 C 18.5 6.8 18.5 6.8 18.5 6.8 Z M 7.0 18.2 C 7.0 18.1 7.0 18.1 7.0 18.2 C 7.0 18.2 7.0 18.2 7.0 18.2 Z M 6.9 20.1 C 6.9 20.0 6.9 20.0 6.9 20.1 C 6.9 20.1 6.9 20.1 6.9 20.1 Z M 1.6 23.8 C 1.6 23.7 1.6 23.7 1.6 23.8 C 1.6 23.8 1.6 23.8 1.6 23.8 Z M 16.9 4.8 C 18.1 5.0 16.0 6.7 15.9 5.4 C 15.7 4.9 16.7 5.0 16.9 4.8 M 8.4 10.1 C 6.8 9.3 11.1 10.7 8.4 10.1 M 5.9 23.1 C 3.8 24.7 7.4 20.9 5.9 23.1 M 6.3 26.9 C 5.8 28.1 6.0 19.5 6.6 25.4 C 6.9 26.0 6.5 26.4 6.3 26.9 M 11.0 9.2 C 10.1 8.7 12.9 8.3 11.0 9.2 M 4.0 14.8 C 4.5 15.5 4.8 17.2 3.8 16.3 C 2.5 16.0 3.7 13.9 4.0 14.8 M 21.4 6.0 C 20.2 7.7 21.4 4.7 21.4 6.0 M 16.4 6.4 C 16.4 6.4 16.4 6.4 16.4 6.4 C 16.4 6.4 16.4 6.4 16.4 6.4 Z M 14.8 7.0 C 14.7 6.9 14.7 6.9 14.8 7.0 M 20.6 7.5 C 20.5 7.3 20.5 7.3 20.6 7.5 M 5.6 15.1 C 5.5 15.2 5.5 15.2 5.6 15.1 M 8.2 11.9 C 5.8 12.6 8.5 10.8 8.2 11.9 M 9.9 6.0 C 8.8 5.8 11.1 5.1 9.9 6.0 M 7.4 14.8 C 5.7 15.5 6.5 12.9 7.4 14.8 M 8.9 11.2 C 8.8 11.3 8.8 11.3 8.9 11.2 C 8.9 11.2 8.9 11.2 8.9 11.2 Z M 3.8 15.2 C 3.7 15.2 3.7 15.2 3.8 15.2 C 3.8 15.2 3.8 15.2 3.8 15.2 Z M 3.7 15.8 C 3.7 15.7 3.7 15.7 3.7 15.8 C 3.7 15.8 3.7 15.8 3.7 15.8 Z M 7.2 16.2 C 7.2 16.2 7.2 16.2 7.2 16.2 C 7.2 16.2 7.2 16.2 7.2 16.2 Z M 18.2 2.7 C 16.7 2.8 19.4 2.4 18.2 2.7 C 18.2 2.7 18.2 2.7 18.2 2.7 Z M 13.6 8.3 C 11.1 8.1 14.5 6.6 13.6 8.3 C 13.6 8.3 13.6 8.3 13.6 8.3 Z M 10.3 8.0 C 10.3 7.9 10.3 7.9 10.3 8.0 C 10.3 8.0 10.3 8.0 10.3 8.0 Z M 8.5 14.5 C 8.4 14.5 8.4 14.5 8.5 14.5 C 8.5 14.5 8.5 14.5 8.5 14.5 Z M 17.5 2.6 C 17.5 2.5 17.5 2.5 17.5 2.6 C 17.5 2.6 17.5 2.6 17.5 2.6 Z M 6.0 19.6 C 5.9 19.6 5.9 19.6 6.0 19.6 C 6.0 19.6 6.0 19.6 6.0 19.6 Z M 5.1 11.1 C 5.3 12.0 4.6 11.0 5.1 11.1 C 5.1 11.1 5.1 11.1 5.1 11.1 Z M 4.0 13.5 C 4.0 13.6 4.0 13.6 4.0 13.5 C 4.0 13.5 4.0 13.5 4.0 13.5 Z M 7.2 23.4 C 7.2 23.5 7.2 23.5 7.2 23.4 C 7.2 23.4 7.2 23.4 7.2 23.4 Z M 1.6 18.6 C 1.6 18.7 1.6 18.7 1.6 18.6 C 1.6 18.6 1.6 18.6 1.6 18.6 Z M 3.2 20.7 C 3.2 20.7 3.2 20.7 3.2 20.7 C 3.2 20.7 3.2 20.7 3.2 20.7 Z M 6.9 15.9 C 6.8 17.6 6.4 15.3 6.9 15.9 C 6.9 15.9 6.9 15.9 6.9 15.9 Z M 3.6 27.8 C 3.5 27.8 3.5 27.8 3.6 27.8 C 3.6 27.8 3.6 27.8 3.6 27.8 Z M 5.6 29.0 C 5.5 29.0 5.5 29.0 5.6 29.0 C 5.6 29.0 5.6 29.0 5.6 29.0 Z M 6.7 29.6 C 6.6 29.6 6.6 29.6 6.7 29.6 C 6.7 29.6 6.7 29.6 6.7 29.6 Z M 14.2 4.9 C 14.3 5.0 14.3 5.0 14.2 4.9 C 14.2 4.9 14.2 4.9 14.2 4.9 Z M 15.8 7.9 C 15.8 7.9 15.8 7.9 15.8 7.9 C 15.8 7.9 15.8 7.9 15.8 7.9 Z M 13.7 8.8 C 13.7 8.8 13.7 8.8 13.7 8.8 C 13.7 8.8 13.7 8.8 13.7 8.8 Z M 14.2 2.8 C 14.3 2.9 14.3 2.9 14.2 2.8 C 14.2 2.8 14.2 2.8 14.2 2.8 Z M 6.3 12.6 C 6.4 12.5 6.4 12.5 6.3 12.6 C 6.3 12.6 6.3 12.6 6.3 12.6 Z M 4.6 13.1 C 4.7 13.0 4.7 13.0 4.6 13.1 C 4.6 13.1 4.6 13.1 4.6 13.1 Z M 4.5 9.5 C 4.6 9.5 4.6 9.5 4.5 9.5 C 4.5 9.5 4.5 9.5 4.5 9.5 Z M 3.2 13.6 C 3.3 13.6 3.3 13.6 3.2 13.6 C 3.2 13.6 3.2 13.6 3.2 13.6 Z M 22.0 2.6 C 22.0 2.6 22.0 2.6 22.0 2.6 C 22.0 2.6 22.0 2.6 22.0 2.6 Z M 22.3 5.1 C 22.3 5.0 22.3 5.0 22.3 5.1 C 22.3 5.1 22.3 5.1 22.3 5.1 Z M 7.8 13.7 C 8.1 14.3 6.8 14.2 7.8 13.7 M 9.8 10.3 C 9.7 10.2 9.7 10.2 9.8 10.3 C 9.8 10.3 9.8 10.3 9.8 10.3 Z M 6.5 19.3 C 5.4 19.7 7.1 17.5 6.5 19.3 C 6.5 19.3 6.5 19.3 6.5 19.3 Z M 2.5 16.8 C 2.5 16.8 2.5 16.8 2.5 16.8 C 2.5 16.8 2.5 16.8 2.5 16.8 Z M 2.8 17.9 C 2.7 18.0 2.7 18.0 2.8 17.9 C 2.8 17.9 2.8 17.9 2.8 17.9 Z M 5.3 25.0 C 5.2 25.1 5.2 25.1 5.3 25.0 M 10.7 10.6 C 10.0 10.6 10.2 10.6 10.7 10.6 M 6.4 20.7 C 6.3 20.6 6.3 20.6 6.4 20.7 C 6.4 20.7 6.4 20.7 6.4 20.7 Z M 5.8 26.9 C 5.8 26.8 5.8 26.8 5.8 26.9 C 5.8 26.9 5.8 26.9 5.8 26.9 Z M 12.4 8.4 C 11.7 7.4 12.3 7.4 12.4 8.4 M 19.2 6.2 C 19.2 6.2 19.2 6.2 19.2 6.2 C 19.2 6.2 19.2 6.2 19.2 6.2 Z M 6.7 34.4 C 8.0 31.9 6.1 31.9 6.1 31.9 C 8.6 32.1 5.1 29.7 4.6 30.2 C 4.2 30.1 -0.2 32.0 2.5 33.7 C 2.8 34.2 2.0 34.5 2.0 34.8 C 2.1 37.9 3.3 32.7 3.3 36.4 C 3.0 37.1 0.9 36.3 2.3 38.5 C 2.1 38.6 1.3 41.1 2.3 40.2 C 1.3 41.3 2.5 42.1 2.7 43.2 C 2.2 44.2 1.2 42.4 2.4 45.9 C 0.6 47.5 3.7 48.0 1.8 49.4 C 1.7 50.3 4.9 51.7 3.1 49.6 C 3.3 49.9 4.8 48.6 4.2 51.4 C 3.8 51.0 0.6 49.4 2.1 53.9 C 2.1 54.6 2.9 56.3 2.5 56.7 C 2.2 54.4 1.1 59.8 2.1 59.2 C 1.4 62.8 2.9 60.7 1.8 63.3 C 1.8 65.4 3.3 62.6 2.4 65.2 C 2.6 67.2 1.8 65.9 1.8 65.7 C 1.7 67.3 2.3 68.0 2.2 68.6 C 2.1 68.9 1.4 69.7 2.2 70.1 C 3.7 71.9 5.1 70.3 6.6 71.1 C 7.3 69.8 5.5 70.5 6.6 69.6 C 5.6 68.9 6.6 69.5 6.4 65.9 C 6.2 66.0 5.6 66.9 5.5 66.0 C 5.6 64.6 8.1 65.6 6.3 63.3 C 5.8 66.0 5.5 59.5 5.0 62.0 C 4.7 58.8 5.2 61.1 5.8 58.8 C 4.1 58.9 7.6 58.6 6.3 57.8 C 6.9 57.6 6.6 54.0 5.6 56.5 C 5.2 52.8 6.1 55.2 7.0 53.8 C 7.1 52.1 4.3 53.7 6.4 52.6 C 7.3 50.4 5.3 52.5 6.9 50.9 C 5.5 51.6 7.0 49.3 5.4 49.9 C 5.3 46.1 7.1 50.4 6.0 47.7 C 5.9 48.5 8.0 48.2 6.7 46.5 C 4.2 47.2 8.8 44.4 5.6 45.6 C 4.6 40.2 6.9 44.7 6.9 41.7 C 6.9 41.0 5.9 42.6 5.8 41.9 C 6.3 38.1 7.1 41.2 5.6 39.3 C 5.1 35.5 6.9 38.2 7.0 36.3 C 6.3 36.2 5.0 34.7 6.7 34.4 M 5.9 37.7 C 6.4 38.5 5.4 38.2 5.9 37.7 M 6.7 30.2 C 7.2 31.0 6.1 30.7 6.7 30.2 M 6.4 40.8 C 6.9 41.8 5.5 41.1 6.4 40.8 M 5.6 60.9 C 5.6 59.5 6.0 61.5 5.6 60.9 M 6.8 33.2 C 7.4 34.3 5.9 33.5 6.8 33.2 M 5.5 31.8 C 5.5 31.9 5.5 31.9 5.5 31.8 M 6.9 62.9 C 6.9 63.0 6.9 63.0 6.9 62.9 M 6.9 57.5 C 6.9 58.6 6.6 56.9 6.9 57.5 M 1.6 57.3 C 1.5 58.5 1.2 56.6 1.6 57.3 M 7.0 65.8 C 7.4 67.0 6.4 66.2 7.0 65.8 M 5.8 68.8 C 6.3 69.9 5.2 69.5 5.8 68.8 M 4.0 37.0 C 4.0 37.0 4.0 37.0 4.0 37.0 C 4.0 37.0 4.0 37.0 4.0 37.0 Z M 2.7 46.9 C 3.2 45.7 2.0 48.3 2.7 46.9 M 6.2 45.1 C 5.1 45.9 6.3 43.5 6.2 45.1 C 6.2 45.1 6.2 45.1 6.2 45.1 Z M 5.7 43.3 C 5.7 43.3 5.7 43.3 5.7 43.3 C 5.7 43.3 5.7 43.3 5.7 43.3 Z M 5.6 48.9 C 5.6 48.9 5.6 48.9 5.6 48.9 C 5.6 48.9 5.6 48.9 5.6 48.9 Z M 5.6 47.8 C 5.3 47.3 5.8 47.1 5.6 47.8 C 5.6 47.8 5.6 47.8 5.6 47.8 Z M 2.1 55.9 C 1.9 55.4 2.3 55.3 2.1 55.9 C 2.1 55.9 2.1 55.9 2.1 55.9 Z M 5.2 46.0 C 4.1 45.9 5.9 45.2 5.2 46.0 C 5.2 46.0 5.2 46.0 5.2 46.0 Z M 2.6 52.0 C 2.9 52.5 1.5 53.0 2.6 52.0 M 6.7 64.0 C 7.0 64.5 5.7 65.1 6.7 64.0 M 7.0 52.2 C 7.3 52.7 6.0 53.3 7.0 52.2 M 6.4 38.3 C 6.3 38.5 6.3 38.5 6.4 38.3 M 1.6 44.9 C 2.0 45.6 1.2 45.3 1.6 44.9 M 2.0 33.8 C 2.4 34.5 1.5 34.1 2.0 33.8 M 1.7 62.3 C 2.0 62.3 1.5 63.5 1.7 62.3 M 5.3 53.6 C 5.1 54.6 4.5 55.7 4.6 53.5 C 4.9 53.4 5.0 54.1 5.3 53.6 C 5.3 53.6 5.3 53.6 5.3 53.6 Z M 2.8 57.3 C 2.7 57.5 2.7 57.5 2.8 57.3 M 6.3 55.4 C 6.2 55.6 6.2 55.6 6.3 55.4 M 6.2 61.5 C 6.0 61.6 6.0 61.6 6.2 61.5 M 6.5 62.2 C 6.4 62.2 6.4 62.2 6.5 62.2 C 6.5 62.2 6.5 62.2 6.5 62.2 Z M 6.9 68.9 C 6.9 68.8 6.9 68.8 6.9 68.9 C 6.9 68.9 6.9 68.9 6.9 68.9 Z M 6.0 59.6 C 6.0 59.5 6.0 59.5 6.0 59.6 C 6.0 59.6 6.0 59.6 6.0 59.6 Z M 1.9 65.0 C 1.8 65.0 1.8 65.0 1.9 65.0 C 1.9 65.0 1.9 65.0 1.9 65.0 Z M 2.5 64.3 C 2.5 64.3 2.5 64.3 2.5 64.3 C 2.5 64.3 2.5 64.3 2.5 64.3 Z M 6.7 34.9 C 7.4 35.8 4.8 35.4 6.7 34.9 M 2.5 67.3 C 1.8 68.1 2.4 65.7 2.5 67.3 C 2.5 67.3 2.5 67.3 2.5 67.3 Z M 5.1 58.8 C 5.0 58.9 5.0 58.9 5.1 58.8 M 6.4 62.6 C 6.2 62.7 6.2 62.7 6.4 62.6 M 7.2 45.0 C 7.1 45.1 7.1 45.1 7.2 45.0 M 6.2 67.3 C 5.9 70.1 4.6 66.0 6.2 67.3 M 6.2 43.7 C 6.3 43.7 6.3 43.7 6.2 43.7 M 4.1 50.1 C 4.2 52.0 3.5 49.4 4.1 50.1 M 5.5 54.9 C 5.5 54.8 5.5 54.8 5.5 54.9 C 5.5 54.9 5.5 54.9 5.5 54.9 Z M 5.5 52.1 C 5.4 50.7 5.8 51.7 5.5 52.1 C 5.5 52.1 5.5 52.1 5.5 52.1 Z M 5.7 36.2 C 5.5 38.0 5.3 34.4 5.7 36.2 C 5.7 36.2 5.7 36.2 5.7 36.2 Z M 3.6 66.0 C 3.6 65.9 3.6 65.9 3.6 66.0 C 3.6 66.0 3.6 66.0 3.6 66.0 Z M 6.8 59.2 C 6.5 58.4 7.1 58.8 6.8 59.2 C 6.8 59.2 6.8 59.2 6.8 59.2 Z M 6.9 69.9 C 6.6 69.0 7.2 69.5 6.9 69.9 C 6.9 69.9 6.9 69.9 6.9 69.9 Z M 5.9 34.1 C 4.1 40.6 6.3 25.4 5.9 34.1 C 5.9 34.1 5.9 34.1 5.9 34.1 Z M 6.2 53.2 C 6.2 53.2 6.2 53.2 6.2 53.2 C 6.2 53.2 6.2 53.2 6.2 53.2 Z M 7.0 41.1 C 6.9 41.1 6.9 41.1 7.0 41.1 C 7.0 41.1 7.0 41.1 7.0 41.1 Z M 6.0 39.1 C 5.9 39.1 5.9 39.1 6.0 39.1 C 6.0 39.1 6.0 39.1 6.0 39.1 Z M 1.7 39.7 C 1.7 39.6 1.7 39.6 1.7 39.7 C 1.7 39.7 1.7 39.7 1.7 39.7 Z M 3.7 40.4 C 3.6 40.3 3.6 40.3 3.7 40.4 C 3.7 40.4 3.7 40.4 3.7 40.4 Z M 3.0 36.2 C 2.9 36.1 2.9 36.1 3.0 36.2 C 3.0 36.2 3.0 36.2 3.0 36.2 Z M 2.4 36.2 C 2.4 36.2 2.4 36.2 2.4 36.2 C 2.4 36.2 2.4 36.2 2.4 36.2 Z M 5.2 62.6 C 5.1 62.6 5.1 62.6 5.2 62.6 C 5.2 62.6 5.2 62.6 5.2 62.6 Z M 3.4 60.4 C 4.0 61.9 2.5 59.9 3.4 60.4 C 3.4 60.4 3.4 60.4 3.4 60.4 Z M 4.3 46.9 C 4.5 48.3 3.7 46.0 4.3 46.9 C 4.3 46.9 4.3 46.9 4.3 46.9 Z M 2.0 48.4 C 1.9 48.4 1.9 48.4 2.0 48.4 C 2.0 48.4 2.0 48.4 2.0 48.4 Z M 7.0 39.1 C 6.9 39.0 6.9 39.0 7.0 39.1 C 7.0 39.1 7.0 39.1 7.0 39.1 Z M 6.3 36.5 C 5.4 36.4 6.7 35.7 6.3 36.5 M 6.8 49.5 C 6.7 49.5 6.7 49.5 6.8 49.5 C 6.8 49.5 6.8 49.5 6.8 49.5 Z M 5.4 57.7 C 5.3 57.6 5.3 57.6 5.4 57.7 C 5.4 57.7 5.4 57.7 5.4 57.7 Z M 6.0 65.8 C 5.9 65.8 5.9 65.8 6.0 65.8 C 6.0 65.8 6.0 65.8 6.0 65.8 Z M 6.7 54.6 C 6.6 54.5 6.6 54.5 6.7 54.6 C 6.7 54.6 6.7 54.6 6.7 54.6 Z M 5.9 50.7 C 5.8 50.7 5.8 50.7 5.9 50.7 C 5.9 50.7 5.9 50.7 5.9 50.7 Z M 4.7 67.6 C 4.7 67.5 4.7 67.5 4.7 67.6 C 4.7 67.6 4.7 67.6 4.7 67.6 Z M 6.8 55.5 C 6.8 55.4 6.8 55.4 6.8 55.5 C 6.8 55.5 6.8 55.5 6.8 55.5 Z M 4.0 57.8 C 3.9 57.8 3.9 57.8 4.0 57.8 C 4.0 57.8 4.0 57.8 4.0 57.8 Z M 7.6 36.9 C 7.5 36.9 7.5 36.9 7.6 36.9 C 7.6 36.9 7.6 36.9 7.6 36.9 Z M 5.9 67.7 C 5.9 67.6 5.9 67.6 5.9 67.7 C 5.9 67.7 5.9 67.7 5.9 67.7 Z M 6.7 68.2 C 6.7 68.1 6.7 68.1 6.7 68.2 C 6.7 68.2 6.7 68.2 6.7 68.2 Z M 2.5 62.4 C 3.0 59.5 2.7 65.0 3.6 62.9 C 3.9 67.0 2.4 63.0 2.5 62.4 C 2.5 62.4 2.5 62.4 2.5 62.4 Z M 7.1 72.0 C 5.8 70.4 4.7 70.4 3.4 71.1 C 2.8 71.9 5.2 71.9 3.2 71.9 C 2.8 70.1 0.1 72.7 2.7 72.7 C 3.1 75.1 1.0 73.0 2.1 74.5 C 2.4 77.0 1.6 75.7 1.7 77.7 C 3.2 78.8 1.0 78.8 2.4 79.4 C 0.9 78.4 2.8 81.4 2.1 81.5 C 1.2 78.9 2.2 90.3 2.6 84.4 C 3.3 86.8 2.0 86.3 1.9 87.0 C 2.8 87.9 1.3 90.4 2.3 91.3 C 2.5 91.1 2.5 90.5 2.8 90.4 C 3.3 90.0 2.8 91.6 2.8 91.4 C 3.2 92.1 4.5 94.7 2.5 92.0 C 1.8 91.9 3.3 94.3 2.7 94.3 C 3.3 96.9 4.0 94.4 3.6 96.2 C 4.4 98.4 5.5 99.7 5.6 99.6 C 6.3 100.8 6.0 101.6 7.4 101.9 C 8.4 105.0 10.6 100.7 9.9 103.9 C 11.0 103.7 10.7 105.8 11.5 104.1 C 10.2 104.4 15.0 106.9 13.5 105.0 C 14.2 104.8 16.5 107.7 16.4 105.7 C 17.6 104.5 17.4 103.1 16.0 101.4 C 15.9 102.5 14.4 99.8 15.2 102.0 C 16.6 103.0 12.0 101.4 13.3 101.3 C 14.5 99.4 10.1 101.0 10.4 99.1 C 10.4 100.3 7.2 97.4 9.2 97.3 C 8.9 96.6 8.1 96.8 8.5 95.6 C 9.6 97.8 6.5 95.5 7.5 95.2 C 8.3 95.4 7.8 92.2 6.9 92.7 C 4.9 94.3 7.2 91.8 6.2 91.3 C 5.5 89.5 8.2 91.5 6.4 90.2 C 6.6 89.7 6.5 86.8 7.1 88.6 C 6.9 89.4 4.4 86.8 6.4 86.4 C 7.6 90.2 7.0 81.4 6.4 83.0 C 5.9 86.6 5.5 84.7 5.5 82.5 C 5.5 80.4 5.7 79.0 6.2 81.1 C 7.3 78.7 6.7 81.8 6.2 78.8 C 5.6 79.2 5.0 76.9 6.2 77.4 C 8.1 77.0 3.7 76.6 6.3 74.8 C 7.4 74.5 5.5 71.2 6.7 72.5 C 6.8 72.6 7.1 72.1 7.1 72.0 M 6.8 73.1 C 6.4 72.7 7.4 72.4 6.8 73.1 M 6.4 72.6 C 6.5 72.6 6.5 72.6 6.4 72.6 C 6.4 72.6 6.4 72.6 6.4 72.6 Z M 6.1 78.4 C 6.2 78.3 6.2 78.3 6.1 78.4 C 6.1 78.4 6.1 78.4 6.1 78.4 Z M 1.4 83.4 C 1.4 83.4 1.4 83.4 1.4 83.4 C 1.4 83.4 1.4 83.4 1.4 83.4 Z M 6.0 82.5 C 6.0 82.4 6.0 82.4 6.0 82.5 C 6.0 82.5 6.0 82.5 6.0 82.5 Z M 5.8 76.3 C 5.8 76.3 5.8 76.3 5.8 76.3 C 5.8 76.3 5.8 76.3 5.8 76.3 Z M 6.7 82.0 C 6.0 82.4 7.2 80.1 6.8 82.1 C 6.8 82.1 6.8 81.8 6.7 82.0 M 7.1 87.9 C 7.0 87.9 7.0 87.9 7.1 87.9 M 4.1 98.9 C 4.1 99.0 4.1 99.0 4.1 98.9 M 9.3 96.6 C 9.3 96.7 9.3 96.7 9.3 96.6 M 6.7 92.0 C 7.0 93.1 6.4 92.4 6.7 92.0 M 11.2 99.2 C 10.3 97.9 12.8 100.0 11.2 99.2 M 12.7 99.8 C 12.8 99.9 12.8 99.9 12.7 99.8 M 8.0 94.8 C 8.0 94.8 8.0 94.8 8.0 94.8 C 8.0 94.8 8.0 94.8 8.0 94.8 Z M 6.9 91.5 C 7.1 90.0 7.8 92.9 6.9 91.5 M 6.8 79.0 C 7.2 80.1 5.9 79.0 6.8 79.0 M 6.4 76.8 C 6.4 76.8 6.4 76.8 6.4 76.8 C 6.4 76.8 6.4 76.8 6.4 76.8 Z M 9.5 97.4 C 9.5 97.4 9.5 97.4 9.5 97.4 C 9.5 97.4 9.5 97.4 9.5 97.4 Z M 10.8 98.7 C 10.8 98.6 10.8 98.6 10.8 98.7 C 10.8 98.7 10.8 98.7 10.8 98.7 Z M 10.8 105.0 C 10.8 105.0 10.8 105.0 10.8 105.0 C 10.8 105.0 10.8 105.0 10.8 105.0 Z M 4.2 78.5 C 4.6 77.0 6.0 80.0 4.7 79.7 C 4.1 79.8 4.4 78.6 4.2 78.5 M 5.2 90.6 C 3.5 91.1 7.5 89.1 5.2 90.6 M 12.3 100.9 C 12.4 103.4 11.6 98.8 12.3 100.9 M 14.7 101.6 C 15.2 102.2 10.4 100.1 14.1 101.0 C 14.6 100.8 14.6 101.3 14.7 101.6 M 6.2 88.0 C 5.2 88.4 6.5 85.6 6.2 88.0 M 4.8 96.3 C 5.7 96.8 7.1 98.2 5.7 98.0 C 4.6 98.7 3.9 95.7 4.8 96.3 M 5.8 73.5 C 7.4 74.7 4.5 73.5 5.8 73.5 M 5.7 79.3 C 5.8 79.4 5.8 79.4 5.7 79.3 C 5.7 79.3 5.7 79.3 5.7 79.3 Z M 5.9 81.7 C 5.8 81.8 5.8 81.8 5.9 81.7 M 7.2 74.5 C 7.1 74.6 7.1 74.6 7.2 74.5 M 6.2 95.6 C 6.2 95.8 6.2 95.8 6.2 95.6 M 6.3 91.8 C 5.0 93.7 5.8 90.9 6.3 91.8 M 2.9 87.0 C 2.2 87.8 2.8 85.5 2.9 87.0 M 7.5 94.3 C 6.4 95.8 5.7 93.2 7.5 94.3 M 6.3 90.9 C 6.3 91.0 6.3 91.0 6.3 90.9 C 6.3 90.9 6.3 90.9 6.3 90.9 Z M 4.9 97.0 C 4.9 96.9 4.9 96.9 4.9 97.0 C 4.9 97.0 4.9 97.0 4.9 97.0 Z M 5.3 97.6 C 5.2 97.5 5.2 97.5 5.3 97.6 C 5.3 97.6 5.3 97.6 5.3 97.6 Z M 8.2 95.6 C 8.2 95.6 8.2 95.6 8.2 95.6 C 8.2 95.6 8.2 95.6 8.2 95.6 Z M 2.4 76.6 C 2.2 78.2 2.1 75.4 2.4 76.6 C 2.4 76.6 2.4 76.6 2.4 76.6 Z M 6.7 84.4 C 5.5 87.6 5.6 82.1 6.7 84.4 C 6.7 84.4 6.7 84.4 6.7 84.4 Z M 4.8 87.7 C 4.8 87.7 4.8 87.7 4.8 87.7 C 4.8 87.7 4.8 87.7 4.8 87.7 Z M 8.1 93.3 C 8.1 93.4 8.1 93.4 8.1 93.3 C 8.1 93.3 8.1 93.3 8.1 93.3 Z M 2.2 77.4 C 2.1 77.4 2.1 77.4 2.2 77.4 C 2.2 77.4 2.2 77.4 2.2 77.4 Z M 9.9 99.1 C 9.8 99.2 9.8 99.2 9.9 99.1 C 9.9 99.1 9.9 99.1 9.9 99.1 Z M 3.4 93.1 C 4.1 93.5 3.0 93.3 3.4 93.1 C 3.4 93.1 3.4 93.1 3.4 93.1 Z M 3.9 95.1 C 3.9 95.2 3.9 95.2 3.9 95.1 C 3.9 95.1 3.9 95.1 3.9 95.1 Z M 13.2 99.9 C 13.2 99.9 13.2 99.9 13.2 99.9 C 13.2 99.9 13.2 99.9 13.2 99.9 Z M 6.2 101.7 C 6.3 101.8 6.3 101.8 6.2 101.7 C 6.2 101.7 6.2 101.7 6.2 101.7 Z M 9.0 102.0 C 9.0 102.0 9.0 102.0 9.0 102.0 C 9.0 102.0 9.0 102.0 9.0 102.0 Z M 7.8 95.5 C 8.9 97.2 7.0 95.3 7.8 95.5 C 7.8 95.5 7.8 95.5 7.8 95.5 Z M 14.5 104.3 C 14.6 104.4 14.6 104.4 14.5 104.3 C 14.5 104.3 14.5 104.3 14.5 104.3 Z M 15.9 102.5 C 15.9 102.6 15.9 102.6 15.9 102.5 C 15.9 102.5 15.9 102.5 15.9 102.5 Z M 16.6 101.6 C 16.6 101.7 16.6 101.7 16.6 101.6 C 16.6 101.6 16.6 101.6 16.6 101.6 Z M 3.8 81.6 C 3.8 81.5 3.8 81.5 3.8 81.6 C 3.8 81.6 3.8 81.6 3.8 81.6 Z M 7.1 80.6 C 7.1 80.6 7.1 80.6 7.1 80.6 C 7.1 80.6 7.1 80.6 7.1 80.6 Z M 7.2 84.6 C 7.2 84.6 7.2 84.6 7.2 84.6 C 7.2 84.6 7.2 84.6 7.2 84.6 Z M 1.8 81.0 C 1.8 81.0 1.8 81.0 1.8 81.0 C 1.8 81.0 1.8 81.0 1.8 81.0 Z M 5.3 93.3 C 5.3 93.2 5.3 93.2 5.3 93.3 C 5.3 93.3 5.3 93.3 5.3 93.3 Z M 4.2 94.5 C 4.2 94.4 4.2 94.4 4.2 94.5 C 4.2 94.5 4.2 94.5 4.2 94.5 Z M 2.0 92.5 C 2.0 92.5 2.0 92.5 2.0 92.5 C 2.0 92.5 2.0 92.5 2.0 92.5 Z M 3.3 95.6 C 3.3 95.5 3.3 95.5 3.3 95.6 C 3.3 95.6 3.3 95.6 3.3 95.6 Z M 2.4 73.0 C 2.4 72.9 2.4 72.9 2.4 73.0 C 2.4 73.0 2.4 73.0 2.4 73.0 Z M 4.9 72.7 C 4.8 72.7 4.8 72.7 4.9 72.7 C 4.9 72.7 4.9 72.7 4.9 72.7 Z M 7.1 93.1 C 7.7 93.4 6.6 94.1 7.1 93.1 M 6.3 89.7 C 6.2 89.7 6.2 89.7 6.3 89.7 C 6.3 89.7 6.3 89.7 6.3 89.7 Z M 10.0 98.6 C 9.6 99.6 9.1 96.9 10.0 98.6 C 10.0 98.6 10.0 98.6 10.0 98.6 Z M 5.2 99.4 C 5.2 99.4 5.2 99.4 5.2 99.4 C 5.2 99.4 5.2 99.4 5.2 99.4 Z M 6.4 100.2 C 6.4 100.3 6.4 100.3 6.4 100.2 C 6.4 100.2 6.4 100.2 6.4 100.2 Z M 13.3 102.1 C 13.4 102.3 13.4 102.3 13.3 102.1 M 7.1 89.1 C 6.7 89.8 6.8 89.6 7.1 89.1 M 10.9 99.5 C 10.9 99.5 10.9 99.5 10.9 99.5 C 10.9 99.5 10.9 99.5 10.9 99.5 Z M 14.6 102.0 C 14.6 102.0 14.6 102.0 14.6 102.0 C 14.6 102.0 14.6 102.0 14.6 102.0 Z M 6.3 85.9 C 5.1 86.1 5.4 85.4 6.3 85.9 M 5.9 75.9 C 5.8 75.9 5.8 75.9 5.9 75.9 C 5.9 75.9 5.9 75.9 5.9 75.9 Z M 5.9 75.9 " fill="#94D9F6"></path><g><clipPath id="clip-30"><path d="M 3.8 4.5 L 149.8 4.5 L 149.8 104.5 L 3.8 104.5 Z M 3.8 4.5 "></path></clipPath><g clip-path="url(#clip-30)"><text xml:space="preserve" font-family="DINCondensed-Bold" font-weight="bold" font-size="30.0" fill="#FEFFFE" transform="matrix(1.00, 0.00, -0.00, -1.00, 27.0, 51.0)">S</text><text xml:space="preserve" font-family="DINCondensed-Bold" font-weight="bold" font-size="30.0" fill="#FEFFFE" transform="matrix(1.00, 0.00, -0.00, -1.00, 39.2, 51.0)">t</text><text xml:space="preserve" font-family="DINCondensed-Bold" font-weight="bold" font-size="30.0" fill="#FEFFFE" transform="matrix(1.00, 0.00, -0.00, -1.00, 45.3, 51.0)">a</text><text xml:space="preserve" font-family="DINCondensed-Bold" font-weight="bold" font-size="30.0" fill="#FEFFFE" transform="matrix(1.00, 0.00, -0.00, -1.00, 56.4, 51.0)">g</text><text xml:space="preserve" font-family="DINCondensed-Bold" font-weight="bold" font-size="30.0" fill="#FEFFFE" transform="matrix(1.00, 0.00, -0.00, -1.00, 68.1, 51.0)">e</text><text xml:space="preserve" font-family="DINCondensed-Bold" font-weight="bold" font-size="30.0" fill="#FEFFFE" transform="matrix(1.00, 0.00, -0.00, -1.00, 79.2, 51.0)"> </text><text xml:space="preserve" font-family="DINCondensed-Bold" font-weight="bold" font-size="30.0" fill="#FEFFFE" transform="matrix(1.00, 0.00, -0.00, -1.00, 84.8, 51.0)">A</text><text xml:space="preserve" font-family="DINCondensed-Bold" font-weight="bold" font-size="30.0" fill="#FEFFFE" transform="matrix(1.00, 0.00, -0.00, -1.00, 97.0, 51.0)">r</text><text xml:space="preserve" font-family="DINCondensed-Bold" font-weight="bold" font-size="30.0" fill="#FEFFFE" transform="matrix(1.00, 0.00, -0.00, -1.00, 105.3, 51.0)">e</text><text xml:space="preserve" font-family="DINCondensed-Bold" font-weight="bold" font-size="30.0" fill="#FEFFFE" transform="matrix(1.00, 0.00, -0.00, -1.00, 116.4, 51.0)">a</text></g></g></g></svg>