<?xml version="1.0" encoding="UTF-8" standalone="no"?><svg xmlns="http://www.w3.org/2000/svg" xmlns:xlink="http://www.w3.org/1999/xlink" clip-rule="evenodd" stroke-miterlimit="4.00" viewBox="0 0 180 123"><desc>SVG generated by Keynote</desc><defs></defs><g transform="matrix(1.00, 0.00, -0.00, -1.00, 0.0, 123.0)"><path d="M 40.7 116.7 C 40.4 116.9 39.7 116.7 39.5 116.8 M 40.7 116.7 C 40.0 115.6 38.7 115.6 36.9 115.4 C 35.0 115.3 37.0 116.4 36.8 116.8 C 34.3 117.3 34.3 116.5 34.6 115.3 C 33.7 116.1 30.8 114.7 31.4 116.1 C 35.4 116.1 28.6 116.5 31.9 117.4 C 32.3 117.6 31.3 118.0 31.0 118.0 C 32.1 118.6 30.2 119.3 32.0 119.8 C 32.2 120.7 31.9 120.3 33.0 121.0 C 33.5 121.1 33.3 120.8 33.3 120.6 C 33.4 119.5 34.6 121.2 35.6 120.5 C 36.4 121.9 37.3 120.3 36.6 119.7 C 37.4 119.8 38.4 121.3 39.3 120.3 C 39.7 121.0 42.0 120.5 40.7 119.6 C 39.7 119.0 40.8 118.6 40.9 118.3 C 40.6 118.0 39.2 118.4 39.0 118.2 C 39.4 117.9 41.2 117.4 39.3 117.5 C 39.9 117.0 39.0 116.7 40.7 116.7 C 40.7 116.7 40.7 116.7 40.7 116.7 Z M 33.9 115.9 C 33.9 115.5 34.6 115.9 33.9 115.9 C 33.9 115.9 33.9 115.9 33.9 115.9 Z M 38.5 121.0 C 38.5 120.6 39.2 121.0 38.5 121.0 C 38.5 121.0 38.5 121.0 38.5 121.0 Z M 33.6 120.6 C 33.6 120.2 34.2 120.6 33.6 120.6 C 33.6 120.6 33.6 120.6 33.6 120.6 Z M 35.7 116.2 C 36.8 116.5 34.8 116.7 34.6 116.3 C 34.9 116.4 35.4 115.8 35.7 116.2 C 35.7 116.2 35.7 116.2 35.7 116.2 Z M 35.8 118.4 C 35.9 118.2 36.4 118.2 36.3 118.6 C 36.0 118.7 35.8 118.5 35.8 118.4 C 35.8 118.4 35.8 118.4 35.8 118.4 Z M 30.5 116.8 C 30.6 116.7 31.1 116.6 31.0 117.0 C 30.7 117.1 30.5 116.9 30.5 116.8 C 30.5 116.8 30.5 116.8 30.5 116.8 Z M 36.9 117.2 C 37.2 117.2 37.3 117.6 36.9 117.6 C 36.8 117.5 36.0 117.4 36.9 117.2 C 36.9 117.2 36.9 117.2 36.9 117.2 Z M 38.6 115.9 C 39.5 116.1 37.7 116.7 37.7 116.5 C 37.4 116.2 38.1 115.6 38.6 115.9 C 38.6 115.9 38.6 115.9 38.6 115.9 Z M 37.4 117.7 C 38.2 117.9 37.1 118.0 37.4 117.7 C 37.4 117.7 37.4 117.7 37.4 117.7 Z M 31.3 119.6 C 32.0 119.8 31.0 119.9 31.3 119.6 C 31.3 119.6 31.3 119.6 31.3 119.6 Z M 35.2 120.8 C 35.9 121.0 34.9 121.1 35.2 120.8 C 35.2 120.8 35.2 120.8 35.2 120.8 Z M 33.7 116.9 C 32.4 116.9 33.5 115.9 33.7 116.9 C 33.7 116.9 33.7 116.9 33.7 116.9 Z M 40.6 115.8 C 39.3 115.8 40.5 114.8 40.6 115.8 C 40.6 115.8 40.6 115.8 40.6 115.8 Z M 28.1 116.2 C 29.7 116.0 24.0 114.7 26.0 116.2 C 26.6 117.4 23.2 117.3 24.0 116.1 C 23.1 116.0 23.1 115.9 22.6 116.5 C 22.5 115.5 20.6 115.0 20.0 115.4 C 19.5 116.1 21.1 115.6 20.0 116.3 C 17.8 116.3 20.1 117.2 19.1 118.1 C 19.0 118.1 19.0 117.6 18.8 117.8 C 18.6 118.8 19.9 119.6 19.2 120.2 C 19.6 120.1 21.3 121.3 20.6 120.4 C 20.4 119.5 22.7 121.6 22.6 120.1 C 23.2 120.8 24.0 119.9 24.6 120.8 C 25.2 121.0 25.2 120.2 25.1 120.0 C 25.1 119.3 25.8 121.5 26.7 120.3 C 26.8 120.7 29.7 120.6 27.5 120.0 C 28.1 120.1 31.7 120.4 29.8 119.1 C 27.9 118.7 30.2 118.1 30.4 117.9 C 30.4 117.8 30.4 117.8 30.4 117.8 C 30.3 117.7 30.1 117.7 29.4 117.7 C 27.2 117.5 26.9 117.8 28.5 117.1 C 28.9 117.2 31.5 117.1 29.3 116.5 C 28.8 116.6 27.9 116.5 28.1 116.2 C 28.1 116.2 28.1 116.2 28.1 116.2 Z M 28.6 118.1 C 27.3 118.2 28.5 117.6 28.6 118.1 C 28.6 118.1 28.6 118.1 28.6 118.1 Z M 24.5 121.1 C 23.5 121.1 24.4 120.6 24.5 121.1 C 24.5 121.1 24.5 121.1 24.5 121.1 Z M 24.7 115.8 C 24.2 116.2 24.1 114.8 24.7 115.8 C 24.7 115.8 24.7 115.8 24.7 115.8 Z M 26.3 120.0 C 26.2 120.0 26.5 119.8 26.7 119.7 C 26.7 119.8 26.4 120.0 26.3 120.0 C 26.3 120.0 26.3 120.0 26.3 120.0 Z M 23.1 115.7 C 21.8 116.4 22.9 114.7 23.1 115.7 C 23.1 115.7 23.1 115.7 23.1 115.7 Z M 20.5 116.9 C 20.3 118.3 19.4 116.5 20.5 116.9 C 20.5 116.9 20.5 116.9 20.5 116.9 Z M 22.1 120.0 C 22.4 119.7 22.3 120.2 22.1 120.0 C 22.1 120.0 22.1 120.0 22.1 120.0 Z M 29.1 120.3 C 29.4 120.0 29.4 120.5 29.1 120.3 C 29.1 120.3 29.1 120.3 29.1 120.3 Z M 20.5 119.8 C 20.6 119.3 20.9 120.1 20.5 119.8 C 20.5 119.8 20.5 119.8 20.5 119.8 Z M 24.4 116.3 C 25.8 115.3 26.0 118.0 24.4 116.3 C 24.4 116.3 24.4 116.3 24.4 116.3 Z M 27.0 116.3 C 28.1 116.0 26.8 116.9 26.4 116.8 C 26.4 116.7 26.9 116.3 27.0 116.3 C 27.0 116.3 27.0 116.3 27.0 116.3 Z M 23.1 116.4 C 24.0 115.9 23.9 116.7 23.1 116.4 C 23.1 116.4 23.1 116.4 23.1 116.4 Z M 25.4 115.9 C 25.9 116.0 25.0 116.0 25.4 115.9 C 25.4 115.9 25.4 115.9 25.4 115.9 Z M 21.6 115.2 C 21.9 115.4 21.3 115.3 21.6 115.2 C 21.6 115.2 21.6 115.2 21.6 115.2 Z M 28.4 115.7 C 28.9 115.8 27.9 115.8 28.4 115.7 C 28.4 115.7 28.4 115.7 28.4 115.7 Z M 21.8 115.9 C 21.7 116.4 22.6 117.6 20.8 116.5 C 20.5 116.2 21.4 115.5 21.8 115.9 C 21.8 115.9 21.8 115.9 21.8 115.9 Z M 44.5 116.8 C 39.1 115.2 40.4 117.9 40.1 118.4 C 39.4 119.1 40.1 119.6 41.2 120.1 C 42.3 121.8 42.9 118.4 43.7 120.1 C 45.2 122.3 45.4 118.1 46.0 120.5 C 45.8 121.1 47.9 120.6 47.7 120.4 C 48.8 121.6 50.3 119.5 50.3 119.3 C 51.0 119.7 51.1 121.8 53.3 120.2 C 54.9 119.6 55.7 121.7 55.2 120.3 C 56.5 121.9 56.1 119.8 57.3 120.3 C 58.2 121.2 57.4 119.0 58.9 120.7 C 59.6 119.3 58.2 121.6 62.4 120.6 C 60.4 120.5 64.4 119.5 63.6 120.4 C 62.1 121.4 65.5 120.1 67.4 120.7 C 67.9 120.2 70.2 118.9 69.8 120.3 C 71.8 121.9 71.8 119.3 72.7 120.6 C 73.4 121.2 73.6 120.0 74.0 120.1 C 74.7 121.1 75.4 120.4 77.8 120.7 C 83.2 121.2 78.6 118.2 80.7 117.9 C 81.0 117.4 78.0 114.2 79.2 116.6 C 78.8 115.9 74.4 118.4 76.6 115.8 C 75.0 116.8 77.0 114.7 73.6 116.0 C 78.2 117.8 68.4 116.7 72.8 115.8 C 72.1 115.2 70.3 115.4 71.6 115.8 C 72.1 117.5 68.4 115.0 70.3 117.1 C 67.4 116.5 68.2 118.4 67.4 117.1 C 66.7 114.9 67.5 117.7 66.1 117.0 C 62.8 117.0 65.3 114.4 63.3 116.1 C 60.1 115.0 62.6 117.1 61.5 117.4 C 61.2 118.9 58.1 116.2 60.6 116.0 C 59.3 116.8 60.4 115.3 58.9 116.2 C 60.0 117.7 57.0 114.7 57.4 115.9 C 56.1 116.2 56.8 117.1 56.4 117.1 C 54.4 117.1 55.0 115.7 54.6 116.8 C 54.1 117.3 53.2 115.5 52.9 116.0 C 55.0 116.0 51.3 117.5 51.0 116.7 C 52.3 116.6 50.4 114.8 49.6 115.9 C 50.6 119.1 47.8 115.1 46.9 116.2 C 47.8 118.0 42.4 116.5 44.5 115.7 C 44.3 115.8 44.5 116.8 44.5 116.8 M 52.3 116.2 C 54.0 116.3 50.5 116.5 52.3 116.2 M 52.3 115.7 C 53.0 116.3 50.7 115.3 52.4 115.6 C 52.4 115.6 52.2 115.7 52.3 115.7 M 59.2 115.7 C 59.0 116.2 58.3 115.4 59.2 115.7 M 60.6 116.8 C 61.7 117.2 59.1 116.8 60.6 116.8 M 75.9 116.4 C 74.4 119.0 74.3 115.0 75.9 116.4 M 65.8 115.9 C 63.9 116.2 66.4 114.8 65.8 115.9 M 65.2 116.5 C 64.3 117.0 65.0 116.0 65.2 116.5 M 73.0 116.4 C 73.1 116.5 73.1 116.5 73.0 116.4 C 73.0 116.4 73.0 116.4 73.0 116.4 Z M 77.6 116.5 C 77.6 116.4 77.6 116.4 77.6 116.5 C 77.6 116.5 77.6 116.5 77.6 116.5 Z M 68.6 116.7 C 67.2 116.1 70.9 116.4 68.6 116.7 C 68.6 116.7 68.6 116.7 68.6 116.7 Z M 75.4 120.4 C 75.3 120.4 75.3 120.4 75.4 120.4 C 75.4 120.4 75.4 120.4 75.4 120.4 Z M 51.0 117.4 C 51.0 117.4 51.0 117.4 51.0 117.4 C 51.0 117.4 51.0 117.4 51.0 117.4 Z M 45.8 116.4 C 45.9 116.8 44.9 116.1 45.8 116.4 C 45.8 116.4 45.8 116.4 45.8 116.4 Z M 41.6 119.3 C 41.6 119.4 41.6 119.4 41.6 119.3 C 41.6 119.3 41.6 119.3 41.6 119.3 Z M 49.3 118.7 C 49.2 118.8 49.2 118.8 49.3 118.7 C 49.3 118.7 49.3 118.7 49.3 118.7 Z M 50.0 116.8 C 49.2 115.4 52.0 117.2 50.0 116.8 C 50.0 116.8 50.0 116.8 50.0 116.8 Z M 66.8 120.2 C 66.9 119.6 68.0 120.5 66.8 120.2 C 66.8 120.2 66.8 120.2 66.8 120.2 Z M 60.8 117.3 C 61.0 117.0 61.5 117.5 60.8 117.3 C 60.8 117.3 60.8 117.3 60.8 117.3 Z M 57.9 115.4 C 58.1 115.1 58.7 115.6 57.9 115.4 C 57.9 115.4 57.9 115.4 57.9 115.4 Z M 45.9 116.0 C 46.0 115.9 46.0 115.9 45.9 116.0 C 45.9 116.0 45.9 116.0 45.9 116.0 Z M 47.8 117.1 C 46.5 115.8 49.8 117.8 47.8 117.1 C 47.8 117.1 47.8 117.1 47.8 117.1 Z M 45.6 117.5 C 46.3 118.0 43.9 117.2 45.6 117.5 M 46.8 119.5 C 48.4 118.9 45.4 121.9 46.8 119.5 C 46.8 119.5 46.8 119.5 46.8 119.5 Z M 54.8 120.0 C 54.9 120.1 54.9 120.1 54.8 120.0 C 54.8 120.0 54.8 120.0 54.8 120.0 Z M 54.0 116.2 C 55.4 116.2 53.1 116.5 54.0 116.2 C 54.0 116.2 54.0 116.2 54.0 116.2 Z M 42.0 115.9 C 43.4 115.9 41.1 116.2 42.0 115.9 C 42.0 115.9 42.0 115.9 42.0 115.9 Z M 59.5 118.7 C 61.7 118.5 58.1 119.4 59.5 118.7 C 59.5 118.7 59.5 118.7 59.5 118.7 Z M 67.8 117.2 C 67.9 117.2 67.9 117.2 67.8 117.2 C 67.8 117.2 67.8 117.2 67.8 117.2 Z M 69.3 116.7 C 69.4 116.7 69.4 116.7 69.3 116.7 C 69.3 116.7 69.3 116.7 69.3 116.7 Z M 75.8 118.0 C 75.9 118.1 75.9 118.1 75.8 118.0 C 75.8 118.0 75.8 118.0 75.8 118.0 Z M 70.7 116.0 C 70.8 116.0 70.8 116.0 70.7 116.0 C 70.7 116.0 70.7 116.0 70.7 116.0 Z M 75.2 116.4 C 75.3 116.4 75.3 116.4 75.2 116.4 C 75.2 116.4 75.2 116.4 75.2 116.4 Z M 74.6 115.2 C 74.7 115.3 74.7 115.3 74.6 115.2 C 74.6 115.2 74.6 115.2 74.6 115.2 Z M 64.7 121.0 C 64.7 121.1 64.7 121.1 64.7 121.0 C 64.7 121.0 64.7 121.0 64.7 121.0 Z M 48.4 115.6 C 48.5 115.7 48.5 115.7 48.4 115.6 C 48.4 115.6 48.4 115.6 48.4 115.6 Z M 74.9 116.9 C 74.9 116.9 74.9 116.9 74.9 116.9 C 74.9 116.9 74.9 116.9 74.9 116.9 Z M 63.9 117.9 C 64.0 119.1 63.0 116.4 64.2 117.9 C 64.2 117.9 63.9 117.8 63.9 117.9 M 65.4 119.8 C 65.4 119.8 65.4 119.8 65.4 119.8 C 65.4 119.8 65.4 119.8 65.4 119.8 Z M 60.5 120.5 C 60.4 120.5 60.4 120.5 60.5 120.5 C 60.5 120.5 60.5 120.5 60.5 120.5 Z M 70.0 115.8 C 69.8 115.2 71.2 116.3 69.8 115.8 M 75.8 120.0 C 75.6 119.4 77.1 120.5 75.7 120.0 M 40.4 116.3 C 40.2 116.8 39.5 116.0 40.4 116.3 M 59.4 121.1 C 59.2 121.6 58.4 120.8 59.4 121.1 M 61.7 119.7 C 61.5 119.0 62.9 120.1 61.5 119.7 M 72.4 120.0 C 72.5 120.0 72.5 120.0 72.4 120.0 C 72.4 120.0 72.4 120.0 72.4 120.0 Z M 56.1 116.3 C 56.2 116.3 56.2 116.3 56.1 116.3 C 56.1 116.3 56.1 116.3 56.1 116.3 Z M 62.1 117.6 C 61.3 116.8 63.2 118.2 62.1 117.6 M 54.3 117.8 C 53.1 116.7 56.2 118.1 54.3 117.8 M 78.4 120.3 C 77.1 119.0 79.4 121.0 78.4 120.3 M 71.8 117.0 C 70.4 115.7 72.8 117.7 71.8 117.0 M 57.3 116.8 C 57.2 116.2 58.7 117.2 57.3 116.8 M 43.5 116.2 C 42.3 116.1 45.2 115.7 43.5 116.2 M 69.2 120.0 C 69.2 120.0 69.2 120.0 69.2 120.0 C 69.2 120.0 69.2 120.0 69.2 120.0 Z M 47.7 121.1 C 47.8 121.2 47.8 121.2 47.7 121.1 C 47.7 121.1 47.7 121.1 47.7 121.1 Z M 80.1 116.0 C 80.2 116.1 80.2 116.1 80.1 116.0 C 80.1 116.0 80.1 116.0 80.1 116.0 Z M 70.9 117.6 C 71.0 117.7 71.0 117.7 70.9 117.6 C 70.9 117.6 70.9 117.6 70.9 117.6 Z M 77.6 115.8 C 77.6 115.9 77.6 115.9 77.6 115.8 C 77.6 115.8 77.6 115.8 77.6 115.8 Z M 66.8 118.6 C 66.8 118.7 66.8 118.7 66.8 118.6 C 66.8 118.6 66.8 118.6 66.8 118.6 Z M 65.9 115.3 C 66.0 115.3 66.0 115.3 65.9 115.3 C 65.9 115.3 65.9 115.3 65.9 115.3 Z M 61.4 116.7 C 61.4 116.8 61.4 116.8 61.4 116.7 C 61.4 116.7 61.4 116.7 61.4 116.7 Z M 68.0 115.6 C 70.8 115.4 66.6 116.7 68.0 115.6 C 68.0 115.6 68.0 115.6 68.0 115.6 Z M 63.3 118.9 C 63.3 118.9 63.3 118.9 63.3 118.9 C 63.3 118.9 63.3 118.9 63.3 118.9 Z M 62.9 116.5 C 64.6 115.6 63.8 118.1 62.9 116.5 M 55.3 115.8 C 55.8 115.3 55.6 116.5 55.3 115.8 M 52.3 120.1 C 52.3 120.2 52.3 120.2 52.3 120.1 C 52.3 120.1 52.3 120.1 52.3 120.1 Z M 53.1 119.8 C 53.2 119.8 53.2 119.8 53.1 119.8 C 53.1 119.8 53.1 119.8 53.1 119.8 Z M 53.4 115.6 C 53.5 115.6 53.5 115.6 53.4 115.6 C 53.4 115.6 53.4 115.6 53.4 115.6 Z M 53.2 121.0 C 53.3 121.0 53.3 121.0 53.2 121.0 C 53.2 121.0 53.2 121.0 53.2 121.0 Z M 64.9 115.4 C 64.9 115.4 64.9 115.4 64.9 115.4 C 64.9 115.4 64.9 115.4 64.9 115.4 Z M 78.9 115.4 C 78.9 115.4 78.9 115.4 78.9 115.4 C 78.9 115.4 78.9 115.4 78.9 115.4 Z M 43.9 119.6 C 44.0 119.7 44.0 119.7 43.9 119.6 C 43.9 119.6 43.9 119.6 43.9 119.6 Z M 66.3 116.7 C 66.4 116.8 66.4 116.8 66.3 116.7 C 66.3 116.7 66.3 116.7 66.3 116.7 Z M 50.3 119.9 C 50.3 119.9 50.3 119.9 50.3 119.9 C 50.3 119.9 50.3 119.9 50.3 119.9 Z M 65.4 116.4 C 65.5 116.4 65.5 116.4 65.4 116.4 C 65.4 116.4 65.4 116.4 65.4 116.4 Z M 68.7 120.3 C 68.8 120.3 68.8 120.3 68.7 120.3 C 68.7 120.3 68.7 120.3 68.7 120.3 Z M 71.7 121.0 C 71.8 121.0 71.8 121.0 71.7 121.0 C 71.7 121.0 71.7 121.0 71.7 121.0 Z M 68.5 118.0 C 68.6 118.0 68.6 118.0 68.5 118.0 C 68.5 118.0 68.5 118.0 68.5 118.0 Z M 49.3 118.5 C 43.8 117.4 53.7 118.0 49.3 118.5 M 69.5 118.2 C 65.6 118.0 72.5 117.0 69.5 118.2 C 69.9 117.9 69.5 118.2 69.5 118.2 M 81.5 115.5 C 79.9 116.7 79.9 117.9 80.6 119.1 C 81.4 119.7 81.3 117.3 81.4 119.4 C 79.6 119.7 82.2 122.4 82.1 119.8 C 84.5 119.4 82.5 121.5 83.9 120.4 C 86.5 120.2 85.2 121.0 87.1 120.8 C 88.3 119.3 88.3 121.5 88.8 120.1 C 87.8 121.6 90.9 119.7 90.9 120.4 C 89.1 121.3 97.7 120.4 93.0 120.0 C 94.9 119.3 94.6 120.5 95.2 120.7 C 96.1 119.8 98.4 121.4 99.5 120.5 C 99.3 120.3 98.7 120.3 98.5 120.0 C 98.2 119.4 99.9 120.1 99.7 120.1 C 100.4 119.7 103.5 118.8 100.2 120.4 C 100.1 121.1 102.9 120.1 102.8 120.7 C 105.7 120.7 103.5 119.3 104.8 120.4 C 106.8 120.4 108.3 120.4 108.3 120.2 C 109.5 120.4 109.7 121.2 110.9 120.4 C 113.3 122.0 112.6 117.4 113.5 120.5 C 114.3 119.7 114.9 121.7 114.8 119.8 C 114.0 120.7 119.1 121.3 116.9 119.9 C 117.5 119.5 120.7 121.9 120.2 119.9 C 121.3 118.5 121.1 117.1 118.7 115.8 C 118.9 116.9 116.0 114.6 117.9 116.5 C 120.0 117.2 114.0 117.2 115.2 116.5 C 115.6 114.3 112.3 117.9 111.0 116.3 C 112.1 117.2 107.1 117.6 108.6 116.0 C 107.6 115.8 107.4 116.6 106.4 115.6 C 109.4 115.8 105.3 117.4 105.5 116.4 C 106.0 115.7 101.6 115.2 102.0 116.2 C 103.6 118.5 100.9 115.7 100.1 116.6 C 97.7 117.1 100.5 114.6 98.7 116.3 C 98.2 116.1 95.0 116.0 97.0 115.6 C 97.8 115.8 95.1 118.1 94.7 116.1 C 98.2 115.0 90.8 115.5 91.9 116.1 C 97.3 117.2 86.3 117.4 90.5 116.3 C 88.1 115.2 91.2 115.9 88.2 116.3 C 88.6 116.9 86.3 117.6 86.9 116.3 C 86.4 114.4 86.1 118.8 84.3 116.2 C 84.0 115.1 80.7 117.1 82.0 115.8 C 82.1 115.7 81.6 115.5 81.5 115.5 M 82.5 115.7 C 82.2 116.1 81.9 115.2 82.5 115.7 M 82.1 116.1 C 82.1 116.1 82.1 116.1 82.1 116.1 C 82.1 116.1 82.1 116.1 82.1 116.1 Z M 87.8 116.4 C 87.8 116.3 87.8 116.3 87.8 116.4 C 87.8 116.4 87.8 116.4 87.8 116.4 Z M 92.3 121.1 C 92.3 121.1 92.3 121.1 92.3 121.1 C 92.3 121.1 92.3 121.1 92.3 121.1 Z M 91.6 116.5 C 91.5 116.5 91.5 116.5 91.6 116.5 C 91.6 116.5 91.6 116.5 91.6 116.5 Z M 85.8 116.7 C 85.7 116.7 85.7 116.7 85.8 116.7 C 85.8 116.7 85.8 116.7 85.8 116.7 Z M 91.2 115.8 C 91.5 116.5 89.9 115.3 91.3 115.7 C 91.4 115.7 91.1 115.7 91.2 115.8 M 96.2 115.5 C 96.2 115.6 96.2 115.6 96.2 115.5 M 107.1 121.1 C 107.1 121.2 107.1 121.2 107.1 121.1 M 108.0 115.5 C 108.1 115.6 108.1 115.6 108.0 115.5 M 101.1 116.2 C 102.6 116.2 101.5 116.6 101.1 116.2 M 111.9 115.9 C 110.1 115.4 114.0 115.5 111.9 115.9 M 113.8 115.5 C 114.0 115.5 114.0 115.5 113.8 115.5 M 105.2 115.7 C 105.2 115.8 105.2 115.8 105.2 115.7 C 105.2 115.7 105.2 115.7 105.2 115.7 Z M 100.5 116.0 C 98.5 115.6 102.5 115.3 100.5 116.0 M 88.5 115.7 C 89.6 115.4 88.5 116.6 88.5 115.7 M 86.2 116.1 C 86.2 116.1 86.2 116.1 86.2 116.1 C 86.2 116.1 86.2 116.1 86.2 116.1 Z M 108.9 115.8 C 108.8 115.8 108.8 115.8 108.9 115.8 C 108.9 115.8 108.9 115.8 108.9 115.8 Z M 111.1 115.7 C 111.0 115.7 111.0 115.7 111.1 115.7 C 111.1 115.7 111.1 115.7 111.1 115.7 Z M 114.7 120.9 C 114.7 120.9 114.7 120.9 114.7 120.9 C 114.7 120.9 114.7 120.9 114.7 120.9 Z M 87.9 118.3 C 86.4 117.9 89.4 116.6 89.1 117.8 C 89.3 118.4 88.1 118.2 87.9 118.3 M 99.0 117.5 C 99.4 119.3 97.6 115.1 99.0 117.5 M 114.1 116.6 C 115.5 118.7 112.2 115.1 114.1 116.6 M 117.1 116.3 C 117.9 116.7 111.5 116.5 116.0 115.9 C 116.4 115.6 116.8 116.0 117.1 116.3 M 96.2 116.4 C 96.7 117.4 93.9 116.0 96.2 116.4 M 105.3 119.3 C 106.1 118.7 107.9 118.1 107.1 119.2 C 107.1 120.6 104.5 119.9 105.3 119.3 M 83.0 116.7 C 84.2 115.1 82.9 118.0 83.0 116.7 M 88.8 116.8 C 88.8 116.8 88.8 116.8 88.8 116.8 C 88.8 116.8 88.8 116.8 88.8 116.8 Z M 91.0 116.6 C 91.1 116.7 91.1 116.7 91.0 116.6 M 83.9 115.3 C 84.0 115.4 84.0 115.4 83.9 115.3 M 105.3 117.7 C 105.4 117.8 105.4 117.8 105.3 117.7 M 100.7 116.7 C 102.9 118.2 99.5 117.0 100.7 116.7 M 95.2 119.7 C 95.9 120.4 93.9 119.7 95.2 119.7 M 104.3 116.1 C 105.9 117.5 102.1 117.5 104.3 116.1 M 99.6 116.5 C 99.7 116.5 99.7 116.5 99.6 116.5 C 99.6 116.5 99.6 116.5 99.6 116.5 Z M 105.9 119.5 C 105.9 119.5 105.9 119.5 105.9 119.5 C 105.9 119.5 105.9 119.5 105.9 119.5 Z M 106.6 119.4 C 106.5 119.5 106.5 119.5 106.6 119.4 C 106.6 119.4 106.6 119.4 106.6 119.4 Z M 106.2 115.9 C 106.2 115.9 106.2 115.9 106.2 115.9 C 106.2 115.9 106.2 115.9 106.2 115.9 Z M 86.1 120.2 C 87.6 120.3 84.8 120.4 86.1 120.2 C 86.1 120.2 86.1 120.2 86.1 120.2 Z M 93.0 115.8 C 95.6 117.0 91.2 116.9 93.0 115.8 C 93.0 115.8 93.0 115.8 93.0 115.8 Z M 96.0 117.7 C 96.0 117.8 96.0 117.8 96.0 117.7 C 96.0 117.7 96.0 117.7 96.0 117.7 Z M 103.3 115.2 C 103.3 115.2 103.3 115.2 103.3 115.2 C 103.3 115.2 103.3 115.2 103.3 115.2 Z M 86.9 120.4 C 86.9 120.5 86.9 120.5 86.9 120.4 C 86.9 120.4 86.9 120.4 86.9 120.4 Z M 110.7 116.7 C 110.7 116.8 110.7 116.8 110.7 116.7 C 110.7 116.7 110.7 116.7 110.7 116.7 Z M 101.7 119.7 C 102.2 119.2 101.8 120.2 101.7 119.7 C 101.7 119.7 101.7 119.7 101.7 119.7 Z M 104.0 119.7 C 104.1 119.7 104.1 119.7 104.0 119.7 C 104.0 119.7 104.0 119.7 104.0 119.7 Z M 114.4 115.3 C 114.4 115.3 114.4 115.3 114.4 115.3 C 114.4 115.3 114.4 115.3 114.4 115.3 Z M 110.0 121.1 C 110.1 121.1 110.1 121.1 110.0 121.1 C 110.0 121.1 110.0 121.1 110.0 121.1 Z M 112.0 119.4 C 111.9 119.4 111.9 119.4 112.0 119.4 C 112.0 119.4 112.0 119.4 112.0 119.4 Z M 105.8 116.3 C 108.1 116.0 105.3 116.9 105.8 116.3 C 105.8 116.3 105.8 116.3 105.8 116.3 Z M 117.8 118.9 C 117.8 119.0 117.8 119.0 117.8 118.9 C 117.8 118.9 117.8 118.9 117.8 118.9 Z M 118.9 116.9 C 119.0 117.0 119.0 117.0 118.9 116.9 C 118.9 116.9 118.9 116.9 118.9 116.9 Z M 119.5 115.8 C 119.6 115.9 119.6 115.9 119.5 115.8 C 119.5 115.8 119.5 115.8 119.5 115.8 Z M 91.0 118.7 C 90.9 118.7 90.9 118.7 91.0 118.7 C 91.0 118.7 91.0 118.7 91.0 118.7 Z M 90.0 115.5 C 90.0 115.4 90.0 115.4 90.0 115.5 C 90.0 115.5 90.0 115.5 90.0 115.5 Z M 93.2 115.3 C 93.2 115.3 93.2 115.3 93.2 115.3 C 93.2 115.3 93.2 115.3 93.2 115.3 Z M 90.4 120.7 C 90.4 120.7 90.4 120.7 90.4 120.7 C 90.4 120.7 90.4 120.7 90.4 120.7 Z M 102.3 117.9 C 102.3 117.9 102.3 117.9 102.3 117.9 C 102.3 117.9 102.3 117.9 102.3 117.9 Z M 103.4 119.3 C 103.4 119.2 103.4 119.2 103.4 119.3 C 103.4 119.3 103.4 119.3 103.4 119.3 Z M 100.7 121.0 C 100.7 121.0 100.7 121.0 100.7 121.0 C 100.7 121.0 100.7 121.0 100.7 121.0 Z M 104.3 120.4 C 104.3 120.4 104.3 120.4 104.3 120.4 C 104.3 120.4 104.3 120.4 104.3 120.4 Z M 82.4 120.1 C 82.4 120.2 82.4 120.2 82.4 120.1 C 82.4 120.1 82.4 120.1 82.4 120.1 Z M 82.2 117.6 C 82.1 117.7 82.1 117.7 82.2 117.6 C 82.2 117.6 82.2 117.6 82.2 117.6 Z M 102.7 116.1 C 103.2 115.6 103.8 116.8 102.7 116.1 M 98.1 116.4 C 98.1 116.5 98.1 116.5 98.1 116.4 C 98.1 116.4 98.1 116.4 98.1 116.4 Z M 110.3 116.2 C 110.9 117.2 108.2 115.7 110.3 116.2 C 110.3 116.2 110.3 116.2 110.3 116.2 Z M 107.9 120.4 C 107.9 120.4 107.9 120.4 107.9 120.4 C 107.9 120.4 107.9 120.4 107.9 120.4 Z M 109.1 120.0 C 109.2 120.1 109.2 120.1 109.1 120.0 C 109.1 120.0 109.1 120.0 109.1 120.0 Z M 115.6 117.3 C 115.8 117.4 115.8 117.4 115.6 117.3 M 97.6 115.5 C 98.2 116.0 98.1 115.9 97.6 115.5 M 111.8 116.3 C 111.8 116.3 111.8 116.3 111.8 116.3 C 111.8 116.3 111.8 116.3 111.8 116.3 Z M 117.1 116.7 C 117.0 116.7 117.0 116.7 117.1 116.7 C 117.1 116.7 117.1 116.7 117.1 116.7 Z M 94.3 116.2 C 94.5 117.4 93.8 117.1 94.3 116.2 M 85.3 116.6 C 85.3 116.7 85.3 116.7 85.3 116.6 C 85.3 116.6 85.3 116.6 85.3 116.6 Z M 124.3 115.8 C 121.8 114.5 121.8 116.4 121.8 116.4 C 122.1 113.9 119.6 117.5 120.1 118.0 C 120.0 118.3 121.9 122.7 123.7 120.1 C 124.1 119.7 124.4 120.5 124.7 120.6 C 127.8 120.5 122.7 119.2 126.3 119.2 C 127.0 119.5 126.2 121.7 128.4 120.2 C 128.5 120.4 131.0 121.2 130.0 120.2 C 131.2 121.2 131.9 120.0 133.0 119.8 C 134.0 120.4 132.2 121.3 135.8 120.1 C 137.3 121.9 137.8 118.9 139.2 120.8 C 140.1 120.8 141.4 117.6 139.4 119.5 C 139.7 119.3 138.4 117.7 141.2 118.3 C 140.8 118.7 139.2 121.9 143.6 120.4 C 144.3 120.5 146.0 119.6 146.4 120.0 C 144.1 120.3 149.5 121.4 148.9 120.4 C 150.7 120.8 151.7 120.6 152.0 120.4 C 152.4 120.3 152.6 120.2 154.1 120.7 C 156.5 120.7 153.4 119.3 156.2 120.1 C 158.3 119.8 156.9 120.7 156.7 120.6 C 158.4 120.7 158.9 120.1 159.5 120.1 C 159.9 120.2 160.7 120.8 160.9 119.9 C 162.3 118.3 160.7 117.0 161.0 115.5 C 160.0 114.9 160.8 116.7 159.9 115.6 C 159.5 116.6 160.2 115.7 156.7 116.0 C 156.8 116.2 157.7 116.8 156.9 116.9 C 155.5 116.9 156.6 114.4 154.0 116.2 C 157.1 116.7 149.3 117.0 152.5 117.5 C 148.6 117.8 150.8 117.3 148.5 116.7 C 148.6 118.4 148.3 114.9 147.5 116.3 C 147.3 115.6 143.7 115.9 146.3 116.9 C 142.6 117.3 144.9 116.4 143.6 115.5 C 141.9 115.4 143.5 118.2 142.4 116.2 C 140.2 115.2 142.3 117.2 140.7 115.6 C 141.4 117.0 139.1 115.6 139.7 117.1 C 135.9 117.2 140.1 115.5 137.5 116.6 C 138.3 116.6 138.0 114.5 136.3 115.9 C 137.0 118.3 134.2 113.7 135.4 117.0 C 130.1 117.9 134.5 115.6 131.6 115.6 C 130.9 115.6 132.4 116.7 131.7 116.7 C 128.0 116.2 131.1 115.4 129.1 117.0 C 125.4 117.4 128.1 115.6 126.3 115.5 C 126.1 116.3 124.6 117.6 124.3 115.8 M 127.6 116.6 C 128.3 116.1 128.1 117.2 127.6 116.6 M 120.2 115.9 C 120.9 115.4 120.6 116.4 120.2 115.9 M 130.6 116.2 C 131.7 115.6 131.0 117.0 130.6 116.2 M 151.1 116.9 C 149.2 116.9 151.9 116.5 151.1 116.9 M 123.1 115.8 C 124.2 115.1 123.4 116.6 123.1 115.8 M 121.8 117.0 C 121.8 117.1 121.8 117.1 121.8 117.0 M 153.5 115.6 C 153.6 115.6 153.6 115.6 153.5 115.6 M 147.2 115.6 C 148.4 115.6 146.6 115.9 147.2 115.6 M 147.0 121.0 C 148.2 121.0 146.4 121.3 147.0 121.0 M 156.6 115.5 C 157.7 115.0 157.0 116.1 156.6 115.5 M 159.4 116.5 C 160.2 115.9 160.0 117.0 159.4 116.5 M 126.9 118.5 C 126.9 118.6 126.9 118.6 126.9 118.5 C 126.9 118.5 126.9 118.5 126.9 118.5 Z M 136.7 119.8 C 135.6 119.3 138.1 120.5 136.7 119.8 M 134.9 116.3 C 135.7 117.4 133.4 116.2 134.9 116.3 C 134.9 116.3 134.9 116.3 134.9 116.3 Z M 133.2 116.8 C 133.2 116.9 133.2 116.9 133.2 116.8 C 133.2 116.8 133.2 116.8 133.2 116.8 Z M 138.7 116.9 C 138.7 116.9 138.7 116.9 138.7 116.9 C 138.7 116.9 138.7 116.9 138.7 116.9 Z M 137.6 117.0 C 137.1 117.2 136.9 116.7 137.6 117.0 C 137.6 117.0 137.6 117.0 137.6 117.0 Z M 145.6 120.4 C 145.2 120.7 145.0 120.2 145.6 120.4 C 145.6 120.4 145.6 120.4 145.6 120.4 Z M 135.8 117.3 C 135.7 118.4 135.1 116.6 135.8 117.3 C 135.8 117.3 135.8 117.3 135.8 117.3 Z M 141.8 119.9 C 142.3 119.7 142.8 121.0 141.8 119.9 M 154.8 115.8 C 155.3 115.5 156.0 116.8 154.8 115.8 M 142.0 115.5 C 142.5 115.2 143.0 116.5 142.0 115.5 M 128.2 116.2 C 128.3 116.3 128.3 116.3 128.2 116.2 M 134.7 120.9 C 135.5 120.5 135.1 121.4 134.7 120.9 M 123.7 120.5 C 124.5 120.1 124.1 121.0 123.7 120.5 M 152.9 120.9 C 152.9 120.6 154.4 121.0 152.9 120.9 M 143.4 117.3 C 144.4 117.4 145.4 118.0 143.3 117.9 C 143.2 117.7 143.8 117.5 143.4 117.3 C 143.4 117.3 143.4 117.3 143.4 117.3 Z M 147.0 119.8 C 147.2 119.8 147.2 119.8 147.0 119.8 M 145.2 116.2 C 145.3 116.3 145.3 116.3 145.2 116.2 M 151.8 116.3 C 152.0 116.5 152.0 116.5 151.8 116.3 M 152.8 116.0 C 152.8 116.1 152.8 116.1 152.8 116.0 C 152.8 116.0 152.8 116.0 152.8 116.0 Z M 159.3 115.3 C 159.3 115.4 159.3 115.4 159.3 115.3 C 159.3 115.3 159.3 115.3 159.3 115.3 Z M 149.3 116.5 C 149.2 116.5 149.2 116.5 149.3 116.5 C 149.3 116.5 149.3 116.5 149.3 116.5 Z M 156.0 120.6 C 156.0 120.6 156.0 120.6 156.0 120.6 C 156.0 120.6 156.0 120.6 156.0 120.6 Z M 155.2 120.0 C 155.2 120.0 155.2 120.0 155.2 120.0 C 155.2 120.0 155.2 120.0 155.2 120.0 Z M 124.8 115.8 C 125.7 115.1 125.3 117.7 124.8 115.8 M 158.3 119.9 C 159.1 120.5 156.8 120.1 158.3 119.9 C 158.3 119.9 158.3 119.9 158.3 119.9 Z M 148.5 117.4 C 148.6 117.5 148.6 117.5 148.5 117.4 M 153.2 116.1 C 153.3 116.3 153.3 116.3 153.2 116.1 M 134.9 115.3 C 134.9 115.5 134.9 115.5 134.9 115.3 M 158.0 116.2 C 160.6 116.3 157.0 117.8 158.0 116.2 M 133.6 116.4 C 133.5 116.3 133.5 116.3 133.6 116.4 M 139.9 118.4 C 141.7 118.3 139.2 119.0 139.9 118.4 M 144.6 117.0 C 144.6 117.1 144.6 117.1 144.6 117.0 C 144.6 117.0 144.6 117.0 144.6 117.0 Z M 141.9 117.0 C 140.5 117.2 141.5 116.7 141.9 117.0 C 141.9 117.0 141.9 117.0 141.9 117.0 Z M 126.1 116.8 C 127.9 117.0 124.3 117.2 126.1 116.8 C 126.1 116.8 126.1 116.8 126.1 116.8 Z M 156.9 118.8 C 156.9 118.9 156.9 118.9 156.9 118.8 C 156.9 118.8 156.9 118.8 156.9 118.8 Z M 148.9 115.7 C 148.1 116.0 148.5 115.4 148.9 115.7 C 148.9 115.7 148.9 115.7 148.9 115.7 Z M 160.1 115.3 C 159.5 115.6 159.7 115.0 160.1 115.3 C 160.1 115.3 160.1 115.3 160.1 115.3 Z M 124.0 116.7 C 130.5 118.5 115.4 116.2 124.0 116.7 C 124.0 116.7 124.0 116.7 124.0 116.7 Z M 143.0 116.3 C 142.9 116.3 142.9 116.3 143.0 116.3 C 143.0 116.3 143.0 116.3 143.0 116.3 Z M 131.0 115.5 C 131.0 115.6 131.0 115.6 131.0 115.5 C 131.0 115.5 131.0 115.5 131.0 115.5 Z M 129.0 116.5 C 128.9 116.6 128.9 116.6 129.0 116.5 C 129.0 116.5 129.0 116.5 129.0 116.5 Z M 129.5 120.8 C 129.5 120.8 129.5 120.8 129.5 120.8 C 129.5 120.8 129.5 120.8 129.5 120.8 Z M 130.2 118.8 C 130.2 119.0 130.2 119.0 130.2 118.8 C 130.2 118.8 130.2 118.8 130.2 118.8 Z M 126.1 119.6 C 126.0 119.6 126.0 119.6 126.1 119.6 C 126.1 119.6 126.1 119.6 126.1 119.6 Z M 126.2 120.1 C 126.1 120.2 126.1 120.2 126.2 120.1 C 126.2 120.1 126.2 120.1 126.2 120.1 Z M 153.2 117.3 C 153.2 117.4 153.2 117.4 153.2 117.3 C 153.2 117.3 153.2 117.3 153.2 117.3 Z M 150.4 119.1 C 152.5 118.5 149.7 120.0 150.4 119.1 C 150.4 119.1 150.4 119.1 150.4 119.1 Z M 136.7 118.3 C 138.1 118.0 135.8 118.8 136.7 118.3 C 136.7 118.3 136.7 118.3 136.7 118.3 Z M 138.2 120.6 C 138.2 120.6 138.2 120.6 138.2 120.6 C 138.2 120.6 138.2 120.6 138.2 120.6 Z M 129.0 115.5 C 128.9 115.6 128.9 115.6 129.0 115.5 C 129.0 115.5 129.0 115.5 129.0 115.5 Z M 126.4 116.2 C 126.3 117.1 125.7 115.8 126.4 116.2 M 139.3 115.7 C 139.3 115.8 139.3 115.8 139.3 115.7 C 139.3 115.7 139.3 115.7 139.3 115.7 Z M 147.4 117.1 C 147.4 117.2 147.4 117.2 147.4 117.1 C 147.4 117.1 147.4 117.1 147.4 117.1 Z M 156.7 116.4 C 156.6 116.6 156.6 116.6 156.7 116.4 C 156.7 116.4 156.7 116.4 156.7 116.4 Z M 144.3 115.8 C 144.3 115.9 144.3 115.9 144.3 115.8 C 144.3 115.8 144.3 115.8 144.3 115.8 Z M 140.5 116.6 C 140.4 116.8 140.4 116.8 140.5 116.6 C 140.5 116.6 140.5 116.6 140.5 116.6 Z M 158.4 117.6 C 158.3 117.7 158.3 117.7 158.4 117.6 C 158.4 117.6 158.4 117.6 158.4 117.6 Z M 145.2 115.7 C 145.2 115.7 145.2 115.7 145.2 115.7 C 145.2 115.7 145.2 115.7 145.2 115.7 Z M 147.6 118.5 C 147.5 118.6 147.5 118.6 147.6 118.5 C 147.6 118.5 147.6 118.5 147.6 118.5 Z M 126.8 114.9 C 126.8 115.0 126.8 115.0 126.8 114.9 C 126.8 114.9 126.8 114.9 126.8 114.9 Z M 158.4 116.4 C 158.4 116.5 158.4 116.5 158.4 116.4 C 158.4 116.4 158.4 116.4 158.4 116.4 Z M 158.7 115.6 C 158.7 115.6 158.7 115.6 158.7 115.6 C 158.7 115.6 158.7 115.6 158.7 115.6 Z M 153.0 120.1 C 149.5 119.6 156.1 119.8 153.6 118.9 C 158.4 118.6 153.8 120.1 153.0 120.1 C 153.0 120.1 153.0 120.1 153.0 120.1 Z M 161.6 114.9 C 160.7 116.3 160.8 117.4 161.6 118.6 C 162.3 119.1 161.9 116.7 162.3 118.7 C 160.8 119.4 163.6 121.6 163.0 119.0 C 164.9 118.2 163.8 120.6 164.7 119.2 C 166.8 118.4 166.2 119.4 168.1 118.2 C 168.6 116.3 169.7 118.1 169.4 116.6 C 169.3 118.5 170.9 114.9 171.4 115.3 C 170.6 117.4 176.4 109.7 172.7 113.3 C 173.6 111.3 174.2 112.3 174.8 111.8 C 174.5 110.5 177.1 108.6 176.6 107.3 C 176.3 107.5 176.1 108.0 175.8 108.1 C 175.1 108.2 176.2 106.9 176.2 107.1 C 176.0 106.3 175.8 103.5 176.6 106.7 C 177.3 107.0 176.8 104.3 177.4 104.5 C 177.8 102.0 176.1 103.7 177.3 102.7 C 177.5 100.8 177.5 99.3 177.3 99.3 C 177.6 98.0 178.4 97.7 177.6 96.4 C 179.2 93.4 174.6 94.2 177.7 92.9 C 176.9 91.9 178.9 91.2 177.0 91.3 C 177.9 92.2 178.5 87.1 177.1 89.3 C 176.7 88.7 179.1 85.5 177.2 86.0 C 175.7 84.8 174.3 85.0 173.0 87.5 C 174.1 87.2 171.8 90.1 173.7 88.3 C 174.4 86.1 174.4 92.2 173.7 90.9 C 171.5 90.6 175.1 94.6 173.5 96.1 C 174.4 94.9 174.8 100.3 173.1 98.8 C 172.9 99.8 173.7 100.0 172.7 100.8 C 173.0 98.2 174.4 102.0 173.4 101.7 C 172.8 101.2 171.8 104.5 172.8 104.4 C 175.3 103.7 172.2 105.1 172.9 105.9 C 173.0 107.7 171.2 105.0 172.4 106.8 C 172.0 107.1 170.8 109.5 171.2 107.7 C 171.6 107.3 172.5 110.6 170.7 109.7 C 171.4 106.6 168.0 111.9 169.2 111.6 C 173.1 109.0 166.3 115.8 168.4 112.6 C 166.1 113.1 168.7 112.0 166.8 113.8 C 167.4 114.1 165.9 115.7 165.8 114.3 C 164.5 112.9 165.8 117.2 163.8 115.1 C 163.3 114.1 161.4 116.6 162.0 115.1 C 162.1 115.0 161.7 114.9 161.6 114.9 M 162.4 114.9 C 162.2 115.4 161.8 114.5 162.4 114.9 M 162.2 115.4 C 162.2 115.4 162.2 115.4 162.2 115.4 C 162.2 115.4 162.2 115.4 162.2 115.4 Z M 166.5 114.0 C 166.5 114.0 166.5 114.0 166.5 114.0 C 166.5 114.0 166.5 114.0 166.5 114.0 Z M 173.1 114.8 C 173.0 114.7 173.0 114.7 173.1 114.8 C 173.1 114.8 173.1 114.8 173.1 114.8 Z M 169.2 112.1 C 169.2 112.1 169.2 112.1 169.2 112.1 C 169.2 112.1 169.2 112.1 169.2 112.1 Z M 165.1 115.1 C 165.0 115.1 165.0 115.1 165.1 115.1 C 165.1 115.1 165.1 115.1 165.1 115.1 Z M 168.5 111.8 C 169.2 112.1 167.4 112.2 168.5 111.7 C 168.5 111.7 168.4 111.8 168.5 111.8 M 170.8 108.3 C 170.9 108.4 170.9 108.4 170.8 108.3 M 178.2 100.5 C 178.3 100.5 178.3 100.5 178.2 100.5 M 172.6 99.4 C 172.7 99.3 172.7 99.3 172.6 99.4 M 172.7 105.1 C 172.9 104.0 173.2 104.9 172.7 105.1 M 173.1 95.0 C 172.6 97.4 172.7 92.4 173.1 95.0 M 172.7 92.5 C 172.7 92.3 172.7 92.3 172.7 92.5 M 172.7 101.9 C 172.8 101.9 172.8 101.9 172.7 101.9 C 172.7 101.9 172.7 101.9 172.7 101.9 Z M 172.4 105.4 C 171.7 106.7 172.1 103.9 172.4 105.4 M 166.6 113.1 C 167.2 112.4 167.1 113.9 166.6 113.1 M 165.2 114.4 C 165.2 114.5 165.2 114.5 165.2 114.4 C 165.2 114.4 165.2 114.4 165.2 114.4 Z M 173.0 98.5 C 173.0 98.6 173.0 98.6 173.0 98.5 C 173.0 98.5 173.0 98.5 173.0 98.5 Z M 172.9 96.1 C 172.9 96.1 172.9 96.1 172.9 96.1 C 172.9 96.1 172.9 96.1 172.9 96.1 Z M 178.1 91.4 C 178.1 91.5 178.1 91.5 178.1 91.4 C 178.1 91.4 178.1 91.4 178.1 91.4 Z M 167.6 115.6 C 166.1 116.0 167.8 113.4 168.3 114.6 C 168.8 114.9 167.7 115.4 167.6 115.6 M 173.6 106.9 C 175.4 107.1 171.0 107.3 173.6 106.9 M 173.8 92.1 C 175.9 90.0 172.3 94.8 173.8 92.1 M 173.5 89.1 C 173.9 88.2 173.7 94.7 173.1 90.2 C 172.8 89.7 173.2 89.4 173.5 89.1 M 171.6 108.7 C 172.6 108.8 170.2 110.3 171.6 108.7 M 176.3 102.1 C 175.7 101.4 175.3 99.5 176.3 100.4 C 177.7 100.5 176.8 102.9 176.3 102.1 M 163.0 115.8 C 163.5 114.1 163.3 117.1 163.0 115.8 M 167.5 113.9 C 167.4 113.9 167.4 113.9 167.5 113.9 C 167.5 113.9 167.5 113.9 167.5 113.9 Z M 168.9 112.5 C 169.1 112.5 169.1 112.5 168.9 112.5 M 163.3 114.3 C 163.4 114.4 163.4 114.4 163.3 114.3 M 174.7 102.0 C 174.8 101.9 174.8 101.9 174.7 102.0 M 173.1 105.5 C 175.0 104.2 173.2 106.4 173.1 105.5 M 173.9 111.2 C 174.9 111.0 173.1 112.5 173.9 111.2 M 173.0 102.6 C 174.6 101.6 174.2 104.5 173.0 102.6 M 172.7 106.2 C 172.7 106.1 172.7 106.1 172.7 106.2 C 172.7 106.2 172.7 106.2 172.7 106.2 Z M 176.5 101.6 C 176.5 101.6 176.5 101.6 176.5 101.6 C 176.5 101.6 176.5 101.6 176.5 101.6 Z M 176.5 100.9 C 176.5 101.0 176.5 101.0 176.5 100.9 C 176.5 100.9 176.5 100.9 176.5 100.9 Z M 172.9 101.0 C 173.0 101.1 173.0 101.1 172.9 101.0 C 172.9 101.0 172.9 101.0 172.9 101.0 Z M 166.8 118.2 C 168.4 117.5 165.6 119.0 166.8 118.2 C 166.8 118.2 166.8 118.2 166.8 118.2 Z M 169.6 110.7 C 171.9 109.8 169.4 112.6 169.6 110.7 C 169.6 110.7 169.6 110.7 169.6 110.7 Z M 172.7 109.6 C 172.7 109.6 172.7 109.6 172.7 109.6 C 172.7 109.6 172.7 109.6 172.7 109.6 Z M 172.0 103.3 C 172.0 103.3 172.0 103.3 172.0 103.3 C 172.0 103.3 172.0 103.3 172.0 103.3 Z M 167.7 118.0 C 167.7 118.0 167.7 118.0 167.7 118.0 C 167.7 118.0 167.7 118.0 167.7 118.0 Z M 173.9 96.5 C 174.0 96.5 174.0 96.5 173.9 96.5 C 173.9 96.5 173.9 96.5 173.9 96.5 Z M 176.2 105.3 C 175.8 104.7 176.7 105.3 176.2 105.3 C 176.2 105.3 176.2 105.3 176.2 105.3 Z M 176.6 103.3 C 176.6 103.3 176.6 103.3 176.6 103.3 C 176.6 103.3 176.6 103.3 176.6 103.3 Z M 172.6 91.8 C 172.5 91.7 172.5 91.7 172.6 91.8 C 172.6 91.8 172.6 91.8 172.6 91.8 Z M 178.3 97.4 C 178.3 97.3 178.3 97.3 178.3 97.4 C 178.3 97.4 178.3 97.4 178.3 97.4 Z M 176.6 95.0 C 176.6 95.0 176.6 95.0 176.6 95.0 C 176.6 95.0 176.6 95.0 176.6 95.0 Z M 173.3 101.4 C 173.1 99.4 173.9 101.9 173.3 101.4 C 173.3 101.4 173.3 101.4 173.3 101.4 Z M 176.1 88.4 C 176.2 88.3 176.2 88.3 176.1 88.4 C 176.1 88.4 176.1 88.4 176.1 88.4 Z M 174.1 87.2 C 174.2 87.1 174.2 87.1 174.1 87.2 C 174.1 87.2 174.1 87.2 174.1 87.2 Z M 173.0 86.6 C 173.1 86.5 173.1 86.5 173.0 86.6 C 173.0 86.6 173.0 86.6 173.0 86.6 Z M 170.3 114.1 C 170.3 114.1 170.3 114.1 170.3 114.1 C 170.3 114.1 170.3 114.1 170.3 114.1 Z M 167.5 112.2 C 167.5 112.2 167.5 112.2 167.5 112.2 C 167.5 112.2 167.5 112.2 167.5 112.2 Z M 169.3 110.2 C 169.2 110.2 169.2 110.2 169.3 110.2 C 169.3 110.2 169.3 110.2 169.3 110.2 Z M 171.2 116.0 C 171.1 116.0 171.1 116.0 171.2 116.0 C 171.2 116.0 171.2 116.0 171.2 116.0 Z M 174.6 104.5 C 174.5 104.5 174.5 104.5 174.6 104.5 C 174.6 104.5 174.6 104.5 174.6 104.5 Z M 176.1 103.8 C 176.0 103.8 176.0 103.8 176.1 103.8 C 176.1 103.8 176.1 103.8 176.1 103.8 Z M 177.3 106.5 C 177.3 106.5 177.3 106.5 177.3 106.5 C 177.3 106.5 177.3 106.5 177.3 106.5 Z M 177.3 103.2 C 177.3 103.2 177.3 103.2 177.3 103.2 C 177.3 103.2 177.3 103.2 177.3 103.2 Z M 163.3 119.3 C 163.3 119.3 163.3 119.3 163.3 119.3 C 163.3 119.3 163.3 119.3 163.3 119.3 Z M 162.6 116.9 C 162.5 117.0 162.5 117.0 162.6 116.9 C 162.6 116.9 162.6 116.9 162.6 116.9 Z M 172.8 103.9 C 172.4 103.4 173.7 103.2 172.8 103.9 M 172.3 107.2 C 172.4 107.2 172.4 107.2 172.3 107.2 C 172.3 107.2 172.3 107.2 172.3 107.2 Z M 173.4 97.0 C 174.4 96.3 172.9 99.4 173.4 97.0 C 173.4 97.0 173.4 97.0 173.4 97.0 Z M 177.5 99.7 C 177.6 99.6 177.6 99.6 177.5 99.7 C 177.5 99.7 177.5 99.7 177.5 99.7 Z M 177.2 98.4 C 177.3 98.3 177.3 98.3 177.2 98.4 C 177.2 98.4 177.2 98.4 177.2 98.4 Z M 174.5 90.5 C 174.6 90.4 174.6 90.4 174.5 90.5 M 171.3 107.3 C 172.0 107.0 171.8 107.1 171.3 107.3 M 173.5 95.2 C 173.5 95.2 173.5 95.2 173.5 95.2 C 173.5 95.2 173.5 95.2 173.5 95.2 Z M 173.9 89.1 C 174.0 89.1 174.0 89.1 173.9 89.1 C 173.9 89.1 173.9 89.1 173.9 89.1 Z M 170.6 110.0 C 171.6 110.7 171.1 110.9 170.6 110.0 M 164.6 115.2 C 164.7 115.3 164.7 115.3 164.6 115.2 C 164.6 115.2 164.6 115.2 164.6 115.2 Z M 173.0 81.9 C 171.7 84.3 173.6 84.3 173.7 84.3 C 171.1 84.1 174.7 86.5 175.2 86.0 C 175.5 86.1 179.9 84.2 177.3 82.5 C 176.9 82.0 177.7 81.8 177.8 81.4 C 177.7 78.4 176.4 83.5 176.4 79.8 C 176.8 79.2 178.9 79.9 177.4 77.8 C 177.6 77.7 178.4 75.2 177.4 76.1 C 178.4 75.0 177.2 74.2 177.0 73.1 C 177.6 72.1 178.5 73.9 177.4 70.4 C 179.1 68.9 176.1 68.3 178.0 67.0 C 178.0 66.1 174.9 64.7 176.7 66.8 C 176.5 66.5 175.0 67.8 175.5 65.0 C 175.9 65.4 179.1 66.9 177.6 62.5 C 177.7 61.8 176.8 60.1 177.2 59.8 C 177.5 62.0 178.6 56.7 177.6 57.2 C 178.3 53.7 176.8 55.7 177.9 53.2 C 178.0 51.1 176.5 53.9 177.3 51.3 C 177.2 49.3 178.0 50.7 177.9 50.9 C 178.1 49.2 177.5 48.6 177.5 48.0 C 177.7 47.6 178.3 46.8 177.5 46.4 C 176.1 44.6 174.6 46.3 173.2 45.5 C 172.4 46.8 174.3 46.1 173.2 46.9 C 174.1 47.6 173.1 47.1 173.3 50.6 C 173.5 50.5 174.1 49.6 174.2 50.5 C 174.1 51.9 171.6 50.9 173.4 53.2 C 173.9 50.5 174.2 57.0 174.7 54.5 C 175.0 57.6 174.5 55.4 173.9 57.6 C 175.6 57.5 172.1 57.8 173.5 58.7 C 172.8 58.9 173.1 62.4 174.1 59.9 C 174.5 63.6 173.6 61.2 172.7 62.6 C 172.6 64.3 175.4 62.7 173.4 63.8 C 172.4 66.0 174.4 63.8 172.8 65.5 C 174.2 64.7 172.8 67.1 174.3 66.5 C 174.5 70.3 172.7 66.0 173.8 68.7 C 173.8 67.9 171.7 68.2 173.1 69.8 C 175.5 69.1 170.9 71.9 174.2 70.8 C 175.1 76.1 172.8 71.6 172.8 74.6 C 172.8 75.3 173.9 73.8 173.9 74.4 C 173.4 78.2 172.6 75.1 174.2 77.0 C 174.6 80.7 172.8 78.1 172.7 79.9 C 173.5 80.0 174.8 81.5 173.0 81.9 M 173.8 78.6 C 173.3 77.8 174.4 78.1 173.8 78.6 M 173.1 86.0 C 172.6 85.2 173.6 85.5 173.1 86.0 M 173.4 75.5 C 172.8 74.5 174.2 75.2 173.4 75.5 M 174.2 55.6 C 174.1 57.0 173.7 54.9 174.2 55.6 M 173.0 83.0 C 172.4 82.0 173.8 82.7 173.0 83.0 M 174.2 84.4 C 174.3 84.3 174.3 84.3 174.2 84.4 M 172.8 53.6 C 172.9 53.5 172.9 53.5 172.8 53.6 M 172.8 58.9 C 172.8 57.8 173.1 59.6 172.8 58.9 M 178.2 59.1 C 178.2 58.0 178.5 59.8 178.2 59.1 M 172.8 50.7 C 172.3 49.5 173.4 50.3 172.8 50.7 M 173.9 47.7 C 173.5 46.7 174.5 47.0 173.9 47.7 M 175.7 79.2 C 175.8 79.3 175.8 79.3 175.7 79.2 C 175.7 79.2 175.7 79.2 175.7 79.2 Z M 177.0 69.4 C 176.5 70.6 177.7 68.0 177.0 69.4 M 173.5 71.2 C 174.6 70.5 173.4 72.8 173.5 71.2 C 173.5 71.2 173.5 71.2 173.5 71.2 Z M 174.0 73.0 C 174.1 73.0 174.1 73.0 174.0 73.0 C 174.0 73.0 174.0 73.0 174.0 73.0 Z M 174.1 67.4 C 174.1 67.5 174.1 67.5 174.1 67.4 C 174.1 67.4 174.1 67.4 174.1 67.4 Z M 174.2 68.6 C 174.4 69.0 174.0 69.2 174.2 68.6 C 174.2 68.6 174.2 68.6 174.2 68.6 Z M 177.6 60.5 C 177.9 61.0 177.4 61.1 177.6 60.5 C 177.6 60.5 177.6 60.5 177.6 60.5 Z M 174.5 70.3 C 175.6 70.5 173.8 71.1 174.5 70.3 C 174.5 70.3 174.5 70.3 174.5 70.3 Z M 177.1 64.4 C 176.9 63.9 178.2 63.4 177.1 64.4 M 173.0 52.5 C 172.7 52.0 174.1 51.4 173.0 52.5 M 172.7 64.2 C 172.4 63.7 173.8 63.1 172.7 64.2 M 173.4 77.9 C 173.5 77.8 173.5 77.8 173.4 77.9 M 178.1 71.4 C 177.7 70.7 178.6 71.0 178.1 71.4 M 177.7 82.5 C 177.3 81.7 178.2 82.1 177.7 82.5 M 178.1 54.1 C 177.8 54.2 178.2 52.9 178.1 54.1 M 174.5 62.8 C 174.6 61.8 175.2 60.7 175.1 62.9 C 174.9 63.0 174.7 62.4 174.5 62.8 C 174.5 62.8 174.5 62.8 174.5 62.8 Z M 177.0 59.1 C 177.1 59.0 177.1 59.0 177.0 59.1 M 173.5 61.0 C 173.6 60.8 173.6 60.8 173.5 61.0 M 173.6 55.0 C 173.7 54.9 173.7 54.9 173.6 55.0 M 173.2 54.2 C 173.3 54.3 173.3 54.3 173.2 54.2 C 173.2 54.2 173.2 54.2 173.2 54.2 Z M 172.8 47.7 C 172.9 47.7 172.9 47.7 172.8 47.7 C 172.8 47.7 172.8 47.7 172.8 47.7 Z M 173.7 56.9 C 173.7 56.9 173.7 56.9 173.7 56.9 C 173.7 56.9 173.7 56.9 173.7 56.9 Z M 177.9 51.5 C 177.9 51.5 177.9 51.5 177.9 51.5 C 177.9 51.5 177.9 51.5 177.9 51.5 Z M 177.2 52.2 C 177.2 52.2 177.2 52.2 177.2 52.2 C 177.2 52.2 177.2 52.2 177.2 52.2 Z M 173.1 81.3 C 172.3 80.4 175.0 80.8 173.1 81.3 M 177.2 49.2 C 178.0 48.4 177.4 50.8 177.2 49.2 C 177.2 49.2 177.2 49.2 177.2 49.2 Z M 174.6 57.6 C 174.8 57.5 174.8 57.5 174.6 57.6 M 173.4 53.9 C 173.5 53.8 173.5 53.8 173.4 53.9 M 172.5 71.3 C 172.7 71.2 172.7 71.2 172.5 71.3 M 173.6 49.3 C 173.8 46.5 175.1 50.5 173.6 49.3 M 173.6 72.6 C 173.5 72.6 173.5 72.6 173.6 72.6 M 175.6 66.3 C 175.5 64.4 176.2 67.0 175.6 66.3 M 174.2 61.5 C 174.3 61.6 174.3 61.6 174.2 61.5 C 174.2 61.5 174.2 61.5 174.2 61.5 Z M 174.2 64.3 C 174.4 65.7 173.9 64.6 174.2 64.3 C 174.2 64.3 174.2 64.3 174.2 64.3 Z M 174.1 80.0 C 174.2 78.3 174.4 81.8 174.1 80.0 C 174.1 80.0 174.1 80.0 174.1 80.0 Z M 176.1 50.5 C 176.2 50.6 176.2 50.6 176.1 50.5 C 176.1 50.5 176.1 50.5 176.1 50.5 Z M 172.9 57.2 C 173.2 58.1 172.6 57.6 172.9 57.2 C 172.9 57.2 172.9 57.2 172.9 57.2 Z M 172.8 46.7 C 173.1 47.5 172.5 47.1 172.8 46.7 C 172.8 46.7 172.8 46.7 172.8 46.7 Z M 173.9 82.1 C 175.7 75.7 173.4 90.8 173.9 82.1 C 173.9 82.1 173.9 82.1 173.9 82.1 Z M 173.5 63.2 C 173.5 63.2 173.5 63.2 173.5 63.2 C 173.5 63.2 173.5 63.2 173.5 63.2 Z M 172.7 75.1 C 172.8 75.2 172.8 75.2 172.7 75.1 C 172.7 75.1 172.7 75.1 172.7 75.1 Z M 173.7 77.2 C 173.8 77.2 173.8 77.2 173.7 77.2 C 173.7 77.2 173.7 77.2 173.7 77.2 Z M 178.0 76.6 C 178.0 76.6 178.0 76.6 178.0 76.6 C 178.0 76.6 178.0 76.6 178.0 76.6 Z M 176.0 75.9 C 176.2 76.0 176.2 76.0 176.0 75.9 C 176.0 75.9 176.0 75.9 176.0 75.9 Z M 176.8 80.1 C 176.9 80.1 176.9 80.1 176.8 80.1 C 176.8 80.1 176.8 80.1 176.8 80.1 Z M 177.3 80.0 C 177.4 80.0 177.4 80.0 177.3 80.0 C 177.3 80.0 177.3 80.0 177.3 80.0 Z M 174.6 53.9 C 174.6 53.9 174.6 53.9 174.6 53.9 C 174.6 53.9 174.6 53.9 174.6 53.9 Z M 176.3 56.1 C 175.7 54.6 177.2 56.6 176.3 56.1 C 176.3 56.1 176.3 56.1 176.3 56.1 Z M 175.5 69.5 C 175.2 68.1 176.0 70.4 175.5 69.5 C 175.5 69.5 175.5 69.5 175.5 69.5 Z M 177.8 68.0 C 177.8 67.9 177.8 67.9 177.8 68.0 C 177.8 68.0 177.8 68.0 177.8 68.0 Z M 172.7 77.2 C 172.8 77.2 172.8 77.2 172.7 77.2 C 172.7 77.2 172.7 77.2 172.7 77.2 Z M 173.4 79.7 C 174.3 79.8 173.0 80.5 173.4 79.7 M 172.9 66.9 C 173.0 66.9 173.0 66.9 172.9 66.9 C 172.9 66.9 172.9 66.9 172.9 66.9 Z M 174.3 58.8 C 174.4 58.8 174.4 58.8 174.3 58.8 C 174.3 58.8 174.3 58.8 174.3 58.8 Z M 173.7 50.7 C 173.9 50.8 173.9 50.8 173.7 50.7 C 173.7 50.7 173.7 50.7 173.7 50.7 Z M 173.0 61.8 C 173.1 61.9 173.1 61.9 173.0 61.8 C 173.0 61.8 173.0 61.8 173.0 61.8 Z M 173.8 65.7 C 174.0 65.7 174.0 65.7 173.8 65.7 C 173.8 65.7 173.8 65.7 173.8 65.7 Z M 175.0 48.9 C 175.1 49.0 175.1 49.0 175.0 48.9 C 175.0 48.9 175.0 48.9 175.0 48.9 Z M 172.9 60.9 C 172.9 61.0 172.9 61.0 172.9 60.9 C 172.9 60.9 172.9 60.9 172.9 60.9 Z M 175.7 58.6 C 175.8 58.7 175.8 58.7 175.7 58.6 C 175.7 58.6 175.7 58.6 175.7 58.6 Z M 172.1 79.4 C 172.2 79.4 172.2 79.4 172.1 79.4 C 172.1 79.4 172.1 79.4 172.1 79.4 Z M 173.8 48.9 C 173.9 48.9 173.9 48.9 173.8 48.9 C 173.8 48.9 173.8 48.9 173.8 48.9 Z M 173.0 48.4 C 173.1 48.4 173.1 48.4 173.0 48.4 C 173.0 48.4 173.0 48.4 173.0 48.4 Z M 177.3 54.1 C 176.8 56.9 177.1 51.5 176.1 53.6 C 175.9 49.5 177.3 53.5 177.3 54.1 C 177.3 54.1 177.3 54.1 177.3 54.1 Z M 172.7 44.6 C 173.9 46.1 175.1 46.1 176.3 45.4 C 176.9 44.7 174.5 44.7 176.6 44.7 C 177.0 46.5 179.6 43.9 177.0 43.9 C 176.6 41.5 178.7 43.5 177.6 42.1 C 177.4 39.6 178.2 40.9 178.0 38.9 C 176.6 37.8 178.7 37.8 177.3 37.3 C 178.8 38.2 176.9 35.2 177.6 35.1 C 178.5 36.9 177.6 28.3 177.2 33.0 C 176.5 31.1 177.7 31.5 177.9 30.8 C 177.0 30.0 178.6 26.7 177.7 25.4 C 177.5 25.6 177.5 26.3 177.2 26.5 C 176.6 26.9 177.3 25.0 177.2 25.2 C 176.9 24.3 175.9 20.9 177.6 24.5 C 178.3 24.7 177.1 21.8 177.8 21.8 C 177.6 19.0 176.3 21.3 177.3 20.0 C 177.1 18.1 176.8 16.9 176.6 16.9 C 176.6 15.8 177.3 15.4 176.2 14.7 C 176.7 13.4 175.5 12.8 174.9 12.8 C 174.2 12.8 173.9 13.0 175.0 11.8 C 173.9 11.4 175.2 9.7 173.7 10.9 C 174.9 11.2 171.8 6.3 172.4 9.0 C 171.6 8.9 170.5 4.7 169.7 6.6 C 167.9 6.9 167.6 8.3 168.2 10.7 C 168.8 9.8 169.1 13.2 169.2 10.7 C 168.4 8.9 172.0 13.0 170.8 12.4 C 168.8 13.5 173.4 14.2 172.3 15.8 C 172.8 14.7 174.3 18.3 172.5 17.6 C 172.5 18.3 173.3 18.3 172.4 19.2 C 172.2 17.0 174.3 19.9 173.3 19.8 C 172.6 19.5 172.4 23.3 173.3 22.8 C 175.6 21.3 172.9 24.0 173.8 24.8 C 174.4 27.3 171.8 24.2 173.5 26.4 C 173.3 26.9 173.3 31.1 172.8 28.4 C 173.0 27.4 175.3 31.0 173.3 31.3 C 172.2 27.8 172.7 35.3 173.3 34.1 C 174.4 28.8 174.6 39.8 173.5 35.6 C 172.4 37.9 173.1 34.9 173.5 37.8 C 174.2 37.4 174.8 39.7 173.5 39.2 C 171.6 39.6 176.0 40.0 173.4 41.8 C 172.3 42.0 174.3 45.3 173.0 44.1 C 172.9 44.0 172.7 44.5 172.7 44.6 M 172.9 43.5 C 173.3 43.9 172.4 44.1 172.9 43.5 M 173.3 43.9 C 173.3 44.0 173.3 44.0 173.3 43.9 C 173.3 43.9 173.3 43.9 173.3 43.9 Z M 173.6 38.3 C 173.5 38.3 173.5 38.3 173.6 38.3 C 173.6 38.3 173.6 38.3 173.6 38.3 Z M 178.4 33.8 C 178.3 33.8 178.3 33.8 178.4 33.8 C 178.4 33.8 178.4 33.8 178.4 33.8 Z M 173.7 34.5 C 173.7 34.5 173.7 34.5 173.7 34.5 C 173.7 34.5 173.7 34.5 173.7 34.5 Z M 173.9 40.3 C 173.9 40.3 173.9 40.3 173.9 40.3 C 173.9 40.3 173.9 40.3 173.9 40.3 Z M 173.0 34.8 C 173.7 34.5 172.5 36.1 172.9 34.7 C 172.9 34.7 172.9 34.9 173.0 34.8 M 172.7 29.6 C 172.8 29.5 172.8 29.5 172.7 29.6 M 177.7 17.8 C 177.8 17.8 177.8 17.8 177.7 17.8 M 172.1 18.1 C 172.1 18.0 172.1 18.0 172.1 18.1 M 173.4 23.8 C 173.3 22.2 173.7 23.4 173.4 23.8 M 171.6 15.2 C 171.9 16.9 170.6 13.8 171.6 15.2 M 170.5 14.1 C 170.5 13.9 170.5 13.9 170.5 14.1 M 172.6 20.1 C 172.7 20.1 172.7 20.1 172.6 20.1 C 172.6 20.1 172.6 20.1 172.6 20.1 Z M 173.1 24.4 C 172.8 26.5 172.4 22.3 173.1 24.4 M 172.9 37.6 C 172.6 36.5 173.8 37.6 172.9 37.6 M 173.3 39.8 C 173.4 39.8 173.4 39.8 173.3 39.8 C 173.3 39.8 173.3 39.8 173.3 39.8 Z M 172.3 17.4 C 172.3 17.4 172.3 17.4 172.3 17.4 C 172.3 17.4 172.3 17.4 172.3 17.4 Z M 171.7 16.0 C 171.8 16.0 171.8 16.0 171.7 16.0 C 171.7 16.0 171.7 16.0 171.7 16.0 Z M 174.7 10.4 C 174.7 10.4 174.7 10.4 174.7 10.4 C 174.7 10.4 174.7 10.4 174.7 10.4 Z M 175.5 38.2 C 175.1 39.6 173.8 36.7 175.1 36.9 C 175.6 36.8 175.4 38.0 175.5 38.2 M 174.7 26.0 C 176.5 25.5 172.3 27.7 174.7 26.0 M 171.4 13.2 C 172.5 11.0 171.0 15.4 171.4 13.2 M 169.5 11.4 C 169.4 10.5 172.7 14.9 169.9 12.3 C 169.4 12.2 169.6 11.7 169.5 11.4 M 173.6 29.5 C 174.6 28.9 173.2 32.7 173.6 29.5 M 176.2 19.6 C 175.5 19.0 174.7 17.6 175.9 18.1 C 177.2 17.9 176.8 20.3 176.2 19.6 M 173.9 43.1 C 172.3 41.8 175.2 43.1 173.9 43.1 M 174.0 37.3 C 174.0 37.3 174.0 37.3 174.0 37.3 C 174.0 37.3 174.0 37.3 174.0 37.3 Z M 173.8 35.0 C 173.9 34.9 173.9 34.9 173.8 35.0 M 172.5 42.1 C 172.6 42.0 172.6 42.0 172.5 42.1 M 174.6 19.8 C 174.7 19.7 174.7 19.7 174.6 19.8 M 173.8 24.2 C 175.3 21.8 174.2 25.4 173.8 24.2 M 176.9 30.8 C 177.6 30.1 176.9 32.2 176.9 30.8 M 173.0 20.8 C 174.4 19.4 174.6 22.5 173.0 20.8 M 173.7 25.4 C 173.7 25.2 173.7 25.2 173.7 25.4 C 173.7 25.4 173.7 25.4 173.7 25.4 Z M 176.3 19.1 C 176.3 19.1 176.3 19.1 176.3 19.1 C 176.3 19.1 176.3 19.1 176.3 19.1 Z M 176.1 18.5 C 176.2 18.6 176.2 18.6 176.1 18.5 C 176.1 18.5 176.1 18.5 176.1 18.5 Z M 172.7 19.3 C 172.7 19.4 172.7 19.4 172.7 19.3 C 172.7 19.3 172.7 19.3 172.7 19.3 Z M 177.4 40.0 C 177.5 38.4 177.6 41.2 177.4 40.0 C 177.4 40.0 177.4 40.0 177.4 40.0 Z M 173.0 33.0 C 174.2 30.4 174.1 34.8 173.0 33.0 C 173.0 33.0 173.0 33.0 173.0 33.0 Z M 175.0 29.8 C 175.0 29.8 175.0 29.8 175.0 29.8 C 175.0 29.8 175.0 29.8 175.0 29.8 Z M 172.2 21.7 C 172.3 21.7 172.3 21.7 172.2 21.7 C 172.2 21.7 172.2 21.7 172.2 21.7 Z M 177.6 39.2 C 177.7 39.2 177.7 39.2 177.6 39.2 C 177.6 39.2 177.6 39.2 177.6 39.2 Z M 172.7 15.9 C 172.8 15.9 172.8 15.9 172.7 15.9 C 172.7 15.9 172.7 15.9 172.7 15.9 Z M 176.8 23.0 C 176.3 22.5 177.3 22.9 176.8 23.0 C 176.8 23.0 176.8 23.0 176.8 23.0 Z M 176.7 20.8 C 176.7 20.7 176.7 20.7 176.7 20.8 C 176.7 20.8 176.7 20.8 176.7 20.8 Z M 170.2 13.7 C 170.2 13.7 170.2 13.7 170.2 13.7 C 170.2 13.7 170.2 13.7 170.2 13.7 Z M 177.2 15.2 C 177.1 15.1 177.1 15.1 177.2 15.2 C 177.2 15.2 177.2 15.2 177.2 15.2 Z M 174.8 13.8 C 174.9 13.8 174.9 13.8 174.8 13.8 C 174.8 13.8 174.8 13.8 174.8 13.8 Z M 173.1 19.6 C 172.6 17.8 173.8 19.9 173.1 19.6 C 173.1 19.6 173.1 19.6 173.1 19.6 Z M 171.0 9.0 C 171.1 8.9 171.1 8.9 171.0 9.0 C 171.0 9.0 171.0 9.0 171.0 9.0 Z M 168.8 9.7 C 168.8 9.6 168.8 9.6 168.8 9.7 C 168.8 9.7 168.8 9.7 168.8 9.7 Z M 167.7 10.2 C 167.7 10.1 167.7 10.1 167.7 10.2 C 167.7 10.2 167.7 10.2 167.7 10.2 Z M 176.0 35.1 C 175.9 35.1 175.9 35.1 176.0 35.1 C 176.0 35.1 176.0 35.1 176.0 35.1 Z M 172.7 36.0 C 172.6 36.0 172.6 36.0 172.7 36.0 C 172.7 36.0 172.7 36.0 172.7 36.0 Z M 172.5 32.8 C 172.5 32.8 172.5 32.8 172.5 32.8 C 172.5 32.8 172.5 32.8 172.5 32.8 Z M 177.9 35.6 C 177.9 35.7 177.9 35.7 177.9 35.6 C 177.9 35.6 177.9 35.6 177.9 35.6 Z M 175.0 22.5 C 175.0 22.5 175.0 22.5 175.0 22.5 C 175.0 22.5 175.0 22.5 175.0 22.5 Z M 176.3 21.3 C 176.2 21.4 176.2 21.4 176.3 21.3 C 176.3 21.3 176.3 21.3 176.3 21.3 Z M 178.2 24.0 C 178.2 24.1 178.2 24.1 178.2 24.0 C 178.2 24.0 178.2 24.0 178.2 24.0 Z M 177.4 20.4 C 177.4 20.5 177.4 20.5 177.4 20.4 C 177.4 20.4 177.4 20.4 177.4 20.4 Z M 177.3 43.6 C 177.4 43.6 177.4 43.6 177.3 43.6 C 177.3 43.6 177.3 43.6 177.3 43.6 Z M 174.8 43.9 C 174.9 43.9 174.9 43.9 174.8 43.9 C 174.8 43.9 174.8 43.9 174.8 43.9 Z M 173.2 22.2 C 172.6 21.8 173.9 21.2 173.2 22.2 M 173.6 27.0 C 173.7 27.1 173.7 27.1 173.6 27.0 C 173.6 27.0 173.6 27.0 173.6 27.0 Z M 172.4 16.3 C 173.2 15.6 172.3 18.0 172.4 16.3 C 172.4 16.3 172.4 16.3 172.4 16.3 Z M 176.9 17.2 C 176.9 17.2 176.9 17.2 176.9 17.2 C 176.9 17.2 176.9 17.2 176.9 17.2 Z M 176.3 16.3 C 176.3 16.2 176.3 16.2 176.3 16.3 C 176.3 16.3 176.3 16.3 176.3 16.3 Z M 171.1 11.7 C 171.2 11.5 171.2 11.5 171.1 11.7 M 172.8 27.8 C 173.2 26.9 173.1 27.1 172.8 27.8 M 172.0 15.2 C 172.1 15.2 172.1 15.2 172.0 15.2 C 172.0 15.2 172.0 15.2 172.0 15.2 Z M 169.9 11.0 C 169.9 11.0 169.9 11.0 169.9 11.0 C 169.9 11.0 169.9 11.0 169.9 11.0 Z M 173.4 31.7 C 174.6 31.6 174.4 32.2 173.4 31.7 M 173.8 40.7 C 173.9 40.7 173.9 40.7 173.8 40.7 C 173.8 40.7 173.8 40.7 173.8 40.7 Z M 164.3 7.2 C 168.5 10.4 168.3 8.0 168.8 7.8 C 169.8 7.6 169.6 6.8 168.8 5.7 C 168.7 3.6 166.5 6.4 166.3 4.5 C 165.7 1.7 164.1 5.8 164.2 3.3 C 164.6 2.7 162.6 2.8 162.8 3.0 C 162.1 1.7 160.4 3.5 160.4 3.7 C 159.8 3.3 159.9 1.2 157.6 2.6 C 155.9 3.1 155.1 1.0 155.6 2.5 C 154.3 0.8 154.7 2.9 153.2 2.4 C 152.1 1.5 153.2 3.8 151.1 2.0 C 150.2 3.4 151.3 1.1 147.1 2.1 C 149.1 2.2 145.1 3.2 145.9 2.3 C 147.4 1.3 144.0 2.6 142.1 2.0 C 141.5 2.5 139.3 3.8 139.6 2.4 C 137.7 0.8 137.6 3.4 136.8 2.1 C 136.1 1.5 135.9 2.7 135.4 2.6 C 134.8 1.6 134.1 2.3 131.7 2.0 C 126.3 1.5 130.9 4.5 128.8 4.9 C 128.5 5.3 131.5 8.5 130.3 6.1 C 130.7 6.8 135.0 4.3 132.9 6.9 C 134.5 5.9 132.5 8.0 135.9 6.8 C 131.3 4.9 141.1 6.0 136.7 6.9 C 137.4 7.5 139.2 7.4 137.9 6.9 C 137.4 5.2 141.1 7.7 139.2 5.6 C 142.1 6.2 141.3 4.3 142.1 5.6 C 142.8 7.8 142.0 5.1 143.4 5.7 C 146.7 5.7 144.2 8.3 146.2 6.6 C 149.4 7.7 146.9 5.6 148.0 5.3 C 148.3 3.8 151.4 6.5 148.9 6.7 C 150.2 5.9 149.1 7.4 151.1 6.5 C 149.7 5.1 153.6 8.0 153.0 6.9 C 154.6 6.5 153.8 5.6 154.3 5.6 C 156.5 5.6 155.7 7.0 156.2 6.0 C 156.7 5.4 157.5 7.3 157.7 6.9 C 155.9 6.7 159.3 5.5 159.4 6.3 C 158.4 6.3 159.7 8.2 160.5 7.2 C 160.1 4.0 161.6 8.1 162.5 7.2 C 162.3 5.4 165.9 8.1 164.0 8.3 C 164.1 8.2 164.3 7.2 164.3 7.2 M 158.3 6.7 C 156.8 6.4 159.9 6.4 158.3 6.7 M 158.3 7.1 C 157.7 6.5 159.6 7.6 158.2 7.3 C 158.2 7.3 158.4 7.2 158.3 7.1 M 150.7 7.0 C 151.0 6.5 152.0 7.3 150.7 7.0 M 148.9 5.9 C 147.8 5.5 150.4 5.9 148.9 5.9 M 133.6 6.3 C 135.1 3.7 135.2 7.7 133.6 6.3 M 143.7 6.8 C 145.6 6.5 143.1 7.9 143.7 6.8 M 144.3 6.2 C 145.2 5.8 144.5 6.8 144.3 6.2 M 136.5 6.3 C 136.4 6.2 136.4 6.2 136.5 6.3 C 136.5 6.3 136.5 6.3 136.5 6.3 Z M 131.9 6.2 C 131.9 6.3 131.9 6.3 131.9 6.2 C 131.9 6.2 131.9 6.2 131.9 6.2 Z M 140.9 6.0 C 142.3 6.6 138.6 6.3 140.9 6.0 C 140.9 6.0 140.9 6.0 140.9 6.0 Z M 134.1 2.3 C 134.2 2.3 134.2 2.3 134.1 2.3 C 134.1 2.3 134.1 2.3 134.1 2.3 Z M 159.5 5.6 C 159.6 5.6 159.6 5.6 159.5 5.6 C 159.5 5.6 159.5 5.6 159.5 5.6 Z M 163.3 7.3 C 163.3 6.9 163.9 7.7 163.3 7.3 C 163.3 7.3 163.3 7.3 163.3 7.3 Z M 168.0 6.1 C 168.1 6.1 168.1 6.1 168.0 6.1 C 168.0 6.1 168.0 6.1 168.0 6.1 Z M 161.1 4.4 C 161.2 4.4 161.2 4.4 161.1 4.4 C 161.1 4.4 161.1 4.4 161.1 4.4 Z M 160.3 6.2 C 160.8 7.7 158.7 5.7 160.3 6.2 C 160.3 6.2 160.3 6.2 160.3 6.2 Z M 142.7 2.5 C 142.6 3.1 141.5 2.3 142.7 2.5 C 142.7 2.5 142.7 2.5 142.7 2.5 Z M 148.7 5.4 C 148.5 5.7 148.0 5.2 148.7 5.4 C 148.7 5.4 148.7 5.4 148.7 5.4 Z M 152.4 7.3 C 152.1 7.6 151.5 7.1 152.4 7.3 C 152.4 7.3 152.4 7.3 152.4 7.3 Z M 163.1 7.6 C 163.0 7.7 163.0 7.7 163.1 7.6 C 163.1 7.6 163.1 7.6 163.1 7.6 Z M 162.0 6.3 C 162.7 7.7 160.7 5.3 162.0 6.3 C 162.0 6.3 162.0 6.3 162.0 6.3 Z M 163.8 6.3 C 163.4 5.6 165.0 6.9 163.8 6.3 M 163.3 4.1 C 161.9 4.3 165.0 2.0 163.3 4.1 C 163.3 4.1 163.3 4.1 163.3 4.1 Z M 156.0 2.7 C 155.9 2.7 155.9 2.7 156.0 2.7 C 156.0 2.7 156.0 2.7 156.0 2.7 Z M 156.7 6.6 C 155.4 6.5 157.6 6.4 156.7 6.6 C 156.7 6.6 156.7 6.6 156.7 6.6 Z M 166.0 9.0 C 165.0 8.3 166.8 9.1 166.0 9.0 C 166.0 9.0 166.0 9.0 166.0 9.0 Z M 150.4 4.0 C 147.2 4.2 152.3 3.3 150.4 4.0 C 150.4 4.0 150.4 4.0 150.4 4.0 Z M 141.7 5.5 C 141.6 5.5 141.6 5.5 141.7 5.5 C 141.7 5.5 141.7 5.5 141.7 5.5 Z M 140.2 6.1 C 140.1 6.0 140.1 6.0 140.2 6.1 C 140.2 6.1 140.2 6.1 140.2 6.1 Z M 133.7 4.7 C 133.6 4.6 133.6 4.6 133.7 4.7 C 133.7 4.7 133.7 4.7 133.7 4.7 Z M 138.7 6.7 C 138.7 6.7 138.7 6.7 138.7 6.7 C 138.7 6.7 138.7 6.7 138.7 6.7 Z M 134.3 6.3 C 134.2 6.3 134.2 6.3 134.3 6.3 C 134.3 6.3 134.3 6.3 134.3 6.3 Z M 134.9 7.5 C 134.8 7.4 134.8 7.4 134.9 7.5 C 134.9 7.5 134.9 7.5 134.9 7.5 Z M 144.8 1.7 C 144.7 1.7 144.7 1.7 144.8 1.7 C 144.8 1.7 144.8 1.7 144.8 1.7 Z M 161.3 7.7 C 161.3 7.5 161.3 7.5 161.3 7.7 C 161.3 7.7 161.3 7.7 161.3 7.7 Z M 134.6 5.8 C 134.6 5.8 134.6 5.8 134.6 5.8 C 134.6 5.8 134.6 5.8 134.6 5.8 Z M 145.6 4.8 C 145.5 3.6 146.5 6.3 145.3 4.8 C 145.3 4.8 145.6 5.0 145.6 4.8 M 144.1 2.9 C 144.1 2.9 144.1 2.9 144.1 2.9 C 144.1 2.9 144.1 2.9 144.1 2.9 Z M 149.0 2.2 C 149.1 2.2 149.1 2.2 149.0 2.2 C 149.0 2.2 149.0 2.2 149.0 2.2 Z M 139.5 6.9 C 139.7 7.5 138.3 6.4 139.7 6.9 M 133.7 2.7 C 133.9 3.3 132.4 2.2 133.8 2.7 M 167.3 9.3 C 167.8 9.0 167.8 10.0 167.3 9.3 M 150.5 1.6 C 150.8 1.1 151.8 1.9 150.5 1.6 M 147.8 3.1 C 148.0 3.7 146.6 2.6 148.0 3.0 M 137.1 2.8 C 137.0 2.7 137.0 2.7 137.1 2.8 C 137.1 2.8 137.1 2.8 137.1 2.8 Z M 154.6 6.4 C 154.5 6.4 154.5 6.4 154.6 6.4 C 154.6 6.4 154.6 6.4 154.6 6.4 Z M 147.4 5.1 C 148.2 5.9 146.3 4.5 147.4 5.1 M 156.5 5.0 C 157.6 6.1 154.5 4.6 156.5 5.0 M 131.1 2.5 C 132.4 3.7 130.1 1.7 131.1 2.5 M 137.7 5.7 C 139.1 7.0 136.7 5.0 137.7 5.7 M 153.2 5.9 C 153.3 6.6 151.5 5.5 153.2 5.9 M 164.9 8.1 C 165.9 8.6 163.4 7.9 164.9 8.1 M 140.3 2.7 C 140.3 2.7 140.3 2.7 140.3 2.7 C 140.3 2.7 140.3 2.7 140.3 2.7 Z M 162.9 2.3 C 162.9 2.3 162.9 2.3 162.9 2.3 C 162.9 2.3 162.9 2.3 162.9 2.3 Z M 129.4 6.7 C 129.3 6.7 129.3 6.7 129.4 6.7 C 129.4 6.7 129.4 6.7 129.4 6.7 Z M 138.5 5.1 C 138.5 5.0 138.5 5.0 138.5 5.1 C 138.5 5.1 138.5 5.1 138.5 5.1 Z M 131.9 6.9 C 131.9 6.8 131.9 6.8 131.9 6.9 C 131.9 6.9 131.9 6.9 131.9 6.9 Z M 142.7 4.1 C 142.7 4.1 142.7 4.1 142.7 4.1 C 142.7 4.1 142.7 4.1 142.7 4.1 Z M 143.6 7.4 C 143.5 7.4 143.5 7.4 143.6 7.4 C 143.6 7.4 143.6 7.4 143.6 7.4 Z M 148.1 6.0 C 148.1 6.0 148.1 6.0 148.1 6.0 C 148.1 6.0 148.1 6.0 148.1 6.0 Z M 141.5 7.1 C 138.7 7.3 142.9 6.0 141.5 7.1 C 141.5 7.1 141.5 7.1 141.5 7.1 Z M 146.2 3.8 C 146.2 3.8 146.2 3.8 146.2 3.8 C 146.2 3.8 146.2 3.8 146.2 3.8 Z M 146.6 6.2 C 144.9 7.1 145.7 4.6 146.6 6.2 M 155.4 7.0 C 154.9 7.5 155.2 6.2 155.4 7.0 M 158.6 2.8 C 158.6 2.7 158.6 2.7 158.6 2.8 C 158.6 2.8 158.6 2.8 158.6 2.8 Z M 157.8 3.1 C 157.7 3.0 157.7 3.0 157.8 3.1 C 157.8 3.1 157.8 3.1 157.8 3.1 Z M 157.2 7.2 C 157.2 7.2 157.2 7.2 157.2 7.2 C 157.2 7.2 157.2 7.2 157.2 7.2 Z M 157.8 1.8 C 157.7 1.8 157.7 1.8 157.8 1.8 C 157.8 1.8 157.8 1.8 157.8 1.8 Z M 144.6 7.3 C 144.6 7.3 144.6 7.3 144.6 7.3 C 144.6 7.3 144.6 7.3 144.6 7.3 Z M 130.6 7.3 C 130.6 7.3 130.6 7.3 130.6 7.3 C 130.6 7.3 130.6 7.3 130.6 7.3 Z M 166.0 4.7 C 165.9 4.7 165.9 4.7 166.0 4.7 C 166.0 4.7 166.0 4.7 166.0 4.7 Z M 143.2 6.0 C 143.1 6.0 143.1 6.0 143.2 6.0 C 143.2 6.0 143.2 6.0 143.2 6.0 Z M 160.4 3.2 C 160.4 3.1 160.4 3.1 160.4 3.2 C 160.4 3.2 160.4 3.2 160.4 3.2 Z M 144.1 6.3 C 144.0 6.3 144.0 6.3 144.1 6.3 C 144.1 6.3 144.1 6.3 144.1 6.3 Z M 140.8 2.4 C 140.7 2.4 140.7 2.4 140.8 2.4 C 140.8 2.4 140.8 2.4 140.8 2.4 Z M 137.8 1.7 C 137.7 1.7 137.7 1.7 137.8 1.7 C 137.8 1.7 137.8 1.7 137.8 1.7 Z M 141.0 4.7 C 140.9 4.7 140.9 4.7 141.0 4.7 C 141.0 4.7 141.0 4.7 141.0 4.7 Z M 161.1 4.7 C 165.5 6.5 157.4 4.6 161.1 4.7 M 140.0 4.5 C 143.9 4.7 137.0 5.8 140.0 4.5 C 139.6 4.8 140.0 4.5 140.0 4.5 M 125.3 6.9 C 127.7 8.2 127.7 6.3 127.7 6.3 C 127.5 8.8 129.9 5.3 129.4 4.8 C 129.5 4.4 127.6 -0.0 125.9 2.6 C 125.4 3.0 125.1 2.2 124.8 2.1 C 121.8 2.3 126.9 3.5 123.2 3.5 C 122.6 3.2 123.3 1.0 121.1 2.5 C 121.1 2.3 118.6 1.5 119.5 2.5 C 118.4 1.5 117.6 2.7 116.5 2.9 C 115.5 2.4 117.3 1.4 113.8 2.6 C 112.3 0.8 111.7 3.9 110.4 1.9 C 109.5 1.9 108.1 5.1 110.2 3.3 C 109.9 3.5 111.2 5.0 108.4 4.4 C 108.8 4.0 110.3 0.8 105.9 2.3 C 105.2 2.3 103.5 3.1 103.1 2.7 C 105.4 2.4 100.1 1.3 100.6 2.3 C 97.1 1.6 99.1 3.1 96.6 2.0 C 94.5 2.0 97.3 3.4 94.7 2.6 C 92.7 2.8 94.1 2.0 94.3 2.0 C 92.6 1.9 91.9 2.4 91.4 2.4 C 91.0 2.2 90.2 1.6 89.8 2.4 C 88.0 3.8 89.7 5.3 88.9 6.8 C 90.2 7.5 89.4 5.6 90.3 6.8 C 91.0 5.8 90.4 6.8 94.0 6.6 C 93.9 6.4 93.0 5.8 93.9 5.7 C 95.3 5.8 94.3 8.3 96.6 6.5 C 93.9 6.0 100.4 5.7 97.9 5.2 C 101.0 4.9 98.8 5.4 101.0 6.0 C 100.9 4.3 101.2 7.8 102.1 6.4 C 102.3 7.1 105.8 6.8 103.3 5.8 C 107.0 5.4 104.6 6.3 106.0 7.2 C 107.7 7.3 106.1 4.5 107.2 6.5 C 109.4 7.5 107.2 5.5 108.9 7.1 C 108.1 5.7 110.5 7.1 109.9 5.6 C 113.7 5.5 109.4 7.2 112.1 6.2 C 111.2 6.1 111.6 8.2 113.2 6.8 C 112.5 4.4 115.3 9.0 114.2 5.7 C 119.4 4.8 115.0 7.1 117.9 7.1 C 118.7 7.1 117.1 6.0 117.8 6.0 C 121.6 6.5 118.4 7.3 120.4 5.7 C 124.1 5.3 121.5 7.1 123.3 7.2 C 123.4 6.5 124.9 5.2 125.3 6.9 M 122.0 6.1 C 121.2 6.6 121.5 5.6 122.0 6.1 M 129.4 6.8 C 128.6 7.4 128.9 6.3 129.4 6.8 M 118.9 6.6 C 117.9 7.1 118.6 5.7 118.9 6.6 M 99.0 5.8 C 100.4 5.8 98.3 6.2 99.0 5.8 M 126.4 6.9 C 125.4 7.6 126.1 6.1 126.4 6.9 M 127.8 5.7 C 127.7 5.7 127.7 5.7 127.8 5.7 M 97.0 7.1 C 96.9 7.1 96.9 7.1 97.0 7.1 M 102.3 7.1 C 101.2 7.1 103.0 6.8 102.3 7.1 M 102.5 1.7 C 101.4 1.7 103.2 1.4 102.5 1.7 M 94.1 7.2 C 92.9 7.6 93.7 6.6 94.1 7.2 M 91.1 6.0 C 90.1 6.5 90.4 5.4 91.1 6.0 M 122.6 4.2 C 122.6 4.1 122.6 4.1 122.6 4.2 C 122.6 4.2 122.6 4.2 122.6 4.2 Z M 112.8 2.9 C 114.0 3.4 111.4 2.2 112.8 2.9 M 114.6 6.4 C 113.9 5.3 116.2 6.5 114.6 6.4 C 114.6 6.4 114.6 6.4 114.6 6.4 Z M 116.4 5.9 C 116.4 5.8 116.4 5.8 116.4 5.9 C 116.4 5.9 116.4 5.9 116.4 5.9 Z M 110.8 5.8 C 110.9 5.8 110.9 5.8 110.8 5.8 C 110.8 5.8 110.8 5.8 110.8 5.8 Z M 112.0 5.7 C 112.4 5.5 112.6 6.0 112.0 5.7 C 112.0 5.7 112.0 5.7 112.0 5.7 Z M 103.9 2.3 C 104.4 2.0 104.5 2.5 103.9 2.3 C 103.9 2.3 103.9 2.3 103.9 2.3 Z M 113.7 5.4 C 113.9 4.3 114.5 6.1 113.7 5.4 C 113.7 5.4 113.7 5.4 113.7 5.4 Z M 107.8 2.8 C 107.3 3.1 106.7 1.7 107.8 2.8 M 95.9 6.9 C 95.4 7.2 94.8 5.9 95.9 6.9 M 107.6 7.2 C 107.1 7.5 106.5 6.2 107.6 7.2 M 121.3 6.6 C 121.2 6.4 121.2 6.4 121.3 6.6 M 114.8 1.8 C 114.1 2.2 114.4 1.3 114.8 1.8 M 125.9 2.2 C 125.1 2.6 125.5 1.7 125.9 2.2 M 97.5 1.8 C 97.6 2.1 96.3 1.7 97.5 1.8 M 106.2 5.5 C 105.2 5.3 104.1 4.7 106.3 4.8 C 106.4 5.1 105.7 5.2 106.2 5.5 C 106.2 5.5 106.2 5.5 106.2 5.5 Z M 102.5 3.0 C 102.4 2.9 102.4 2.9 102.5 3.0 M 104.4 6.5 C 104.2 6.4 104.2 6.4 104.4 6.5 M 98.4 6.4 C 98.3 6.2 98.3 6.2 98.4 6.4 M 97.6 6.7 C 97.7 6.6 97.7 6.6 97.6 6.7 C 97.6 6.7 97.6 6.7 97.6 6.7 Z M 91.1 7.1 C 91.1 7.1 91.1 7.1 91.1 7.1 C 91.1 7.1 91.1 7.1 91.1 7.1 Z M 100.3 6.2 C 100.3 6.2 100.3 6.2 100.3 6.2 C 100.3 6.2 100.3 6.2 100.3 6.2 Z M 94.9 2.1 C 94.9 2.0 94.9 2.0 94.9 2.1 C 94.9 2.1 94.9 2.1 94.9 2.1 Z M 95.6 2.7 C 95.5 2.7 95.5 2.7 95.6 2.7 C 95.6 2.7 95.6 2.7 95.6 2.7 Z M 124.7 6.9 C 123.8 7.6 124.2 5.0 124.7 6.9 M 92.6 2.7 C 91.8 2.0 94.2 2.6 92.6 2.7 C 92.6 2.7 92.6 2.7 92.6 2.7 Z M 101.0 5.3 C 100.9 5.2 100.9 5.2 101.0 5.3 M 97.3 6.6 C 97.2 6.4 97.2 6.4 97.3 6.6 M 114.7 7.4 C 114.6 7.2 114.6 7.2 114.7 7.4 M 92.6 6.4 C 89.8 6.1 93.9 4.8 92.6 6.4 M 116.0 6.3 C 116.0 6.4 116.0 6.4 116.0 6.3 M 109.7 4.3 C 107.8 4.4 110.3 3.7 109.7 4.3 M 104.9 5.7 C 105.0 5.6 105.0 5.6 104.9 5.7 C 104.9 5.7 104.9 5.7 104.9 5.7 Z M 107.7 5.7 C 109.1 5.5 108.0 6.0 107.7 5.7 C 107.7 5.7 107.7 5.7 107.7 5.7 Z M 123.4 5.9 C 121.7 5.7 125.2 5.5 123.4 5.9 C 123.4 5.9 123.4 5.9 123.4 5.9 Z M 93.9 3.8 C 94.0 3.7 94.0 3.7 93.9 3.8 C 93.9 3.8 93.9 3.8 93.9 3.8 Z M 100.6 7.0 C 101.5 6.7 101.0 7.3 100.6 7.0 C 100.6 7.0 100.6 7.0 100.6 7.0 Z M 90.1 7.1 C 90.9 6.8 90.5 7.4 90.1 7.1 C 90.1 7.1 90.1 7.1 90.1 7.1 Z M 125.5 6.0 C 119.1 4.2 134.2 6.5 125.5 6.0 C 125.5 6.0 125.5 6.0 125.5 6.0 Z M 106.6 6.4 C 106.6 6.4 106.6 6.4 106.6 6.4 C 106.6 6.4 106.6 6.4 106.6 6.4 Z M 118.5 7.2 C 118.6 7.1 118.6 7.1 118.5 7.2 C 118.5 7.2 118.5 7.2 118.5 7.2 Z M 120.6 6.2 C 120.6 6.1 120.6 6.1 120.6 6.2 C 120.6 6.2 120.6 6.2 120.6 6.2 Z M 120.0 1.9 C 120.0 1.9 120.0 1.9 120.0 1.9 C 120.0 1.9 120.0 1.9 120.0 1.9 Z M 119.3 3.9 C 119.4 3.7 119.4 3.7 119.3 3.9 C 119.3 3.9 119.3 3.9 119.3 3.9 Z M 123.5 3.1 C 123.5 3.1 123.5 3.1 123.5 3.1 C 123.5 3.1 123.5 3.1 123.5 3.1 Z M 123.4 2.6 C 123.4 2.5 123.4 2.5 123.4 2.6 C 123.4 2.6 123.4 2.6 123.4 2.6 Z M 97.3 5.4 C 97.3 5.3 97.3 5.3 97.3 5.4 C 97.3 5.4 97.3 5.4 97.3 5.4 Z M 99.5 3.6 C 98.0 4.2 99.9 2.7 99.5 3.6 C 99.5 3.6 99.5 3.6 99.5 3.6 Z M 112.9 4.5 C 111.5 4.7 113.8 3.9 112.9 4.5 C 112.9 4.5 112.9 4.5 112.9 4.5 Z M 111.4 2.1 C 111.3 2.1 111.3 2.1 111.4 2.1 C 111.4 2.1 111.4 2.1 111.4 2.1 Z M 120.6 7.2 C 120.6 7.1 120.6 7.1 120.6 7.2 C 120.6 7.2 120.6 7.2 120.6 7.2 Z M 123.1 6.5 C 123.2 5.6 123.9 6.9 123.1 6.5 M 110.3 7.0 C 110.3 6.9 110.3 6.9 110.3 7.0 C 110.3 7.0 110.3 7.0 110.3 7.0 Z M 102.2 5.6 C 102.2 5.5 102.2 5.5 102.2 5.6 C 102.2 5.6 102.2 5.6 102.2 5.6 Z M 94.1 6.2 C 94.1 6.1 94.1 6.1 94.1 6.2 C 94.1 6.2 94.1 6.2 94.1 6.2 Z M 105.2 6.9 C 105.3 6.8 105.3 6.8 105.2 6.9 C 105.2 6.9 105.2 6.9 105.2 6.9 Z M 109.1 6.1 C 109.1 5.9 109.1 5.9 109.1 6.1 C 109.1 6.1 109.1 6.1 109.1 6.1 Z M 92.3 4.9 C 92.4 4.9 92.4 4.9 92.3 4.9 C 92.3 4.9 92.3 4.9 92.3 4.9 Z M 104.3 7.0 C 104.4 7.0 104.4 7.0 104.3 7.0 C 104.3 7.0 104.3 7.0 104.3 7.0 Z M 102.0 4.2 C 102.1 4.1 102.1 4.1 102.0 4.2 C 102.0 4.2 102.0 4.2 102.0 4.2 Z M 122.7 7.8 C 122.8 7.7 122.8 7.7 122.7 7.8 C 122.7 7.8 122.7 7.8 122.7 7.8 Z M 92.3 6.1 C 92.3 6.1 92.3 6.1 92.3 6.1 C 92.3 6.1 92.3 6.1 92.3 6.1 Z M 91.8 6.9 C 91.8 6.9 91.8 6.9 91.8 6.9 C 91.8 6.9 91.8 6.9 91.8 6.9 Z M 97.5 2.6 C 100.3 3.1 94.9 2.8 97.0 3.8 C 92.9 4.1 96.9 2.6 97.5 2.6 C 97.5 2.6 97.5 2.6 97.5 2.6 Z M 87.9 7.2 C 89.5 6.0 89.5 4.9 88.8 3.6 C 88.1 3.0 88.1 5.4 88.1 3.4 C 89.9 3.0 87.3 0.3 87.3 2.9 C 84.9 3.3 86.9 1.2 85.5 2.3 C 83.0 2.5 84.3 1.7 82.3 1.9 C 81.2 3.4 81.2 1.2 80.7 2.6 C 81.6 1.1 78.6 3.0 78.5 2.3 C 80.3 1.4 71.7 2.3 76.4 2.7 C 74.5 3.4 74.9 2.2 74.2 2.0 C 73.4 2.9 71.1 1.3 69.9 2.2 C 70.1 2.4 70.7 2.4 70.9 2.7 C 71.2 3.3 69.6 2.6 69.8 2.7 C 69.0 3.0 65.9 3.9 69.2 2.3 C 69.3 1.6 66.5 2.6 66.6 2.0 C 63.8 2.0 65.9 3.4 64.7 2.3 C 62.6 2.3 61.2 2.3 61.2 2.5 C 59.9 2.3 59.7 1.5 58.6 2.3 C 56.1 0.7 56.8 5.3 55.9 2.3 C 55.2 3.0 54.5 1.0 54.6 2.9 C 55.5 2.0 50.4 1.4 52.6 2.8 C 52.0 3.2 48.8 0.8 49.2 2.8 C 48.1 4.2 48.3 5.6 50.8 6.9 C 50.5 5.8 53.4 8.1 51.6 6.2 C 49.4 5.6 55.5 5.5 54.2 6.2 C 53.9 8.5 57.1 4.8 58.4 6.4 C 57.4 5.5 62.3 5.1 60.9 6.7 C 61.8 6.9 62.0 6.1 63.0 7.1 C 60.1 6.9 64.1 5.3 64.0 6.3 C 63.5 7.0 67.9 7.5 67.4 6.5 C 65.9 4.2 68.6 7.0 69.3 6.1 C 71.7 5.6 68.9 8.1 70.7 6.4 C 71.2 6.7 74.5 6.7 72.4 7.1 C 71.7 6.9 74.3 4.6 74.7 6.6 C 71.2 7.7 78.7 7.2 77.5 6.6 C 72.2 5.5 83.1 5.3 79.0 6.4 C 81.3 7.5 78.3 6.9 81.2 6.4 C 80.8 5.8 83.1 5.2 82.6 6.4 C 83.0 8.3 83.4 3.9 85.2 6.5 C 85.4 7.6 88.7 5.7 87.4 6.9 C 87.4 7.0 87.9 7.2 87.9 7.2 M 86.9 7.0 C 87.3 6.6 87.5 7.5 86.9 7.0 M 87.3 6.6 C 87.4 6.6 87.4 6.6 87.3 6.6 C 87.3 6.6 87.3 6.6 87.3 6.6 Z M 81.6 6.3 C 81.7 6.4 81.7 6.4 81.6 6.3 C 81.6 6.3 81.6 6.3 81.6 6.3 Z M 77.2 1.6 C 77.2 1.6 77.2 1.6 77.2 1.6 C 77.2 1.6 77.2 1.6 77.2 1.6 Z M 77.9 6.2 C 77.9 6.2 77.9 6.2 77.9 6.2 C 77.9 6.2 77.9 6.2 77.9 6.2 Z M 83.7 6.0 C 83.7 6.0 83.7 6.0 83.7 6.0 C 83.7 6.0 83.7 6.0 83.7 6.0 Z M 78.2 6.9 C 77.9 6.2 79.5 7.4 78.1 7.0 C 78.1 7.0 78.3 7.0 78.2 6.9 M 73.3 7.2 C 73.2 7.1 73.2 7.1 73.3 7.2 M 62.4 1.6 C 62.3 1.5 62.3 1.5 62.4 1.6 M 61.5 7.2 C 61.4 7.2 61.4 7.2 61.5 7.2 M 68.4 6.5 C 66.8 6.6 68.0 6.1 68.4 6.5 M 57.5 6.8 C 59.4 7.3 55.5 7.2 57.5 6.8 M 55.6 7.3 C 55.5 7.2 55.5 7.2 55.6 7.3 M 64.2 7.0 C 64.3 6.9 64.3 6.9 64.2 7.0 C 64.2 7.0 64.2 7.0 64.2 7.0 Z M 69.0 6.8 C 71.0 7.1 67.0 7.4 69.0 6.8 M 81.0 7.0 C 79.9 7.3 81.0 6.1 81.0 7.0 M 83.2 6.6 C 83.2 6.6 83.2 6.6 83.2 6.6 C 83.2 6.6 83.2 6.6 83.2 6.6 Z M 60.5 6.9 C 60.6 6.9 60.6 6.9 60.5 6.9 C 60.5 6.9 60.5 6.9 60.5 6.9 Z M 58.3 7.0 C 58.4 7.0 58.4 7.0 58.3 7.0 C 58.3 7.0 58.3 7.0 58.3 7.0 Z M 54.7 1.8 C 54.8 1.8 54.8 1.8 54.7 1.8 C 54.7 1.8 54.7 1.8 54.7 1.8 Z M 81.6 4.4 C 83.0 4.8 80.1 6.1 80.3 4.9 C 80.2 4.3 81.4 4.6 81.6 4.4 M 70.4 5.2 C 70.0 3.4 71.9 7.6 70.4 5.2 M 55.4 6.1 C 53.9 4.0 57.2 7.6 55.4 6.1 M 52.4 6.5 C 51.5 6.0 57.9 6.2 53.4 6.8 C 53.0 7.1 52.7 6.7 52.4 6.5 M 73.2 6.3 C 72.8 5.3 75.5 6.8 73.2 6.3 M 64.1 3.4 C 63.4 4.0 61.5 4.6 62.3 3.5 C 62.3 2.1 65.0 2.8 64.1 3.4 M 86.4 6.0 C 85.2 7.6 86.5 4.7 86.4 6.0 M 80.7 5.9 C 80.7 5.9 80.7 5.9 80.7 5.9 C 80.7 5.9 80.7 5.9 80.7 5.9 Z M 78.4 6.1 C 78.3 6.0 78.3 6.0 78.4 6.1 M 85.5 7.4 C 85.4 7.3 85.4 7.3 85.5 7.4 M 64.1 5.0 C 64.0 4.9 64.0 4.9 64.1 5.0 M 68.8 6.1 C 66.6 4.5 70.0 5.7 68.8 6.1 M 74.2 3.1 C 73.5 2.3 75.6 3.0 74.2 3.1 M 65.1 6.6 C 63.6 5.2 67.3 5.2 65.1 6.6 M 69.9 6.2 C 69.8 6.2 69.8 6.2 69.9 6.2 C 69.9 6.2 69.9 6.2 69.9 6.2 Z M 63.5 3.2 C 63.6 3.2 63.6 3.2 63.5 3.2 C 63.5 3.2 63.5 3.2 63.5 3.2 Z M 62.8 3.3 C 62.9 3.3 62.9 3.3 62.8 3.3 C 62.8 3.3 62.8 3.3 62.8 3.3 Z M 63.2 6.8 C 63.3 6.8 63.3 6.8 63.2 6.8 C 63.2 6.8 63.2 6.8 63.2 6.8 Z M 83.4 2.5 C 81.8 2.4 84.6 2.3 83.4 2.5 C 83.4 2.5 83.4 2.5 83.4 2.5 Z M 76.4 6.9 C 73.8 5.7 78.2 5.8 76.4 6.9 C 76.4 6.9 76.4 6.9 76.4 6.9 Z M 73.5 5.0 C 73.5 4.9 73.5 4.9 73.5 5.0 C 73.5 5.0 73.5 5.0 73.5 5.0 Z M 66.1 7.6 C 66.1 7.5 66.1 7.5 66.1 7.6 C 66.1 7.6 66.1 7.6 66.1 7.6 Z M 82.6 2.3 C 82.6 2.3 82.6 2.3 82.6 2.3 C 82.6 2.3 82.6 2.3 82.6 2.3 Z M 58.8 6.0 C 58.8 5.9 58.8 5.9 58.8 6.0 C 58.8 6.0 58.8 6.0 58.8 6.0 Z M 67.8 3.0 C 67.2 3.5 67.7 2.5 67.8 3.0 C 67.8 3.0 67.8 3.0 67.8 3.0 Z M 65.4 3.0 C 65.4 3.0 65.4 3.0 65.4 3.0 C 65.4 3.0 65.4 3.0 65.4 3.0 Z M 55.1 7.4 C 55.0 7.4 55.0 7.4 55.1 7.4 C 55.1 7.4 55.1 7.4 55.1 7.4 Z M 59.4 1.6 C 59.4 1.6 59.4 1.6 59.4 1.6 C 59.4 1.6 59.4 1.6 59.4 1.6 Z M 57.5 3.3 C 57.5 3.3 57.5 3.3 57.5 3.3 C 57.5 3.3 57.5 3.3 57.5 3.3 Z M 63.6 6.5 C 61.3 6.7 64.2 5.8 63.6 6.5 C 63.6 6.5 63.6 6.5 63.6 6.5 Z M 51.7 3.8 C 51.6 3.7 51.6 3.7 51.7 3.8 C 51.7 3.8 51.7 3.8 51.7 3.8 Z M 50.5 5.8 C 50.4 5.7 50.4 5.7 50.5 5.8 C 50.5 5.8 50.5 5.8 50.5 5.8 Z M 49.9 6.9 C 49.8 6.8 49.8 6.8 49.9 6.9 C 49.9 6.9 49.9 6.9 49.9 6.9 Z M 78.5 4.0 C 78.5 4.0 78.5 4.0 78.5 4.0 C 78.5 4.0 78.5 4.0 78.5 4.0 Z M 79.4 7.2 C 79.4 7.3 79.4 7.3 79.4 7.2 C 79.4 7.2 79.4 7.2 79.4 7.2 Z M 76.2 7.4 C 76.2 7.4 76.2 7.4 76.2 7.4 C 76.2 7.4 76.2 7.4 76.2 7.4 Z M 79.0 2.0 C 79.1 2.0 79.1 2.0 79.0 2.0 C 79.0 2.0 79.0 2.0 79.0 2.0 Z M 67.1 4.8 C 67.2 4.8 67.2 4.8 67.1 4.8 C 67.1 4.8 67.1 4.8 67.1 4.8 Z M 66.0 3.4 C 66.1 3.5 66.1 3.5 66.0 3.4 C 66.0 3.4 66.0 3.4 66.0 3.4 Z M 68.8 1.7 C 68.8 1.7 68.8 1.7 68.8 1.7 C 68.8 1.7 68.8 1.7 68.8 1.7 Z M 65.1 2.3 C 65.2 2.3 65.2 2.3 65.1 2.3 C 65.1 2.3 65.1 2.3 65.1 2.3 Z M 87.0 2.6 C 87.0 2.5 87.0 2.5 87.0 2.6 C 87.0 2.6 87.0 2.6 87.0 2.6 Z M 87.3 5.1 C 87.3 5.0 87.3 5.0 87.3 5.1 C 87.3 5.1 87.3 5.1 87.3 5.1 Z M 66.8 6.6 C 66.2 7.1 65.7 5.9 66.8 6.6 M 71.3 6.3 C 71.3 6.2 71.3 6.2 71.3 6.3 C 71.3 6.3 71.3 6.3 71.3 6.3 Z M 59.1 6.5 C 58.6 5.5 61.3 7.0 59.1 6.5 C 59.1 6.5 59.1 6.5 59.1 6.5 Z M 61.5 2.3 C 61.5 2.3 61.5 2.3 61.5 2.3 C 61.5 2.3 61.5 2.3 61.5 2.3 Z M 60.3 2.7 C 60.3 2.6 60.3 2.6 60.3 2.7 C 60.3 2.7 60.3 2.7 60.3 2.7 Z M 53.8 5.4 C 53.7 5.3 53.7 5.3 53.8 5.4 M 71.9 7.2 C 71.2 6.7 71.3 6.8 71.9 7.2 M 57.6 6.5 C 57.7 6.4 57.7 6.4 57.6 6.5 C 57.6 6.5 57.6 6.5 57.6 6.5 Z M 52.3 6.0 C 52.4 6.0 52.4 6.0 52.3 6.0 C 52.3 6.0 52.3 6.0 52.3 6.0 Z M 75.1 6.5 C 75.0 5.3 75.6 5.6 75.1 6.5 M 84.1 6.1 C 84.1 6.0 84.1 6.0 84.1 6.1 C 84.1 6.1 84.1 6.1 84.1 6.1 Z M 45.2 6.9 C 47.6 8.2 47.6 6.3 47.6 6.3 C 47.3 8.8 49.8 5.3 49.3 4.8 C 49.4 4.4 47.5 -0.0 45.8 2.6 C 45.3 3.0 45.0 2.2 44.7 2.1 C 41.7 2.3 46.8 3.5 43.1 3.5 C 42.4 3.2 43.2 1.0 41.0 2.5 C 40.9 2.3 38.5 1.5 39.4 2.5 C 38.2 1.5 37.5 2.7 36.4 2.9 C 35.4 2.4 37.2 1.4 33.7 2.6 C 32.2 0.8 32.2 3.9 30.3 1.9 C 29.0 1.9 27.0 5.1 30.0 3.3 C 29.6 3.5 31.1 5.0 27.6 4.4 C 28.1 4.0 29.5 0.7 24.6 2.4 C 23.8 2.3 22.1 3.2 21.7 2.9 C 23.9 2.4 18.6 1.7 19.2 2.6 C 16.0 2.3 18.1 3.5 15.6 3.0 C 13.8 3.4 17.1 3.8 14.0 4.1 C 12.0 5.0 13.1 3.8 13.4 3.7 C 11.5 4.3 11.2 5.3 10.6 5.6 C 10.2 5.7 9.1 5.7 9.2 6.6 C 8.5 9.0 10.8 9.0 11.3 10.6 C 12.6 10.3 11.0 9.3 12.3 9.8 C 12.2 8.7 12.2 9.5 14.9 8.1 C 14.8 7.9 13.8 7.6 14.5 7.2 C 15.7 6.8 15.6 9.5 16.8 7.4 C 14.7 7.3 19.4 6.0 17.4 5.9 C 19.7 5.1 18.1 5.9 20.0 6.3 C 19.8 4.6 20.3 8.0 20.9 6.6 C 21.2 7.3 24.4 6.8 22.0 5.9 C 25.4 5.3 23.3 6.4 24.7 7.2 C 26.6 7.3 24.8 4.5 26.0 6.6 C 28.7 7.5 26.0 5.5 28.2 7.1 C 27.2 5.7 30.4 7.1 29.6 5.6 C 32.2 5.5 31.5 5.9 31.3 6.2 C 31.0 6.5 30.6 6.7 32.0 6.2 C 31.1 6.1 31.5 8.2 33.1 6.8 C 32.4 4.4 35.2 9.0 34.0 5.7 C 39.3 4.8 34.9 7.1 37.8 7.1 C 38.6 7.1 37.0 6.0 37.7 6.0 C 41.5 6.5 38.3 7.3 40.3 5.7 C 44.0 5.3 41.4 7.1 43.2 7.2 C 43.3 6.5 44.8 5.2 45.2 6.9 M 41.9 6.1 C 41.1 6.6 41.4 5.6 41.9 6.1 M 49.3 6.8 C 48.5 7.4 48.8 6.3 49.3 6.8 M 38.8 6.6 C 37.8 7.1 38.5 5.7 38.8 6.6 M 18.3 6.3 C 19.4 6.1 17.9 6.8 18.3 6.3 M 46.3 6.9 C 45.2 7.6 46.0 6.1 46.3 6.9 M 47.7 5.7 C 47.6 5.7 47.6 5.7 47.7 5.7 M 17.2 7.8 C 17.1 7.8 17.1 7.8 17.2 7.8 M 21.2 7.3 C 20.2 7.3 21.7 6.9 21.2 7.3 M 21.0 1.9 C 19.9 2.0 21.6 1.5 21.0 1.9 M 15.2 8.5 C 14.5 9.3 14.7 8.1 15.2 8.5 M 12.4 8.7 C 11.9 9.7 11.6 8.6 12.4 8.7 M 42.5 4.2 C 42.5 4.1 42.5 4.1 42.5 4.2 C 42.5 4.2 42.5 4.2 42.5 4.2 Z M 32.7 2.9 C 33.9 3.4 31.3 2.2 32.7 2.9 M 34.5 6.4 C 33.7 5.3 36.0 6.5 34.5 6.4 C 34.5 6.4 34.5 6.4 34.5 6.4 Z M 36.2 5.9 C 36.3 5.8 36.3 5.8 36.2 5.9 C 36.2 5.9 36.2 5.9 36.2 5.9 Z M 30.7 5.8 C 30.8 5.8 30.8 5.8 30.7 5.8 C 30.7 5.8 30.7 5.8 30.7 5.8 Z M 31.9 5.7 C 32.3 5.5 32.5 6.0 31.9 5.7 C 31.9 5.7 31.9 5.7 31.9 5.7 Z M 22.4 2.4 C 22.9 2.1 23.1 2.6 22.4 2.4 C 22.4 2.4 22.4 2.4 22.4 2.4 Z M 33.6 5.4 C 33.7 4.3 34.4 6.1 33.6 5.4 C 33.6 5.4 33.6 5.4 33.6 5.4 Z M 26.8 2.8 C 26.1 3.1 25.5 1.7 26.8 2.8 M 16.3 7.9 C 16.1 8.2 15.3 7.1 16.3 7.9 M 26.6 7.2 C 26.0 7.5 25.3 6.2 26.6 7.2 M 41.2 6.6 C 41.1 6.4 41.1 6.4 41.2 6.6 M 34.7 1.8 C 34.0 2.2 34.3 1.3 34.7 1.8 M 45.7 2.2 C 45.0 2.6 45.4 1.7 45.7 2.2 M 16.4 2.6 C 16.5 2.9 15.3 2.7 16.4 2.6 M 24.9 5.5 C 23.8 5.4 22.6 4.8 25.0 4.8 C 25.2 5.1 24.4 5.2 24.9 5.5 C 24.9 5.5 24.9 5.5 24.9 5.5 Z M 21.1 3.1 C 20.9 3.0 20.9 3.0 21.1 3.1 M 23.1 6.5 C 22.9 6.4 22.9 6.4 23.1 6.5 M 18.0 6.9 C 17.9 6.8 17.9 6.8 18.0 6.9 M 17.5 7.3 C 17.5 7.3 17.5 7.3 17.5 7.3 C 17.5 7.3 17.5 7.3 17.5 7.3 Z M 13.0 9.7 C 13.0 9.7 13.0 9.7 13.0 9.7 C 13.0 9.7 13.0 9.7 13.0 9.7 Z M 19.5 6.6 C 19.5 6.5 19.5 6.5 19.5 6.6 C 19.5 6.6 19.5 6.6 19.5 6.6 Z M 14.1 3.5 C 14.0 3.5 14.0 3.5 14.1 3.5 C 14.1 3.5 14.1 3.5 14.1 3.5 Z M 14.9 3.9 C 14.9 3.9 14.9 3.9 14.9 3.9 C 14.9 3.9 14.9 3.9 14.9 3.9 Z M 44.6 6.9 C 43.7 7.6 44.1 5.0 44.6 6.9 M 12.0 5.1 C 10.8 4.9 13.4 4.2 12.0 5.1 C 12.0 5.1 12.0 5.1 12.0 5.1 Z M 19.9 5.6 C 19.8 5.5 19.8 5.5 19.9 5.6 M 17.2 7.3 C 17.1 7.2 17.1 7.2 17.2 7.3 M 34.6 7.4 C 34.5 7.2 34.5 7.2 34.6 7.4 M 13.7 8.3 C 11.4 9.3 14.0 6.5 13.7 8.3 M 35.9 6.3 C 35.9 6.4 35.9 6.4 35.9 6.3 M 29.3 4.3 C 26.7 4.4 30.2 3.7 29.3 4.3 M 23.6 5.8 C 23.6 5.7 23.6 5.7 23.6 5.8 C 23.6 5.8 23.6 5.8 23.6 5.8 Z M 26.7 5.7 C 28.4 5.5 27.1 6.0 26.7 5.7 C 26.7 5.7 26.7 5.7 26.7 5.7 Z M 43.3 5.9 C 41.5 5.7 45.1 5.5 43.3 5.9 C 43.3 5.9 43.3 5.9 43.3 5.9 Z M 13.7 5.5 C 13.8 5.4 13.8 5.4 13.7 5.5 C 13.7 5.5 13.7 5.5 13.7 5.5 Z M 19.8 7.3 C 20.4 6.9 20.2 7.6 19.8 7.3 C 19.8 7.3 19.8 7.3 19.8 7.3 Z M 12.3 10.2 C 12.7 9.5 12.8 10.2 12.3 10.2 C 12.3 10.2 12.3 10.2 12.3 10.2 Z M 45.4 6.0 C 38.9 4.2 54.1 6.5 45.4 6.0 C 45.4 6.0 45.4 6.0 45.4 6.0 Z M 25.4 6.5 C 25.4 6.4 25.4 6.4 25.4 6.5 C 25.4 6.5 25.4 6.5 25.4 6.5 Z M 38.4 7.2 C 38.5 7.1 38.5 7.1 38.4 7.2 C 38.4 7.2 38.4 7.2 38.4 7.2 Z M 40.5 6.2 C 40.5 6.1 40.5 6.1 40.5 6.2 C 40.5 6.2 40.5 6.2 40.5 6.2 Z M 39.9 1.9 C 39.9 1.9 39.9 1.9 39.9 1.9 C 39.9 1.9 39.9 1.9 39.9 1.9 Z M 39.2 3.9 C 39.3 3.7 39.3 3.7 39.2 3.9 C 39.2 3.9 39.2 3.9 39.2 3.9 Z M 43.4 3.1 C 43.4 3.1 43.4 3.1 43.4 3.1 C 43.4 3.1 43.4 3.1 43.4 3.1 Z M 43.3 2.6 C 43.3 2.5 43.3 2.5 43.3 2.6 C 43.3 2.6 43.3 2.6 43.3 2.6 Z M 17.0 6.1 C 17.0 6.0 17.0 6.0 17.0 6.1 C 17.0 6.1 17.0 6.1 17.0 6.1 Z M 18.4 4.0 C 17.2 4.9 18.7 3.1 18.4 4.0 C 18.4 4.0 18.4 4.0 18.4 4.0 Z M 32.8 4.5 C 31.4 4.7 33.7 3.9 32.8 4.5 C 32.8 4.5 32.8 4.5 32.8 4.5 Z M 31.3 2.1 C 31.2 2.1 31.2 2.1 31.3 2.1 C 31.3 2.1 31.3 2.1 31.3 2.1 Z M 40.5 7.2 C 40.5 7.1 40.5 7.1 40.5 7.2 C 40.5 7.2 40.5 7.2 40.5 7.2 Z M 43.0 6.5 C 43.1 5.6 43.8 6.9 43.0 6.5 M 30.1 7.0 C 30.1 6.9 30.1 6.9 30.1 7.0 C 30.1 7.0 30.1 7.0 30.1 7.0 Z M 21.0 5.8 C 21.0 5.7 21.0 5.7 21.0 5.8 C 21.0 5.8 21.0 5.8 21.0 5.8 Z M 14.8 7.6 C 14.8 7.5 14.8 7.5 14.8 7.6 C 14.8 7.6 14.8 7.6 14.8 7.6 Z M 23.9 6.9 C 24.0 6.8 24.0 6.8 23.9 6.9 C 23.9 6.9 23.9 6.9 23.9 6.9 Z M 28.4 6.1 C 28.5 6.0 28.5 6.0 28.4 6.1 C 28.4 6.1 28.4 6.1 28.4 6.1 Z M 12.8 7.2 C 12.8 7.1 12.8 7.1 12.8 7.2 C 12.8 7.2 12.8 7.2 12.8 7.2 Z M 23.0 7.1 C 23.1 7.1 23.1 7.1 23.0 7.1 C 23.0 7.1 23.0 7.1 23.0 7.1 Z M 20.7 4.4 C 20.8 4.3 20.8 4.3 20.7 4.4 C 20.7 4.4 20.7 4.4 20.7 4.4 Z M 42.6 7.8 C 42.7 7.7 42.7 7.7 42.6 7.8 C 42.6 7.8 42.6 7.8 42.6 7.8 Z M 13.3 8.3 C 13.3 8.3 13.3 8.3 13.3 8.3 C 13.3 8.3 13.3 8.3 13.3 8.3 Z M 13.4 9.2 C 13.4 9.2 13.4 9.2 13.4 9.2 C 13.4 9.2 13.4 9.2 13.4 9.2 Z M 16.5 3.4 C 19.1 3.4 14.5 4.1 16.4 4.7 C 13.2 5.7 16.0 3.5 16.5 3.4 C 16.5 3.4 16.5 3.4 16.5 3.4 Z M 11.1 11.4 C 11.1 9.7 10.6 8.7 9.2 8.2 C 8.2 8.3 9.9 10.0 8.4 8.6 C 9.5 7.0 5.6 7.1 7.5 8.9 C 6.1 11.0 5.9 8.1 5.8 10.0 C 4.3 12.5 4.4 10.9 3.6 13.0 C 4.4 14.8 2.4 14.2 3.5 15.0 C 2.4 13.7 3.5 16.8 2.8 16.8 C 2.3 15.0 1.9 22.7 2.9 18.7 C 3.3 20.4 2.2 20.0 1.9 20.6 C 2.8 21.4 1.1 23.6 1.9 25.0 C 2.1 24.7 2.2 24.1 2.5 23.9 C 3.1 23.6 2.3 25.4 2.4 25.2 C 2.7 26.0 3.6 29.7 2.0 25.8 C 1.3 25.6 2.3 29.2 1.7 29.1 C 1.7 33.0 3.1 30.3 2.0 31.5 C 2.0 33.5 2.0 35.0 2.2 35.0 C 2.0 36.2 1.2 36.5 2.0 37.6 C 0.4 40.1 5.0 39.3 2.0 40.3 C 2.7 41.0 0.7 41.7 2.6 41.6 C 1.7 40.7 1.1 45.8 2.5 43.6 C 2.9 44.2 0.5 47.4 2.5 46.9 C 3.9 48.1 5.3 47.9 6.6 45.4 C 5.5 45.7 7.8 42.7 5.9 44.6 C 5.3 46.8 5.2 40.7 5.9 42.0 C 8.2 42.3 4.5 39.0 6.1 37.7 C 5.2 38.8 4.8 33.9 6.4 35.3 C 6.6 34.4 5.8 34.2 6.8 33.2 C 6.6 36.1 5.0 32.0 6.0 32.2 C 6.7 32.7 7.2 27.4 6.2 28.0 C 3.9 30.0 6.7 26.6 5.8 25.7 C 5.3 23.0 7.8 26.1 6.1 24.2 C 6.4 23.7 6.6 20.7 6.9 22.6 C 6.7 23.3 4.5 20.6 6.5 20.6 C 7.4 23.5 7.6 17.7 6.8 18.4 C 5.0 22.1 6.6 14.1 6.9 17.3 C 8.4 15.9 6.8 18.4 7.3 15.8 C 6.6 15.9 6.9 13.7 7.8 14.7 C 9.7 15.1 6.0 12.5 9.0 12.7 C 10.0 13.2 10.4 9.9 10.5 11.5 C 10.6 11.6 11.0 11.5 11.1 11.4 M 10.3 11.9 C 10.2 11.4 11.1 11.9 10.3 11.9 M 10.3 11.4 C 10.3 11.4 10.3 11.4 10.3 11.4 C 10.3 11.4 10.3 11.4 10.3 11.4 Z M 7.4 15.4 C 7.4 15.4 7.4 15.4 7.4 15.4 C 7.4 15.4 7.4 15.4 7.4 15.4 Z M 1.8 17.8 C 1.9 17.8 1.9 17.8 1.8 17.8 C 1.8 17.8 1.8 17.8 1.8 17.8 Z M 6.5 18.1 C 6.5 18.0 6.5 18.0 6.5 18.1 C 6.5 18.1 6.5 18.1 6.5 18.1 Z M 7.9 13.6 C 7.9 13.6 7.9 13.6 7.9 13.6 C 7.9 13.6 7.9 13.6 7.9 13.6 Z M 7.2 18.0 C 6.5 18.0 7.9 17.1 7.3 18.0 C 7.3 18.1 7.3 17.9 7.2 18.0 M 7.0 21.8 C 6.9 21.8 6.9 21.8 7.0 21.8 M 1.3 33.8 C 1.2 33.8 1.2 33.8 1.3 33.8 M 6.9 34.7 C 6.9 34.8 6.9 34.8 6.9 34.7 M 6.2 26.9 C 6.2 28.7 5.8 27.3 6.2 26.9 M 6.5 38.7 C 7.0 36.8 6.9 40.7 6.5 38.7 M 7.0 40.5 C 6.9 40.7 6.9 40.7 7.0 40.5 M 6.7 32.0 C 6.6 31.9 6.6 31.9 6.7 32.0 C 6.7 32.0 6.7 32.0 6.7 32.0 Z M 6.5 26.1 C 6.9 23.8 7.1 28.4 6.5 26.1 M 7.8 16.1 C 7.9 16.9 7.0 15.8 7.8 16.1 M 8.2 14.3 C 8.2 14.2 8.2 14.2 8.2 14.3 C 8.2 14.3 8.2 14.3 8.2 14.3 Z M 6.6 35.6 C 6.6 35.6 6.6 35.6 6.6 35.6 C 6.6 35.6 6.6 35.6 6.6 35.6 Z M 6.7 37.8 C 6.7 37.7 6.7 37.7 6.7 37.8 C 6.7 37.8 6.7 37.8 6.7 37.8 Z M 1.5 41.5 C 1.5 41.4 1.5 41.4 1.5 41.5 C 1.5 41.5 1.5 41.5 1.5 41.5 Z M 5.6 14.8 C 6.5 13.5 6.8 16.5 5.7 15.9 C 5.1 15.9 5.6 15.0 5.6 14.8 M 4.9 24.5 C 3.1 24.8 7.4 23.0 4.9 24.5 M 5.8 40.8 C 3.7 42.3 7.3 38.9 5.8 40.8 M 6.2 43.8 C 5.7 44.7 5.9 38.2 6.5 42.7 C 6.8 43.2 6.4 43.5 6.2 43.8 M 6.2 21.8 C 5.2 22.1 6.7 19.8 6.2 21.8 M 3.1 32.1 C 3.7 32.8 4.3 34.7 3.2 33.8 C 1.8 33.8 2.5 31.2 3.1 32.1 M 9.3 11.6 C 9.8 13.4 8.3 10.7 9.3 11.6 M 6.7 15.9 C 6.8 16.0 6.8 16.0 6.7 15.9 C 6.7 15.9 6.7 15.9 6.7 15.9 Z M 6.5 17.6 C 6.4 17.7 6.4 17.7 6.5 17.6 M 9.9 13.0 C 9.8 13.0 9.8 13.0 9.9 13.0 M 4.7 32.0 C 4.6 32.1 4.6 32.1 4.7 32.0 M 5.8 26.4 C 4.2 28.9 5.5 24.9 5.8 26.4 M 3.0 20.7 C 2.2 21.2 3.0 19.4 3.0 20.7 M 6.3 31.0 C 4.9 32.6 4.9 28.9 6.3 31.0 M 5.9 25.1 C 5.9 25.2 5.9 25.2 5.9 25.1 C 5.9 25.1 5.9 25.1 5.9 25.1 Z M 2.9 32.6 C 2.9 32.6 2.9 32.6 2.9 32.6 C 2.9 32.6 2.9 32.6 2.9 32.6 Z M 3.0 33.3 C 2.9 33.2 2.9 33.2 3.0 33.3 C 3.0 33.3 3.0 33.3 3.0 33.3 Z M 6.5 33.0 C 6.5 32.9 6.5 32.9 6.5 33.0 C 6.5 33.0 6.5 33.0 6.5 33.0 Z M 4.7 12.2 C 3.8 13.7 5.2 10.9 4.7 12.2 C 4.7 12.2 4.7 12.2 4.7 12.2 Z M 7.0 19.3 C 5.6 21.0 6.1 17.7 7.0 19.3 C 7.0 19.3 7.0 19.3 7.0 19.3 Z M 4.8 21.5 C 4.7 21.5 4.7 21.5 4.8 21.5 C 4.8 21.5 4.8 21.5 4.8 21.5 Z M 7.3 29.7 C 7.2 29.7 7.2 29.7 7.3 29.7 C 7.3 29.7 7.3 29.7 7.3 29.7 Z M 4.1 12.9 C 4.0 12.9 4.0 12.9 4.1 12.9 C 4.1 12.9 4.1 12.9 4.1 12.9 Z M 5.7 37.4 C 5.6 37.4 5.6 37.4 5.7 37.4 C 5.7 37.4 5.7 37.4 5.7 37.4 Z M 2.7 27.6 C 3.2 28.3 2.2 27.7 2.7 27.6 C 2.7 27.6 2.7 27.6 2.7 27.6 Z M 2.7 30.7 C 2.7 30.8 2.7 30.8 2.7 30.7 C 2.7 30.7 2.7 30.7 2.7 30.7 Z M 7.1 41.1 C 7.1 41.2 7.1 41.2 7.1 41.1 C 7.1 41.1 7.1 41.1 7.1 41.1 Z M 1.3 36.7 C 1.3 36.8 1.3 36.8 1.3 36.7 C 1.3 36.7 1.3 36.7 1.3 36.7 Z M 3.0 38.7 C 3.0 38.7 3.0 38.7 3.0 38.7 C 3.0 38.7 3.0 38.7 3.0 38.7 Z M 6.2 32.5 C 6.4 34.9 5.5 32.0 6.2 32.5 C 6.2 32.5 6.2 32.5 6.2 32.5 Z M 3.5 44.5 C 3.4 44.5 3.4 44.5 3.5 44.5 C 3.5 44.5 3.5 44.5 3.5 44.5 Z M 5.5 45.7 C 5.4 45.7 5.4 45.7 5.5 45.7 C 5.5 45.7 5.5 45.7 5.5 45.7 Z M 6.6 46.3 C 6.5 46.3 6.5 46.3 6.6 46.3 C 6.6 46.3 6.6 46.3 6.6 46.3 Z M 4.4 17.2 C 4.5 17.1 4.5 17.1 4.4 17.2 C 4.4 17.2 4.4 17.2 4.4 17.2 Z M 7.8 17.2 C 7.8 17.2 7.8 17.2 7.8 17.2 C 7.8 17.2 7.8 17.2 7.8 17.2 Z M 7.5 19.5 C 7.5 19.5 7.5 19.5 7.5 19.5 C 7.5 19.5 7.5 19.5 7.5 19.5 Z M 2.6 16.2 C 2.6 16.2 2.6 16.2 2.6 16.2 C 2.6 16.2 2.6 16.2 2.6 16.2 Z M 4.5 28.4 C 4.5 28.3 4.5 28.3 4.5 28.4 C 4.5 28.4 4.5 28.4 4.5 28.4 Z M 3.1 29.9 C 3.2 29.8 3.2 29.8 3.1 29.9 C 3.1 29.9 3.1 29.9 3.1 29.9 Z M 1.4 26.3 C 1.4 26.3 1.4 26.3 1.4 26.3 C 1.4 26.3 1.4 26.3 1.4 26.3 Z M 2.0 31.0 C 2.0 31.0 2.0 31.0 2.0 31.0 C 2.0 31.0 2.0 31.0 2.0 31.0 Z M 7.1 8.9 C 7.1 8.9 7.1 8.9 7.1 8.9 C 7.1 8.9 7.1 8.9 7.1 8.9 Z M 9.1 10.4 C 9.1 10.3 9.1 10.3 9.1 10.4 C 9.1 10.4 9.1 10.4 9.1 10.4 Z M 6.3 28.9 C 6.8 29.6 5.6 30.3 6.3 28.9 M 6.0 23.6 C 6.0 23.6 6.0 23.6 6.0 23.6 C 6.0 23.6 6.0 23.6 6.0 23.6 Z M 6.2 37.0 C 5.2 37.6 6.7 34.9 6.2 37.0 C 6.2 37.0 6.2 37.0 6.2 37.0 Z M 2.0 34.6 C 2.0 34.7 2.0 34.7 2.0 34.6 C 2.0 34.6 2.0 34.6 2.0 34.6 Z M 2.4 35.8 C 2.3 35.9 2.3 35.9 2.4 35.8 C 2.4 35.8 2.4 35.8 2.4 35.8 Z M 5.1 42.4 C 5.0 42.5 5.0 42.5 5.1 42.4 M 6.9 23.1 C 6.5 23.7 6.6 23.6 6.9 23.1 M 6.2 38.6 C 6.1 38.5 6.1 38.5 6.2 38.6 C 6.2 38.6 6.2 38.6 6.2 38.6 Z M 5.7 43.8 C 5.7 43.8 5.7 43.8 5.7 43.8 C 5.7 43.8 5.7 43.8 5.7 43.8 Z M 6.5 20.2 C 5.3 20.2 5.6 19.7 6.5 20.2 M 8.2 13.3 C 8.1 13.3 8.1 13.3 8.2 13.3 C 8.2 13.3 8.2 13.3 8.2 13.3 Z M 6.6 51.0 C 7.9 48.6 6.0 48.5 6.0 48.6 C 8.5 48.8 4.9 46.4 4.5 46.8 C 4.1 46.8 -0.3 48.7 2.3 50.4 C 2.7 50.9 1.9 51.1 1.8 51.5 C 1.9 54.5 3.2 49.4 3.2 53.1 C 2.9 53.7 0.7 53.0 2.2 55.1 C 2.0 55.2 1.2 57.7 2.2 56.8 C 1.2 57.9 2.4 58.7 2.6 59.8 C 2.1 60.8 1.1 58.9 2.3 62.5 C 0.5 64.0 3.6 64.5 1.6 65.9 C 1.6 66.8 4.8 68.2 3.0 66.1 C 3.2 66.4 4.7 65.1 4.1 67.9 C 3.7 67.5 0.5 66.0 2.0 70.3 C 2.0 71.1 2.8 72.7 2.4 73.1 C 2.1 70.9 1.0 76.2 2.0 75.7 C 1.3 79.2 2.8 77.2 1.7 79.7 C 1.7 81.8 3.1 79.0 2.3 81.6 C 2.5 83.5 1.7 82.2 1.7 82.0 C 1.5 83.7 2.1 84.3 2.1 84.9 C 1.9 85.3 1.3 86.1 2.1 86.5 C 3.5 88.2 5.0 86.6 6.5 87.4 C 7.2 86.1 5.3 86.8 6.4 85.9 C 5.5 85.3 6.5 85.8 6.3 82.3 C 6.1 82.4 5.5 83.2 5.4 82.4 C 5.5 81.0 8.0 82.0 6.2 79.7 C 5.7 82.4 5.4 75.9 4.9 78.4 C 4.6 75.3 5.1 77.5 5.7 75.2 C 4.0 75.4 7.5 75.1 6.1 74.2 C 6.8 74.0 6.5 70.4 5.5 73.0 C 5.1 69.3 6.0 71.6 6.9 70.3 C 7.0 68.6 4.2 70.2 6.2 69.1 C 7.2 66.9 5.2 69.0 6.8 67.4 C 5.4 68.1 6.8 65.8 5.3 66.4 C 5.2 62.6 6.9 66.9 5.9 64.2 C 5.8 65.0 7.9 64.7 6.5 63.1 C 4.1 63.8 8.7 60.9 5.4 62.1 C 4.5 56.8 6.8 61.2 6.8 58.3 C 6.8 57.6 5.7 59.1 5.7 58.5 C 6.2 54.7 7.0 57.8 5.4 55.9 C 5.0 52.2 6.8 54.8 6.9 53.0 C 6.1 52.8 4.9 51.4 6.6 51.0 M 5.8 54.3 C 6.3 55.1 5.3 54.8 5.8 54.3 M 6.5 46.9 C 7.0 47.7 6.0 47.3 6.5 46.9 M 6.3 57.4 C 6.8 58.4 5.4 57.7 6.3 57.4 M 5.5 77.3 C 5.5 75.9 5.9 78.0 5.5 77.3 M 6.6 49.8 C 7.3 50.9 5.8 50.1 6.6 49.8 M 5.4 48.5 C 5.4 48.6 5.4 48.6 5.4 48.5 M 6.8 79.3 C 6.8 79.4 6.8 79.4 6.8 79.3 M 6.8 73.9 C 6.8 75.1 6.5 73.3 6.8 73.9 M 1.4 73.7 C 1.4 74.9 1.1 73.1 1.4 73.7 M 6.9 82.2 C 7.3 83.3 6.3 82.5 6.9 82.2 M 5.7 85.2 C 6.2 86.2 5.1 85.8 5.7 85.2 M 3.9 53.6 C 3.8 53.6 3.8 53.6 3.9 53.6 C 3.9 53.6 3.9 53.6 3.9 53.6 Z M 2.6 63.4 C 3.1 62.3 1.9 64.9 2.6 63.4 M 6.1 61.6 C 5.0 62.4 6.2 60.1 6.1 61.6 C 6.1 61.6 6.1 61.6 6.1 61.6 Z M 5.6 59.9 C 5.5 59.9 5.5 59.9 5.6 59.9 C 5.6 59.9 5.6 59.9 5.6 59.9 Z M 5.5 65.5 C 5.5 65.4 5.5 65.4 5.5 65.5 C 5.5 65.5 5.5 65.5 5.5 65.5 Z M 5.4 64.3 C 5.2 63.9 5.7 63.7 5.4 64.3 C 5.4 64.3 5.4 64.3 5.4 64.3 Z M 2.0 72.4 C 1.7 71.9 2.2 71.7 2.0 72.4 C 2.0 72.4 2.0 72.4 2.0 72.4 Z M 5.1 62.6 C 4.0 62.4 5.8 61.8 5.1 62.6 C 5.1 62.6 5.1 62.6 5.1 62.6 Z M 2.5 68.5 C 2.7 69.0 1.4 69.5 2.5 68.5 M 6.6 80.4 C 6.9 80.9 5.5 81.4 6.6 80.4 M 6.9 68.7 C 7.2 69.2 5.9 69.7 6.9 68.7 M 6.3 54.9 C 6.1 55.1 6.1 55.1 6.3 54.9 M 1.5 61.4 C 1.9 62.2 1.0 61.8 1.5 61.4 M 1.9 50.4 C 2.3 51.2 1.4 50.8 1.9 50.4 M 1.5 78.7 C 1.8 78.7 1.4 79.9 1.5 78.7 M 5.2 70.1 C 5.0 71.1 4.4 72.2 4.5 70.0 C 4.7 69.9 4.9 70.5 5.2 70.1 C 5.2 70.1 5.2 70.1 5.2 70.1 Z M 2.7 73.8 C 2.6 73.9 2.6 73.9 2.7 73.8 M 6.2 71.9 C 6.1 72.0 6.1 72.0 6.2 71.9 M 6.1 77.9 C 5.9 78.0 5.9 78.0 6.1 77.9 M 6.4 78.6 C 6.3 78.6 6.3 78.6 6.4 78.6 C 6.4 78.6 6.4 78.6 6.4 78.6 Z M 6.8 85.2 C 6.8 85.2 6.8 85.2 6.8 85.2 C 6.8 85.2 6.8 85.2 6.8 85.2 Z M 5.9 76.0 C 5.9 76.0 5.9 76.0 5.9 76.0 C 5.9 76.0 5.9 76.0 5.9 76.0 Z M 1.8 81.4 C 1.7 81.4 1.7 81.4 1.8 81.4 C 1.8 81.4 1.8 81.4 1.8 81.4 Z M 2.4 80.7 C 2.4 80.7 2.4 80.7 2.4 80.7 C 2.4 80.7 2.4 80.7 2.4 80.7 Z M 6.6 51.5 C 7.3 52.4 4.7 52.0 6.6 51.5 M 2.4 83.6 C 1.7 84.5 2.3 82.1 2.4 83.6 C 2.4 83.6 2.4 83.6 2.4 83.6 Z M 5.0 75.3 C 4.9 75.4 4.9 75.4 5.0 75.3 M 6.3 79.0 C 6.1 79.1 6.1 79.1 6.3 79.0 M 7.1 61.6 C 6.9 61.7 6.9 61.7 7.1 61.6 M 6.1 83.6 C 5.8 86.4 4.5 82.4 6.1 83.6 M 6.0 60.3 C 6.1 60.2 6.1 60.2 6.0 60.3 M 4.0 66.6 C 4.1 68.5 3.4 65.9 4.0 66.6 M 5.4 71.4 C 5.3 71.3 5.3 71.3 5.4 71.4 C 5.4 71.4 5.4 71.4 5.4 71.4 Z M 5.4 68.6 C 5.2 67.2 5.7 68.2 5.4 68.6 C 5.4 68.6 5.4 68.6 5.4 68.6 Z M 5.6 52.9 C 5.4 54.6 5.2 51.0 5.6 52.9 C 5.6 52.9 5.6 52.9 5.6 52.9 Z M 3.5 82.4 C 3.4 82.3 3.4 82.3 3.5 82.4 C 3.5 82.4 3.5 82.4 3.5 82.4 Z M 6.7 75.6 C 6.4 74.8 7.0 75.3 6.7 75.6 C 6.7 75.6 6.7 75.6 6.7 75.6 Z M 6.8 86.2 C 6.5 85.4 7.1 85.8 6.8 86.2 C 6.8 86.2 6.8 86.2 6.8 86.2 Z M 5.7 50.7 C 3.9 57.2 6.2 42.1 5.7 50.7 C 5.7 50.7 5.7 50.7 5.7 50.7 Z M 6.1 69.7 C 6.1 69.7 6.1 69.7 6.1 69.7 C 6.1 69.7 6.1 69.7 6.1 69.7 Z M 6.9 57.7 C 6.8 57.7 6.8 57.7 6.9 57.7 C 6.9 57.7 6.9 57.7 6.9 57.7 Z M 5.9 55.7 C 5.8 55.7 5.8 55.7 5.9 55.7 C 5.9 55.7 5.9 55.7 5.9 55.7 Z M 1.6 56.3 C 1.6 56.2 1.6 56.2 1.6 56.3 C 1.6 56.3 1.6 56.3 1.6 56.3 Z M 3.6 57.0 C 3.4 56.9 3.4 56.9 3.6 57.0 C 3.6 57.0 3.6 57.0 3.6 57.0 Z M 2.8 52.8 C 2.8 52.7 2.8 52.7 2.8 52.8 C 2.8 52.8 2.8 52.8 2.8 52.8 Z M 2.3 52.9 C 2.2 52.9 2.2 52.9 2.3 52.9 C 2.3 52.9 2.3 52.9 2.3 52.9 Z M 5.1 79.0 C 5.0 79.0 5.0 79.0 5.1 79.0 C 5.1 79.0 5.1 79.0 5.1 79.0 Z M 3.3 76.8 C 3.9 78.3 2.4 76.3 3.3 76.8 C 3.3 76.8 3.3 76.8 3.3 76.8 Z M 4.1 63.4 C 4.4 64.8 3.6 62.5 4.1 63.4 C 4.1 63.4 4.1 63.4 4.1 63.4 Z M 1.8 64.9 C 1.8 64.9 1.8 64.9 1.8 64.9 C 1.8 64.9 1.8 64.9 1.8 64.9 Z M 6.9 55.7 C 6.8 55.7 6.8 55.7 6.9 55.7 C 6.9 55.7 6.9 55.7 6.9 55.7 Z M 6.2 53.2 C 5.3 53.1 6.6 52.4 6.2 53.2 M 6.7 66.0 C 6.6 66.0 6.6 66.0 6.7 66.0 C 6.7 66.0 6.7 66.0 6.7 66.0 Z M 5.3 74.1 C 5.2 74.1 5.2 74.1 5.3 74.1 C 5.3 74.1 5.3 74.1 5.3 74.1 Z M 5.9 82.2 C 5.8 82.1 5.8 82.1 5.9 82.2 C 5.9 82.2 5.9 82.2 5.9 82.2 Z M 6.6 71.0 C 6.5 71.0 6.5 71.0 6.6 71.0 C 6.6 71.0 6.6 71.0 6.6 71.0 Z M 5.8 67.2 C 5.6 67.2 5.6 67.2 5.8 67.2 C 5.8 67.2 5.8 67.2 5.8 67.2 Z M 4.6 83.9 C 4.6 83.9 4.6 83.9 4.6 83.9 C 4.6 83.9 4.6 83.9 4.6 83.9 Z M 6.7 71.9 C 6.7 71.9 6.7 71.9 6.7 71.9 C 6.7 71.9 6.7 71.9 6.7 71.9 Z M 3.9 74.3 C 3.8 74.2 3.8 74.2 3.9 74.3 C 3.9 74.3 3.9 74.3 3.9 74.3 Z M 7.5 53.5 C 7.4 53.5 7.4 53.5 7.5 53.5 C 7.5 53.5 7.5 53.5 7.5 53.5 Z M 5.8 84.0 C 5.8 84.0 5.8 84.0 5.8 84.0 C 5.8 84.0 5.8 84.0 5.8 84.0 Z M 6.6 84.5 C 6.6 84.5 6.6 84.5 6.6 84.5 C 6.6 84.5 6.6 84.5 6.6 84.5 Z M 2.3 78.8 C 2.8 76.0 2.5 81.4 3.5 79.3 C 3.7 83.4 2.3 79.4 2.3 78.8 C 2.3 78.8 2.3 78.8 2.3 78.8 Z M 6.9 88.3 C 5.7 86.7 4.6 86.7 3.3 87.4 C 2.7 88.2 5.1 88.2 3.1 88.2 C 2.7 86.4 -0.0 89.0 2.6 89.0 C 3.0 91.3 0.9 89.4 2.0 90.8 C 2.2 93.3 1.4 92.1 1.6 94.7 C 3.1 96.1 0.9 96.1 2.3 96.7 C 0.8 95.6 2.8 99.0 2.1 99.1 C 1.1 97.2 2.5 105.7 2.6 101.2 C 3.4 103.0 2.2 102.7 2.1 103.3 C 3.0 104.0 1.9 106.3 3.0 107.1 C 3.1 106.8 3.0 106.3 3.3 106.1 C 3.8 105.7 3.5 107.3 3.4 107.1 C 3.9 107.7 5.6 110.0 3.3 107.7 C 2.5 107.7 4.7 110.3 4.1 110.5 C 5.6 113.4 5.6 110.5 5.6 112.3 C 6.8 114.1 8.1 115.2 8.2 115.1 C 9.1 116.1 8.9 117.0 10.4 117.0 C 11.8 119.9 13.3 115.3 13.0 118.6 C 14.1 118.2 14.2 120.4 14.6 118.5 C 13.7 119.1 17.8 120.9 16.3 119.1 C 16.9 118.7 19.3 121.6 19.2 119.6 C 20.4 118.3 20.1 116.9 18.5 115.3 C 18.5 116.4 16.8 113.8 17.8 115.9 C 19.3 116.8 14.8 115.8 15.9 115.4 C 16.3 114.4 15.8 114.6 14.9 114.7 C 14.0 114.8 12.8 114.7 12.8 113.7 C 13.0 115.0 9.3 112.6 11.3 112.2 C 10.8 111.5 10.1 111.9 10.3 110.7 C 11.7 112.6 8.3 111.0 9.2 110.5 C 10.0 110.5 8.5 107.0 7.8 107.8 C 6.2 110.0 7.9 106.8 6.8 106.5 C 5.9 104.9 8.8 106.3 6.8 105.4 C 7.0 105.0 6.6 102.7 7.4 104.0 C 7.2 104.6 4.6 102.9 6.6 102.4 C 8.0 105.1 6.9 98.8 6.4 100.0 C 5.5 105.0 5.0 94.2 6.2 98.5 C 7.2 96.0 6.6 99.5 6.1 96.0 C 5.5 96.5 4.9 93.6 6.1 94.3 C 8.0 93.7 3.6 92.9 6.2 91.1 C 7.3 90.8 5.3 87.5 6.6 88.8 C 6.7 88.9 6.9 88.4 6.9 88.3 M 6.7 89.4 C 6.3 89.0 7.2 88.7 6.7 89.4 M 6.3 89.0 C 6.3 88.9 6.3 88.9 6.3 89.0 C 6.3 89.0 6.3 89.0 6.3 89.0 Z M 6.0 95.5 C 6.1 95.4 6.1 95.4 6.0 95.5 C 6.0 95.5 6.0 95.5 6.0 95.5 Z M 1.4 100.5 C 1.4 100.5 1.4 100.5 1.4 100.5 C 1.4 100.5 1.4 100.5 1.4 100.5 Z M 6.0 99.6 C 6.0 99.6 6.0 99.6 6.0 99.6 C 6.0 99.6 6.0 99.6 6.0 99.6 Z M 5.7 92.8 C 5.7 92.7 5.7 92.7 5.7 92.8 C 5.7 92.8 5.7 92.8 5.7 92.8 Z M 6.7 99.3 C 6.0 99.6 7.1 98.0 6.8 99.3 C 6.7 99.4 6.7 99.1 6.7 99.3 M 7.3 103.4 C 7.2 103.5 7.2 103.5 7.3 103.4 M 6.6 114.8 C 6.6 114.8 6.6 114.8 6.6 114.8 M 11.3 111.5 C 11.3 111.6 11.3 111.6 11.3 111.5 M 7.4 107.1 C 8.0 108.3 7.2 107.5 7.4 107.1 M 13.7 113.8 C 12.5 112.6 15.4 114.3 13.7 113.8 M 15.2 114.1 C 15.4 114.2 15.4 114.2 15.2 114.1 M 9.6 109.9 C 9.5 109.9 9.5 109.9 9.6 109.9 C 9.6 109.9 9.6 109.9 9.6 109.9 Z M 7.6 106.6 C 7.5 105.1 8.6 107.8 7.6 106.6 M 6.7 96.3 C 7.1 97.6 5.8 96.3 6.7 96.3 M 6.3 93.4 C 6.3 93.4 6.3 93.4 6.3 93.4 C 6.3 93.4 6.3 93.4 6.3 93.4 Z M 11.6 112.2 C 11.5 112.2 11.5 112.2 11.6 112.2 C 11.6 112.2 11.6 112.2 11.6 112.2 Z M 13.1 113.2 C 13.1 113.2 13.1 113.2 13.1 113.2 C 13.1 113.2 13.1 113.2 13.1 113.2 Z M 14.2 119.5 C 14.2 119.5 14.2 119.5 14.2 119.5 C 14.2 119.5 14.2 119.5 14.2 119.5 Z M 4.1 95.6 C 4.5 93.8 5.9 97.4 4.6 97.0 C 4.1 97.2 4.3 95.8 4.1 95.6 M 5.7 105.9 C 4.1 106.6 7.8 104.2 5.7 105.9 M 15.0 115.3 C 15.5 117.7 14.0 113.2 15.0 115.3 M 17.3 115.5 C 17.8 116.1 13.3 114.8 16.6 115.0 C 17.0 114.8 17.1 115.3 17.3 115.5 M 6.5 103.6 C 5.5 104.1 6.6 101.8 6.5 103.6 M 6.7 112.1 C 7.7 112.4 9.4 113.4 8.0 113.5 C 7.0 114.4 5.8 111.7 6.7 112.1 M 5.7 89.8 C 7.3 91.0 4.4 89.8 5.7 89.8 M 5.6 96.6 C 5.7 96.6 5.7 96.6 5.6 96.6 C 5.6 96.6 5.6 96.6 5.6 96.6 Z M 5.9 99.1 C 5.8 99.2 5.8 99.2 5.9 99.1 M 7.1 90.8 C 7.0 90.9 7.0 90.9 7.1 90.8 M 8.0 111.1 C 8.0 111.3 8.0 111.3 8.0 111.1 M 6.9 106.9 C 6.0 109.0 6.4 106.1 6.9 106.9 M 3.1 103.2 C 2.4 103.9 2.9 102.0 3.1 103.2 M 8.9 109.5 C 8.4 111.4 6.7 108.7 8.9 109.5 M 6.9 106.1 C 6.9 106.2 6.9 106.2 6.9 106.1 C 6.9 106.1 6.9 106.1 6.9 106.1 Z M 7.0 112.7 C 6.9 112.7 6.9 112.7 7.0 112.7 C 7.0 112.7 7.0 112.7 7.0 112.7 Z M 7.5 113.2 C 7.4 113.2 7.4 113.2 7.5 113.2 C 7.5 113.2 7.5 113.2 7.5 113.2 Z M 10.0 110.7 C 9.9 110.7 9.9 110.7 10.0 110.7 C 10.0 110.7 10.0 110.7 10.0 110.7 Z M 2.2 93.2 C 2.1 95.4 2.0 91.5 2.2 93.2 C 2.2 93.2 2.2 93.2 2.2 93.2 Z M 6.7 100.9 C 5.7 103.3 5.5 99.4 6.7 100.9 C 6.7 100.9 6.7 100.9 6.7 100.9 Z M 5.1 103.6 C 5.0 103.6 5.0 103.6 5.1 103.6 C 5.1 103.6 5.1 103.6 5.1 103.6 Z M 9.2 108.3 C 9.1 108.3 9.1 108.3 9.2 108.3 C 9.2 108.3 9.2 108.3 9.2 108.3 Z M 2.0 94.3 C 2.0 94.3 2.0 94.3 2.0 94.3 C 2.0 94.3 2.0 94.3 2.0 94.3 Z M 12.3 113.9 C 12.3 113.9 12.3 113.9 12.3 113.9 C 12.3 113.9 12.3 113.9 12.3 113.9 Z M 4.4 108.9 C 5.2 109.3 4.1 109.2 4.4 108.9 C 4.4 108.9 4.4 108.9 4.4 108.9 Z M 5.6 111.2 C 5.7 111.2 5.7 111.2 5.6 111.2 C 5.6 111.2 5.6 111.2 5.6 111.2 Z M 15.7 114.2 C 15.8 114.2 15.8 114.2 15.7 114.2 C 15.7 114.2 15.7 114.2 15.7 114.2 Z M 9.1 117.1 C 9.2 117.1 9.2 117.1 9.1 117.1 C 9.1 117.1 9.1 117.1 9.1 117.1 Z M 11.9 116.8 C 11.9 116.8 11.9 116.8 11.9 116.8 C 11.9 116.8 11.9 116.8 11.9 116.8 Z M 9.5 110.6 C 10.9 112.1 8.7 110.7 9.5 110.6 C 9.5 110.6 9.5 110.6 9.5 110.6 Z M 17.3 118.3 C 17.3 118.4 17.3 118.4 17.3 118.3 C 17.3 118.3 17.3 118.3 17.3 118.3 Z M 18.5 116.4 C 18.6 116.5 18.6 116.5 18.5 116.4 C 18.5 116.4 18.5 116.4 18.5 116.4 Z M 19.2 115.4 C 19.2 115.5 19.2 115.5 19.2 115.4 C 19.2 115.4 19.2 115.4 19.2 115.4 Z M 3.7 99.1 C 3.8 99.0 3.8 99.0 3.7 99.1 C 3.7 99.1 3.7 99.1 3.7 99.1 Z M 7.0 98.0 C 7.0 98.0 7.0 98.0 7.0 98.0 C 7.0 98.0 7.0 98.0 7.0 98.0 Z M 7.3 101.1 C 7.3 101.0 7.3 101.0 7.3 101.1 C 7.3 101.1 7.3 101.1 7.3 101.1 Z M 1.7 98.5 C 1.8 98.5 1.8 98.5 1.7 98.5 C 1.7 98.5 1.7 98.5 1.7 98.5 Z M 6.3 108.8 C 6.4 108.7 6.4 108.7 6.3 108.8 C 6.3 108.8 6.3 108.8 6.3 108.8 Z M 5.7 110.4 C 5.7 110.3 5.7 110.3 5.7 110.4 C 5.7 110.4 5.7 110.4 5.7 110.4 Z M 2.8 108.2 C 2.8 108.2 2.8 108.2 2.8 108.2 C 2.8 108.2 2.8 108.2 2.8 108.2 Z M 5.2 111.8 C 5.2 111.8 5.2 111.8 5.2 111.8 C 5.2 111.8 5.2 111.8 5.2 111.8 Z M 2.3 89.3 C 2.2 89.3 2.2 89.3 2.3 89.3 C 2.3 89.3 2.3 89.3 2.3 89.3 Z M 4.8 89.0 C 4.7 89.0 4.7 89.0 4.8 89.0 C 4.8 89.0 4.8 89.0 4.8 89.0 Z M 8.1 108.3 C 8.8 108.4 7.9 109.4 8.1 108.3 M 6.7 105.0 C 6.6 105.0 6.6 105.0 6.7 105.0 C 6.7 105.0 6.7 105.0 6.7 105.0 Z M 12.3 113.3 C 12.1 114.4 11.1 111.8 12.3 113.3 C 12.3 113.3 12.3 113.3 12.3 113.3 Z M 7.8 115.0 C 7.8 115.0 7.8 115.0 7.8 115.0 C 7.8 115.0 7.8 115.0 7.8 115.0 Z M 9.0 115.5 C 9.0 115.7 9.0 115.7 9.0 115.5 C 9.0 115.5 9.0 115.5 9.0 115.5 Z M 16.0 116.3 C 16.1 116.4 16.1 116.4 16.0 116.3 M 7.4 104.4 C 7.1 105.0 7.2 104.9 7.4 104.4 M 13.4 114.0 C 13.3 114.0 13.3 114.0 13.4 114.0 C 13.4 114.0 13.4 114.0 13.4 114.0 Z M 17.2 116.0 C 17.1 116.0 17.1 116.0 17.2 116.0 C 17.2 116.0 17.2 116.0 17.2 116.0 Z M 6.4 102.1 C 5.2 102.3 5.5 101.7 6.4 102.1 M 5.8 92.2 C 5.7 92.2 5.7 92.2 5.8 92.2 C 5.8 92.2 5.8 92.2 5.8 92.2 Z M 5.8 92.2 " fill="#5A5754"></path><g><clipPath id="clip-27"><path d="M 3.7 4.5 L 175.9 4.5 L 175.9 118.2 L 3.7 118.2 Z M 3.7 4.5 "></path></clipPath><g clip-path="url(#clip-27)"><text xml:space="preserve" font-family="DINCondensed-Bold" font-weight="bold" font-size="30.0" fill="#FEFFFE" transform="matrix(1.00, 0.00, -0.00, -1.00, 37.0, 58.0)">W</text><text xml:space="preserve" font-family="DINCondensed-Bold" font-weight="bold" font-size="30.0" fill="#FEFFFE" transform="matrix(1.00, 0.00, -0.00, -1.00, 54.2, 58.0)">o</text><text xml:space="preserve" font-family="DINCondensed-Bold" font-weight="bold" font-size="30.0" fill="#FEFFFE" transform="matrix(1.00, 0.00, -0.00, -1.00, 65.3, 58.0)">r</text><text xml:space="preserve" font-family="DINCondensed-Bold" font-weight="bold" font-size="30.0" fill="#FEFFFE" transform="matrix(1.00, 0.00, -0.00, -1.00, 73.7, 58.0)">k</text><text xml:space="preserve" font-family="DINCondensed-Bold" font-weight="bold" font-size="30.0" fill="#FEFFFE" transform="matrix(1.00, 0.00, -0.00, -1.00, 85.4, 58.0)">S</text><text xml:space="preserve" font-family="DINCondensed-Bold" font-weight="bold" font-size="30.0" fill="#FEFFFE" transform="matrix(1.00, 0.00, -0.00, -1.00, 97.5, 58.0)">p</text><text xml:space="preserve" font-family="DINCondensed-Bold" font-weight="bold" font-size="30.0" fill="#FEFFFE" transform="matrix(1.00, 0.00, -0.00, -1.00, 109.2, 58.0)">a</text><text xml:space="preserve" font-family="DINCondensed-Bold" font-weight="bold" font-size="30.0" fill="#FEFFFE" transform="matrix(1.00, 0.00, -0.00, -1.00, 120.3, 58.0)">c</text><text xml:space="preserve" font-family="DINCondensed-Bold" font-weight="bold" font-size="30.0" fill="#FEFFFE" transform="matrix(1.00, 0.00, -0.00, -1.00, 131.4, 58.0)">e</text></g></g></g></svg>