<?xml version="1.0" encoding="UTF-8" standalone="no"?><svg xmlns="http://www.w3.org/2000/svg" xmlns:xlink="http://www.w3.org/1999/xlink" clip-rule="evenodd" stroke-miterlimit="4.00" viewBox="0 0 233 30"><desc>SVG generated by Keynote</desc><defs></defs><g transform="matrix(1.00, 0.00, -0.00, -1.00, 0.0, 30.0)"><path d="M 12.5 13.7 C 12.3 13.8 11.7 13.6 11.5 13.8 M 12.5 13.7 C 11.9 12.8 10.8 12.7 9.4 12.5 C 7.8 12.5 9.4 13.4 9.2 13.8 C 7.2 14.1 7.2 13.5 7.5 12.5 C 6.7 13.1 4.3 12.0 4.8 13.2 C 8.1 13.2 2.4 13.5 5.2 14.2 C 5.5 14.4 4.7 14.7 4.4 14.7 C 5.3 15.2 3.8 15.8 5.2 16.2 C 5.4 17.0 5.2 16.6 6.1 17.3 C 6.5 17.3 6.4 17.1 6.3 16.9 C 6.5 16.0 7.5 17.4 8.3 16.8 C 9.0 18.0 9.7 16.6 9.1 16.1 C 9.8 16.3 10.6 17.5 11.3 16.6 C 11.7 17.2 13.6 16.8 12.5 16.1 C 11.7 15.6 12.6 15.3 12.7 15.0 C 12.4 14.7 11.3 15.1 11.1 14.9 C 11.4 14.7 12.9 14.2 11.4 14.3 C 11.9 13.9 11.1 13.6 12.5 13.7 C 12.5 13.7 12.5 13.7 12.5 13.7 Z M 6.9 13.0 C 6.9 12.7 7.4 13.0 6.9 13.0 C 6.9 13.0 6.9 13.0 6.9 13.0 Z M 10.7 17.2 C 10.7 16.9 11.3 17.3 10.7 17.2 C 10.7 17.2 10.7 17.2 10.7 17.2 Z M 6.6 16.9 C 6.6 16.6 7.1 16.9 6.6 16.9 C 6.6 16.9 6.6 16.9 6.6 16.9 Z M 8.3 13.2 C 9.2 13.5 7.6 13.7 7.5 13.4 C 7.7 13.4 8.1 12.9 8.3 13.2 C 8.3 13.2 8.3 13.2 8.3 13.2 Z M 8.5 15.0 C 8.5 14.9 8.9 14.9 8.9 15.2 C 8.6 15.3 8.4 15.2 8.5 15.0 C 8.5 15.0 8.5 15.0 8.5 15.0 Z M 4.1 13.7 C 4.1 13.6 4.5 13.6 4.5 13.9 C 4.2 14.0 4.0 13.9 4.1 13.7 C 4.1 13.7 4.1 13.7 4.1 13.7 Z M 9.4 14.0 C 9.6 14.1 9.7 14.4 9.4 14.4 C 9.3 14.3 8.6 14.2 9.4 14.0 C 9.4 14.0 9.4 14.0 9.4 14.0 Z M 10.8 13.0 C 11.5 13.2 10.0 13.6 10.0 13.5 C 9.8 13.3 10.3 12.7 10.8 13.0 C 10.8 13.0 10.8 13.0 10.8 13.0 Z M 9.8 14.5 C 10.4 14.6 9.5 14.7 9.8 14.5 C 9.8 14.5 9.8 14.5 9.8 14.5 Z M 4.7 16.1 C 5.3 16.2 4.4 16.3 4.7 16.1 C 4.7 16.1 4.7 16.1 4.7 16.1 Z M 7.9 17.1 C 8.5 17.2 7.7 17.3 7.9 17.1 C 7.9 17.1 7.9 17.1 7.9 17.1 Z M 6.7 13.8 C 5.6 13.8 6.6 13.0 6.7 13.8 C 6.7 13.8 6.7 13.8 6.7 13.8 Z M 12.5 12.9 C 11.4 12.9 12.3 12.1 12.5 12.9 C 12.5 12.9 12.5 12.9 12.5 12.9 Z M 208.1 13.2 C 209.1 13.0 205.2 12.0 206.7 13.2 C 207.1 14.3 204.5 14.2 205.2 13.2 C 204.4 13.1 204.4 13.0 204.0 13.5 C 203.9 12.8 202.0 12.4 201.4 12.8 C 201.0 13.4 202.6 12.9 201.6 13.6 C 199.3 13.8 201.7 14.3 200.9 15.1 C 200.8 15.1 200.8 14.7 200.5 14.9 C 200.5 15.7 201.8 16.3 201.2 16.9 C 201.5 16.7 203.2 17.6 202.5 16.9 C 202.2 16.2 204.3 17.8 204.1 16.6 C 204.7 17.2 205.2 16.4 205.7 17.1 C 206.1 17.2 206.1 16.6 206.1 16.4 C 206.0 15.8 206.6 17.7 207.2 16.7 C 207.3 17.0 209.1 16.9 207.7 16.4 C 208.1 16.5 210.2 16.8 209.1 15.7 C 207.7 15.2 210.6 14.5 208.9 14.5 C 207.6 14.4 207.3 14.6 208.3 14.0 C 208.6 14.1 210.1 14.0 208.8 13.5 C 208.5 13.6 207.9 13.5 208.1 13.2 C 208.1 13.2 208.1 13.2 208.1 13.2 Z M 208.4 14.8 C 207.6 14.9 208.3 14.4 208.4 14.8 C 208.4 14.8 208.4 14.8 208.4 14.8 Z M 205.6 17.3 C 204.9 17.4 205.6 16.9 205.6 17.3 C 205.6 17.3 205.6 17.3 205.6 17.3 Z M 205.7 12.9 C 205.3 13.3 205.2 12.1 205.7 12.9 C 205.7 12.9 205.7 12.9 205.7 12.9 Z M 206.9 16.4 C 206.8 16.4 207.0 16.3 207.2 16.2 C 207.1 16.3 207.0 16.4 206.9 16.4 C 206.9 16.4 206.9 16.4 206.9 16.4 Z M 204.4 12.9 C 203.3 13.5 204.2 12.0 204.4 12.9 C 204.4 12.9 204.4 12.9 204.4 12.9 Z M 202.1 14.0 C 202.0 15.2 201.0 13.8 202.1 14.0 C 202.1 14.0 202.1 14.0 202.1 14.0 Z M 203.7 16.5 C 203.9 16.3 203.9 16.7 203.7 16.5 C 203.7 16.5 203.7 16.5 203.7 16.5 Z M 208.7 16.7 C 208.9 16.4 208.9 16.8 208.7 16.7 C 208.7 16.7 208.7 16.7 208.7 16.7 Z M 202.3 16.4 C 202.4 16.0 202.7 16.6 202.3 16.4 C 202.3 16.4 202.3 16.4 202.3 16.4 Z M 205.5 13.4 C 206.6 12.5 206.8 14.7 205.5 13.4 C 205.5 13.4 205.5 13.4 205.5 13.4 Z M 207.4 13.3 C 208.1 13.1 207.3 13.9 206.9 13.7 C 207.0 13.6 207.3 13.3 207.4 13.3 C 207.4 13.3 207.4 13.3 207.4 13.3 Z M 204.4 13.5 C 205.1 13.0 205.1 13.7 204.4 13.5 C 204.4 13.5 204.4 13.5 204.4 13.5 Z M 206.2 13.0 C 206.6 13.1 205.9 13.1 206.2 13.0 C 206.2 13.0 206.2 13.0 206.2 13.0 Z M 203.0 12.5 C 203.4 12.6 202.7 12.7 203.0 12.5 C 203.0 12.5 203.0 12.5 203.0 12.5 Z M 208.3 12.8 C 208.6 12.9 208.0 12.9 208.3 12.8 C 208.3 12.8 208.3 12.8 208.3 12.8 Z M 203.3 13.1 C 203.2 13.6 204.2 14.4 202.4 13.7 C 202.1 13.4 202.8 12.8 203.3 13.1 C 203.3 13.1 203.3 13.1 203.3 13.1 Z M 15.5 13.7 C 11.2 12.4 12.2 14.7 12.0 15.1 C 11.5 15.7 12.0 16.1 12.9 16.5 C 13.8 17.9 14.2 15.0 14.9 16.5 C 16.0 18.4 16.2 14.8 16.7 16.8 C 16.5 17.3 18.2 16.9 18.0 16.8 C 18.8 17.7 20.0 16.0 20.0 15.9 C 20.6 16.1 20.7 17.9 22.4 16.6 C 23.7 16.1 24.3 17.9 23.9 16.6 C 24.9 18.0 24.6 16.2 25.6 16.7 C 26.3 17.4 25.6 15.5 26.8 17.0 C 27.4 15.8 26.3 17.8 29.6 16.9 C 28.0 16.8 31.1 16.0 30.5 16.8 C 29.4 17.6 32.0 16.5 33.5 17.0 C 33.9 16.5 35.7 15.5 35.4 16.6 C 37.0 18.0 37.0 15.8 37.7 16.9 C 38.2 17.4 38.4 16.4 38.7 16.5 C 39.3 17.3 39.8 16.7 41.7 17.0 C 45.9 17.4 42.3 14.9 44.0 14.6 C 44.2 14.2 41.9 11.6 42.8 13.6 C 42.5 13.0 39.1 15.1 40.8 12.9 C 39.5 13.8 41.1 12.0 38.4 13.0 C 42.0 14.6 34.3 13.7 37.8 12.9 C 37.2 12.4 35.8 12.5 36.8 12.9 C 37.2 14.3 34.3 12.3 35.8 14.0 C 33.5 13.5 34.1 15.1 33.5 14.0 C 33.0 12.1 33.6 14.5 32.5 13.9 C 29.9 13.9 31.9 11.8 30.3 13.2 C 27.7 12.3 29.7 14.0 28.8 14.2 C 28.6 15.5 26.2 13.2 28.2 13.1 C 27.2 13.8 28.0 12.5 26.8 13.3 C 27.7 14.5 25.3 12.0 25.7 13.0 C 24.6 13.3 25.2 14.0 24.8 14.0 C 23.3 14.0 23.7 12.8 23.4 13.7 C 23.1 14.2 22.3 12.7 22.1 13.0 C 23.7 13.1 20.8 14.3 20.6 13.7 C 21.6 13.6 20.1 12.1 19.5 13.0 C 20.3 15.6 18.1 12.4 17.4 13.3 C 18.1 14.7 13.9 13.4 15.5 12.8 C 15.4 12.9 15.5 13.7 15.5 13.7 M 21.7 13.2 C 23.0 13.4 20.2 13.5 21.7 13.2 M 21.6 12.9 C 22.2 13.4 20.4 12.5 21.7 12.7 C 21.7 12.7 21.5 12.8 21.6 12.9 M 27.1 12.8 C 26.9 13.2 26.3 12.6 27.1 12.8 M 28.1 13.7 C 29.0 14.1 27.0 13.8 28.1 13.7 M 40.2 13.4 C 39.0 15.6 38.9 12.2 40.2 13.4 M 32.2 13.0 C 30.7 13.3 32.7 12.1 32.2 13.0 M 31.8 13.5 C 31.1 13.9 31.6 13.0 31.8 13.5 M 37.9 13.4 C 38.0 13.5 38.0 13.5 37.9 13.4 C 37.9 13.4 37.9 13.4 37.9 13.4 Z M 41.5 13.5 C 41.5 13.4 41.5 13.4 41.5 13.5 C 41.5 13.5 41.5 13.5 41.5 13.5 Z M 34.4 13.6 C 33.3 13.1 36.3 13.4 34.4 13.6 C 34.4 13.6 34.4 13.6 34.4 13.6 Z M 39.8 16.7 C 39.7 16.8 39.7 16.8 39.8 16.7 C 39.8 16.7 39.8 16.7 39.8 16.7 Z M 20.6 14.2 C 20.6 14.3 20.6 14.3 20.6 14.2 C 20.6 14.2 20.6 14.2 20.6 14.2 Z M 16.5 13.4 C 16.6 13.7 15.8 13.2 16.5 13.4 C 16.5 13.4 16.5 13.4 16.5 13.4 Z M 13.2 15.9 C 13.2 15.9 13.2 15.9 13.2 15.9 C 13.2 15.9 13.2 15.9 13.2 15.9 Z M 19.3 15.4 C 19.2 15.4 19.2 15.4 19.3 15.4 C 19.3 15.4 19.3 15.4 19.3 15.4 Z M 19.8 13.8 C 19.2 12.6 21.4 14.1 19.8 13.8 C 19.8 13.8 19.8 13.8 19.8 13.8 Z M 33.1 16.6 C 33.1 16.1 34.0 16.8 33.1 16.6 C 33.1 16.6 33.1 16.6 33.1 16.6 Z M 28.3 14.2 C 28.5 13.9 28.9 14.3 28.3 14.2 C 28.3 14.2 28.3 14.2 28.3 14.2 Z M 26.0 12.6 C 26.2 12.3 26.6 12.7 26.0 12.6 C 26.0 12.6 26.0 12.6 26.0 12.6 Z M 16.6 13.1 C 16.7 13.0 16.7 13.0 16.6 13.1 C 16.6 13.1 16.6 13.1 16.6 13.1 Z M 18.1 14.0 C 17.1 12.9 19.6 14.6 18.1 14.0 C 18.1 14.0 18.1 14.0 18.1 14.0 Z M 16.3 14.3 C 16.9 14.7 15.0 14.1 16.3 14.3 M 17.3 16.0 C 18.6 15.5 16.2 18.0 17.3 16.0 C 17.3 16.0 17.3 16.0 17.3 16.0 Z M 23.6 16.4 C 23.7 16.5 23.7 16.5 23.6 16.4 C 23.6 16.4 23.6 16.4 23.6 16.4 Z M 23.0 13.2 C 24.1 13.2 22.3 13.5 23.0 13.2 C 23.0 13.2 23.0 13.2 23.0 13.2 Z M 13.5 13.0 C 14.6 13.0 12.8 13.2 13.5 13.0 C 13.5 13.0 13.5 13.0 13.5 13.0 Z M 27.3 15.4 C 29.1 15.2 26.2 15.9 27.3 15.4 C 27.3 15.4 27.3 15.4 27.3 15.4 Z M 33.8 14.1 C 33.9 14.1 33.9 14.1 33.8 14.1 C 33.8 14.1 33.8 14.1 33.8 14.1 Z M 35.0 13.6 C 35.1 13.6 35.1 13.6 35.0 13.6 C 35.0 13.6 35.0 13.6 35.0 13.6 Z M 40.1 14.8 C 40.2 14.8 40.2 14.8 40.1 14.8 C 40.1 14.8 40.1 14.8 40.1 14.8 Z M 36.1 13.1 C 36.2 13.1 36.2 13.1 36.1 13.1 C 36.1 13.1 36.1 13.1 36.1 13.1 Z M 39.7 13.4 C 39.7 13.4 39.7 13.4 39.7 13.4 C 39.7 13.4 39.7 13.4 39.7 13.4 Z M 39.2 12.4 C 39.2 12.5 39.2 12.5 39.2 12.4 C 39.2 12.4 39.2 12.4 39.2 12.4 Z M 31.4 17.2 C 31.4 17.3 31.4 17.3 31.4 17.2 C 31.4 17.2 31.4 17.2 31.4 17.2 Z M 18.5 12.7 C 18.6 12.8 18.6 12.8 18.5 12.7 C 18.5 12.7 18.5 12.7 18.5 12.7 Z M 39.4 13.8 C 39.4 13.8 39.4 13.8 39.4 13.8 C 39.4 13.8 39.4 13.8 39.4 13.8 Z M 30.8 14.7 C 30.8 15.6 30.1 13.4 31.0 14.6 C 31.0 14.7 30.7 14.5 30.8 14.7 M 32.0 16.2 C 31.9 16.3 31.9 16.3 32.0 16.2 C 32.0 16.2 32.0 16.2 32.0 16.2 Z M 28.1 16.8 C 28.0 16.9 28.0 16.9 28.1 16.8 C 28.1 16.8 28.1 16.8 28.1 16.8 Z M 35.5 12.9 C 35.4 12.4 36.5 13.3 35.4 12.9 M 40.2 16.4 C 40.0 15.9 41.1 16.8 40.0 16.4 M 12.3 13.3 C 12.1 13.7 11.5 13.1 12.3 13.3 M 27.2 17.3 C 27.0 17.7 26.5 17.1 27.2 17.3 M 29.0 16.1 C 28.8 15.6 30.0 16.5 28.9 16.1 M 37.5 16.4 C 37.5 16.4 37.5 16.4 37.5 16.4 C 37.5 16.4 37.5 16.4 37.5 16.4 Z M 24.6 13.3 C 24.7 13.3 24.7 13.3 24.6 13.3 C 24.6 13.3 24.6 13.3 24.6 13.3 Z M 29.4 14.4 C 28.7 13.7 30.2 14.9 29.4 14.4 M 23.2 14.6 C 22.3 13.7 24.7 14.9 23.2 14.6 M 42.2 16.6 C 41.1 15.5 42.9 17.2 42.2 16.6 M 37.0 13.9 C 35.9 12.8 37.7 14.5 37.0 13.9 M 25.6 13.8 C 25.5 13.2 26.6 14.1 25.6 13.8 M 14.7 13.2 C 13.7 13.1 16.1 12.8 14.7 13.2 M 34.9 16.4 C 35.0 16.4 35.0 16.4 34.9 16.4 C 34.9 16.4 34.9 16.4 34.9 16.4 Z M 18.0 17.3 C 18.1 17.4 18.1 17.4 18.0 17.3 C 18.0 17.3 18.0 17.3 18.0 17.3 Z M 43.5 13.1 C 43.6 13.1 43.6 13.1 43.5 13.1 C 43.5 13.1 43.5 13.1 43.5 13.1 Z M 36.3 14.4 C 36.3 14.5 36.3 14.5 36.3 14.4 C 36.3 14.4 36.3 14.4 36.3 14.4 Z M 41.5 12.9 C 41.6 13.0 41.6 13.0 41.5 12.9 C 41.5 12.9 41.5 12.9 41.5 12.9 Z M 33.0 15.3 C 33.0 15.3 33.0 15.3 33.0 15.3 C 33.0 15.3 33.0 15.3 33.0 15.3 Z M 32.4 12.5 C 32.4 12.5 32.4 12.5 32.4 12.5 C 32.4 12.5 32.4 12.5 32.4 12.5 Z M 28.8 13.7 C 28.8 13.7 28.8 13.7 28.8 13.7 C 28.8 13.7 28.8 13.7 28.8 13.7 Z M 34.0 12.7 C 36.2 12.6 32.9 13.6 34.0 12.7 C 34.0 12.7 34.0 12.7 34.0 12.7 Z M 30.3 15.5 C 30.3 15.5 30.3 15.5 30.3 15.5 C 30.3 15.5 30.3 15.5 30.3 15.5 Z M 30.0 13.5 C 31.3 12.7 30.7 14.9 30.0 13.5 M 24.0 12.9 C 24.4 12.5 24.2 13.5 24.0 12.9 M 21.6 16.5 C 21.6 16.5 21.6 16.5 21.6 16.5 C 21.6 16.5 21.6 16.5 21.6 16.5 Z M 22.2 16.2 C 22.3 16.2 22.3 16.2 22.2 16.2 C 22.2 16.2 22.2 16.2 22.2 16.2 Z M 22.5 12.7 C 22.6 12.7 22.6 12.7 22.5 12.7 C 22.5 12.7 22.5 12.7 22.5 12.7 Z M 22.3 17.2 C 22.4 17.3 22.4 17.3 22.3 17.2 C 22.3 17.2 22.3 17.2 22.3 17.2 Z M 31.5 12.6 C 31.6 12.6 31.6 12.6 31.5 12.6 C 31.5 12.6 31.5 12.6 31.5 12.6 Z M 42.6 12.5 C 42.6 12.6 42.6 12.6 42.6 12.5 C 42.6 12.5 42.6 12.5 42.6 12.5 Z M 15.0 16.1 C 15.1 16.1 15.1 16.1 15.0 16.1 C 15.0 16.1 15.0 16.1 15.0 16.1 Z M 32.7 13.7 C 32.7 13.7 32.7 13.7 32.7 13.7 C 32.7 13.7 32.7 13.7 32.7 13.7 Z M 20.0 16.3 C 20.1 16.4 20.1 16.4 20.0 16.3 C 20.0 16.3 20.0 16.3 20.0 16.3 Z M 32.0 13.4 C 32.0 13.4 32.0 13.4 32.0 13.4 C 32.0 13.4 32.0 13.4 32.0 13.4 Z M 34.6 16.6 C 34.6 16.6 34.6 16.6 34.6 16.6 C 34.6 16.6 34.6 16.6 34.6 16.6 Z M 36.9 17.3 C 37.0 17.3 37.0 17.3 36.9 17.3 C 36.9 17.3 36.9 17.3 36.9 17.3 Z M 34.4 14.7 C 34.4 14.7 34.4 14.7 34.4 14.7 C 34.4 14.7 34.4 14.7 34.4 14.7 Z M 19.3 15.1 C 14.9 14.2 22.7 14.7 19.3 15.1 M 35.1 14.9 C 32.1 14.7 37.6 13.9 35.1 14.9 C 35.5 14.7 35.2 14.9 35.1 14.9 M 44.6 12.6 C 43.3 13.6 43.4 14.6 43.9 15.7 C 44.5 16.2 44.5 14.2 44.5 15.9 C 43.1 16.2 45.1 18.4 45.1 16.2 C 47.0 15.9 45.4 17.6 46.5 16.8 C 48.5 16.5 47.5 17.2 49.0 17.1 C 49.9 15.9 49.9 17.7 50.3 16.5 C 49.6 17.8 52.0 16.2 52.0 16.7 C 50.6 17.5 57.4 16.7 53.7 16.4 C 55.2 15.8 54.9 16.8 55.4 17.0 C 56.1 16.3 57.9 17.6 58.8 16.8 C 58.6 16.7 58.1 16.6 58.0 16.4 C 57.7 15.9 59.0 16.5 58.9 16.5 C 59.5 16.2 61.9 15.4 59.4 16.7 C 59.2 17.3 61.5 16.5 61.4 17.0 C 63.6 17.0 61.9 15.8 62.9 16.7 C 64.5 16.7 65.7 16.7 65.7 16.6 C 66.6 16.7 66.8 17.4 67.7 16.7 C 69.7 18.1 69.1 14.2 69.8 16.8 C 70.4 16.2 70.9 17.9 70.8 16.3 C 70.2 17.0 74.2 17.5 72.4 16.3 C 72.9 16.0 75.4 18.0 75.1 16.4 C 76.0 15.2 75.8 14.0 73.8 12.9 C 74.1 13.8 71.8 11.9 73.2 13.5 C 74.9 14.0 70.1 14.1 71.2 13.5 C 71.4 11.6 68.8 14.7 67.8 13.3 C 68.7 14.1 64.8 14.4 65.9 13.0 C 65.2 12.9 65.0 13.6 64.2 12.8 C 66.5 12.9 63.3 14.3 63.5 13.4 C 63.9 12.9 60.4 12.4 60.8 13.2 C 62.0 15.2 59.8 12.8 59.3 13.6 C 57.3 14.0 59.6 11.9 58.1 13.4 C 57.8 13.1 55.2 13.1 56.8 12.7 C 57.4 12.9 55.3 14.8 55.0 13.2 C 57.8 12.3 51.9 12.7 52.8 13.2 C 57.0 14.1 48.4 14.2 51.7 13.3 C 49.8 12.4 52.2 13.0 49.9 13.3 C 50.2 13.9 48.4 14.4 48.8 13.3 C 48.5 11.7 48.2 15.4 46.8 13.3 C 46.6 12.3 44.0 14.0 45.0 12.9 C 45.1 12.8 44.7 12.6 44.6 12.6 M 45.4 12.8 C 45.1 13.2 44.9 12.4 45.4 12.8 M 45.1 13.2 C 45.1 13.1 45.1 13.1 45.1 13.2 C 45.1 13.2 45.1 13.2 45.1 13.2 Z M 49.6 13.4 C 49.5 13.4 49.5 13.4 49.6 13.4 C 49.6 13.4 49.6 13.4 49.6 13.4 Z M 53.1 17.4 C 53.1 17.3 53.1 17.3 53.1 17.4 C 53.1 17.4 53.1 17.4 53.1 17.4 Z M 52.5 13.5 C 52.5 13.5 52.5 13.5 52.5 13.5 C 52.5 13.5 52.5 13.5 52.5 13.5 Z M 48.0 13.7 C 47.9 13.6 47.9 13.6 48.0 13.7 C 48.0 13.7 48.0 13.7 48.0 13.7 Z M 52.3 12.9 C 52.5 13.5 51.2 12.5 52.3 12.8 C 52.4 12.9 52.2 12.9 52.3 12.9 M 56.2 12.7 C 56.2 12.7 56.2 12.7 56.2 12.7 M 64.7 17.3 C 64.8 17.4 64.8 17.4 64.7 17.3 M 65.4 12.6 C 65.5 12.7 65.5 12.7 65.4 12.6 M 60.0 13.3 C 61.2 13.2 60.3 13.6 60.0 13.3 M 68.6 13.0 C 67.1 12.6 70.2 12.6 68.6 13.0 M 70.0 12.6 C 70.1 12.7 70.1 12.7 70.0 12.6 M 63.3 12.8 C 63.2 12.9 63.2 12.9 63.3 12.8 C 63.3 12.8 63.3 12.8 63.3 12.8 Z M 59.5 13.0 C 58.0 12.7 61.1 12.5 59.5 13.0 M 50.1 12.8 C 50.9 12.5 50.1 13.6 50.1 12.8 M 48.3 13.2 C 48.3 13.2 48.3 13.2 48.3 13.2 C 48.3 13.2 48.3 13.2 48.3 13.2 Z M 66.2 12.9 C 66.1 12.9 66.1 12.9 66.2 12.9 C 66.2 12.9 66.2 12.9 66.2 12.9 Z M 67.9 12.8 C 67.8 12.8 67.8 12.8 67.9 12.8 C 67.9 12.8 67.9 12.8 67.9 12.8 Z M 70.8 17.2 C 70.7 17.2 70.7 17.2 70.8 17.2 C 70.8 17.2 70.8 17.2 70.8 17.2 Z M 49.6 15.0 C 48.5 14.7 50.8 13.5 50.6 14.6 C 50.7 15.1 49.8 14.9 49.6 15.0 M 58.4 14.4 C 58.7 15.8 57.2 12.3 58.4 14.4 M 70.2 13.6 C 71.4 15.3 68.8 12.3 70.2 13.6 M 72.6 13.3 C 73.3 13.6 68.2 13.5 71.8 13.0 C 72.1 12.7 72.3 13.1 72.6 13.3 M 56.2 13.4 C 56.5 14.2 54.4 13.0 56.2 13.4 M 63.4 15.8 C 63.9 15.3 65.4 14.9 64.8 15.8 C 64.7 16.9 62.7 16.3 63.4 15.8 M 45.8 13.7 C 46.7 12.3 45.7 14.8 45.8 13.7 M 50.3 13.8 C 50.3 13.7 50.3 13.7 50.3 13.8 C 50.3 13.8 50.3 13.8 50.3 13.8 Z M 52.1 13.6 C 52.2 13.7 52.2 13.7 52.1 13.6 M 46.5 12.5 C 46.6 12.6 46.6 12.6 46.5 12.5 M 63.3 14.5 C 63.4 14.6 63.4 14.6 63.3 14.5 M 59.7 13.6 C 61.4 14.9 58.7 13.9 59.7 13.6 M 55.4 16.1 C 55.9 16.7 54.3 16.2 55.4 16.1 M 62.5 13.1 C 63.8 14.4 60.9 14.3 62.5 13.1 M 58.8 13.5 C 58.9 13.5 58.9 13.5 58.8 13.5 C 58.8 13.5 58.8 13.5 58.8 13.5 Z M 63.8 16.0 C 63.8 16.0 63.8 16.0 63.8 16.0 C 63.8 16.0 63.8 16.0 63.8 16.0 Z M 64.4 15.9 C 64.3 16.0 64.3 16.0 64.4 15.9 C 64.4 15.9 64.4 15.9 64.4 15.9 Z M 64.1 13.0 C 64.0 13.0 64.0 13.0 64.1 13.0 C 64.1 13.0 64.1 13.0 64.1 13.0 Z M 48.2 16.6 C 49.4 16.6 47.2 16.7 48.2 16.6 C 48.2 16.6 48.2 16.6 48.2 16.6 Z M 53.7 12.9 C 55.7 13.9 52.3 13.8 53.7 12.9 C 53.7 12.9 53.7 12.9 53.7 12.9 Z M 56.0 14.5 C 56.0 14.6 56.0 14.6 56.0 14.5 C 56.0 14.5 56.0 14.5 56.0 14.5 Z M 61.8 12.4 C 61.8 12.4 61.8 12.4 61.8 12.4 C 61.8 12.4 61.8 12.4 61.8 12.4 Z M 48.8 16.7 C 48.8 16.8 48.8 16.8 48.8 16.7 C 48.8 16.7 48.8 16.7 48.8 16.7 Z M 67.6 13.7 C 67.6 13.7 67.6 13.7 67.6 13.7 C 67.6 13.7 67.6 13.7 67.6 13.7 Z M 60.5 16.2 C 60.9 15.7 60.6 16.6 60.5 16.2 C 60.5 16.2 60.5 16.2 60.5 16.2 Z M 62.3 16.2 C 62.4 16.2 62.4 16.2 62.3 16.2 C 62.3 16.2 62.3 16.2 62.3 16.2 Z M 70.5 12.5 C 70.5 12.5 70.5 12.5 70.5 12.5 C 70.5 12.5 70.5 12.5 70.5 12.5 Z M 67.0 17.3 C 67.1 17.3 67.1 17.3 67.0 17.3 C 67.0 17.3 67.0 17.3 67.0 17.3 Z M 68.6 15.9 C 68.5 15.9 68.5 15.9 68.6 15.9 C 68.6 15.9 68.6 15.9 68.6 15.9 Z M 63.7 13.3 C 65.6 13.1 63.3 13.8 63.7 13.3 C 63.7 13.3 63.7 13.3 63.7 13.3 Z M 73.1 15.5 C 73.2 15.6 73.2 15.6 73.1 15.5 C 73.1 15.5 73.1 15.5 73.1 15.5 Z M 74.1 13.8 C 74.1 13.9 74.1 13.9 74.1 13.8 C 74.1 13.8 74.1 13.8 74.1 13.8 Z M 74.5 12.9 C 74.6 13.0 74.6 13.0 74.5 12.9 C 74.5 12.9 74.5 12.9 74.5 12.9 Z M 52.1 15.4 C 52.0 15.3 52.0 15.3 52.1 15.4 C 52.1 15.4 52.1 15.4 52.1 15.4 Z M 51.3 12.6 C 51.3 12.6 51.3 12.6 51.3 12.6 C 51.3 12.6 51.3 12.6 51.3 12.6 Z M 53.8 12.5 C 53.8 12.5 53.8 12.5 53.8 12.5 C 53.8 12.5 53.8 12.5 53.8 12.5 Z M 51.6 17.0 C 51.6 17.0 51.6 17.0 51.6 17.0 C 51.6 17.0 51.6 17.0 51.6 17.0 Z M 61.0 14.7 C 60.9 14.6 60.9 14.6 61.0 14.7 C 61.0 14.7 61.0 14.7 61.0 14.7 Z M 61.9 15.8 C 61.8 15.7 61.8 15.7 61.9 15.8 C 61.9 15.8 61.9 15.8 61.9 15.8 Z M 59.7 17.3 C 59.7 17.2 59.7 17.2 59.7 17.3 C 59.7 17.3 59.7 17.3 59.7 17.3 Z M 62.5 16.8 C 62.5 16.7 62.5 16.7 62.5 16.8 C 62.5 16.8 62.5 16.8 62.5 16.8 Z M 45.3 16.5 C 45.3 16.5 45.3 16.5 45.3 16.5 C 45.3 16.5 45.3 16.5 45.3 16.5 Z M 45.1 14.4 C 45.1 14.5 45.1 14.5 45.1 14.4 C 45.1 14.4 45.1 14.4 45.1 14.4 Z M 61.3 13.2 C 61.7 12.7 62.1 13.8 61.3 13.2 M 57.7 13.4 C 57.7 13.5 57.7 13.5 57.7 13.4 C 57.7 13.4 57.7 13.4 57.7 13.4 Z M 67.3 13.2 C 67.7 14.1 65.6 12.8 67.3 13.2 C 67.3 13.2 67.3 13.2 67.3 13.2 Z M 65.4 16.8 C 65.4 16.8 65.4 16.8 65.4 16.8 C 65.4 16.8 65.4 16.8 65.4 16.8 Z M 66.3 16.4 C 66.4 16.5 66.4 16.5 66.3 16.4 C 66.3 16.4 66.3 16.4 66.3 16.4 Z M 71.5 14.1 C 71.6 14.2 71.6 14.2 71.5 14.1 M 57.2 12.7 C 57.8 13.1 57.7 13.0 57.2 12.7 M 68.5 13.3 C 68.4 13.3 68.4 13.3 68.5 13.3 C 68.5 13.3 68.5 13.3 68.5 13.3 Z M 72.6 13.7 C 72.6 13.7 72.6 13.7 72.6 13.7 C 72.6 13.7 72.6 13.7 72.6 13.7 Z M 54.7 13.3 C 54.8 14.3 54.3 14.0 54.7 13.3 M 47.6 13.6 C 47.6 13.6 47.6 13.6 47.6 13.6 C 47.6 13.6 47.6 13.6 47.6 13.6 Z M 78.3 12.9 C 76.3 11.8 76.3 13.4 76.3 13.4 C 76.5 11.3 74.6 14.3 75.0 14.7 C 74.9 15.0 76.4 18.7 77.8 16.5 C 78.2 16.2 78.4 16.8 78.6 16.9 C 81.0 16.8 77.0 15.7 79.9 15.7 C 80.4 16.0 79.8 17.8 81.5 16.6 C 81.6 16.7 83.5 17.4 82.8 16.6 C 83.7 17.4 84.3 16.4 85.2 16.2 C 85.9 16.7 84.5 17.5 87.3 16.5 C 88.5 18.0 88.9 15.4 90.0 17.1 C 90.7 17.1 91.8 14.4 90.1 16.0 C 90.4 15.8 89.4 14.5 91.5 15.0 C 91.2 15.3 90.0 18.0 93.5 16.7 C 94.0 16.8 95.4 16.1 95.7 16.4 C 93.9 16.7 98.1 17.6 97.7 16.8 C 100.4 17.3 98.8 16.1 100.8 17.0 C 102.5 17.0 100.3 15.8 102.3 16.5 C 103.9 16.4 102.8 17.0 102.7 17.0 C 104.0 17.1 104.5 16.6 104.9 16.7 C 105.2 16.8 105.8 17.4 106.2 16.7 C 107.6 15.5 106.3 14.2 106.9 13.0 C 105.9 12.4 106.5 14.0 105.8 13.0 C 105.2 13.8 105.7 13.0 102.9 13.1 C 102.9 13.3 103.6 13.9 102.9 13.9 C 101.9 13.8 102.6 11.8 100.8 13.2 C 103.0 13.7 97.8 13.9 99.8 14.3 C 97.4 14.6 99.1 14.2 97.3 13.7 C 97.4 15.1 97.2 12.2 96.5 13.3 C 96.4 12.7 93.6 13.0 95.6 13.8 C 92.7 14.2 94.5 13.4 93.5 12.7 C 92.1 12.6 93.4 14.9 92.5 13.2 C 90.8 12.4 92.5 14.1 91.2 12.7 C 91.8 13.9 89.9 12.7 90.4 14.0 C 87.4 14.1 90.8 12.6 88.7 13.5 C 89.3 13.6 89.1 11.8 87.8 13.0 C 88.3 15.0 86.1 11.1 87.0 13.9 C 82.9 14.6 86.3 12.7 84.0 12.7 C 83.4 12.7 84.7 13.6 84.1 13.6 C 81.2 13.3 83.6 12.6 82.1 13.9 C 79.2 14.2 81.2 12.7 79.8 12.6 C 79.7 13.3 78.5 14.4 78.3 12.9 M 80.9 13.6 C 81.5 13.2 81.2 14.0 80.9 13.6 M 75.0 13.0 C 75.6 12.5 75.4 13.4 75.0 13.0 M 83.3 13.2 C 84.1 12.8 83.5 13.9 83.3 13.2 M 99.0 13.9 C 97.9 13.9 99.5 13.5 99.0 13.9 M 77.3 12.9 C 78.2 12.4 77.6 13.6 77.3 12.9 M 76.3 13.9 C 76.3 14.0 76.3 14.0 76.3 13.9 M 100.5 12.8 C 100.6 12.8 100.6 12.8 100.5 12.8 M 96.3 12.7 C 97.2 12.8 95.8 13.0 96.3 12.7 M 96.2 17.2 C 97.1 17.2 95.6 17.5 96.2 17.2 M 102.8 12.7 C 103.7 12.4 103.1 13.2 102.8 12.7 M 105.2 13.7 C 106.0 13.3 105.7 14.1 105.2 13.7 M 80.3 15.2 C 80.3 15.2 80.3 15.2 80.3 15.2 C 80.3 15.2 80.3 15.2 80.3 15.2 Z M 88.0 16.3 C 87.1 15.8 89.2 16.8 88.0 16.3 M 86.6 13.3 C 87.3 14.3 85.4 13.3 86.6 13.3 C 86.6 13.3 86.6 13.3 86.6 13.3 Z M 85.3 13.7 C 85.3 13.8 85.3 13.8 85.3 13.7 C 85.3 13.7 85.3 13.7 85.3 13.7 Z M 89.6 13.8 C 89.6 13.8 89.6 13.8 89.6 13.8 C 89.6 13.8 89.6 13.8 89.6 13.8 Z M 88.7 13.9 C 88.4 14.1 88.2 13.7 88.7 13.9 C 88.7 13.9 88.7 13.9 88.7 13.9 Z M 95.1 16.8 C 94.7 17.0 94.6 16.6 95.1 16.8 C 95.1 16.8 95.1 16.8 95.1 16.8 Z M 87.4 14.2 C 87.3 15.1 86.7 13.6 87.4 14.2 C 87.4 14.2 87.4 14.2 87.4 14.2 Z M 92.0 16.4 C 92.4 16.1 92.8 17.2 92.0 16.4 M 101.4 12.9 C 101.8 12.7 102.2 13.8 101.4 12.9 M 92.2 12.7 C 92.6 12.4 93.0 13.5 92.2 12.7 M 81.4 13.2 C 81.5 13.3 81.5 13.3 81.4 13.2 M 86.5 17.1 C 87.1 16.8 86.8 17.5 86.5 17.1 M 77.8 16.8 C 78.4 16.5 78.1 17.3 77.8 16.8 M 100.1 17.1 C 100.1 16.9 101.0 17.2 100.1 17.1 M 93.3 14.1 C 94.1 14.2 94.9 14.7 93.2 14.7 C 93.1 14.5 93.6 14.3 93.3 14.1 C 93.3 14.1 93.3 14.1 93.3 14.1 Z M 96.2 16.2 C 96.3 16.3 96.3 16.3 96.2 16.2 M 94.7 13.3 C 94.8 13.4 94.8 13.4 94.7 13.3 M 99.4 13.4 C 99.5 13.5 99.5 13.5 99.4 13.4 M 100.0 13.1 C 100.0 13.1 100.0 13.1 100.0 13.1 C 100.0 13.1 100.0 13.1 100.0 13.1 Z M 105.2 12.7 C 105.2 12.8 105.2 12.8 105.2 12.7 C 105.2 12.7 105.2 12.7 105.2 12.7 Z M 97.9 13.5 C 97.9 13.5 97.9 13.5 97.9 13.5 C 97.9 13.5 97.9 13.5 97.9 13.5 Z M 102.2 17.0 C 102.2 17.0 102.2 17.0 102.2 17.0 C 102.2 17.0 102.2 17.0 102.2 17.0 Z M 101.6 16.4 C 101.7 16.4 101.7 16.4 101.6 16.4 C 101.6 16.4 101.6 16.4 101.6 16.4 Z M 78.7 12.9 C 79.4 12.3 79.1 14.5 78.7 12.9 M 103.9 16.4 C 104.6 17.0 102.7 16.5 103.9 16.4 C 103.9 16.4 103.9 16.4 103.9 16.4 Z M 97.4 14.2 C 97.4 14.4 97.4 14.4 97.4 14.2 M 100.3 13.2 C 100.4 13.3 100.4 13.3 100.3 13.2 M 86.6 12.5 C 86.7 12.6 86.7 12.6 86.6 12.5 M 103.9 13.4 C 106.1 13.6 102.9 14.7 103.9 13.4 M 85.6 13.4 C 85.5 13.3 85.5 13.3 85.6 13.4 M 90.5 15.1 C 92.0 15.0 90.0 15.6 90.5 15.1 M 94.3 13.9 C 94.2 14.0 94.2 14.0 94.3 13.9 C 94.3 13.9 94.3 13.9 94.3 13.9 Z M 92.1 13.9 C 91.0 14.0 91.8 13.7 92.1 13.9 C 92.1 13.9 92.1 13.9 92.1 13.9 Z M 79.7 13.8 C 81.1 13.9 78.3 14.1 79.7 13.8 C 79.7 13.8 79.7 13.8 79.7 13.8 Z M 102.9 15.5 C 102.9 15.5 102.9 15.5 102.9 15.5 C 102.9 15.5 102.9 15.5 102.9 15.5 Z M 97.7 12.8 C 97.0 13.1 97.3 12.6 97.7 12.8 C 97.7 12.8 97.7 12.8 97.7 12.8 Z M 105.9 12.7 C 105.3 13.0 105.7 12.5 105.9 12.7 C 105.9 12.7 105.9 12.7 105.9 12.7 Z M 78.1 13.6 C 83.2 15.1 71.2 13.2 78.1 13.6 C 78.1 13.6 78.1 13.6 78.1 13.6 Z M 93.0 13.3 C 92.9 13.4 92.9 13.4 93.0 13.3 C 93.0 13.3 93.0 13.3 93.0 13.3 Z M 83.6 12.7 C 83.5 12.7 83.5 12.7 83.6 12.7 C 83.6 12.7 83.6 12.7 83.6 12.7 Z M 82.0 13.5 C 81.9 13.6 81.9 13.6 82.0 13.5 C 82.0 13.5 82.0 13.5 82.0 13.5 Z M 82.4 17.1 C 82.4 17.1 82.4 17.1 82.4 17.1 C 82.4 17.1 82.4 17.1 82.4 17.1 Z M 83.0 15.4 C 82.9 15.5 82.9 15.5 83.0 15.4 C 83.0 15.4 83.0 15.4 83.0 15.4 Z M 79.7 16.0 C 79.6 16.1 79.6 16.1 79.7 16.0 C 79.7 16.0 79.7 16.0 79.7 16.0 Z M 79.7 16.5 C 79.7 16.6 79.7 16.6 79.7 16.5 C 79.7 16.5 79.7 16.5 79.7 16.5 Z M 100.3 14.2 C 100.3 14.3 100.3 14.3 100.3 14.2 C 100.3 14.2 100.3 14.2 100.3 14.2 Z M 98.6 15.7 C 99.7 15.1 98.2 16.4 98.6 15.7 C 98.6 15.7 98.6 15.7 98.6 15.7 Z M 88.0 15.0 C 89.1 14.8 87.3 15.4 88.0 15.0 C 88.0 15.0 88.0 15.0 88.0 15.0 Z M 89.2 16.9 C 89.2 16.9 89.2 16.9 89.2 16.9 C 89.2 16.9 89.2 16.9 89.2 16.9 Z M 82.0 12.6 C 81.9 12.7 81.9 12.7 82.0 12.6 C 82.0 12.6 82.0 12.6 82.0 12.6 Z M 80.0 13.3 C 79.9 14.0 79.4 12.9 80.0 13.3 M 90.1 12.8 C 90.1 12.9 90.1 12.9 90.1 12.8 C 90.1 12.8 90.1 12.8 90.1 12.8 Z M 96.4 14.0 C 96.4 14.1 96.4 14.1 96.4 14.0 C 96.4 14.0 96.4 14.0 96.4 14.0 Z M 102.8 13.5 C 102.8 13.6 102.8 13.6 102.8 13.5 C 102.8 13.5 102.8 13.5 102.8 13.5 Z M 94.0 12.9 C 94.0 13.0 94.0 13.0 94.0 12.9 C 94.0 12.9 94.0 12.9 94.0 12.9 Z M 91.0 13.6 C 91.0 13.7 91.0 13.7 91.0 13.6 C 91.0 13.6 91.0 13.6 91.0 13.6 Z M 104.2 14.6 C 104.1 14.6 104.1 14.6 104.2 14.6 C 104.2 14.6 104.2 14.6 104.2 14.6 Z M 94.7 12.8 C 94.7 12.8 94.7 12.8 94.7 12.8 C 94.7 12.8 94.7 12.8 94.7 12.8 Z M 96.6 15.2 C 96.5 15.3 96.5 15.3 96.6 15.2 C 96.6 15.2 96.6 15.2 96.6 15.2 Z M 80.3 12.2 C 80.2 12.2 80.2 12.2 80.3 12.2 C 80.3 12.2 80.3 12.2 80.3 12.2 Z M 104.2 13.6 C 104.2 13.6 104.2 13.6 104.2 13.6 C 104.2 13.6 104.2 13.6 104.2 13.6 Z M 104.6 12.9 C 104.6 12.9 104.6 12.9 104.6 12.9 C 104.6 12.9 104.6 12.9 104.6 12.9 Z M 100.1 16.5 C 97.9 16.0 102.1 16.3 100.5 15.5 C 103.7 15.3 100.6 16.5 100.1 16.5 C 100.1 16.5 100.1 16.5 100.1 16.5 Z M 107.6 12.6 C 106.4 13.6 106.4 14.6 106.9 15.7 C 107.5 16.2 107.5 14.2 107.5 15.9 C 106.1 16.2 108.2 18.4 108.1 16.2 C 110.0 15.9 108.4 17.6 109.6 16.8 C 111.6 16.5 110.5 17.2 112.1 17.1 C 113.0 15.9 113.0 17.7 113.4 16.5 C 112.6 17.8 115.0 16.2 115.1 16.7 C 113.7 17.5 120.4 16.7 116.7 16.4 C 118.2 15.8 117.9 16.8 118.4 17.0 C 119.1 16.3 120.9 17.6 121.8 16.8 C 121.6 16.7 121.2 16.6 121.0 16.4 C 120.8 15.9 122.1 16.5 121.9 16.5 C 122.6 16.2 125.0 15.4 122.4 16.7 C 122.3 17.3 124.5 16.5 124.4 17.0 C 126.7 17.0 125.0 15.8 126.0 16.7 C 127.6 16.7 128.7 16.7 128.7 16.6 C 129.7 16.7 129.9 17.4 130.7 16.7 C 132.7 18.1 132.1 14.2 132.9 16.8 C 133.4 16.2 134.0 17.9 133.9 16.3 C 133.2 17.0 137.2 17.5 135.5 16.3 C 135.9 16.0 138.4 18.0 138.1 16.4 C 139.0 15.2 138.8 14.0 136.9 12.9 C 137.1 13.8 134.8 11.9 136.3 13.5 C 138.0 14.0 133.2 14.1 134.2 13.5 C 134.4 11.6 131.9 14.7 130.9 13.3 C 131.7 14.1 127.8 14.4 128.9 13.0 C 128.2 12.9 128.0 13.6 127.3 12.8 C 129.6 12.9 126.4 14.3 126.5 13.4 C 126.9 12.9 123.4 12.4 123.8 13.2 C 125.0 15.2 122.9 12.8 122.3 13.6 C 120.4 14.0 122.6 11.9 121.2 13.4 C 120.8 13.1 118.2 13.1 119.8 12.7 C 120.5 12.9 118.3 14.8 118.1 13.2 C 120.8 12.3 114.9 12.7 115.9 13.2 C 120.1 14.1 111.4 14.2 114.7 13.3 C 112.8 12.4 115.3 13.0 112.9 13.3 C 113.2 13.9 111.4 14.4 111.9 13.3 C 111.5 11.7 111.2 15.4 109.8 13.3 C 109.6 12.3 107.0 14.0 108.0 12.9 C 108.1 12.8 107.7 12.6 107.6 12.6 M 108.5 12.8 C 108.2 13.2 108.0 12.4 108.5 12.8 M 108.1 13.2 C 108.1 13.1 108.1 13.1 108.1 13.2 C 108.1 13.2 108.1 13.2 108.1 13.2 Z M 112.6 13.4 C 112.6 13.4 112.6 13.4 112.6 13.4 C 112.6 13.4 112.6 13.4 112.6 13.4 Z M 116.1 17.4 C 116.1 17.3 116.1 17.3 116.1 17.4 C 116.1 17.4 116.1 17.4 116.1 17.4 Z M 115.6 13.5 C 115.5 13.5 115.5 13.5 115.6 13.5 C 115.6 13.5 115.6 13.5 115.6 13.5 Z M 111.0 13.7 C 111.0 13.6 111.0 13.6 111.0 13.7 C 111.0 13.7 111.0 13.7 111.0 13.7 Z M 115.3 12.9 C 115.5 13.5 114.3 12.5 115.4 12.8 C 115.4 12.9 115.2 12.9 115.3 12.9 M 119.2 12.7 C 119.2 12.7 119.2 12.7 119.2 12.7 M 127.8 17.3 C 127.8 17.4 127.8 17.4 127.8 17.3 M 128.5 12.6 C 128.6 12.7 128.6 12.7 128.5 12.6 M 123.1 13.3 C 124.3 13.2 123.4 13.6 123.1 13.3 M 131.6 13.0 C 130.1 12.6 133.2 12.6 131.6 13.0 M 133.0 12.6 C 133.2 12.7 133.2 12.7 133.0 12.6 M 126.3 12.8 C 126.3 12.9 126.3 12.9 126.3 12.8 C 126.3 12.8 126.3 12.8 126.3 12.8 Z M 122.6 13.0 C 121.0 12.7 124.1 12.5 122.6 13.0 M 113.1 12.8 C 114.0 12.5 113.1 13.6 113.1 12.8 M 111.4 13.2 C 111.3 13.2 111.3 13.2 111.4 13.2 C 111.4 13.2 111.4 13.2 111.4 13.2 Z M 129.2 12.9 C 129.1 12.9 129.1 12.9 129.2 12.9 C 129.2 12.9 129.2 12.9 129.2 12.9 Z M 130.9 12.8 C 130.9 12.8 130.9 12.8 130.9 12.8 C 130.9 12.8 130.9 12.8 130.9 12.8 Z M 133.8 17.2 C 133.7 17.2 133.7 17.2 133.8 17.2 C 133.8 17.2 133.8 17.2 133.8 17.2 Z M 112.7 15.0 C 111.5 14.7 113.8 13.5 113.6 14.6 C 113.7 15.1 112.8 14.9 112.7 15.0 M 121.4 14.4 C 121.7 15.8 120.3 12.3 121.4 14.4 M 133.3 13.6 C 134.4 15.3 131.8 12.3 133.3 13.6 M 135.6 13.3 C 136.3 13.6 131.2 13.5 134.8 13.0 C 135.1 12.7 135.4 13.1 135.6 13.3 M 119.2 13.4 C 119.6 14.2 117.4 13.0 119.2 13.4 M 126.4 15.8 C 127.0 15.3 128.4 14.9 127.8 15.8 C 127.8 16.9 125.7 16.3 126.4 15.8 M 108.8 13.7 C 109.8 12.3 108.8 14.8 108.8 13.7 M 113.3 13.8 C 113.4 13.7 113.4 13.7 113.3 13.8 C 113.3 13.8 113.3 13.8 113.3 13.8 Z M 115.1 13.6 C 115.2 13.7 115.2 13.7 115.1 13.6 M 109.5 12.5 C 109.6 12.6 109.6 12.6 109.5 12.5 M 126.4 14.5 C 126.5 14.6 126.5 14.6 126.4 14.5 M 122.7 13.6 C 124.4 14.9 121.8 13.9 122.7 13.6 M 118.5 16.1 C 119.0 16.7 117.4 16.2 118.5 16.1 M 125.6 13.1 C 126.8 14.4 123.9 14.3 125.6 13.1 M 121.9 13.5 C 121.9 13.5 121.9 13.5 121.9 13.5 C 121.9 13.5 121.9 13.5 121.9 13.5 Z M 126.9 16.0 C 126.8 16.0 126.8 16.0 126.9 16.0 C 126.9 16.0 126.9 16.0 126.9 16.0 Z M 127.4 15.9 C 127.3 16.0 127.3 16.0 127.4 15.9 C 127.4 15.9 127.4 15.9 127.4 15.9 Z M 127.1 13.0 C 127.0 13.0 127.0 13.0 127.1 13.0 C 127.1 13.0 127.1 13.0 127.1 13.0 Z M 111.2 16.6 C 112.5 16.6 110.3 16.7 111.2 16.6 C 111.2 16.6 111.2 16.6 111.2 16.6 Z M 116.7 12.9 C 118.8 13.9 115.3 13.8 116.7 12.9 C 116.7 12.9 116.7 12.9 116.7 12.9 Z M 119.0 14.5 C 119.0 14.6 119.0 14.6 119.0 14.5 C 119.0 14.5 119.0 14.5 119.0 14.5 Z M 124.8 12.4 C 124.8 12.4 124.8 12.4 124.8 12.4 C 124.8 12.4 124.8 12.4 124.8 12.4 Z M 111.9 16.7 C 111.9 16.8 111.9 16.8 111.9 16.7 C 111.9 16.7 111.9 16.7 111.9 16.7 Z M 130.6 13.7 C 130.6 13.7 130.6 13.7 130.6 13.7 C 130.6 13.7 130.6 13.7 130.6 13.7 Z M 123.5 16.2 C 124.0 15.7 123.6 16.6 123.5 16.2 C 123.5 16.2 123.5 16.2 123.5 16.2 Z M 125.4 16.2 C 125.4 16.2 125.4 16.2 125.4 16.2 C 125.4 16.2 125.4 16.2 125.4 16.2 Z M 133.5 12.5 C 133.6 12.5 133.6 12.5 133.5 12.5 C 133.5 12.5 133.5 12.5 133.5 12.5 Z M 130.1 17.3 C 130.1 17.3 130.1 17.3 130.1 17.3 C 130.1 17.3 130.1 17.3 130.1 17.3 Z M 131.6 15.9 C 131.6 15.9 131.6 15.9 131.6 15.9 C 131.6 15.9 131.6 15.9 131.6 15.9 Z M 126.8 13.3 C 128.6 13.1 126.3 13.8 126.8 13.3 C 126.8 13.3 126.8 13.3 126.8 13.3 Z M 136.2 15.5 C 136.2 15.6 136.2 15.6 136.2 15.5 C 136.2 15.5 136.2 15.5 136.2 15.5 Z M 137.1 13.8 C 137.2 13.9 137.2 13.9 137.1 13.8 C 137.1 13.8 137.1 13.8 137.1 13.8 Z M 137.6 12.9 C 137.6 13.0 137.6 13.0 137.6 12.9 C 137.6 12.9 137.6 12.9 137.6 12.9 Z M 115.1 15.4 C 115.1 15.3 115.1 15.3 115.1 15.4 C 115.1 15.4 115.1 15.4 115.1 15.4 Z M 114.4 12.6 C 114.3 12.6 114.3 12.6 114.4 12.6 C 114.4 12.6 114.4 12.6 114.4 12.6 Z M 116.9 12.5 C 116.8 12.5 116.8 12.5 116.9 12.5 C 116.9 12.5 116.9 12.5 116.9 12.5 Z M 114.6 17.0 C 114.6 17.0 114.6 17.0 114.6 17.0 C 114.6 17.0 114.6 17.0 114.6 17.0 Z M 124.0 14.7 C 124.0 14.6 124.0 14.6 124.0 14.7 C 124.0 14.7 124.0 14.7 124.0 14.7 Z M 124.9 15.8 C 124.8 15.7 124.8 15.7 124.9 15.8 C 124.9 15.8 124.9 15.8 124.9 15.8 Z M 122.7 17.3 C 122.7 17.2 122.7 17.2 122.7 17.3 C 122.7 17.3 122.7 17.3 122.7 17.3 Z M 125.6 16.8 C 125.6 16.7 125.6 16.7 125.6 16.8 C 125.6 16.8 125.6 16.8 125.6 16.8 Z M 108.4 16.5 C 108.4 16.5 108.4 16.5 108.4 16.5 C 108.4 16.5 108.4 16.5 108.4 16.5 Z M 108.2 14.4 C 108.1 14.5 108.1 14.5 108.2 14.4 C 108.2 14.4 108.2 14.4 108.2 14.4 Z M 124.3 13.2 C 124.7 12.7 125.2 13.8 124.3 13.2 M 120.7 13.4 C 120.7 13.5 120.7 13.5 120.7 13.4 C 120.7 13.4 120.7 13.4 120.7 13.4 Z M 130.3 13.2 C 130.8 14.1 128.6 12.8 130.3 13.2 C 130.3 13.2 130.3 13.2 130.3 13.2 Z M 128.4 16.8 C 128.4 16.8 128.4 16.8 128.4 16.8 C 128.4 16.8 128.4 16.8 128.4 16.8 Z M 129.3 16.4 C 129.4 16.5 129.4 16.5 129.3 16.4 C 129.3 16.4 129.3 16.4 129.3 16.4 Z M 134.5 14.1 C 134.6 14.2 134.6 14.2 134.5 14.1 M 120.3 12.7 C 120.8 13.1 120.7 13.0 120.3 12.7 M 131.5 13.3 C 131.5 13.3 131.5 13.3 131.5 13.3 C 131.5 13.3 131.5 13.3 131.5 13.3 Z M 135.7 13.7 C 135.6 13.7 135.6 13.7 135.7 13.7 C 135.7 13.7 135.7 13.7 135.7 13.7 Z M 117.7 13.3 C 117.8 14.3 117.3 14.0 117.7 13.3 M 110.6 13.6 C 110.6 13.6 110.6 13.6 110.6 13.6 C 110.6 13.6 110.6 13.6 110.6 13.6 Z M 141.3 12.9 C 139.4 11.8 139.4 13.4 139.4 13.4 C 139.6 11.3 137.6 14.3 138.0 14.7 C 138.0 15.0 139.5 18.7 140.8 16.5 C 141.2 16.2 141.4 16.8 141.7 16.9 C 144.0 16.8 140.0 15.7 142.9 15.7 C 143.4 16.0 142.8 17.8 144.5 16.6 C 144.6 16.7 146.6 17.4 145.8 16.6 C 146.7 17.4 147.3 16.4 148.2 16.2 C 149.0 16.7 147.5 17.5 150.3 16.5 C 151.5 18.0 152.0 15.4 153.0 17.1 C 153.7 17.1 154.8 14.4 153.2 16.0 C 153.4 15.8 152.4 14.5 154.6 15.0 C 154.3 15.3 153.1 18.0 156.5 16.7 C 157.1 16.8 158.4 16.1 158.7 16.4 C 156.9 16.7 161.1 17.6 160.7 16.8 C 163.5 17.3 161.9 16.1 163.9 17.0 C 165.5 17.0 163.3 15.8 165.4 16.5 C 166.9 16.4 165.9 17.0 165.7 17.0 C 167.0 17.1 167.5 16.6 168.0 16.7 C 168.3 16.8 168.9 17.4 169.2 16.7 C 170.6 15.5 169.3 14.2 169.9 13.0 C 168.9 12.4 169.5 14.0 168.8 13.0 C 168.3 13.8 168.7 13.0 165.9 13.1 C 166.0 13.3 166.7 13.9 166.0 13.9 C 164.9 13.8 165.7 11.8 163.9 13.2 C 166.0 13.7 160.9 13.9 162.9 14.3 C 160.4 14.6 162.2 14.2 160.4 13.7 C 160.5 15.1 160.2 12.2 159.6 13.3 C 159.4 12.7 156.6 13.0 158.6 13.8 C 155.7 14.2 157.5 13.4 156.5 12.7 C 155.1 12.6 156.4 14.9 155.6 13.2 C 153.8 12.4 155.5 14.1 154.2 12.7 C 154.8 13.9 152.9 12.7 153.4 14.0 C 150.4 14.1 153.8 12.6 151.7 13.5 C 152.3 13.6 152.1 11.8 150.8 13.0 C 151.3 15.0 149.1 11.1 150.0 13.9 C 145.9 14.6 149.3 12.7 147.1 12.7 C 146.5 12.7 147.7 13.6 147.2 13.6 C 144.2 13.3 146.7 12.6 145.1 13.9 C 142.2 14.2 144.3 12.7 142.9 12.6 C 142.7 13.3 141.6 14.4 141.3 12.9 M 143.9 13.6 C 144.5 13.2 144.3 14.0 143.9 13.6 M 138.1 13.0 C 138.7 12.5 138.4 13.4 138.1 13.0 M 146.3 13.2 C 147.1 12.8 146.6 13.9 146.3 13.2 M 162.0 13.9 C 160.9 13.9 162.5 13.5 162.0 13.9 M 140.4 12.9 C 141.2 12.4 140.6 13.6 140.4 12.9 M 139.3 13.9 C 139.4 14.0 139.4 14.0 139.3 13.9 M 163.6 12.8 C 163.6 12.8 163.6 12.8 163.6 12.8 M 159.3 12.7 C 160.2 12.8 158.9 13.0 159.3 12.7 M 159.2 17.2 C 160.1 17.2 158.7 17.5 159.2 17.2 M 165.8 12.7 C 166.7 12.4 166.1 13.2 165.8 12.7 M 168.2 13.7 C 169.0 13.3 168.7 14.1 168.2 13.7 M 143.4 15.2 C 143.4 15.2 143.4 15.2 143.4 15.2 C 143.4 15.2 143.4 15.2 143.4 15.2 Z M 151.1 16.3 C 150.2 15.8 152.2 16.8 151.1 16.3 M 149.7 13.3 C 150.3 14.3 148.5 13.3 149.7 13.3 C 149.7 13.3 149.7 13.3 149.7 13.3 Z M 148.3 13.7 C 148.3 13.8 148.3 13.8 148.3 13.7 C 148.3 13.7 148.3 13.7 148.3 13.7 Z M 152.7 13.8 C 152.6 13.8 152.6 13.8 152.7 13.8 C 152.7 13.8 152.7 13.8 152.7 13.8 Z M 151.8 13.9 C 151.4 14.1 151.3 13.7 151.8 13.9 C 151.8 13.9 151.8 13.9 151.8 13.9 Z M 158.1 16.8 C 157.7 17.0 157.6 16.6 158.1 16.8 C 158.1 16.8 158.1 16.8 158.1 16.8 Z M 150.4 14.2 C 150.3 15.1 149.8 13.6 150.4 14.2 C 150.4 14.2 150.4 14.2 150.4 14.2 Z M 155.1 16.4 C 155.5 16.1 155.9 17.2 155.1 16.4 M 164.4 12.9 C 164.8 12.7 165.3 13.8 164.4 12.9 M 155.2 12.7 C 155.6 12.4 156.0 13.5 155.2 12.7 M 144.4 13.2 C 144.5 13.3 144.5 13.3 144.4 13.2 M 149.5 17.1 C 150.1 16.8 149.8 17.5 149.5 17.1 M 140.8 16.8 C 141.4 16.5 141.1 17.3 140.8 16.8 M 163.1 17.1 C 163.1 16.9 164.1 17.2 163.1 17.1 M 156.3 14.1 C 157.1 14.2 157.9 14.7 156.3 14.7 C 156.2 14.5 156.7 14.3 156.3 14.1 C 156.3 14.1 156.3 14.1 156.3 14.1 Z M 159.2 16.2 C 159.3 16.3 159.3 16.3 159.2 16.2 M 157.7 13.3 C 157.9 13.4 157.9 13.4 157.7 13.3 M 162.5 13.4 C 162.6 13.5 162.6 13.5 162.5 13.4 M 163.0 13.1 C 163.0 13.1 163.0 13.1 163.0 13.1 C 163.0 13.1 163.0 13.1 163.0 13.1 Z M 168.2 12.7 C 168.2 12.8 168.2 12.8 168.2 12.7 C 168.2 12.7 168.2 12.7 168.2 12.7 Z M 161.0 13.5 C 160.9 13.5 160.9 13.5 161.0 13.5 C 161.0 13.5 161.0 13.5 161.0 13.5 Z M 165.2 17.0 C 165.2 17.0 165.2 17.0 165.2 17.0 C 165.2 17.0 165.2 17.0 165.2 17.0 Z M 164.7 16.4 C 164.7 16.4 164.7 16.4 164.7 16.4 C 164.7 16.4 164.7 16.4 164.7 16.4 Z M 141.7 12.9 C 142.4 12.3 142.1 14.5 141.7 12.9 M 167.0 16.4 C 167.7 17.0 165.8 16.5 167.0 16.4 C 167.0 16.4 167.0 16.4 167.0 16.4 Z M 160.4 14.2 C 160.5 14.4 160.5 14.4 160.4 14.2 M 163.3 13.2 C 163.4 13.3 163.4 13.3 163.3 13.2 M 149.6 12.5 C 149.7 12.6 149.7 12.6 149.6 12.5 M 167.0 13.4 C 169.2 13.6 166.0 14.7 167.0 13.4 M 148.6 13.4 C 148.6 13.3 148.6 13.3 148.6 13.4 M 153.6 15.1 C 155.0 15.0 153.0 15.6 153.6 15.1 M 157.3 13.9 C 157.3 14.0 157.3 14.0 157.3 13.9 C 157.3 13.9 157.3 13.9 157.3 13.9 Z M 155.1 13.9 C 154.1 14.0 154.9 13.7 155.1 13.9 C 155.1 13.9 155.1 13.9 155.1 13.9 Z M 142.8 13.8 C 144.1 13.9 141.3 14.1 142.8 13.8 C 142.8 13.8 142.8 13.8 142.8 13.8 Z M 166.0 15.5 C 165.9 15.5 165.9 15.5 166.0 15.5 C 166.0 15.5 166.0 15.5 166.0 15.5 Z M 160.7 12.8 C 160.0 13.1 160.4 12.6 160.7 12.8 C 160.7 12.8 160.7 12.8 160.7 12.8 Z M 169.0 12.7 C 168.3 13.0 168.7 12.5 169.0 12.7 C 169.0 12.7 169.0 12.7 169.0 12.7 Z M 141.1 13.6 C 146.2 15.1 134.3 13.2 141.1 13.6 C 141.1 13.6 141.1 13.6 141.1 13.6 Z M 156.0 13.3 C 156.0 13.4 156.0 13.4 156.0 13.3 C 156.0 13.3 156.0 13.3 156.0 13.3 Z M 146.6 12.7 C 146.6 12.7 146.6 12.7 146.6 12.7 C 146.6 12.7 146.6 12.7 146.6 12.7 Z M 145.0 13.5 C 145.0 13.6 145.0 13.6 145.0 13.5 C 145.0 13.5 145.0 13.5 145.0 13.5 Z M 145.4 17.1 C 145.4 17.1 145.4 17.1 145.4 17.1 C 145.4 17.1 145.4 17.1 145.4 17.1 Z M 146.0 15.4 C 145.9 15.5 145.9 15.5 146.0 15.4 C 146.0 15.4 146.0 15.4 146.0 15.4 Z M 142.7 16.0 C 142.7 16.1 142.7 16.1 142.7 16.0 C 142.7 16.0 142.7 16.0 142.7 16.0 Z M 142.8 16.5 C 142.8 16.6 142.8 16.6 142.8 16.5 C 142.8 16.5 142.8 16.5 142.8 16.5 Z M 163.3 14.2 C 163.3 14.3 163.3 14.3 163.3 14.2 C 163.3 14.2 163.3 14.2 163.3 14.2 Z M 161.6 15.7 C 162.8 15.1 161.2 16.4 161.6 15.7 C 161.6 15.7 161.6 15.7 161.6 15.7 Z M 151.1 15.0 C 152.2 14.8 150.4 15.4 151.1 15.0 C 151.1 15.0 151.1 15.0 151.1 15.0 Z M 152.2 16.9 C 152.3 16.9 152.3 16.9 152.2 16.9 C 152.2 16.9 152.2 16.9 152.2 16.9 Z M 145.0 12.6 C 145.0 12.7 145.0 12.7 145.0 12.6 C 145.0 12.6 145.0 12.6 145.0 12.6 Z M 143.0 13.3 C 142.9 14.0 142.4 12.9 143.0 13.3 M 153.1 12.8 C 153.1 12.9 153.1 12.9 153.1 12.8 C 153.1 12.8 153.1 12.8 153.1 12.8 Z M 159.5 14.0 C 159.5 14.1 159.5 14.1 159.5 14.0 C 159.5 14.0 159.5 14.0 159.5 14.0 Z M 165.8 13.5 C 165.8 13.6 165.8 13.6 165.8 13.5 C 165.8 13.5 165.8 13.5 165.8 13.5 Z M 157.1 12.9 C 157.0 13.0 157.0 13.0 157.1 12.9 C 157.1 12.9 157.1 12.9 157.1 12.9 Z M 154.0 13.6 C 154.0 13.7 154.0 13.7 154.0 13.6 C 154.0 13.6 154.0 13.6 154.0 13.6 Z M 167.2 14.6 C 167.2 14.6 167.2 14.6 167.2 14.6 C 167.2 14.6 167.2 14.6 167.2 14.6 Z M 157.8 12.8 C 157.8 12.8 157.8 12.8 157.8 12.8 C 157.8 12.8 157.8 12.8 157.8 12.8 Z M 159.6 15.2 C 159.6 15.3 159.6 15.3 159.6 15.2 C 159.6 15.2 159.6 15.2 159.6 15.2 Z M 143.3 12.2 C 143.3 12.2 143.3 12.2 143.3 12.2 C 143.3 12.2 143.3 12.2 143.3 12.2 Z M 167.3 13.6 C 167.3 13.6 167.3 13.6 167.3 13.6 C 167.3 13.6 167.3 13.6 167.3 13.6 Z M 167.7 12.9 C 167.6 12.9 167.6 12.9 167.7 12.9 C 167.7 12.9 167.7 12.9 167.7 12.9 Z M 163.2 16.5 C 160.9 16.0 165.2 16.3 163.6 15.5 C 166.8 15.3 163.7 16.5 163.2 16.5 C 163.2 16.5 163.2 16.5 163.2 16.5 Z M 170.7 12.6 C 169.4 13.6 169.4 14.6 170.0 15.7 C 170.6 16.2 170.6 14.2 170.6 15.9 C 169.2 16.2 171.2 18.4 171.2 16.2 C 173.0 15.9 171.5 17.6 172.6 16.8 C 174.6 16.5 173.6 17.2 175.1 17.1 C 176.0 15.9 176.0 17.7 176.4 16.5 C 175.6 17.8 178.0 16.2 178.1 16.7 C 176.7 17.5 183.4 16.7 179.8 16.4 C 181.3 15.8 181.0 16.8 181.5 17.0 C 182.1 16.3 183.9 17.6 184.9 16.8 C 184.7 16.7 184.2 16.6 184.1 16.4 C 183.8 15.9 185.1 16.5 185.0 16.5 C 185.6 16.2 188.0 15.4 185.4 16.7 C 185.3 17.3 187.5 16.5 187.4 17.0 C 189.7 17.0 188.0 15.8 189.0 16.7 C 190.6 16.7 191.7 16.7 191.7 16.6 C 192.7 16.7 192.9 17.4 193.8 16.7 C 195.7 18.1 195.1 14.2 195.9 16.8 C 196.5 16.2 197.0 17.9 196.9 16.3 C 196.2 17.0 200.2 17.5 198.5 16.3 C 199.0 16.0 201.5 18.0 201.1 16.4 C 202.0 15.2 201.9 14.0 199.9 12.9 C 200.1 13.8 197.8 11.9 199.3 13.5 C 201.0 14.0 196.2 14.1 197.2 13.5 C 197.5 11.6 194.9 14.7 193.9 13.3 C 194.7 14.1 190.8 14.4 192.0 13.0 C 191.2 12.9 191.1 13.6 190.3 12.8 C 192.6 12.9 189.4 14.3 189.5 13.4 C 189.9 12.9 186.5 12.4 186.8 13.2 C 188.0 15.2 185.9 12.8 185.3 13.6 C 183.4 14.0 185.6 11.9 184.2 13.4 C 183.8 13.1 181.3 13.1 182.9 12.7 C 183.5 12.9 181.4 14.8 181.1 13.2 C 183.8 12.3 178.0 12.7 178.9 13.2 C 183.1 14.1 174.4 14.2 177.7 13.3 C 175.9 12.4 178.3 13.0 176.0 13.3 C 176.3 13.9 174.5 14.4 174.9 13.3 C 174.5 11.7 174.3 15.4 172.9 13.3 C 172.6 12.3 170.0 14.0 171.1 12.9 C 171.1 12.8 170.7 12.6 170.7 12.6 M 171.5 12.8 C 171.2 13.2 171.0 12.4 171.5 12.8 M 171.2 13.2 C 171.1 13.1 171.1 13.1 171.2 13.2 C 171.2 13.2 171.2 13.2 171.2 13.2 Z M 175.6 13.4 C 175.6 13.4 175.6 13.4 175.6 13.4 C 175.6 13.4 175.6 13.4 175.6 13.4 Z M 179.2 17.4 C 179.1 17.3 179.1 17.3 179.2 17.4 C 179.2 17.4 179.2 17.4 179.2 17.4 Z M 178.6 13.5 C 178.6 13.5 178.6 13.5 178.6 13.5 C 178.6 13.5 178.6 13.5 178.6 13.5 Z M 174.0 13.7 C 174.0 13.6 174.0 13.6 174.0 13.7 C 174.0 13.7 174.0 13.7 174.0 13.7 Z M 178.3 12.9 C 178.6 13.5 177.3 12.5 178.4 12.8 C 178.4 12.9 178.2 12.9 178.3 12.9 M 182.2 12.7 C 182.2 12.7 182.2 12.7 182.2 12.7 M 190.8 17.3 C 190.8 17.4 190.8 17.4 190.8 17.3 M 191.5 12.6 C 191.6 12.7 191.6 12.7 191.5 12.6 M 186.1 13.3 C 187.3 13.2 186.4 13.6 186.1 13.3 M 194.6 13.0 C 193.1 12.6 196.2 12.6 194.6 13.0 M 196.1 12.6 C 196.2 12.7 196.2 12.7 196.1 12.6 M 189.3 12.8 C 189.3 12.9 189.3 12.9 189.3 12.8 C 189.3 12.8 189.3 12.8 189.3 12.8 Z M 185.6 13.0 C 184.0 12.7 187.2 12.5 185.6 13.0 M 176.2 12.8 C 177.0 12.5 176.1 13.6 176.2 12.8 M 174.4 13.2 C 174.4 13.2 174.4 13.2 174.4 13.2 C 174.4 13.2 174.4 13.2 174.4 13.2 Z M 192.2 12.9 C 192.2 12.9 192.2 12.9 192.2 12.9 C 192.2 12.9 192.2 12.9 192.2 12.9 Z M 194.0 12.8 C 193.9 12.8 193.9 12.8 194.0 12.8 C 194.0 12.8 194.0 12.8 194.0 12.8 Z M 196.8 17.2 C 196.8 17.2 196.8 17.2 196.8 17.2 C 196.8 17.2 196.8 17.2 196.8 17.2 Z M 175.7 15.0 C 174.6 14.7 176.9 13.5 176.7 14.6 C 176.8 15.1 175.8 14.9 175.7 15.0 M 184.5 14.4 C 184.8 15.8 183.3 12.3 184.5 14.4 M 196.3 13.6 C 197.5 15.3 194.8 12.3 196.3 13.6 M 198.7 13.3 C 199.3 13.6 194.3 13.5 197.8 13.0 C 198.2 12.7 198.4 13.1 198.7 13.3 M 182.3 13.4 C 182.6 14.2 180.4 13.0 182.3 13.4 M 189.4 15.8 C 190.0 15.3 191.5 14.9 190.8 15.8 C 190.8 16.9 188.7 16.3 189.4 15.8 M 171.8 13.7 C 172.8 12.3 171.8 14.8 171.8 13.7 M 176.4 13.8 C 176.4 13.7 176.4 13.7 176.4 13.8 C 176.4 13.8 176.4 13.8 176.4 13.8 Z M 178.2 13.6 C 178.2 13.7 178.2 13.7 178.2 13.6 M 172.6 12.5 C 172.7 12.6 172.7 12.6 172.6 12.5 M 189.4 14.5 C 189.5 14.6 189.5 14.6 189.4 14.5 M 185.8 13.6 C 187.5 14.9 184.8 13.9 185.8 13.6 M 181.5 16.1 C 182.0 16.7 180.4 16.2 181.5 16.1 M 188.6 13.1 C 189.8 14.4 186.9 14.3 188.6 13.1 M 184.9 13.5 C 185.0 13.5 185.0 13.5 184.9 13.5 C 184.9 13.5 184.9 13.5 184.9 13.5 Z M 189.9 16.0 C 189.9 16.0 189.9 16.0 189.9 16.0 C 189.9 16.0 189.9 16.0 189.9 16.0 Z M 190.4 15.9 C 190.4 16.0 190.4 16.0 190.4 15.9 C 190.4 15.9 190.4 15.9 190.4 15.9 Z M 190.1 13.0 C 190.1 13.0 190.1 13.0 190.1 13.0 C 190.1 13.0 190.1 13.0 190.1 13.0 Z M 174.3 16.6 C 175.5 16.6 173.3 16.7 174.3 16.6 C 174.3 16.6 174.3 16.6 174.3 16.6 Z M 179.7 12.9 C 181.8 13.9 178.3 13.8 179.7 12.9 C 179.7 12.9 179.7 12.9 179.7 12.9 Z M 182.1 14.5 C 182.1 14.6 182.1 14.6 182.1 14.5 C 182.1 14.5 182.1 14.5 182.1 14.5 Z M 187.8 12.4 C 187.8 12.4 187.8 12.4 187.8 12.4 C 187.8 12.4 187.8 12.4 187.8 12.4 Z M 174.9 16.7 C 174.9 16.8 174.9 16.8 174.9 16.7 C 174.9 16.7 174.9 16.7 174.9 16.7 Z M 193.6 13.7 C 193.6 13.7 193.6 13.7 193.6 13.7 C 193.6 13.7 193.6 13.7 193.6 13.7 Z M 186.5 16.2 C 187.0 15.7 186.6 16.6 186.5 16.2 C 186.5 16.2 186.5 16.2 186.5 16.2 Z M 188.4 16.2 C 188.4 16.2 188.4 16.2 188.4 16.2 C 188.4 16.2 188.4 16.2 188.4 16.2 Z M 196.5 12.5 C 196.6 12.5 196.6 12.5 196.5 12.5 C 196.5 12.5 196.5 12.5 196.5 12.5 Z M 193.1 17.3 C 193.1 17.3 193.1 17.3 193.1 17.3 C 193.1 17.3 193.1 17.3 193.1 17.3 Z M 194.6 15.9 C 194.6 15.9 194.6 15.9 194.6 15.9 C 194.6 15.9 194.6 15.9 194.6 15.9 Z M 189.8 13.3 C 191.6 13.1 189.4 13.8 189.8 13.3 C 189.8 13.3 189.8 13.3 189.8 13.3 Z M 199.2 15.5 C 199.3 15.6 199.3 15.6 199.2 15.5 C 199.2 15.5 199.2 15.5 199.2 15.5 Z M 200.1 13.8 C 200.2 13.9 200.2 13.9 200.1 13.8 C 200.1 13.8 200.1 13.8 200.1 13.8 Z M 200.6 12.9 C 200.7 13.0 200.7 13.0 200.6 12.9 C 200.6 12.9 200.6 12.9 200.6 12.9 Z M 178.1 15.4 C 178.1 15.3 178.1 15.3 178.1 15.4 C 178.1 15.4 178.1 15.4 178.1 15.4 Z M 177.4 12.6 C 177.4 12.6 177.4 12.6 177.4 12.6 C 177.4 12.6 177.4 12.6 177.4 12.6 Z M 179.9 12.5 C 179.9 12.5 179.9 12.5 179.9 12.5 C 179.9 12.5 179.9 12.5 179.9 12.5 Z M 177.7 17.0 C 177.6 17.0 177.6 17.0 177.7 17.0 C 177.7 17.0 177.7 17.0 177.7 17.0 Z M 187.0 14.7 C 187.0 14.6 187.0 14.6 187.0 14.7 C 187.0 14.7 187.0 14.7 187.0 14.7 Z M 187.9 15.8 C 187.9 15.7 187.9 15.7 187.9 15.8 C 187.9 15.8 187.9 15.8 187.9 15.8 Z M 185.8 17.3 C 185.7 17.2 185.7 17.2 185.8 17.3 C 185.8 17.3 185.8 17.3 185.8 17.3 Z M 188.6 16.8 C 188.6 16.7 188.6 16.7 188.6 16.8 C 188.6 16.8 188.6 16.8 188.6 16.8 Z M 171.4 16.5 C 171.4 16.5 171.4 16.5 171.4 16.5 C 171.4 16.5 171.4 16.5 171.4 16.5 Z M 171.2 14.4 C 171.2 14.5 171.2 14.5 171.2 14.4 C 171.2 14.4 171.2 14.4 171.2 14.4 Z M 187.3 13.2 C 187.8 12.7 188.2 13.8 187.3 13.2 M 183.8 13.4 C 183.7 13.5 183.7 13.5 183.8 13.4 C 183.8 13.4 183.8 13.4 183.8 13.4 Z M 193.3 13.2 C 193.8 14.1 191.7 12.8 193.3 13.2 C 193.3 13.2 193.3 13.2 193.3 13.2 Z M 191.4 16.8 C 191.5 16.8 191.5 16.8 191.4 16.8 C 191.4 16.8 191.4 16.8 191.4 16.8 Z M 192.4 16.4 C 192.4 16.5 192.4 16.5 192.4 16.4 C 192.4 16.4 192.4 16.4 192.4 16.4 Z M 197.5 14.1 C 197.6 14.2 197.6 14.2 197.5 14.1 M 183.3 12.7 C 183.8 13.1 183.7 13.0 183.3 12.7 M 194.5 13.3 C 194.5 13.3 194.5 13.3 194.5 13.3 C 194.5 13.3 194.5 13.3 194.5 13.3 Z M 198.7 13.7 C 198.6 13.7 198.6 13.7 198.7 13.7 C 198.7 13.7 198.7 13.7 198.7 13.7 Z M 180.8 13.3 C 180.9 14.3 180.4 14.0 180.8 13.3 M 173.7 13.6 C 173.7 13.6 173.7 13.6 173.7 13.6 C 173.7 13.6 173.7 13.6 173.7 13.6 Z M 173.7 13.6 " fill="#FDCA55"></path><path d="M 207.1 13.0 C 206.6 13.2 206.8 14.5 207.1 14.6 C 207.3 14.8 206.9 15.9 207.4 16.0 C 207.8 16.2 208.0 16.2 207.8 16.0 C 207.7 15.9 208.2 16.2 208.7 16.1 C 209.2 16.1 208.1 16.5 209.6 16.3 C 210.1 16.3 209.6 16.7 210.3 16.8 C 211.0 16.8 210.7 16.3 210.7 16.0 C 210.7 15.8 212.2 16.5 212.7 16.2 C 212.9 16.1 213.6 16.6 213.6 16.9 C 213.6 17.1 212.9 17.2 213.1 17.4 C 213.3 17.6 213.6 17.6 213.9 17.6 C 214.2 17.6 214.6 17.5 214.5 17.3 C 214.4 17.1 214.4 16.9 214.6 17.1 C 214.9 17.2 215.3 17.3 215.4 17.4 C 215.5 17.5 216.2 17.1 216.0 17.1 C 215.8 17.0 216.7 17.2 216.7 17.1 C 216.7 16.9 216.8 16.8 216.5 16.7 C 216.3 16.6 216.2 16.7 216.0 16.5 C 215.8 16.3 215.7 16.1 215.9 16.1 C 216.2 16.1 216.6 16.2 216.6 16.0 C 216.5 15.9 216.3 15.7 216.4 15.4 C 216.6 15.2 216.9 15.1 217.0 15.2 C 217.2 15.3 217.9 15.4 217.4 15.5 C 217.0 15.7 217.8 15.8 217.9 15.9 C 218.0 16.0 218.1 15.7 218.4 15.8 C 218.7 16.0 218.6 16.2 217.7 16.7 C 217.6 16.8 217.2 17.0 217.3 17.2 C 217.5 17.3 217.8 17.1 218.0 16.9 C 218.2 16.7 218.2 17.1 218.3 17.2 C 218.4 17.3 218.4 16.9 218.5 17.0 C 218.6 17.1 218.8 17.4 219.0 17.1 C 219.1 16.9 219.2 16.9 219.0 16.8 C 218.8 16.7 218.6 16.6 218.8 16.6 C 218.9 16.5 220.8 16.2 220.1 16.1 C 219.3 16.0 222.9 15.6 220.8 15.3 C 218.7 15.1 221.3 14.0 220.4 14.0 C 219.4 13.9 220.1 13.1 219.2 13.0 C 219.0 13.0 218.5 12.7 218.5 12.6 C 218.5 12.5 218.9 12.4 218.9 12.3 C 218.9 12.2 218.6 12.2 218.2 12.3 C 217.9 12.3 217.8 12.5 217.3 12.4 C 216.8 12.2 216.4 12.2 216.1 12.2 C 215.7 12.2 215.5 12.4 215.5 12.4 C 215.4 12.5 215.6 12.6 215.6 12.8 C 215.7 13.0 215.2 13.0 214.9 13.0 C 214.6 13.0 214.5 12.6 214.2 12.6 C 213.9 12.6 213.4 12.4 213.6 12.3 C 213.8 12.3 214.2 12.5 214.5 12.5 C 214.8 12.5 215.4 12.4 215.1 12.3 C 214.8 12.2 213.6 12.2 213.4 12.2 C 213.2 12.2 212.4 12.9 212.2 12.7 C 212.0 12.2 211.3 12.4 211.1 12.3 C 210.8 12.2 209.3 12.5 209.4 12.6 C 209.8 13.1 208.3 13.1 208.3 13.4 C 208.3 13.7 208.0 12.8 207.1 12.9 M 216.9 16.7 C 216.9 16.6 217.2 16.5 217.4 16.5 C 217.5 16.5 217.4 16.8 217.3 16.7 C 217.1 16.7 216.9 16.7 216.9 16.7 Z M 217.4 16.4 C 217.3 16.3 217.3 16.1 217.6 16.2 C 218.0 16.2 217.8 16.4 217.7 16.4 C 217.6 16.5 217.5 16.5 217.4 16.4 Z M 211.9 17.2 C 211.9 17.2 212.1 17.2 212.4 17.2 C 212.6 17.4 212.6 17.6 212.3 17.6 C 212.1 17.7 211.8 17.3 211.9 17.2 Z M 212.5 16.6 C 212.5 16.5 212.5 16.4 212.8 16.5 C 213.0 16.6 213.0 16.7 212.8 16.8 C 212.6 16.8 212.4 16.7 212.5 16.6 Z M 208.9 16.4 C 209.4 16.5 208.9 17.0 208.3 16.7 C 207.8 16.5 208.2 16.4 208.9 16.4 Z M 210.9 12.6 C 210.9 12.6 210.6 12.7 210.5 12.7 C 210.1 12.5 210.9 12.6 210.9 12.6 Z M 217.2 15.8 C 217.2 15.8 216.9 15.9 216.9 15.9 C 216.5 15.7 217.2 15.8 217.2 15.8 Z M 219.0 14.1 C 218.9 14.2 218.7 14.1 218.9 14.0 C 219.0 14.0 219.1 14.0 219.0 14.1 Z M 209.7 15.9 C 209.5 16.1 209.3 15.8 209.5 15.8 C 209.7 15.8 209.8 15.8 209.7 15.9 Z M 208.1 16.5 C 207.9 16.5 207.7 16.4 207.9 16.4 C 208.1 16.4 208.2 16.4 208.1 16.5 Z M 210.9 17.1 C 210.8 16.9 210.8 16.7 211.1 16.9 C 211.5 17.2 211.5 17.4 211.4 17.5 C 211.4 17.7 210.7 17.6 210.6 17.4 C 210.4 16.9 211.0 17.4 210.9 17.1 Z M 212.2 13.3 C 212.0 13.2 212.3 13.0 212.4 13.2 C 212.6 13.3 212.4 13.4 212.2 13.3 Z M 207.3 17.2 C 207.6 17.3 207.7 17.4 207.4 17.3 M 216.2 13.4 C 215.9 13.4 216.4 13.7 216.0 13.6 C 215.5 13.5 215.7 13.2 216.1 13.3 C 216.5 13.4 216.5 13.5 216.2 13.4 Z M 215.7 15.5 C 215.8 15.4 216.1 15.5 215.8 15.8 C 215.6 16.0 215.2 15.4 215.4 15.4 C 215.7 15.3 215.6 15.6 215.7 15.5 Z M 208.3 13.1 C 208.1 13.3 207.9 13.0 208.0 12.9 C 208.3 12.8 208.4 12.8 208.3 13.1 Z M 210.8 14.5 C 210.7 14.6 210.5 14.4 210.7 14.4 C 210.9 14.3 210.9 14.4 210.8 14.5 Z M 216.5 16.4 C 216.4 16.5 216.3 16.4 216.5 16.3 C 216.6 16.3 216.7 16.3 216.5 16.4 Z M 209.5 17.6 C 208.8 17.7 208.3 17.5 209.1 17.2 C 209.7 16.9 209.6 17.5 209.5 17.6 Z M 214.5 14.2 C 214.3 14.3 214.3 14.2 214.4 14.1 C 214.5 14.1 214.6 14.1 214.5 14.2 Z M 213.8 15.3 C 214.1 15.5 213.8 15.7 213.0 15.5 C 212.2 15.3 212.9 14.7 213.4 14.8 C 214.1 15.1 213.5 15.2 213.8 15.3 Z M 211.2 16.4 C 211.1 16.6 210.8 16.4 211.1 16.3 C 211.3 16.2 211.4 16.2 211.2 16.4 Z M 212.2 16.7 C 212.1 16.8 211.9 16.7 212.1 16.7 C 212.2 16.6 212.3 16.6 212.2 16.7 Z M 208.7 12.8 C 208.6 12.9 208.4 12.8 208.6 12.7 C 208.7 12.7 208.8 12.7 208.7 12.8 Z M 208.9 15.1 C 208.9 15.2 208.6 15.1 208.8 15.0 C 208.9 15.0 209.0 15.0 208.9 15.1 Z M 215.7 26.0 C 215.7 25.9 216.1 25.7 216.1 25.9 C 216.2 26.1 215.6 26.1 215.7 26.0 Z M 212.2 27.5 C 212.2 27.6 211.5 27.8 211.9 27.4 C 212.1 27.2 212.3 27.4 212.2 27.5 Z M 218.4 23.8 C 218.5 23.6 218.6 23.7 218.5 23.8 C 218.5 23.9 218.2 23.9 218.4 23.8 Z M 221.9 15.9 C 222.0 15.7 222.4 15.6 222.7 15.4 C 222.7 15.4 222.7 15.4 222.7 15.4 C 222.7 15.5 222.6 15.6 222.6 15.7 C 222.6 15.7 222.5 15.7 222.5 15.7 C 222.2 15.9 221.7 16.0 221.9 15.9 Z M 223.0 14.9 C 223.3 14.9 222.9 15.3 222.7 15.4 C 222.8 15.2 222.9 15.0 223.0 14.9 Z M 209.6 28.6 C 209.6 28.8 209.2 28.7 209.4 28.6 C 209.5 28.5 209.6 28.4 209.6 28.6 Z M 211.9 27.0 C 212.0 27.0 212.0 27.1 211.9 27.1 C 211.8 27.1 211.8 27.0 211.9 27.0 Z M 222.9 20.5 C 222.8 20.4 222.8 20.3 223.1 20.3 C 223.3 20.2 223.4 20.3 223.2 20.5 C 223.1 20.6 222.9 20.6 222.9 20.5 Z M 223.5 20.7 C 223.7 20.7 223.8 20.9 223.6 21.1 C 223.5 21.2 223.1 21.1 223.0 21.0 C 223.0 20.9 223.2 20.8 223.5 20.7 Z M 222.4 22.1 C 222.4 22.2 222.2 22.3 222.3 22.1 C 222.4 22.0 222.4 22.0 222.4 22.1 Z M 227.0 16.7 C 227.3 16.5 227.3 16.8 227.2 16.9 C 227.1 17.0 227.0 17.0 226.9 17.0 C 226.8 17.0 226.8 16.8 227.0 16.7 Z M 221.2 22.6 C 220.7 23.1 220.3 23.2 220.7 22.4 C 221.1 21.9 221.3 22.5 221.2 22.6 Z M 219.2 23.5 C 219.5 23.3 219.6 23.4 219.4 23.5 C 219.1 23.6 219.7 23.7 219.2 23.8 C 218.8 23.9 218.8 23.6 219.2 23.5 Z M 220.1 22.0 C 220.6 21.7 220.4 22.5 219.8 22.5 C 219.3 22.6 219.6 22.3 220.1 22.0 Z M 220.3 21.1 C 220.5 21.0 220.6 21.0 220.6 21.1 C 220.5 21.3 220.2 21.2 220.3 21.1 Z M 219.3 22.4 C 219.4 22.3 219.5 22.3 219.5 22.4 C 219.4 22.6 219.2 22.6 219.3 22.4 Z M 226.3 17.6 C 226.3 17.7 226.1 17.7 226.2 17.5 C 226.3 17.4 226.3 17.4 226.3 17.6 Z M 215.1 20.1 C 215.1 20.3 214.9 20.3 215.0 20.2 C 215.1 20.1 215.2 20.0 215.1 20.1 Z M 226.5 16.6 C 226.5 16.6 226.3 16.9 226.3 16.9 C 225.9 17.0 226.5 16.6 226.5 16.6 Z M 217.9 19.5 C 217.9 19.7 217.6 19.6 217.7 19.5 C 217.8 19.3 217.9 19.2 217.9 19.5 Z M 218.2 19.0 C 218.2 19.1 217.9 19.2 218.1 19.0 C 218.1 19.0 218.2 18.9 218.2 19.0 Z M 214.1 25.2 C 214.2 25.1 214.4 25.1 214.3 25.2 C 214.2 25.4 214.0 25.3 214.1 25.2 Z M 208.6 26.8 C 208.3 27.0 207.5 26.3 207.5 26.1 C 207.6 25.8 207.9 24.8 207.8 24.7 C 207.6 24.6 208.2 24.3 208.4 24.2 C 208.5 24.0 209.0 24.1 209.1 24.1 C 209.2 24.1 209.6 23.8 209.6 23.8 C 209.6 23.8 209.7 23.6 210.0 23.4 C 210.3 23.2 210.7 23.2 211.2 23.0 C 211.7 22.9 211.7 22.5 212.0 22.3 C 212.4 22.0 213.1 22.3 213.5 22.2 C 213.9 22.0 213.5 21.6 213.9 21.3 C 214.3 21.0 214.6 20.9 214.5 21.1 C 214.4 21.2 214.6 21.3 214.8 21.2 C 214.9 21.1 215.4 20.9 215.6 20.7 C 215.7 20.5 214.2 21.0 215.7 20.0 C 216.5 19.5 217.6 18.9 217.2 19.7 C 216.8 20.3 218.3 20.0 218.2 19.8 C 218.0 19.5 219.3 18.6 218.7 18.5 C 218.5 18.4 219.6 17.3 219.8 17.3 C 220.1 17.2 220.5 16.7 221.0 16.9 C 221.2 17.0 223.1 16.4 222.7 15.9 C 222.6 15.8 222.6 15.8 222.6 15.7 C 222.8 15.6 223.0 15.7 223.2 15.6 C 223.5 15.4 223.8 15.1 223.7 15.0 C 223.6 14.9 223.4 14.9 223.4 14.8 C 223.4 14.8 223.4 14.6 223.5 14.5 C 223.3 14.3 223.1 13.9 223.1 14.1 C 223.2 14.2 222.5 14.0 222.5 13.9 C 222.4 13.7 222.2 13.5 222.1 13.2 C 222.0 12.9 221.9 13.1 221.8 13.2 C 221.8 13.4 221.5 13.2 221.3 13.0 C 221.1 12.8 220.8 12.7 220.8 12.5 C 220.7 12.2 221.3 12.6 221.4 12.5 C 221.5 12.3 221.2 11.5 221.0 11.5 C 220.5 11.4 219.8 10.2 219.6 10.3 C 219.5 10.5 219.4 10.8 218.9 10.5 C 217.4 9.5 219.6 10.3 219.2 10.0 C 218.0 9.3 218.4 9.5 218.0 9.3 C 217.6 9.0 217.4 8.6 217.4 8.8 C 217.4 9.0 217.2 8.8 217.0 8.5 C 216.7 8.2 216.9 9.2 216.8 9.0 C 216.7 8.8 216.5 8.9 216.2 8.9 C 216.0 8.9 216.2 8.6 215.9 8.4 C 215.4 8.0 215.6 8.6 215.2 8.4 C 214.9 8.3 215.8 8.9 215.2 8.7 C 214.7 8.6 214.2 8.0 214.1 7.9 C 214.0 7.7 215.0 8.3 215.1 8.2 C 215.2 8.1 214.7 7.8 214.8 7.7 C 214.9 7.7 214.3 7.2 214.0 7.0 C 213.7 6.8 213.3 7.0 213.5 7.3 C 213.7 7.6 213.2 7.3 212.9 7.1 C 212.7 7.0 212.7 7.1 212.5 7.1 C 212.2 7.0 212.0 6.9 211.7 6.7 C 211.5 6.5 211.8 6.6 211.8 6.5 C 211.8 6.4 211.5 6.3 211.1 6.3 C 210.6 6.3 211.6 5.7 211.3 5.6 C 210.9 5.5 210.5 5.3 210.1 5.1 C 209.8 4.9 209.8 5.2 209.9 5.3 C 209.9 5.4 209.1 4.8 209.2 4.9 C 209.4 5.1 209.2 5.6 209.1 5.5 C 208.4 5.2 208.9 5.3 208.9 5.0 C 208.8 4.7 207.9 4.4 208.1 4.3 C 208.3 4.2 209.1 4.4 209.1 4.3 C 209.0 4.2 208.5 3.5 208.6 3.5 C 208.7 3.4 209.8 3.4 209.6 3.3 C 209.4 3.2 209.0 2.5 209.2 2.4 C 209.4 2.4 210.1 2.6 210.0 2.5 C 209.5 1.6 211.6 2.2 211.7 2.2 C 211.9 2.2 211.5 2.7 211.9 2.8 C 212.3 2.9 212.5 3.3 212.3 3.3 C 212.3 3.3 212.5 3.3 212.8 3.4 C 213.1 3.5 213.3 3.7 213.6 3.9 C 213.9 4.1 214.2 4.0 214.6 4.1 C 215.0 4.3 215.0 4.8 215.3 5.0 C 215.5 5.2 215.8 4.8 216.2 5.0 C 216.6 5.1 216.7 5.3 216.6 5.3 C 216.4 5.3 216.5 5.5 216.6 5.5 C 216.7 5.6 217.1 5.9 217.3 5.9 C 217.5 6.0 216.5 5.1 218.0 5.8 C 218.7 6.2 218.9 6.9 218.7 6.8 C 218.2 6.6 218.9 7.7 219.0 7.6 C 219.2 7.4 220.4 8.1 220.3 7.6 C 220.3 7.5 221.6 8.1 221.7 8.3 C 221.9 8.5 222.5 8.7 222.4 9.2 C 222.4 9.4 223.4 9.4 223.5 9.5 C 223.7 9.6 224.6 10.3 224.8 10.6 C 224.9 10.8 224.5 10.5 224.2 10.3 C 224.0 10.2 223.8 9.8 223.6 9.7 C 223.4 9.6 223.7 10.1 223.9 10.2 C 224.2 10.5 224.1 10.7 224.3 10.9 C 224.5 11.1 224.9 11.3 225.0 11.2 C 225.0 11.1 224.9 10.9 225.0 10.9 C 225.1 10.9 225.3 10.9 225.6 11.1 C 225.9 11.3 226.1 11.6 226.4 12.0 C 226.7 12.4 226.9 12.4 227.2 12.5 C 227.5 12.7 227.7 13.0 227.7 13.1 C 227.6 13.1 227.3 12.9 227.2 13.0 C 227.1 13.0 227.3 13.3 227.4 13.4 C 227.5 13.6 228.0 14.4 228.1 14.5 C 228.1 14.6 228.0 14.7 227.9 14.8 L 228.0 15.1 C 227.9 15.3 228.2 16.5 228.4 16.4 C 228.6 16.3 228.6 16.4 228.6 16.7 C 228.6 17.0 228.3 16.9 228.1 16.9 C 228.0 16.9 228.2 17.2 228.1 17.2 C 228.0 17.2 227.7 16.8 227.7 17.1 C 227.7 17.4 227.5 17.8 227.3 17.7 C 227.1 17.7 227.3 17.3 227.4 17.1 C 227.8 16.2 227.8 16.3 227.5 16.4 C 227.2 16.4 227.2 16.3 227.0 16.3 C 226.9 16.3 226.4 16.5 226.5 16.4 L 226.4 16.4 C 226.4 16.4 226.3 16.3 226.1 16.2 C 226.1 16.2 226.1 16.2 226.0 16.2 C 225.9 16.2 225.7 16.5 225.7 16.8 C 225.7 17.0 225.9 17.1 226.1 17.2 C 226.3 17.3 225.9 17.5 225.7 17.7 C 225.5 17.8 225.6 17.9 225.9 18.0 C 226.2 18.0 226.2 17.9 226.5 17.8 C 226.7 17.7 226.7 17.9 226.8 18.0 C 226.8 18.1 226.1 18.4 226.2 18.4 C 226.4 18.4 226.1 19.1 225.9 19.1 C 225.8 19.1 225.5 19.2 225.2 19.2 C 224.9 19.3 225.0 19.4 225.2 19.6 C 225.3 19.7 225.1 20.0 224.9 20.1 C 224.6 20.3 224.4 20.5 224.1 20.4 C 223.9 20.3 224.4 19.9 224.3 19.7 C 224.1 19.4 223.2 19.4 223.1 19.6 C 222.9 20.1 221.3 20.9 221.4 21.1 C 221.6 21.3 223.7 20.4 221.6 21.8 C 221.0 22.2 221.1 20.3 220.6 20.7 C 219.5 21.6 220.2 21.5 219.8 21.8 C 219.4 22.1 218.9 22.1 219.1 22.2 C 219.3 22.3 219.0 22.4 218.5 22.5 C 218.1 22.6 219.4 22.9 219.1 23.0 C 218.8 23.0 218.9 23.2 218.8 23.5 C 218.7 23.8 218.5 23.4 218.0 23.6 C 217.4 23.8 218.2 24.0 217.9 24.3 C 217.7 24.6 218.7 24.0 218.3 24.5 C 217.9 25.0 217.0 25.1 216.8 25.1 C 216.5 25.1 217.6 23.9 216.9 24.3 C 216.8 24.4 216.5 24.2 216.4 24.1 C 216.4 23.9 215.4 24.4 215.1 24.6 C 214.7 24.8 215.3 25.3 215.7 25.3 C 216.2 25.3 215.7 25.7 215.3 25.8 C 215.0 25.9 215.2 26.0 215.0 26.2 C 214.8 26.4 214.6 26.6 214.2 26.7 C 213.8 26.8 214.0 26.5 213.9 26.5 C 213.7 26.4 213.2 26.7 213.0 27.2 C 212.8 27.6 213.0 26.4 212.6 26.6 C 212.2 26.8 211.5 26.9 211.0 27.0 C 210.5 27.2 211.0 27.3 211.1 27.4 C 211.3 27.5 210.0 27.7 210.3 27.7 C 210.6 27.7 211.3 28.2 211.0 28.3 C 210.2 28.6 210.6 28.3 210.2 28.1 C 209.7 27.9 208.6 28.4 208.6 28.2 C 208.5 27.9 209.3 27.4 209.1 27.4 C 209.0 27.3 208.2 27.5 208.2 27.4 C 208.2 27.3 208.9 26.7 208.6 26.8 Z M 212.0 3.7 C 211.9 3.5 211.5 3.4 211.7 3.3 C 211.9 3.3 211.8 3.3 211.7 3.2 C 211.5 3.0 211.5 3.3 211.6 3.4 C 211.6 3.6 212.2 3.9 212.0 3.7 Z M 213.3 6.2 C 213.0 6.0 212.0 6.0 211.9 6.2 C 211.8 6.4 212.2 6.5 212.5 6.8 C 212.7 7.0 213.6 6.5 213.3 6.2 Z M 213.8 4.5 C 213.5 4.4 213.3 4.4 213.5 4.7 C 213.8 4.9 213.6 4.5 213.8 4.7 C 214.0 4.8 214.1 4.7 213.8 4.5 Z M 214.6 4.3 C 214.5 4.2 214.2 4.2 214.3 4.3 C 214.4 4.4 214.7 4.5 214.6 4.3 Z M 215.9 8.1 C 215.7 7.9 215.4 7.7 215.6 7.7 C 215.8 7.7 215.7 7.7 215.5 7.5 C 215.3 7.3 215.4 7.7 215.4 7.8 C 215.4 8.0 216.0 8.4 215.9 8.1 Z M 216.3 5.7 C 216.2 5.7 216.5 5.8 216.5 5.8 C 216.5 5.7 216.4 5.6 216.3 5.7 Z M 216.5 7.6 C 216.2 7.5 216.5 7.8 216.6 7.8 C 216.6 7.8 216.8 7.6 216.5 7.6 Z M 218.1 8.2 C 217.6 7.9 217.7 8.1 217.7 8.2 C 217.8 8.3 217.2 8.3 217.7 8.4 C 218.2 8.6 218.3 9.1 218.7 9.0 C 219.3 8.9 218.5 8.4 218.1 8.2 Z M 218.8 9.5 C 218.7 9.4 218.7 9.7 218.9 9.7 C 219.0 9.7 219.0 9.6 218.8 9.5 Z M 220.4 9.3 C 220.3 9.3 220.3 9.4 220.4 9.4 C 220.6 9.4 220.6 9.4 220.4 9.3 Z M 221.1 8.2 C 221.2 8.3 221.5 8.4 221.5 8.4 C 221.5 8.4 220.9 7.9 221.1 8.2 Z M 221.8 12.7 C 222.3 13.3 222.7 13.4 222.5 13.1 C 222.4 12.8 222.8 13.1 222.4 12.5 C 222.2 12.1 221.3 12.0 221.8 12.7 Z M 222.4 9.6 C 222.3 9.4 222.1 9.3 222.1 9.5 C 222.2 9.7 222.4 9.8 222.4 9.6 Z M 222.6 11.6 C 222.5 11.2 222.4 11.4 222.4 11.6 C 222.3 11.8 222.1 11.2 222.1 11.6 C 222.0 11.7 222.5 12.2 222.6 12.2 C 222.7 12.1 222.8 12.0 222.6 11.6 Z M 223.4 16.9 C 223.3 17.0 223.5 17.1 223.5 16.9 C 223.6 16.7 223.5 16.8 223.4 16.9 Z M 223.4 11.3 C 223.2 11.2 223.2 11.4 223.4 11.4 C 223.5 11.5 223.5 11.3 223.4 11.3 Z M 223.7 13.0 C 223.6 12.9 223.7 12.8 223.5 12.6 C 223.3 12.5 223.4 13.2 223.7 13.2 C 223.9 13.2 223.8 13.0 223.7 13.0 Z M 224.3 13.4 C 224.1 13.4 224.1 13.7 224.1 13.8 C 224.0 14.0 223.7 13.6 223.5 13.5 C 223.3 13.3 223.3 13.5 223.4 13.7 C 223.4 14.0 223.6 14.0 223.7 14.2 C 223.7 14.2 223.7 14.2 223.7 14.3 C 223.9 14.1 224.1 14.0 224.3 13.8 C 224.3 13.8 224.3 13.8 224.4 13.8 C 224.5 13.8 224.6 13.7 224.7 13.6 C 224.7 13.6 224.8 13.6 224.8 13.6 C 224.7 13.5 224.4 13.3 224.3 13.4 Z M 224.4 15.5 C 224.7 15.4 224.4 15.3 224.4 15.3 C 224.3 15.2 224.3 15.2 224.2 15.2 C 224.0 15.4 224.0 15.6 224.4 15.5 Z M 225.1 11.8 C 224.8 11.5 224.6 11.6 224.8 11.9 C 225.1 12.3 224.9 11.8 225.1 12.0 C 225.3 12.2 225.3 12.1 225.1 11.8 Z M 225.4 17.4 C 225.4 17.1 225.2 17.1 225.2 17.3 C 225.1 17.4 225.0 17.1 224.8 17.3 C 224.7 17.5 225.4 17.8 225.4 17.4 Z M 224.5 19.3 C 225.3 19.1 225.5 18.7 225.1 18.7 C 224.8 18.7 225.2 18.3 224.5 18.5 C 224.1 18.6 223.8 19.6 224.5 19.3 Z M 223.4 18.5 C 223.6 18.6 224.2 18.3 224.2 18.2 C 224.1 18.0 224.0 17.9 223.6 17.8 C 223.2 17.8 223.3 18.0 223.5 18.1 C 223.7 18.3 223.0 18.2 223.4 18.5 Z M 221.3 17.4 C 221.5 17.4 221.6 17.2 221.4 17.2 C 221.2 17.2 221.1 17.4 221.3 17.4 Z M 220.7 19.2 C 220.8 19.1 220.7 19.1 220.6 19.2 C 220.5 19.4 220.7 19.4 220.7 19.2 Z M 221.8 17.8 C 221.8 17.8 220.7 17.9 220.8 18.3 C 220.8 18.4 221.8 17.8 221.8 17.8 Z M 218.5 21.5 C 218.6 21.5 218.4 22.1 218.7 21.7 C 219.0 21.3 219.7 21.4 219.7 20.9 C 219.8 20.3 219.0 20.8 218.6 21.1 C 218.1 21.5 218.3 21.5 218.5 21.5 Z M 217.3 22.4 C 217.0 22.7 217.5 22.6 217.5 22.5 C 217.6 22.4 217.4 22.2 217.3 22.4 Z M 217.1 23.7 C 217.3 23.8 218.1 23.4 217.7 23.4 C 217.4 23.4 217.0 23.7 217.1 23.5 C 217.2 23.3 217.1 23.3 216.8 23.4 C 216.5 23.5 216.9 23.7 217.1 23.7 Z M 215.0 21.4 C 214.9 21.3 214.8 21.4 214.8 21.5 C 214.8 21.7 215.1 21.5 215.0 21.4 Z M 213.5 26.2 C 213.7 26.4 214.2 26.1 214.6 26.0 C 215.0 25.9 214.6 24.7 214.2 24.9 C 213.7 25.0 213.3 26.0 213.5 26.2 Z M 212.3 22.4 C 212.1 22.4 212.0 22.6 212.1 22.6 C 212.2 22.6 212.6 22.4 212.3 22.4 Z M 212.2 23.6 C 212.6 23.4 212.0 23.4 212.3 23.3 C 212.6 23.2 212.5 23.1 212.1 23.2 C 211.8 23.4 211.7 23.7 212.2 23.6 Z M 209.3 24.6 C 209.5 24.6 210.3 24.3 210.0 24.3 C 209.6 24.3 209.2 24.5 209.3 24.3 C 209.4 24.1 209.3 24.2 209.0 24.3 C 208.7 24.3 209.1 24.5 209.3 24.6 Z M 214.2 25.9 C 214.1 26.2 213.7 26.0 213.9 25.9 C 214.1 25.7 214.3 25.7 214.2 25.9 Z M 219.5 20.8 C 219.5 20.9 219.2 21.0 219.3 20.9 C 219.4 20.8 219.5 20.7 219.5 20.8 Z M 217.3 9.0 C 217.5 9.1 217.5 9.2 217.4 9.1 C 217.2 9.1 217.2 9.0 217.3 9.0 Z M 220.0 12.1 C 219.9 12.0 219.8 11.7 219.9 11.6 C 220.0 11.6 220.1 11.7 220.3 11.9 C 220.4 12.1 220.3 12.2 220.0 12.1 Z M 220.4 11.4 C 220.5 11.5 220.5 11.5 220.4 11.5 C 220.3 11.5 220.2 11.3 220.4 11.4 Z M 219.8 10.6 C 220.0 10.7 220.0 10.8 219.8 10.8 C 219.6 10.8 219.5 10.5 219.8 10.6 Z M 220.9 11.7 C 221.1 11.9 221.0 12.0 220.8 11.9 C 220.7 11.8 220.6 11.6 220.7 11.6 C 220.7 11.6 220.8 11.5 220.9 11.7 Z M 217.6 5.5 C 217.5 5.5 217.4 5.4 217.6 5.4 C 217.6 5.4 217.7 5.4 217.6 5.5 Z M 219.7 7.4 C 219.6 7.4 219.5 7.2 219.6 7.3 C 219.7 7.3 219.8 7.3 219.7 7.4 Z M 208.7 2.6 C 208.5 2.7 208.3 2.3 208.4 2.4 C 208.5 2.4 208.8 2.6 208.7 2.6 Z M 208.4 3.9 C 208.2 3.9 208.1 3.8 208.3 3.8 C 208.5 3.8 208.6 3.9 208.4 3.9 Z M 223.9 14.0 C 223.7 14.0 223.7 13.9 223.8 13.9 C 224.0 14.0 224.0 14.1 223.9 14.0 Z M 219.2 7.3 C 219.0 7.4 218.9 7.1 219.1 7.1 C 219.3 7.2 219.4 7.2 219.2 7.3 Z M 217.9 10.1 C 218.4 10.2 218.1 10.5 217.9 10.5 C 217.3 10.2 217.0 9.9 217.9 10.1 Z M 215.8 8.6 C 216.0 8.7 216.0 8.8 215.9 8.7 C 215.8 8.7 215.7 8.6 215.8 8.6 Z M 218.7 8.8 C 218.6 8.9 218.4 8.6 218.6 8.7 C 218.7 8.7 218.8 8.8 218.7 8.8 Z M 216.4 9.1 C 216.7 9.4 216.7 9.5 216.4 9.3 C 216.2 9.1 216.4 9.5 216.2 9.2 C 215.9 9.0 216.2 8.9 216.4 9.1 Z M 217.4 9.4 C 217.2 9.1 217.6 9.2 218.0 9.5 C 218.4 9.8 217.7 9.8 217.4 9.4 Z M 228.1 14.5 C 228.1 14.5 228.1 14.5 228.1 14.5 C 228.1 14.5 228.1 14.5 228.1 14.5 Z M 210.2 5.7 C 210.5 5.7 210.4 5.9 210.2 5.9 C 210.1 5.9 209.7 5.6 210.2 5.7 Z M 213.0 6.4 C 212.8 6.4 212.8 6.3 212.9 6.3 C 213.0 6.3 213.1 6.4 213.0 6.4 Z M 212.4 6.5 C 212.1 6.5 212.1 6.3 212.3 6.3 C 212.5 6.4 212.6 6.5 212.4 6.5 Z M 210.4 5.6 C 210.4 5.5 210.5 5.5 210.6 5.5 C 210.6 5.6 210.5 5.7 210.4 5.6 Z M 214.4 7.5 C 214.8 7.8 214.2 7.8 213.9 7.4 C 213.6 7.1 214.0 7.2 214.4 7.5 Z M 214.4 7.5 " fill="#FDCA55"></path></g></svg>