<?xml version="1.0" encoding="UTF-8" standalone="no"?><svg xmlns="http://www.w3.org/2000/svg" xmlns:xlink="http://www.w3.org/1999/xlink" clip-rule="evenodd" stroke-miterlimit="4.00" viewBox="0 0 197 33"><desc>SVG generated by Keynote</desc><defs></defs><g transform="matrix(1.00, 0.00, -0.00, -1.00, 0.0, 33.0)"><path d="M 6.3 3.6 C 6.0 3.6 6.1 3.1 5.6 2.6 C 5.1 2.2 4.5 1.8 4.4 2.1 C 4.4 2.5 4.5 2.7 4.0 2.9 C 3.5 3.1 2.8 3.5 3.1 4.0 C 3.3 4.4 4.5 5.9 5.2 5.9 C 5.9 5.8 6.1 5.8 6.6 5.8 C 7.1 5.8 6.4 6.3 6.4 6.3 C 6.4 6.3 7.2 6.9 7.8 7.3 C 8.4 7.7 9.1 8.1 9.2 8.0 C 9.4 7.9 9.7 7.8 9.7 7.8 C 9.7 7.8 9.9 8.3 10.3 8.6 C 10.7 8.9 10.7 8.7 10.7 8.5 C 10.7 8.2 10.4 7.5 10.6 7.6 C 10.8 7.7 11.0 8.7 11.3 9.0 C 11.6 9.2 12.3 9.5 12.3 9.5 C 12.3 9.5 12.5 9.1 12.6 9.0 C 12.7 9.0 13.4 9.3 13.4 9.5 C 13.4 9.6 13.1 10.0 13.4 10.2 C 14.5 10.9 14.8 10.0 14.9 10.1 C 15.0 10.1 14.7 10.7 14.9 10.9 C 15.1 11.1 17.4 12.2 17.6 12.1 C 17.8 12.0 18.3 12.9 18.8 12.7 C 19.3 12.4 19.4 12.4 19.5 12.3 C 19.7 12.2 20.4 11.8 20.5 12.1 C 20.6 12.5 19.4 12.8 19.5 13.1 C 19.7 13.4 21.1 14.1 21.4 14.0 C 21.9 13.9 22.2 13.3 22.4 13.4 C 22.6 13.5 23.1 14.6 23.2 14.6 C 23.3 14.5 23.7 13.9 23.8 13.7 C 23.8 13.6 24.6 12.6 24.5 12.4 C 24.4 12.1 23.8 11.3 23.7 11.7 C 23.7 12.1 23.7 12.6 23.3 12.6 C 23.0 12.6 22.8 12.6 22.8 12.4 C 22.8 12.3 23.0 12.2 22.6 11.7 C 22.2 11.3 22.6 11.2 22.1 11.0 C 21.7 10.8 21.2 10.7 21.1 10.9 C 21.1 11.2 20.4 11.3 20.1 11.2 C 19.8 11.0 20.6 10.7 19.7 10.0 C 18.7 9.3 18.1 8.9 17.7 9.0 C 17.3 9.0 16.9 9.7 16.6 9.1 C 16.2 8.6 16.6 8.6 15.9 8.2 C 15.3 7.9 14.7 8.3 14.3 8.1 C 13.9 7.9 13.8 7.8 13.8 7.8 C 13.8 7.8 14.4 7.2 13.4 6.7 C 12.5 6.2 12.4 6.0 12.3 6.6 C 12.2 7.3 11.5 6.9 11.6 6.6 C 11.8 6.2 11.3 5.7 11.0 5.4 C 10.7 5.2 10.2 6.1 10.0 6.0 C 9.9 6.0 9.5 5.7 9.8 5.5 C 10.1 5.3 9.8 5.1 9.6 4.8 C 9.3 4.5 8.4 4.1 8.4 4.3 C 8.3 4.4 8.4 5.3 8.0 4.6 C 7.5 4.0 7.6 3.5 7.1 3.2 C 6.5 2.9 6.7 3.7 6.3 3.6 C 6.3 3.6 6.3 3.6 6.3 3.6 Z M 25.0 12.2 C 23.9 11.8 23.5 14.5 23.7 15.2 C 23.9 15.9 24.7 15.8 25.4 16.2 C 26.0 16.6 26.1 15.8 26.6 15.7 C 27.1 15.6 26.8 16.1 26.8 16.5 C 26.8 17.0 28.0 17.1 28.7 17.4 C 29.3 17.7 30.3 17.1 30.8 17.3 C 31.3 17.4 30.5 16.7 31.4 17.1 C 32.3 17.5 31.7 17.8 30.5 17.6 C 29.4 17.4 30.8 18.2 31.3 18.6 C 31.9 18.9 33.0 18.9 33.4 19.1 C 33.9 19.3 33.5 18.5 34.2 18.7 C 34.9 19.0 34.3 19.5 34.9 19.9 C 35.6 20.2 35.7 19.6 36.1 19.6 C 36.5 19.6 36.3 19.9 36.6 20.1 C 36.9 20.2 37.3 20.6 37.9 20.6 C 38.6 20.7 38.5 20.5 38.8 20.5 C 39.1 20.6 39.7 20.8 39.7 20.8 C 39.6 21.0 39.6 21.2 39.6 21.5 C 39.6 21.5 40.7 21.9 41.1 22.1 C 41.4 22.2 42.3 22.2 42.1 22.0 C 41.9 21.8 42.9 21.6 43.0 21.8 C 43.2 21.9 43.7 22.4 44.0 22.7 C 44.4 23.0 44.8 21.3 44.8 21.1 C 44.9 20.8 45.4 20.0 45.1 19.8 C 44.8 19.6 44.4 19.8 44.5 19.6 C 44.7 19.4 43.5 19.3 43.3 19.2 C 43.0 19.1 42.4 19.6 42.4 19.6 C 42.4 19.6 42.0 20.0 41.5 19.9 C 41.0 19.7 41.2 18.7 41.2 18.7 C 41.2 18.7 40.7 18.3 40.1 18.1 C 39.5 18.0 38.6 18.6 38.4 18.7 C 38.2 18.9 38.5 18.1 38.2 17.9 C 37.8 17.6 37.3 17.2 37.1 17.2 C 36.9 17.2 36.4 17.6 36.4 17.6 C 36.4 17.6 35.6 17.6 35.4 17.5 C 35.2 17.5 35.8 16.8 35.8 16.8 C 35.8 16.8 34.3 16.0 34.0 15.9 C 33.7 15.7 33.2 15.7 32.9 15.6 C 32.7 15.6 32.0 16.4 31.7 16.2 C 31.4 15.9 32.2 15.7 31.9 15.5 C 31.6 15.3 31.1 14.8 30.9 14.8 C 30.7 14.7 30.4 14.9 30.1 14.9 C 29.8 14.8 29.1 15.3 28.6 15.1 C 28.2 14.9 28.1 14.4 28.0 14.3 C 27.9 14.1 28.0 13.5 27.7 13.3 C 27.3 13.1 27.4 13.6 27.0 13.5 C 26.7 13.3 26.5 13.8 26.2 13.6 C 25.9 13.3 26.4 12.7 26.0 12.6 C 25.8 12.6 26.0 12.6 25.0 12.2 C 25.0 12.2 25.0 12.2 25.0 12.2 Z M 45.9 20.2 C 45.6 19.7 45.0 20.0 44.9 20.3 C 44.9 20.7 44.8 21.7 44.5 21.9 C 44.2 22.1 43.4 22.6 44.3 23.0 C 45.1 23.4 45.4 23.2 45.5 23.0 C 45.5 22.7 46.0 21.8 46.2 22.0 C 46.4 22.1 46.6 22.5 46.6 22.6 C 46.6 22.8 46.7 23.8 47.2 23.8 C 47.6 23.8 48.1 23.6 48.1 23.6 C 48.3 23.7 48.6 23.7 48.8 23.8 C 48.8 23.8 49.2 24.5 49.7 24.5 C 50.3 24.5 50.8 24.7 51.1 24.8 C 51.5 25.0 51.9 25.0 52.0 24.8 C 52.1 24.6 52.8 23.9 52.8 23.9 C 52.8 23.9 53.4 23.8 53.6 24.0 C 53.8 24.2 53.7 24.6 53.6 24.8 C 53.5 25.0 53.5 25.4 53.8 25.6 C 54.2 25.8 55.6 26.6 55.9 26.4 C 56.2 26.2 56.3 25.8 56.5 25.8 C 56.7 25.7 57.7 25.9 57.7 26.2 C 57.8 26.4 57.6 26.9 57.9 26.9 C 58.2 26.9 58.8 27.2 58.8 27.1 C 58.9 26.9 59.1 26.8 59.2 26.6 C 59.3 26.3 59.9 26.2 60.0 26.1 C 60.2 26.0 60.7 26.0 60.7 26.0 C 60.9 26.2 61.0 26.4 61.2 26.6 C 61.2 26.6 60.7 27.0 60.5 27.1 C 60.3 27.2 60.6 27.5 60.7 27.6 C 60.9 27.7 62.1 27.8 62.1 27.8 C 62.2 27.5 62.3 27.1 62.4 26.7 C 62.7 26.7 63.0 26.7 63.3 26.7 C 63.3 26.7 62.9 28.0 63.4 28.1 C 64.0 28.2 64.7 28.3 64.7 28.3 C 64.7 28.3 65.3 27.9 65.5 27.9 C 65.6 27.9 65.9 26.7 65.9 26.7 C 65.9 26.2 66.0 25.8 66.0 25.3 C 66.0 25.3 65.4 24.7 65.0 24.8 C 64.7 24.9 64.9 25.5 64.8 25.7 C 64.7 25.9 64.1 26.1 64.1 26.1 C 63.9 25.8 63.7 25.5 63.5 25.1 C 63.5 25.1 63.3 24.9 63.1 24.6 C 62.9 24.3 62.1 24.0 61.9 24.1 C 61.6 24.1 61.3 24.4 60.9 24.5 C 60.6 24.7 60.6 25.1 60.3 24.7 C 60.0 24.3 59.9 23.9 59.7 23.9 C 59.5 23.9 58.7 24.1 58.7 24.1 C 58.4 24.2 58.2 24.2 57.9 24.3 C 57.9 24.3 57.3 24.4 57.3 24.1 C 57.3 23.8 56.0 23.9 56.0 23.9 C 56.0 23.9 56.3 23.1 56.1 22.9 C 55.8 22.7 55.4 22.4 54.9 22.4 C 54.4 22.4 53.8 23.1 53.8 23.1 C 53.7 22.8 53.6 22.6 53.5 22.4 C 53.1 22.2 52.7 22.0 52.2 21.9 C 52.2 21.9 51.2 21.6 51.2 21.8 C 51.2 21.9 51.1 22.6 51.0 22.8 C 50.9 22.9 50.3 23.0 50.3 22.8 C 50.3 22.5 50.0 21.8 50.0 21.8 C 50.0 21.8 49.7 21.3 49.4 21.1 C 49.1 21.0 48.6 21.1 48.4 21.2 C 48.3 21.3 47.7 21.6 47.7 21.6 C 47.6 21.4 47.5 21.2 47.5 20.9 C 47.5 20.9 46.6 21.0 45.9 20.2 C 45.9 20.2 45.9 20.2 45.9 20.2 Z M 66.5 25.0 C 65.5 24.8 65.7 27.5 66.0 28.2 C 66.3 28.8 67.1 28.5 67.8 28.8 C 68.6 29.0 68.4 28.1 68.9 27.9 C 69.4 27.8 69.1 28.3 69.2 28.7 C 69.4 29.1 70.5 28.9 71.2 29.1 C 71.9 29.2 72.7 28.4 73.2 28.5 C 73.8 28.5 72.8 27.9 73.8 28.1 C 74.7 28.3 74.2 28.7 73.1 28.8 C 71.9 29.0 73.4 29.4 74.0 29.6 C 74.6 29.8 75.7 29.5 76.2 29.6 C 76.7 29.7 76.1 29.0 76.8 29.1 C 77.5 29.2 77.1 29.8 77.8 30.0 C 78.5 30.2 78.5 29.5 78.9 29.4 C 79.2 29.3 79.1 29.7 79.4 29.8 C 79.7 29.8 80.2 30.1 80.9 30.0 C 81.6 29.9 81.4 29.7 81.7 29.7 C 82.0 29.7 82.6 29.7 82.6 29.7 C 82.6 29.9 82.6 30.2 82.6 30.4 C 82.6 30.4 83.9 30.6 84.2 30.6 C 84.6 30.7 85.4 30.5 85.2 30.3 C 85.0 30.1 85.9 29.8 86.0 29.9 C 86.2 30.0 86.8 30.4 87.2 30.5 C 87.7 30.7 87.6 29.0 87.6 28.7 C 87.7 28.5 88.0 27.6 87.6 27.5 C 87.2 27.4 86.9 27.7 87.0 27.4 C 87.1 27.2 86.0 27.4 85.7 27.3 C 85.4 27.3 85.0 27.9 85.0 27.9 C 85.0 27.9 84.6 28.4 84.1 28.4 C 83.6 28.4 83.6 27.3 83.6 27.3 C 83.6 27.3 83.0 27.0 82.4 27.0 C 81.8 27.0 81.0 27.9 80.9 28.0 C 80.7 28.2 80.8 27.4 80.4 27.3 C 80.0 27.1 79.4 26.8 79.2 26.8 C 79.1 26.9 78.7 27.4 78.7 27.4 C 78.7 27.4 77.9 27.6 77.7 27.6 C 77.5 27.6 77.9 26.8 77.9 26.8 C 77.9 26.8 76.3 26.4 76.0 26.3 C 75.7 26.2 75.1 26.4 74.9 26.4 C 74.6 26.4 74.1 27.3 73.8 27.2 C 73.4 27.0 74.2 26.6 73.9 26.5 C 73.5 26.3 72.9 26.0 72.7 26.0 C 72.6 26.0 72.3 26.3 72.0 26.3 C 71.7 26.3 71.1 27.0 70.7 26.9 C 70.2 26.8 70.0 26.3 69.9 26.2 C 69.7 26.1 69.7 25.4 69.3 25.4 C 68.9 25.3 69.1 25.8 68.8 25.7 C 68.4 25.6 68.3 26.1 68.0 26.0 C 67.7 25.8 68.0 25.1 67.6 25.1 C 67.4 25.1 67.6 25.1 66.5 25.0 C 66.5 25.0 66.5 25.0 66.5 25.0 Z M 88.5 27.6 C 88.0 27.2 87.5 27.6 87.6 28.0 C 87.6 28.4 87.7 29.4 87.5 29.6 C 87.3 29.9 86.7 30.6 87.6 30.8 C 88.5 30.9 88.7 30.7 88.7 30.4 C 88.7 30.2 89.0 29.2 89.2 29.3 C 89.5 29.4 89.7 29.7 89.7 29.8 C 89.8 30.0 90.1 31.0 90.6 30.9 C 91.0 30.7 91.5 30.5 91.5 30.5 C 91.7 30.5 91.9 30.5 92.2 30.4 C 92.2 30.4 92.8 31.1 93.3 30.9 C 93.8 30.8 94.3 30.8 94.7 30.9 C 95.1 30.9 95.5 30.8 95.5 30.6 C 95.6 30.4 96.1 29.6 96.1 29.6 C 96.1 29.6 96.7 29.3 96.9 29.5 C 97.2 29.6 97.2 30.1 97.2 30.3 C 97.1 30.4 97.2 30.9 97.5 31.0 C 97.9 31.1 99.6 31.6 99.8 31.3 C 100.1 31.0 100.0 30.6 100.2 30.5 C 100.4 30.4 101.4 30.4 101.5 30.6 C 101.6 30.8 101.6 31.3 101.9 31.3 C 102.2 31.2 102.8 31.4 102.8 31.2 C 102.8 31.1 103.0 30.9 103.1 30.7 C 103.1 30.4 103.7 30.1 103.8 30.0 C 103.9 29.8 104.4 29.8 104.4 29.8 C 104.7 29.9 104.9 30.1 105.1 30.2 C 105.1 30.2 104.7 30.7 104.5 30.8 C 104.4 30.9 104.7 31.3 104.9 31.3 C 105.1 31.3 106.3 31.2 106.3 31.2 C 106.3 30.8 106.3 30.4 106.3 30.0 C 106.6 29.9 106.9 29.9 107.2 29.8 C 107.2 29.8 107.1 31.1 107.7 31.1 C 108.2 31.1 108.9 31.0 108.9 31.0 C 108.9 31.0 109.5 30.5 109.7 30.4 C 109.8 30.4 109.8 29.2 109.8 29.2 C 109.7 28.7 109.6 28.2 109.6 27.8 C 109.6 27.8 108.9 27.4 108.5 27.6 C 108.1 27.8 108.5 28.3 108.4 28.5 C 108.4 28.7 107.8 29.0 107.8 29.0 C 107.5 28.7 107.3 28.5 107.0 28.2 C 107.0 28.2 106.8 28.0 106.5 27.8 C 106.2 27.6 105.4 27.5 105.1 27.6 C 104.9 27.7 104.6 28.0 104.3 28.3 C 104.0 28.5 104.1 28.9 103.7 28.6 C 103.3 28.3 103.1 27.9 102.9 27.9 C 102.8 27.9 102.0 28.4 102.0 28.4 C 101.7 28.5 101.5 28.6 101.3 28.8 C 101.3 28.8 100.7 29.0 100.6 28.7 C 100.5 28.4 99.3 28.8 99.3 28.8 C 99.3 28.8 99.4 27.9 99.1 27.8 C 98.8 27.7 98.3 27.5 97.8 27.6 C 97.3 27.8 96.9 28.5 96.9 28.5 C 96.8 28.3 96.6 28.1 96.5 27.9 C 96.0 27.9 95.5 27.8 95.1 27.7 C 95.1 27.7 94.0 27.8 94.0 27.9 C 94.0 28.0 94.1 28.7 94.1 28.9 C 94.0 29.1 93.4 29.3 93.4 29.1 C 93.3 28.9 92.8 28.2 92.8 28.2 C 92.8 28.2 92.4 27.8 92.1 27.7 C 91.8 27.7 91.3 27.9 91.2 28.0 C 91.1 28.1 90.5 28.6 90.5 28.6 C 90.4 28.4 90.3 28.2 90.2 28.0 C 90.2 28.0 89.3 28.3 88.5 27.6 C 88.5 27.6 88.5 27.6 88.5 27.6 Z M 110.0 27.3 C 108.9 27.4 109.8 30.0 110.3 30.6 C 110.7 31.1 111.5 30.7 112.2 30.7 C 113.0 30.8 112.7 29.9 113.1 29.7 C 113.5 29.4 113.4 29.9 113.6 30.3 C 113.9 30.7 115.0 30.2 115.7 30.2 C 116.4 30.2 117.1 29.2 117.6 29.1 C 118.2 29.0 117.1 28.7 118.1 28.7 C 119.1 28.6 118.6 29.2 117.5 29.5 C 116.4 29.9 118.0 30.0 118.7 30.0 C 119.3 30.1 120.4 29.6 120.9 29.5 C 121.4 29.5 120.7 28.9 121.4 28.9 C 122.1 28.8 121.8 29.5 122.6 29.5 C 123.4 29.5 123.2 28.9 123.6 28.7 C 123.9 28.5 123.9 28.9 124.2 28.9 C 124.5 28.9 125.1 29.1 125.7 28.8 C 126.4 28.6 126.2 28.4 126.5 28.3 C 126.8 28.2 127.4 28.1 127.4 28.1 C 127.5 28.3 127.6 28.6 127.6 28.8 C 127.6 28.8 128.9 28.6 129.3 28.6 C 129.7 28.6 130.5 28.2 130.3 28.1 C 130.0 28.0 130.8 27.4 131.0 27.5 C 131.2 27.5 131.9 27.8 132.4 27.8 C 132.9 27.9 132.4 26.2 132.4 26.0 C 132.4 25.7 132.5 24.8 132.1 24.7 C 131.7 24.7 131.4 25.1 131.4 24.9 C 131.4 24.6 130.3 25.0 130.0 25.1 C 129.7 25.1 129.4 25.8 129.4 25.8 C 129.4 25.8 129.2 26.4 128.7 26.5 C 128.2 26.6 127.8 25.5 127.8 25.5 C 127.8 25.5 127.2 25.4 126.6 25.6 C 126.0 25.7 125.4 26.7 125.3 26.9 C 125.2 27.1 125.1 26.3 124.6 26.3 C 124.2 26.2 123.5 26.1 123.3 26.1 C 123.1 26.2 122.9 26.8 122.9 26.8 C 122.9 26.8 122.1 27.2 121.9 27.2 C 121.7 27.3 122.0 26.4 122.0 26.4 C 122.0 26.4 120.2 26.4 119.9 26.4 C 119.5 26.4 119.0 26.6 118.8 26.7 C 118.5 26.8 118.3 27.8 117.9 27.8 C 117.5 27.7 118.2 27.1 117.8 27.0 C 117.4 27.0 116.7 26.8 116.5 26.9 C 116.3 26.9 116.1 27.2 115.8 27.3 C 115.5 27.4 115.1 28.2 114.6 28.2 C 114.1 28.3 113.8 27.8 113.7 27.8 C 113.5 27.7 113.3 27.1 112.9 27.0 C 112.5 27.1 112.8 27.5 112.4 27.5 C 112.1 27.5 112.1 28.0 111.7 28.0 C 111.3 27.9 111.5 27.1 111.1 27.2 C 110.9 27.3 111.1 27.2 110.0 27.3 C 110.0 27.3 110.0 27.3 110.0 27.3 Z M 134.6 25.1 C 134.4 25.2 134.1 24.8 133.5 24.7 C 132.8 24.7 132.0 24.8 132.2 25.1 C 132.4 25.3 132.7 25.5 132.4 26.0 C 132.2 26.4 131.9 27.2 132.4 27.4 C 132.9 27.5 134.8 27.9 135.3 27.5 C 135.8 27.0 135.9 26.8 136.3 26.5 C 136.7 26.2 136.5 27.0 136.5 27.0 C 136.5 27.0 137.5 26.9 138.2 26.8 C 138.9 26.7 139.8 26.6 139.8 26.4 C 139.9 26.3 140.1 26.0 140.1 26.0 C 140.1 26.0 140.5 26.3 141.1 26.2 C 141.6 26.2 141.4 26.0 141.3 25.8 C 141.1 25.7 140.4 25.3 140.6 25.3 C 140.9 25.2 141.7 25.8 142.1 25.8 C 142.5 25.8 143.3 25.6 143.3 25.6 C 143.3 25.6 143.1 25.2 143.2 25.0 C 143.2 24.9 144.0 24.7 144.1 24.8 C 144.2 25.0 144.2 25.5 144.6 25.4 C 146.0 25.2 145.6 24.4 145.7 24.3 C 145.8 24.3 145.9 24.9 146.3 25.0 C 146.6 25.0 149.1 24.3 149.2 24.1 C 149.3 23.9 150.3 24.2 150.6 23.7 C 150.9 23.2 150.9 23.1 151.0 23.0 C 151.0 22.8 151.4 22.1 151.7 22.2 C 151.9 22.4 151.2 23.4 151.5 23.6 C 151.9 23.7 153.5 23.3 153.7 23.0 C 154.0 22.6 153.9 22.0 154.2 21.9 C 154.4 21.9 155.5 22.4 155.6 22.3 C 155.6 22.1 155.5 21.4 155.5 21.3 C 155.5 21.2 155.4 19.9 155.2 19.8 C 154.9 19.7 153.9 19.5 154.1 19.8 C 154.3 20.1 154.6 20.5 154.3 20.7 C 154.1 20.9 153.9 21.0 153.8 20.9 C 153.6 20.8 153.8 20.6 153.2 20.5 C 152.5 20.5 152.8 20.1 152.2 20.3 C 151.7 20.4 151.3 20.6 151.4 20.9 C 151.5 21.1 151.1 21.7 150.7 21.7 C 150.3 21.8 150.8 21.1 149.5 21.1 C 148.3 21.2 147.5 21.3 147.3 21.6 C 147.0 22.0 147.1 22.7 146.4 22.5 C 145.8 22.3 146.1 22.1 145.3 22.3 C 144.6 22.5 144.4 23.1 143.9 23.2 C 143.5 23.4 143.3 23.4 143.3 23.4 C 143.3 23.4 143.4 22.5 142.3 22.7 C 141.2 22.9 141.0 22.9 141.3 23.4 C 141.7 24.0 140.9 24.2 140.8 23.8 C 140.6 23.4 139.9 23.3 139.6 23.3 C 139.2 23.3 139.3 24.4 139.1 24.4 C 139.0 24.5 138.5 24.5 138.6 24.1 C 138.8 23.8 138.3 23.8 138.0 23.8 C 137.6 23.7 136.6 24.0 136.7 24.2 C 136.7 24.3 137.3 24.9 136.6 24.7 C 135.9 24.5 135.6 24.0 135.0 24.2 C 134.4 24.3 135.0 24.8 134.6 25.1 C 134.6 25.1 134.6 25.1 134.6 25.1 Z M 156.0 19.3 C 155.4 19.1 155.0 19.7 155.2 20.0 C 155.3 20.4 155.8 21.2 155.7 21.6 C 155.6 21.9 155.1 22.7 156.1 22.6 C 157.1 22.5 157.3 22.1 157.2 21.9 C 157.1 21.7 157.1 20.6 157.4 20.7 C 157.6 20.7 158.0 20.9 158.1 21.0 C 158.2 21.1 158.8 21.9 159.3 21.6 C 159.7 21.4 160.1 20.9 160.1 20.9 C 160.3 20.9 160.6 20.8 160.8 20.7 C 160.8 20.7 161.7 21.1 162.1 20.8 C 162.6 20.5 163.2 20.3 163.7 20.2 C 164.1 20.1 164.4 19.9 164.4 19.7 C 164.4 19.4 164.7 18.4 164.7 18.4 C 164.7 18.4 165.2 18.0 165.5 18.1 C 165.9 18.1 166.1 18.5 166.1 18.7 C 166.1 18.9 166.3 19.3 166.7 19.3 C 167.1 19.3 169.0 19.1 169.2 18.8 C 169.4 18.4 169.2 18.1 169.3 17.9 C 169.5 17.8 170.7 17.3 170.8 17.5 C 171.0 17.7 171.1 18.2 171.4 18.0 C 171.7 17.9 172.5 17.8 172.4 17.6 C 172.4 17.5 172.5 17.3 172.5 17.0 C 172.4 16.8 173.0 16.3 173.1 16.1 C 173.2 15.9 173.7 15.7 173.7 15.7 C 174.0 15.8 174.2 15.8 174.5 15.9 C 174.5 15.9 174.3 16.5 174.1 16.7 C 174.0 16.8 174.4 17.0 174.6 17.0 C 174.8 17.0 176.1 16.4 176.1 16.4 C 176.0 16.0 175.9 15.7 175.8 15.3 C 176.0 15.1 176.3 14.9 176.6 14.7 C 176.6 14.7 176.9 16.0 177.6 15.8 C 178.2 15.6 178.9 15.3 178.9 15.3 C 178.9 15.3 179.4 14.6 179.5 14.5 C 179.6 14.4 179.3 13.2 179.3 13.2 C 179.1 12.8 178.8 12.4 178.6 12.0 C 178.6 12.0 177.7 11.8 177.4 12.2 C 177.1 12.5 177.6 12.8 177.6 13.1 C 177.6 13.3 177.1 13.8 177.1 13.8 C 176.7 13.6 176.4 13.5 176.0 13.3 C 176.0 13.3 175.7 13.2 175.3 13.1 C 175.0 13.0 174.0 13.2 173.7 13.4 C 173.5 13.6 173.4 14.0 173.1 14.3 C 172.8 14.6 173.1 15.0 172.5 14.8 C 172.0 14.7 171.7 14.4 171.5 14.5 C 171.3 14.5 170.6 15.3 170.6 15.3 C 170.4 15.5 170.2 15.7 170.0 15.8 C 170.0 15.8 169.4 16.3 169.2 16.1 C 169.1 15.8 167.8 16.6 167.8 16.6 C 167.8 16.6 167.7 15.7 167.3 15.7 C 167.0 15.7 166.4 15.7 165.9 16.0 C 165.4 16.3 165.3 17.2 165.3 17.2 C 165.0 17.1 164.8 16.9 164.6 16.8 C 164.1 16.9 163.6 17.0 163.0 17.1 C 163.0 17.1 161.9 17.5 162.0 17.6 C 162.0 17.7 162.3 18.4 162.3 18.6 C 162.3 18.8 161.8 19.2 161.7 19.0 C 161.5 18.8 160.8 18.3 160.8 18.3 C 160.8 18.3 160.2 18.1 159.9 18.1 C 159.5 18.2 159.1 18.6 159.0 18.7 C 158.9 18.9 158.5 19.5 158.5 19.5 C 158.3 19.4 158.1 19.2 157.9 19.0 C 157.9 19.0 157.1 19.6 156.0 19.3 C 156.0 19.3 156.0 19.3 156.0 19.3 Z M 156.0 19.3 " fill="#34A4DA"></path><path d="M 176.6 12.5 C 176.3 12.9 176.9 13.8 177.1 13.8 C 177.4 13.8 177.4 14.8 177.8 14.8 C 178.2 14.7 178.3 14.7 178.1 14.6 C 178.0 14.5 178.4 14.6 178.8 14.4 C 179.2 14.2 178.5 14.8 179.6 14.3 C 180.0 14.1 179.7 14.6 180.3 14.4 C 180.8 14.2 180.4 13.9 180.3 13.7 C 180.3 13.5 181.6 13.5 181.8 13.2 C 182.0 13.0 182.7 13.2 182.8 13.4 C 182.9 13.6 182.4 13.8 182.6 14.0 C 182.8 14.1 183.0 13.9 183.2 13.8 C 183.5 13.8 183.7 13.6 183.6 13.5 C 183.5 13.3 183.4 13.2 183.6 13.2 C 183.9 13.3 184.2 13.2 184.3 13.3 C 184.4 13.3 184.8 12.8 184.7 12.8 C 184.5 12.8 185.2 12.7 185.2 12.6 C 185.2 12.4 185.2 12.4 185.0 12.4 C 184.7 12.4 184.7 12.5 184.5 12.4 C 184.3 12.3 184.1 12.2 184.3 12.1 C 184.5 12.0 184.9 11.9 184.8 11.8 C 184.6 11.7 184.5 11.6 184.5 11.4 C 184.5 11.2 184.7 11.1 184.9 11.1 C 185.0 11.1 185.5 10.9 185.3 11.2 C 185.0 11.4 185.6 11.2 185.7 11.3 C 185.8 11.4 185.8 11.1 186.1 11.1 C 186.4 11.1 186.4 11.4 185.9 12.0 C 185.8 12.1 185.5 12.4 185.7 12.4 C 185.9 12.5 186.1 12.3 186.1 12.1 C 186.2 11.8 186.3 12.2 186.5 12.2 C 186.6 12.2 186.4 11.9 186.5 12.0 C 186.7 12.0 186.9 12.1 186.9 11.9 C 187.0 11.7 187.1 11.6 186.9 11.7 C 186.7 11.7 186.5 11.6 186.6 11.5 C 186.7 11.4 188.0 10.6 187.5 10.8 C 186.8 10.9 189.4 9.5 187.7 10.0 C 186.1 10.4 187.8 8.8 187.0 9.0 C 186.3 9.3 186.5 8.4 185.8 8.7 C 185.6 8.8 185.2 8.7 185.2 8.6 C 185.2 8.6 185.4 8.3 185.4 8.3 C 185.3 8.2 185.1 8.3 184.9 8.4 C 184.6 8.6 184.6 8.7 184.1 8.8 C 183.7 8.9 183.5 9.0 183.2 9.1 C 182.9 9.2 182.8 9.4 182.8 9.5 C 182.8 9.5 183.0 9.5 183.0 9.7 C 183.1 9.8 182.8 10.0 182.6 10.0 C 182.3 10.1 182.1 9.9 181.9 10.0 C 181.7 10.1 181.2 10.1 181.3 10.0 C 181.5 9.8 181.9 9.9 182.1 9.8 C 182.3 9.7 182.7 9.5 182.5 9.5 C 182.2 9.5 181.3 9.9 181.1 9.9 C 181.0 10.0 180.6 10.8 180.4 10.6 C 180.1 10.4 179.6 10.7 179.4 10.7 C 179.2 10.7 178.1 11.4 178.3 11.5 C 178.7 11.7 177.6 12.2 177.7 12.5 C 177.8 12.7 177.2 12.1 176.6 12.5 M 185.2 12.2 C 185.2 12.2 185.4 12.0 185.5 11.9 C 185.7 11.9 185.7 12.1 185.5 12.1 C 185.4 12.2 185.3 12.2 185.2 12.2 Z M 185.5 11.8 C 185.4 11.8 185.4 11.7 185.6 11.6 C 185.9 11.5 185.8 11.7 185.7 11.8 C 185.7 11.8 185.6 11.9 185.5 11.8 Z M 181.6 14.2 C 181.6 14.2 181.7 14.1 182.0 14.1 C 182.2 14.1 182.2 14.3 182.0 14.4 C 181.9 14.5 181.6 14.3 181.6 14.2 Z M 181.8 13.6 C 181.8 13.5 181.8 13.4 182.0 13.4 C 182.3 13.4 182.3 13.5 182.1 13.6 C 182.0 13.7 181.8 13.6 181.8 13.6 Z M 179.0 14.6 C 179.4 14.4 179.2 15.0 178.7 15.0 C 178.3 15.0 178.6 14.7 179.0 14.6 Z M 179.4 11.0 C 179.4 11.0 179.2 11.2 179.1 11.2 C 178.7 11.2 179.4 11.0 179.4 11.0 Z M 185.2 11.5 C 185.2 11.5 185.0 11.7 185.0 11.6 C 184.6 11.6 185.2 11.5 185.2 11.5 Z M 186.0 9.6 C 185.9 9.7 185.8 9.6 185.9 9.6 C 185.9 9.5 186.1 9.5 186.0 9.6 Z M 179.5 13.9 C 179.4 14.1 179.2 14.0 179.3 13.9 C 179.5 13.8 179.6 13.8 179.5 13.9 Z M 178.4 14.9 C 178.4 14.9 178.2 14.9 178.3 14.8 C 178.4 14.8 178.5 14.8 178.4 14.9 Z M 180.8 14.5 C 180.6 14.3 180.6 14.1 180.9 14.2 C 181.3 14.3 181.3 14.5 181.3 14.6 C 181.4 14.7 180.8 14.9 180.7 14.7 C 180.4 14.4 181.0 14.6 180.8 14.5 Z M 180.6 11.1 C 180.4 11.1 180.5 10.9 180.7 10.9 C 180.9 11.0 180.8 11.1 180.6 11.1 Z M 178.1 15.7 C 178.4 15.6 178.5 15.7 178.2 15.7 M 183.7 10.0 C 183.4 10.0 183.9 10.1 183.5 10.2 C 183.2 10.2 183.2 9.9 183.5 9.9 C 183.9 9.8 183.9 9.9 183.7 10.0 Z M 184.0 11.7 C 184.0 11.6 184.2 11.6 184.1 11.9 C 184.1 12.1 183.5 11.8 183.7 11.7 C 183.9 11.6 183.9 11.8 184.0 11.7 Z M 177.5 12.2 C 177.5 12.4 177.2 12.3 177.3 12.2 C 177.4 12.0 177.5 12.0 177.5 12.2 Z M 179.9 12.5 C 179.8 12.6 179.7 12.5 179.8 12.4 C 179.9 12.3 179.9 12.4 179.9 12.5 Z M 184.9 12.1 C 184.8 12.2 184.7 12.2 184.8 12.1 C 184.9 12.0 184.9 12.0 184.9 12.1 Z M 179.9 15.2 C 179.4 15.6 179.0 15.6 179.5 15.0 C 179.8 14.7 180.0 15.2 179.9 15.2 Z M 182.6 11.1 C 182.5 11.2 182.4 11.1 182.5 11.1 C 182.6 11.0 182.7 11.0 182.6 11.1 Z M 182.5 12.2 C 182.8 12.2 182.5 12.5 181.9 12.6 C 181.2 12.7 181.6 11.9 182.0 11.9 C 182.6 11.9 182.2 12.1 182.5 12.2 Z M 180.8 13.8 C 180.8 14.0 180.5 13.9 180.7 13.7 C 180.8 13.6 180.9 13.6 180.8 13.8 Z M 181.7 13.7 C 181.7 13.8 181.4 13.8 181.6 13.7 C 181.6 13.7 181.7 13.6 181.7 13.7 Z M 177.8 11.8 C 177.7 11.9 177.5 11.9 177.7 11.8 C 177.7 11.8 177.8 11.7 177.8 11.8 Z M 178.7 13.6 C 178.7 13.7 178.4 13.6 178.5 13.6 C 178.6 13.5 178.7 13.5 178.7 13.6 Z M 187.2 19.7 C 187.3 19.6 187.5 19.3 187.6 19.4 C 187.6 19.6 187.2 19.8 187.2 19.7 Z M 185.1 21.9 C 185.1 22.0 184.6 22.4 184.8 21.9 C 184.9 21.7 185.1 21.8 185.1 21.9 Z M 188.6 17.1 C 188.7 17.0 188.7 17.0 188.7 17.1 C 188.7 17.2 188.5 17.3 188.6 17.1 Z M 188.8 10.0 C 188.8 9.8 189.1 9.7 189.2 9.5 C 189.2 9.4 189.2 9.4 189.2 9.4 C 189.2 9.5 189.3 9.6 189.3 9.6 C 189.2 9.7 189.2 9.7 189.2 9.7 C 189.1 9.9 188.7 10.2 188.8 10.0 Z M 189.3 9.0 C 189.5 8.8 189.4 9.2 189.2 9.4 C 189.2 9.2 189.3 9.0 189.3 9.0 Z M 183.5 23.6 C 183.5 23.7 183.2 23.8 183.3 23.7 C 183.4 23.5 183.4 23.4 183.5 23.6 Z M 184.7 21.6 C 184.8 21.6 184.8 21.7 184.7 21.7 C 184.6 21.8 184.6 21.7 184.7 21.6 Z M 191.0 13.2 C 190.9 13.2 190.9 13.1 191.1 13.0 C 191.2 12.8 191.3 12.9 191.2 13.1 C 191.2 13.2 191.0 13.3 191.0 13.2 Z M 191.5 13.2 C 191.7 13.1 191.8 13.2 191.7 13.4 C 191.7 13.6 191.3 13.6 191.3 13.6 C 191.2 13.5 191.3 13.3 191.5 13.2 Z M 191.2 14.6 C 191.2 14.7 191.0 14.8 191.1 14.6 C 191.1 14.5 191.1 14.5 191.2 14.6 Z M 192.9 9.0 C 193.1 8.8 193.1 9.0 193.1 9.1 C 193.1 9.2 193.1 9.3 193.0 9.3 C 192.9 9.3 192.8 9.2 192.9 9.0 Z M 190.4 15.3 C 190.2 15.9 189.8 16.1 190.0 15.4 C 190.1 14.9 190.4 15.2 190.4 15.3 Z M 189.1 16.7 C 189.3 16.4 189.4 16.4 189.3 16.6 C 189.1 16.8 189.5 16.7 189.3 16.9 C 189.0 17.1 188.9 16.9 189.1 16.7 Z M 189.4 15.2 C 189.6 14.9 189.7 15.5 189.3 15.7 C 188.9 15.9 189.1 15.6 189.4 15.2 Z M 189.2 14.5 C 189.3 14.3 189.4 14.3 189.4 14.4 C 189.4 14.6 189.2 14.6 189.2 14.5 Z M 188.9 15.8 C 189.0 15.7 189.0 15.7 189.0 15.8 C 189.0 15.9 188.8 16.0 188.9 15.8 Z M 192.7 9.9 C 192.7 10.0 192.5 10.1 192.6 9.9 C 192.6 9.8 192.6 9.8 192.7 9.9 Z M 185.0 15.4 C 185.0 15.5 184.8 15.6 184.9 15.4 C 184.9 15.4 185.0 15.3 185.0 15.4 Z M 192.5 9.2 C 192.5 9.2 192.5 9.4 192.4 9.4 C 192.1 9.6 192.5 9.2 192.5 9.2 Z M 186.9 14.0 C 187.0 14.2 186.7 14.3 186.7 14.1 C 186.8 13.9 186.8 13.8 186.9 14.0 Z M 186.9 13.6 C 187.0 13.7 186.8 13.8 186.9 13.6 C 186.9 13.6 186.9 13.5 186.9 13.6 Z M 185.8 19.6 C 185.8 19.5 186.0 19.4 186.0 19.6 C 186.0 19.7 185.8 19.7 185.8 19.6 Z M 182.1 22.6 C 181.9 22.8 181.1 22.5 181.1 22.3 C 181.1 22.1 181.0 21.3 180.8 21.2 C 180.7 21.2 181.1 20.7 181.1 20.6 C 181.2 20.5 181.6 20.4 181.7 20.3 C 181.7 20.3 181.9 19.9 181.9 19.9 C 181.9 19.9 181.9 19.8 182.1 19.5 C 182.3 19.2 182.6 19.1 182.9 18.9 C 183.2 18.6 183.1 18.3 183.3 18.0 C 183.5 17.7 184.1 17.7 184.4 17.5 C 184.6 17.2 184.2 17.0 184.4 16.7 C 184.6 16.3 184.8 16.2 184.8 16.3 C 184.8 16.5 185.0 16.4 185.0 16.3 C 185.1 16.2 185.5 15.9 185.5 15.7 C 185.5 15.5 184.5 16.3 185.4 15.1 C 185.8 14.5 186.5 13.7 186.4 14.4 C 186.3 15.0 187.3 14.3 187.2 14.2 C 187.0 14.0 187.6 13.0 187.2 13.0 C 187.0 13.0 187.5 11.9 187.7 11.7 C 187.8 11.6 188.0 11.1 188.4 11.1 C 188.6 11.1 189.8 10.1 189.4 9.8 C 189.3 9.7 189.3 9.7 189.3 9.6 C 189.4 9.5 189.6 9.5 189.7 9.4 C 189.9 9.2 190.0 8.9 189.9 8.8 C 189.7 8.7 189.6 8.8 189.6 8.8 C 189.5 8.7 189.5 8.6 189.6 8.4 C 189.4 8.4 189.1 8.2 189.1 8.3 C 189.3 8.4 188.7 8.4 188.6 8.3 C 188.5 8.2 188.3 8.1 188.1 7.9 C 187.9 7.8 187.9 7.9 187.9 8.0 C 187.9 8.2 187.6 8.1 187.4 8.1 C 187.2 8.0 187.0 8.0 186.9 7.8 C 186.7 7.6 187.3 7.7 187.3 7.6 C 187.4 7.4 186.9 6.9 186.7 7.0 C 186.3 7.0 185.3 6.3 185.3 6.5 C 185.3 6.7 185.3 7.0 184.8 6.9 C 183.3 6.6 185.3 6.5 184.9 6.4 C 183.7 6.3 184.1 6.3 183.7 6.2 C 183.3 6.2 183.1 5.9 183.1 6.1 C 183.2 6.2 183.0 6.1 182.7 6.0 C 182.4 5.8 182.9 6.5 182.7 6.4 C 182.5 6.3 182.5 6.4 182.3 6.5 C 182.0 6.6 182.1 6.3 181.8 6.2 C 181.4 6.1 181.6 6.5 181.3 6.5 C 181.0 6.5 181.9 6.6 181.5 6.7 C 181.0 6.8 180.4 6.5 180.3 6.4 C 180.2 6.3 181.1 6.4 181.2 6.3 C 181.2 6.2 180.7 6.2 180.8 6.1 C 180.8 6.0 180.3 5.8 180.0 5.7 C 179.7 5.7 179.5 6.0 179.7 6.1 C 179.9 6.3 179.4 6.3 179.2 6.2 C 179.0 6.2 179.0 6.3 178.8 6.3 C 178.6 6.3 178.4 6.4 178.2 6.3 C 177.9 6.2 178.2 6.1 178.1 6.1 C 178.1 6.0 177.9 6.0 177.5 6.1 C 177.2 6.3 177.7 5.6 177.4 5.6 C 177.1 5.6 176.7 5.6 176.4 5.6 C 176.1 5.5 176.2 5.7 176.3 5.8 C 176.3 5.9 175.6 5.6 175.7 5.7 C 175.8 5.8 175.9 6.2 175.7 6.2 C 175.2 6.2 175.5 6.1 175.4 5.9 C 175.3 5.7 174.5 5.7 174.6 5.6 C 174.7 5.4 175.4 5.4 175.3 5.3 C 175.3 5.2 174.7 4.9 174.7 4.8 C 174.8 4.7 175.6 4.4 175.4 4.3 C 175.2 4.3 174.7 3.9 174.9 3.8 C 175.0 3.7 175.6 3.7 175.5 3.6 C 174.8 3.1 176.6 2.9 176.7 2.8 C 176.8 2.8 176.7 3.3 177.0 3.2 C 177.3 3.2 177.7 3.4 177.5 3.5 C 177.5 3.5 177.7 3.4 177.9 3.4 C 178.2 3.4 178.4 3.5 178.7 3.6 C 179.0 3.6 179.2 3.5 179.5 3.4 C 179.8 3.4 180.0 3.8 180.3 3.9 C 180.6 3.9 180.6 3.6 181.0 3.6 C 181.3 3.6 181.5 3.6 181.4 3.7 C 181.3 3.8 181.4 3.8 181.5 3.8 C 181.6 3.9 181.9 4.0 182.1 3.9 C 182.3 3.9 181.3 3.5 182.6 3.6 C 183.3 3.7 183.7 4.1 183.5 4.1 C 183.0 4.1 183.9 4.8 184.0 4.6 C 184.0 4.4 185.2 4.6 185.0 4.3 C 184.9 4.2 186.1 4.2 186.2 4.3 C 186.4 4.4 187.0 4.4 187.1 4.7 C 187.1 4.9 187.9 4.6 188.0 4.7 C 188.2 4.7 189.1 5.0 189.3 5.1 C 189.5 5.2 189.0 5.1 188.8 5.1 C 188.6 5.0 188.3 4.8 188.1 4.8 C 188.0 4.8 188.3 5.0 188.6 5.1 C 188.8 5.2 188.8 5.4 189.0 5.5 C 189.3 5.6 189.6 5.6 189.6 5.5 C 189.6 5.4 189.5 5.3 189.6 5.2 C 189.6 5.2 189.8 5.2 190.1 5.2 C 190.4 5.3 190.6 5.4 191.0 5.6 C 191.4 5.8 191.5 5.8 191.8 5.8 C 192.0 5.9 192.3 6.0 192.3 6.0 C 192.3 6.1 191.9 6.1 191.9 6.1 C 191.8 6.2 192.1 6.3 192.2 6.4 C 192.3 6.5 193.0 7.0 193.1 7.0 C 193.1 7.1 193.0 7.2 193.0 7.3 L 193.2 7.5 C 193.2 7.7 193.8 8.5 193.9 8.3 C 194.0 8.2 194.0 8.3 194.1 8.6 C 194.2 8.8 194.0 8.8 193.8 8.8 C 193.7 8.9 194.0 9.1 193.9 9.1 C 193.8 9.1 193.5 8.9 193.6 9.1 C 193.6 9.4 193.7 9.7 193.5 9.7 C 193.3 9.7 193.3 9.4 193.3 9.2 C 193.3 8.4 193.4 8.5 193.2 8.6 C 193.0 8.8 192.9 8.7 192.8 8.7 C 192.7 8.7 192.4 9.1 192.4 8.9 L 192.3 9.0 C 192.4 9.0 192.2 9.0 192.1 8.9 C 192.1 8.9 192.0 9.0 192.0 9.0 C 191.9 9.0 191.8 9.3 192.0 9.5 C 192.0 9.7 192.3 9.7 192.4 9.7 C 192.5 9.7 192.3 10.0 192.2 10.2 C 192.1 10.4 192.3 10.4 192.5 10.3 C 192.7 10.3 192.7 10.2 192.9 10.0 C 193.1 9.9 193.1 10.0 193.2 10.1 C 193.3 10.2 192.8 10.7 192.9 10.6 C 193.0 10.5 193.0 11.2 192.9 11.2 C 192.8 11.2 192.6 11.4 192.3 11.5 C 192.1 11.7 192.2 11.7 192.4 11.8 C 192.6 11.8 192.5 12.1 192.4 12.3 C 192.2 12.5 192.2 12.7 191.9 12.8 C 191.7 12.8 191.9 12.3 191.8 12.2 C 191.6 12.0 190.9 12.3 190.9 12.5 C 190.9 13.0 189.9 14.0 190.1 14.2 C 190.2 14.3 191.6 12.9 190.4 14.7 C 190.1 15.1 189.5 13.7 189.3 14.1 C 188.7 15.1 189.3 14.8 189.1 15.2 C 188.9 15.6 188.4 15.7 188.6 15.7 C 188.8 15.7 188.6 15.9 188.3 16.1 C 188.0 16.4 189.1 16.2 188.9 16.3 C 188.7 16.4 188.8 16.6 188.8 16.8 C 188.8 17.0 188.6 16.8 188.3 17.1 C 187.9 17.5 188.5 17.4 188.4 17.7 C 188.3 18.0 188.9 17.2 188.8 17.7 C 188.6 18.2 188.0 18.6 187.8 18.7 C 187.6 18.7 188.1 17.5 187.7 18.0 C 187.6 18.1 187.3 18.1 187.2 18.0 C 187.1 17.9 186.6 18.6 186.3 18.8 C 186.1 19.1 186.8 19.3 187.1 19.1 C 187.4 19.0 187.1 19.4 186.9 19.6 C 186.7 19.8 186.9 19.8 186.8 20.1 C 186.7 20.3 186.6 20.5 186.4 20.7 C 186.1 20.9 186.2 20.6 186.0 20.6 C 185.9 20.6 185.6 21.0 185.6 21.4 C 185.6 21.8 185.3 20.8 185.1 21.1 C 184.9 21.4 184.4 21.7 184.1 22.0 C 183.7 22.2 184.1 22.2 184.3 22.2 C 184.4 22.2 183.4 22.8 183.7 22.7 C 184.0 22.6 184.6 22.8 184.5 22.9 C 184.0 23.4 184.1 23.0 183.7 23.0 C 183.3 23.1 182.6 23.8 182.5 23.6 C 182.4 23.4 182.9 22.8 182.7 22.8 C 182.6 22.8 182.1 23.2 182.0 23.1 C 182.0 23.0 182.3 22.4 182.1 22.6 Z M 177.4 3.9 C 177.2 3.8 176.9 3.8 177.1 3.7 C 177.2 3.6 177.2 3.6 177.0 3.6 C 176.8 3.6 176.9 3.8 177.0 3.8 C 177.0 3.9 177.6 4.0 177.4 3.9 Z M 179.2 5.4 C 178.8 5.3 178.1 5.7 178.1 5.8 C 178.1 6.0 178.5 6.0 178.7 6.1 C 179.0 6.2 179.5 5.5 179.2 5.4 Z M 179.0 4.0 C 178.8 3.9 178.6 4.1 178.9 4.1 C 179.1 4.2 178.9 4.0 179.1 4.1 C 179.3 4.1 179.3 4.0 179.0 4.0 Z M 179.6 3.6 C 179.5 3.5 179.3 3.6 179.3 3.6 C 179.4 3.7 179.7 3.7 179.6 3.6 Z M 181.7 6.0 C 181.5 5.9 181.2 5.9 181.4 5.8 C 181.5 5.8 181.5 5.8 181.3 5.7 C 181.1 5.6 181.2 5.8 181.3 5.9 C 181.3 6.1 181.9 6.2 181.7 6.0 Z M 181.3 4.0 C 181.2 4.1 181.5 4.1 181.5 4.1 C 181.5 4.0 181.4 4.0 181.3 4.0 Z M 182.1 5.4 C 181.8 5.5 182.1 5.6 182.2 5.6 C 182.2 5.5 182.3 5.4 182.1 5.4 Z M 183.4 5.4 C 183.0 5.3 183.1 5.5 183.2 5.5 C 183.2 5.6 182.8 5.7 183.2 5.7 C 183.6 5.6 183.9 6.0 184.2 5.8 C 184.6 5.6 183.9 5.4 183.4 5.4 Z M 184.4 6.2 C 184.3 6.2 184.4 6.3 184.5 6.3 C 184.6 6.2 184.5 6.2 184.4 6.2 Z M 185.6 5.5 C 185.5 5.5 185.5 5.6 185.6 5.6 C 185.7 5.5 185.7 5.5 185.6 5.5 Z M 185.8 4.5 C 185.8 4.5 186.1 4.5 186.1 4.5 C 186.1 4.5 185.5 4.3 185.8 4.5 Z M 187.7 7.6 C 188.2 7.9 188.6 7.9 188.4 7.7 C 188.2 7.5 188.6 7.6 188.1 7.3 C 187.8 7.1 187.1 7.3 187.7 7.6 Z M 187.1 5.1 C 187.0 5.0 186.8 5.0 187.0 5.1 C 187.1 5.2 187.2 5.2 187.1 5.1 Z M 188.0 6.5 C 187.8 6.3 187.8 6.4 187.8 6.6 C 187.8 6.8 187.5 6.4 187.5 6.7 C 187.6 6.8 188.1 7.1 188.1 7.0 C 188.2 6.9 188.2 6.8 188.0 6.5 Z M 190.3 10.3 C 190.2 10.4 190.4 10.4 190.4 10.3 C 190.4 10.1 190.3 10.2 190.3 10.3 Z M 188.5 6.1 C 188.3 6.1 188.4 6.2 188.5 6.2 C 188.6 6.1 188.5 6.1 188.5 6.1 Z M 189.2 7.2 C 189.1 7.3 189.2 7.1 189.0 7.1 C 188.8 7.0 189.1 7.6 189.3 7.4 C 189.5 7.3 189.3 7.2 189.2 7.2 Z M 189.8 7.4 C 189.7 7.5 189.7 7.6 189.8 7.8 C 189.8 7.9 189.5 7.7 189.3 7.7 C 189.0 7.6 189.1 7.7 189.2 7.9 C 189.3 8.1 189.4 8.0 189.6 8.2 C 189.6 8.2 189.6 8.2 189.7 8.2 C 189.7 8.0 189.8 7.9 190.0 7.7 C 189.9 7.7 190.0 7.7 190.0 7.7 C 190.1 7.6 190.1 7.5 190.2 7.4 C 190.2 7.4 190.3 7.4 190.3 7.4 C 190.2 7.3 189.9 7.3 189.8 7.4 Z M 190.5 8.9 C 190.7 8.8 190.5 8.8 190.5 8.8 C 190.4 8.8 190.4 8.8 190.3 8.8 C 190.2 9.0 190.3 9.2 190.5 8.9 Z M 189.9 5.9 C 189.6 5.8 189.4 5.9 189.7 6.1 C 190.1 6.3 189.7 6.0 190.0 6.1 C 190.2 6.2 190.2 6.1 189.9 5.9 Z M 191.9 10.1 C 191.8 9.8 191.7 9.9 191.7 10.0 C 191.7 10.2 191.6 10.0 191.5 10.2 C 191.4 10.4 192.1 10.3 191.9 10.1 Z M 191.9 11.8 C 192.4 11.4 192.4 11.0 192.1 11.1 C 191.9 11.3 192.0 10.9 191.6 11.2 C 191.3 11.4 191.4 12.3 191.9 11.8 Z M 190.8 11.5 C 190.9 11.6 191.3 11.2 191.2 11.0 C 191.1 10.9 191.0 10.9 190.7 11.0 C 190.4 11.1 190.5 11.2 190.7 11.2 C 190.9 11.3 190.4 11.4 190.8 11.5 Z M 188.8 11.4 C 189.0 11.3 189.0 11.1 188.8 11.2 C 188.6 11.2 188.6 11.5 188.8 11.4 Z M 188.9 13.0 C 188.9 12.8 188.9 12.8 188.8 13.0 C 188.8 13.1 189.0 13.1 188.9 13.0 Z M 189.3 11.5 C 189.3 11.5 188.5 12.0 188.7 12.2 C 188.7 12.3 189.3 11.5 189.3 11.5 Z M 188.0 15.4 C 188.1 15.4 188.1 15.9 188.2 15.4 C 188.3 15.0 188.8 14.9 188.7 14.5 C 188.6 14.0 188.1 14.7 187.9 15.1 C 187.7 15.5 187.9 15.5 188.0 15.4 Z M 187.3 16.4 C 187.2 16.8 187.6 16.5 187.6 16.4 C 187.6 16.4 187.4 16.2 187.3 16.4 Z M 187.6 17.5 C 187.8 17.5 188.3 17.0 188.0 17.1 C 187.7 17.2 187.5 17.5 187.5 17.3 C 187.5 17.1 187.5 17.2 187.3 17.4 C 187.1 17.5 187.5 17.5 187.6 17.5 Z M 185.3 16.4 C 185.2 16.4 185.2 16.4 185.2 16.5 C 185.2 16.7 185.4 16.4 185.3 16.4 Z M 185.7 20.5 C 185.9 20.6 186.1 20.2 186.4 20.0 C 186.7 19.8 186.0 19.0 185.7 19.3 C 185.4 19.5 185.4 20.4 185.7 20.5 Z M 183.5 18.0 C 183.4 18.1 183.4 18.3 183.5 18.3 C 183.6 18.2 183.7 17.9 183.5 18.0 Z M 183.8 19.0 C 184.1 18.7 183.7 18.9 183.8 18.7 C 184.0 18.5 183.9 18.5 183.7 18.7 C 183.4 18.9 183.5 19.2 183.8 19.0 Z M 182.0 20.6 C 182.2 20.6 182.6 20.1 182.4 20.2 C 182.1 20.3 181.9 20.6 181.9 20.4 C 181.9 20.3 181.8 20.3 181.7 20.5 C 181.4 20.6 181.8 20.6 182.0 20.6 Z M 186.1 20.1 C 186.1 20.3 185.7 20.3 185.8 20.2 C 186.0 20.0 186.1 19.9 186.1 20.1 Z M 188.5 14.5 C 188.6 14.6 188.3 14.8 188.4 14.6 C 188.4 14.5 188.5 14.4 188.5 14.5 Z M 183.1 6.3 C 183.3 6.3 183.3 6.3 183.2 6.3 C 183.1 6.4 183.0 6.3 183.1 6.3 Z M 186.2 7.7 C 186.0 7.7 185.9 7.5 185.9 7.4 C 186.0 7.4 186.1 7.4 186.3 7.5 C 186.5 7.6 186.4 7.8 186.2 7.7 Z M 186.2 7.1 C 186.3 7.1 186.4 7.1 186.3 7.2 C 186.2 7.2 186.0 7.1 186.2 7.1 Z M 185.5 6.7 C 185.7 6.7 185.7 6.7 185.6 6.8 C 185.5 6.9 185.2 6.7 185.5 6.7 Z M 186.7 7.2 C 186.9 7.3 186.9 7.3 186.7 7.3 C 186.5 7.3 186.4 7.2 186.5 7.2 C 186.5 7.1 186.6 7.1 186.7 7.2 Z M 182.2 3.5 C 182.2 3.5 182.0 3.5 182.2 3.4 C 182.2 3.4 182.3 3.4 182.2 3.5 Z M 184.4 4.3 C 184.3 4.3 184.2 4.2 184.3 4.2 C 184.4 4.2 184.5 4.2 184.4 4.3 Z M 174.5 4.1 C 174.4 4.2 174.1 4.1 174.2 4.0 C 174.3 4.0 174.6 4.1 174.5 4.1 Z M 174.7 5.2 C 174.6 5.3 174.5 5.2 174.6 5.1 C 174.8 5.1 174.8 5.1 174.7 5.2 Z M 189.7 8.0 C 189.6 8.0 189.5 7.9 189.6 7.9 C 189.8 7.9 189.8 8.0 189.7 8.0 Z M 184.0 4.4 C 183.9 4.5 183.7 4.3 183.9 4.3 C 184.1 4.2 184.1 4.3 184.0 4.4 Z M 183.9 6.9 C 184.3 6.8 184.2 7.2 184.0 7.2 C 183.5 7.2 183.2 7.0 183.9 6.9 Z M 181.9 6.4 C 182.0 6.4 182.1 6.5 182.0 6.5 C 181.9 6.5 181.8 6.4 181.9 6.4 Z M 184.1 5.7 C 184.1 5.7 183.9 5.6 184.0 5.6 C 184.1 5.6 184.2 5.6 184.1 5.7 Z M 182.5 6.6 C 182.7 6.7 182.8 6.8 182.5 6.7 C 182.3 6.7 182.6 6.9 182.3 6.8 C 182.0 6.7 182.2 6.5 182.5 6.6 Z M 183.3 6.5 C 183.0 6.3 183.4 6.3 183.8 6.4 C 184.2 6.5 183.7 6.8 183.3 6.5 Z M 193.1 7.0 C 193.1 7.0 193.1 7.0 193.1 7.0 C 193.1 7.0 193.1 7.0 193.1 7.0 Z M 176.6 6.0 C 176.9 5.9 176.8 6.1 176.7 6.1 C 176.6 6.1 176.2 6.0 176.6 6.0 Z M 179.0 5.6 C 178.9 5.7 178.8 5.6 178.9 5.6 C 179.0 5.6 179.1 5.6 179.0 5.6 Z M 178.6 5.9 C 178.4 6.0 178.3 5.8 178.4 5.8 C 178.6 5.8 178.7 5.9 178.6 5.9 Z M 176.8 5.8 C 176.8 5.8 176.8 5.7 176.9 5.8 C 177.0 5.8 176.9 5.9 176.8 5.8 Z M 180.5 6.0 C 180.8 6.1 180.3 6.4 180.0 6.1 C 179.7 5.9 180.0 5.9 180.5 6.0 Z M 180.5 6.0 " fill="#34A4DA"></path></g></svg>